<svg id="Layer_1" data-name="Layer 1" xmlns="http://www.w3.org/2000/svg" xmlns:xlink="http://www.w3.org/1999/xlink" viewBox="0 0 640 360"><defs><style>.cls-1{fill:none;}.cls-2{clip-path:url(#clip-path);}.cls-3{fill:#fff;}</style><clipPath id="clip-path"><rect class="cls-1" width="640" height="360"/></clipPath></defs><title>1</title><rect width="640" height="360"/><g class="cls-2"><path class="cls-3" d="M571.37,71.6c0-3,2.42-5,5.94-5h1l12.38,11.67h4l1-12.68a45.64,45.64,0,0,0-17.31-3.62c-13.79,0-21.94,7.45-21.94,17.41,0,16.81,27.57,15.9,27.57,26,0,2.92-1.51,5.33-6,5.33a15.1,15.1,0,0,1-2.11-.2L561.4,98.27h-4.73v13.08a56.78,56.78,0,0,0,20.43,4.13c13.89,0,22-6.44,22-16.5,0-18.42-27.77-17.41-27.77-27.37m-24.65,34.62V61.94h-5.33l-20.63,5.53v4L527,73.31v31.19a10.42,10.42,0,0,1-6.14,2c-5.13,0-6.64-3-6.64-8.75V61.94h-5.33l-20.63,5.53v4l6.24,1.81V98.77c0,9.16,7.14,16.7,18,16.7,6.64,0,11.07-1.51,17-7.15l2,6.34h5.54l15.5-3.32v-3.62Zm-63.9,0a6,6,0,0,1-3.62,1.41c-3,0-4.63-2.21-4.63-8.25V70.29l4.63.4L484,67.17V63.55h-9.46V47.35H469l-11.67,16.2H449.2V68l5.64.5v32.91c0,10.87,6.44,14.09,14.59,14.09a23.06,23.06,0,0,0,15-5.63Zm-40.45-2.11a19.35,19.35,0,0,1-7.85,1.71c-11.67,0-19.62-9.26-19.62-22.74,0-9.16,3.32-15.6,7.45-16.4L439,84h4.43V67.27c-3.12-2.82-9.46-5.33-18.31-5.33-15.7,0-28.88,11.67-28.88,28.78,0,14.29,9.46,24.76,28.38,24.76,8.45,0,15.09-2.11,20-8.35ZM366,66.87c2.62,0,6.34,3.93,6.34,16v.91l-13.79.2c0-10.26,3.32-17.11,7.45-17.11m11.77,38.94c-9,0-16.81-6.74-18.72-16.91h26.26L390,81.26c-.1-12-8.75-19.32-21.33-19.32-16.3,0-28.78,12-28.78,28.58,0,15.7,10.77,25,28.38,25,8.65,0,15.2-2.21,20-8.35l-2.32-3a18.84,18.84,0,0,1-8.25,1.71M311.95,94.74c0,10.87-2.52,15.8-6,15.8-4.73,0-7.75-7.14-7.75-14.19V72.61a6.72,6.72,0,0,1,3.52-.9c8.75,0,10.26,13.89,10.26,23m-6.54,20.73c16.1,0,27.27-11.87,27.27-28.78,0-15.5-8.55-24.75-20.73-24.75-5.84,0-11.47,2.92-15.9,6.34l-1.91-5.53H288.6l-16.4,3.72v4l6.24,1.61v61l-7,1.91v4h35.22v-4l-8.45-2.32v-18a32.59,32.59,0,0,0,7.24.81M240.81,71.6c0-3,2.41-5,5.94-5h1l12.38,11.67h4l1-12.68a45.63,45.63,0,0,0-17.31-3.62c-13.79,0-21.94,7.45-21.94,17.41,0,16.81,27.57,15.9,27.57,26,0,2.92-1.51,5.33-6,5.33a15.12,15.12,0,0,1-2.11-.2L230.84,98.27h-4.73v13.08a56.79,56.79,0,0,0,20.43,4.13c13.89,0,22-6.44,22-16.5,0-18.42-27.77-17.41-27.77-27.37m-48.7,38.74c-8.05,0-8.85-21-8.85-29.38,0-9.56,2.41-14,6.14-14,8.15,0,9,21.33,9,29.48,0,9.56-2.62,13.89-6.24,13.89m-1.21,5.13c22.54,0,28.18-16.1,28.18-27.07,0-12.38-6-26.46-28.38-26.46-22.54,0-28.18,15.7-28.18,26.57,0,12.48,6.14,27,28.38,27M143.3,72.61l3,12.38h11.07L160,64.46a7.68,7.68,0,0,0-5.63-2.62c-4.93,0-9,2.62-13.18,6l-3.52,2.92L136.36,62h-6.14l-17.81,4.83v4l6.24,1.51v36.43l-5.74,1.41v3.62h34.21v-3.62L138.37,108V75.93a42.38,42.38,0,0,1,4.93-3.32M77,81.06a16.26,16.26,0,0,1-2.21-.1L74,85.39a24.52,24.52,0,0,0,3.82.3c19.32,0,31.2-10.57,31.2-23.85,0-13.08-10.87-19.42-28-19.42H40.86v4l7.55,1.71v60.08l-6.54,1.61v4H78.09v-4l-7.55-1.71V46.85a23,23,0,0,1,2.62-.2c7.55,0,12.68,8.55,12.68,16.6,0,9.46-3.32,17.81-8.85,17.81"/><path class="cls-3" d="M556.48,141.16a2.13,2.13,0,0,1,2,2.37l-4.08.05c.25-1.7,1.27-2.43,2.07-2.43m1.45,7a3.42,3.42,0,0,1-3.57-3.73v-.13h5.4l.49-.87a3.08,3.08,0,0,0-3.37-3.14,4.39,4.39,0,0,0-4.39,4.71,4.25,4.25,0,0,0,4.39,4.26,4.09,4.09,0,0,0,3.08-1.09l-.33-.45a3,3,0,0,1-1.7.44m-8.15.07v-4.93c0-1.65-.94-3-2.52-3a5.14,5.14,0,0,0-2.59,1l-.83.53v-6.5h-.47l-2.84.72v.47l1.58.43v11.29l-1.49.34v.51h4.71v-.51l-1.49-.34v-5.49a6.12,6.12,0,0,1,2.65-1.16c.92,0,1.56.72,1.56,2.12v4.53l-1.49.34v.51h4.71v-.51Zm-11.12-6.72,1.23-.56v-.47h-3.21v-2.72H536l-1.05,2.72h-1.76v.65l1.76.13v5.47c0,2,1.16,2.54,2.27,2.54a3.84,3.84,0,0,0,2.61-.94l-.18-.47a3.3,3.3,0,0,1-1.63.36c-.78,0-1.32-.6-1.32-1.85v-5ZM526,148.25v-4.91c0-1.65-.94-3-2.52-3a5.13,5.13,0,0,0-2.59,1l-.91.56-.15-1.56h-.43l-2.57.69v.47l1.49.4v6.36l-1.49.4v.47h4.71v-.47l-1.49-.4v-5.47a6.12,6.12,0,0,1,2.65-1.16c.92,0,1.56.72,1.56,2.12v4.51l-1.49.4v.47h4.71v-.47Zm-11.78,0v-7.92h-.47L511,141v.47l1.48.4v6.36l-1.48.4v.47h4.71v-.47Zm-.92-9.86a1,1,0,1,0,0-2.08,1.07,1.07,0,0,0-1.09,1.05,1,1,0,0,0,1.07,1m-8,2.12h-3.23V141l1.18.42-2.39,6-2.63-6.07,1.34-.38v-.47h-4.2V141l.85.29,3.79,8.34-.11.25-2.46,3.68V154h1.68l4.95-12.57,1.23-.45Zm-14.5.65a2.13,2.13,0,0,1,2,2.37l-4.08.05c.25-1.7,1.27-2.43,2.07-2.43m1.45,7a3.42,3.42,0,0,1-3.57-3.73v-.13h5.4l.49-.87a3.08,3.08,0,0,0-3.37-3.14,4.39,4.39,0,0,0-4.38,4.71,4.25,4.25,0,0,0,4.38,4.26,4.09,4.09,0,0,0,3.08-1.09l-.33-.45a3,3,0,0,1-1.7.44m-8.14.09V135.35h-.47l-2.84.72v.47l1.58.43v11.34l-1.39.33v.47h4.71v-.47Zm-5.65,0v-7.92H478l-2.75.69v.47l1.49.4v6.36l-1.49.4v.47H480v-.47Zm-.92-9.86a1,1,0,1,0,0-2.08,1.07,1.07,0,0,0-1.09,1.05,1,1,0,0,0,1.07,1m-10.13,8.68a1.83,1.83,0,0,1,1.36-1.65l2.25-.74V147c-.94.69-1.65,1.29-2.36,1.29a1.17,1.17,0,0,1-1.25-1.25m5.35.51v-4.11a2.8,2.8,0,0,0-3.1-3.14,5.21,5.21,0,0,0-3.5,1.43l.45,1.79h.73l.38-1.76a1.69,1.69,0,0,1,1.38-.62c1.25,0,1.92,1.14,1.92,2.59v.13l-3.12,1c-1.7.54-2.3,1.3-2.3,2.39a2,2,0,0,0,2.16,2c1.16,0,2-.56,3.35-1.54l.27,1.36h.47l2.48-.6V148Zm-13.17.82a13,13,0,0,1-1.52-.18l-.51-.09v-5.44h1.12c2.32,0,3.48,1.21,3.48,3.28a2.33,2.33,0,0,1-2.57,2.43m-1.87-11.05a6.69,6.69,0,0,1,1.14-.22c1.27,0,2.26.6,2.26,2.54,0,1.61-1,2.21-1.18,2.21H457.6v-4.49Zm3.35,4.77V142a3.07,3.07,0,0,0,1.94-2.9c0-1.65-1.36-2.68-4-2.68h-4.93V137l1.61.38v10.85l-1.31.36v.54h5.24c2.54,0,4.46-1.16,4.46-3.57a3.7,3.7,0,0,0-3-3.44m-17.72-.94a2.13,2.13,0,0,1,2,2.37l-4.08.05c.25-1.7,1.27-2.43,2.07-2.43m1.45,7a3.42,3.42,0,0,1-3.57-3.73v-.13h5.4l.49-.87a3.08,3.08,0,0,0-3.37-3.14,4.39,4.39,0,0,0-4.38,4.71,4.25,4.25,0,0,0,4.38,4.26,4.09,4.09,0,0,0,3.08-1.09l-.33-.45a3,3,0,0,1-1.7.44M439,140.51h-3.3V141l1.18.49-2.5,6-2.54-6,1.36-.43v-.47h-4.3V141l1,.38,3.51,7.94h1l3.28-7.77L439,141Zm-17,6.56a1.83,1.83,0,0,1,1.36-1.65l2.25-.74V147c-.94.69-1.65,1.29-2.36,1.29a1.17,1.17,0,0,1-1.25-1.25m5.35.51v-4.11a2.8,2.8,0,0,0-3.1-3.14,5.21,5.21,0,0,0-3.5,1.43l.45,1.79h.73l.38-1.76a1.69,1.69,0,0,1,1.38-.62c1.25,0,1.92,1.14,1.92,2.59v.13l-3.12,1c-1.7.54-2.3,1.3-2.3,2.39a2,2,0,0,0,2.16,2c1.16,0,2-.56,3.35-1.54l.27,1.36h.47l2.48-.6V148Zm-15.69.72a14.16,14.16,0,0,1-1.83-.22l-.6-.09V137.5l.36-.05a9.64,9.64,0,0,1,1.56-.2c2.85,0,5.24,2.08,5.24,6,0,3.62-2,5.09-4.73,5.09m.07-11.87h-6.2V137l1.79.45v10.69l-1.52.45v.54h6c4.48,0,6.61-3,6.61-6.61s-2.88-6.07-6.7-6.07m-12,4.08h-3.23V141l1.18.42-2.39,6-2.63-6.07L394,141v-.47h-4.2V141l.85.29,3.79,8.34-.11.25-2.47,3.68V154h1.69l4.95-12.57,1.23-.45Zm-14.88,8a2.3,2.3,0,0,1-2.32-2.57v-3.61a3,3,0,0,1,2-.94c1.43,0,2.52,1.54,2.52,3.75s-.82,3.37-2.21,3.37m.47-8.19a4.17,4.17,0,0,0-2.79,1.11v-6.09H382l-2.85.72v.47l1.58.43V149.3h.51l.63-.74a4,4,0,0,0,2.63.74,4.44,4.44,0,0,0,4.31-4.76c0-2.5-1.47-4.2-3.55-4.2M372,148.25v-4.91c0-1.65-.94-3-2.52-3a5.14,5.14,0,0,0-2.59,1l-.91.56-.14-1.56h-.43l-2.57.69v.47l1.48.4v6.36l-1.48.4v.47h4.71v-.47l-1.49-.4v-5.47a6.12,6.12,0,0,1,2.64-1.16c.92,0,1.56.72,1.56,2.12v4.51l-1.49.4v.47h4.71v-.47Zm-9.69-7.74H359V141l1.38.56-1.76,5.65-2.5-6.69h-.45l-3,6.65-1.41-5.71,1.45-.47v-.47h-4.48V141l1.11.38,2.16,7.94h1l2.75-6.05,2.36,6.05h1.05l2.52-7.85,1.07-.47Zm-21,6.56a1.83,1.83,0,0,1,1.36-1.65l2.25-.74V147c-.94.69-1.65,1.29-2.36,1.29a1.17,1.17,0,0,1-1.25-1.25m5.35.51v-4.11a2.8,2.8,0,0,0-3.1-3.14,5.21,5.21,0,0,0-3.5,1.43l.45,1.79h.72l.38-1.76a1.68,1.68,0,0,1,1.38-.62c1.25,0,1.92,1.14,1.92,2.59v.13l-3.12,1c-1.7.54-2.3,1.3-2.3,2.39a2,2,0,0,0,2.16,2c1.16,0,2-.56,3.35-1.54l.27,1.36h.47l2.48-.6V148Zm-9.49-7.25a4.53,4.53,0,0,0-2.21,1.21l-.6.45-.16-1.67h-.43l-2.57.71v.45l1.49.4v6.38l-1.49.34v.51h5.35v-.51l-2.12-.4v-5.4a5.59,5.59,0,0,1,1.85-1.07l.65,1.54h.69l.67-2.32a1.16,1.16,0,0,0-1.11-.63M325,148.23c-1.31,0-2.61-1-2.61-3.64,0-2.34,1.36-3.43,2.55-3.43s2,.92,2,2.43v3.59a2.71,2.71,0,0,1-2,1.05m3.7-.65V135.35h-.47l-2.85.72v.47l1.58.43v3.71a4.72,4.72,0,0,0-2-.36c-2.41,0-4.39,1.7-4.39,4.75,0,2.36,1.3,4.22,3.61,4.22a3.87,3.87,0,0,0,2.9-1.34l.23,1.16h.47l2.45-.6V148Zm-64.59-7.07h-3.23V141l1.18.42-2.39,6L257,141.36l1.34-.38v-.47h-4.2V141l.85.29,3.79,8.34-.11.25-2.46,3.68V154h1.68l4.95-12.57,1.23-.45Zm-11.61,7.77V135.35H252l-2.84.72v.47l1.58.43v11.34l-1.4.33v.47h4.71v-.47Zm-5.65,0v-7.92h-.47l-2.75.69v.47l1.49.4v6.36l-1.49.4v.47h4.71v-.47Zm-.92-9.86a1,1,0,1,0,0-2.08,1.07,1.07,0,0,0-1.09,1.05,1,1,0,0,0,1.07,1M241,148.25v-4.73c0-1.92-.94-3.19-2.43-3.19a5.18,5.18,0,0,0-2.5,1l-.94.6a2.41,2.41,0,0,0-2.26-1.59,5.13,5.13,0,0,0-2.59,1l-.91.56-.15-1.56h-.43l-2.57.69v.47l1.49.4v6.36l-1.49.4v.47h4.71v-.47l-1.49-.4v-5.49a6.06,6.06,0,0,1,2.65-1.14c.92,0,1.56.72,1.56,2.12v4.51l-1.49.4v.47h4.55v-.47l-1.32-.38v-4.93a4,4,0,0,0-.05-.65,5.93,5.93,0,0,1,2.65-1.07c.82,0,1.29.72,1.29,2.3v4.35l-1.32.38v.47h4.55v-.47Zm-22.61-1.18a1.83,1.83,0,0,1,1.36-1.65l2.25-.74V147c-.94.69-1.65,1.29-2.35,1.29a1.17,1.17,0,0,1-1.25-1.25m5.35.51v-4.11a2.8,2.8,0,0,0-3.1-3.14,5.21,5.21,0,0,0-3.5,1.43l.45,1.79h.73l.38-1.76a1.69,1.69,0,0,1,1.38-.62c1.25,0,1.92,1.14,1.92,2.59v.13l-3.12,1c-1.7.54-2.3,1.3-2.3,2.39a2,2,0,0,0,2.16,2c1.16,0,2-.56,3.35-1.54l.27,1.36h.47l2.48-.6V148Zm-9.17-11.41a1.48,1.48,0,0,1,.29,0l.56,1.38H216l.43-1.76a2.61,2.61,0,0,0-1.59-.45c-2.41,0-3.93,2.1-3.93,5.16h-1.49v.69l1.49.11v6.94l-1.49.4v.47h5.15v-.47l-1.92-.45v-6.74l1.6.13,1.43-.6v-.47h-3v-.43c0-2.14.27-3.91,1.89-3.91m-15.65,5a2.13,2.13,0,0,1,2,2.37l-4.08.05c.25-1.7,1.27-2.43,2.07-2.43m1.45,7a3.42,3.42,0,0,1-3.57-3.73v-.13h5.4l.49-.87a3.08,3.08,0,0,0-3.37-3.14,4.39,4.39,0,0,0-4.39,4.71,4.25,4.25,0,0,0,4.39,4.26,4.09,4.09,0,0,0,3.08-1.09l-.33-.45a3,3,0,0,1-1.7.44m-7.43-.44a2.81,2.81,0,0,1-1.7.44,3.58,3.58,0,0,1-3.62-3.7c0-2.54,1.56-3.88,3.3-3.24l1.36,2.14H193V141a6,6,0,0,0-2.72-.71,4.42,4.42,0,0,0-4.44,4.64,4.21,4.21,0,0,0,4.35,4.33,4,4,0,0,0,3.08-1.09Zm-15-.69a1.83,1.83,0,0,1,1.36-1.65l2.25-.74V147c-.94.69-1.65,1.29-2.36,1.29a1.17,1.17,0,0,1-1.25-1.25m5.35.51v-4.11a2.8,2.8,0,0,0-3.1-3.14,5.21,5.21,0,0,0-3.5,1.43l.45,1.79h.72l.38-1.76a1.69,1.69,0,0,1,1.38-.62c1.25,0,1.92,1.14,1.92,2.59v.13l-3.12,1c-1.7.54-2.3,1.3-2.3,2.39a2,2,0,0,0,2.16,2c1.16,0,2-.56,3.35-1.54l.27,1.36h.47l2.48-.6V148Zm-9.17-11.41a1.48,1.48,0,0,1,.29,0l.56,1.38h.62l.43-1.76a2.61,2.61,0,0,0-1.6-.45c-2.41,0-3.93,2.1-3.93,5.16H169v.69l1.49.11v6.94l-1.49.4v.47h5.15v-.47l-1.92-.45v-6.74l1.59.13,1.43-.6v-.47h-3v-.43c0-2.14.27-3.91,1.88-3.91m-10.58,5a2.13,2.13,0,0,1,2,2.37l-4.08.05c.25-1.7,1.27-2.43,2.07-2.43m1.45,7a3.42,3.42,0,0,1-3.57-3.73v-.13h5.4l.49-.87a3.08,3.08,0,0,0-3.37-3.14,4.39,4.39,0,0,0-4.38,4.71,4.25,4.25,0,0,0,4.38,4.26,4.09,4.09,0,0,0,3.08-1.09l-.33-.45a3,3,0,0,1-1.7.44m-11.71.27c-1.27,0-2-.92-2-2.43v-3.59a2.71,2.71,0,0,1,2-1.05c1.3,0,2.61,1,2.61,3.64,0,2.34-1.36,3.42-2.56,3.42m.73-8.14a3.87,3.87,0,0,0-2.9,1.34l-.24-1.16h-.47l-2.45.6v.47l1.58.47v10.85l-1.58.45v.47h5.26v-.47l-1.94-.43v-4a4.71,4.71,0,0,0,2,.36c2.41,0,4.39-1.7,4.39-4.75,0-2.36-1.31-4.22-3.61-4.22m-6.47.18h-3.23V141l1.18.42-2.39,6-2.63-6.07,1.34-.38v-.47h-4.2V141l.85.29,3.79,8.34-.11.25-2.46,3.68V154h1.68l4.95-12.57,1.23-.45Zm-11.16,1,1.23-.56v-.47h-3.21v-2.72h-.69l-1.05,2.72h-1.76v.65l1.76.13v5.47c0,2,1.16,2.54,2.26,2.54a3.84,3.84,0,0,0,2.61-.94l-.18-.47a3.31,3.31,0,0,1-1.63.36c-.78,0-1.32-.6-1.32-1.85v-5Zm-12.16,0,1.23-.56v-.47h-3.21v-2.72h-.69l-1.05,2.72h-1.76v.65l1.76.13v5.47c0,2,1.16,2.54,2.26,2.54a3.84,3.84,0,0,0,2.61-.94l-.18-.47a3.31,3.31,0,0,1-1.63.36c-.78,0-1.32-.6-1.32-1.85v-5Zm-6.7,6.81-2.76-3.93,2.28-3,1-.4v-.47h-3V141l1.05.47-1.74,2.34-1.74-2.5.92-.31v-.47h-4V141l1,.29L113,145l-2.45,3.26-1.25.42v.47h3.24v-.47l-1-.49,1.9-2.55,1.9,2.68-.92.36v.47h4v-.47Zm-13-7.19a2.13,2.13,0,0,1,2,2.37l-4.08.05c.25-1.7,1.27-2.43,2.06-2.43m1.45,7a3.42,3.42,0,0,1-3.57-3.73v-.13h5.4l.49-.87a3.08,3.08,0,0,0-3.37-3.14,4.39,4.39,0,0,0-4.39,4.71,4.25,4.25,0,0,0,4.39,4.26,4.09,4.09,0,0,0,3.08-1.09l-.33-.45a3,3,0,0,1-1.7.44m-7.68-6.65,1.23-.56v-.47H96.26v-2.72h-.69l-1.05,2.72H92.76v.65l1.76.13v5.47c0,2,1.16,2.54,2.26,2.54a3.84,3.84,0,0,0,2.61-.94l-.18-.47a3.31,3.31,0,0,1-1.63.36c-.78,0-1.32-.6-1.32-1.85v-5ZM78.3,143.79l1.9-5.29,2,5.29ZM86,148.25l-4.68-12-1.4.56-4.15,11.36-1.23.4v.54h3.89v-.54l-1.67-.43L78,144.66h4.6l1.34,3.48-1.67.43v.54H87.2v-.54Z"/><path class="cls-3" d="M590.89,184.85a15.11,15.11,0,0,0,6.76-1.39l.57-2.59h-6.5l1.89-8.9H590l-7.7,8.9h-5.94l-.51,2.21c.95.19,2.34.44,4,.7L575,206.32c-.57,2.59,1.14,6.25,6.06,6.25l11.3-1.45.44-2.15-3.41-.5c-2.84-.38-3.09-2-2.91-3Zm-48,23.36c2.59,3.22,8.4,4.23,11.81,4.29,8.27.13,14.78-4.23,14.78-12.25,0-4.93-14-12-14-15.41a2.41,2.41,0,0,1,1.83-2.53,59.85,59.85,0,0,1,10.17,8l5.56-6.5c-1.58-1.9-6.12-3.92-10.86-4-13.2-.19-14.52,8.4-14.52,11.87,0,4.48,13.7,11.43,13.7,15.47a2.43,2.43,0,0,1-2.15,2.46,45.44,45.44,0,0,1-9.91-8.27Zm-13.13-24.5c.88,0,2.15,3.66,2.52,9.85l-6.12,2.71c.7-5.87,2.4-12.57,3.6-12.57m2.71,21.22c-2.27,0-6.63-1.51-6.63-3.85,0-.76.06-1.64.13-2.53l18.18-8.15c-.63-6.5-3.54-10.54-8.46-10.54-13.89,0-21.47,13.89-21.47,24.12,0,3.47,3.54,6.25,7.26,7.51a19.94,19.94,0,0,0,6.76,1.07c4.61,0,7.45-4.74,12.63-12.19l-1.52-1.07c-3,4.17-4.55,5.62-6.88,5.62m-19.2-28c-.06.19-.06.38-.13.63Zm-4-8.9.44,19.83a94.55,94.55,0,0,1-11,18.94l.44-39.78-11.93,1-.13,18.37A98.31,98.31,0,0,1,476.35,206V171l-2.59-2.91H461.2l-.57,2.53,3.09,1.07.32,41.23,11-1.2c3-3.09,7.83-10.48,11.93-18.56l-.13,19.76,11.18-1.2c8.52-8.15,18.82-29.8,21.59-44.71Zm-60,11.93a13.35,13.35,0,0,0-1.64-.13c-5.75,0-8.08,3.41-10,7.32-2.46,5.05-5,10.61-7.07,15.22H429.5l7.26-20.58-1.58-2-13.83,2.08-.57,2.27,3.47.88-5.93,27.47,11.74-1,1-5a143.19,143.19,0,0,1,6.25-13.7l9.41-1.26Zm-45.21,3.73c.88,0,2.15,3.66,2.52,9.85l-6.12,2.71c.7-5.87,2.4-12.57,3.6-12.57m2.71,21.22c-2.27,0-6.63-1.51-6.63-3.85,0-.76.06-1.64.13-2.53l18.18-8.15c-.63-6.5-3.54-10.54-8.46-10.54-13.89,0-21.47,13.89-21.47,24.12,0,3.47,3.54,6.25,7.26,7.51a19.94,19.94,0,0,0,6.76,1.07c4.61,0,7.45-4.74,12.63-12.19l-1.52-1.07c-3,4.17-4.55,5.62-6.88,5.62m-34.73,2c-1.83,0-5.05-.82-8.84-2.65,6.44-11.87,8.71-15.34,10.29-14.59,1.89.82,2.27,1.51,2.27,2.46,0,4.55-2.27,14.78-3.73,14.78m8.71-26.52a4.61,4.61,0,0,0-5.18.51c-3.54,3.66-8.52,11.62-13.64,21.09h-.88l7.32-20.33-1.45-1.77-13.83,1.45-.51,2.53,4,.57-9.22,43.13,1.07,1.45L364,226.84l.51-2.34-4.8-1.33,2.4-11.3a16.57,16.57,0,0,0,4.55.7c11.37,0,20.08-14,20.08-24.5,0-4.61-2.53-6.06-5.94-7.7m-47.17,27.28c-3,0-6-.82-6-4.42,0-8,3.16-17.74,4.48-17.74,3.09,0,6,.82,6,4.42,0,8-3.16,17.74-4.48,17.74m-6.12,4.93c16.42,0,22.79-13.89,22.79-24.44,0-4.55-4.55-8.21-11.62-8.21-16.35,0-22.67,14-22.67,24.44,0,4.55,4.55,8.21,11.49,8.21m-30.12-4.93c-3,0-6-.82-6-4.42,0-8,3.16-17.74,4.48-17.74,3.09,0,6,.82,6,4.42,0,8-3.16,17.74-4.48,17.74m-6.12,4.93c16.42,0,22.79-13.89,22.79-24.44,0-4.55-4.55-8.21-11.62-8.21-16.35,0-22.67,14-22.67,24.44,0,4.55,4.55,8.21,11.49,8.21m-41.8,0c9,0,18.18-2,26.52-13.45l-2.15-1.64c-3.73,4.61-7.77,7.45-12.94,7.45-4.1,0-10.35-.44-10.35-6.38,0-13.32,7.45-27.28,9-27.28,1.14,0,6.19,3.22,9,4.86l6.31,3.66,5.37-9.54c-3.47-2.84-9.15-3.28-13.51-3.28-16.23,0-29.49,17.55-29.49,34.1,0,8.52,6,11.49,12.19,11.49M204.4,201c-1.51-.82-1.89-1.39-1.89-2.21,0-3.79,1.71-12.88,2.9-12.88,2.21,0,6.19,1.58,8.21,3.16-5.68,9.41-8,12.57-9.22,11.93M215,167c-19.57,0-35.61,21.09-35.68,41.61,0,12,9.6,14.08,16.73,14.08s11.3-1.33,14-2.65l-.51-2.4c-12.82,0-18.82-2.71-18.82-11.3,0-12.5,9.16-34.48,14.14-34.48,13.07.06,18.88,2.71,18.88,11.3,0,6.38-2.46,15.15-5.43,22.48l-.95-.19-.38-.13,4.55-23.93-1.58-.88-2,2.84c-3.41-1.77-5.75-2.53-8.15-2.53-9.16,0-16,12.25-16,21.47,0,4.1,2.08,5.18,4.8,6.76a3.38,3.38,0,0,0,4.17-.44c2.84-3.28,7.07-10.36,11.3-17.62h.69l-7.83,16.48,1.58,2,10.86-1.39v-.06l6.95-.88A45.54,45.54,0,0,0,235,181.06c.06-12.06-9.53-14-20-14m-50.32,16.67c.88,0,2.15,3.66,2.53,9.85l-6.12,2.71c.69-5.87,2.4-12.57,3.6-12.57m2.72,21.22c-2.27,0-6.63-1.51-6.63-3.85,0-.76.06-1.64.13-2.53l18.19-8.15c-.63-6.5-3.54-10.54-8.46-10.54-13.89,0-21.47,13.89-21.47,24.12,0,3.47,3.54,6.25,7.26,7.51a19.94,19.94,0,0,0,6.76,1.07c4.61,0,7.45-4.74,12.63-12.19l-1.52-1.07c-3,4.17-4.55,5.62-6.88,5.62m-34.22,2c-1.83,0-5.05-.82-8.84-2.65,6.44-11.87,8.71-15.34,10.29-14.59,1.89.82,2.27,1.51,2.27,2.46,0,4.55-2.27,14.78-3.72,14.78m8.71-26.52a4.61,4.61,0,0,0-5.18.51c-3.54,3.66-8.52,11.62-13.64,21.09h-.88l7.32-20.33-1.45-1.77-13.83,1.45-.5,2.53,4,.57-9.22,43.13,1.07,1.45,15.53-2.15.51-2.34-4.8-1.33,2.4-11.3a16.57,16.57,0,0,0,4.55.7c11.37,0,20.08-14,20.08-24.5,0-4.61-2.53-6.06-5.94-7.7m-31.63-.5-8.33,1L104.26,193l-5.49,9.09-4-20.33-2-2-11.62,1.64-.57,2.34,3,.69,7.07,31.19v.06l-15,8.33-.44,2.27,10.54,1,24-38.52a9.27,9.27,0,0,0,.57-9M80.64,168.05H45l-4,13.07h3l9.09-9.85,3-.25-8,37.44,3.28,4.1,14.14-1.83.63-2.59-5.11-.88,7.7-36.18,2.53.19,4.48,9.85h3Z"/><path class="cls-3" d="M562.09,255.55l1.45-6.81c.37-1.74-.57-2.77-2.35-2.77-1,0-3.71,4.15-5,6.81h-.24l1.78-6.13-.55-.68-3.29.51-.11.57,1.82.44-2,9.36,1.89-.22.13-.61.15-.7c.83-2.92,4.44-7.84,4.94-7.84.79,0,1.19.33,1,1.14l-1.65,7.71.44.53,3.27-.37.13-.64Zm-13.46-3.43c-.11.31-.57,2.48-.72,3.23-.07.35-.4,1.87-.92,4.33-.2.92-.31,1.63-.9,1.63-1.67,0-4-1.16-4-1.78,0-.22,3.32-2.35,7.25-10h.24Zm-2.48-4.81a7.15,7.15,0,0,1,3.32.9,40.18,40.18,0,0,1-4.41,7c-.48-.26-1-.5-1.14-1.1-.42-2.06,1.34-6.85,2.24-6.85m5.05-1.78-.75,1.19a9.88,9.88,0,0,0-2.68-.75c-3-.11-5.73,4.5-5.73,8.1,0,1.74.46,2.13,1.69,2.75-1.8,1.89-3.4,2.61-3.4,3.4,0,1,1.6,2.11,4.22,2.11,4.09,0,4.28-3,4.77-5.25.24-1.14,1.78-8.5,2.42-11.38Zm-11.62.44-3.16.51-.11.57,1.76.42-1.89,8.85.46.53,3.27-.37.13-.64-1.87-.28,1.91-9Zm.35-4.39a1.36,1.36,0,0,0-1.32,1.43,1,1,0,0,0,1.14,1.1,1.35,1.35,0,0,0,1.3-1.47,1,1,0,0,0-1.12-1.06m-13.4,14.14a4,4,0,0,0,2.79,1.1,3.93,3.93,0,0,0,4.22-3.84c0-1.74-3.78-3.08-3.78-4.48,0-1.12.64-1.67,1.52-1.63a16.15,16.15,0,0,1,2.09,1.43l1.05-1.34a3.21,3.21,0,0,0-2.28-1,3.56,3.56,0,0,0-4,3.54c0,1.63,3.87,3,3.87,4.66a1.66,1.66,0,0,1-1.85,1.63,15,15,0,0,1-2.46-1.43Zm-4.24-8.56a1.82,1.82,0,0,1,1.63,1.65l-4.72,3c.48-3.1,2-4.63,3.1-4.63m-.55,8.35c-1.14,0-2.7-.77-2.7-1.54a13,13,0,0,1,.07-1.34l6.79-4a2.7,2.7,0,0,0-2.77-2.7c-3.23,0-5.93,4.85-5.93,8.1a2.25,2.25,0,0,0,1.43,2.37,4.45,4.45,0,0,0,1.71.39,5.11,5.11,0,0,0,4.5-2.5l-.44-.44a3.88,3.88,0,0,1-2.66,1.6m-13.11.24-4.3-1.45,2.59-12.12h3.54c2.06.53,3.16,2.11,3.16,4.7,0,3.56-1.67,8.46-5,8.87m4.28-14.5h-10l-.15.66,2.11.61-3.05,14.32h.61l1.05-.94a6.68,6.68,0,0,0,3.69.94c5.56,0,8.74-5.67,8.74-10.21,0-2.48-.94-4.63-3-5.38m-21.7,5.91a1.82,1.82,0,0,1,1.63,1.65l-4.72,3c.48-3.1,2-4.63,3.1-4.63m-.55,8.35c-1.14,0-2.7-.77-2.7-1.54a13,13,0,0,1,.07-1.34l6.79-4a2.7,2.7,0,0,0-2.77-2.7c-3.23,0-5.93,4.85-5.93,8.1a2.25,2.25,0,0,0,1.43,2.37,4.44,4.44,0,0,0,1.71.39,5.11,5.11,0,0,0,4.5-2.5l-.44-.44a3.88,3.88,0,0,1-2.66,1.6m-10.56,1.34a3.54,3.54,0,0,0,2.92-1.1,10,10,0,0,0,1.19-1.49l-.46-.4c-.79,1-1.34,1.51-2.48,1.51-2.07,0-2.59-.79-2.59-1.36,0-3.12,1.56-6.76,3.23-7l1.78,1.49,1.43-1.14a2.49,2.49,0,0,0-2.35-1.38c-3,0-5.93,4.52-5.93,8,0,1.69.7,2.13,1.12,2.39a4.91,4.91,0,0,0,2.15.44M473,248.28l0,0v0Zm-5,6.66c-.64-.31-.79-.53-.79-1.05,0-2.94,1.69-6.57,2.42-6.57a6.79,6.79,0,0,1,3.32.92c-3.05,5.65-4.31,7-4.94,6.7m7.25-9.23-.53-.17-.75,1.23a9.07,9.07,0,0,0-2.72-.79c-3-.09-5.93,4.61-5.93,8.1,0,1.76.44,2,1.51,2.57a1.37,1.37,0,0,0,1.6-.18,46.4,46.4,0,0,0,4.33-6.74H473l-2,6.63.42.48,3.38-.37.15-.64-1.78-.26Zm-9.31-5,1.91,1.65,1.21-1a2.53,2.53,0,0,0-2.46-1.49c-2.48,0-4.52,2.17-5.56,6.26h-1.93l-.13.57c.64.09,1.27.18,1.89.24l-3.27,15.33h.09l1.87-1,3-14.17c.33,0,.66,0,.94,0a2.53,2.53,0,0,0,2-.73v-.31H462.8l.09-.44c.53-2.48,1.47-4.66,3.05-5m-12.23,6.41a1.82,1.82,0,0,1,1.63,1.65l-4.72,3c.48-3.1,2-4.63,3.1-4.63m-.55,8.35c-1.14,0-2.7-.77-2.7-1.54a13,13,0,0,1,.07-1.34l6.79-4a2.7,2.7,0,0,0-2.77-2.7c-3.23,0-5.93,4.85-5.93,8.1a2.25,2.25,0,0,0,1.43,2.37,4.44,4.44,0,0,0,1.71.39,5.11,5.11,0,0,0,4.5-2.5l-.44-.44a3.88,3.88,0,0,1-2.66,1.6m-10.23,0a7.19,7.19,0,0,1-3.34-.92v0c3.16-5.49,4.44-7,4.7-6.81.83.44,1.14.66,1.14,1.19,0,2.94-1.76,6.57-2.5,6.57m2.79-9.33a1.36,1.36,0,0,0-1.6.17,46.25,46.25,0,0,0-4.15,6.33h-.22l1.69-6-.57-.68-3.27.51-.11.57,1.84.44-3.07,14.28.55.68,3.14-.5.11-.57-1.82-.48,1-4.57a7.38,7.38,0,0,0,2.09.53c3,.11,5.93-4.61,5.93-8.1,0-1.76-.44-2-1.51-2.57m-10.45-.2-1.8.22.68,3.84-3,4.63-1-8.1-.46-.44-2.85.64-.07.59,1.65.24,1.19,9.4-.37.57-4.11,3.84L425,262l2.13.15,7.91-12a3.71,3.71,0,0,0,.26-4.19m-7.64-4.72H416l-1.08,3.62h.64l1.89-2.44,3.23-.22L417.69,256l.68.86,3.71-.42.15-.66-2.31-.39,2.81-13.13,3,.22.75,2.44h.64Zm-22.38,14.3,1.45-6.81c.37-1.74-.57-2.77-2.35-2.77-1,0-3.71,4.15-5,6.81h-.24l1.78-6.13-.55-.68-3.29.51-.11.57,1.82.44-2,9.36,1.89-.22.13-.61.15-.7c.83-2.92,4.44-7.84,4.94-7.84.79,0,1.19.33,1,1.14l-1.65,7.71.44.53,3.27-.37.13-.64ZM393.91,246l-3.16.51-.11.57,1.76.42-1.89,8.85.46.53,3.27-.37.13-.64-1.87-.28,1.91-9Zm.35-4.39a1.36,1.36,0,0,0-1.32,1.43,1,1,0,0,0,1.14,1.1,1.35,1.35,0,0,0,1.3-1.47,1,1,0,0,0-1.12-1.06m-12.69,14,1.45-6.81c.37-1.74-.57-2.77-2.35-2.77-1,0-3.62,4.15-4.94,6.81h-.24l1-3.34.13-.7c.35-1.93-.46-2.77-2.24-2.77-1,0-3.65,4.15-5,6.81h-.24l1.78-6.13-.55-.68-3.29.51-.11.57,1.82.42-2,9.38,1.89-.22.11-.57.07-.4c.66-2.86,4.46-8.19,5-8.19.79,0,1.19.33.92,1.58l-1.62,7.8,1.89-.22.26-1.23c.81-2.9,4.37-7.93,4.88-7.93.79,0,1.19.33.92,1.58l-1.56,7.27.44.53,3.27-.37.13-.64Zm-19-7.27,0,0v0Zm-5,6.66c-.64-.31-.79-.53-.79-1.05,0-2.94,1.69-6.57,2.42-6.57a6.79,6.79,0,0,1,3.32.92c-3.05,5.65-4.3,7-4.94,6.7m7.25-9.23-.53-.17-.75,1.23a9.08,9.08,0,0,0-2.72-.79c-3-.09-5.93,4.61-5.93,8.1,0,1.76.44,2,1.52,2.57a1.37,1.37,0,0,0,1.6-.18,46.47,46.47,0,0,0,4.33-6.74h.22l-2,6.63.42.48,3.38-.37.15-.64-1.78-.26Zm-9.77.35a3.71,3.71,0,0,0-.83-.09,2.67,2.67,0,0,0-2.37,1.69c-1,1.76-2,3.69-2.7,5.43h-.24l1.93-6.44-.55-.68-3.29.51-.11.57,1.82.44-2,9.36,1.89-.22.11-.57a56.5,56.5,0,0,1,3.69-8l2.24-.2Zm-13.29,6.06c-.11.31-.57,2.48-.73,3.23-.07.35-.39,1.87-.92,4.33-.2.92-.31,1.63-.9,1.63-1.67,0-4-1.16-4-1.78,0-.22,3.32-2.35,7.25-10h.24Zm-2.48-4.81a7.15,7.15,0,0,1,3.32.9,40.18,40.18,0,0,1-4.42,7c-.48-.26-1-.5-1.14-1.1-.42-2.06,1.34-6.85,2.24-6.85m5.05-1.78-.75,1.19a9.88,9.88,0,0,0-2.68-.75c-3-.11-5.73,4.5-5.73,8.1,0,1.74.46,2.13,1.69,2.75-1.8,1.89-3.4,2.61-3.4,3.4,0,1,1.6,2.11,4.22,2.11,4.09,0,4.28-3,4.77-5.25.24-1.14,1.78-8.5,2.42-11.38Zm-15,10c-1.69,0-3.34-.29-3.34-1.54,0-3,1.78-6.65,2.5-6.65,1.71,0,3.34.28,3.34,1.54,0,3-1.78,6.65-2.5,6.65m-2,1.34c3.93,0,6.35-4.61,6.35-8.1,0-2.22-1.93-2.77-3.18-2.77-3.93,0-6.35,4.61-6.35,8.1,0,2.22,1.93,2.77,3.19,2.77m-3.1-10.78a3.71,3.71,0,0,0-.83-.09,2.67,2.67,0,0,0-2.37,1.69c-1,1.76-2,3.69-2.7,5.43H318l1.93-6.44-.55-.68-3.3.51-.11.57,1.82.44-2,9.36,1.89-.22.11-.57a56.51,56.51,0,0,1,3.69-8l2.24-.2Zm-14,3.49h-3.32l1.56-7.38h2.94c1.34.26,1.58,1.32,1.58,2.35,0,2.07-1.52,5-2.77,5m3.32-8.3h-9.11l-.15.66,2.09.61L303.49,256l.68.83,3.69-.42.15-.66-2.35-.39,1-4.88h3.43c2.33,0,5.05-3.49,5.05-6.33a2.78,2.78,0,0,0-1.65-2.9m-24.91,13.68c-.57-.31-.88-.53-.88-1.05,0-2.94,1.76-6.57,2.5-6.57a6.79,6.79,0,0,1,3.32.92c-3.05,5.67-4.31,7-4.94,6.7M297,240.62l-.55-.68-3.16.5-.11.57,1.82.48-1.08,5a7.63,7.63,0,0,0-2.09-.53c-3-.11-5.93,4.61-5.93,8.1,0,1.76.44,2,1.51,2.57a1.37,1.37,0,0,0,1.6-.18,42.14,42.14,0,0,0,4.15-6.32h.22l-1.54,6.21.42.48,3.23-.37.15-.64-1.82-.26Zm-15.92,6.54a1.82,1.82,0,0,1,1.63,1.65l-4.72,3c.48-3.1,2-4.63,3.1-4.63m-.55,8.35c-1.14,0-2.7-.77-2.7-1.54a13,13,0,0,1,.07-1.34l6.79-4a2.7,2.7,0,0,0-2.77-2.7c-3.23,0-5.93,4.85-5.93,8.1a2.25,2.25,0,0,0,1.43,2.37,4.45,4.45,0,0,0,1.71.39,5.11,5.11,0,0,0,4.5-2.5l-.44-.44a3.88,3.88,0,0,1-2.66,1.6m-13.48-.57c-.57-.31-.88-.53-.88-1.05,0-2.94,1.76-6.57,2.5-6.57a6.79,6.79,0,0,1,3.32.92c-3.05,5.67-4.3,7-4.94,6.7m8.41-14.32-.55-.68-3.16.5-.11.57,1.82.48-1.08,5a7.63,7.63,0,0,0-2.09-.53c-3-.11-5.93,4.61-5.93,8.1,0,1.76.44,2,1.52,2.57a1.37,1.37,0,0,0,1.6-.18,42.14,42.14,0,0,0,4.15-6.32h.22l-1.54,6.21.42.48,3.23-.37.15-.64-1.82-.26Zm-14.78,14.93,1.45-6.81c.37-1.74-.57-2.77-2.35-2.77-1,0-3.71,4.15-5,6.81h-.24l1.78-6.13-.55-.68-3.29.51-.11.57,1.82.44-2,9.36,1.89-.22.13-.61.15-.7c.84-2.92,4.44-7.84,4.94-7.84.79,0,1.19.33,1,1.14l-1.65,7.71.44.53,3.27-.37.13-.64Zm-13.84-8.39a1.82,1.82,0,0,1,1.63,1.65l-4.72,3c.48-3.1,2-4.63,3.1-4.63m-.55,8.35c-1.14,0-2.7-.77-2.7-1.54a13.29,13.29,0,0,1,.07-1.34l6.79-4a2.7,2.7,0,0,0-2.77-2.7c-3.23,0-5.93,4.85-5.93,8.1a2.25,2.25,0,0,0,1.43,2.37,4.45,4.45,0,0,0,1.71.39,5.11,5.11,0,0,0,4.5-2.5l-.44-.44a3.87,3.87,0,0,1-2.66,1.6m-7.91-8.17a6.5,6.5,0,0,0,3.23-.57l.11-.57h-3.1l.62-2.86h-.57L237,246.2h-2.15l-.13.66c.44.09,1.12.22,1.87.33l-1.6,7.62a1.81,1.81,0,0,0,1.65,2l2.94-.39.13-.66-1.82-.24c-.64-.09-1.08-.7-1-1Zm-6,1.8a2.74,2.74,0,0,0,.68-3.16l-2.24.33.83,2.42-2.68,2.07-1.67-4.39-.57-.42-2.7.44L224,247l1.78.4,1.45,3.84-3.34,2.46a2.73,2.73,0,0,0-.68,3.16l2.26-.44-.88-2.31,2.88-2.24,1.74,4.57.57.42,2.66-.44.11-.57-1.74-.39-1.52-4Zm-9.31-7.89h-10l-.15.66,2.09.55-2.83,13.2.81,1h6.7l1.21-3.34h-.72l-1.76,2.53-4.06-.44,1.38-6.54,4.19.07.31-1.1-4.3.07,1.21-5.69h4l.09,2.46H222Zm-21.72,5.91a1.82,1.82,0,0,1,1.63,1.65l-4.72,3c.48-3.1,2-4.63,3.1-4.63m-.55,8.35c-1.14,0-2.7-.77-2.7-1.54a13.29,13.29,0,0,1,.07-1.34l6.79-4a2.7,2.7,0,0,0-2.77-2.7c-3.23,0-5.93,4.85-5.93,8.1a2.25,2.25,0,0,0,1.43,2.37,4.45,4.45,0,0,0,1.71.39,5.11,5.11,0,0,0,4.5-2.5l-.44-.44a3.87,3.87,0,0,1-2.66,1.6M193,247.34a6.5,6.5,0,0,0,3.23-.57l.11-.57h-3.1l.61-2.86h-.57l-1.67,2.86h-2.15l-.13.66c.44.09,1.12.22,1.87.33l-1.6,7.62a1.81,1.81,0,0,0,1.65,2l2.94-.39.13-.66-1.82-.24c-.64-.09-1.08-.7-1-1Zm-7.82.94,0,0v0Zm-5,6.66c-.64-.31-.79-.53-.79-1.05,0-2.94,1.69-6.57,2.42-6.57a6.79,6.79,0,0,1,3.32.92c-3.05,5.65-4.3,7-4.94,6.7m7.25-9.23-.53-.17-.75,1.23a9.08,9.08,0,0,0-2.72-.79c-3-.09-5.93,4.61-5.93,8.1,0,1.76.44,2,1.52,2.57a1.37,1.37,0,0,0,1.6-.18,46.47,46.47,0,0,0,4.33-6.74h.22l-2,6.63.42.48,3.38-.37.15-.64-1.78-.26Zm-11.62.48h-1.85l-.18.77c-.9,3.49-4.06,8.3-4.68,8.3s-1.23-.18-1-1.16l1.6-7.58-.44-.55-3.36.51-.11.57,1.82.5-1.45,6.85c-.31,1.4.44,2.44,2.44,2.44.68,0,2.28-1.71,4.85-7.11h.22l-2,6.63.4.48,3.43-.37.13-.64-1.82-.26Zm-19.52,8.74c-.57-.31-.88-.53-.88-1.05,0-2.94,1.76-6.57,2.5-6.57a6.79,6.79,0,0,1,3.32.92c-3.05,5.67-4.31,7-4.94,6.7m8.41-14.32-.55-.68-3.16.5-.11.57,1.82.48-1.08,5a7.63,7.63,0,0,0-2.09-.53c-3-.11-5.93,4.61-5.93,8.1,0,1.76.44,2,1.51,2.57a1.37,1.37,0,0,0,1.6-.18,42.14,42.14,0,0,0,4.15-6.32H161l-1.54,6.21.42.48,3.23-.37.15-.64-1.82-.26Zm-14.85,7.66,0,0v0Zm-5,6.66c-.64-.31-.79-.53-.79-1.05,0-2.94,1.69-6.57,2.41-6.57a6.79,6.79,0,0,1,3.32.92c-3.05,5.65-4.3,7-4.94,6.7m7.25-9.23-.53-.17-.75,1.23A9.07,9.07,0,0,0,148,246c-3-.09-5.93,4.61-5.93,8.1,0,1.76.44,2,1.51,2.57a1.37,1.37,0,0,0,1.6-.18,46.48,46.48,0,0,0,4.33-6.74h.22l-2,6.63.42.48,3.38-.37.15-.64-1.78-.26Zm-9.77.35a3.72,3.72,0,0,0-.84-.09,2.67,2.67,0,0,0-2.37,1.69c-1,1.76-2,3.69-2.7,5.43h-.24l1.93-6.44-.55-.68-3.29.51-.11.57,1.82.44-2,9.36,1.89-.22.11-.57a56.45,56.45,0,0,1,3.69-8l2.24-.2Zm-16.34-3.56a8.27,8.27,0,0,1,3.56.72l2,.94,1.1-1.87a8.17,8.17,0,0,0-4.41-1.27c-5.38,0-9.22,6.06-9,11.79.09,2.46,1.74,4,4.88,4a9.34,9.34,0,0,0,4.19-1.05l.66,2,.64.09,1.78-8.37-.48-.53h-3.45l-.13.64,1.93.5-1,4.57a3.67,3.67,0,0,1-1.73.61c-2.55,0-5.18-.86-5.18-2.57,0-5,3-10.21,4.68-10.26m-17.55,9.11h7.29l.31-1.4h-7.29Zm-4.22-4.28a6.5,6.5,0,0,0,3.23-.57l.11-.57h-3.1l.62-2.86h-.57l-1.67,2.86H100.6l-.13.66c.44.09,1.12.22,1.87.33l-1.6,7.62a1.81,1.81,0,0,0,1.65,2l2.94-.39.13-.66-1.82-.24c-.64-.09-1.08-.7-1-1ZM91,255.73a4,4,0,0,0,2.79,1.1A3.93,3.93,0,0,0,98,253c0-1.74-3.78-3.08-3.78-4.48,0-1.12.64-1.67,1.52-1.63a16.08,16.08,0,0,1,2.09,1.43L98.85,247a3.22,3.22,0,0,0-2.29-1,3.56,3.56,0,0,0-4,3.54c0,1.63,3.87,3,3.87,4.66a1.66,1.66,0,0,1-1.84,1.63,15.06,15.06,0,0,1-2.46-1.43Zm-5.12-.22c-1.69,0-3.34-.29-3.34-1.54,0-3,1.78-6.65,2.5-6.65,1.71,0,3.34.28,3.34,1.54,0,3-1.78,6.65-2.5,6.65m-2,1.34c3.93,0,6.35-4.61,6.35-8.1,0-2.22-1.93-2.77-3.18-2.77-3.93,0-6.35,4.61-6.35,8.1,0,2.22,1.93,2.77,3.18,2.77m-8.39-7.29H72.14l1.56-7.38h2.94c1.34.26,1.58,1.32,1.58,2.35,0,2.07-1.51,5-2.77,5m3.32-8.3H69.66l-.15.66,2.09.61L68.74,256l.68.83,3.69-.42.15-.66-2.35-.39,1-4.88h3.43c2.33,0,5.05-3.49,5.05-6.33a2.78,2.78,0,0,0-1.65-2.9"/><path class="cls-3" d="M592.73,297.15c-.56-.28-.69-.47-.69-.8,0-1.74.93-4.8,1.44-4.8a6.47,6.47,0,0,1,3,1c-2.32,3.77-3.25,4.89-3.73,4.65m6.31-7-.56-.26-.71,1a7.13,7.13,0,0,0-2.76-.76c-3.08,0-5.6,4.05-5.6,7.09,0,1.42.62,1.74,1.59,2.26a1.3,1.3,0,0,0,1.47-.15,47.88,47.88,0,0,0,4.05-5.88h.21l-2.46,5.6.5.58,3.6-.41.15-.67-1.21-.2ZM588,290l-3.47.54-.13.62,1.2.3L584,299l.5.58,3.45-.41.13-.67-1.23-.2,1.62-7.67Zm-.24-4.35a1.8,1.8,0,0,0-1.76,1.9,1.35,1.35,0,0,0,1.51,1.46,1.8,1.8,0,0,0,1.74-2,1.38,1.38,0,0,0-1.49-1.4m-5.45,7.17c.37-1.74-.37-2.82-2.24-2.82-.88,0-3,3.49-4.26,6h-.23l1.7-5.41-.47-.58-3.62.54-.13.62,1.21.3-1.72,8.06,2.76-.26.22-1,.06-.22c.47-1.81,3-5.6,3.32-5.6.62,0,.73.28.6.84L578.28,299l.5.58,3.43-.41.13-.67-1.21-.2Zm-9.67-2.76A3.07,3.07,0,0,0,572,290a2.76,2.76,0,0,0-2.6,1.9c-.75,1.49-1.55,3.15-2.18,4.54H567l2-5.86-.47-.58-3.62.54-.13.62,1.21.3-1.72,8.06,2.76-.26.24-1.12a43.36,43.36,0,0,1,2.31-5.06l2.47-.3Zm-13.76,8.12c-1.1,0-2.17-.24-2.17-1.31,0-2.45,1.14-5.4,1.62-5.4,1.1,0,2.17.24,2.17,1.31,0,2.44-1.16,5.4-1.62,5.4m-1.77,1.34c4.29,0,6.23-4.05,6.23-7.09,0-1.55-1.46-2.41-3.15-2.41-4.29,0-6.22,4.05-6.22,7.09,0,1.55,1.44,2.41,3.14,2.41m-2.41-14h0Zm-1,.49,1.79,1.59,1.44-1.19a2.32,2.32,0,0,0-2.26-1.4c-2.32,0-4.28,1.85-5.17,5.23h-1.27L548,291l1.21.21L546.67,304h.47l2.39-1.42,2.24-11.18h.07a4.36,4.36,0,0,0,2.33-.52l.11-.6H552l.06-.26a8.19,8.19,0,0,1,1.61-4M546,290l-3.47.54-.13.62,1.2.3L542,299l.5.58,3.45-.41.13-.67-1.23-.2,1.62-7.67Zm-.24-4.35a1.8,1.8,0,0,0-1.76,1.9,1.35,1.35,0,0,0,1.51,1.46,1.81,1.81,0,0,0,1.74-2,1.38,1.38,0,0,0-1.49-1.4m-3.9-.15-.32-.43-4,.56-.13.6,1.49.41-2.65,12.43.39.45,3.68-.39.13-.67-1.34-.17Zm-12.75,11.61c-.56-.28-.69-.47-.69-.8,0-1.74.93-4.8,1.44-4.8a6.47,6.47,0,0,1,3,1c-2.32,3.77-3.25,4.89-3.73,4.65m6.31-7-.56-.26-.71,1a7.14,7.14,0,0,0-2.76-.76c-3.08,0-5.6,4.05-5.6,7.09,0,1.42.62,1.74,1.59,2.26a1.3,1.3,0,0,0,1.47-.15,47.76,47.76,0,0,0,4.05-5.88h.21l-2.46,5.6.5.58,3.6-.41.15-.67-1.21-.2ZM517,299.56a8.29,8.29,0,0,0,7.28-3.79l-.64-.47a4.94,4.94,0,0,1-3.73,2.35c-1.57,0-3.57-.35-3.57-2,0-4.05,2.33-8.29,3.16-8.31a9.87,9.87,0,0,1,2.8,1.14l1.79,1,1.34-2.35a6.67,6.67,0,0,0-3.9-1c-4.72,0-8.38,5.17-8.33,10.06,0,2.35,1.66,3.4,3.79,3.4m-10.79-2.67a1.59,1.59,0,0,0-1.42,1.74.87.87,0,0,0,1,.93.69.69,0,0,0,.52-.24A6.47,6.47,0,0,1,504,303l.37.41a6.66,6.66,0,0,0,2.93-5.15c0-.84-.39-1.33-1-1.33m-6.52,1.33c-1.1,0-2.17-.24-2.17-1.31,0-2.45,1.14-5.4,1.62-5.4,1.1,0,2.17.24,2.17,1.31,0,2.44-1.16,5.4-1.62,5.4M498,299.56c4.29,0,6.23-4.05,6.23-7.09,0-1.55-1.46-2.41-3.15-2.41-4.29,0-6.22,4.05-6.22,7.09,0,1.55,1.44,2.41,3.14,2.41m-8,0a3,3,0,0,0,2.35-1.33c.43-.56.78-1,1.18-1.59l-.43-.34c-.71.93-1.21,1.36-2,1.36-1.18,0-2-.6-2-1.16,0-1.68.93-4.82,1.85-5.15l1.51,1.7,2.05-1.51a2.38,2.38,0,0,0-2.32-1.49c-3.58,0-5.86,4-5.86,7a2.21,2.21,0,0,0,1.4,2,5.24,5.24,0,0,0,2.26.47m-12.27-1.16a4.53,4.53,0,0,0,3.08,1.14c2.2,0,4.07-1.23,4.07-3.49,0-1.46-3.79-3.21-3.79-4.29a.88.88,0,0,1,.82-1,16.65,16.65,0,0,1,2.54,1.94l1.36-1.62a3.91,3.91,0,0,0-2.73-1c-3.55-.07-4,2.37-4,3.3,0,1.36,3.77,3.08,3.77,4.35a1,1,0,0,1-1,1,13.86,13.86,0,0,1-2.61-2Zm-.78-8.36-3.47.54-.13.62,1.2.3L472.86,299l.5.58,3.45-.41.13-.67-1.23-.2,1.62-7.67Zm-.24-4.35a1.8,1.8,0,0,0-1.75,1.9,1.35,1.35,0,0,0,1.51,1.46,1.8,1.8,0,0,0,1.74-2,1.38,1.38,0,0,0-1.49-1.4m-8.85,13.87a3,3,0,0,0,2.35-1.33c.43-.56.78-1,1.18-1.59l-.43-.34c-.71.93-1.21,1.36-2,1.36-1.18,0-2-.6-2-1.16,0-1.68.93-4.82,1.85-5.15l1.51,1.7,2.05-1.51a2.38,2.38,0,0,0-2.32-1.49c-3.58,0-5.86,4-5.86,7a2.21,2.21,0,0,0,1.4,2,5.23,5.23,0,0,0,2.26.47m-5.13-6.7c.37-1.74-.37-2.82-2.24-2.82-.88,0-2.95,3.49-4.26,6h-.22l1.7-5.41-.47-.58-3.62.54-.13.62,1.21.3-1.72,8.06,2.76-.26.22-1,.06-.22c.47-1.81,3-5.6,3.32-5.6.62,0,.73.28.6.84L458.66,299l.5.58,3.43-.41.13-.67-1.21-.2Zm-17,4.29c-.56-.28-.69-.47-.69-.8,0-1.74.93-4.8,1.44-4.8a6.47,6.47,0,0,1,3,1c-2.32,3.77-3.25,4.89-3.73,4.65m6.31-7-.56-.26-.71,1a7.14,7.14,0,0,0-2.76-.76c-3.08,0-5.6,4.05-5.6,7.09,0,1.42.62,1.74,1.59,2.26a1.3,1.3,0,0,0,1.48-.15,47.88,47.88,0,0,0,4.05-5.88h.2l-2.46,5.6.5.58,3.6-.41.15-.67-1.21-.2Zm-9.41,0a3.07,3.07,0,0,0-.58-.06,2.76,2.76,0,0,0-2.59,1.9c-.75,1.49-1.55,3.15-2.18,4.54h-.26l2-5.86-.47-.58-3.62.54-.13.62,1.21.3-1.72,8.06,2.76-.26.24-1.12a43.25,43.25,0,0,1,2.32-5.06l2.46-.3Zm-8.08-3.73H425.2L425,287l1.38.37L424,298.57l.93,1,3.47-.43.17-.69-1.44-.28,1.08-5.1,3.25.19.24-1.25-3.3.19,1.06-5h2.26l.56,2.43h.75Zm-16.73,6.5c.37-1.74-.37-2.82-2.24-2.82-.88,0-2.95,3.49-4.26,6H411l1.7-5.41-.47-.58-3.62.54-.13.62,1.21.3L408,299.56l2.76-.26.22-1L411,298c.47-1.81,3-5.6,3.32-5.6.62,0,.73.28.6.84L413.72,299l.51.58,3.43-.41.13-.67-1.21-.2Zm-17,4.29c-.56-.28-.69-.47-.69-.8,0-1.74.93-4.8,1.44-4.8a6.47,6.47,0,0,1,3,1c-2.32,3.77-3.25,4.89-3.73,4.65m6.31-7-.56-.26-.71,1a7.13,7.13,0,0,0-2.76-.76c-3.08,0-5.6,4.05-5.6,7.09,0,1.42.62,1.74,1.59,2.26a1.3,1.3,0,0,0,1.48-.15,47.89,47.89,0,0,0,4.05-5.88h.2l-2.46,5.6.5.58,3.6-.41.15-.67-1.21-.2Zm-14.58-2.86,3.9,1.66,1.1-1.62a4.79,4.79,0,0,0-3.23-1.19c-3.86,0-4.8,2.76-4.8,4,0,3.06,4.27,4.13,4.27,6.81a1.55,1.55,0,0,1-.8,1.42l-4.48-1.88-.92,2.15a5.84,5.84,0,0,0,3.3.93c3.7,0,5.28-2.16,5.28-4.42,0-3.17-4.29-4.41-4.29-6.59a1.48,1.48,0,0,1,.65-1.29m-155.24,3.56c.77,0,1.59.8,1.59,2.73v.09l-3.32.06c.09-1.88,1-2.87,1.74-2.87M239,298a3.59,3.59,0,0,1-3.6-3.51h5.23l.71-1.18a3.4,3.4,0,0,0-3.73-3.43,4.88,4.88,0,0,0-5,5.1c0,2.31,1.61,4.52,4.93,4.52a4.21,4.21,0,0,0,3.45-1.34l-.37-.52A3.24,3.24,0,0,1,239,298m-6.93-7.88h-3.23v.6l1,1-2.26,5.15-2.32-5.71,1.36-.45v-.6h-5.4v.6l1,.37,3.71,8.25h1.47l3.29-7.5,1.38-1.12Zm-12.3,8.21v-8.44H219l-3.29.8v.63l1.33.34v6.66l-1.29.34v.58h5.36v-.58Zm-1.55-9.89a1.53,1.53,0,1,0,0-3.06A1.57,1.57,0,0,0,216.7,287a1.48,1.48,0,0,0,1.57,1.51m-4.61,9.91V293a3,3,0,0,0-3-3.1,5.28,5.28,0,0,0-2.76,1l-.35.22v-6.24h-.77l-3.66,1v.63l1.63.45V298.4l-1.25.3v.6h5.26v-.6l-1.21-.3v-6.22a4.22,4.22,0,0,1,1.92-.76c1,0,1.4.65,1.4,1.89v5.1l-1.23.3v.6h5.26v-.6ZM202,297.67a3.24,3.24,0,0,1-1.61.37,3.72,3.72,0,0,1-3.68-4c0-2.15,1.08-3.43,2.32-3.19l2.32,2.76h.78V290.8a5.49,5.49,0,0,0-3.12-.88,4.93,4.93,0,0,0-5,5.08c0,2.41,1.61,4.54,4.91,4.54a4.14,4.14,0,0,0,3.45-1.34Zm-10.12-7.75a4.13,4.13,0,0,0-2.35,1.18l-.63.5-.22-1.66h-.82l-3,.82v.62l1.32.34v6.66l-1.29.32v.6h6v-.6l-1.89-.41V292.5a6.8,6.8,0,0,1,1.36-.82l.62,2h1.44l.58-3.15a1.31,1.31,0,0,0-1.1-.56m-17.25,3.88,1.85-5.11,1.85,5.11Zm8.51,4.52-4.61-12.47-2.24.76-4.11,11.24-1.4.78v.65h4.35v-.65l-1.94-.82,1.12-3.12h4.35l1.29,3.57-1.44.37v.65h5.68v-.65Zm-19.34.08v-5.28a2.9,2.9,0,0,0-2.86-3.19,5.28,5.28,0,0,0-2.73,1l-.69.43a2.75,2.75,0,0,0-2.5-1.46,5.27,5.27,0,0,0-2.76,1l-.54.34-.24-1.36h-.63l-3,.78v.64l1.23.32v6.74l-1.23.32v.58h5.19v-.58l-1.16-.3v-6.25a4.39,4.39,0,0,1,1.92-.75c.86,0,1.29.64,1.29,1.89v5.11l-1.16.3v.58h5.06v-.58l-1.1-.3V293a4.29,4.29,0,0,0-.09-.84,4.62,4.62,0,0,1,2-.76c.82,0,1.18.64,1.18,2v5l-1.1.3v.58h5.13v-.58ZM146,289.92a4.13,4.13,0,0,0-2.35,1.18l-.64.5-.22-1.66H142l-3,.82v.62l1.32.34v6.66l-1.29.32v.6h6v-.6l-1.88-.41V292.5a6.77,6.77,0,0,1,1.36-.82l.62,2h1.44l.58-3.15a1.32,1.32,0,0,0-1.1-.56m-12.92,8.74c-1.59,0-2.24-2.86-2.24-4.83s.73-3,1.79-3c1.46,0,2.13,2.78,2.13,4.78,0,2.24-.75,3.08-1.68,3.08m-.24.88a4.58,4.58,0,0,0,4.91-4.91c0-2.52-1.51-4.71-4.95-4.71a4.63,4.63,0,0,0-4.93,4.8c0,2.24,1.21,4.82,5,4.82m-6.81-13.81a.68.68,0,0,1,.26.13Zm-.71,0,1.08,2.26h.75l.76-2.37a3.75,3.75,0,0,0-2.28-.67c-2.52,0-4.56,1.92-4.65,5.23h-1.23v.78L121,291v7.36l-1.23.32v.58h5.94v-.58l-1.9-.47v-7l1.79.15,1.14-.63v-.64h-2.93v-.3c0-2.28.28-3.86,1.53-4.14m-7.43,4.2a4.13,4.13,0,0,0-2.35,1.18l-.64.5-.22-1.66h-.82l-3,.82v.62l1.33.34v6.66l-1.29.32v.6h6v-.6l-1.88-.41V292.5a6.77,6.77,0,0,1,1.36-.82l.62,2h1.44l.58-3.15a1.32,1.32,0,0,0-1.1-.56m-12.55.9c.77,0,1.59.8,1.59,2.73v.09l-3.32.06c.09-1.88,1-2.87,1.74-2.87m1.87,7.23a3.59,3.59,0,0,1-3.6-3.51h5.23l.71-1.18a3.4,3.4,0,0,0-3.73-3.43,4.88,4.88,0,0,0-5,5.1c0,2.31,1.61,4.52,4.93,4.52a4.21,4.21,0,0,0,3.45-1.34l-.37-.52a3.24,3.24,0,0,1-1.64.37m-8.49-6.66,1.06-.62v-.6H97.36v-2.89h-.88l-1.72,2.89H93.16v.76l1.4.11v5.88a2.3,2.3,0,0,0,2.54,2.61,4.11,4.11,0,0,0,2.72-1l-.24-.58a2.17,2.17,0,0,1-1.14.3c-.67,0-1.08-.5-1.08-1.7v-5.28Zm-7.17,0,1.06-.62v-.6H90.19v-2.89h-.88l-1.72,2.89H86v.76l1.4.11v5.88a2.3,2.3,0,0,0,2.54,2.61,4.11,4.11,0,0,0,2.73-1l-.24-.58a2.17,2.17,0,0,1-1.14.3c-.67,0-1.08-.5-1.08-1.7v-5.28Zm-10.83-.56c.77,0,1.59.8,1.59,2.73v.09l-3.32.06c.09-1.88,1-2.87,1.74-2.87M82.63,298a3.59,3.59,0,0,1-3.6-3.51h5.23l.71-1.18a3.4,3.4,0,0,0-3.73-3.43,4.88,4.88,0,0,0-5,5.1c0,2.31,1.61,4.52,4.93,4.52a4.21,4.21,0,0,0,3.45-1.34l-.37-.52a3.24,3.24,0,0,1-1.64.37m-7.71-2.76-2.07,3.15-2.93-.3v-11l1.47-.36v-.65h-6.1v.65l1.51.37V298.3l-1.42.34v.65H75.1l.52-4Zm-25.3.13a2.07,2.07,0,0,1,1.33-2.05l.93-.34v3.29a2.32,2.32,0,0,1-1.21.45c-.6,0-1-.71-1-1.34M49.51,290l.06-.09Zm1.48-4.2c-6.09,0-8.57,4.59-8.57,8.1,0,4.2,2.63,7.58,8.48,7.58a6.4,6.4,0,0,0,1.53-.17l.13-.93a3.58,3.58,0,0,1-1.21.2c-3.62,0-6.12-2.87-6.1-7.26,0-4,2.09-6.51,5.3-6.51s5.6,2.82,5.6,6.44c0,3.34-.91,4.14-1.75,4.39v-6c0-2.35-1.76-3-3.29-3a5.23,5.23,0,0,0-3.66,1.7l.63,1.7h.71l1.1-2.33a1.11,1.11,0,0,1,.5-.11c.93,0,1.46,1,1.46,2.37v.2l-1.94.64C48,293.4,47,294.65,47,295.92a2.32,2.32,0,0,0,2.45,2.43,4.32,4.32,0,0,0,2.78-1.25l1.4,1.59h.6c3-.78,4.57-2.71,4.57-6.44,0-2.95-2.24-6.46-7.8-6.46"/><path class="cls-3" d="M360.4,307c-4,0-7.08-4.63-7.08-12.74a33.25,33.25,0,0,1,.46-5.49,6.12,6.12,0,0,1,4.17-1.66c4.57,0,7.71,4.68,7.71,11.66,0,5.14-2,8.23-5.26,8.23m1.49-23.31a13.35,13.35,0,0,0-7.37,1.89c2.28-7.77,7.83-12.86,15.77-14.23l-.57-2C353.94,271,344.4,281,344.4,294.27c0,7.94,5.31,15.31,15,15.31s15.2-6.4,15.2-13.83c0-7.08-4.91-12.06-12.68-12.06m-26,21.83V278.9h-2.23l-12.34,5.54.57,2.11H327v19l-5.43,1.2v1.94h19.83v-1.94Zm-34.45,1.37c-4.63,0-7.26-4.51-7.26-12.68s2.63-12.74,7.26-12.74,7.31,4.51,7.31,12.74-2.63,12.68-7.31,12.68m0,2.57c10.11,0,16.23-6.34,16.23-15.31s-6.11-15.26-16.23-15.26-16.17,6.34-16.17,15.26,6.11,15.31,16.17,15.31m-39.71-25.54a5.3,5.3,0,0,1,1.66-1.71Zm.63,19.08c6.63-2.68,17.54-7.71,17.54-15.37,0-5.37-4.63-8.74-12.51-8.74A25.27,25.27,0,0,0,255.5,282l1.31,9.54h2l5.54-9.77a4.92,4.92,0,0,1,.91-.11c3.26,0,5.43,2.17,5.43,6.34,0,6.63-9.94,13.37-16.45,18.11v2.57H277l4.34-5.14v-1.66Z"/></g></svg>