<svg id="Layer_1" data-name="Layer 1" xmlns="http://www.w3.org/2000/svg" viewBox="0 0 640 640"><defs><style>.cls-1,.cls-2{fill:#fff;}.cls-2{font-size:30px;font-family:Prospectus-Regular1208, Prospectus;}</style></defs><title>3</title><rect width="640" height="640"/><path class="cls-1" d="M53.48,53.9v.9H45.32v-.9l2.76-.72-2.22-5.76H38.24l-2,5.76L39,53.9v.9H32.51v-.9l2-.66,6.87-18.81,2.31-.93,7.74,19.86ZM45.29,46,41.9,37.22,38.75,46Zm35.07,2.91c0,4-3.18,5.91-7.38,5.91H64.31v-.9l2.16-.6v-18L63.8,34.7v-.9H72c4.44,0,6.69,1.71,6.69,4.44A5.09,5.09,0,0,1,75.44,43v.15C77.33,43.7,80.36,45.35,80.36,48.89ZM69.62,35.36V42.8h4c.33,0,1.95-1,1.95-3.66,0-3.21-1.65-4.2-3.75-4.2a11,11,0,0,0-1.89.36Zm7.62,14.22c0-3.42-1.92-5.43-5.76-5.43H69.62v9l.84.15a21.47,21.47,0,0,0,2.52.3C74.69,53.6,77.24,52.85,77.24,49.58Zm33.87-.36-1,4.65c-1.26.72-4.08,1.23-7.14,1.23-7,0-11.49-4.23-11.49-10.8,0-5.67,4.53-10.8,11.43-10.8a21.48,21.48,0,0,1,7.71,1.32l-.27,5.28h-1.08L107.57,36a8.5,8.5,0,0,0-4.35-1.2c-5.4,0-8.46,3.57-8.31,9.24.15,5.4,3.36,9.57,7.95,9.57a8.1,8.1,0,0,0,4.44-1.17L110,49.22Zm32.7-5.37c0,6-3.54,10.95-10.95,10.95h-10v-.9l2.52-.75V35.45l-3-.75v-.9h10.26C139,33.8,143.81,37.61,143.81,43.85ZM140.42,45c0-6.42-4-9.87-8.67-9.87a15.89,15.89,0,0,0-2.58.33l-.6.09V52.94l1,.15a23.29,23.29,0,0,0,3,.36C137.18,53.45,140.42,51,140.42,45ZM170,50.24l-.75,4.56H155.06v-.9l2.64-.66V35.36l-2.64-.66v-.9h14.43l-.72,4.62h-1.08l-.9-3.36h-3.48a5.28,5.28,0,0,0-1.74.3l-.72.27v7.92h5.37l.63-2.16h1.08V47.6h-1.08l-.54-2.7h-5.46V53l6.27.66,1.83-3.45Zm24.75-11.82H193.7l-.93-3.27H189a4.67,4.67,0,0,0-1.44.24l-.75.24v7.92h4.5l.69-1.86h1.08v6.57H192l-.78-3.36h-4.41v8.31l3.27.69v.9h-8.67v-.9l2.25-.63V35.39L181,34.7v-.9h14.46Zm34,6.84-2.25.66v7.59c-1.65,1-5.1,1.59-7.92,1.59-7.41,0-11.82-4.17-11.82-10.8,0-4.5,3.42-10.8,11.79-10.8a24.18,24.18,0,0,1,7.8,1.23l-.3,5.37h-1l-1.56-3.81a7.61,7.61,0,0,0-4.77-1.5c-5.7,0-8.7,3.6-8.52,9.27.21,6.15,4.77,9.63,9.06,9.63,1.74,0,3.27-.24,4.11-1.56V45.92l-3-.66v-.87h8.37Zm-4.14-7.65-.27-.42Zm34.89-2.28V53.27l2.61.63v.9h-8.37v-.9l2.61-.63V44.39H245.09v8.88l2.61.63v.9h-8.37v-.9l2.61-.63V35.33l-2.61-.63v-.9h8.37v.9l-2.61.63v7.5h11.28v-7.5l-2.61-.63v-.9h8.37v.9Zm19.41,0V53.27l2.61.63v.9h-8.37v-.9l2.61-.63V35.33l-2.61-.63v-.9h8.37v.9Zm26.28-.63-2.91.66v12c0,4.68-2.46,7.71-6.24,7.71a7.46,7.46,0,0,1-4.8-1.62V49.22h.9L294,53a2.82,2.82,0,0,0,1.95.78c2.07,0,3.21-1.74,3.21-5.43v-13l-2.91-.66v-.9h9Zm16.35,18.57,2.61.63v.9H315.8v-.9l2.61-.63V35.33l-2.61-.63v-.9h8.37v.9l-2.61.63Zm13.5.63v.9h-4.77l-7.92-10.89,7.41-8.49-2.07-.72v-.9h6.57v.9l-2.64.72L325.19,43l8.31,10.44Zm24.72-4.5L359,54.8H344.75v-.9l2.37-.6V35.39l-2.67-.69v-.9h8.28v.9l-2.46.66V53l6.57.51,2.1-4.11Zm37.44,4.5v.9H388.7v-.9l2.61-.66-1.86-14.79-6.9,16.65h-.93l-7.08-16.47-1.89,14.46,3.69.81v.9h-7.95v-.9l2.76-.84,2.28-17.7-2.28-.66v-.9h4.62l7.11,16.8,6.9-16.8h4.59v.9l-2.28.66,2.34,17.91ZM429,34.7l-2.58.75V55.1H425L411,37.46l0,15.51,4.26.93v.9h-8.73v-.9l2.88-.75V35.63l-2.88-.93v-.9h5.88l12.39,15.9,0-14.1-4-.9v-.9H429Zm10.53,9.6a10.78,10.78,0,0,1,11.16-10.8c8.19,0,11.16,5.85,11.16,10.8a10.78,10.78,0,0,1-11.16,10.8C442.49,55.1,439.52,49.25,439.52,44.3Zm18.9.54c.06-6-3.66-9.84-8.1-9.84s-7.32,3-7.38,8.76c-.06,6,3.66,9.84,8.1,9.84S458.36,50.57,458.42,44.84ZM486,39.44c0-3.33-2.25-4.38-4.68-4.38a7.87,7.87,0,0,0-1.62.18l-.75.12V53.24l3.42.66v.9H473v-.9l2.79-.72V35.45l-3.18-.75v-.9h8.91c5,0,7.74,2.31,7.74,5.34,0,4.14-3.06,6.81-7.2,6.81a5,5,0,0,1-1.32-.12l.24-1a2.49,2.49,0,0,0,.6.06C484.22,44.9,486,43,486,39.44Zm43.2,19.77v.9l-4.26.42-11.34-5.7a12.3,12.3,0,0,1-2.64.27c-8.19,0-11.16-5.85-11.16-10.8a10.78,10.78,0,0,1,11.16-10.8c8.19,0,11.16,5.85,11.16,10.8a11,11,0,0,1-5.79,9.6Zm-19.26-5.73,1.35-1.68,3,1.23c2.67-1.11,4.35-3.9,4.41-8.19.06-6-3.66-9.84-8.1-9.84s-7.32,3-7.38,8.76C503.15,49.13,506.12,52.76,509.93,53.48Zm65.46,7c-7.68,5-15.57.63-26-4.59l-2-1a12.1,12.1,0,0,1-2.64.27c-8.19,0-11.16-5.85-11.16-10.8a10.78,10.78,0,0,1,11.16-10.8c8.19,0,11.16,5.85,11.16,10.8a11,11,0,0,1-6,9.72,103.7,103.7,0,0,0,12.48,4.74c5.64,1.62,10.77,2.07,12.48,1.17Zm-31.68-7,1.35-1.68c.93.45,1.89.87,2.82,1.32,2.79-1.08,4.53-3.87,4.59-8.28.06-6-3.66-9.84-8.1-9.84S537,38,537,43.76C536.93,49.13,539.9,52.76,543.71,53.48Zm42.45.42v.9h-4.41l-6-9.36h-3.06v7.8l3.42.66v.9h-9.36v-.9l2.79-.69V35.42l-3.18-.72v-.9h8.91c4.71,0,7.44,2.31,7.44,5a6.43,6.43,0,0,1-3.93,6.06L585,53.54Zm-11-9.75c3.24,0,4.32-1.47,4.32-4.71a4.09,4.09,0,0,0-4.38-4.38,7.87,7.87,0,0,0-1.62.18l-.75.12V44A12.69,12.69,0,0,0,575.12,44.15Zm32.94,4.95c0,4-3.18,6-7.2,6a13.88,13.88,0,0,1-5.49-1V49.34h1.08l1.41,3.48a4.54,4.54,0,0,0,3.06.93c2.76,0,4.11-1,4.11-3.24,0-5.19-9.78-5.79-9.78-11.94,0-2.67,1.92-5.07,6.57-5.07a15.42,15.42,0,0,1,4.95.78l-.33,4.14h-1.08l-1.17-3.18a6.74,6.74,0,0,0-2.43-.39c-2.31,0-3.48,1-3.48,2.88C598.28,42.08,608.06,43.52,608.06,49.1Z"/><path class="cls-1" d="M43.22,71.21v18l3.21.66v.9h-9v-.9l2.61-.66v-18l-4.8.24-2.07,3.3h-.9l.45-4.95H50.27l.45,4.95h-.9l-2.07-3.3Zm39.06-.57-2.61.72,0,10.32c0,5.79-2.76,9.42-8.61,9.42-5.64,0-8.31-2.73-8.31-8.52V71.27L60,70.64V69.8h8.67v.84l-2.82.66V82.88c0,4.59,2.34,6.63,6.45,6.63s5.55-2.82,5.55-7.8V71.39l-2.73-.75V69.8h7.14Zm31.11.06-2,.57L103.52,91.1h-1.68l-8.1-19.95-2.31-.45v-.9h8.82v.9l-2.67.75,6,15.66,6.12-15.69-3.09-.72v-.9h6.78Zm39.93,0-2.22.51L145.67,91.1H144l-6.69-16.23L130.67,91.1H129l-5.1-19.89-2.16-.51v-.9h9v.9l-3.39.78L131,86.6l6.87-17.1h.9l6.69,17,4-15h-.09l-3.18-.81v-.9h7.17Zm41.43,0-3,.69L185.18,91.1H183.5l-5.34-15.66L172.31,91.1h-1.68l-6.09-19.74-2.82-.66v-.9h9v.9l-2.79.63,4.47,15.36,5-13.41-.66-2-2.61-.6v-.9H183v.9l-2.64.6,4.77,15.45,4.95-15.39-2.55-.66v-.9h7.17Zm29.73,19.2v.9h-8.37v-.9l2.13-.51L213.41,82l-4.65,7.11,2.58.81v.9h-7.89v-.9l3.39-.72,5.61-8.64-6-9.24-2.73-.6v-.9h8.67v.9l-2.25.57,4.47,6.9,4.29-6.6-2.46-.87v-.9h7.53v.9l-3.09.69-5.34,8.19,6.24,9.66Zm20.13-8.13v7.29l2.88.54v1.2h-8.64V89.6l2.61-.48V82.31l-6.21-11.1-2.07-.51v-.9h7.68v.9l-2,.57,4.95,8.94,4.8-8.85-1.77-.66v-.9h6.36v.9l-2.94.78Zm34.11,3.69-.87,5.34H262.43v-.6l11.88-19-9.09.39,0,0-1.5,2.88h-1l.78-4.65h15v.63L266.54,89.3l9.45-.57,1.71-3.27Zm25,3.57v.78l-4.11,1h-.78l-.45-2.25c-2.19,1.62-3.63,2.55-5.55,2.55a3.33,3.33,0,0,1-3.57-3.36c0-1.8,1-3.06,3.81-4l5.16-1.62V82c0-2.4-1.11-4.29-3.18-4.29a2.79,2.79,0,0,0-2.28,1l-.63,2.91h-1.2l-.75-3A8.63,8.63,0,0,1,296,76.25c2.61,0,5.13,1.14,5.13,5.19v6.81Zm-9.39.45c1.17,0,2.34-1,3.9-2.13v-3.9l-3.72,1.23a3,3,0,0,0-2.25,2.73A1.94,1.94,0,0,0,294.32,89.48Zm34.53-6.27c0,4.8-3.33,7.89-7.14,7.89a6.7,6.7,0,0,1-4.35-1.23l-1,1.23h-.84V70.7L312.86,70V69.2l4.71-1.2h.78V78.08A6.9,6.9,0,0,1,323,76.25C326.42,76.25,328.85,79.07,328.85,83.21Zm-3,1c0-3.66-1.8-6.21-4.17-6.21a4.91,4.91,0,0,0-3.33,1.56v6c0,3,1.92,4.26,3.84,4.26C324.5,89.81,325.85,87.71,325.85,84.23Zm26.91,5.07c-1.11,1.2-2.76,1.8-5.1,1.8a7,7,0,0,1-7.2-7.17,7.31,7.31,0,0,1,7.35-7.68,10,10,0,0,1,4.5,1.17v3.9h-1.2l-2.25-3.54c-2.88-1-5.46,1.17-5.46,5.37a5.93,5.93,0,0,0,6,6.12,4.64,4.64,0,0,0,2.82-.72ZM379.91,89v.78l-4,1h-.78l-.39-1.92a6.41,6.41,0,0,1-4.8,2.22c-3.81,0-6-3.09-6-7,0-5,3.27-7.86,7.26-7.86a7.79,7.79,0,0,1,3.24.6V70.7L371.81,70V69.2l4.71-1.2h.78V88.25Zm-5.49-1.44V81.65c0-2.49-1.23-4-3.33-4s-4.23,1.8-4.23,5.67c0,4.38,2.16,6,4.32,6A4.49,4.49,0,0,0,374.42,87.59Zm27.39,1,.54.75a6.77,6.77,0,0,1-5.1,1.8,7,7,0,0,1-7.26-7c0-4.65,3.12-7.8,7.26-7.8,3.45,0,5.55,2.16,5.58,5.19L402,82.88h-8.94v.21c0,3.93,2.49,6.18,5.91,6.18A4.93,4.93,0,0,0,401.81,88.55Zm-8.64-6.9,6.75-.09c0-2.52-1.59-3.93-3.33-3.93C395.27,77.63,393.59,78.83,393.17,81.65Zm26.22-5.82v.72h5v.78l-2.37,1-2.64-.21V89.27l3.18.75v.78H414V90l2.46-.66V77.87L414,77.69V76.55h2.46C416.51,71.48,419,68,423,68a4.32,4.32,0,0,1,2.64.75l-.72,2.91h-1L423,69.38a2.43,2.43,0,0,0-.48,0C419.84,69.35,419.39,72.29,419.39,75.83Zm29.76,2.34H446a4.73,4.73,0,0,1,1.14,3.12c0,2.1-1.8,5-6.15,5a8.79,8.79,0,0,1-2.1-.24l-1.59,3.09h6.27c3.63,0,5.52,1.71,5.52,4.26,0,2.13-1.5,5.46-7.35,5.46-5.37,0-7.17-3.24-7.41-5.49l2.1-1.92L434.75,89l3.12-3.21a4.75,4.75,0,0,1-3.06-4.47c0-2.07,1.83-5,6.18-5a7.11,7.11,0,0,1,4,1l3.66-1.56h.51Zm-6,13.86h-5.67l-.45.57c-.09,2.52,2.52,4.86,6.12,4.86,2.37,0,3.66-1,3.66-2.82C446.78,93,445.64,92,443.12,92Zm1.08-10.56c0-2.43-1.56-4-3.39-4s-3.06,1.26-3.06,3.63,1.56,3.93,3.39,3.93S444.2,83.81,444.2,81.47ZM476.75,90v.84h-7.8V90l2.46-.57v-7.5c0-2.31-1-3.51-2.58-3.51-1.23,0-3.06,1-4.38,1.92v9.09l2.46.57v.84h-7.8V90l2.46-.57V70.7L459,70V69.2l4.71-1.2h.78V78.77l1.38-.87a8.49,8.49,0,0,1,4.29-1.65c2.61,0,4.17,2.25,4.17,5v8.16Zm18.06.06v.78H487V90l2.46-.66V78.83L487,78.17v-.78l4.56-1.14h.78V89.36ZM489,71.33a1.77,1.77,0,0,1,1.8-1.74,1.73,1.73,0,1,1,0,3.45A1.67,1.67,0,0,1,489,71.33Zm20.52,4.92h.78V88.79c0,7-1.68,9.24-5.91,10l-.21-.93c2.88-.81,3.24-2.07,3.24-5.88V79.07l-2.91-.78v-.78ZM507,71.33a1.86,1.86,0,0,1,1.89-1.83A1.82,1.82,0,1,1,507,71.33Zm20.79,18,2.61.6v.84h-7.8V90l2.31-.54V70.7L522.29,70V69.2L527,68h.78Zm11.37.66v.78h-4.23l-6.33-8.46,5.82-3.9-2.94-1.11v-.78h6.6v.78l-6.72,4.53,6.45,7.68Zm17.52,0v.78h-7.8V90l2.31-.54V70.7L548.57,70V69.2l4.71-1.2h.78V89.42Zm37,0v.78h-7.53V90l2.19-.63v-7.2c0-2.61-.78-3.81-2.13-3.81a9.81,9.81,0,0,0-4.38,1.77,6.56,6.56,0,0,1,.09,1.08v8.16l2.19.63v.78h-7.53V90l2.46-.66V81.89c0-2.31-1-3.51-2.58-3.51-1.23,0-3.06,1-4.38,1.89v9.09l2.46.66v.78h-7.8V90l2.46-.66V78.83l-2.46-.66v-.78L571,76.25h.72l.24,2.58,1.5-.93a8.49,8.49,0,0,1,4.29-1.65,4,4,0,0,1,3.75,2.64l1.56-1a8.56,8.56,0,0,1,4.14-1.65c2.46,0,4,2.1,4,5.28v7.83Z"/><path class="cls-1" d="M50.81,126v.78H43V126l2.46-.66v-7.47c0-2.31-1-3.51-2.58-3.51-1.23,0-3.06,1-4.38,1.92v9.06L41,126v.78h-7.8V126l2.46-.66V114.83l-2.46-.66v-.78l4.26-1.14h.72l.24,2.58,1.5-.93a8.49,8.49,0,0,1,4.29-1.65c2.61,0,4.17,2.25,4.17,5v8.13Zm10.44-6.33a7.32,7.32,0,0,1,7.32-7.44c4.2,0,7.35,2.67,7.35,7.14,0,4.23-2.34,7.71-7.29,7.71C63.32,127.1,61.25,123.14,61.25,119.69Zm11.55.24c0-4.17-2.07-6.39-4.35-6.39s-4.08,1.86-4.08,5.64c0,4,2,6.63,4.71,6.63C71.06,125.81,72.8,124.4,72.8,119.93Zm29.79-.69c0,5-3.27,7.86-7.26,7.86a7.79,7.79,0,0,1-3.24-.6v6.6l3.21.72v.78H86.6v-.78l2.61-.75v-18l-2.61-.78v-.78l4-1h.78l.39,1.92a6.41,6.41,0,0,1,4.8-2.22C100.43,112.25,102.59,115.34,102.59,119.24Zm-2.94.81c0-4.38-2.16-6-4.32-6a4.49,4.49,0,0,0-3.24,1.74v5.94c0,2.49,1.23,4,3.33,4S99.65,123.92,99.65,120.05Zm31.05,13.77v.78H122v-.78l3.21-.75v-7.8a6.9,6.9,0,0,1-4.62,1.83c-3.45,0-5.88-2.82-5.88-7,0-4.8,3.33-7.89,7.14-7.89a6.7,6.7,0,0,1,4.35,1.23l1-1.23h.84v20.91Zm-5.49-10v-5.91c0-3-1.92-4.26-3.87-4.26-2.28,0-3.63,2-3.63,5.52,0,3.66,1.8,6.21,4.17,6.21A4.91,4.91,0,0,0,125.21,123.77Zm27.15-10.47-1.11,3.84h-1.14L149,114.59a9.22,9.22,0,0,0-3.06,1.77v8.94l3.51.66v.84h-8.85V126l2.46-.57V114.83l-2.46-.66v-.75l4.26-1.17h.72l.27,2.76,1-.75c1.44-1.11,2.64-2,3.66-2A1.92,1.92,0,0,1,152.36,113.3Zm20.88,9.54c0,2.31-2.34,4.26-5.37,4.26a9.05,9.05,0,0,1-4.8-1.2v-3.42h1l1.44,2.67a5.41,5.41,0,0,0,2.52.69c2.1,0,2.79-1.11,2.79-2,0-3.12-7.74-2.85-7.74-7.35,0-2.13,1.44-4.26,5.16-4.26a7.79,7.79,0,0,1,4.11,1l-.21,2.88h-1L170.09,114a4.84,4.84,0,0,0-2-.48c-1.74,0-2.64,1-2.64,2C165.41,118.37,173.24,118.19,173.24,122.84ZM189.08,114v8.28c0,2.07.9,3.06,2.19,3.06a5.47,5.47,0,0,0,2.7-.6l.3.78a6.36,6.36,0,0,1-4.32,1.56c-1.83,0-3.75-1-3.75-4.2v-9.06l-2.91-.21v-1.08h2.91l1.74-4.5h1.14v4.5h5.31v.78l-2,.93ZM221,125v.78l-4.11,1h-.78l-.36-2.13c-1.59,1.5-3.12,2.43-4.83,2.43-3.21,0-4.62-2.25-4.62-5v-7.2l-2.61-.72v-.78l4.71-1.17h.78v9.45c0,2.28,1,3.57,2.64,3.57a4.87,4.87,0,0,0,3.69-2v-8.34l-2.61-.72v-.78l4.71-1.17h.78v12Zm25.14-11.7-2.13.9-5.43,12.87H236.9L231.08,114l-1.68-.63v-.78h7.11v.78l-2.25.72,4.2,10,4.14-9.9-1.95-.81v-.78h5.46Zm30.72,0-1.77.78-4.17,13h-1.74l-3.9-10-4.56,10H259L255.44,114l-1.83-.63v-.78H261v.78l-2.4.78,2.34,9.45,4.89-11h.75l4.14,11.07,2.91-9.36-2.28-.93v-.78h5.46ZM300.2,126v.78h-6.66V126l1.53-.6L291.92,121l-3.15,4.23,1.68.81v.78h-5.37V126l2.07-.69,4-5.4-4.29-6.12-1.59-.48v-.78h6.57v.78l-1.53.51,2.88,4.14,2.88-3.87-1.74-.78v-.78h5v.78l-1.62.66L294,119l4.56,6.51Zm24.6-12.69-2,.75-8.19,20.82h-2.79v-.78l4.08-6.09.18-.42-6.27-13.8-1.41-.48v-.78h7v.78l-2.22.63,4.35,10,4-10-1.95-.69v-.78h5.34Zm20.76,8.94-.27,4.53H333.86V126l8.07-12.21-5.49.42-1.2,2.37h-.75l.21-4h10.65v.78l-8.07,12.15,6.21-.51,1.32-2.7ZM374.45,126v.78h-8.28V126l2.79-.75V114.05l-7.2-.24v11.46l2.76.75v.78h-8.25V126l2.61-.69V113.72l-2.91-.09v-1.08l2.91-.06v0c0-5.28,3.42-8.46,7.71-8.46,3.75,0,5.52,2.1,5.52,3.93a1.74,1.74,0,0,1-3.48,0,1.65,1.65,0,0,1,.42-1.08,2.65,2.65,0,0,0-2.49-1.65c-2.79,0-4.8,2.34-4.8,6.6v.6l9.3-.18h.78v13.11Zm28.74,0v.78h-7.8V126l2.31-.72V109.7c0-3.18-1.32-4.41-3.12-4.41-2.94,0-4.08,2.82-4.08,6.54v.72h4.71v.78l-2.07.93-2.64-.21v11.19l2.88.78v.78H385V126l2.61-.72V113.84l-2.91-.21v-1.08h2.91v-.09c0-5,2.52-8.46,7-8.46a4.87,4.87,0,0,1,3.9,1.47l1.32-1.77h.78v21.66Zm26.76-9.39c0,6.15-2.82,10.5-7.8,10.5a12.7,12.7,0,0,1-1.59-.12l-.66,3-1.17-.24.66-3.09c-4-1.44-5-6.06-5-10.08,0-6.15,2.82-10.5,7.8-10.5a12.73,12.73,0,0,1,1.59.12l.66-3.06,1.17.24-.66,3.12C428.93,108,429.95,112.61,429.95,116.63Zm-10.11,7.92,3.57-16.65a3.28,3.28,0,0,0-1.59-.39c-2.67,0-4.5,2.37-4.32,8.58C417.65,120.26,418.49,123.08,419.84,124.55Zm7-7.38c-.15-4.17-1-7-2.34-8.46l-3.57,16.65a3.2,3.2,0,0,0,1.59.39C425.15,125.75,427,123.38,426.8,117.17Zm16.05-.57c0-6.15,2.82-10.5,7.8-10.5,6.36,0,7.8,5.7,7.8,10.5,0,6.15-2.82,10.5-7.8,10.5C444.29,127.1,442.85,121.4,442.85,116.6Zm12.45.54c-.21-6.45-2.13-9.66-5-9.66-2.67,0-4.5,2.37-4.32,8.58.21,6.45,2.13,9.66,5,9.66C453.65,125.72,455.48,123.35,455.3,117.14Zm24.54,8.76v.9h-9.75v-.9l3.63-.72v-15l-3.27.57-.54-.78,6-3.9h.78v19.11Zm11.49-13.44h.9l1.08-4a4.88,4.88,0,0,1,3.12-1.11,3.34,3.34,0,0,1,3.48,3.66c0,4.5-6.78,11.61-10,15.18v.6h12.45l1.5-6H503l-2.34,3.69H493.1c7.11-6,10-9.87,10-13.56,0-3.18-2.25-4.86-5.82-4.86a14.69,14.69,0,0,0-6.51,1.65Zm36,7.95c0,3.45-2.76,6.69-7.68,6.69a8,8,0,0,1-5-1.5l.78-1.11a7.22,7.22,0,0,0,4.35,1.41c2.91,0,4.56-1.77,4.56-4.23s-1.74-4.89-6-5.1V116c2.94-.9,5.13-2.88,5.13-5.43A3.3,3.3,0,0,0,520,107.3a4,4,0,0,0-2.19.63l-1,3.45H516l-.84-3.57a9.9,9.9,0,0,1,5.64-1.71c3.54,0,5.67,2,5.67,4.35,0,2.07-1.89,4.26-4.77,5.31C524.51,116,527.36,117.53,527.36,120.41Zm22.47,1.14v3.54l2.79.81v.9h-9.36v-.9l3.69-.81v-3.54H537.5l-.39-1.56,11.34-13.89h1.38v13.32h3.54v.63l-1.5,1.5Zm-2.88-2.13v-9.54l-7.77,9.54Zm28.8.15c0,3.24-2.07,7.53-8.4,7.53a12.59,12.59,0,0,1-4.14-.69l.75-4.62h.78l.72,3.15a5.75,5.75,0,0,0,2.88.66c3.21,0,4.8-1.89,4.8-4.62,0-3-2.34-4.5-7.08-4.5h-1.77l-.54-.48.84-9.63h10.59v1.95l-.84.81h-8.61l-.39,4.62h1C572.6,113.75,575.75,115.76,575.75,119.57ZM601,120c0,3.45-2.28,7.26-7,7.26-5.13,0-7.14-4-7.14-7.71a13.13,13.13,0,0,1,11.76-13.41l.3.9c-5.07,1-8.07,4.08-8.85,9a5.51,5.51,0,0,1,4.59-2.22C598.49,113.78,601,116.39,601,120Zm-3,1.41c0-3.57-1.77-5.82-4.47-5.82a3.71,3.71,0,0,0-3.72,3.15c0,4.89,2,7.17,4.53,7.17C596.48,125.87,598,124,598,121.37Z"/><path class="cls-1" d="M46.37,143.06,39.11,162.8h-3l-.69-.48L44.6,145H35.54L34.4,148.1h-.9v-5.7H45.71Zm25,14.37c0,4-3.9,5.67-7.44,5.67-3.87,0-7.08-1.83-7.08-5,0-2.37,1.95-4.11,4.89-5.43-2-1.2-3.66-2.61-3.66-4.83,0-3.75,3.15-5.73,6.18-5.73,4,0,6.18,1.8,6.18,4.5,0,2.37-2.46,4-4.38,5.16C68.69,153.23,71.33,154.79,71.33,157.43Zm-2.82,1.2c0-2.52-3-3.84-5.82-5.4a5.84,5.84,0,0,0-2.88,4.68c0,2.31,2.1,3.84,4.74,3.84S68.51,160.43,68.51,158.63Zm-7.89-12.18c0,2.13,2.1,3.48,4.44,4.77a6.44,6.44,0,0,0,2.46-4.41,3.3,3.3,0,0,0-3.57-3.36A3,3,0,0,0,60.62,146.45Zm35.76,3.36c0,7-4.71,12.54-12.66,13.41l-.3-.9c5.43-1.26,8.82-4.11,9.72-8.94a5.6,5.6,0,0,1-4.56,2.16c-3.9,0-6.39-2.61-6.39-6.18s2.28-7.26,7-7.26C94.37,142.1,96.38,146.09,96.38,149.81Zm-3,.81c0-4.89-2-7.17-4.53-7.17-2.16,0-3.66,1.77-3.66,4.35,0,3.57,1.77,6,4.47,6A3.71,3.71,0,0,0,93.38,150.62Zm14.46,4.74a8,8,0,1,1,7.95,7.74A7.64,7.64,0,0,1,107.84,155.36Zm13,0c0-4-1.89-6.36-5.07-6.36s-5.07,2.37-5.07,6.36,1.89,6.39,5.07,6.39S120.86,159.38,120.86,155.36ZM144.14,162v.78h-9.3V162l3.21-.75V150.5H135v-.78l5.34-2.07h.6v13.62Zm23.55-1.56v.63l-1.5,1.71H154.52v-1.5c4.35-1.92,9.15-5.7,9.15-9,0-1.86-.9-3.27-2.85-3.27a3.76,3.76,0,0,0-2.73,1.23l-1.26,3.48H156l-.63-4.41a10,10,0,0,1,5.55-1.65c3.81,0,5.88,1.86,5.88,4.26,0,3.9-5.13,7.14-9.33,9.09Zm-10.41-9.12-.09.18Zm33.27,10.59c0,3.45-2.76,6.69-7.68,6.69a8,8,0,0,1-5-1.5l.78-1.11a7.22,7.22,0,0,0,4.35,1.41c2.91,0,4.56-1.77,4.56-4.23s-1.74-4.89-6-5.1v-.6c2.94-.9,5.13-2.88,5.13-5.43a3.3,3.3,0,0,0-3.54-3.24,4,4,0,0,0-2.19.63l-1,3.45h-.84l-.84-3.57a9.9,9.9,0,0,1,5.64-1.71c3.54,0,5.67,2,5.67,4.35,0,2.07-1.89,4.26-4.77,5.31C187.7,157.55,190.55,159,190.55,161.93ZM216.41,160v.63l-1.5,1.56h-2v6.15H210V162.2h-9.33l-.39-1.56,11.34-13h1.26V160ZM210,160v-8.46L202.49,160Zm28.92,1.11c0,3.24-2.07,7.53-8.4,7.53a12.59,12.59,0,0,1-4.14-.69l.75-4.62h.78l.72,3.15a5.75,5.75,0,0,0,2.88.66c3.21,0,4.8-1.89,4.8-4.62,0-3-2.34-4.5-7.08-4.5h-1.77l-.54-.48.84-9.63h10.59v1.95l-.84.81h-8.61l-.39,4.62h1C235.79,155.3,238.94,157.31,238.94,161.12ZM264.17,156c0,3.45-2.28,7.26-7,7.26-5.13,0-7.14-4-7.14-7.71a13.13,13.13,0,0,1,11.76-13.41l.3.9c-5.07,1-8.07,4.08-8.85,9a5.51,5.51,0,0,1,4.59-2.22C261.68,149.78,264.17,152.39,264.17,156Zm-3,1.41c0-3.57-1.77-5.82-4.47-5.82A3.71,3.71,0,0,0,253,154.7c0,4.89,2,7.17,4.53,7.17C259.67,161.87,261.17,160,261.17,157.37Zm27-8.79-7.26,19.74h-3l-.69-.48,9.15-17.31h-9.06l-1.14,3.09h-.9v-5.7h12.21Zm25,8.85c0,4-3.9,5.67-7.44,5.67-3.87,0-7.08-1.83-7.08-5,0-2.37,1.95-4.11,4.89-5.43-2-1.2-3.66-2.61-3.66-4.83,0-3.75,3.15-5.73,6.18-5.73,4,0,6.18,1.8,6.18,4.5,0,2.37-2.46,4-4.38,5.16C310.52,153.23,313.16,154.79,313.16,157.43Zm-2.82,1.2c0-2.52-3-3.84-5.82-5.4a5.84,5.84,0,0,0-2.88,4.68c0,2.31,2.1,3.84,4.74,3.84S310.34,160.43,310.34,158.63Zm-7.89-12.18c0,2.13,2.1,3.48,4.44,4.77a6.44,6.44,0,0,0,2.46-4.41,3.3,3.3,0,0,0-3.57-3.36A3,3,0,0,0,302.45,146.45Zm35.76,8.91c0,7-4.71,12.54-12.66,13.41l-.3-.9c5.43-1.26,8.82-4.11,9.72-8.94a5.6,5.6,0,0,1-4.56,2.16c-3.9,0-6.39-2.61-6.39-6.18s2.28-7.26,7-7.26C336.2,147.65,338.21,151.64,338.21,155.36Zm-3,.81c0-4.89-2-7.17-4.53-7.17-2.16,0-3.66,1.77-3.66,4.35,0,3.57,1.77,6,4.47,6A3.71,3.71,0,0,0,335.21,156.17Zm38.37-5.25c0,5.64-1.86,7.95-7,9.63h-.66l-1.71-2.1a7.36,7.36,0,0,1-4.44,1.68c-1.17,0-3.33-.75-3.33-3.75,0-2.25,1.71-3.69,4.62-4.59l3-1c0-1.86-1-3.33-2.76-3.33a2.29,2.29,0,0,0-1.38.42l-1,2.7h-1l-.63-2.52a7.19,7.19,0,0,1,4.89-2c2.19,0,4.74,1,4.74,4.41v8.73c2.4-.72,3.75-3,3.75-6.54,0-4.89-3.51-9.9-8.91-9.9s-8.88,3.48-8.94,10.08c-.06,7,4.59,11.1,9.48,11.1a9.13,9.13,0,0,0,3.21-.51l.33,1.29a13.42,13.42,0,0,1-4,.57c-9,0-12.3-6.45-12.3-11.91,0-5,3.66-11.91,12.6-11.91C369.68,141.5,373.58,146.48,373.58,150.92Zm-14.13-2.58a1.26,1.26,0,0,0-.27.42Zm1.71,9.87a6,6,0,0,0,2.91-1v-5.07l-2.79,1a2.8,2.8,0,0,0-1.95,3A2.07,2.07,0,0,0,361.16,158.21ZM404.84,162v.78H401l-2.16-2.13a10.11,10.11,0,0,1-6.93,2.4c-5.85,0-7.86-3.3-7.86-6.33a6.28,6.28,0,0,1,4.77-6.12,6.51,6.51,0,0,1-1.53-4.23c0-2.31,1.74-4.86,5.7-4.86a6.94,6.94,0,0,1,4.89,1.71v3.93h-.9l-1-2.49a2.64,2.64,0,0,0-2.79-1.89,2.85,2.85,0,0,0-3,3.09,5,5,0,0,0,1.83,3.6l7.95,7.71a10.21,10.21,0,0,0,.93-4.38l-2.37-.9V151h4.74v.9a20.24,20.24,0,0,1-2.31,6.27Zm-6.9-2.22-8.31-8.25a4.81,4.81,0,0,0-2.58,4.62,5.35,5.35,0,0,0,5.7,5.55A7.58,7.58,0,0,0,397.94,159.8Zm28.53-10.35.27.69-.72,1.23-.72.12-3.81-3.06.72,4.86-.45.57h-1.44l-.45-.57.72-4.86-3.81,3-.72-.09-.72-1.23.27-.72,4.56-1.77-4.56-1.74-.27-.72.72-1.23.72-.09,3.81,3-.72-4.83.45-.57h1.44l.45.57-.72,4.83,3.81-3.06.72.12.72,1.23-.27.69-4.56,1.77ZM440.21,140l6.72,26h-1.62l-6.72-26Zm19.8,9.48a2,2,0,0,1,2.13,2,2,2,0,0,1-2.16,2.1,2,2,0,0,1-2.1-2.07A2.07,2.07,0,0,1,460,149.48Zm16.32,2.34a2.64,2.64,0,0,1,2.79,2.61,2.79,2.79,0,0,1-5.58.06A2.72,2.72,0,0,1,476.33,151.82Zm16.32-2.34a2,2,0,0,1,2.13,2,2,2,0,0,1-2.16,2.1,2,2,0,0,1-2.1-2.07A2.07,2.07,0,0,1,492.65,149.48Zm0,9.51a2,2,0,0,1,2.13,2,2,2,0,0,1-2.16,2.1,2,2,0,0,1-2.1-2.07A2.07,2.07,0,0,1,492.65,159ZM507,168.5a13.08,13.08,0,0,0,1.68-5l-1-.36c-1-.39-1.8-.66-1.8-2a2,2,0,0,1,2.1-1.89c1.35,0,2.34,1.32,2.34,3.09a11,11,0,0,1-2.61,6.51ZM524.75,159a2,2,0,0,1,2.13,2,2,2,0,0,1-2.16,2.1,2,2,0,0,1-2.1-2.07A2.07,2.07,0,0,1,524.75,159Zm9,0a2,2,0,0,1,2.13,2,2,2,0,0,1-2.16,2.1,2,2,0,0,1-2.1-2.07A2.07,2.07,0,0,1,533.75,159Zm9,0a2,2,0,0,1,2.13,2,2,2,0,0,1-2.16,2.1,2,2,0,0,1-2.1-2.07A2.07,2.07,0,0,1,542.75,159Zm14.13-17.25,1.35,14.82h1.38L561,140.27l-.6-.27ZM559.07,159a2,2,0,0,1,2.13,2,2,2,0,0,1-2.16,2.1,2,2,0,0,1-2.1-2.07A2.07,2.07,0,0,1,559.07,159Zm15.78-7.11a2,2,0,0,1-2.13-2,2,2,0,0,1,2.16-2.1,2,2,0,0,1,2.1,2.07A2.07,2.07,0,0,1,574.85,151.88ZM577,169.13l-1.35-14.82h-1.38L573,170.6l.6.27Zm24.18-17.46-1.14,4h5.28V157h-5.67l-2.19,7.74h-1.74l2.19-7.74h-4.86l-2.19,7.74h-1.74l2.19-7.74h-3.78v-1.32h4.17l1.14-4h-5.31v-1.32h5.67l2.19-7.68h1.74L595,150.35h4.86l2.19-7.68h1.74l-2.19,7.68h3.78v1.32Zm-1.74,0h-4.86l-1.14,4h4.86Z"/><text class="cls-2" transform="translate(32 198.8)">. ? ¿ &quot; &apos; ; / _ { } [ ] ( ) « » ‹ › „ “ ” ‘ ’ ‚Á á Ă </text><text class="cls-2" transform="translate(32 234.8)">ă Â â Ä ä Ạ À à Ā ā Ą ą Å å Ǻ ǻ Ã ã Ć ć Č </text><text class="cls-2" transform="translate(32 270.8)">č Ç ç Ĉ ĉ Ċ ċ Ď ď Đ É é Ĕ ĕ Ě ě Ê ê Ë ë Ė ė </text><text class="cls-2" transform="translate(32 306.8)">Ẹ ẹ È è Ẽ ẽ Ē ē Ę ę Ğ ğ Ǧ ǧ Ĝ ĝ Ģ ģ Ġ ġ Ħ </text><text class="cls-2" transform="translate(32 342.8)">ħ Ĥ ĥ Í í Ĭ ĭ Î î Ï ï İ Ị ị Ì ì Ī ī Į į Ĩ ı Ĵ ĵ ȷ Ķ ķ ĸ </text><text class="cls-2" transform="translate(32 378.8)">Ĺ ĺ Ľ ľ Ļ ļ Ŀ ŀ Ń ń ŉ Ň ň Ņ ņ Ñ ñ Ŋ ŋ Ɲ ɲ </text><text class="cls-2" transform="translate(32 414.8)">Ó ó Ŏ ŏ Ô ô Ö ö Ọ ọ Ò ò Ő ő Ō ō Ǫ ǫ Ø </text><text class="cls-2" transform="translate(32 450.8)">ø Ǿ ǿ Õ õ Ŕ ŕ </text><text class="cls-2" transform="translate(227.12 450.8)">Ř</text><text class="cls-2" transform="translate(247.01 450.8)"> </text><text class="cls-2" transform="translate(255.41 450.8)">ř</text><text class="cls-2" transform="translate(268.97 450.8)"> </text><text class="cls-2" transform="translate(277.37 450.8)">Ŗ</text><text class="cls-2" transform="translate(297.26 450.8)"> </text><text class="cls-2" transform="translate(305.66 450.8)">ŗ</text><text class="cls-2" transform="translate(319.22 450.8)"> </text><text class="cls-2" transform="translate(327.62 450.8)">Ś</text><text class="cls-2" transform="translate(343.19 450.8)"> </text><text class="cls-2" transform="translate(351.59 450.8)">ś</text><text class="cls-2" transform="translate(364.76 450.8)"> </text><text class="cls-2" transform="translate(373.16 450.8)">Š</text><text class="cls-2" transform="translate(388.73 450.8)"> </text><text class="cls-2" transform="translate(397.13 450.8)">š</text><text class="cls-2" transform="translate(410.3 450.8)"> </text><text class="cls-2" transform="translate(418.7 450.8)">Ş</text><text class="cls-2" transform="translate(434.27 450.8)"> </text><text class="cls-2" transform="translate(442.67 450.8)">ş</text><text class="cls-2" transform="translate(455.84 450.8)"> </text><text class="cls-2" transform="translate(464.24 450.8)">Ŝ</text><text class="cls-2" transform="translate(479.81 450.8)"> </text><text class="cls-2" transform="translate(488.21 450.8)">ŝ</text><text class="cls-2" transform="translate(501.38 450.8)"> </text><text class="cls-2" transform="translate(509.78 450.8)">Ș</text><text class="cls-2" transform="translate(525.35 450.8)"> </text><text class="cls-2" transform="translate(533.75 450.8)">ș</text><text class="cls-2" transform="translate(546.92 450.8)"> </text><text class="cls-2" transform="translate(555.32 450.8)">ẞ</text><text class="cls-2" transform="translate(579.11 450.8)"> </text><text class="cls-2" transform="translate(587.51 450.8)">ß</text><text class="cls-2" transform="translate(608.21 450.8)"> </text><text class="cls-2" transform="translate(32 486.8)">Ŧ</text><text class="cls-2" transform="translate(51.02 486.8)"> </text><text class="cls-2" transform="translate(59.42 486.8)">ŧ</text><text class="cls-2" transform="translate(71.15 486.8)"> </text><text class="cls-2" transform="translate(79.55 486.8)">Ť</text><text class="cls-2" transform="translate(98.57 486.8)"> </text><text class="cls-2" transform="translate(106.97 486.8)">ť</text><text class="cls-2" transform="translate(118.7 486.8)"> </text><text class="cls-2" transform="translate(127.1 486.8)">Ţ</text><text class="cls-2" transform="translate(146.12 486.8)"> </text><text class="cls-2" transform="translate(154.52 486.8)">ţ</text><text class="cls-2" transform="translate(166.25 486.8)"> </text><text class="cls-2" transform="translate(174.65 486.8)">Ț</text><text class="cls-2" transform="translate(193.67 486.8)"> </text><text class="cls-2" transform="translate(202.07 486.8)">ț</text><text class="cls-2" transform="translate(213.8 486.8)"> </text><text class="cls-2" transform="translate(222.2 486.8)">Ð</text><text class="cls-2" transform="translate(246.41 486.8)"> </text><text class="cls-2" transform="translate(254.81 486.8)">ð</text><text class="cls-2" transform="translate(272.12 486.8)"> </text><text class="cls-2" transform="translate(280.52 486.8)">Þ</text><text class="cls-2" transform="translate(298.61 486.8)"> </text><text class="cls-2" transform="translate(307.01 486.8)">þ</text><text class="cls-2" transform="translate(325.58 486.8)"> </text><text class="cls-2" transform="translate(333.98 486.8)">Ú</text><text class="cls-2" transform="translate(357.59 486.8)"> </text><text class="cls-2" transform="translate(365.99 486.8)">ú</text><text class="cls-2" transform="translate(384.17 486.8)"> </text><text class="cls-2" transform="translate(392.57 486.8)">Ŭ</text><text class="cls-2" transform="translate(416.18 486.8)"> </text><text class="cls-2" transform="translate(424.58 486.8)">ŭ</text><text class="cls-2" transform="translate(442.76 486.8)"> </text><text class="cls-2" transform="translate(451.16 486.8)">Û</text><text class="cls-2" transform="translate(474.77 486.8)"> </text><text class="cls-2" transform="translate(483.17 486.8)">û</text><text class="cls-2" transform="translate(501.35 486.8)"> </text><text class="cls-2" transform="translate(509.75 486.8)">Ü</text><text class="cls-2" transform="translate(533.36 486.8)"> </text><text class="cls-2" transform="translate(541.76 486.8)">ü</text><text class="cls-2" transform="translate(559.94 486.8)"> </text><text class="cls-2" transform="translate(568.34 486.8)">Ụ</text><text class="cls-2" transform="translate(591.95 486.8)"> </text><text class="cls-2" transform="translate(32 522.8)">ụ</text><text class="cls-2" transform="translate(50.18 522.8)"> </text><text class="cls-2" transform="translate(58.58 522.8)">Ù</text><text class="cls-2" transform="translate(82.19 522.8)"> </text><text class="cls-2" transform="translate(90.59 522.8)">ù</text><text class="cls-2" transform="translate(108.77 522.8)"> </text><text class="cls-2" transform="translate(117.17 522.8)">Ű</text><text class="cls-2" transform="translate(140.78 522.8)"> </text><text class="cls-2" transform="translate(149.18 522.8)">ű</text><text class="cls-2" transform="translate(167.36 522.8)"> </text><text class="cls-2" transform="translate(175.76 522.8)">Ū</text><text class="cls-2" transform="translate(199.37 522.8)"> </text><text class="cls-2" transform="translate(207.77 522.8)">ū</text><text class="cls-2" transform="translate(225.95 522.8)"> </text><text class="cls-2" transform="translate(234.35 522.8)">Ų</text><text class="cls-2" transform="translate(257.96 522.8)"> </text><text class="cls-2" transform="translate(266.36 522.8)">ų</text><text class="cls-2" transform="translate(284.54 522.8)"> </text><text class="cls-2" transform="translate(292.94 522.8)">Ů</text><text class="cls-2" transform="translate(316.55 522.8)"> </text><text class="cls-2" transform="translate(324.95 522.8)">ů</text><text class="cls-2" transform="translate(343.13 522.8)"> </text><text class="cls-2" transform="translate(351.53 522.8)">Ũ</text><text class="cls-2" transform="translate(375.14 522.8)"> </text><text class="cls-2" transform="translate(383.54 522.8)">ũ</text><text class="cls-2" transform="translate(401.72 522.8)"> </text><text class="cls-2" transform="translate(410.12 522.8)">Ẃ</text><text class="cls-2" transform="translate(441.65 522.8)"> </text><text class="cls-2" transform="translate(450.05 522.8)">ẃ</text><text class="cls-2" transform="translate(472.67 522.8)"> </text><text class="cls-2" transform="translate(481.07 522.8)">Ŵ</text><text class="cls-2" transform="translate(512.6 522.8)"> </text><text class="cls-2" transform="translate(521 522.8)">ŵ</text><text class="cls-2" transform="translate(543.62 522.8)"> </text><text class="cls-2" transform="translate(552.02 522.8)">Ẅ</text><text class="cls-2" transform="translate(583.55 522.8)"> </text><text class="cls-2" transform="translate(32 558.8)">ẅ</text><text class="cls-2" transform="translate(54.62 558.8)"> </text><text class="cls-2" transform="translate(63.02 558.8)">Ẁ</text><text class="cls-2" transform="translate(94.55 558.8)"> </text><text class="cls-2" transform="translate(102.95 558.8)">ẁ</text><text class="cls-2" transform="translate(125.57 558.8)"> </text><text class="cls-2" transform="translate(133.97 558.8)">Ý</text><text class="cls-2" transform="translate(154.01 558.8)"> </text><text class="cls-2" transform="translate(162.41 558.8)">ý</text><text class="cls-2" transform="translate(178.34 558.8)"> </text><text class="cls-2" transform="translate(186.74 558.8)">Ŷ</text><text class="cls-2" transform="translate(206.78 558.8)"> </text><text class="cls-2" transform="translate(215.18 558.8)">ŷ</text><text class="cls-2" transform="translate(231.11 558.8)"> </text><text class="cls-2" transform="translate(239.51 558.8)">Ÿ</text><text class="cls-2" transform="translate(259.55 558.8)"> </text><text class="cls-2" transform="translate(267.95 558.8)">ÿ</text><text class="cls-2" transform="translate(283.88 558.8)"> </text><text class="cls-2" transform="translate(292.28 558.8)">Ỳ</text><text class="cls-2" transform="translate(312.32 558.8)"> </text><text class="cls-2" transform="translate(320.72 558.8)">ỳ</text><text class="cls-2" transform="translate(336.65 558.8)"> </text><text class="cls-2" transform="translate(345.05 558.8)">Ȳ</text><text class="cls-2" transform="translate(365.09 558.8)"> </text><text class="cls-2" transform="translate(373.49 558.8)">ȳ</text><text class="cls-2" transform="translate(389.42 558.8)"> </text><text class="cls-2" transform="translate(397.82 558.8)">Ỹ</text><text class="cls-2" transform="translate(417.86 558.8)"> </text><text class="cls-2" transform="translate(426.26 558.8)">ỹ</text><text class="cls-2" transform="translate(442.19 558.8)"> </text><text class="cls-2" transform="translate(450.59 558.8)">Ĳ</text><text class="cls-2" transform="translate(476.42 558.8)"> </text><text class="cls-2" transform="translate(484.82 558.8)">ĳ</text><text class="cls-2" transform="translate(503.75 558.8)"><tspan xml:space="preserve">  </tspan></text><text class="cls-2" transform="translate(520.55 558.8)">Ź</text><text class="cls-2" transform="translate(538.55 558.8)"> </text><text class="cls-2" transform="translate(546.95 558.8)">ź</text><text class="cls-2" transform="translate(560.33 558.8)"> </text><text class="cls-2" transform="translate(568.73 558.8)">Ž</text><text class="cls-2" transform="translate(586.73 558.8)"> </text><text class="cls-2" transform="translate(595.13 558.8)">ž</text><text class="cls-2" transform="translate(608.51 558.8)"> </text><text class="cls-2" transform="translate(32 594.8)">Ż</text><text class="cls-2" transform="translate(50 594.8)"> </text><text class="cls-2" transform="translate(58.4 594.8)">ż</text><text class="cls-2" transform="translate(71.78 594.8)"> </text><text class="cls-2" transform="translate(80.18 594.8)">Ə</text><text class="cls-2" transform="translate(102.02 594.8)"> </text><text class="cls-2" transform="translate(110.42 594.8)">ə</text><text class="cls-2" transform="translate(126.26 594.8)"> </text><text class="cls-2" transform="translate(134.66 594.8)">Æ</text><text class="cls-2" transform="translate(162.14 594.8)"> </text><text class="cls-2" transform="translate(170.54 594.8)">æ</text><text class="cls-2" transform="translate(195.17 594.8)"> </text><text class="cls-2" transform="translate(203.57 594.8)">Ǽ</text><text class="cls-2" transform="translate(231.05 594.8)"> </text><text class="cls-2" transform="translate(239.45 594.8)">ǽ</text><text class="cls-2" transform="translate(264.08 594.8)"> </text><text class="cls-2" transform="translate(272.48 594.8)">Œ</text><text class="cls-2" transform="translate(306.47 594.8)"> </text><text class="cls-2" transform="translate(314.87 594.8)">œ</text></svg>