<svg id="Layer_1" data-name="Layer 1" xmlns="http://www.w3.org/2000/svg" viewBox="0 0 640 640"><defs><style>.cls-1{fill:#fff;}</style></defs><title>3</title><rect width="640" height="640"/><path class="cls-1" d="M85.24,66v1.44H72.18V66l4.42-1.15L73,55.67H60.85l-3.26,9.22L62,66v1.44H51.68V66L54.95,65l11-30.1,3.7-1.49L82,65.18ZM72.13,53.37l-5.42-14-5,14Z"/><path class="cls-1" d="M124.5,58c0,6.38-5.09,9.46-11.81,9.46H98.82V66l3.46-1V36.32l-4.27-1V33.88h13.06c7.1,0,10.7,2.74,10.7,7.1a8.14,8.14,0,0,1-5.14,7.68v.24C119.65,49.72,124.5,52.36,124.5,58ZM107.32,36.37v11.9h6.34c.53,0,3.12-1.58,3.12-5.86,0-5.14-2.64-6.72-6-6.72a17.62,17.62,0,0,0-3,.58Zm12.19,22.75c0-5.47-3.07-8.69-9.22-8.69h-3v14.4l1.34.24a34.35,34.35,0,0,0,4,.48C115.43,65.56,119.51,64.36,119.51,59.13Z"/><path class="cls-1" d="M170,58.55,168.37,66c-2,1.15-6.53,2-11.42,2-11.19,0-18.39-6.77-18.39-17.28,0-9.07,7.25-17.28,18.29-17.28a34.36,34.36,0,0,1,12.34,2.11L168.76,44H167l-2.74-6.58a13.6,13.6,0,0,0-7-1.92c-8.64,0-13.54,5.71-13.3,14.79.24,8.64,5.38,15.31,12.72,15.31a13,13,0,0,0,7.1-1.87l4.37-5.14Z"/><path class="cls-1" d="M218.53,50c0,9.65-5.66,17.52-17.52,17.52H185.07V66l4-1.2V36.52l-4.75-1.2V33.88h16.42C210.9,33.88,218.53,40,218.53,50Zm-5.42,1.87c0-10.27-6.34-15.79-13.87-15.79a25.43,25.43,0,0,0-4.13.53l-1,.14V64.5l1.58.24a37.28,37.28,0,0,0,4.85.58C207.92,65.32,213.11,61.43,213.11,51.83Z"/><path class="cls-1" d="M256.74,60.18l-1.2,7.3H232.79V66L237,65V36.37l-4.22-1.06V33.88h23.09l-1.15,7.39H253l-1.44-5.38H246a8.45,8.45,0,0,0-2.78.48L242,36.8V49.48h8.59l1-3.46h1.73V56h-1.73l-.86-4.32H242v13l10,1.06L255,60.18Z"/><path class="cls-1" d="M292.55,41.27h-1.73L289.33,36h-6a7.47,7.47,0,0,0-2.3.38l-1.2.38V49.48H287l1.1-3h1.73V57h-1.73l-1.25-5.38h-7.06v13.3l5.23,1.1v1.44H271.19V66l3.6-1V36.42l-4.37-1.1V33.88h23.14Z"/><path class="cls-1" d="M343.14,52.21l-3.6,1.06V65.42C336.9,67,331.38,68,326.87,68,315,68,308,61.29,308,50.68c0-7.2,5.47-17.28,18.87-17.28a38.68,38.68,0,0,1,12.48,2L338.82,44h-1.63l-2.5-6.1a12.18,12.18,0,0,0-7.63-2.4c-9.12,0-13.92,5.76-13.63,14.83.34,9.84,7.63,15.41,14.5,15.41,2.78,0,5.23-.38,6.58-2.5V53.27l-4.75-1.06V50.82h13.39ZM336.51,40l-.43-.67Z"/><path class="cls-1" d="M388.55,36.32V65l4.18,1v1.44H379.33V66l4.18-1V50.82h-18V65l4.18,1v1.44H356.24V66l4.18-1V36.32l-4.18-1V33.88h13.39v1.44l-4.18,1v12h18v-12l-4.18-1V33.88h13.39v1.44Z"/><path class="cls-1" d="M415.81,36.32V65L420,66v1.44H406.59V66l4.18-1V36.32l-4.18-1V33.88H420v1.44Z"/><path class="cls-1" d="M454.07,35.32l-4.66,1.06V55.62c0,7.49-3.94,12.34-10,12.34a11.94,11.94,0,0,1-7.68-2.59V58.55h1.44l2.93,6a4.52,4.52,0,0,0,3.12,1.25c3.31,0,5.14-2.78,5.14-8.69V36.37l-4.66-1.06V33.88h14.35Z"/><path class="cls-1" d="M476.43,65l4.18,1v1.44H467.21V66l4.18-1V36.32l-4.18-1V33.88h13.39v1.44l-4.18,1ZM498,66v1.44H490.4L477.73,50.05l11.86-13.59-3.31-1.15V33.88h10.51v1.44l-4.22,1.15-10.32,12.1,13.3,16.71Z"/><path class="cls-1" d="M533.84,58.84l-1.25,8.64h-22.8V66l3.79-1V36.42l-4.27-1.1V33.88h13.25v1.44l-3.94,1.06V64.6l10.51.82,3.36-6.58Z"/><path class="cls-1" d="M590,66v1.44H576.37V66L580.54,65l-3-23.67L566.53,68H565L553.71,41.61l-3,23.14,5.9,1.3v1.44H543.87V66l4.42-1.34,3.65-28.32-3.65-1.06V33.88h7.39l11.38,26.88,11-26.88h7.34v1.44l-3.65,1.06L585.54,65Z"/><path class="cls-1" d="M78.57,93.3l-4.13,1.2v31.44H72.18L49.81,97.72l0,24.82L56.68,124v1.44h-14V124l4.61-1.2v-28L42.71,93.3V91.86h9.41L71.94,117.3l0-22.56L65.56,93.3V91.86h13Zm13,15.36c0-7.25,5.33-17.28,17.86-17.28,13.11,0,17.86,9.36,17.86,17.28,0,7.25-5.33,17.28-17.86,17.28C96.32,125.94,91.57,116.58,91.57,108.66Zm30.24.86c.1-9.6-5.86-15.75-13-15.75S97.14,98.63,97,107.8c-.1,9.6,5.86,15.75,13,15.75S121.72,118.7,121.81,109.53Zm40.27-8.64c0-5.33-3.6-7-7.49-7a12.6,12.6,0,0,0-2.59.29l-1.2.19V123l5.47,1.06v1.44h-15V124l4.46-1.15V94.5l-5.09-1.2V91.86h14.26c8,0,12.39,3.7,12.39,8.54,0,6.62-4.9,10.9-11.52,10.9a8.05,8.05,0,0,1-2.11-.19l.38-1.58a4,4,0,0,0,1,.1C159.25,109.62,162.08,106.6,162.08,100.89Zm65.28,31.63V134l-6.82.67-18.15-9.12a19.68,19.68,0,0,1-4.22.43c-13.11,0-17.86-9.36-17.86-17.28,0-7.25,5.33-17.28,17.86-17.28,13.11,0,17.86,9.36,17.86,17.28A17.6,17.6,0,0,1,206.77,124Zm-30.82-9.17,2.16-2.69,4.8,2c4.27-1.78,7-6.24,7.06-13.11.1-9.6-5.86-15.75-13-15.75s-11.71,4.85-11.81,14C185.7,116.39,190.45,122.2,196.55,123.35Zm100.9,11.14c-12.29,8-24.91,1-41.57-7.34l-3.26-1.63a19.37,19.37,0,0,1-4.22.43c-13.11,0-17.86-9.36-17.86-17.28,0-7.25,5.33-17.28,17.86-17.28,13.11,0,17.86,9.36,17.86,17.28a17.61,17.61,0,0,1-9.65,15.55,166,166,0,0,0,20,7.58c9,2.59,17.23,3.31,20,1.87Zm-50.69-11.14,2.16-2.69c1.49.72,3,1.39,4.51,2.11,4.46-1.73,7.25-6.19,7.34-13.25.1-9.6-5.86-15.75-13-15.75s-11.71,4.85-11.81,14C235.91,116.39,240.66,122.2,246.76,123.35Zm64.08.67v1.44h-7.06l-9.6-15h-4.9V123l5.47,1.06v1.44h-15V124l4.46-1.1V94.45l-5.09-1.15V91.86h14.26c7.54,0,11.91,3.7,11.91,8.06a10.28,10.28,0,0,1-6.29,9.7l10,13.83Zm-17.67-15.6c5.18,0,6.91-2.35,6.91-7.54,0-4.27-2.74-7-7-7a12.6,12.6,0,0,0-2.59.29l-1.2.19v13.78A20.3,20.3,0,0,0,293.17,108.42ZM342,116.34c0,6.48-5.09,9.6-11.52,9.6a22.21,22.21,0,0,1-8.78-1.68v-7.54h1.73l2.26,5.57a7.26,7.26,0,0,0,4.9,1.49c4.42,0,6.58-1.68,6.58-5.18,0-8.3-15.65-9.26-15.65-19.11,0-4.27,3.07-8.11,10.51-8.11A24.68,24.68,0,0,1,340,92.63l-.53,6.62h-1.73l-1.87-5.09a10.78,10.78,0,0,0-3.89-.62c-3.7,0-5.57,1.58-5.57,4.61C326.39,105.11,342,107.41,342,116.34ZM371.7,94.12V123l5.14,1.06v1.44H362.48V124l4.18-1.06V94.12L359,94.5l-3.31,5.28h-1.44l.72-7.92h28l.72,7.92h-1.44l-3.31-5.28Zm58.66-.91-4.18,1.15,0,16.51c0,9.26-4.42,15.07-13.78,15.07-9,0-13.3-4.37-13.3-13.63V94.21l-4.32-1V91.86h13.87V93.2l-4.51,1.06v18.53c0,7.34,3.74,10.61,10.32,10.61s8.88-4.51,8.88-12.48V94.41l-4.37-1.2V91.86h11.42Zm45.94.1-3.26.91L460.5,125.94h-2.69L444.85,94l-3.7-.72V91.86h14.11V93.3L451,94.5l9.6,25.06,9.79-25.11-4.94-1.15V91.86h10.85Zm60,0-3.55.82-8.69,31.83h-2.59l-10.7-26-10.7,26h-2.59l-8.16-31.83-3.46-.82V91.86h14.45V93.3l-5.42,1.25,5.71,24.19,11-27.36h1.44l10.7,27.17,6.34-24H530l-5.09-1.3V91.86h11.47Zm62.45,0-4.85,1.1-10.46,31.54h-2.69l-8.54-25.06-9.36,25.06h-2.69l-9.74-31.59-4.51-1.06V91.86h14.45V93.3l-4.46,1,7.15,24.58,8-21.46L570,94.26l-4.18-1V91.86h14.21V93.3l-4.22,1L583.48,119l7.92-24.63-4.08-1.06V91.86h11.47Z"/><path class="cls-1" d="M69.93,182v1.44H56.53V182l3.41-.82-7.73-11.86-7.44,11.38L48.9,182v1.44H36.27V182l5.42-1.15,9-13.83L41,152.25l-4.37-1v-1.44H50.53v1.44l-3.6.91,7.15,11,6.86-10.56L57,151.29v-1.44h12v1.44l-4.94,1.1-8.54,13.1,10,15.46Z"/><path class="cls-1" d="M98.34,169v11.67l4.61.86v1.92H89.12v-1.92l4.18-.77v-10.9L83.36,152.1l-3.31-.82v-1.44H92.34v1.44l-3.17.91,7.92,14.31,7.68-14.16-2.83-1.06v-1.44h10.18v1.44l-4.7,1.25Z"/><path class="cls-1" d="M149.17,174.9l-1.39,8.54H123.11v-1l19-30.48-14.55.62,0,0-2.4,4.61h-1.63l1.25-7.44h24v1L129.68,181l15.12-.91,2.74-5.23Z"/><path class="cls-1" d="M185.41,180.62v1.25l-6.58,1.58h-1.25l-.72-3.6c-3.5,2.59-5.81,4.08-8.88,4.08s-5.71-2-5.71-5.38c0-2.88,1.58-4.9,6.1-6.34l8.26-2.59v-.34c0-3.84-1.78-6.86-5.09-6.86a4.47,4.47,0,0,0-3.65,1.63l-1,4.66H165l-1.2-4.75a13.81,13.81,0,0,1,9.26-3.79c4.18,0,8.21,1.82,8.21,8.31v10.9Zm-15,.72c1.87,0,3.74-1.58,6.24-3.41v-6.24l-6,2c-2.45.86-3.6,2.69-3.6,4.37A3.1,3.1,0,0,0,170.39,181.34Z"/><path class="cls-1" d="M221.89,171.3c0,7.68-5.33,12.63-11.42,12.63-3.55,0-5.62-.91-7-2l-1.68,2h-1.34V151.29l-4.18-1.15v-1.25l7.54-1.92h1.25v16.13a11,11,0,0,1,7.39-2.93C218,160.17,221.89,164.68,221.89,171.3Zm-4.8,1.63c0-5.86-2.88-9.94-6.67-9.94a7.85,7.85,0,0,0-5.33,2.5V175c0,4.8,3.07,6.82,6.14,6.82C214.93,181.86,217.09,178.5,217.09,172.94Z"/><path class="cls-1" d="M256.35,181c-1.78,1.92-4.42,2.88-8.16,2.88-7.82,0-11.52-6.1-11.52-11.47,0-7.3,5.23-12.29,11.76-12.29a16,16,0,0,1,7.2,1.87v6.24h-1.92l-3.6-5.66c-4.61-1.68-8.74,1.87-8.74,8.59A9.49,9.49,0,0,0,251,181a7.42,7.42,0,0,0,4.51-1.15Z"/><path class="cls-1" d="M296,180.62v1.25l-6.48,1.58h-1.25l-.62-3.07a10.26,10.26,0,0,1-7.68,3.55c-6.1,0-9.55-4.94-9.55-11.19,0-8.06,5.23-12.58,11.62-12.58a12.46,12.46,0,0,1,5.18,1v-9.84L283,150.13v-1.25l7.54-1.92h1.25v32.4Zm-8.79-2.3v-9.5c0-4-2-6.43-5.33-6.43-3.17,0-6.77,2.88-6.77,9.07,0,7,3.46,9.65,6.91,9.65A7.18,7.18,0,0,0,287.22,178.31Z"/><path class="cls-1" d="M327.25,179.85l.86,1.2c-1.73,1.73-4.22,2.88-8.16,2.88-8.69,0-11.62-7.2-11.62-11.28,0-7.44,5-12.48,11.62-12.48,5.52,0,8.88,3.46,8.93,8.31l-1.3,2.3H313.28v.34c0,6.29,4,9.89,9.46,9.89A7.9,7.9,0,0,0,327.25,179.85Zm-13.83-11,10.8-.14c0-4-2.54-6.29-5.33-6.29C316.78,162.37,314.1,164.29,313.42,168.81Z"/><path class="cls-1" d="M351.58,159.49v1.15h8v1.25l-3.79,1.58-4.22-.34V181l5.09,1.2v1.25H343V182.2l3.94-1.06V162.76l-3.94-.29v-1.82H347c0-8.11,4-13.68,10.42-13.68a6.92,6.92,0,0,1,4.22,1.2l-1.15,4.66h-1.63l-1.49-3.65a3.9,3.9,0,0,0-.77,0C352.3,149.13,351.58,153.83,351.58,159.49Z"/><path class="cls-1" d="M395.41,163.24h-5a7.57,7.57,0,0,1,1.82,5c0,3.36-2.88,8.06-9.84,8.06a14.06,14.06,0,0,1-3.36-.38l-2.54,4.94h10c5.81,0,8.83,2.74,8.83,6.82,0,3.41-2.4,8.74-11.76,8.74-8.59,0-11.47-5.18-11.86-8.78l3.36-3.07-2.69-4,5-5.14a7.6,7.6,0,0,1-4.9-7.15c0-3.31,2.93-8.06,9.89-8.06a11.37,11.37,0,0,1,6.38,1.63l5.86-2.5h.82Zm-9.65,22.18h-9.07l-.72.91c-.14,4,4,7.78,9.79,7.78,3.79,0,5.86-1.63,5.86-4.51C391.62,187,389.79,185.42,385.76,185.42Zm1.73-16.9c0-3.89-2.5-6.34-5.42-6.34s-4.9,2-4.9,5.81,2.5,6.29,5.42,6.29S387.49,172.26,387.49,168.52Z"/><path class="cls-1" d="M435.78,182.1v1.34H423.3V182.1l3.94-.91v-12c0-3.7-1.68-5.62-4.13-5.62-2,0-4.9,1.68-7,3.07v14.54l3.94.91v1.34H407.55V182.1l3.94-.91V151.29l-4.18-1.15v-1.25l7.54-1.92h1.25V164.2l2.21-1.39c2.54-1.58,4.7-2.64,6.86-2.64,4.18,0,6.67,3.6,6.67,8v13.06Z"/><path class="cls-1" d="M460.88,182.2v1.25H448.4V182.2l3.94-1.06V164.29l-3.94-1.06V162l7.3-1.82h1.25v21Zm-9.22-29.91a2.82,2.82,0,0,1,2.88-2.78,2.76,2.76,0,1,1,0,5.52A2.66,2.66,0,0,1,451.66,152.29Z"/><path class="cls-1" d="M480.7,160.17H482v20.07c0,11.28-2.69,14.79-9.46,16l-.34-1.49c4.61-1.3,5.18-3.31,5.18-9.41V164.68l-4.66-1.25v-1.25Zm-4.13-7.87a3,3,0,0,1,3-2.93,2.91,2.91,0,1,1-3,2.93Z"/><path class="cls-1" d="M506.09,181.14l4.18,1v1.34H497.79V182.1l3.7-.86v-30l-4.18-1.15v-1.25l7.54-1.92h1.25Zm18.19,1.06v1.25h-6.77l-10.13-13.54,9.31-6.24-4.7-1.78v-1.25h10.56v1.25l-10.75,7.25,10.32,12.29Z"/><path class="cls-1" d="M548.53,182.2v1.25H536V182.2l3.7-.86V151.29l-4.18-1.15v-1.25L543.1,147h1.25v34.27Z"/><path class="cls-1" d="M604,182.2v1.25H592V182.2l3.5-1V169.67c0-4.18-1.25-6.1-3.41-6.1s-4.9,1.49-7,2.83a10.53,10.53,0,0,1,.14,1.73v13.06l3.5,1v1.25h-12V182.2l3.94-1.06v-12c0-3.7-1.68-5.62-4.13-5.62-2,0-4.9,1.63-7,3v14.55l3.94,1.06v1.25H560.91V182.2l3.94-1.06V164.29l-3.94-1.06V162l6.82-1.82h1.15l.38,4.13,2.4-1.49c2.54-1.58,4.7-2.64,6.86-2.64a6.39,6.39,0,0,1,6,4.22l2.5-1.58c2.54-1.58,4.7-2.64,6.63-2.64,3.94,0,6.43,3.36,6.43,8.45v12.53Z"/><path class="cls-1" d="M79.62,240.18v1.25H67.14v-1.25l3.94-1.06v-12c0-3.7-1.68-5.62-4.13-5.62-2,0-4.9,1.68-7,3.07v14.5l3.94,1.06v1.25H51.4v-1.25l3.94-1.06V222.28l-3.94-1.06V220l6.82-1.82h1.15l.38,4.13,2.4-1.49c2.54-1.58,4.7-2.64,6.86-2.64,4.18,0,6.67,3.6,6.67,8v13Z"/><path class="cls-1" d="M92.53,230.05c0-4.9,3.55-11.91,11.71-11.91,6.72,0,11.76,4.27,11.76,11.43,0,6.77-3.74,12.34-11.67,12.34C95.84,241.91,92.53,235.58,92.53,230.05Zm18.48.38c0-6.67-3.31-10.22-7-10.22-3.84,0-6.53,3-6.53,9,0,6.43,3.17,10.61,7.54,10.61C108.23,239.85,111,237.59,111,230.44Z"/><path class="cls-1" d="M154.79,229.33c0,8.06-5.23,12.58-11.62,12.58a12.47,12.47,0,0,1-5.18-1v10.56l5.14,1.15v1.25H129.2v-1.25l4.18-1.2V222.71l-4.18-1.25v-1.25l6.48-1.58h1.25l.62,3.07a10.26,10.26,0,0,1,7.68-3.55C151.33,218.15,154.79,223.09,154.79,229.33Zm-4.7,1.3c0-7-3.46-9.65-6.91-9.65a7.18,7.18,0,0,0-5.18,2.78v9.5c0,4,2,6.43,5.33,6.43C146.48,239.7,150.08,236.82,150.08,230.63Z"/><path class="cls-1" d="M196,252.66v1.25H182.1v-1.25l5.14-1.2V239a11,11,0,0,1-7.39,2.93c-5.52,0-9.41-4.51-9.41-11.14,0-7.68,5.33-12.63,11.43-12.63,3.55,0,5.62.91,7,2l1.68-2h1.34v33.46Zm-8.78-16.08v-9.46c0-4.8-3.07-6.82-6.19-6.82-3.65,0-5.81,3.26-5.81,8.83,0,5.86,2.88,9.94,6.67,9.94A7.85,7.85,0,0,0,187.24,236.58Z"/><path class="cls-1" d="M226.93,219.83,225.16,226h-1.82l-1.73-4.08c-1.1.24-2.69,1.15-4.9,2.83V239l5.62,1.06v1.34H208.16v-1.34l3.94-.91v-16.9l-3.94-1.06V220l6.82-1.87h1.15l.43,4.42,1.58-1.2c2.3-1.78,4.22-3.22,5.86-3.22A3.08,3.08,0,0,1,226.93,219.83Z"/><path class="cls-1" d="M256.59,235.1c0,3.7-3.74,6.82-8.59,6.82a14.49,14.49,0,0,1-7.68-1.92v-5.47H242l2.3,4.27a8.66,8.66,0,0,0,4,1.1c3.36,0,4.46-1.78,4.46-3.17,0-5-12.39-4.56-12.39-11.76,0-3.41,2.3-6.82,8.26-6.82a12.47,12.47,0,0,1,6.58,1.68l-.34,4.61h-1.58l-1.73-3.5a7.75,7.75,0,0,0-3.26-.77c-2.78,0-4.22,1.58-4.22,3.22C244.07,227.94,256.59,227.65,256.59,235.1Z"/><path class="cls-1" d="M278.15,221v13.25c0,3.31,1.44,4.9,3.5,4.9a8.76,8.76,0,0,0,4.32-1l.48,1.25a10.17,10.17,0,0,1-6.91,2.5c-2.93,0-6-1.54-6-6.72v-14.5l-4.66-.34v-1.73h4.66l2.78-7.2h1.82v7.2h8.5v1.25l-3.26,1.49Z"/><path class="cls-1" d="M325.38,238.6v1.25l-6.58,1.58h-1.25L317,238c-2.54,2.4-5,3.89-7.73,3.89-5.14,0-7.39-3.6-7.39-8V222.42l-4.18-1.15V220l7.54-1.87h1.25v15.12c0,3.65,1.63,5.71,4.22,5.71a7.79,7.79,0,0,0,5.9-3.22V222.42l-4.18-1.15V220l7.54-1.87h1.25v19.2Z"/><path class="cls-1" d="M361.81,219.88l-3.41,1.44-8.69,20.59h-2.64l-9.31-21-2.69-1v-1.25h11.38v1.25l-3.6,1.15,6.72,16,6.62-15.84-3.12-1.3v-1.25h8.74Z"/><path class="cls-1" d="M407.17,219.88l-2.83,1.25-6.67,20.79h-2.78l-6.24-16-7.3,16h-2.69l-5.71-21-2.93-1v-1.25h11.86v1.25L378,221.13l3.74,15.12,7.82-17.62h1.2l6.63,17.71,4.66-15-3.65-1.49v-1.25h8.74Z"/><path class="cls-1" d="M440.77,240.18v1.25H430.11v-1.25l2.45-1-5-7.1-5,6.77,2.69,1.3v1.25h-8.59v-1.25l3.31-1.1,6.48-8.64-6.87-9.79-2.54-.77v-1.25h10.51v1.25l-2.45.82,4.61,6.62,4.61-6.19-2.78-1.25v-1.25h8v1.25l-2.59,1.06-6,8.06,7.3,10.42Z"/><path class="cls-1" d="M476.34,219.88l-3.26,1.2L460,254.39H455.5v-1.25L462,243.4l.29-.67-10-22.08-2.26-.77v-1.25h11.14v1.25l-3.55,1,7,16.08,6.34-16-3.12-1.1v-1.25h8.54Z"/><path class="cls-1" d="M505.76,234.18l-.43,7.25H487v-1.25L500,220.65l-8.78.67-1.92,3.79H488l.34-6.48h17v1.25l-12.91,19.44,9.94-.82,2.11-4.32Z"/><path class="cls-1" d="M548.24,240.18v1.25H535v-1.25l4.46-1.2V221l-11.52-.38V239l4.42,1.2v1.25h-13.2v-1.25l4.18-1.1V220.5l-4.66-.14v-1.73l4.66-.1v0c0-8.45,5.47-13.54,12.34-13.54,6,0,8.83,3.36,8.83,6.29a2.79,2.79,0,0,1-5.57,0,2.64,2.64,0,0,1,.67-1.73,4.24,4.24,0,0,0-4-2.64c-4.46,0-7.68,3.74-7.68,10.56v1l14.88-.29h1.25v21Z"/><path class="cls-1" d="M590.38,240.18v1.25H577.9v-1.25l3.7-1.15v-25c0-5.09-2.11-7.06-5-7.06-4.7,0-6.53,4.51-6.53,10.46v1.15h7.54v1.25l-3.31,1.49-4.22-.34v17.91l4.61,1.25v1.25H561.29v-1.25l4.18-1.15V220.69l-4.66-.34v-1.73h4.66v-.14c0-8,4-13.54,11.14-13.54,3.26,0,4.95,1,6.24,2.35l2.11-2.83h1.25v34.66Z"/><path class="cls-1" d="M70.6,283.14c0,9.84-4.51,16.8-12.48,16.8a20.35,20.35,0,0,1-2.54-.19l-1.06,4.85-1.87-.38,1.06-4.94c-6.48-2.3-8.06-9.7-8.06-16.13,0-9.84,4.51-16.8,12.48-16.8a20.35,20.35,0,0,1,2.54.19l1.06-4.9,1.87.38-1.06,5C69,269.32,70.6,276.71,70.6,283.14ZM54.42,295.82l5.71-26.64a5.25,5.25,0,0,0-2.54-.62c-4.27,0-7.2,3.79-6.91,13.73C50.92,289,52.26,293.46,54.42,295.82ZM65.56,284c-.24-6.67-1.58-11.18-3.74-13.54L56.1,297.11a5.12,5.12,0,0,0,2.54.62C62.92,297.74,65.85,293.94,65.56,284Zm21.84-.91c0-9.84,4.51-16.8,12.48-16.8,10.18,0,12.48,9.12,12.48,16.8,0,9.84-4.51,16.8-12.48,16.8C89.7,299.9,87.4,290.77,87.4,283.09Zm19.92.86c-.34-10.32-3.41-15.46-8-15.46-4.27,0-7.2,3.79-6.91,13.73.34,10.32,3.41,15.46,8,15.46C104.68,297.69,107.61,293.9,107.32,284Zm35.42,14v1.44h-15.6V298l5.81-1.15v-24l-5.23.91-.86-1.25,9.55-6.24h1.25v30.58Zm14.54-21.51h1.44l1.73-6.38a7.82,7.82,0,0,1,5-1.78c3.12,0,5.57,2,5.57,5.86,0,7.2-10.85,18.58-16,24.29v1h19.92l2.4-9.55h-1.44l-3.74,5.9h-12c11.38-9.55,16-15.79,16-21.7,0-5.09-3.6-7.78-9.31-7.78a23.51,23.51,0,0,0-10.42,2.64Zm53.81,12.72c0,5.52-4.42,10.7-12.29,10.7a12.74,12.74,0,0,1-8-2.4l1.25-1.78a11.56,11.56,0,0,0,7,2.26c4.66,0,7.3-2.83,7.3-6.77,0-4.13-2.78-7.82-9.6-8.16v-1c4.7-1.44,8.21-4.61,8.21-8.69,0-3.26-2.69-5.18-5.66-5.18a6.41,6.41,0,0,0-3.5,1l-1.54,5.52H192.9L191.56,269a15.85,15.85,0,0,1,9-2.74c5.66,0,9.07,3.26,9.07,7,0,3.31-3,6.82-7.63,8.5C206.53,282.18,211.09,284.58,211.09,289.19ZM243.2,291v5.66l4.46,1.3v1.44h-15V298l5.9-1.3V291H223.47l-.62-2.5L241,266.29h2.21v21.31h5.66v1l-2.4,2.4Zm-4.61-3.41V272.34l-12.43,15.27Zm42.24.24c0,5.18-3.31,12-13.44,12a20.15,20.15,0,0,1-6.62-1.1l1.2-7.39h1.25l1.15,5A9.19,9.19,0,0,0,269,297.5c5.14,0,7.68-3,7.68-7.39,0-4.75-3.74-7.2-11.33-7.2H262.5l-.86-.77L263,266.72h16.95v3.12l-1.34,1.3H264.8l-.62,7.39h1.54C275.8,278.53,280.84,281.75,280.84,287.85Zm36.53.62c0,5.52-3.65,11.62-11.28,11.62-8.21,0-11.42-6.38-11.42-12.34,0-11.14,7.54-20.07,18.82-21.46l.48,1.44c-8.11,1.58-12.91,6.53-14.16,14.4a8.82,8.82,0,0,1,7.34-3.55C313.38,278.58,317.37,282.76,317.37,288.47Zm-4.8,2.26c0-5.71-2.83-9.31-7.15-9.31-3.6,0-6,3.07-6,5,0,7.82,3.22,11.47,7.25,11.47C310.16,297.93,312.56,295,312.56,290.73ZM352,267.83l-11.62,31.59H335.6l-1.1-.77,14.64-27.7h-14.5l-1.82,4.94h-1.44v-9.12h19.54Zm36.1,23c0,6.48-6.24,9.07-11.91,9.07-6.19,0-11.33-2.93-11.33-8,0-3.79,3.12-6.58,7.82-8.69-3.22-1.92-5.86-4.18-5.86-7.73,0-6,5-9.17,9.89-9.17,6.34,0,9.89,2.88,9.89,7.2,0,3.79-3.94,6.48-7,8.26C383.84,284.1,388.07,286.6,388.07,290.82Zm-4.51,1.92c0-4-4.85-6.14-9.31-8.64-2.64,1.73-4.61,4.46-4.61,7.49,0,3.7,3.36,6.14,7.58,6.14C381.68,297.74,383.56,295.62,383.56,292.74Zm-12.63-19.49c0,3.41,3.36,5.57,7.1,7.63,2.11-1.63,3.94-4.7,3.94-7.06,0-3.26-2.4-5.38-5.71-5.38C372.37,268.45,370.93,271.19,370.93,273.25Zm53.38,5.38c0,11.14-7.54,20.07-20.26,21.46l-.48-1.44c8.69-2,14.11-6.58,15.55-14.31a9,9,0,0,1-7.3,3.46c-6.24,0-10.22-4.18-10.22-9.89,0-5.52,3.65-11.62,11.28-11.62C421.09,266.29,424.31,272.68,424.31,278.63Zm-4.8,1.3c0-7.82-3.22-11.47-7.25-11.47-3.46,0-5.86,2.83-5.86,7,0,5.71,2.83,9.55,7.15,9.55C417.16,285,419.51,281.89,419.51,279.93Zm19.29,7.58c0-7.06,5.42-12.34,12.72-12.34s12.72,5.28,12.72,12.34-5.42,12.39-12.72,12.39S438.8,294.62,438.8,287.51Zm20.83,0c0-6.38-3-10.18-8.11-10.18s-8.11,3.79-8.11,10.18,3,10.22,8.11,10.22S459.64,293.94,459.64,287.51ZM493,298.17v1.25H478.16v-1.25l5.14-1.2V279.73h-4.9v-1.25l8.54-3.31h1V297Zm33.84-2.5v1l-2.4,2.74H505.81V297c7-3.07,14.64-9.12,14.64-14.45,0-3-1.44-5.23-4.56-5.23a6,6,0,0,0-4.37,2l-2,5.57h-1.34l-1-7.06a15.94,15.94,0,0,1,8.88-2.64c6.1,0,9.41,3,9.41,6.82,0,6.24-8.21,11.42-14.93,14.55Zm-16.66-14.59-.14.29ZM559.62,298c0,5.52-4.42,10.7-12.29,10.7a12.74,12.74,0,0,1-8-2.4l1.25-1.78a11.56,11.56,0,0,0,7,2.26c4.66,0,7.3-2.83,7.3-6.77,0-4.13-2.78-7.82-9.6-8.16v-1c4.7-1.44,8.21-4.61,8.21-8.69,0-3.26-2.69-5.18-5.66-5.18a6.41,6.41,0,0,0-3.5,1l-1.54,5.52h-1.34l-1.34-5.71a15.85,15.85,0,0,1,9-2.74c5.66,0,9.07,3.26,9.07,7,0,3.31-3,6.82-7.63,8.5C555.06,291,559.62,293.42,559.62,298ZM597.16,295v1l-2.4,2.5h-3.22v9.84h-4.61v-9.84H572l-.62-2.5,18.15-20.79h2V295Zm-10.22,0V281.41l-12,13.54Z"/><path class="cls-1" d="M59.08,354.71c0,5.18-3.31,12-13.44,12a20.15,20.15,0,0,1-6.62-1.1l1.2-7.39h1.25l1.15,5a9.19,9.19,0,0,0,4.61,1.06c5.14,0,7.68-3,7.68-7.39,0-4.75-3.74-7.2-11.33-7.2H40.74l-.86-.77,1.34-15.41H58.16v3.12L56.82,338H43l-.62,7.39H44C54,345.4,59.08,348.61,59.08,354.71Zm36.53-8.26c0,5.52-3.65,11.62-11.28,11.62-8.21,0-11.42-6.38-11.42-12.34,0-11.14,7.54-20.07,18.82-21.46l.48,1.44c-8.11,1.58-12.91,6.53-14.16,14.4a8.82,8.82,0,0,1,7.34-3.55C91.62,336.57,95.61,340.74,95.61,346.45Zm-4.8,2.26c0-5.71-2.83-9.31-7.15-9.31-3.6,0-6,3.07-6,5,0,7.82,3.22,11.47,7.25,11.47C88.4,355.91,90.81,353,90.81,348.71Zm39.41-14.07L118.6,366.23h-4.75l-1.1-.77,14.64-27.7h-14.5l-1.82,4.94h-1.44v-9.12h19.54Zm36.1,14.16c0,6.48-6.24,9.07-11.91,9.07-6.19,0-11.33-2.93-11.33-8,0-3.79,3.12-6.58,7.82-8.69-3.22-1.92-5.86-4.18-5.86-7.73,0-6,5-9.17,9.89-9.17,6.34,0,9.89,2.88,9.89,7.2,0,3.79-3.94,6.48-7,8.26C162.08,342.09,166.31,344.58,166.31,348.81Zm-4.51,1.92c0-4-4.85-6.14-9.31-8.64-2.64,1.73-4.61,4.46-4.61,7.49,0,3.7,3.36,6.14,7.58,6.14C159.92,355.72,161.8,353.61,161.8,350.73Zm-12.63-19.49c0,3.41,3.36,5.57,7.1,7.63,2.11-1.63,3.94-4.7,3.94-7.06,0-3.26-2.4-5.38-5.71-5.38C150.61,326.44,149.17,329.17,149.17,331.24Zm53.38,14.26c0,11.14-7.54,20.07-20.26,21.46l-.48-1.44c8.69-2,14.11-6.58,15.55-14.31a9,9,0,0,1-7.3,3.46c-6.24,0-10.22-4.18-10.22-9.89,0-5.52,3.65-11.62,11.28-11.62C199.33,333.16,202.55,339.54,202.55,345.49Zm-4.8,1.3c0-7.82-3.22-11.47-7.25-11.47-3.46,0-5.86,2.83-5.86,7,0,5.71,2.83,9.55,7.15,9.55C195.4,351.83,197.75,348.76,197.75,346.79Zm57.55-8.4c0,9-3,12.72-11.23,15.41H243l-2.74-3.36c-2.74,1.87-4.61,2.69-7.1,2.69-1.87,0-5.33-1.2-5.33-6,0-3.6,2.74-5.9,7.39-7.34l4.85-1.54c0-3-1.63-5.33-4.42-5.33a3.66,3.66,0,0,0-2.21.67l-1.68,4.32h-1.63l-1-4a11.51,11.51,0,0,1,7.82-3.22c3.5,0,7.58,1.58,7.58,7.06v14c3.84-1.15,6-4.85,6-10.46,0-7.82-5.62-15.84-14.26-15.84s-14.21,5.57-14.31,16.13c-.1,11.18,7.34,17.76,15.17,17.76a14.6,14.6,0,0,0,5.14-.82l.53,2.06a21.47,21.47,0,0,1-6.34.91c-14.45,0-19.68-10.32-19.68-19.06,0-8,5.86-19.06,20.16-19.06C249.06,323.32,255.3,331.29,255.3,338.39Zm-22.61-4.13a2,2,0,0,0-.43.67Zm2.74,15.79a9.68,9.68,0,0,0,4.66-1.68v-8.11l-4.46,1.54c-1.82.62-3.12,2-3.12,4.75A3.31,3.31,0,0,0,235.43,350.06Zm66,6.1v1.25h-6.19L291.83,354a16.18,16.18,0,0,1-11.09,3.84c-9.36,0-12.58-5.28-12.58-10.13a10,10,0,0,1,7.63-9.79,10.42,10.42,0,0,1-2.45-6.77c0-3.7,2.78-7.78,9.12-7.78a11.1,11.1,0,0,1,7.82,2.74v6.29h-1.44l-1.63-4a4.23,4.23,0,0,0-4.46-3,4.56,4.56,0,0,0-4.85,4.94c0,1.87.86,3.74,2.93,5.76l12.72,12.34a16.34,16.34,0,0,0,1.49-7L291.25,340v-1.44h7.58V340a32.39,32.39,0,0,1-3.7,10Zm-11-3.55-13.3-13.2c-2.69,1.39-4.13,3.89-4.13,7.39,0,5,3.41,8.88,9.12,8.88A12.13,12.13,0,0,0,290.44,352.6ZM332.24,336l.43,1.1-1.15,2-1.15.19-6.1-4.9,1.15,7.78-.72.91h-2.3l-.72-.91,1.15-7.78-6.1,4.85-1.15-.14-1.15-2,.43-1.15,7.3-2.83-7.3-2.78-.43-1.15,1.15-2,1.15-.14,6.1,4.85-1.15-7.73.72-.91h2.3l.72.91L324.28,332l6.1-4.9,1.15.19,1.15,2-.43,1.1-7.3,2.83Zm15.31-12.34,2.16,23.71h2.21l2.16-26.07-1-.43Zm3.5,27.6a3.2,3.2,0,0,1,3.41,3.22,3.13,3.13,0,0,1-3.46,3.36,3.17,3.17,0,0,1-3.36-3.31A3.31,3.31,0,0,1,351.06,351.3Zm21.41-11.38a3.2,3.2,0,0,1-3.41-3.22,3.13,3.13,0,0,1,3.46-3.36,3.17,3.17,0,0,1,3.36,3.31A3.31,3.31,0,0,1,372.47,339.93Zm3.5,27.6-2.16-23.71H371.6l-2.16,26.07,1,.43Zm33.6-37.2c0,3-.62,6-7.68,11l-1.68,1.2-.77,4.9h-2.21l-1.1-8.3,1.92-1.25c6.48-4.18,7-6.48,7-8.35a4.56,4.56,0,0,0-4.85-4.94,7.3,7.3,0,0,0-4.32,1.44l-1.78,5.57h-1.44l-1-6.29a13.9,13.9,0,0,1,8.78-2.74C406.79,322.55,409.57,326.63,409.57,330.33Zm-7.73,24.19a3.13,3.13,0,0,1-3.46,3.36,3.17,3.17,0,0,1-3.36-3.31,3.31,3.31,0,0,1,3.41-3.26A3.2,3.2,0,0,1,401.84,354.52ZM442,365.94a13.9,13.9,0,0,1-8.78,2.74c-6.34,0-9.12-4.08-9.12-7.78,0-3,.62-6,7.68-11l1.68-1.2.77-4.9h2.21l1.1,8.3-1.92,1.25c-6.48,4.18-7,6.48-7,8.35a4.56,4.56,0,0,0,4.85,4.94,7.3,7.3,0,0,0,4.32-1.44l1.78-5.57H441ZM431.8,336.71a3.13,3.13,0,0,1,3.46-3.36,3.17,3.17,0,0,1,3.36,3.31,3.31,3.31,0,0,1-3.41,3.26A3.2,3.2,0,0,1,431.8,336.71Zm36.91,29-.14,1.39c-5.66,0-13.2-3.26-13.2-10.9a10.94,10.94,0,0,1,6.48-10l-8.35-1.68v-1.68l8.35-1.68a10.94,10.94,0,0,1-6.48-10c0-7.63,7.54-10.9,13.2-10.9l.14,1.39c-5.23.38-9,4.08-9,10.22a11.29,11.29,0,0,0,4.13,9v1.44l-7.1,1.39,7.1,1.44v1.44a11.29,11.29,0,0,0-4.13,9C459.73,361.62,463.48,365.32,468.71,365.7Zm26.64-22.9v1.68L487,346.17a10.94,10.94,0,0,1,6.48,10c0,7.63-7.54,10.9-13.2,10.9l-.14-1.39c5.23-.38,9-4.08,9-10.22a11.29,11.29,0,0,0-4.13-9v-1.44l7.1-1.44-7.1-1.39v-1.44a11.29,11.29,0,0,0,4.13-9c0-6.14-3.74-9.84-9-10.22l.14-1.39c5.66,0,13.2,3.26,13.2,10.9a10.94,10.94,0,0,1-6.48,10ZM512,320.92h10.08v1.63l-5.66.77v39.89l5.66.77v1.63H512Zm20.93,44.69V364l5.66-.77V323.32l-5.66-.77v-1.63H543v44.69Zm29.14-22.32c0-10.08,4.85-19,11.71-22.37l.77,1.25c-4.51,3.26-7.78,11.23-7.82,20.26,0,9.55,3.26,18.15,7.87,21.7l-.91,1.2C566.87,362.34,562.07,353.61,562.07,343.29Zm37.06-.34c0,10.08-4.85,19-11.71,22.37l-.77-1.25c4.51-3.26,7.78-11.23,7.82-20.26,0-9.55-3.26-18.15-7.87-21.7l.91-1.2C594.32,323.89,599.12,332.63,599.12,343Z"/><path class="cls-1" d="M51.79,415.06v.66h-6v-.66l2-.53-1.63-4.22H40.62l-1.5,4.22,2,.53v.66H36.41v-.66l1.5-.48,5-13.8,1.69-.68,5.68,14.57Zm-6-5.81-2.49-6.42L41,409.25ZM43,398.93l-.4-.51,3.15-2.35,1.72.75-.15.73Z"/><path class="cls-1" d="M65.13,414.42V415l-3,.73h-.57l-.33-1.65c-1.61,1.19-2.66,1.87-4.07,1.87a2.44,2.44,0,0,1-2.62-2.46c0-1.32.73-2.24,2.79-2.9l3.78-1.19v-.15c0-1.76-.81-3.15-2.33-3.15a2.05,2.05,0,0,0-1.67.75L56.63,409h-.88l-.55-2.18A6.33,6.33,0,0,1,59.45,405c1.91,0,3.76.84,3.76,3.81v5Zm-6.89.33c.86,0,1.72-.73,2.86-1.56v-2.86l-2.73.9a2.21,2.21,0,0,0-1.65,2A1.42,1.42,0,0,0,58.24,414.75Zm.81-10.91-.55-.29,1.83-3.28h1.78l.13.68Z"/><path class="cls-1" d="M82.48,415.06v.66h-6v-.66l2-.53-1.63-4.22H71.31l-1.5,4.22,2,.53v.66H67.1v-.66l1.5-.48,5-13.8,1.69-.68L81,414.66ZM71.17,396.18h1.32a1.89,1.89,0,0,0,3.78,0H77.6a3.23,3.23,0,0,1-6.42,0Zm5.3,13.07L74,402.83l-2.31,6.42Z"/><path class="cls-1" d="M95.84,414.42V415l-3,.73h-.57l-.33-1.65c-1.61,1.19-2.66,1.87-4.07,1.87a2.44,2.44,0,0,1-2.62-2.46c0-1.32.73-2.24,2.79-2.9l3.78-1.19v-.15c0-1.76-.81-3.15-2.33-3.15a2.05,2.05,0,0,0-1.67.75L87.34,409h-.88l-.55-2.18A6.33,6.33,0,0,1,90.16,405c1.91,0,3.76.84,3.76,3.81v5Zm-9-13.47h1.32a1.89,1.89,0,0,0,3.78,0h1.32a3.23,3.23,0,0,1-6.43,0Zm2.13,13.8c.86,0,1.72-.73,2.86-1.56v-2.86l-2.73.9a2.21,2.21,0,0,0-1.65,2A1.42,1.42,0,0,0,88.95,414.75Z"/><path class="cls-1" d="M113.2,415.06v.66h-6v-.66l2-.53-1.63-4.22H102l-1.5,4.22,2,.53v.66H97.81v-.66l1.5-.48,5-13.8,1.69-.68,5.68,14.57Zm-10.85-15.78-.44-.51,2.88-2.64h.62l2.86,2.64-.44.51-2.73-1.61Zm4.84,10-2.49-6.42-2.31,6.42Z"/><path class="cls-1" d="M126.55,414.42V415l-3,.73H123l-.33-1.65c-1.61,1.19-2.66,1.87-4.07,1.87a2.44,2.44,0,0,1-2.62-2.46c0-1.32.73-2.24,2.79-2.9l3.78-1.19v-.15c0-1.76-.81-3.15-2.33-3.15a2.05,2.05,0,0,0-1.67.75l-.46,2.13h-.88l-.55-2.18a6.33,6.33,0,0,1,4.25-1.74c1.91,0,3.76.84,3.76,3.81v5ZM118.25,404l-.42-.46,2.6-3H121l2.6,3-.42.46-2.49-1.69Zm1.41,10.78c.86,0,1.72-.73,2.86-1.56v-2.86l-2.73.9a2.21,2.21,0,0,0-1.65,2A1.42,1.42,0,0,0,119.66,414.75Z"/><path class="cls-1" d="M143.88,415.06v.66h-6v-.66l2-.53-1.63-4.22h-5.59l-1.5,4.22,2,.53v.66H128.5v-.66l1.5-.48,5-13.8,1.69-.68,5.68,14.57Zm-11.24-17.21a1.23,1.23,0,0,1,1.23-1.21,1.19,1.19,0,1,1,0,2.38A1.14,1.14,0,0,1,132.64,397.85Zm5.24,11.4-2.49-6.42-2.31,6.42Zm-1.41-11.4a1.23,1.23,0,0,1,1.21-1.21,1.19,1.19,0,1,1,0,2.38A1.12,1.12,0,0,1,136.47,397.85Z"/><path class="cls-1" d="M157.24,414.42V415l-3,.73h-.57l-.33-1.65c-1.61,1.19-2.66,1.87-4.07,1.87a2.44,2.44,0,0,1-2.62-2.46c0-1.32.73-2.24,2.79-2.9l3.78-1.19v-.15c0-1.76-.81-3.15-2.33-3.15a2.05,2.05,0,0,0-1.67.75l-.46,2.13h-.88l-.55-2.18a6.33,6.33,0,0,1,4.25-1.74c1.91,0,3.76.84,3.76,3.81v5Zm-9-12.19a1.23,1.23,0,0,1,1.23-1.21,1.19,1.19,0,1,1,0,2.38A1.14,1.14,0,0,1,148.28,402.23Zm2.07,12.52c.86,0,1.72-.73,2.86-1.56v-2.86l-2.73.9a2.21,2.21,0,0,0-1.65,2A1.42,1.42,0,0,0,150.35,414.75Zm1.76-12.52a1.23,1.23,0,0,1,1.21-1.21,1.19,1.19,0,1,1,0,2.38A1.12,1.12,0,0,1,152.11,402.23Z"/><path class="cls-1" d="M174.6,415.06v.66h-6v-.66l2-.53L169,410.31h-5.59l-1.5,4.22,2,.53v.66h-4.73v-.66l1.5-.48,5-13.8,1.69-.68,5.68,14.57Zm-6-5.81-2.49-6.42-2.31,6.42Zm-.4,9.33a1.28,1.28,0,0,1-2.55,0,1.25,1.25,0,0,1,1.28-1.23A1.2,1.2,0,0,1,168.19,418.58Z"/><path class="cls-1" d="M192.09,415.06v.66h-6v-.66l2-.53-1.63-4.22h-5.59l-1.5,4.22,2,.53v.66h-4.73v-.66l1.5-.48,5-13.8,1.69-.68,5.68,14.57Zm-11.6-17.34-.18-.68,1.61-.77,3.06,2.16-.37.51Zm5.59,11.53-2.49-6.42-2.31,6.42Z"/><path class="cls-1" d="M205.42,414.42V415l-3,.73h-.57l-.33-1.65c-1.61,1.19-2.66,1.87-4.07,1.87a2.44,2.44,0,0,1-2.62-2.46c0-1.32.73-2.24,2.79-2.9l3.78-1.19v-.15c0-1.76-.81-3.15-2.33-3.15a2.05,2.05,0,0,0-1.67.75l-.46,2.13H196l-.55-2.18a6.33,6.33,0,0,1,4.25-1.74c1.91,0,3.76.84,3.76,3.81v5Zm-5.65-11.11-3.19-2.88.13-.68h1.78l1.83,3.28Zm-1.23,11.44c.86,0,1.72-.73,2.86-1.56v-2.86l-2.73.9a2.21,2.21,0,0,0-1.65,2A1.42,1.42,0,0,0,198.53,414.75Z"/><path class="cls-1" d="M222.77,415.06v.66h-6v-.66l2-.53-1.63-4.22H211.6l-1.5,4.22,2,.53v.66h-4.73v-.66l1.5-.48,5-13.8,1.69-.68,5.68,14.57Zm-5-16.77h-6.18v-1.17h6.18Zm-1,11-2.49-6.42L212,409.25Z"/><path class="cls-1" d="M236.13,414.42V415l-3,.73h-.57l-.33-1.65c-1.61,1.19-2.66,1.87-4.07,1.87a2.44,2.44,0,0,1-2.62-2.46c0-1.32.73-2.24,2.79-2.9l3.78-1.19v-.15c0-1.76-.81-3.15-2.33-3.15a2.05,2.05,0,0,0-1.67.75l-.46,2.13h-.88l-.55-2.18a6.33,6.33,0,0,1,4.25-1.74c1.91,0,3.76.84,3.76,3.81v5Zm-2.73-11.18h-6.18v-1.17h6.18Zm-4.16,11.51c.86,0,1.72-.73,2.86-1.56v-2.86l-2.73.9a2.21,2.21,0,0,0-1.65,2A1.42,1.42,0,0,0,229.24,414.75Z"/><path class="cls-1" d="M250.91,420.1l2.13.09v.62l-2.86.64c-2.9-.4-3.85-4.14-.73-5.72h-2v-.66l2-.53-1.63-4.22h-5.59l-1.5,4.22,2,.53v.66h-4.73v-.66l1.5-.48,5-13.8,1.69-.68L252,414.66l1.47.4v.66h-2.33C249.2,416.16,249,419.17,250.91,420.1Zm-3.43-10.85L245,402.83l-2.31,6.42Z"/><path class="cls-1" d="M267,420v.62l-2.86.64c-2.84-.37-3.81-4-.9-5.63l-.31-1.52c-1.61,1.19-2.66,1.87-4.07,1.87a2.44,2.44,0,0,1-2.62-2.46c0-1.32.73-2.24,2.79-2.9l3.78-1.19v-.15c0-1.76-.81-3.15-2.33-3.15a2.05,2.05,0,0,0-1.67.75l-.46,2.13h-.88l-.55-2.18a6.33,6.33,0,0,1,4.25-1.74c1.91,0,3.76.84,3.76,3.81v5l1.91.57V415l-1.14.29v.09l-.59.13c-2,.44-2.11,3.45-.24,4.38Zm-7-5.21c.86,0,1.72-.73,2.86-1.56v-2.86l-2.73.9a2.21,2.21,0,0,0-1.65,2A1.42,1.42,0,0,0,260,414.75Z"/><path class="cls-1" d="M284.2,415.06v.66h-6v-.66l2-.53-1.63-4.22H273l-1.5,4.22,2,.53v.66h-4.73v-.66l1.5-.48,5-13.8,1.69-.68,5.68,14.57Zm-6-5.81-2.49-6.42-2.31,6.42ZM274,396.93a2,2,0,0,1,2.13-2,2,2,0,1,1,0,4A2,2,0,0,1,274,396.93Zm1.21-.11c0,.84.44,1.39,1,1.39s.86-.29.86-1.23-.48-1.32-1-1.32S275.18,396,275.18,396.82Z"/><path class="cls-1" d="M297.55,414.42V415l-3,.73H294l-.33-1.65c-1.61,1.19-2.66,1.87-4.07,1.87a2.44,2.44,0,0,1-2.62-2.46c0-1.32.73-2.24,2.79-2.9l3.78-1.19v-.15c0-1.76-.81-3.15-2.33-3.15a2.05,2.05,0,0,0-1.67.75l-.46,2.13h-.88l-.55-2.18a6.33,6.33,0,0,1,4.25-1.74c1.91,0,3.76.84,3.76,3.81v5Zm-6.89.33c.86,0,1.72-.73,2.86-1.56v-2.86l-2.73.9a2.21,2.21,0,0,0-1.65,2A1.42,1.42,0,0,0,290.66,414.75Zm-1.17-13.51a2.15,2.15,0,0,1,2.24-2.11,2.11,2.11,0,1,1,0,4.2A2.07,2.07,0,0,1,289.5,401.24Zm1.25-.11c0,.88.46,1.45,1.1,1.45.48,0,.9-.31.9-1.3s-.51-1.39-1-1.39S290.75,400.3,290.75,401.13Z"/><path class="cls-1" d="M314.89,415.06v.66h-6v-.66l2-.53-1.63-4.22h-5.59l-1.5,4.22,2,.53v.66h-4.73v-.66l1.5-.48,5-13.8,1.69-.68,5.68,14.57Zm-6-5.81-2.49-6.42-2.31,6.42Zm-4.22-12.32a2,2,0,0,1,2.13-2,2,2,0,1,1,0,4A2,2,0,0,1,304.66,396.93Zm1.45-3-.4-.51,3.15-2.35,1.72.75-.15.73Zm-.24,2.9c0,.84.44,1.39,1,1.39s.86-.29.86-1.23-.48-1.32-1-1.32S305.87,396,305.87,396.82Z"/><path class="cls-1" d="M328.24,414.42V415l-3,.73h-.57l-.33-1.65c-1.61,1.19-2.66,1.87-4.07,1.87a2.44,2.44,0,0,1-2.62-2.46c0-1.32.73-2.24,2.79-2.9l3.78-1.19v-.15c0-1.76-.81-3.15-2.33-3.15a2.05,2.05,0,0,0-1.67.75l-.46,2.13h-.88l-.55-2.18a6.33,6.33,0,0,1,4.25-1.74c1.92,0,3.76.84,3.76,3.81v5Zm-6.89.33c.86,0,1.72-.73,2.86-1.56v-2.86l-2.73.9a2.21,2.21,0,0,0-1.65,2A1.42,1.42,0,0,0,321.35,414.75Zm-1.17-13.51a2.15,2.15,0,0,1,2.24-2.11,2.11,2.11,0,1,1,0,4.2A2.07,2.07,0,0,1,320.19,401.24Zm1.25-.11c0,.88.46,1.45,1.1,1.45.48,0,.9-.31.9-1.3s-.51-1.39-1-1.39S321.44,400.3,321.44,401.13Zm.73-2.55-.55-.29,1.83-3.28h1.78l.13.68Z"/><path class="cls-1" d="M345.6,415.06v.66h-6v-.66l2-.53L340,410.31h-5.59l-1.5,4.22,2,.53v.66h-4.73v-.66l1.5-.48,5-13.8,1.69-.68,5.68,14.57Zm-11.07-16-.55-.29,2-2.27,3.32,1,1.14-1.1.51.29L339.3,399l-3.63-.95Zm5.06,10.21-2.49-6.42-2.31,6.42Z"/><path class="cls-1" d="M358.93,414.42V415l-3,.73h-.57l-.33-1.65c-1.61,1.19-2.66,1.87-4.07,1.87a2.44,2.44,0,0,1-2.62-2.46c0-1.32.73-2.24,2.79-2.9l3.78-1.19v-.15c0-1.76-.81-3.15-2.33-3.15a2.05,2.05,0,0,0-1.67.75l-.46,2.13h-.88l-.55-2.18a6.33,6.33,0,0,1,4.25-1.74c1.92,0,3.76.84,3.76,3.81v5ZM350,403.33l-.57-.31,2.13-2.38,3.5,1,1.19-1.17.55.31L355,403.29l-3.83-1Zm2,11.42c.86,0,1.72-.73,2.86-1.56v-2.86l-2.73.9a2.21,2.21,0,0,0-1.65,2A1.42,1.42,0,0,0,352,414.75Z"/><path class="cls-1" d="M376,411.63l-.73,3.41a12.43,12.43,0,0,1-5.24.9c-5.13,0-8.43-3.1-8.43-7.92A8,8,0,0,1,370,400.1a15.75,15.75,0,0,1,5.65,1l-.2,3.87h-.79l-1.25-3a6.24,6.24,0,0,0-3.19-.88c-4,0-6.21,2.62-6.09,6.78.11,4,2.46,7,5.83,7a5.94,5.94,0,0,0,3.26-.86l2-2.35Zm-7-12.7-.4-.51,3.15-2.35,1.72.75-.15.73Z"/><path class="cls-1" d="M388.61,414.62a4.8,4.8,0,0,1-3.74,1.32,5.11,5.11,0,0,1-5.28-5.26A5.36,5.36,0,0,1,385,405a7.34,7.34,0,0,1,3.3.86v2.86h-.88l-1.65-2.6c-2.11-.77-4,.86-4,3.94a4.35,4.35,0,0,0,4.4,4.49,3.4,3.4,0,0,0,2.07-.53Zm-4.31-10.78-.55-.29,1.83-3.28h1.78l.13.68Z"/><path class="cls-1" d="M406.49,411.63l-.73,3.41a12.43,12.43,0,0,1-5.24.9c-5.13,0-8.43-3.1-8.43-7.92a8,8,0,0,1,8.38-7.92,15.75,15.75,0,0,1,5.65,1l-.2,3.87h-.79l-1.25-3a6.24,6.24,0,0,0-3.19-.88c-4,0-6.21,2.62-6.09,6.78.11,4,2.46,7,5.83,7a5.94,5.94,0,0,0,3.26-.86l2-2.35Zm-6.58-12.78L397,396.2l.44-.51,2.75,1.61L403,395.7l.44.51-2.86,2.64Z"/><path class="cls-1" d="M419.05,414.62a4.8,4.8,0,0,1-3.74,1.32,5.11,5.11,0,0,1-5.28-5.26,5.36,5.36,0,0,1,5.39-5.63,7.34,7.34,0,0,1,3.3.86v2.86h-.88l-1.65-2.6c-2.11-.77-4,.86-4,3.94a4.35,4.35,0,0,0,4.4,4.49,3.4,3.4,0,0,0,2.07-.53Zm-4.36-11.09-2.6-3,.42-.46,2.46,1.69,2.49-1.69.42.46-2.6,3Z"/><path class="cls-1" d="M430,415.9l-.31,1.74c1.32-.2,2.4.33,2.4,1.47,0,1.74-1.89,2.53-4,2.22l.09-.57c1.36,0,2.09-.51,2.09-1.39,0-.68-.4-1.08-1.83-1l-.13-.31,1-2.24a7.45,7.45,0,0,1-6.8-7.81,8,8,0,0,1,8.38-7.92,15.75,15.75,0,0,1,5.65,1l-.2,3.87h-.79l-1.25-3a6.24,6.24,0,0,0-3.19-.88c-4,0-6.21,2.62-6.09,6.78.11,4,2.46,7,5.83,7a5.94,5.94,0,0,0,3.26-.86l2-2.35h.79l-.73,3.41a12.43,12.43,0,0,1-5.24.9C430.63,415.94,430.3,415.92,430,415.9Z"/><path class="cls-1" d="M445.25,415.92l-.29,1.63c1.25-.2,2.29.31,2.29,1.41,0,1.65-1.8,2.4-3.79,2.11l.07-.55c1.3,0,2-.48,2-1.32,0-.64-.37-1-1.74-.95l-.13-.29,1-2.11a5.13,5.13,0,0,1-4.2-5.17,5.36,5.36,0,0,1,5.39-5.63,7.34,7.34,0,0,1,3.3.86v2.86h-.88l-1.65-2.6c-2.11-.77-4,.86-4,3.94a4.35,4.35,0,0,0,4.4,4.49,3.4,3.4,0,0,0,2.07-.53l.4.55a4.8,4.8,0,0,1-3.74,1.32A3.33,3.33,0,0,1,445.25,415.92Z"/><path class="cls-1" d="M467.34,411.63l-.73,3.41a12.43,12.43,0,0,1-5.24.9c-5.13,0-8.43-3.1-8.43-7.92a8,8,0,0,1,8.38-7.92,15.75,15.75,0,0,1,5.65,1l-.2,3.87H466l-1.25-3a6.24,6.24,0,0,0-3.19-.88c-4,0-6.21,2.62-6.09,6.78.11,4,2.46,7,5.83,7a5.94,5.94,0,0,0,3.26-.86l2-2.35Zm-9-12.34-.44-.51,2.88-2.64h.62l2.86,2.64-.44.51-2.73-1.61Z"/><path class="cls-1" d="M479.91,414.62a4.8,4.8,0,0,1-3.74,1.32,5.11,5.11,0,0,1-5.28-5.26,5.36,5.36,0,0,1,5.39-5.63,7.34,7.34,0,0,1,3.3.86v2.86h-.88l-1.65-2.6c-2.11-.77-4,.86-4,3.94a4.35,4.35,0,0,0,4.4,4.49,3.4,3.4,0,0,0,2.07-.53ZM473.37,404l-.42-.46,2.6-3h.59l2.6,3-.42.46-2.49-1.69Z"/><path class="cls-1" d="M497.77,411.63,497,415a12.43,12.43,0,0,1-5.24.9c-5.13,0-8.43-3.1-8.43-7.92a8,8,0,0,1,8.38-7.92,15.75,15.75,0,0,1,5.65,1l-.2,3.87h-.79l-1.25-3A6.24,6.24,0,0,0,492,401c-4,0-6.21,2.62-6.09,6.78.11,4,2.46,7,5.83,7A5.94,5.94,0,0,0,495,414l2-2.35Zm-7.55-14a1.25,1.25,0,0,1,1.28-1.23,1.23,1.23,0,1,1-1.28,1.23Z"/><path class="cls-1" d="M510.31,414.62a4.8,4.8,0,0,1-3.74,1.32,5.11,5.11,0,0,1-5.28-5.26,5.36,5.36,0,0,1,5.39-5.63,7.34,7.34,0,0,1,3.3.86v2.86h-.88l-1.65-2.6c-2.11-.77-4,.86-4,3.94a4.35,4.35,0,0,0,4.4,4.49,3.4,3.4,0,0,0,2.07-.53ZM505,402.39a1.25,1.25,0,0,1,1.28-1.23,1.23,1.23,0,1,1-1.28,1.23Z"/><path class="cls-1" d="M529.32,407.69c0,4.42-2.6,8-8,8H514v-.66l1.85-.55v-13l-2.18-.55v-.66h7.53C525.82,400.32,529.32,403.11,529.32,407.69Zm-2.49.86c0-4.71-2.91-7.24-6.36-7.24a11.67,11.67,0,0,0-1.89.24l-.44.07v12.74l.73.11a17.13,17.13,0,0,0,2.22.26C524.46,414.73,526.83,412.95,526.83,408.55Zm-5.46-9.7-2.88-2.64.44-.51,2.75,1.61,2.73-1.61.44.51L522,398.84Z"/><path class="cls-1" d="M542.6,413.85l1.91.57V415l-3,.73H541l-.29-1.41a4.7,4.7,0,0,1-3.52,1.63c-2.79,0-4.38-2.27-4.38-5.13,0-3.7,2.4-5.77,5.32-5.77a5.72,5.72,0,0,1,2.38.44V401l-1.91-.53v-.57L542,399h.57Zm-2.11-.48V409c0-1.83-.9-2.95-2.44-2.95s-3.1,1.32-3.1,4.16c0,3.21,1.58,4.42,3.17,4.42A3.29,3.29,0,0,0,540.49,413.37ZM546.06,399l-1.5,3.92-.59-.15.4-4,.48-.33Z"/><path class="cls-1" d="M562.74,407.69c0,4.42-2.6,8-8,8H547.4v-.66l1.85-.55v-6.38h-2.18v-1.06h2.18v-5.54l-2.18-.55v-.66h7.53C559.24,400.32,562.74,403.11,562.74,407.69Zm-2.49.86c0-4.71-2.91-7.24-6.36-7.24a11.67,11.67,0,0,0-1.89.24l-.44.07v5.46h3.15v1.06h-3.15v6.23l.73.11a17.13,17.13,0,0,0,2.22.26C557.87,414.73,560.25,412.95,560.25,408.55Z"/><path class="cls-1" d="M577.14,412.38l-.55,3.34H566.17v-.66l1.94-.48V401.46l-1.94-.48v-.66h10.58l-.53,3.39h-.79l-.66-2.46h-2.55a3.88,3.88,0,0,0-1.28.22l-.53.2v5.81h3.94l.46-1.58h.79v4.55h-.79l-.4-2h-4v6l4.6.48,1.34-2.53Zm-5.26-13.44-.4-.51,3.15-2.35,1.72.75-.15.73Z"/><path class="cls-1" d="M589,414.07l.4.55a5,5,0,0,1-3.74,1.32,5.16,5.16,0,0,1-5.32-5.17c0-3.41,2.29-5.72,5.32-5.72a3.74,3.74,0,0,1,4.09,3.81l-.59,1.06h-6.56v.15A4.16,4.16,0,0,0,587,414.6,3.61,3.61,0,0,0,589,414.07ZM582.69,409l5-.07a2.58,2.58,0,0,0-2.44-2.88C584.23,406.06,583,406.94,582.69,409Zm2.53-5.17-.55-.29,1.83-3.28h1.78l.13.68Z"/><path class="cls-1" d="M604.25,412.38l-.55,3.34H593.27v-.66l1.94-.48V401.46l-1.94-.48v-.66h10.58l-.53,3.39h-.79l-.66-2.46h-2.55a3.88,3.88,0,0,0-1.28.22l-.53.2v5.81h3.94l.46-1.58h.79v4.55h-.79l-.4-2h-4v6l4.6.48,1.34-2.53Zm-7.79-16.19h1.32a1.89,1.89,0,0,0,3.79,0h1.32a3.23,3.23,0,0,1-6.43,0Z"/><path class="cls-1" d="M43.94,451.07l.4.55a5,5,0,0,1-3.74,1.32,5.16,5.16,0,0,1-5.32-5.17c0-3.41,2.29-5.72,5.32-5.72a3.74,3.74,0,0,1,4.09,3.81l-.59,1.06H37.54v.15a4.16,4.16,0,0,0,4.33,4.53A3.61,3.61,0,0,0,43.94,451.07ZM37.18,438H38.5a1.89,1.89,0,0,0,3.78,0h1.32a2.92,2.92,0,0,1-3.21,2.9A2.92,2.92,0,0,1,37.18,438ZM37.6,446l5-.07a2.58,2.58,0,0,0-2.44-2.88C39.14,443.06,37.91,443.94,37.6,446Z"/><path class="cls-1" d="M59.19,449.38l-.55,3.34H48.21v-.66l1.94-.48V438.47L48.21,438v-.66H58.79l-.53,3.39h-.79l-.66-2.46H54.26a3.88,3.88,0,0,0-1.28.22l-.53.2v5.81h3.94l.46-1.58h.79v4.55h-.79l-.4-2h-4v6l4.6.48,1.34-2.53ZM54.3,435.85l-2.88-2.64.44-.51,2.75,1.61,2.73-1.61.44.51-2.86,2.64Z"/><path class="cls-1" d="M71.06,451.07l.4.55a5,5,0,0,1-3.74,1.32,5.16,5.16,0,0,1-5.32-5.17c0-3.41,2.29-5.72,5.32-5.72a3.74,3.74,0,0,1,4.09,3.81l-.59,1.06H64.66v.15A4.16,4.16,0,0,0,69,451.6,3.61,3.61,0,0,0,71.06,451.07Zm-3.85-10.54-2.6-3,.42-.46,2.46,1.69L70,437.06l.42.46-2.6,3ZM64.73,446l5-.07a2.58,2.58,0,0,0-2.44-2.88C66.27,443.06,65,443.94,64.73,446Z"/><path class="cls-1" d="M86.31,449.38l-.55,3.34H75.33v-.66l1.94-.48V438.47L75.33,438v-.66H85.92l-.53,3.39H84.6l-.66-2.46H81.38a3.88,3.88,0,0,0-1.28.22l-.53.2v5.81h3.94l.46-1.58h.79v4.55H84l-.4-2h-4v6l4.6.48,1.34-2.53ZM79,436.29l-.44-.51,2.88-2.64H82l2.86,2.64-.44.51-2.73-1.61Z"/><path class="cls-1" d="M98.21,451.07l.4.55a5,5,0,0,1-3.74,1.32,5.16,5.16,0,0,1-5.32-5.17c0-3.41,2.29-5.72,5.32-5.72A3.74,3.74,0,0,1,99,445.86l-.59,1.06H91.81v.15a4.16,4.16,0,0,0,4.33,4.53A3.61,3.61,0,0,0,98.21,451.07Zm-6-10.1-.42-.46,2.6-3H95l2.6,3-.42.46-2.49-1.69Zm-.31,5,5-.07a2.58,2.58,0,0,0-2.44-2.88C93.42,443.06,92.18,443.94,91.88,446Z"/><path class="cls-1" d="M113.48,449.38l-.55,3.34H102.5v-.66l1.94-.48V438.47L102.5,438v-.66h10.58l-.53,3.39h-.79l-.66-2.46h-2.55a3.88,3.88,0,0,0-1.28.22l-.53.2v5.81h3.94l.46-1.58h.79v4.55h-.79l-.4-2h-4v6l4.6.48,1.34-2.53Zm-7.72-14.52a1.23,1.23,0,0,1,1.23-1.21,1.19,1.19,0,1,1,0,2.38A1.14,1.14,0,0,1,105.76,434.86Zm3.83,0a1.23,1.23,0,0,1,1.21-1.21,1.19,1.19,0,1,1,0,2.38A1.12,1.12,0,0,1,109.59,434.86Z"/><path class="cls-1" d="M125.38,451.07l.4.55a5,5,0,0,1-3.74,1.32,5.16,5.16,0,0,1-5.32-5.17c0-3.41,2.29-5.72,5.32-5.72a3.74,3.74,0,0,1,4.09,3.81l-.59,1.06H119v.15a4.16,4.16,0,0,0,4.33,4.53A3.61,3.61,0,0,0,125.38,451.07Zm-6.69-11.84a1.23,1.23,0,0,1,1.23-1.21,1.19,1.19,0,1,1,0,2.38A1.14,1.14,0,0,1,118.69,439.24ZM119,446l5-.07a2.58,2.58,0,0,0-2.44-2.88C120.59,443.06,119.35,443.94,119,446Zm3.48-6.78a1.23,1.23,0,0,1,1.21-1.21,1.19,1.19,0,1,1,0,2.38A1.12,1.12,0,0,1,122.52,439.24Z"/><path class="cls-1" d="M140.65,449.38l-.55,3.34H129.67v-.66l1.94-.48V438.47l-1.94-.48v-.66h10.58l-.53,3.39h-.79l-.66-2.46h-2.55a3.88,3.88,0,0,0-1.28.22l-.53.2v5.81h3.94l.46-1.58h.79v4.55h-.79l-.4-2h-4v6l4.6.48,1.34-2.53Zm-5.85-14.7a1.25,1.25,0,0,1,1.28-1.23,1.23,1.23,0,1,1-1.28,1.23Z"/><path class="cls-1" d="M152.53,451.07l.4.55a5,5,0,0,1-3.74,1.32,5.16,5.16,0,0,1-5.32-5.17c0-3.41,2.29-5.72,5.32-5.72a3.74,3.74,0,0,1,4.09,3.81l-.59,1.06h-6.56v.15a4.16,4.16,0,0,0,4.33,4.53A3.61,3.61,0,0,0,152.53,451.07ZM146.19,446l5-.07a2.58,2.58,0,0,0-2.44-2.88C147.73,443.06,146.5,443.94,146.19,446Zm1.52-6.62a1.25,1.25,0,0,1,1.28-1.23,1.23,1.23,0,1,1-1.28,1.23Z"/><path class="cls-1" d="M167.8,449.38l-.55,3.34H156.82v-.66l1.94-.48V438.47l-1.94-.48v-.66H167.4l-.53,3.39h-.79l-.66-2.46h-2.55a3.88,3.88,0,0,0-1.28.22l-.53.2v5.81H165l.46-1.58h.79v4.55h-.79l-.4-2h-4v6l4.6.48,1.34-2.53Zm-4.36,6.21a1.28,1.28,0,0,1-2.55,0,1.25,1.25,0,0,1,1.28-1.23A1.2,1.2,0,0,1,163.44,455.58Z"/><path class="cls-1" d="M179.68,451.07l.4.55a5,5,0,0,1-3.74,1.32,5.16,5.16,0,0,1-5.32-5.17c0-3.41,2.29-5.72,5.32-5.72a3.74,3.74,0,0,1,4.09,3.81l-.59,1.06h-6.56v.15a4.16,4.16,0,0,0,4.33,4.53A3.61,3.61,0,0,0,179.68,451.07ZM173.34,446l5-.07a2.58,2.58,0,0,0-2.44-2.88C174.88,443.06,173.65,443.94,173.34,446Zm4.18,9.57a1.28,1.28,0,0,1-2.55,0,1.25,1.25,0,0,1,1.28-1.23A1.2,1.2,0,0,1,177.52,455.58Z"/><path class="cls-1" d="M194.95,449.38l-.55,3.34H184v-.66l1.94-.48V438.47L184,438v-.66h10.58l-.53,3.39h-.79l-.66-2.46H190a3.88,3.88,0,0,0-1.28.22l-.53.2v5.81h3.94l.46-1.58h.79v4.55h-.79l-.4-2h-4v6l4.6.48,1.34-2.53Zm-8.08-14.65-.18-.68,1.61-.77,3.06,2.16-.37.51Z"/><path class="cls-1" d="M206.83,451.07l.4.55a5,5,0,0,1-3.74,1.32,5.16,5.16,0,0,1-5.32-5.17c0-3.41,2.29-5.72,5.32-5.72a3.74,3.74,0,0,1,4.09,3.81l-.59,1.06h-6.56v.15a4.16,4.16,0,0,0,4.33,4.53A3.61,3.61,0,0,0,206.83,451.07Zm-3.39-10.76-3.19-2.88.13-.68h1.78L204,440Zm-2.95,5.7,5-.07a2.58,2.58,0,0,0-2.44-2.88C202,443.06,200.8,443.94,200.49,446Z"/><path class="cls-1" d="M222.07,449.38l-.55,3.34H211.09v-.66l1.94-.48V438.47l-1.94-.48v-.66h10.58l-.53,3.39h-.79l-.66-2.46h-2.55a3.88,3.88,0,0,0-1.28.22l-.53.2v5.81h3.94l.46-1.58h.79v4.55h-.79l-.4-2h-4v6l4.6.48,1.34-2.53ZM214.53,436l-.55-.29,2-2.27,3.32,1,1.14-1.1.51.29L219.3,436l-3.63-.95Z"/><path class="cls-1" d="M234,451.07l.4.55a5,5,0,0,1-3.74,1.32,5.16,5.16,0,0,1-5.32-5.17c0-3.41,2.29-5.72,5.32-5.72a3.74,3.74,0,0,1,4.09,3.81l-.59,1.06h-6.56v.15a4.16,4.16,0,0,0,4.33,4.53A3.61,3.61,0,0,0,234,451.07Zm-6.67-10.74-.57-.31,2.13-2.38,3.5,1,1.19-1.17.55.31-1.76,2.49-3.83-1Zm.33,5.68,5-.07a2.58,2.58,0,0,0-2.44-2.88C229.18,443.06,227.94,443.94,227.64,446Z"/><path class="cls-1" d="M249.24,449.38l-.55,3.34H238.26v-.66l1.94-.48V438.47l-1.94-.48v-.66h10.58l-.53,3.39h-.79l-.66-2.46h-2.55a3.88,3.88,0,0,0-1.28.22l-.53.2v5.81h3.94l.46-1.58h.79v4.55h-.79l-.4-2h-4v6l4.6.48,1.34-2.53Zm-1.5-14.08h-6.18v-1.17h6.18Z"/><path class="cls-1" d="M261.14,451.07l.4.55a5,5,0,0,1-3.74,1.32,5.16,5.16,0,0,1-5.32-5.17c0-3.41,2.29-5.72,5.32-5.72a3.74,3.74,0,0,1,4.09,3.81l-.59,1.06h-6.56v.15a4.16,4.16,0,0,0,4.33,4.53A3.61,3.61,0,0,0,261.14,451.07Zm-.46-10.83H254.5v-1.17h6.18ZM254.81,446l5-.07a2.58,2.58,0,0,0-2.44-2.88C256.35,443.06,255.11,443.94,254.81,446Z"/><path class="cls-1" d="M274,457.1l2.13.09v.62l-2.86.64c-2.9-.4-3.85-4.14-.73-5.72h-7.11v-.66l1.94-.48V438.47l-1.94-.48v-.66H276l-.53,3.39h-.79l-.66-2.46h-2.55a3.88,3.88,0,0,0-1.28.22l-.53.2v5.81h3.94l.46-1.58h.79v4.55h-.79l-.4-2h-4v6l4.6.48,1.34-2.53h.79l-.55,3.34h-1.63C272.27,453.16,272.12,456.18,274,457.1Z"/><path class="cls-1" d="M289.08,455.74l-2.35,2.2c-3,1.28-6.09-1.91-3.72-5.24l0,0a5.23,5.23,0,0,1-3.43-4.88c0-3.41,2.29-5.72,5.32-5.72a3.74,3.74,0,0,1,4.09,3.81l-.59,1.06h-6.56v.15a4.19,4.19,0,0,0,2.53,4.2l.24-.24.24.4a5.19,5.19,0,0,0,1.32.18,3.61,3.61,0,0,0,2.07-.53l.4.55a5,5,0,0,1-3.74,1.32,5.37,5.37,0,0,1-1.06-.09,2.72,2.72,0,0,0,2.79,3.39l2.07-1.08ZM282,446l5-.07a2.58,2.58,0,0,0-2.44-2.88C283.49,443.06,282.26,443.94,282,446Z"/><path class="cls-1" d="M308.86,445.73l-1.65.48v5.57a13,13,0,0,1-5.81,1.17c-5.44,0-8.67-3.06-8.67-7.92,0-3.3,2.51-7.92,8.65-7.92a17.71,17.71,0,0,1,5.72.9l-.22,3.94h-.75L305,439.15a5.58,5.58,0,0,0-3.5-1.1c-4.18,0-6.38,2.64-6.25,6.8.15,4.51,3.5,7.06,6.65,7.06,1.28,0,2.4-.18,3-1.14v-4.55l-2.18-.48v-.64h6.14Zm-11.53-12.54h1.32a1.89,1.89,0,0,0,3.78,0h1.32a3.23,3.23,0,0,1-6.43,0Zm8.49,6.93-.2-.31Z"/><path class="cls-1" d="M322.77,443.46h-2.31a3.47,3.47,0,0,1,.84,2.29c0,1.54-1.32,3.7-4.51,3.7a6.48,6.48,0,0,1-1.54-.18l-1.17,2.27h4.6c2.66,0,4,1.25,4,3.13,0,1.56-1.1,4-5.39,4-3.94,0-5.26-2.38-5.44-4l1.54-1.41-1.23-1.85,2.29-2.35a3.48,3.48,0,0,1-2.24-3.28c0-1.52,1.34-3.7,4.53-3.7a5.21,5.21,0,0,1,2.93.75l2.68-1.14h.37Zm-9.22-5.5h1.32a1.89,1.89,0,0,0,3.78,0H320a3.23,3.23,0,0,1-6.42,0Zm4.8,15.67h-4.16l-.33.42c-.07,1.85,1.85,3.56,4.49,3.56,1.74,0,2.68-.75,2.68-2.07S320.19,453.63,318.34,453.63Zm.79-7.75a2.63,2.63,0,0,0-2.49-2.9c-1.32,0-2.24.92-2.24,2.66a2.62,2.62,0,0,0,2.49,2.88C318.23,448.52,319.14,447.6,319.14,445.88Z"/><path class="cls-1" d="M341.86,445.73l-1.65.48v5.57a13,13,0,0,1-5.81,1.17c-5.43,0-8.67-3.06-8.67-7.92,0-3.3,2.51-7.92,8.65-7.92a17.71,17.71,0,0,1,5.72.9l-.22,3.94h-.75L338,439.15a5.58,5.58,0,0,0-3.5-1.1c-4.18,0-6.38,2.64-6.25,6.8.15,4.51,3.5,7.06,6.64,7.06,1.28,0,2.4-.18,3-1.14v-4.55l-2.18-.48v-.64h6.14Zm-8.62-9.88-2.88-2.64.44-.51,2.75,1.61,2.73-1.61.44.51-2.86,2.64Zm5.59,4.27-.2-.31Z"/><path class="cls-1" d="M355.79,443.46h-2.31a3.47,3.47,0,0,1,.84,2.29c0,1.54-1.32,3.7-4.51,3.7a6.47,6.47,0,0,1-1.54-.18l-1.17,2.27h4.6c2.66,0,4,1.25,4,3.13,0,1.56-1.1,4-5.39,4-3.94,0-5.26-2.38-5.43-4l1.54-1.41-1.23-1.85,2.29-2.35a3.48,3.48,0,0,1-2.24-3.28c0-1.52,1.34-3.7,4.53-3.7a5.21,5.21,0,0,1,2.93.75l2.68-1.14h.37Zm-4.42,10.17h-4.16l-.33.42c-.07,1.85,1.85,3.56,4.49,3.56,1.74,0,2.68-.75,2.68-2.07S353.21,453.63,351.37,453.63Zm-1.89-13.09-2.6-3,.42-.46,2.46,1.69,2.49-1.69.42.46-2.6,3Zm2.68,5.35a2.63,2.63,0,0,0-2.49-2.9c-1.32,0-2.24.92-2.24,2.66a2.62,2.62,0,0,0,2.49,2.88C351.25,448.52,352.16,447.6,352.16,445.88Z"/><path class="cls-1" d="M374.88,445.73l-1.65.48v5.57a13,13,0,0,1-5.81,1.17c-5.43,0-8.67-3.06-8.67-7.92,0-3.3,2.51-7.92,8.65-7.92a17.71,17.71,0,0,1,5.72.9l-.22,3.94h-.75L371,439.15a5.58,5.58,0,0,0-3.5-1.1c-4.18,0-6.38,2.64-6.25,6.8.15,4.51,3.5,7.06,6.64,7.06,1.28,0,2.4-.18,3-1.14v-4.55l-2.18-.48v-.64h6.14Zm-11.07-9.44-.44-.51,2.88-2.64h.62l2.86,2.64-.44.51-2.73-1.61Zm8,3.83-.2-.31Z"/><path class="cls-1" d="M388.79,443.46h-2.31a3.47,3.47,0,0,1,.84,2.29c0,1.54-1.32,3.7-4.51,3.7a6.47,6.47,0,0,1-1.54-.18l-1.17,2.27h4.6c2.66,0,4,1.25,4,3.13,0,1.56-1.1,4-5.39,4-3.94,0-5.26-2.38-5.43-4l1.54-1.41-1.23-1.85,2.29-2.35a3.48,3.48,0,0,1-2.24-3.28c0-1.52,1.34-3.7,4.53-3.7a5.21,5.21,0,0,1,2.93.75l2.68-1.14h.37Zm-4.42,10.17h-4.16l-.33.42c-.07,1.85,1.85,3.56,4.49,3.56,1.74,0,2.68-.75,2.68-2.07S386.21,453.63,384.36,453.63ZM380.29,441l-.42-.46,2.6-3h.59l2.6,3-.42.46-2.49-1.69Zm4.86,4.91a2.63,2.63,0,0,0-2.49-2.9c-1.32,0-2.24.92-2.24,2.66a2.62,2.62,0,0,0,2.49,2.88C384.25,448.52,385.16,447.6,385.16,445.88Z"/><path class="cls-1" d="M407.88,445.73l-1.65.48v5.57a13,13,0,0,1-5.81,1.17c-5.43,0-8.67-3.06-8.67-7.92,0-3.3,2.51-7.92,8.65-7.92a17.71,17.71,0,0,1,5.72.9l-.22,3.94h-.75L404,439.15a5.58,5.58,0,0,0-3.5-1.1c-4.18,0-6.38,2.64-6.25,6.8.15,4.51,3.5,7.06,6.64,7.06,1.28,0,2.4-.18,3-1.14v-4.55l-2.18-.48v-.64h6.14Zm-7,10.14a6.39,6.39,0,0,1-1.52,3.81l-.44-.22a8.26,8.26,0,0,0,1-2.93l-.57-.2c-.57-.24-1.06-.4-1.06-1.17A1.16,1.16,0,0,1,399.5,454C400.29,454,400.86,454.84,400.86,455.87Zm4-15.75-.2-.31Z"/><path class="cls-1" d="M421.76,443.46h-2.31a3.47,3.47,0,0,1,.84,2.29c0,1.54-1.32,3.7-4.51,3.7a6.47,6.47,0,0,1-1.54-.18l-1.17,2.27h4.6c2.66,0,4,1.25,4,3.13,0,1.56-1.1,4-5.39,4-3.94,0-5.26-2.38-5.43-4l1.54-1.41-1.23-1.85,2.29-2.35a3.48,3.48,0,0,1-2.24-3.28c0-1.52,1.34-3.7,4.53-3.7a5.21,5.21,0,0,1,2.93.75l2.68-1.14h.37Zm-4.42,10.17h-4.16l-.33.42c-.07,1.85,1.85,3.56,4.49,3.56,1.74,0,2.68-.75,2.68-2.07S419.19,453.63,417.34,453.63Zm.79-7.75a2.63,2.63,0,0,0-2.49-2.9c-1.32,0-2.24.92-2.24,2.66a2.62,2.62,0,0,0,2.49,2.88C417.23,448.52,418.13,447.6,418.13,445.88Zm-3.89-6.82a6.39,6.39,0,0,1,1.52-3.81l.44.22a8.24,8.24,0,0,0-1,2.93l.57.2c.57.24,1.06.4,1.06,1.17a1.15,1.15,0,0,1-1.23,1.12C414.81,440.89,414.24,440.09,414.24,439.06Z"/><path class="cls-1" d="M440.84,445.73l-1.65.48v5.57a13,13,0,0,1-5.81,1.17c-5.43,0-8.67-3.06-8.67-7.92,0-3.3,2.51-7.92,8.65-7.92a17.71,17.71,0,0,1,5.72.9l-.22,3.94h-.75L437,439.15a5.58,5.58,0,0,0-3.5-1.1c-4.18,0-6.38,2.64-6.25,6.8.15,4.51,3.5,7.06,6.64,7.06,1.28,0,2.4-.18,3-1.14v-4.55l-2.18-.48v-.64h6.14Zm-9.59-11.29a1.25,1.25,0,0,1,1.28-1.23,1.23,1.23,0,1,1-1.28,1.23Zm6.56,5.68-.2-.31Z"/><path class="cls-1" d="M454.72,443.46h-2.31a3.47,3.47,0,0,1,.84,2.29c0,1.54-1.32,3.7-4.51,3.7a6.47,6.47,0,0,1-1.54-.18L446,451.54h4.6c2.66,0,4,1.25,4,3.13,0,1.56-1.1,4-5.39,4-3.94,0-5.26-2.38-5.43-4l1.54-1.41-1.23-1.85,2.29-2.35a3.48,3.48,0,0,1-2.24-3.28c0-1.52,1.34-3.7,4.53-3.7a5.21,5.21,0,0,1,2.93.75l2.68-1.14h.37Zm-4.42,10.17h-4.16l-.33.42c-.07,1.85,1.85,3.56,4.49,3.56,1.74,0,2.68-.75,2.68-2.07S452.15,453.63,450.3,453.63Zm.79-7.75a2.63,2.63,0,0,0-2.49-2.9c-1.32,0-2.24.92-2.24,2.66a2.62,2.62,0,0,0,2.49,2.88C450.19,448.52,451.09,447.6,451.09,445.88Zm-3.65-6.49a1.25,1.25,0,0,1,1.28-1.23,1.23,1.23,0,1,1-1.28,1.23Z"/><path class="cls-1" d="M472.3,438.44v3.3h1.92v1.14H472.3v8.71l1.92.46v.66h-6.14v-.66l1.92-.46v-5.41h-8.27v5.41l1.91.46v.66h-6.14v-.66l1.91-.46v-8.71h-1.91v-1.14h1.91v-3.3l-1.91-.46v-.66h6.14V438l-1.91.46v3.3H470v-3.3l-1.92-.46v-.66h6.14V438ZM470,442.89h-8.27V445H470Z"/><path class="cls-1" d="M490.1,452.11v.62h-5.72v-.62l1.8-.42v-5.5c0-1.69-.77-2.57-1.89-2.57a7.43,7.43,0,0,0-3.21,1.41v6.67l1.8.42v.62h-5.72v-.62l1.8-.42V440.8H477v-1.06H479V438l-1.91-.53v-.57l3.45-.88h.57v3.74h3.61v1.06h-3.61v3.1l1-.64a6.23,6.23,0,0,1,3.15-1.21c1.92,0,3.06,1.65,3.06,3.65v6Z"/><path class="cls-1" d="M507.7,438.44V451.6l1.91.46v.66h-6.14v-.66l1.91-.46v-6.51h-8.27v6.51l1.92.46v.66h-6.14v-.66l1.92-.46V438.44l-1.92-.46v-.66H499V438l-1.92.46v5.5h8.27v-5.5l-1.91-.46v-.66h6.14V438Zm-9.2-2.16-.44-.51,2.88-2.64h.62l2.86,2.64-.44.51-2.73-1.61Z"/><path class="cls-1" d="M512.69,435.74l-.44-.51,2.88-2.64h.62l2.86,2.64-.44.51-2.73-1.61Zm12.81,16.37v.62h-5.72v-.62l1.8-.42v-5.5c0-1.69-.77-2.57-1.89-2.57a7.43,7.43,0,0,0-3.21,1.41v6.67l1.8.42v.62h-5.72v-.62l1.8-.42V438l-1.91-.53v-.57l3.45-.88h.57v7.9l1-.64a6.23,6.23,0,0,1,3.15-1.21c1.92,0,3.06,1.65,3.06,3.65v6Z"/><path class="cls-1" d="M534.43,438l-1.92.46V451.6l1.92.46v.66h-6.14v-.66l1.92-.46V438.44l-1.92-.46v-.66h6.14Zm.73-4.16-.15.73-4.31,1.39-.4-.51,3.15-2.35Z"/><path class="cls-1" d="M543.31,452.15v.57h-5.72v-.57l1.8-.48v-7.72l-1.8-.48v-.57l3.34-.84h.57v9.62Zm-3.39-11.31-.55-.29,1.83-3.28H543l.13.68Z"/><path class="cls-1" d="M546,433.18h1.32a1.89,1.89,0,0,0,3.78,0h1.32a3.23,3.23,0,0,1-6.42,0Zm6.27,4.8-1.92.46V451.6l1.92.46v.66h-6.14v-.66l1.92-.46V438.44l-1.92-.46v-.66h6.14Z"/><path class="cls-1" d="M554.84,438h1.32a1.89,1.89,0,0,0,3.78,0h1.32a3.23,3.23,0,0,1-6.42,0Zm4.53,13.71,1.8.48v.57h-5.72v-.57l1.8-.48v-7.72l-1.8-.48v-.57l3.34-.84h.57Z"/><path class="cls-1" d="M564.34,436.29l-.44-.51,2.88-2.64h.62l2.86,2.64-.44.51-2.73-1.61Zm5.81,1.69-1.92.46V451.6l1.92.46v.66H564v-.66l1.92-.46V438.44L564,438v-.66h6.14Z"/><path class="cls-1" d="M573.45,441l-.42-.46,2.6-3h.59l2.6,3-.42.46-2.49-1.69Zm5.61,11.18v.57h-5.72v-.57l1.8-.48v-7.72l-1.8-.48v-.57l3.34-.84h.57v9.62Z"/><path class="cls-1" d="M581.81,434.86a1.23,1.23,0,0,1,1.23-1.21,1.19,1.19,0,1,1,0,2.38A1.14,1.14,0,0,1,581.81,434.86ZM588,438l-1.92.46V451.6l1.92.46v.66h-6.14v-.66l1.92-.46V438.44l-1.92-.46v-.66H588Zm-2.38-3.12a1.23,1.23,0,0,1,1.21-1.21,1.19,1.19,0,1,1,0,2.38A1.12,1.12,0,0,1,585.64,434.86Z"/><path class="cls-1" d="M591.84,440.4a1.14,1.14,0,0,1-1.21-1.17,1.23,1.23,0,0,1,1.23-1.21,1.19,1.19,0,1,1,0,2.38Zm3.26,11.27,1.8.48v.57h-5.72v-.57l1.8-.48v-7.72l-1.8-.48v-.57l3.34-.84h.57Zm-.64-12.43a1.23,1.23,0,0,1,1.21-1.21,1.19,1.19,0,1,1,0,2.38A1.12,1.12,0,0,1,594.46,439.24Z"/><path class="cls-1" d="M604,438.44V451.6l1.92.46v.66h-6.14v-.66l1.92-.46V438.44l-1.92-.46v-.66h6.14V438Zm-2.42-4a1.25,1.25,0,0,1,1.28-1.23,1.23,1.23,0,1,1-1.28,1.23Z"/><path class="cls-1" d="M43.32,475.45v13.16l1.91.46v.66H39.1v-.66l1.91-.46V475.45L39.1,475v-.66h6.14V475Zm.13,17.14a1.28,1.28,0,0,1-2.55,0,1.25,1.25,0,0,1,1.28-1.23A1.2,1.2,0,0,1,43.45,492.59Z"/><path class="cls-1" d="M54.15,489.16v.57H48.43v-.57l1.8-.48v-7.72l-1.8-.48v-.57l3.34-.84h.57v9.62Zm-1.74,3.43a1.28,1.28,0,0,1-2.55,0,1.25,1.25,0,0,1,1.28-1.23A1.2,1.2,0,0,1,52.41,492.59Zm-2.49-17.14a1.29,1.29,0,0,1,1.32-1.28,1.27,1.27,0,1,1,0,2.53A1.22,1.22,0,0,1,49.92,475.45Z"/><path class="cls-1" d="M60.68,472.94l-4.11-1.21-.18-.68,1.61-.77,3.06,2.16Zm.53,2.51v13.16l1.91.46v.66H57v-.66l1.91-.46V475.45L57,475v-.66h6.14V475Z"/><path class="cls-1" d="M69.06,477.32l-3.19-2.88.13-.68h1.78L69.61,477Zm3,11.84v.57H66.31v-.57l1.8-.48v-7.72l-1.8-.48v-.57l3.34-.84h.57v9.62Z"/><path class="cls-1" d="M81,471.13v1.17H74.85v-1.17ZM81,475l-1.91.46v13.16l1.91.46v.66H74.87v-.66l1.91-.46V475.45L74.87,475v-.66H81Z"/><path class="cls-1" d="M89.87,477.25H83.69v-1.17h6.18Zm0,11.9v.57H84.2v-.57l1.8-.48v-7.72l-1.8-.48v-.57l3.34-.84h.57v9.62Z"/><path class="cls-1" d="M97,475.45v13.16l1.91.46v.66H96.76c-2,.44-2.11,3.45-.24,4.38l2.13.09v.62l-2.86.64c-2.9-.4-3.85-4.14-.73-5.72H92.75v-.66l1.91-.46V475.45L92.75,475v-.66h6.14V475Z"/><path class="cls-1" d="M105.56,494.11l2.13.09v.62l-2.86.64c-2.9-.4-3.85-4.14-.73-5.72h-2v-.57l1.8-.48v-7.72l-1.8-.48v-.57l3.34-.84H106v9.62l1.8.48v.57h-2C103.84,490.17,103.69,493.18,105.56,494.11Zm-2-18.66a1.29,1.29,0,0,1,1.32-1.28,1.27,1.27,0,1,1,0,2.53A1.22,1.22,0,0,1,103.58,475.45Z"/><path class="cls-1" d="M110.75,473l-.55-.29,2-2.27,3.32,1,1.14-1.1.51.29L115.52,473l-3.63-.95Zm6,1.94-1.91.46v13.16l1.91.46v.66h-6.14v-.66l1.91-.46V475.45l-1.91-.46v-.66h6.14Z"/><path class="cls-1" d="M125.69,489.16v.57H120v-.57l1.8-.48v-7.72l-1.8-.48v-.57l3.34-.84h.57v9.62Z"/><path class="cls-1" d="M137.79,475l-2.13.48v8.82c0,3.43-1.8,5.65-4.58,5.65a5.48,5.48,0,0,1-3.52-1.19v-3.12h.66l1.34,2.77A2.07,2.07,0,0,0,131,489c1.52,0,2.35-1.28,2.35-4v-9.53l-2.13-.48v-.66h6.58Zm-6-1.69-.44-.51,2.88-2.64h.62l2.86,2.64-.44.51-2.73-1.61Z"/><path class="cls-1" d="M144,479.06h.57v9.2c0,5.17-1.23,6.78-4.33,7.33l-.15-.68c2.11-.59,2.38-1.52,2.38-4.31v-9.46l-2.13-.57V480Zm2.18-1.54-.42.46-2.49-1.69L140.8,478l-.42-.46,2.6-3h.59Z"/><path class="cls-1" d="M152.9,479.06v9.2c0,5.17-1.23,6.78-4.33,7.33l-.15-.68c2.11-.59,2.38-1.52,2.38-4.31v-9.46l-2.13-.57V480l3.67-.92Z"/><path class="cls-1" d="M163.57,489.73h-6.14v-.66l1.91-.46V475.45l-1.91-.46v-.66h6.14V475l-1.91.46v13.16l1.91.46Zm8-.66v.66h-3.5l-5.81-8,5.44-6.23-1.52-.53v-.66H171V475l-1.94.53-4.73,5.54,6.1,7.66Zm-5.5,3.81a6.39,6.39,0,0,1-1.52,3.81l-.44-.22a8.26,8.26,0,0,0,1-2.93l-.57-.2c-.57-.24-1.06-.4-1.06-1.17a1.15,1.15,0,0,1,1.23-1.12C165.49,491,166.06,491.84,166.06,492.87Z"/><path class="cls-1" d="M179.06,489.73h-5.72v-.62l1.69-.4V475l-1.91-.53v-.57l3.45-.88h.57v15.67l1.91.44Zm6.43-.57v.57h-3.1l-4.64-6.21,4.27-2.86-2.16-.81v-.57h4.84v.57l-4.93,3.32,4.73,5.63Zm-4.25,3.72a6.39,6.39,0,0,1-1.52,3.81l-.44-.22a8.25,8.25,0,0,0,1-2.93l-.57-.2c-.57-.24-1.06-.4-1.06-1.17a1.16,1.16,0,0,1,1.23-1.12C180.67,491,181.24,491.84,181.24,492.87Z"/><path class="cls-1" d="M191.82,488.67l1.91.48v.57H187.9v-.57l1.8-.48v-7.72l-1.8-.48v-.57l3.34-.84h.57Zm8.34.48v.57H197l-4.58-5.33,4.47-3.7-2.11-.86v-.57h4.62v.57l-4.84,3.94,4.55,5Z"/><path class="cls-1" d="M213.86,485.77l-.57,4H202.84v-.66l1.74-.44V475.49l-2-.51v-.66h6.07V475l-1.8.48v12.94l4.82.37,1.54-3ZM205,472.94l-.4-.51,3.15-2.35,1.72.75-.15.73Z"/><path class="cls-1" d="M219.93,488.72l1.91.44v.57h-5.72v-.57l1.69-.4V475l-1.91-.53v-.57l3.45-.88h.57Zm2.66-18.9-.15.73-4.31,1.39-.4-.51,3.15-2.35Z"/><path class="cls-1" d="M227.41,472.85l-2.88-2.64.44-.51,2.75,1.61,2.73-1.61.44.51L228,472.85Zm8.45,12.92-.57,4H224.84v-.66l1.74-.44V475.49l-2-.51v-.66h6.07V475l-1.8.48v12.94l4.82.37,1.54-3Z"/><path class="cls-1" d="M241.93,488.72l1.91.44v.57h-5.72v-.57l1.69-.4V475l-1.91-.53v-.57l3.45-.88h.57ZM245.52,473l-1.5,3.92-.59-.15.4-4,.48-.33Z"/><path class="cls-1" d="M257.86,485.77l-.57,4H246.84v-.66l1.74-.44V475.49l-2-.51v-.66h6.07V475l-1.8.48v12.94l4.82.37,1.54-3Zm-3.94,7.11a6.39,6.39,0,0,1-1.52,3.81l-.44-.22a8.24,8.24,0,0,0,1-2.93l-.57-.2c-.57-.24-1.06-.4-1.06-1.17a1.16,1.16,0,0,1,1.23-1.12C253.35,491,253.92,491.84,253.92,492.87Z"/><path class="cls-1" d="M265.85,489.16v.57h-5.72v-.57l1.69-.4V475l-1.91-.53v-.57l3.45-.88h.57v15.71Zm-1.52,3.72a6.39,6.39,0,0,1-1.52,3.81l-.44-.22a8.24,8.24,0,0,0,1-2.93l-.57-.2c-.57-.24-1.06-.4-1.06-1.17A1.15,1.15,0,0,1,263,491C263.76,491,264.33,491.84,264.33,492.87Z"/><path class="cls-1" d="M279.86,485.77l-.57,4H268.84v-.66l1.74-.44V475.49l-2-.51v-.66h6.07V475l-1.8.48v12.94l4.82.37,1.54-3Zm-5.15-4.29a1.41,1.41,0,0,1,1.47-1.41,1.37,1.37,0,0,1,1.45,1.39,1.34,1.34,0,0,1-1.47,1.45A1.37,1.37,0,0,1,274.71,481.48Z"/><path class="cls-1" d="M285.91,488.72l1.91.44v.57H282.1v-.57l1.69-.4V475l-1.91-.53v-.57l3.45-.88h.57Zm3.72-7.31a1.35,1.35,0,0,1-2.71,0,1.32,1.32,0,0,1,1.34-1.3A1.29,1.29,0,0,1,289.63,481.41Z"/><path class="cls-1" d="M306.7,475l-1.89.55v14.41h-1L293.52,477l0,11.38,3.12.68v.66h-6.4v-.66l2.11-.55V475.67l-2.11-.68v-.66h4.31L303.67,486l0-10.34-2.9-.66v-.66h6Zm-8.43-1.83-.4-.51L301,470.3l1.72.75-.15.73Z"/><path class="cls-1" d="M322.28,489.16v.57h-5.72v-.57l1.8-.48v-5.48c0-1.69-.77-2.57-1.89-2.57a7.42,7.42,0,0,0-3.21,1.41v6.65l1.8.48v.57h-5.72v-.57l1.8-.48v-7.72l-1.8-.48v-.57l3.12-.84H313l.18,1.89,1.1-.68a6.23,6.23,0,0,1,3.15-1.21c1.91,0,3.06,1.65,3.06,3.65v6Zm-6.78-11.31-.55-.29,1.83-3.28h1.78l.13.68Z"/><path class="cls-1" d="M337.94,489.16v.57h-5.72v-.57l1.8-.48v-5.48c0-1.69-.77-2.57-1.89-2.57a7.43,7.43,0,0,0-3.21,1.41v6.65l1.8.48v.57H325v-.57l1.8-.48v-7.72l-1.8-.48v-.57l3.12-.84h.53l.18,1.89,1.1-.68a6.22,6.22,0,0,1,3.15-1.21c1.91,0,3.06,1.65,3.06,3.65v6ZM326.1,474a1.12,1.12,0,0,1,1.25-1.21,1.44,1.44,0,0,1,1.43,1.56,6.16,6.16,0,0,1-2.2,4.33l-.44-.29a6.88,6.88,0,0,0,1.67-2.82c-.29-.15-.46-.26-.77-.42C326.52,474.88,326.1,474.66,326.1,474Z"/><path class="cls-1" d="M356.93,475l-1.89.55v14.41h-1L343.75,477l0,11.38,3.13.68v.66h-6.4v-.66l2.11-.55V475.67l-2.11-.68v-.66h4.31L353.89,486l0-10.34L351,475v-.66h6Zm-8.05-1.91L346,470.43l.44-.51,2.75,1.61,2.73-1.61.44.51-2.86,2.64Z"/><path class="cls-1" d="M372.53,489.16v.57H366.8v-.57l1.8-.48v-5.48c0-1.69-.77-2.57-1.89-2.57A7.43,7.43,0,0,0,363.5,482v6.65l1.8.48v.57h-5.72v-.57l1.8-.48v-7.72l-1.8-.48v-.57l3.12-.84h.53l.18,1.89,1.1-.68a6.22,6.22,0,0,1,3.15-1.21c1.91,0,3.06,1.65,3.06,3.65v6Zm-6.82-11.62-2.6-3,.42-.46,2.46,1.69,2.49-1.69.42.46-2.6,3Z"/><path class="cls-1" d="M391.51,475l-1.89.55v14.41h-1L378.33,477l0,11.38,3.13.68v.66h-6.4v-.66l2.11-.55V475.67l-2.11-.68v-.66h4.31L388.48,486l0-10.34-2.9-.66v-.66h6Zm-7,17.89a6.39,6.39,0,0,1-1.52,3.81l-.44-.22a8.25,8.25,0,0,0,1-2.93l-.57-.2c-.57-.24-1.06-.4-1.06-1.17a1.16,1.16,0,0,1,1.23-1.12C383.9,491,384.47,491.84,384.47,492.87Z"/><path class="cls-1" d="M407.09,489.16v.57h-5.72v-.57l1.8-.48v-5.48c0-1.69-.77-2.57-1.89-2.57a7.43,7.43,0,0,0-3.21,1.41v6.65l1.8.48v.57h-5.72v-.57l1.8-.48v-7.72l-1.8-.48v-.57l3.12-.84h.53l.18,1.89,1.1-.68a6.22,6.22,0,0,1,3.15-1.21c1.91,0,3.06,1.65,3.06,3.65v6Zm-5,3.72a6.39,6.39,0,0,1-1.52,3.81l-.44-.22a8.27,8.27,0,0,0,1-2.93l-.57-.2c-.57-.24-1.06-.4-1.06-1.17a1.16,1.16,0,0,1,1.23-1.12C401.5,491,402.07,491.84,402.07,492.87Z"/><path class="cls-1" d="M426.05,475l-1.89.55v14.41h-1L412.87,477l0,11.38,3.13.68v.66h-6.4v-.66l2.11-.55V475.67l-2.11-.68v-.66h4.31L423,486l0-10.34-2.9-.66v-.66h6Zm-10.72-1.72-.55-.29,2-2.27,3.32,1,1.14-1.1.51.29-1.67,2.35-3.63-.95Z"/><path class="cls-1" d="M441.6,489.16v.57h-5.72v-.57l1.8-.48v-5.48c0-1.69-.77-2.57-1.89-2.57a7.43,7.43,0,0,0-3.21,1.41v6.65l1.8.48v.57h-5.72v-.57l1.8-.48v-7.72l-1.8-.48v-.57l3.12-.84h.53l.18,1.89,1.1-.68a6.22,6.22,0,0,1,3.15-1.21c1.91,0,3.06,1.65,3.06,3.65v6ZM432,477.34l-.57-.31,2.13-2.38,3.5,1,1.19-1.17.55.31L437,477.3l-3.83-1Z"/><path class="cls-1" d="M462,475l-2.13.48v14.32c0,3.43-1.8,5.65-4.58,5.65a5.47,5.47,0,0,1-3.52-1.19v-3.12h.66l1.36,2.77a2,2,0,0,0,1.41.57c1.52,0,2.35-1.28,2.35-4v-.66L447.39,477l0,11.38,3.13.68v.66h-6.4v-.66l2.11-.55V475.67l-2.11-.68v-.66h4.31l8.56,11,.9,2.24.15,0-.53-2.27v-9.64l-2.93-.64v-.66H462Zm-8.69,18.31a.77.77,0,0,0,.11.18Z"/><path class="cls-1" d="M475.92,482.71v5.54c0,5.17-1.23,6.78-4.33,7.33l-.15-.68c2.11-.59,2.38-1.52,2.38-4.31v-7.39c0-1.69-.77-2.57-1.89-2.57a7.43,7.43,0,0,0-3.21,1.41v6.65l1.8.48v.57h-5.72v-.57l1.8-.48v-7.72l-1.8-.48v-.57l3.12-.84h.53l.18,1.89,1.1-.68a6.22,6.22,0,0,1,3.15-1.21C474.78,479.06,475.92,480.71,475.92,482.71Z"/><path class="cls-1" d="M499.11,475l-1.89.55v14.41h-1l-9.09-11.46v9.9c0,3.43-1.8,5.65-4.58,5.65a5.47,5.47,0,0,1-3.52-1.19v-3.12h.66L481,492.5a2.07,2.07,0,0,0,1.43.57c1.52,0,2.35-1.28,2.35-4V475.67l-2.11-.68v-.66H487L496.08,486l0-10.34-2.9-.66v-.66h6Z"/><path class="cls-1" d="M514.64,489.16v.57h-5.72v-.57l1.8-.48v-5.48c0-1.69-.77-2.57-1.89-2.57a7.43,7.43,0,0,0-3.21,1.41v6.23c0,5.17-1.23,6.78-4.33,7.33l-.15-.68c2.11-.59,2.38-1.52,2.38-4.31v-9.46l-2.13-.57V480l3.67-.92h.57v1.85l1-.64a6.22,6.22,0,0,1,3.15-1.21c1.91,0,3.06,1.65,3.06,3.65v6Z"/><path class="cls-1" d="M517.59,482a7.91,7.91,0,0,1,8.19-7.92c6,0,8.18,4.29,8.18,7.92a7.91,7.91,0,0,1-8.18,7.92C519.77,489.95,517.59,485.66,517.59,482Zm13.86.4c0-4.4-2.68-7.22-5.94-7.22s-5.37,2.22-5.41,6.43c0,4.4,2.68,7.22,5.94,7.22S531.41,486.63,531.45,482.42Zm-6.75-10,3.15-2.35,1.72.75-.15.73-4.31,1.39Z"/><path class="cls-1" d="M537.41,484.51a5.37,5.37,0,0,1,5.37-5.46,5,5,0,0,1,5.39,5.24c0,3.1-1.72,5.65-5.35,5.65A5.14,5.14,0,0,1,537.41,484.51Zm8.47.18c0-3.06-1.52-4.69-3.19-4.69s-3,1.36-3,4.14c0,2.95,1.45,4.86,3.46,4.86C544.61,489,545.88,488,545.88,484.69ZM542,477.56l1.83-3.28h1.78l.13.68-3.19,2.88Z"/><path class="cls-1" d="M551.6,482a7.91,7.91,0,0,1,8.19-7.92c6,0,8.18,4.29,8.18,7.92a7.91,7.91,0,0,1-8.18,7.92C553.78,489.95,551.6,485.66,551.6,482Zm13.86.4c0-4.4-2.68-7.22-5.94-7.22s-5.37,2.22-5.41,6.43c0,4.4,2.68,7.22,5.94,7.22S565.42,486.63,565.46,482.42Zm-3.79-12.23a1.89,1.89,0,0,1-3.78,0h-1.32a3.23,3.23,0,0,0,6.42,0Z"/><path class="cls-1" d="M571.4,484.51a5.37,5.37,0,0,1,5.37-5.46,5,5,0,0,1,5.39,5.24c0,3.1-1.72,5.65-5.35,5.65A5.14,5.14,0,0,1,571.4,484.51Zm7.28-9.55a1.89,1.89,0,0,1-3.79,0h-1.32a3.23,3.23,0,0,0,6.43,0Zm1.19,9.72c0-3.06-1.52-4.69-3.19-4.69s-3,1.36-3,4.14c0,2.95,1.45,4.86,3.46,4.86C578.6,489,579.87,488,579.87,484.69Z"/><path class="cls-1" d="M602,482a7.91,7.91,0,0,1-8.18,7.92c-6,0-8.19-4.29-8.19-7.92a7.91,7.91,0,0,1,8.19-7.92C599.81,474.11,602,478.4,602,482Zm-8.45-6.82c-3.19,0-5.37,2.22-5.41,6.43,0,4.4,2.68,7.22,5.94,7.22s5.37-2.22,5.41-6.42C599.52,478,596.79,475.21,593.53,475.21ZM591,473.29l-.44-.51,2.88-2.64h.62l2.86,2.64-.44.51-2.73-1.61Z"/><path class="cls-1" d="M47.11,521.3c0,3.1-1.72,5.65-5.35,5.65a5.14,5.14,0,0,1-5.41-5.43,5.37,5.37,0,0,1,5.37-5.46A5,5,0,0,1,47.11,521.3Zm-2.29.4c0-3.06-1.52-4.69-3.19-4.69s-3,1.36-3,4.14c0,2.95,1.45,4.86,3.45,4.86C43.54,526,44.82,525,44.82,521.69ZM39.25,515l-.42-.46,2.6-3H42l2.6,3-.42.46-2.49-1.69Z"/><path class="cls-1" d="M50.56,519a7.91,7.91,0,0,1,8.19-7.92c6,0,8.19,4.29,8.19,7.92A7.91,7.91,0,0,1,58.75,527C52.74,527,50.56,522.66,50.56,519Zm13.86.4c0-4.4-2.68-7.22-5.94-7.22s-5.37,2.22-5.41,6.43c0,4.4,2.68,7.22,5.94,7.22S64.38,523.63,64.42,519.43Zm-7.59-11.77a1.19,1.19,0,1,1,0,2.38,1.14,1.14,0,0,1-1.21-1.17A1.23,1.23,0,0,1,56.83,507.65Zm3.81,0a1.19,1.19,0,1,1,0,2.38,1.12,1.12,0,0,1-1.19-1.17A1.23,1.23,0,0,1,60.64,507.65Z"/><path class="cls-1" d="M70.38,521.52a5.37,5.37,0,0,1,5.37-5.46,5,5,0,0,1,5.39,5.24c0,3.1-1.72,5.65-5.35,5.65A5.14,5.14,0,0,1,70.38,521.52ZM73.86,512a1.19,1.19,0,1,1,0,2.38,1.14,1.14,0,0,1-1.21-1.17A1.23,1.23,0,0,1,73.86,512Zm5,9.66c0-3.06-1.52-4.69-3.19-4.69s-3,1.36-3,4.14c0,2.95,1.45,4.86,3.45,4.86C77.58,526,78.85,525,78.85,521.69ZM77.67,512a1.19,1.19,0,1,1,0,2.38,1.12,1.12,0,0,1-1.19-1.17A1.23,1.23,0,0,1,77.67,512Z"/><path class="cls-1" d="M84.59,519a7.91,7.91,0,0,1,8.19-7.92c6,0,8.19,4.29,8.19,7.92A7.91,7.91,0,0,1,92.78,527C86.77,527,84.59,522.66,84.59,519Zm13.86.4c0-4.4-2.68-7.22-5.94-7.22s-5.37,2.22-5.41,6.43c0,4.4,2.68,7.22,5.94,7.22S98.41,523.63,98.46,519.43Zm-5.68,9a1.23,1.23,0,1,1-1.28,1.23A1.25,1.25,0,0,1,92.78,528.38Z"/><path class="cls-1" d="M104.42,521.52a5.37,5.37,0,0,1,5.37-5.46,5,5,0,0,1,5.39,5.24c0,3.1-1.72,5.65-5.35,5.65A5.14,5.14,0,0,1,104.42,521.52Zm8.47.18c0-3.06-1.52-4.69-3.19-4.69s-3,1.36-3,4.14c0,2.95,1.45,4.86,3.45,4.86C111.61,526,112.89,525,112.89,521.69Zm-3.08,6.69a1.23,1.23,0,1,1-1.28,1.23A1.25,1.25,0,0,1,109.81,528.38Z"/><path class="cls-1" d="M118.65,519a7.91,7.91,0,0,1,8.19-7.92c6,0,8.19,4.29,8.19,7.92a7.91,7.91,0,0,1-8.19,7.92C120.83,527,118.65,522.66,118.65,519Zm13.86.4c0-4.4-2.68-7.22-5.94-7.22s-5.37,2.22-5.41,6.43c0,4.4,2.68,7.22,5.94,7.22S132.47,523.63,132.51,519.43Zm-9.18-10.69-.18-.68,1.61-.77,3.06,2.16-.37.51Z"/><path class="cls-1" d="M138.47,521.52a5.37,5.37,0,0,1,5.37-5.46,5,5,0,0,1,5.39,5.24c0,3.1-1.72,5.65-5.35,5.65A5.14,5.14,0,0,1,138.47,521.52Zm8.47.18c0-3.06-1.52-4.69-3.19-4.69s-3,1.36-3,4.14c0,2.95,1.45,4.86,3.45,4.86C145.67,526,146.94,525,146.94,521.69Zm-6.12-10.25.13-.68h1.78l1.83,3.28-.55.29Z"/><path class="cls-1" d="M152.71,519a7.91,7.91,0,0,1,8.19-7.92c6,0,8.19,4.29,8.19,7.92a7.91,7.91,0,0,1-8.19,7.92C154.88,527,152.71,522.66,152.71,519Zm13.86.4c0-4.4-2.68-7.22-5.94-7.22s-5.37,2.22-5.41,6.43c0,4.4,2.68,7.22,5.94,7.22S166.52,523.63,166.57,519.43Zm-7.94-9.81,1.83-3.28h1.78l.13.68-3.19,2.88Zm3.52,0,1.83-3.28h1.78l.13.68-3.19,2.88Z"/><path class="cls-1" d="M172.53,521.52a5.37,5.37,0,0,1,5.37-5.46,5,5,0,0,1,5.39,5.24c0,3.1-1.72,5.65-5.35,5.65A5.14,5.14,0,0,1,172.53,521.52Zm8.47.18c0-3.06-1.52-4.69-3.19-4.69s-3,1.36-3,4.14c0,2.95,1.45,4.86,3.45,4.86C179.72,526,181,525,181,521.69Zm-5.35-7.13,1.83-3.28h1.78l.13.68-3.19,2.88Zm3.52,0,1.83-3.28h1.78l.13.68-3.19,2.88Z"/><path class="cls-1" d="M186.72,519a7.91,7.91,0,0,1,8.19-7.92c6,0,8.19,4.29,8.19,7.92A7.91,7.91,0,0,1,194.9,527C188.9,527,186.72,522.66,186.72,519Zm13.86.4c0-4.4-2.68-7.22-5.94-7.22s-5.37,2.22-5.41,6.43c0,4.4,2.68,7.22,5.94,7.22S200.53,523.63,200.58,519.43ZM198,508.14v1.17H191.8v-1.17Z"/><path class="cls-1" d="M206.54,521.52a5.37,5.37,0,0,1,5.37-5.46,5,5,0,0,1,5.39,5.24c0,3.1-1.72,5.65-5.35,5.65A5.14,5.14,0,0,1,206.54,521.52Zm8.47-8.43v1.17h-6.18v-1.17Zm0,8.6c0-3.06-1.52-4.69-3.19-4.69s-3,1.36-3,4.14c0,2.95,1.45,4.86,3.45,4.86C213.73,526,215,525,215,521.69Z"/><path class="cls-1" d="M230.28,531.11l2.13.09v.62l-2.86.64a2.93,2.93,0,0,1-1.1-5.5c-5.63-.24-7.7-4.4-7.7-7.92a7.91,7.91,0,0,1,8.19-7.92c6,0,8.19,4.29,8.19,7.92a7.88,7.88,0,0,1-7,7.86A2.44,2.44,0,0,0,230.28,531.11Zm-1.08-5.26c3.19,0,5.37-2.22,5.41-6.42,0-4.4-2.68-7.22-5.94-7.22s-5.37,2.22-5.41,6.43C223.21,523,225.94,525.85,229.2,525.85Z"/><path class="cls-1" d="M247.2,531.11l2.13.09v.62l-2.86.64a2.93,2.93,0,0,1-1.08-5.52,5.12,5.12,0,0,1-4.8-5.41,5.37,5.37,0,0,1,5.37-5.46,5,5,0,0,1,5.39,5.24c0,2.79-1.41,5.15-4.33,5.59A2.43,2.43,0,0,0,247.2,531.11Zm-.86-5.11c1.45,0,2.73-1,2.73-4.31,0-3.06-1.52-4.69-3.19-4.69s-3,1.36-3,4.14C242.88,524.09,244.33,526,246.34,526Z"/><path class="cls-1" d="M271.18,519A7.91,7.91,0,0,1,263,527a9.15,9.15,0,0,1-4.2-.9l-.62.9H257l.95-1.39a7.82,7.82,0,0,1-3.17-6.54,7.91,7.91,0,0,1,8.19-7.92,9.14,9.14,0,0,1,4.2.9l.62-.9H269L268,512.5A7.82,7.82,0,0,1,271.18,519Zm-12.1,4.91,7.13-10.47a5.35,5.35,0,0,0-3.48-1.25c-3.19,0-5.37,2.22-5.41,6.43A7.81,7.81,0,0,0,259.07,523.94Zm7.83-9.81-7.13,10.47a5.35,5.35,0,0,0,3.48,1.25c3.19,0,5.37-2.22,5.41-6.42A7.81,7.81,0,0,0,266.91,514.12Z"/><path class="cls-1" d="M285.41,521.3c0,3.1-1.72,5.65-5.35,5.65a5.77,5.77,0,0,1-2.75-.62l-2.09,3.08h-1.14l2.44-3.61a5.57,5.57,0,0,1-1.87-4.29,5.37,5.37,0,0,1,5.37-5.46,6.08,6.08,0,0,1,2.73.62l2.11-3.1H286l-2.44,3.61A5,5,0,0,1,285.41,521.3Zm-7.79,2.9,4.29-6.29a2.69,2.69,0,0,0-2-.9c-1.76,0-3,1.36-3,4.14A6.35,6.35,0,0,0,277.62,524.2Zm5.5-2.51a6.3,6.3,0,0,0-.64-2.95L278.21,525a2.92,2.92,0,0,0,2.18,1C281.84,526,283.12,525,283.12,521.69Z"/><path class="cls-1" d="M305.23,519A7.91,7.91,0,0,1,297,527a9.15,9.15,0,0,1-4.2-.9l-.62.9h-1.14l.95-1.39a7.82,7.82,0,0,1-3.17-6.54,7.91,7.91,0,0,1,8.19-7.92,9.14,9.14,0,0,1,4.2.9l.62-.9H303l-.95,1.39A7.82,7.82,0,0,1,305.23,519Zm-12.1,4.91,7.13-10.47a5.35,5.35,0,0,0-3.48-1.25c-3.19,0-5.37,2.22-5.41,6.43A7.81,7.81,0,0,0,293.13,523.94Zm7.83-9.81-7.13,10.47a5.35,5.35,0,0,0,3.48,1.25c3.19,0,5.37-2.22,5.41-6.42A7.81,7.81,0,0,0,301,514.12Zm-4.6-4.18-.4-.51,3.15-2.35,1.72.75-.15.73Z"/><path class="cls-1" d="M319.44,521.3c0,3.1-1.72,5.65-5.35,5.65a5.77,5.77,0,0,1-2.75-.62l-2.09,3.08h-1.14l2.44-3.61a5.57,5.57,0,0,1-1.87-4.29,5.37,5.37,0,0,1,5.37-5.46,6.08,6.08,0,0,1,2.73.62l2.11-3.1H320l-2.44,3.61A5,5,0,0,1,319.44,521.3Zm-7.79,2.9,4.29-6.29a2.69,2.69,0,0,0-2-.9c-1.76,0-3,1.36-3,4.14A6.35,6.35,0,0,0,311.65,524.2Zm5.5-2.51a6.3,6.3,0,0,0-.64-2.95L312.25,525a2.92,2.92,0,0,0,2.18,1C315.88,526,317.15,525,317.15,521.69Zm-3.34-6.84-.55-.29,1.83-3.28h1.78l.13.68Z"/><path class="cls-1" d="M322.92,519a7.91,7.91,0,0,1,8.19-7.92c6,0,8.18,4.29,8.18,7.92A7.91,7.91,0,0,1,331.1,527C325.1,527,322.92,522.66,322.92,519Zm13.86.4c0-4.4-2.68-7.22-5.94-7.22s-5.37,2.22-5.41,6.43c0,4.4,2.68,7.22,5.94,7.22S336.74,523.63,336.78,519.43Zm-9.2-9.66,2-2.27,3.32,1,1.14-1.1.51.29L332.91,510l-3.63-.95-1.14,1Z"/><path class="cls-1" d="M342.74,521.52a5.37,5.37,0,0,1,5.37-5.46,5,5,0,0,1,5.39,5.24c0,3.1-1.72,5.65-5.35,5.65A5.14,5.14,0,0,1,342.74,521.52Zm1.69-7.48,2.13-2.38,3.5,1,1.19-1.17.55.31L350,514.3l-3.83-1L345,514.34Zm6.78,7.66c0-3.06-1.52-4.69-3.19-4.69s-3,1.36-3,4.14c0,2.95,1.45,4.86,3.46,4.86C349.93,526,351.21,525,351.21,521.69Z"/><path class="cls-1" d="M371,526.07v.66h-3.23l-4.4-6.87h-2.24v5.72l2.51.48v.66h-6.87v-.66l2-.51v-13l-2.33-.53v-.66H363c3.45,0,5.46,1.69,5.46,3.7a4.71,4.71,0,0,1-2.88,4.45l4.58,6.34Zm-8.1-7.15c2.38,0,3.17-1.08,3.17-3.45a3,3,0,0,0-3.21-3.21,5.72,5.72,0,0,0-1.19.13l-.55.09v6.31A9.28,9.28,0,0,0,362.89,518.92Zm-.42-9-.4-.51,3.15-2.35,1.72.75-.15.73Z"/><path class="cls-1" d="M381.24,516.83l-.81,2.82h-.84l-.79-1.87a6.77,6.77,0,0,0-2.24,1.3v6.56l2.57.48v.62h-6.49v-.62l1.8-.42V518l-1.8-.48v-.55l3.12-.86h.53l.2,2,.73-.55a5.5,5.5,0,0,1,2.68-1.47A1.41,1.41,0,0,1,381.24,516.83Zm-4.75-2-.55-.29,1.83-3.28h1.78l.13.68Z"/><path class="cls-1" d="M398.2,526.07v.66H395l-4.4-6.87h-2.24v5.72l2.51.48v.66H384v-.66l2-.51v-13l-2.33-.53v-.66h6.54c3.45,0,5.46,1.69,5.46,3.7a4.71,4.71,0,0,1-2.88,4.45l4.58,6.34Zm-8.14-16.22-2.88-2.64.44-.51,2.75,1.61,2.73-1.61.44.51-2.86,2.64Zm0,9.06c2.38,0,3.17-1.08,3.17-3.45a3,3,0,0,0-3.21-3.21,5.72,5.72,0,0,0-1.19.13l-.55.09v6.31A9.28,9.28,0,0,0,390.11,518.92Z"/><path class="cls-1" d="M408.43,516.83l-.81,2.82h-.84l-.79-1.87a6.77,6.77,0,0,0-2.24,1.3v6.56l2.57.48v.62h-6.49v-.62l1.8-.42V518l-1.8-.48v-.55l3.12-.86h.53l.2,2,.73-.55a5.5,5.5,0,0,1,2.68-1.47A1.41,1.41,0,0,1,408.43,516.83Zm-4.8-2.29-2.6-3,.42-.46,2.46,1.69,2.49-1.69.42.46-2.6,3Z"/><path class="cls-1" d="M425.37,526.07v.66h-3.24l-4.4-6.87h-2.24v5.72l2.51.48v.66h-6.87v-.66l2-.51v-13l-2.33-.53v-.66h6.54c3.45,0,5.46,1.69,5.46,3.7a4.71,4.71,0,0,1-2.88,4.45l4.58,6.34Zm-8.1-7.15c2.38,0,3.17-1.08,3.17-3.45a3,3,0,0,0-3.21-3.21,5.72,5.72,0,0,0-1.19.13l-.55.09v6.31A9.28,9.28,0,0,0,417.28,518.92Zm1.56,11a6.39,6.39,0,0,1-1.52,3.81l-.44-.22a8.24,8.24,0,0,0,1-2.93l-.57-.2c-.57-.24-1.06-.4-1.06-1.17a1.16,1.16,0,0,1,1.23-1.12C418.27,528.05,418.84,528.84,418.84,529.88Z"/><path class="cls-1" d="M435.6,516.83l-.81,2.82H434l-.79-1.87a6.77,6.77,0,0,0-2.24,1.3v6.56l2.57.48v.62H427v-.62l1.8-.42V518l-1.8-.48v-.55l3.12-.86h.53l.2,2,.73-.55a5.5,5.5,0,0,1,2.68-1.47A1.41,1.41,0,0,1,435.6,516.83Zm-4.29,13a6.39,6.39,0,0,1-1.52,3.81l-.44-.22a8.25,8.25,0,0,0,1-2.93l-.57-.2c-.57-.24-1.06-.4-1.06-1.17a1.16,1.16,0,0,1,1.23-1.12C430.74,528.05,431.31,528.84,431.31,529.88Z"/><path class="cls-1" d="M447.86,522.55c0,3-2.33,4.4-5.28,4.4a10.19,10.19,0,0,1-4-.77v-3.46h.79l1,2.55a3.33,3.33,0,0,0,2.24.68c2,0,3-.77,3-2.38,0-3.81-7.17-4.25-7.17-8.76,0-2,1.41-3.72,4.82-3.72a11.31,11.31,0,0,1,3.63.57l-.24,3h-.79l-.86-2.33a4.93,4.93,0,0,0-1.78-.29c-1.69,0-2.55.73-2.55,2.11C440.68,517.4,447.86,518.46,447.86,522.55Zm-5.41-12.61-.4-.51,3.15-2.35,1.72.75-.15.73Z"/><path class="cls-1" d="M458.81,523.83c0,1.69-1.72,3.12-3.94,3.12a6.64,6.64,0,0,1-3.52-.88v-2.51h.75l1.06,2A4,4,0,0,0,455,526c1.54,0,2-.81,2-1.45,0-2.29-5.68-2.09-5.68-5.39,0-1.56,1.06-3.12,3.78-3.12a5.71,5.71,0,0,1,3,.77l-.15,2.11h-.73l-.79-1.61A3.56,3.56,0,0,0,455,517c-1.28,0-1.94.73-1.94,1.47C453.07,520.55,458.81,520.42,458.81,523.83Zm-4.09-9-.55-.29,1.83-3.28h1.78l.13.68Z"/><path class="cls-1" d="M471.57,522.55c0,3-2.33,4.4-5.28,4.4a10.19,10.19,0,0,1-4-.77v-3.46h.79l1,2.55a3.33,3.33,0,0,0,2.24.68c2,0,3-.77,3-2.38,0-3.81-7.17-4.25-7.17-8.76,0-2,1.41-3.72,4.82-3.72a11.3,11.3,0,0,1,3.63.57l-.24,3h-.79l-.86-2.33a4.93,4.93,0,0,0-1.78-.29c-1.69,0-2.55.73-2.55,2.11C464.4,517.4,471.57,518.46,471.57,522.55Zm-5-12.7-2.88-2.64.44-.51,2.75,1.61,2.73-1.61.44.51-2.86,2.64Z"/><path class="cls-1" d="M482.53,523.83c0,1.69-1.72,3.12-3.94,3.12a6.64,6.64,0,0,1-3.52-.88v-2.51h.75l1.06,2a4,4,0,0,0,1.85.51c1.54,0,2-.81,2-1.45,0-2.29-5.68-2.09-5.68-5.39,0-1.56,1.06-3.12,3.78-3.12a5.71,5.71,0,0,1,3,.77l-.15,2.11H481l-.79-1.61a3.56,3.56,0,0,0-1.5-.35c-1.28,0-1.94.73-1.94,1.47C476.78,520.55,482.53,520.42,482.53,523.83Zm-4.14-9.29-2.6-3,.42-.46,2.46,1.69,2.49-1.69.42.46-2.6,3Z"/><path class="cls-1" d="M490.75,526.93l-.31,1.72c1.32-.2,2.4.33,2.4,1.47,0,1.74-1.89,2.53-4,2.22l.09-.57c1.36,0,2.09-.51,2.09-1.39,0-.68-.4-1.08-1.83-1l-.13-.31,1-2.13h0a10.19,10.19,0,0,1-4-.77v-3.46h.79l1,2.55a3.33,3.33,0,0,0,2.24.68c2,0,3-.77,3-2.38,0-3.81-7.17-4.25-7.17-8.76,0-2,1.41-3.72,4.82-3.72a11.31,11.31,0,0,1,3.63.57l-.24,3h-.79l-.86-2.33a4.93,4.93,0,0,0-1.78-.29c-1.69,0-2.55.73-2.55,2.11,0,3.19,7.17,4.25,7.17,8.34C495.29,525.26,493.35,526.69,490.75,526.93Z"/><path class="cls-1" d="M502.7,526.93l-.29,1.63c1.25-.2,2.29.31,2.29,1.41,0,1.65-1.8,2.4-3.78,2.11l.07-.55c1.3,0,2-.48,2-1.32,0-.64-.37-1-1.74-.95l-.13-.29.92-2a6.5,6.5,0,0,1-3.26-.88v-2.51h.75l1.06,2a4,4,0,0,0,1.85.51c1.54,0,2-.81,2-1.45,0-2.29-5.68-2.09-5.68-5.39,0-1.56,1.06-3.12,3.78-3.12a5.71,5.71,0,0,1,3,.77l-.15,2.11h-.73l-.79-1.61a3.56,3.56,0,0,0-1.5-.35c-1.28,0-1.94.73-1.94,1.47,0,2.09,5.74,2,5.74,5.37C506.24,525.41,504.72,526.78,502.7,526.93Z"/><path class="cls-1" d="M519,522.55c0,3-2.33,4.4-5.28,4.4a10.19,10.19,0,0,1-4-.77v-3.46h.79l1,2.55a3.33,3.33,0,0,0,2.24.68c2,0,3-.77,3-2.38,0-3.81-7.17-4.25-7.17-8.76,0-2,1.41-3.72,4.82-3.72a11.3,11.3,0,0,1,3.63.57l-.24,3H517l-.86-2.33a4.93,4.93,0,0,0-1.78-.29c-1.69,0-2.55.73-2.55,2.11C511.83,517.4,519,518.46,519,522.55Zm-7.48-12.26-.44-.51,2.88-2.64h.62l2.86,2.64-.44.51-2.73-1.61Z"/><path class="cls-1" d="M530,523.83c0,1.69-1.72,3.12-3.94,3.12a6.64,6.64,0,0,1-3.52-.88v-2.51h.75l1.06,2a4,4,0,0,0,1.85.51c1.54,0,2-.81,2-1.45,0-2.29-5.68-2.09-5.68-5.39,0-1.56,1.06-3.12,3.78-3.12a5.71,5.71,0,0,1,3,.77l-.15,2.11h-.73l-.79-1.61a3.56,3.56,0,0,0-1.5-.35c-1.28,0-1.94.73-1.94,1.47C524.24,520.55,530,520.42,530,523.83ZM523.67,515l-.42-.46,2.6-3h.59l2.6,3-.42.46-2.49-1.69Z"/><path class="cls-1" d="M542.76,522.55c0,3-2.33,4.4-5.28,4.4a10.19,10.19,0,0,1-4-.77v-3.46h.79l1,2.55a3.33,3.33,0,0,0,2.24.68c2,0,3-.77,3-2.38,0-3.81-7.17-4.25-7.17-8.76,0-2,1.41-3.72,4.82-3.72a11.3,11.3,0,0,1,3.63.57l-.24,3h-.79l-.86-2.33a4.93,4.93,0,0,0-1.78-.29c-1.69,0-2.55.73-2.55,2.11C535.59,517.4,542.76,518.46,542.76,522.55Zm-3.43,7.33a6.39,6.39,0,0,1-1.52,3.81l-.44-.22a8.24,8.24,0,0,0,1-2.93l-.57-.2c-.57-.24-1.06-.4-1.06-1.17a1.16,1.16,0,0,1,1.23-1.12C538.76,528.05,539.33,528.84,539.33,529.88Z"/><path class="cls-1" d="M553.72,523.83c0,1.69-1.72,3.12-3.94,3.12a6.64,6.64,0,0,1-3.52-.88v-2.51H547l1.06,2a4,4,0,0,0,1.85.51c1.54,0,2-.81,2-1.45,0-2.29-5.68-2.09-5.68-5.39,0-1.56,1.06-3.12,3.78-3.12a5.71,5.71,0,0,1,3,.77l-.15,2.11h-.73l-.79-1.61a3.56,3.56,0,0,0-1.5-.35c-1.28,0-1.94.73-1.94,1.47C548,520.55,553.72,520.42,553.72,523.83Zm-2.53,6.05a6.39,6.39,0,0,1-1.52,3.81l-.44-.22a8.24,8.24,0,0,0,1-2.93l-.57-.2c-.57-.24-1.06-.4-1.06-1.17a1.15,1.15,0,0,1,1.23-1.12C550.62,528.05,551.19,528.84,551.19,529.88Z"/><path class="cls-1" d="M572.55,522.55c0,3-2.33,4.4-5.28,4.4a10.2,10.2,0,0,1-4-.77v-3.46H564l1,2.55a3.33,3.33,0,0,0,2.24.68c2,0,3-.77,3-2.38,0-3.81-6-4.47-6-8.54a3.36,3.36,0,0,1,1.3-2.73H563a3.44,3.44,0,0,0-1.06.18l-.55.18v14.06h-4v-.66l1.65-.46V512.5l-2-.51v-.66h12.12v1c-1.72,0-2.57.73-2.57,2.11C566.59,517.18,572.55,518.46,572.55,522.55Z"/><path class="cls-1" d="M589.05,523.83c0,1.69-1.72,3.12-3.94,3.12a6.34,6.34,0,0,1-3.41-.88v-2.51h.75l1,1.85a2.83,2.83,0,0,0,1.78.62c1.54,0,2-.86,2-1.5,0-2.29-5.68-3.37-5.68-6.62,0-2.29,3.43-3.06,3.43-5.15a2,2,0,0,0-2.13-2.16c-2.49,0-2.95,2.44-2.95,5.15v11h-4v-.57l1.91-.48v-8.41l-2.13-.15v-.84h2.13c0-3.85,1.74-6.49,6-6.49,2.2,0,3.43,1.19,3.43,2.33,0,2.6-4,3-4,4.82C583.31,519.25,589.05,520.42,589.05,523.83Zm-6.49.62a1.45,1.45,0,0,0,.22.29Z"/><path class="cls-1" d="M599.63,512.36v6.16h2.44v1.06h-2.44v6l2.35.48v.66h-6.58v-.66l1.91-.48v-6h-2.88v-1.06h2.88v-6.16l-3.52.18L592.28,515h-.66l.33-3.63H604.8l.33,3.63h-.66L603,512.54Z"/><path class="cls-1" d="M46.82,554.36V558h3.54V559H46.82v1.39c0,1.52.66,2.24,1.61,2.24a4,4,0,0,0,2-.44l.22.57A4.66,4.66,0,0,1,47.46,564c-1.34,0-2.75-.7-2.75-3.08V559h-2V558h2v-3.76l-2.13-.15v-.79h2.13L46,550h.84v3.3h3.89v.57l-1.5.68Z"/><path class="cls-1" d="M60.55,549.37v13.22l2.35.48v.66H56.32v-.66l1.91-.48V549.37l-3.52.18L53.2,552h-.66l.33-3.63H65.72L66,552h-.66l-1.52-2.42ZM59,546.86l-2.88-2.64.44-.51,2.75,1.61L62,543.71l.44.51-2.86,2.64Z"/><path class="cls-1" d="M72.1,554.36v6.07c0,1.52.66,2.24,1.61,2.24a4,4,0,0,0,2-.44l.22.57A4.66,4.66,0,0,1,72.74,564c-1.34,0-2.75-.7-2.75-3.08v-6.65l-2.13-.15v-.79H70l1-2.53L69,548.53l.42-.46,2.46,1.69,2.49-1.69.42.46-2.6,3H72.1v1.74H76v.57l-1.5.68Z"/><path class="cls-1" d="M85.83,549.37v13.22l2.35.48v.66H84.81l-.35,1.91c1.32-.2,2.4.33,2.4,1.47,0,1.74-1.89,2.53-4,2.22l.09-.57c1.36,0,2.09-.51,2.09-1.39,0-.68-.4-1.08-1.83-1l-.13-.31,1.08-2.35H81.6v-.66l1.91-.48V549.37l-3.52.18L78.48,552h-.66l.33-3.63H91l.33,3.63h-.66l-1.52-2.42Z"/><path class="cls-1" d="M97.38,554.36v6.07c0,1.52.66,2.24,1.61,2.24a4,4,0,0,0,2-.44l.22.57A4.67,4.67,0,0,1,98,564a2,2,0,0,1-.51,0l-.29,1.65c1.25-.2,2.29.31,2.29,1.41,0,1.65-1.8,2.4-3.78,2.11l.07-.55c1.3,0,2-.48,2-1.32,0-.64-.37-1-1.74-.95l-.13-.29,1-2.2c-.92-.33-1.67-1.17-1.67-2.9v-6.65l-2.13-.15v-.79h2.13l1.28-3.3h.84v3.3h3.89v.57l-1.5.68Z"/><path class="cls-1" d="M111.1,549.37v13.22l2.35.48v.66h-6.58v-.66l1.91-.48V549.37l-3.52.18L103.75,552h-.66l.33-3.63h12.85l.33,3.63h-.66l-1.52-2.42Zm0,17.51a6.39,6.39,0,0,1-1.52,3.81l-.44-.22a8.25,8.25,0,0,0,1-2.93l-.57-.2c-.57-.24-1.06-.4-1.06-1.17a1.16,1.16,0,0,1,1.23-1.12C110.58,565.06,111.15,565.85,111.15,566.88Z"/><path class="cls-1" d="M122.39,554.36v6.07c0,1.52.66,2.24,1.61,2.24a4,4,0,0,0,2-.44l.22.57A4.66,4.66,0,0,1,123,564c-1.34,0-2.75-.7-2.75-3.08v-6.65l-2.13-.15v-.79h2.13l1.28-3.3h.84v3.3h3.89v.57l-1.5.68Zm1.14,12.52a6.4,6.4,0,0,1-1.52,3.81l-.44-.22a8.24,8.24,0,0,0,1-2.93l-.57-.2c-.57-.24-1.06-.4-1.06-1.17a1.15,1.15,0,0,1,1.23-1.12C123,565.06,123.54,565.85,123.54,566.88Z"/><path class="cls-1" d="M144.48,555.71c0,4.42-2.6,8-8,8h-7.3v-.66l1.85-.55v-6.38h-2.18v-1.06H131v-5.54l-2.18-.55v-.66h7.52C141,548.33,144.48,551.13,144.48,555.71Zm-2.49.86c0-4.71-2.9-7.24-6.36-7.24a11.66,11.66,0,0,0-1.89.24l-.44.07v5.46h3.15v1.06H133.3v6.23l.73.11a17.09,17.09,0,0,0,2.22.26C139.62,562.75,142,561,142,556.56Z"/><path class="cls-1" d="M158.63,557.25c0,3.21-1.67,6.71-5.3,6.71a5.14,5.14,0,0,1-5.41-5.43,5.37,5.37,0,0,1,5.68-5.46,3.62,3.62,0,0,1,2.27,1,11.34,11.34,0,0,0-2.57-4.09l-3,1.76-.46-.66,2.88-1.67a10,10,0,0,0-2.66-1.72l.46-.64a15.94,15.94,0,0,1,3.23,1.76l2.27-1.32.46.66-2,1.17A10.07,10.07,0,0,1,158.63,557.25Zm-2.24-.09a3.05,3.05,0,0,0-3-3.15c-1.83,0-3.21,1.25-3.21,4.14s1.45,4.86,3.45,4.86C155.1,563,156.38,562,156.38,557.16Z"/><path class="cls-1" d="M171.36,555.33c0-2.44-1.65-3.21-3.43-3.21a7.79,7.79,0,0,0-1.19.13l-.55.09v10.25l2.51.48v.66h-6.86v-.66l2-.53v-13l-2.33-.55v-.66h7.15V549l-2.51.51v1.69h1.89c3.67,0,5.68,1.69,5.68,3.92,0,3-2.24,5-5.28,5a3.7,3.7,0,0,1-1-.09l.18-.73a1.83,1.83,0,0,0,.44,0C170.07,559.34,171.36,557.95,171.36,555.33Z"/><path class="cls-1" d="M187.78,558.19c0,3.7-2.4,5.76-5.32,5.76a5.72,5.72,0,0,1-2.38-.44v4.86l2.35.51v.57H176v-.57l1.91-.55V549l-1.91-.57v-.57l3.45-.88h.57v7.46a4.7,4.7,0,0,1,3.32-1.41C186.19,553.06,187.78,555.33,187.78,558.19Zm-2.16.59c0-3.21-1.58-4.42-3.17-4.42a3.29,3.29,0,0,0-2.38,1.28V560c0,1.83.9,2.95,2.44,2.95S185.62,561.62,185.62,558.79Z"/><path class="cls-1" d="M207.22,549l-1.91.53,0,7.57c0,4.25-2,6.91-6.31,6.91-4.14,0-6.09-2-6.09-6.25v-8.29l-2-.46v-.62h6.36V549l-2.07.48v8.49c0,3.37,1.72,4.86,4.73,4.86s4.07-2.07,4.07-5.72V549.5l-2-.55v-.62h5.24Zm-8.16-2-.4-.51,3.15-2.35,1.72.75-.15.73Z"/><path class="cls-1" d="M222.18,562.44V563l-3,.73h-.57l-.26-1.56a5.29,5.29,0,0,1-3.54,1.78c-2.35,0-3.39-1.65-3.39-3.65V555l-1.91-.53v-.57l3.45-.86h.57V560c0,1.67.75,2.62,1.94,2.62a3.57,3.57,0,0,0,2.71-1.47V555l-1.91-.53v-.57l3.45-.86h.57v8.8Zm-6.6-10.58-.55-.29,1.83-3.28h1.78l.13.68Z"/><path class="cls-1" d="M240.51,549l-1.91.53,0,7.57c0,4.25-2,6.91-6.31,6.91-4.14,0-6.09-2-6.09-6.25v-8.29l-2-.46v-.62h6.36V549l-2.07.48v8.49c0,3.37,1.72,4.86,4.73,4.86s4.07-2.07,4.07-5.72V549.5l-2-.55v-.62h5.24Zm-10.69-4.75h1.32a1.89,1.89,0,0,0,3.78,0h1.32a3.23,3.23,0,0,1-6.43,0Z"/><path class="cls-1" d="M255.47,562.44V563l-3,.73h-.57l-.26-1.56a5.29,5.29,0,0,1-3.54,1.78c-2.35,0-3.39-1.65-3.39-3.65V555l-1.91-.53v-.57l3.45-.86h.57V560c0,1.67.75,2.62,1.94,2.62a3.57,3.57,0,0,0,2.71-1.47V555l-1.91-.53v-.57l3.45-.86h.57v8.8ZM245.92,549h1.32a1.89,1.89,0,0,0,3.78,0h1.32a3.23,3.23,0,0,1-6.42,0Z"/><path class="cls-1" d="M273.8,549l-1.91.53,0,7.57c0,4.25-2,6.91-6.31,6.91-4.14,0-6.09-2-6.09-6.25v-8.29l-2-.46v-.62h6.36V549l-2.07.48v8.49c0,3.37,1.72,4.86,4.73,4.86s4.07-2.07,4.07-5.72V549.5l-2-.55v-.62h5.24Zm-10.23-1.65-.44-.51,2.88-2.64h.62l2.86,2.64-.44.51-2.73-1.61Z"/><path class="cls-1" d="M288.76,562.44V563l-3,.73h-.57l-.26-1.56a5.29,5.29,0,0,1-3.54,1.78c-2.35,0-3.39-1.65-3.39-3.65V555l-1.91-.53v-.57l3.45-.86h.57V560c0,1.67.75,2.62,1.94,2.62a3.57,3.57,0,0,0,2.71-1.47V555l-1.91-.53v-.57l3.45-.86h.57v8.8ZM279.93,552l-.42-.46,2.6-3h.59l2.6,3-.42.46-2.49-1.69Z"/><path class="cls-1" d="M307.08,549l-1.91.53,0,7.57c0,4.25-2,6.91-6.31,6.91-4.14,0-6.09-2-6.09-6.25v-8.29l-2-.46v-.62h6.36V549l-2.07.48v8.49c0,3.37,1.72,4.86,4.73,4.86s4.07-2.07,4.07-5.72V549.5l-2-.55v-.62h5.24Zm-10.63-3.08a1.23,1.23,0,0,1,1.23-1.21,1.19,1.19,0,1,1,0,2.38A1.14,1.14,0,0,1,296.45,545.87Zm3.83,0a1.23,1.23,0,0,1,1.21-1.21,1.19,1.19,0,1,1,0,2.38A1.12,1.12,0,0,1,300.28,545.87Z"/><path class="cls-1" d="M322,562.44V563l-3,.73h-.57l-.26-1.56a5.29,5.29,0,0,1-3.54,1.78c-2.35,0-3.39-1.65-3.39-3.65V555l-1.91-.53v-.57l3.45-.86h.57V560c0,1.67.75,2.62,1.94,2.62a3.57,3.57,0,0,0,2.71-1.47V555l-1.91-.53v-.57l3.45-.86h.57v8.8Zm-9.48-12.19a1.23,1.23,0,0,1,1.23-1.21,1.19,1.19,0,1,1,0,2.38A1.14,1.14,0,0,1,312.56,550.25Zm3.83,0A1.23,1.23,0,0,1,317.6,549a1.19,1.19,0,1,1,0,2.38A1.12,1.12,0,0,1,316.39,550.25Z"/><path class="cls-1" d="M340.37,549l-1.91.53,0,7.57c0,4.25-2,6.91-6.31,6.91-4.14,0-6.1-2-6.1-6.25v-8.29l-2-.46v-.62h6.36V549l-2.07.48v8.49c0,3.37,1.72,4.86,4.73,4.86s4.07-2.07,4.07-5.72V549.5l-2-.55v-.62h5.24Zm-6.82,17.65a1.28,1.28,0,0,1-2.55,0,1.25,1.25,0,0,1,1.28-1.23A1.2,1.2,0,0,1,333.55,566.6Z"/><path class="cls-1" d="M355.33,562.44V563l-3,.73h-.57l-.26-1.56a5.29,5.29,0,0,1-3.54,1.78c-2.35,0-3.39-1.65-3.39-3.65V555l-1.91-.53v-.57l3.45-.86h.57V560c0,1.67.75,2.62,1.94,2.62a3.57,3.57,0,0,0,2.71-1.47V555l-1.91-.53v-.57l3.45-.86h.57v8.8Zm-5.06,4.16a1.28,1.28,0,0,1-2.55,0,1.25,1.25,0,0,1,1.28-1.23A1.2,1.2,0,0,1,350.27,566.6Z"/><path class="cls-1" d="M373.65,549l-1.91.53,0,7.57c0,4.25-2,6.91-6.31,6.91-4.14,0-6.1-2-6.1-6.25v-8.29l-2-.46v-.62h6.36V549l-2.07.48v8.49c0,3.37,1.72,4.86,4.73,4.86s4.07-2.07,4.07-5.72V549.5l-2-.55v-.62h5.24Zm-11-3.21-.18-.68,1.61-.77,3.06,2.16-.37.51Z"/><path class="cls-1" d="M388.61,562.44V563l-3,.73H385l-.26-1.56a5.29,5.29,0,0,1-3.54,1.78c-2.35,0-3.39-1.65-3.39-3.65V555l-1.91-.53v-.57l3.45-.86h.57V560c0,1.67.75,2.62,1.94,2.62a3.57,3.57,0,0,0,2.71-1.47V555l-1.91-.53v-.57l3.45-.86h.57v8.8Zm-6.18-11.11-3.19-2.88.13-.68h1.78L383,551Z"/><path class="cls-1" d="M406.94,549l-1.91.53,0,7.57c0,4.25-2,6.91-6.31,6.91-4.14,0-6.1-2-6.1-6.25v-8.29l-2-.46v-.62H397V549l-2.07.48v8.49c0,3.37,1.72,4.86,4.73,4.86s4.07-2.07,4.07-5.72V549.5l-2-.55v-.62h5.24Zm-9.2-2-.55-.29,1.83-3.28h1.78l.13.68Zm3-.29,1.83-3.28h1.78l.13.68-3.19,2.88Z"/><path class="cls-1" d="M421.9,562.44V563l-3,.73h-.57l-.26-1.56a5.29,5.29,0,0,1-3.54,1.78c-2.35,0-3.39-1.65-3.39-3.65V555l-1.91-.53v-.57l3.45-.86h.57V560c0,1.67.75,2.62,1.94,2.62a3.57,3.57,0,0,0,2.71-1.47V555L416,554.5v-.57l3.45-.86H420v8.8Zm-8.05-10.58-.55-.29,1.83-3.28h1.78l.13.68Zm3-.29,1.83-3.28h1.78l.13.68-3.19,2.88Z"/><path class="cls-1" d="M440.23,549l-1.91.53,0,7.57c0,4.25-2,6.91-6.31,6.91-4.14,0-6.1-2-6.1-6.25v-8.29l-2-.46v-.62h6.36V549l-2.07.48v8.49c0,3.37,1.72,4.86,4.73,4.86s4.07-2.07,4.07-5.72V549.5l-2-.55v-.62h5.24Zm-4.4-2.64h-6.18v-1.17h6.18Z"/><path class="cls-1" d="M455.19,562.44V563l-3,.73h-.57l-.26-1.56a5.29,5.29,0,0,1-3.54,1.78c-2.35,0-3.39-1.65-3.39-3.65V555l-1.91-.53v-.57l3.45-.86h.57V560c0,1.67.75,2.62,1.94,2.62a3.57,3.57,0,0,0,2.71-1.47V555l-1.91-.53v-.57l3.45-.86h.57v8.8Zm-3.26-11.18h-6.18v-1.17h6.18Z"/><path class="cls-1" d="M473.51,549l-1.91.53,0,7.57c0,3.28-1.21,5.61-3.72,6.51v0l-.59.13c-2,.44-2.11,3.45-.24,4.38l2.13.09v.62l-2.86.64a2.93,2.93,0,0,1-1.12-5.5c-4.07,0-6-2-6-6.25v-8.29l-2-.46v-.62h6.36V549l-2.07.48v8.49c0,3.37,1.72,4.86,4.73,4.86s4.07-2.07,4.07-5.72V549.5l-2-.55v-.62h5.24Z"/><path class="cls-1" d="M488.85,567.92v.62l-2.86.64a2.93,2.93,0,0,1-1.12-5.5l-.24-1.5a5.29,5.29,0,0,1-3.54,1.78c-2.35,0-3.39-1.65-3.39-3.65V555l-1.91-.53v-.57l3.45-.86h.57V560c0,1.67.75,2.62,1.94,2.62a3.57,3.57,0,0,0,2.71-1.47V555l-1.91-.53v-.57l3.45-.86h.57v8.8l1.91.57V563l-.92.22v.09l-.59.13c-2,.44-2.11,3.45-.24,4.38Z"/><path class="cls-1" d="M506.8,549l-1.91.53,0,7.57c0,4.25-2,6.91-6.31,6.91-4.14,0-6.1-2-6.1-6.25v-8.29l-2-.46v-.62h6.36V549l-2.07.48v8.49c0,3.37,1.72,4.86,4.73,4.86s4.07-2.07,4.07-5.72V549.5l-2-.55v-.62h5.24Zm-9.62-4a2,2,0,0,1,2.13-2,2,2,0,1,1,0,4A2,2,0,0,1,497.18,544.95Zm1.21-.11c0,.84.44,1.39,1,1.39s.86-.29.86-1.23-.48-1.32-1-1.32S498.39,544,498.39,544.84Z"/><path class="cls-1" d="M521.76,562.44V563l-3,.73h-.57l-.26-1.56a5.29,5.29,0,0,1-3.54,1.78c-2.35,0-3.39-1.65-3.39-3.65V555l-1.91-.53v-.57l3.45-.86h.57V560c0,1.67.75,2.62,1.94,2.62a3.57,3.57,0,0,0,2.71-1.47V555l-1.91-.53v-.57l3.45-.86h.57v8.8Zm-8.58-13.18a2.15,2.15,0,0,1,2.24-2.11,2.11,2.11,0,1,1,0,4.2A2.07,2.07,0,0,1,513.18,549.26Zm1.25-.11c0,.88.46,1.45,1.1,1.45.48,0,.9-.31.9-1.3s-.51-1.39-1-1.39S514.43,548.31,514.43,549.15Z"/><path class="cls-1" d="M540.08,549l-1.91.53,0,7.57c0,4.25-2,6.91-6.31,6.91-4.14,0-6.1-2-6.1-6.25v-8.29l-2-.46v-.62h6.36V549l-2.07.48v8.49c0,3.37,1.72,4.86,4.73,4.86s4.07-2.07,4.07-5.72V549.5l-2-.55v-.62h5.24Zm-10.45-1.89-.55-.29,2-2.27,3.32,1,1.14-1.1.51.29L534.41,547l-3.63-.95Z"/><path class="cls-1" d="M555,562.44V563l-3,.73h-.57l-.26-1.56a5.29,5.29,0,0,1-3.54,1.78c-2.35,0-3.39-1.65-3.39-3.65V555l-1.91-.53v-.57l3.45-.86h.57V560c0,1.67.75,2.62,1.94,2.62a3.57,3.57,0,0,0,2.71-1.47V555l-1.91-.53v-.57l3.45-.86h.57v8.8Zm-9.46-11.09L545,551l2.13-2.38,3.5,1,1.19-1.17.55.31-1.76,2.49-3.83-1Z"/><path class="cls-1" d="M579.73,549l-1.63.37-4,14.59h-1.19L568,552.05,563.12,564h-1.19l-3.74-14.59L556.6,549v-.66h6.62V549l-2.49.57,2.62,11.09,5-12.54h.66L574,560.57l2.9-11h-.07l-2.33-.59v-.66h5.26Zm-11.66-2-.4-.51,3.15-2.35,1.72.75-.15.73Z"/><path class="cls-1" d="M597.86,553.86l-1.3.57L593.5,564h-1.28l-2.86-7.35L586,564h-1.23l-2.62-9.64-1.34-.46v-.57h5.43v.57l-1.76.57,1.72,6.93,3.59-8.08h.55l3,8.12,2.13-6.87-1.67-.68v-.57h4Zm-8.19-2-.55-.29,1.83-3.28h1.78l.13.68Z"/><path class="cls-1" d="M64,586l-1.63.37-4,14.59H57.16l-4.91-11.9L47.35,601H46.16l-3.74-14.59L40.84,586v-.66h6.62V586l-2.49.57,2.62,11.09,5-12.54h.66l4.91,12.45,2.9-11H61L58.7,586v-.66H64ZM50.23,584.3l-.44-.51,2.88-2.64h.62l2.86,2.64-.44.51L53,582.7Z"/><path class="cls-1" d="M82.09,590.86l-1.3.57L77.73,601H76.46l-2.86-7.35L70.25,601H69l-2.62-9.64-1.34-.46v-.57h5.44v.57l-1.76.57,1.72,6.93L74,590.29h.55l3,8.12,2.13-6.87-1.67-.68v-.57h4ZM71.68,589l-.42-.46,2.6-3h.59l2.6,3-.42.46-2.49-1.69Z"/><path class="cls-1" d="M106.31,586l-1.63.37-4,14.59H99.51l-4.91-11.9L89.7,601H88.51l-3.74-14.59L83.19,586v-.66h6.62V586l-2.49.57,2.62,11.09,5-12.54h.66l4.91,12.45,2.9-11h-.07l-2.33-.59v-.66h5.26Zm-14.13-3.12a1.23,1.23,0,0,1,1.23-1.21,1.19,1.19,0,1,1,0,2.38A1.14,1.14,0,0,1,92.19,582.87Zm3.83,0a1.23,1.23,0,0,1,1.21-1.21,1.19,1.19,0,1,1,0,2.38A1.12,1.12,0,0,1,96,582.87Z"/><path class="cls-1" d="M124.44,590.86l-1.3.57L120.08,601h-1.28l-2.86-7.35L112.6,601h-1.23l-2.62-9.64-1.34-.46v-.57h5.44v.57l-1.76.57,1.72,6.93,3.59-8.08h.55l3,8.12,2.13-6.87-1.67-.68v-.57h4Zm-11.07-3.61A1.23,1.23,0,0,1,114.6,586a1.19,1.19,0,1,1,0,2.38A1.14,1.14,0,0,1,113.37,587.25Zm3.83,0a1.23,1.23,0,0,1,1.21-1.21,1.19,1.19,0,1,1,0,2.38A1.12,1.12,0,0,1,117.2,587.25Z"/><path class="cls-1" d="M148.66,586l-1.63.37-4,14.59h-1.19L137,589.06,132,601h-1.19l-3.74-14.59-1.58-.37v-.66h6.62V586l-2.49.57,2.62,11.09,5-12.54H138l4.91,12.45,2.9-11h-.07L143.4,586v-.66h5.26Zm-14.48-3.26-.18-.68,1.61-.77,3.06,2.16-.37.51Z"/><path class="cls-1" d="M166.79,590.86l-1.3.57L162.43,601h-1.28l-2.86-7.35L155,601h-1.23l-2.62-9.64-1.34-.46v-.57h5.44v.57l-1.76.57,1.72,6.93,3.59-8.08h.55l3,8.12,2.13-6.87-1.67-.68v-.57h4ZM159,588.33l-3.19-2.88.13-.68h1.78l1.83,3.28Z"/><path class="cls-1" d="M180.16,596.78l-.57,4H169.14v-.66l1.74-.44v-5.57l-2,.92v-1.14l2-.92V586.5l-2-.51v-.66H175V586l-1.8.48v5.35l3.28-1.54v1.14L173.19,593v6.45l4.82.37,1.54-3Z"/><path class="cls-1" d="M188.1,600.17v.57h-5.72v-.57l1.69-.4v-6.25l-1.85.88v-.88l1.85-.88V586l-1.91-.53v-.57l3.45-.88h.57v7.64l1.85-.88v.88l-1.85.88v7.2Z"/><path class="cls-1" d="M198.29,594.12v5.35l2.11.4v.88h-6.34v-.88l1.91-.35v-5l-4.55-8.14-1.52-.37v-.66h5.63V586l-1.45.42,3.63,6.56,3.52-6.49-1.3-.48v-.66h4.66V586l-2.16.57ZM197,584l-.4-.51,3.15-2.35,1.72.75-.15.73Z"/><path class="cls-1" d="M217.63,590.86l-1.5.55-6,15.27h-2v-.57l3-4.47.13-.31-4.6-10.12-1-.35v-.57h5.1v.57l-1.63.46,3.19,7.37,2.9-7.33-1.43-.51v-.57h3.92Zm-6.23-2-.55-.29,1.83-3.28h1.78l.13.68Z"/><path class="cls-1" d="M227.31,594.12v5.35l2.11.4v.88h-6.34v-.88l1.91-.35v-5l-4.55-8.14-1.52-.37v-.66h5.63V586l-1.45.42,3.63,6.56,3.52-6.49L229,586v-.66h4.66V586l-2.16.57ZM224,584.3l-.44-.51,2.88-2.64H227l2.86,2.64-.44.51-2.73-1.61Z"/><path class="cls-1" d="M246.65,590.86l-1.5.55-6,15.27h-2v-.57l3-4.47.13-.31-4.6-10.12-1-.35v-.57h5.1v.57l-1.63.46,3.19,7.37,2.9-7.33-1.43-.51v-.57h3.92ZM238.2,589l-.42-.46,2.6-3H241l2.6,3-.42.46-2.49-1.69Z"/><path class="cls-1" d="M256.33,594.12v5.35l2.11.4v.88H252.1v-.88l1.91-.35v-5l-4.55-8.14-1.52-.37v-.66h5.63V586l-1.45.42,3.63,6.56,3.52-6.49L258,586v-.66h4.66V586l-2.16.57Zm-3.74-11.24a1.23,1.23,0,0,1,1.23-1.21,1.19,1.19,0,1,1,0,2.38A1.14,1.14,0,0,1,252.59,582.87Zm3.83,0a1.23,1.23,0,0,1,1.21-1.21,1.19,1.19,0,1,1,0,2.38A1.12,1.12,0,0,1,256.42,582.87Z"/><path class="cls-1" d="M275.67,590.86l-1.5.55-6,15.27h-2v-.57l3-4.47.13-.31-4.6-10.12-1-.35v-.57h5.1v.57l-1.63.46,3.19,7.37,2.9-7.33-1.43-.51v-.57h3.92Zm-9.11-3.61a1.23,1.23,0,0,1,1.23-1.21,1.19,1.19,0,1,1,0,2.38A1.14,1.14,0,0,1,266.56,587.25Zm3.83,0a1.23,1.23,0,0,1,1.21-1.21,1.19,1.19,0,1,1,0,2.38A1.12,1.12,0,0,1,270.38,587.25Z"/><path class="cls-1" d="M285.34,594.12v5.35l2.11.4v.88h-6.34v-.88l1.91-.35v-5l-4.55-8.14L277,586v-.66h5.63V586l-1.45.42,3.63,6.56,3.52-6.49L287,586v-.66h4.66V586l-2.16.57Zm-4.09-11.38-.18-.68,1.61-.77,3.06,2.16-.37.51Z"/><path class="cls-1" d="M304.68,590.86l-1.5.55-6,15.27h-2v-.57l3-4.47.13-.31-4.6-10.12-1-.35v-.57h5.1v.57l-1.63.46,3.19,7.37,2.9-7.33-1.43-.51v-.57h3.92Zm-5.81-2.53-3.19-2.88.13-.68h1.78l1.83,3.28Z"/><path class="cls-1" d="M314.36,594.12v5.35l2.11.4v.88h-6.34v-.88l1.91-.35v-5l-4.55-8.14L306,586v-.66h5.63V586l-1.45.42,3.63,6.56,3.52-6.49L316,586v-.66h4.66V586l-2.16.57Zm2.49-10.8h-6.18v-1.17h6.18Z"/><path class="cls-1" d="M333.7,590.86l-1.5.55-6,15.27h-2v-.57l3-4.47.13-.31-4.6-10.12-1-.35v-.57h5.1v.57l-1.63.46,3.19,7.37,2.9-7.33-1.43-.51v-.57h3.92Zm-2.88-2.6h-6.18V587.1h6.18Z"/><path class="cls-1" d="M343.38,594.12v5.35l2.11.4v.88h-6.34v-.88l1.91-.35v-5l-4.55-8.14L335,586v-.66h5.63V586l-1.45.42,3.63,6.56,3.52-6.49L345,586v-.66h4.67V586l-2.16.57Zm-3.56-10.06-.55-.29,2-2.27,3.32,1,1.14-1.1.51.29L344.59,584l-3.63-.95Z"/><path class="cls-1" d="M362.72,590.86l-1.5.55-6,15.27h-2v-.57l3-4.47.13-.31-4.6-10.12-1-.35v-.57h5.1v.57l-1.63.46,3.19,7.37,2.9-7.33-1.43-.51v-.57h3.92Zm-9.09-2.51-.57-.31,2.13-2.38,3.5,1,1.19-1.17.55.31-1.76,2.49-3.83-1Z"/><path class="cls-1" d="M376.56,596.82l-.64,3.92H364.61v-.44l8.71-14-6.67.29,0,0-1.1,2.11h-.75l.57-3.41h11v.46l-8.76,13.84,6.93-.42,1.25-2.4ZM369.82,584l-.4-.51,3.15-2.35,1.72.75-.15.73Z"/><path class="cls-1" d="M387.62,597.42l-.2,3.32H379v-.57l5.92-9-4,.31-.88,1.74h-.55l.15-3h7.81v.57l-5.92,8.91,4.55-.37,1-2Zm-4.55-8.56-.55-.29,1.83-3.28h1.78l.13.68Z"/><path class="cls-1" d="M402.21,596.82l-.64,3.92H390.26v-.44l8.71-14-6.67.29,0,0-1.1,2.11h-.75l.57-3.41h11v.46l-8.76,13.84,6.93-.42,1.25-2.4Zm-6.36-13L393,581.22l.44-.51,2.75,1.61,2.73-1.61.44.51-2.86,2.64Z"/><path class="cls-1" d="M413.28,597.42l-.2,3.32h-8.38v-.57l5.92-9-4,.31-.88,1.74h-.55l.15-3h7.81v.57l-5.92,8.91,4.55-.37,1-2Zm-4.6-8.87-2.6-3,.42-.46,2.46,1.69,2.49-1.69.42.46-2.6,3Z"/><path class="cls-1" d="M427.86,596.82l-.64,3.92H415.91v-.44l8.71-14-6.67.29,0,0-1.1,2.11h-.75l.57-3.41h11v.46l-8.76,13.84,6.93-.42,1.25-2.4Zm-7.33-14.37a1.25,1.25,0,0,1,1.28-1.23,1.23,1.23,0,1,1-1.28,1.23Z"/><path class="cls-1" d="M438.93,597.42l-.2,3.32h-8.38v-.57l5.92-9-4,.31-.88,1.74h-.55l.15-3h7.81v.57l-5.92,8.91,4.55-.37,1-2Zm-5.57-10a1.25,1.25,0,0,1,1.28-1.23,1.23,1.23,0,1,1-1.28,1.23Z"/><path class="cls-1" d="M455.76,592.64c0,5-3.32,8.32-7.75,8.32-3.67,0-5.92-2.31-5.94-5.54l.86-1.52h10.21v-.42c0-4.84-3.26-6.8-6.14-6.8a5.45,5.45,0,0,0-3.61,1.3l-.77-.86a6.62,6.62,0,0,1,5-2C453.82,585.12,455.76,589.92,455.76,592.64ZM453,595.2l-8.1.11a4,4,0,0,0,3.92,4.27C450.46,599.57,452.46,598.28,453,595.2Z"/><path class="cls-1" d="M468.83,595.24c0,3.41-2.29,5.72-5.33,5.72a3.74,3.74,0,0,1-4.09-3.81l.59-1.06h6.56v-.15a4.16,4.16,0,0,0-4.33-4.53,3.61,3.61,0,0,0-2.07.53l-.4-.55a5,5,0,0,1,3.74-1.32A5.16,5.16,0,0,1,468.83,595.24ZM466.49,597l-5,.07a2.58,2.58,0,0,0,2.44,2.88C465,599.95,466.18,599.07,466.49,597Z"/><path class="cls-1" d="M490.41,597.4l-.55,3.34H479.54v-.66l1.83-.46v-4.29h-5.26l-2.4,4.18,2.46.57v.66h-5.33v-.66l1.54-.53,7.57-13-2.84-.55v-.66H490l-.53,3.39h-.79l-.66-2.46h-4.36v6.23h3.94l.46-1.58h.79v4.55h-.79l-.4-2h-4v6l4.6.46,1.34-2.53Zm-9-3.12v-7.68h-.2l-4.44,7.68Z"/><path class="cls-1" d="M508.71,599.09l.4.55a5,5,0,0,1-3.74,1.32,5.06,5.06,0,0,1-4.2-1.94h-.55c-1.61,1.23-2.55,1.94-4.38,1.94a2.44,2.44,0,0,1-2.62-2.46c0-1.32.73-2.24,2.79-2.9l3.78-1.19v-.15c0-1.76-.81-3.15-2.33-3.15a2.05,2.05,0,0,0-1.67.75l-.46,2.13h-.88l-.55-2.18a6.33,6.33,0,0,1,4.25-1.74,3.56,3.56,0,0,1,3.17,1.43,5.23,5.23,0,0,1,3.65-1.43,3.74,3.74,0,0,1,4.09,3.81l-.59,1.06h-6.56v.15a4.16,4.16,0,0,0,4.33,4.53A3.61,3.61,0,0,0,508.71,599.09Zm-11.38.68c.86,0,1.72-.73,2.86-1.56v-2.86l-2.73.9a2.21,2.21,0,0,0-1.65,2A1.42,1.42,0,0,0,497.34,599.77Zm5-5.74,5-.07a2.58,2.58,0,0,0-2.44-2.88C503.92,591.08,502.68,592,502.38,594Z"/><path class="cls-1" d="M531.26,597.4l-.55,3.34H520.39v-.66l1.83-.46v-4.29H517l-2.4,4.18,2.46.57v.66H511.7v-.66l1.54-.53,7.57-13L518,586v-.66h12.89l-.53,3.39h-.79l-.66-2.46h-4.36v6.23h3.94l.46-1.58h.79v4.55h-.79l-.4-2h-4v6l4.6.46,1.34-2.53Zm-9-3.12v-7.68H522l-4.44,7.68ZM522.7,584l-.4-.51,3.15-2.35,1.72.75-.15.73Z"/><path class="cls-1" d="M549.57,599.09l.4.55a5,5,0,0,1-3.74,1.32A5.06,5.06,0,0,1,542,599h-.55c-1.61,1.23-2.55,1.94-4.38,1.94a2.44,2.44,0,0,1-2.62-2.46c0-1.32.73-2.24,2.79-2.9l3.78-1.19v-.15c0-1.76-.81-3.15-2.33-3.15a2.05,2.05,0,0,0-1.67.75l-.46,2.13h-.88l-.55-2.18a6.33,6.33,0,0,1,4.25-1.74,3.56,3.56,0,0,1,3.17,1.43,5.23,5.23,0,0,1,3.65-1.43,3.74,3.74,0,0,1,4.09,3.81l-.59,1.06h-6.56v.15a4.16,4.16,0,0,0,4.33,4.53A3.61,3.61,0,0,0,549.57,599.09Zm-11.38.68c.86,0,1.72-.73,2.86-1.56v-2.86l-2.73.9a2.21,2.21,0,0,0-1.65,2A1.42,1.42,0,0,0,538.19,599.77Zm4-10.91-.55-.29,1.83-3.28h1.78l.13.68Zm1,5.17,5-.07a2.58,2.58,0,0,0-2.44-2.88C544.77,591.08,543.54,592,543.23,594Z"/><path class="cls-1" d="M576.89,597.4l-.55,3.34h-8.49v-1.91a8,8,0,0,1-5.7,2.13c-6,0-8.19-4.29-8.19-7.92a7.91,7.91,0,0,1,8.19-7.92,8.21,8.21,0,0,1,5.7,1.94v-1.72h8.65l-.53,3.39h-.79l-.66-2.46H572a3.88,3.88,0,0,0-1.28.22l-.53.2v5.81h3.92l.48-1.58h.79v4.55h-.79l-.42-2h-4v6l4.6.48,1.34-2.53Zm-15-11.18c-3.19,0-5.37,2.22-5.41,6.42,0,4.4,2.68,7.22,5.94,7.22s5.37-2.22,5.41-6.42C567.87,589,565.14,586.22,561.88,586.22Z"/><path class="cls-1" d="M597.22,599.09l.4.55a5,5,0,0,1-3.74,1.32,5,5,0,0,1-4.16-1.89,5,5,0,0,1-4.22,1.89,5.14,5.14,0,0,1-5.41-5.43,5.52,5.52,0,0,1,9.7-3.54,5.14,5.14,0,0,1,4.09-1.92,3.74,3.74,0,0,1,4.09,3.81l-.59,1.06h-6.56v.15a4.16,4.16,0,0,0,4.33,4.53A3.61,3.61,0,0,0,597.22,599.09Zm-8.67-3.39c0-3.06-1.52-4.69-3.19-4.69s-3,1.36-3,4.14c0,2.95,1.45,4.86,3.46,4.86C587.27,600,588.55,599,588.55,595.7Zm2.33-1.67,5-.07a2.58,2.58,0,0,0-2.44-2.88C592.42,591.08,591.19,592,590.88,594Z"/></svg>