<svg id="Layer_1" data-name="Layer 1" xmlns="http://www.w3.org/2000/svg" viewBox="0 0 1920 1080"><title>Artboard 1</title><rect width="1920" height="1080" fill="#090c21"/><path d="M699.34,983.71c-.18,0-1.69-.07-2.06-.07s-1.72.07-1.9.07-.13-.22,0-.22.8,0,1-.29a4.12,4.12,0,0,0,.38-2.18v-2.45c-.81,0-1.83-.08-3.05-.08s-2.17.08-3,.13V981a5,5,0,0,0,.29,2.18c.2.29,1,.29,1.12.29s.14.22,0,.22-1.69-.07-2.06-.07-1.72.07-1.91.07-.13-.22,0-.22.8,0,1-.29a4.11,4.11,0,0,0,.38-2.18v-5.1a4.11,4.11,0,0,0-.38-2.19c-.22-.29-.85-.29-1-.29s-.14-.22,0-.22,1.53.07,1.91.07,1.83-.07,2-.07.13.22,0,.22-.87,0-1.09.29-.24.76-.28,2.19V978c.78,0,1.82.06,3,.06s2.24,0,3.05-.06v-2.1a4.12,4.12,0,0,0-.38-2.19c-.22-.29-.85-.29-1-.29s-.14-.22,0-.22,1.53.07,1.9.07,1.83-.07,2-.07.13.22,0,.22-.87,0-1.09.29-.24.76-.28,2.19V981a5,5,0,0,0,.29,2.18c.2.29,1,.29,1.12.29S699.48,983.71,699.34,983.71Z" fill="#fff"/><path d="M711.35,983.71c-.18,0-1.25,0-1.68,0l-2.07,0a.11.11,0,0,1,0-.22c.15,0,1.18-.07,1.19-.32s-.6-1.64-1.32-3.39l-.13-.32-1.93,0-1.72,0c-.18.48-.34.88-.46,1.23a17,17,0,0,0-.88,2.48c0,.25.85.32,1,.32a.11.11,0,0,1,0,.22c-.17,0-1.25,0-1.64,0s-1.5,0-1.68,0-.13-.22,0-.22a1.94,1.94,0,0,0,1.12-.39,10,10,0,0,0,1.09-2.09c.63-1.42,1.65-3.78,3.35-7.77,0-.08.1-.14.17-.14s.13.06.17.14c.77,1.79,1.57,3.73,2.35,5.56a46.89,46.89,0,0,0,1.95,4.3c.18.29,1,.39,1.12.39S711.5,983.71,711.35,983.71Zm-4.24-4.8c-.62-1.5-1.26-3-1.64-4-.66,1.64-1.16,2.93-1.57,4l1.5,0Z" fill="#fff"/><path d="M720.59,983.8a3.33,3.33,0,0,1-.74-.11,4.12,4.12,0,0,1-1.71-1.44c-.52-.66-2.17-3.32-2.17-3.32a8.66,8.66,0,0,1-1.34-.1V981a5,5,0,0,0,.29,2.18c.2.29,1,.29,1.12.29s.14.22,0,.22-1.69-.07-2.06-.07-1.72.07-1.91.07-.13-.22,0-.22.8,0,1-.29a4.11,4.11,0,0,0,.38-2.18v-5.1a4.59,4.59,0,0,0-.39-2.2c-.22-.25-.52-.28-1-.28-.13,0-.17-.22,0-.22h4.08c1.44,0,3.1.76,3.1,2.49a3.42,3.42,0,0,1-2.17,3c.36.5,1.82,2.52,2.4,3.22a3.54,3.54,0,0,0,2.37,1.54c.1,0,.1.21,0,.24S720.77,983.8,720.59,983.8Zm-2.66-8a2.26,2.26,0,0,0-2.3-2.17h-1v4.78a8.07,8.07,0,0,0,1.48.07A2.3,2.3,0,0,0,717.93,975.81Z" fill="#fff"/><path d="M728.41,983.83c-.07,0-.13-.06-.17-.14l-3.77-7.94c-.21,1.85-.55,5.14-.56,5.27,0,.36-.25,2,0,2.31s.74.17.91.17.14.22,0,.22-1.25,0-1.68,0-1.27,0-1.47,0-.13-.22,0-.22a1.2,1.2,0,0,0,1.06-.36,5.41,5.41,0,0,0,.52-2.12c0-.14.74-5.83,1-7.77a.18.18,0,0,1,.17-.14c.07,0,.13.06.17.14l4.16,8.68,3.81-8.68c0-.08.1-.14.17-.14a.18.18,0,0,1,.17.14l1.16,7.77a8.75,8.75,0,0,0,.56,2.12,1,1,0,0,0,1,.36c.13,0,.14.22,0,.22l-1.61,0c-.43,0-1.58,0-1.77,0s-.13-.22,0-.22.53,0,.66-.17a5.16,5.16,0,0,0,0-2.27l-.84-5.38-3.45,8C728.54,983.77,728.48,983.83,728.41,983.83Z" fill="#fff"/><path d="M736.39,978.56a5.49,5.49,0,0,1,5.29-5.46,5.09,5.09,0,0,1,5.31,5.29,5.28,5.28,0,0,1-5.31,5.44A5,5,0,0,1,736.39,978.56Zm9.41.29c-.1-3-2.26-5.25-4.47-5.22-2.37,0-3.82,2.3-3.73,4.47.14,3,2.12,5.21,4.45,5.21C744.15,983.31,745.89,981.42,745.8,978.85Z" fill="#fff"/><path d="M758.08,983.71c-.36-.42-5.65-6.05-7.76-8.36V981a5.38,5.38,0,0,0,.31,2.16c.21.31.87.31,1,.31s.14.22,0,.22-1.3-.06-1.69-.06-1.48.06-1.68.06-.13-.22,0-.22.78,0,1-.31a5.38,5.38,0,0,0,.31-2.16v-7.7c0-.31.25-.2.34-.08l7.8,8.38v-5.7a5.37,5.37,0,0,0-.29-2.16c-.21-.31-.81-.32-1-.32s-.14-.22,0-.22,1.27.07,1.67.07,1.43-.07,1.63-.07.13.22,0,.22-.77,0-1,.32a5.37,5.37,0,0,0-.31,2.16v7.77C758.46,983.84,758.19,983.84,758.08,983.71Z" fill="#fff"/><path d="M768.81,981a5,5,0,0,0,.29,2.18c.2.29,1,.29,1.12.29s.14.22,0,.22-1.69-.07-2.06-.07-1.72.07-1.9.07-.13-.22,0-.22.8,0,1-.29a4.12,4.12,0,0,0,.38-2.18v-5.1a4.12,4.12,0,0,0-.38-2.19c-.22-.29-.85-.29-1-.29s-.14-.22,0-.22,1.53.07,1.9.07,1.83-.07,2-.07.13.22,0,.22-.87,0-1.09.29-.24.76-.28,2.19Z" fill="#fff"/><path d="M781.14,983.71c-.36-.42-5.65-6.05-7.76-8.36V981a5.38,5.38,0,0,0,.31,2.16c.21.31.87.31,1,.31s.14.22,0,.22-1.3-.06-1.69-.06-1.48.06-1.68.06-.13-.22,0-.22.78,0,1-.31a5.38,5.38,0,0,0,.31-2.16v-7.7c0-.31.25-.2.34-.08l7.8,8.38v-5.7a5.38,5.38,0,0,0-.29-2.16c-.21-.31-.81-.32-1-.32s-.14-.22,0-.22,1.27.07,1.67.07,1.43-.07,1.63-.07.13.22,0,.22-.77,0-1,.32a5.37,5.37,0,0,0-.31,2.16v7.77C781.52,983.84,781.25,983.84,781.14,983.71Z" fill="#fff"/><path d="M799.42,983.71c-.18,0-1.55-.07-1.93-.07s-1.75.07-1.93.07a.11.11,0,1,1,0-.22c.17,0,.87-.07,1-.27s-1.62-2.38-2.91-4.17c-.49.74-1.11,1.65-1.33,2-.77,1.23-1,1.83-.9,2.1s.66.32.83.32a.11.11,0,1,1,0,.22c-.18,0-1.19-.07-1.62-.07s-1.37.07-1.55.07a.11.11,0,1,1,0-.22,1.53,1.53,0,0,0,.84-.27,18.63,18.63,0,0,0,1.85-2.4c.5-.7,1.05-1.48,1.57-2.24-1.13-1.64-2.27-3.35-3.32-4.86-.15-.22-.48-.29-1.11-.29a.11.11,0,1,1,0-.22c.18,0,1.63.07,2,.07s1.75-.07,1.93-.07a.11.11,0,1,1,0,.22c-.17,0-1,0-1,.29-.08.43,1,2,2.47,4,.34-.5.9-1.29,1.18-1.72.78-1.19,1.18-2,1.06-2.33s-.7-.31-.87-.31a.11.11,0,1,1,0-.22c.18,0,1.2.08,1.64.08s1.27-.07,1.46-.07a.11.11,0,1,1,0,.22,1.38,1.38,0,0,0-.94.29,23.33,23.33,0,0,0-1.6,2.19c-.14.2-1.11,1.58-1.6,2.33v0c1.06,1.47,2.27,3.14,3.67,4.93.17.21.49.29,1.11.29A.11.11,0,1,1,799.42,983.71Z" fill="#fff"/><path d="M801,973.73c-.22-.29-.85-.29-1-.29s-.14-.22,0-.22,1.53.07,1.91.07,1.83-.07,2-.07.13.22,0,.22-.87,0-1.09.29-.24.76-.28,2.19v6.65c0,.64.81.74,1.89.74A2.77,2.77,0,0,0,807,981.7c.06-.13.24-.08.2,0s-.43,2-.9,2H800c-.14,0-.1-.22,0-.22.49,0,.78,0,1-.28a4.59,4.59,0,0,0,.39-2.2v-5.1A4.11,4.11,0,0,0,801,973.73Z" fill="#fff"/><path d="M810.8,981a5,5,0,0,0,.29,2.18c.2.29,1,.29,1.12.29s.14.22,0,.22-1.69-.07-2.06-.07-1.72.07-1.9.07-.13-.22,0-.22.8,0,1-.29a4.12,4.12,0,0,0,.38-2.18v-5.1a4.12,4.12,0,0,0-.38-2.19c-.22-.29-.85-.29-1-.29s-.14-.22,0-.22,1.53.07,1.9.07,1.83-.07,2-.07.13.22,0,.22-.87,0-1.09.29-.24.76-.28,2.19Z" fill="#fff"/><path d="M821.51,980.86c0-1.43-.11-1.93-.29-2.19a1.06,1.06,0,0,0-.8-.28c-.11,0-.13-.24,0-.24s1.27.1,1.65.1,1.34-.1,1.53-.1.14.22,0,.22-.62.07-.76.29a5,5,0,0,0-.29,2.19v1.86s0,.08,0,.1a8.34,8.34,0,0,1-3.71,1,5,5,0,0,1-5.32-5.35,5.25,5.25,0,0,1,5.24-5.36,8.72,8.72,0,0,1,3.91.83,6,6,0,0,1-.29,2.68c-.06.07-.28.06-.25,0a2.49,2.49,0,0,0,.18-.57c.11-1.29-1.81-2.41-3.74-2.41-3,0-3.91,2.34-3.84,4.54.08,2.77,2,5.13,4.4,5.13a4.23,4.23,0,0,0,2.4-.76Z" fill="#fff"/><path d="M835.85,983.71c-.18,0-1.69-.07-2.06-.07s-1.72.07-1.9.07-.13-.22,0-.22.8,0,1-.29a4.12,4.12,0,0,0,.38-2.18v-2.45c-.81,0-1.83-.08-3.05-.08s-2.17.08-3,.13V981a5,5,0,0,0,.29,2.18c.2.29,1,.29,1.12.29s.14.22,0,.22-1.69-.07-2.06-.07-1.72.07-1.91.07-.13-.22,0-.22.8,0,1-.29a4.11,4.11,0,0,0,.38-2.18v-5.1a4.11,4.11,0,0,0-.38-2.19c-.22-.29-.85-.29-1-.29s-.14-.22,0-.22,1.53.07,1.91.07,1.83-.07,2-.07.13.22,0,.22-.87,0-1.09.29-.24.76-.28,2.19V978c.78,0,1.82.06,3,.06s2.24,0,3.05-.06v-2.1a4.12,4.12,0,0,0-.38-2.19c-.22-.29-.85-.29-1-.29s-.14-.22,0-.22,1.53.07,1.9.07,1.83-.07,2-.07.13.22,0,.22-.87,0-1.09.29-.24.76-.28,2.19V981a5,5,0,0,0,.29,2.18c.2.29,1,.29,1.12.29S836,983.71,835.85,983.71Z" fill="#fff"/><path d="M842.2,983.2c.2.29,1,.29,1.12.29s.14.22,0,.22-1.69-.07-2.06-.07-1.72.07-1.9.07-.13-.22,0-.22.8,0,1-.29a4.12,4.12,0,0,0,.38-2.18l0-7.38c-2.19,0-3,.07-3.4.39s-.45,1.34-.45,1.51-.18.14-.18,0a11.43,11.43,0,0,1,0-2.33h9.08a11.43,11.43,0,0,1,0,2.33c0,.13-.18.1-.18,0s-.07-1.2-.45-1.51-1.22-.39-3.4-.39l0,7.38A5,5,0,0,0,842.2,983.2Z" fill="#fff"/><path d="M847.18,985.26a1.88,1.88,0,0,0,.67-1.53.8.8,0,0,1-.2,0,.81.81,0,0,1-.78-.83.92.92,0,0,1,.87-.81,1,1,0,0,1,.88.88,2.59,2.59,0,0,1-1.29,2.58A.18.18,0,0,1,847.18,985.26Z" fill="#fff"/><path d="M856.68,973.73c-.22-.29-.85-.29-1-.29s-.14-.22,0-.22,1.53.07,1.91.07,1.83-.07,2-.07.13.22,0,.22-.87,0-1.09.29-.24.76-.28,2.19v6.65c0,.64.81.74,1.89.74a2.77,2.77,0,0,0,2.56-1.61c.06-.13.24-.08.2,0s-.43,2-.9,2h-6.33c-.14,0-.1-.22,0-.22.49,0,.78,0,1-.28a4.58,4.58,0,0,0,.39-2.2v-5.1A4.11,4.11,0,0,0,856.68,973.73Z" fill="#fff"/><path d="M866.44,981a5,5,0,0,0,.29,2.18c.2.29,1,.29,1.12.29s.14.22,0,.22-1.7-.07-2.06-.07-1.72.07-1.91.07-.13-.22,0-.22.8,0,1-.29a4.12,4.12,0,0,0,.38-2.18v-5.1a4.12,4.12,0,0,0-.38-2.19c-.22-.29-.85-.29-1-.29s-.14-.22,0-.22,1.53.07,1.91.07,1.83-.07,2-.07.13.22,0,.22-.87,0-1.09.29-.24.76-.28,2.19Z" fill="#fff"/><path d="M877.15,980.86c0-1.43-.11-1.93-.29-2.19a1.06,1.06,0,0,0-.8-.28c-.11,0-.13-.24,0-.24s1.27.1,1.65.1,1.34-.1,1.53-.1.14.22,0,.22-.62.07-.76.29a5,5,0,0,0-.29,2.19v1.86s0,.08,0,.1a8.34,8.34,0,0,1-3.71,1,5,5,0,0,1-5.32-5.35,5.25,5.25,0,0,1,5.24-5.36,8.72,8.72,0,0,1,3.91.83,6,6,0,0,1-.29,2.68c-.06.07-.28.06-.25,0a2.44,2.44,0,0,0,.18-.57c.11-1.29-1.81-2.41-3.74-2.41-3,0-3.91,2.34-3.84,4.54.08,2.77,2,5.13,4.4,5.13a4.23,4.23,0,0,0,2.4-.76Z" fill="#fff"/><path d="M891.48,983.71c-.18,0-1.7-.07-2.06-.07s-1.72.07-1.91.07-.13-.22,0-.22.8,0,1-.29a4.12,4.12,0,0,0,.38-2.18v-2.45c-.81,0-1.83-.08-3.05-.08s-2.17.08-3,.13V981a5,5,0,0,0,.29,2.18c.2.29,1,.29,1.12.29s.14.22,0,.22-1.7-.07-2.06-.07-1.72.07-1.9.07-.13-.22,0-.22.8,0,1-.29a4.12,4.12,0,0,0,.38-2.18v-5.1a4.13,4.13,0,0,0-.38-2.19c-.22-.29-.85-.29-1-.29s-.14-.22,0-.22,1.53.07,1.9.07,1.83-.07,2-.07.13.22,0,.22-.87,0-1.09.29-.24.76-.28,2.19V978c.78,0,1.82.06,3,.06s2.24,0,3.05-.06v-2.1a4.12,4.12,0,0,0-.38-2.19c-.22-.29-.85-.29-1-.29s-.14-.22,0-.22,1.53.07,1.91.07,1.83-.07,2-.07.13.22,0,.22-.87,0-1.09.29-.24.76-.28,2.19V981a5,5,0,0,0,.29,2.18c.2.29,1,.29,1.12.29S891.62,983.71,891.48,983.71Z" fill="#fff"/><path d="M897.84,983.2c.2.29,1,.29,1.12.29s.14.22,0,.22-1.7-.07-2.06-.07-1.72.07-1.91.07-.13-.22,0-.22.8,0,1-.29a4.12,4.12,0,0,0,.38-2.18l0-7.38c-2.18,0-3,.07-3.4.39s-.45,1.34-.45,1.51-.18.14-.18,0a11.43,11.43,0,0,1,0-2.33h9.08a11.43,11.43,0,0,1,0,2.33c0,.13-.18.1-.18,0s-.07-1.2-.45-1.51-1.22-.39-3.4-.39l0,7.38A5,5,0,0,0,897.84,983.2Z" fill="#fff"/><path d="M902.82,985.26a1.87,1.87,0,0,0,.67-1.53.8.8,0,0,1-.2,0,.81.81,0,0,1-.78-.83.92.92,0,0,1,.87-.81,1,1,0,0,1,.88.88,2.6,2.6,0,0,1-1.29,2.58A.18.18,0,0,1,902.82,985.26Z" fill="#fff"/><path d="M919.81,983.8a3.34,3.34,0,0,1-.74-.11,4.13,4.13,0,0,1-1.71-1.44c-.52-.66-2.17-3.32-2.17-3.32a8.66,8.66,0,0,1-1.34-.1V981a5,5,0,0,0,.29,2.18c.2.29,1,.29,1.12.29s.14.22,0,.22-1.7-.07-2.06-.07-1.72.07-1.9.07-.13-.22,0-.22.8,0,1-.29a4.12,4.12,0,0,0,.38-2.18v-5.1a4.58,4.58,0,0,0-.39-2.2c-.22-.25-.52-.28-1-.28-.13,0-.17-.22,0-.22h4.08c1.44,0,3.1.76,3.1,2.49a3.42,3.42,0,0,1-2.17,3c.36.5,1.82,2.52,2.39,3.22a3.54,3.54,0,0,0,2.37,1.54c.1,0,.1.21,0,.24S920,983.8,919.81,983.8Zm-2.66-8a2.26,2.26,0,0,0-2.3-2.17h-1v4.78a8.07,8.07,0,0,0,1.49.07A2.3,2.3,0,0,0,917.14,975.81Z" fill="#fff"/><path d="M922.69,975.91a4.94,4.94,0,0,0-.39-2.2c-.22-.25-.52-.28-1-.28-.13,0-.17-.22,0-.22h6.33a8.28,8.28,0,0,1,0,1.89c0,.08-.17.1-.17,0,0-.64-.25-1.44-2.1-1.44l-1.54,0v4.27H926c.67,0,.85-.25.85-.71,0-.07.17-.07.17,0v2.09c0,.07-.17.07-.17,0,0-.46-.18-.83-.85-.85l-2.18-.11v4.26c0,.64.81.74,1.89.74a2.77,2.77,0,0,0,2.56-1.61c.06-.13.24-.08.2,0s-.43,2-.9,2h-6.32c-.14,0-.1-.22,0-.22.49,0,.78,0,1-.28a4.58,4.58,0,0,0,.39-2.2Z" fill="#fff"/><path d="M937.53,980.86c0-1.43-.11-1.93-.29-2.19a1.06,1.06,0,0,0-.8-.28c-.11,0-.13-.24,0-.24s1.27.1,1.65.1,1.34-.1,1.53-.1.14.22,0,.22-.62.07-.76.29a5,5,0,0,0-.29,2.19v1.86s0,.08,0,.1a8.34,8.34,0,0,1-3.71,1,5,5,0,0,1-5.32-5.35,5.25,5.25,0,0,1,5.24-5.36,8.72,8.72,0,0,1,3.91.83,6,6,0,0,1-.29,2.68c-.06.07-.28.06-.25,0a2.44,2.44,0,0,0,.18-.57c.11-1.29-1.81-2.41-3.74-2.41-3,0-3.91,2.34-3.84,4.54.08,2.77,2,5.13,4.4,5.13a4.23,4.23,0,0,0,2.4-.76Z" fill="#fff"/><path d="M943.07,979.48a3.61,3.61,0,0,0,3.67,3.81c2.13,0,3.08-1.37,3.08-3.75v-3.63a4.86,4.86,0,0,0-.29-2.19c-.15-.27-.57-.29-.74-.29s-.13-.22,0-.22,1.11.07,1.48.07,1.21-.07,1.39-.07.11.22,0,.22a.84.84,0,0,0-.7.29c-.18.27-.27.76-.31,2.19v3.57c0,2.86-1.6,4.34-4.06,4.34-2.93,0-4.66-1.5-4.66-4.34v-3.57a4.12,4.12,0,0,0-.38-2.19c-.22-.29-.85-.29-1-.29s-.14-.22,0-.22,1.53.07,1.91.07,1.83-.07,2-.07.13.22,0,.22-.87,0-1.09.29-.24.76-.28,2.19Z" fill="#fff"/><path d="M953.58,973.73c-.22-.29-.85-.29-1-.29s-.14-.22,0-.22,1.53.07,1.9.07,1.83-.07,2-.07.13.22,0,.22-.87,0-1.09.29-.24.76-.28,2.19v6.65c0,.64.81.74,1.89.74a2.77,2.77,0,0,0,2.56-1.61c.06-.13.24-.08.2,0s-.43,2-.9,2h-6.33c-.14,0-.1-.22,0-.22.49,0,.78,0,1-.28A4.58,4.58,0,0,0,954,981v-5.1A4.13,4.13,0,0,0,953.58,973.73Z" fill="#fff"/><path d="M971.7,983.71c-.18,0-1.25,0-1.68,0l-2.07,0a.11.11,0,0,1,0-.22c.15,0,1.18-.07,1.19-.32s-.6-1.64-1.32-3.39l-.13-.32-1.93,0-1.72,0c-.18.48-.34.88-.46,1.23a17.1,17.1,0,0,0-.88,2.48c0,.25.85.32,1,.32a.11.11,0,0,1,0,.22c-.17,0-1.25,0-1.64,0s-1.5,0-1.68,0-.13-.22,0-.22a1.94,1.94,0,0,0,1.12-.39A10,10,0,0,0,962.6,981c.63-1.42,1.65-3.78,3.35-7.77,0-.08.1-.14.17-.14s.13.06.17.14c.77,1.79,1.57,3.73,2.35,5.56a46.86,46.86,0,0,0,1.95,4.3c.18.29,1,.39,1.12.39S971.86,983.71,971.7,983.71Zm-4.24-4.8c-.62-1.5-1.26-3-1.64-4-.66,1.64-1.16,2.93-1.57,4l1.5,0Z" fill="#fff"/><path d="M980.94,983.8a3.33,3.33,0,0,1-.74-.11,4.13,4.13,0,0,1-1.71-1.44c-.52-.66-2.17-3.32-2.17-3.32a8.66,8.66,0,0,1-1.34-.1V981a5,5,0,0,0,.29,2.18c.2.29,1,.29,1.12.29s.14.22,0,.22-1.7-.07-2.06-.07-1.72.07-1.9.07-.13-.22,0-.22.8,0,1-.29a4.12,4.12,0,0,0,.38-2.18v-5.1a4.58,4.58,0,0,0-.39-2.2c-.22-.25-.52-.28-1-.28-.13,0-.17-.22,0-.22h4.08c1.44,0,3.1.76,3.1,2.49a3.42,3.42,0,0,1-2.17,3c.36.5,1.82,2.52,2.39,3.22a3.54,3.54,0,0,0,2.37,1.54c.1,0,.1.21,0,.24S981.12,983.8,980.94,983.8Zm-2.66-8a2.26,2.26,0,0,0-2.3-2.17h-1v4.78a8.07,8.07,0,0,0,1.49.07A2.3,2.3,0,0,0,978.28,975.81Z" fill="#fff"/><path d="M982.9,985.26a1.88,1.88,0,0,0,.67-1.53.8.8,0,0,1-.2,0,.81.81,0,0,1-.78-.83.92.92,0,0,1,.87-.81,1,1,0,0,1,.88.88,2.6,2.6,0,0,1-1.29,2.58A.18.18,0,0,1,982.9,985.26Z" fill="#fff"/><path d="M997.71,983.83c-.07,0-.13-.06-.17-.14l-3.77-7.94c-.21,1.85-.55,5.14-.56,5.27,0,.36-.25,2,0,2.31s.74.17.91.17.14.22,0,.22-1.25,0-1.68,0-1.28,0-1.47,0-.13-.22,0-.22a1.2,1.2,0,0,0,1.06-.36,5.43,5.43,0,0,0,.52-2.12c0-.14.74-5.83,1-7.77a.18.18,0,0,1,.17-.14c.07,0,.13.06.17.14l4.16,8.68,3.81-8.68c0-.08.1-.14.17-.14a.18.18,0,0,1,.17.14l1.16,7.77a8.73,8.73,0,0,0,.56,2.12,1,1,0,0,0,1,.36c.13,0,.14.22,0,.22l-1.61,0c-.43,0-1.58,0-1.76,0s-.13-.22,0-.22.53,0,.66-.17a5.17,5.17,0,0,0,0-2.27l-.84-5.38-3.45,8C997.84,983.77,997.78,983.83,997.71,983.83Z" fill="#fff"/><path d="M1006.92,975.91a4.94,4.94,0,0,0-.39-2.2c-.22-.25-.52-.28-1-.28-.13,0-.17-.22,0-.22h6.33a8.28,8.28,0,0,1,0,1.89c0,.08-.17.1-.17,0,0-.64-.25-1.44-2.1-1.44l-1.54,0v4.27h2.18c.67,0,.85-.25.85-.71,0-.07.17-.07.17,0v2.09c0,.07-.17.07-.17,0,0-.46-.18-.83-.85-.85l-2.18-.11v4.26c0,.64.81.74,1.89.74a2.77,2.77,0,0,0,2.56-1.61c.06-.13.24-.08.2,0s-.43,2-.9,2h-6.32c-.14,0-.1-.22,0-.22.49,0,.78,0,1-.28a4.58,4.58,0,0,0,.39-2.2Z" fill="#fff"/><path d="M1015,975.91a4.58,4.58,0,0,0-.39-2.2c-.22-.25-.52-.28-1-.28-.13,0-.17-.22,0-.22h4.57c3.21,0,5.52,1.76,5.52,5.21a5.13,5.13,0,0,1-5.1,5.37c-.46,0-1.89-.11-2.69-.11l-2.3,0c-.14,0-.1-.22,0-.22.49,0,.78,0,1-.28a4.58,4.58,0,0,0,.39-2.2Zm3.5,7.4c2.89,0,4.08-2.24,4-4.5-.1-2.54-1.67-5.13-4.58-5.13l-1.78,0v8.94C1016.14,983.21,1018,983.31,1018.5,983.31Z" fill="#fff"/><path d="M1027.5,981a5,5,0,0,0,.29,2.18c.2.29,1,.29,1.12.29s.14.22,0,.22-1.7-.07-2.06-.07-1.72.07-1.91.07-.13-.22,0-.22.8,0,1-.29a4.11,4.11,0,0,0,.38-2.18v-5.1a4.11,4.11,0,0,0-.38-2.19c-.22-.29-.85-.29-1-.29s-.14-.22,0-.22,1.53.07,1.91.07,1.83-.07,2-.07.13.22,0,.22-.87,0-1.09.29-.24.76-.28,2.19Z" fill="#fff"/><path d="M1032.37,979.48a3.61,3.61,0,0,0,3.67,3.81c2.13,0,3.08-1.37,3.08-3.75v-3.63a4.86,4.86,0,0,0-.29-2.19c-.15-.27-.57-.29-.74-.29s-.13-.22,0-.22,1.11.07,1.48.07,1.21-.07,1.39-.07.11.22,0,.22a.84.84,0,0,0-.7.29c-.18.27-.27.76-.31,2.19v3.57c0,2.86-1.6,4.34-4.06,4.34-2.93,0-4.66-1.5-4.66-4.34v-3.57a4.12,4.12,0,0,0-.38-2.19c-.22-.29-.85-.29-1-.29s-.14-.22,0-.22,1.53.07,1.91.07,1.83-.07,2-.07.13.22,0,.22-.87,0-1.09.29-.24.76-.28,2.19Z" fill="#fff"/><path d="M1048.21,983.83c-.07,0-.13-.06-.17-.14l-3.77-7.94c-.21,1.85-.55,5.14-.56,5.27,0,.36-.25,2,0,2.31s.74.17.91.17.14.22,0,.22-1.25,0-1.68,0-1.28,0-1.47,0-.13-.22,0-.22a1.2,1.2,0,0,0,1.06-.36,5.43,5.43,0,0,0,.52-2.12c0-.14.74-5.83,1-7.77a.18.18,0,0,1,.17-.14c.07,0,.13.06.17.14l4.16,8.68,3.81-8.68c0-.08.1-.14.17-.14a.18.18,0,0,1,.17.14l1.16,7.77a8.73,8.73,0,0,0,.56,2.12,1,1,0,0,0,1,.36c.13,0,.14.22,0,.22l-1.61,0c-.43,0-1.58,0-1.76,0s-.13-.22,0-.22.53,0,.66-.17a5.17,5.17,0,0,0,0-2.27l-.84-5.38-3.45,8C1048.34,983.77,1048.28,983.83,1048.21,983.83Z" fill="#fff"/><path d="M1056.49,985.26a1.87,1.87,0,0,0,.67-1.53.8.8,0,0,1-.2,0,.81.81,0,0,1-.78-.83.92.92,0,0,1,.87-.81,1,1,0,0,1,.88.88,2.6,2.6,0,0,1-1.29,2.58A.18.18,0,0,1,1056.49,985.26Z" fill="#fff"/><path d="M1069.24,983.79c-.17,0-1.39-.11-2-.11l-2.3,0c-.14,0-.1-.22,0-.22.49,0,.78,0,1-.28a4.58,4.58,0,0,0,.39-2.2v-5.1a4.58,4.58,0,0,0-.39-2.2c-.22-.25-.52-.28-1-.28-.13,0-.17-.22,0-.22h3.63c1.36,0,2.91.66,2.91,2.42a2.57,2.57,0,0,1-2,2.46c1.86.25,3,1.32,3,2.73A3.12,3.12,0,0,1,1069.24,983.79Zm-.7-5.76c1.06,0,1.92-.77,1.85-2.28a2.08,2.08,0,0,0-2-2.1h-.92V978Zm-1,.41v4.15c0,.63,1.23.71,1.79.71a2,2,0,0,0,1.91-2.33,2.41,2.41,0,0,0-2.48-2.54Z" fill="#fff"/><path d="M1073.79,978.56a5.49,5.49,0,0,1,5.29-5.46,5.09,5.09,0,0,1,5.31,5.29,5.28,5.28,0,0,1-5.31,5.44A5,5,0,0,1,1073.79,978.56Zm9.41.29c-.1-3-2.26-5.25-4.47-5.22-2.37,0-3.82,2.3-3.73,4.47.14,3,2.12,5.21,4.45,5.21C1081.55,983.31,1083.28,981.42,1083.2,978.85Z" fill="#fff"/><path d="M1086.72,973.73c-.22-.29-.85-.29-1-.29s-.14-.22,0-.22,1.53.07,1.9.07,1.83-.07,2-.07.13.22,0,.22-.87,0-1.09.29-.24.76-.28,2.19v6.65c0,.64.81.74,1.89.74a2.77,2.77,0,0,0,2.56-1.61c.06-.13.24-.08.2,0s-.43,2-.9,2h-6.33c-.14,0-.1-.22,0-.22.49,0,.78,0,1-.28a4.58,4.58,0,0,0,.39-2.2v-5.1A4.13,4.13,0,0,0,1086.72,973.73Z" fill="#fff"/><path d="M1095.35,975.91a4.58,4.58,0,0,0-.39-2.2c-.22-.25-.52-.28-1-.28-.13,0-.17-.22,0-.22h4.57c3.21,0,5.52,1.76,5.52,5.21a5.13,5.13,0,0,1-5.1,5.37c-.46,0-1.89-.11-2.69-.11l-2.3,0c-.14,0-.1-.22,0-.22.49,0,.78,0,1-.28a4.58,4.58,0,0,0,.39-2.2Zm3.5,7.4c2.89,0,4.08-2.24,4-4.5-.1-2.54-1.67-5.13-4.58-5.13l-1.78,0v8.94C1096.48,983.21,1098.34,983.31,1098.85,983.31Z" fill="#fff"/><path d="M1105.79,985.26a1.88,1.88,0,0,0,.67-1.53.8.8,0,0,1-.2,0,.81.81,0,0,1-.78-.83.92.92,0,0,1,.87-.81,1,1,0,0,1,.88.88,2.6,2.6,0,0,1-1.29,2.58A.18.18,0,0,1,1105.79,985.26Z" fill="#fff"/><path d="M1124.34,983.71c-.18,0-1.55-.07-1.93-.07s-1.75.07-1.93.07a.11.11,0,1,1,0-.22c.17,0,.87-.07,1-.27s-1.62-2.38-2.91-4.17c-.49.74-1.11,1.65-1.33,2-.77,1.23-1,1.83-.9,2.1s.66.32.83.32a.11.11,0,1,1,0,.22c-.18,0-1.19-.07-1.62-.07s-1.37.07-1.55.07a.11.11,0,1,1,0-.22,1.53,1.53,0,0,0,.84-.27,18.57,18.57,0,0,0,1.85-2.4c.5-.7,1.05-1.48,1.57-2.24-1.13-1.64-2.27-3.35-3.32-4.86-.15-.22-.48-.29-1.11-.29a.11.11,0,1,1,0-.22c.18,0,1.63.07,2,.07s1.75-.07,1.93-.07a.11.11,0,1,1,0,.22c-.17,0-1,0-1,.29-.08.43,1,2,2.46,4,.34-.5.9-1.29,1.18-1.72.78-1.19,1.18-2,1.06-2.33s-.7-.31-.87-.31a.11.11,0,1,1,0-.22c.18,0,1.21.08,1.64.08s1.28-.07,1.46-.07a.11.11,0,1,1,0,.22,1.38,1.38,0,0,0-.94.29,23.27,23.27,0,0,0-1.6,2.19c-.14.2-1.11,1.58-1.6,2.33v0c1.06,1.47,2.27,3.14,3.67,4.93.17.21.49.29,1.11.29A.11.11,0,1,1,1124.34,983.71Z" fill="#fff"/><path d="M1129.21,983.79c-.17,0-1.39-.11-2-.11l-2.3,0c-.14,0-.1-.22,0-.22.49,0,.78,0,1-.28a4.58,4.58,0,0,0,.39-2.2v-5.1a4.58,4.58,0,0,0-.39-2.2c-.22-.25-.52-.28-1-.28-.13,0-.17-.22,0-.22h3.63c1.36,0,2.91.66,2.91,2.42a2.57,2.57,0,0,1-2,2.46c1.86.25,3,1.32,3,2.73A3.12,3.12,0,0,1,1129.21,983.79Zm-.7-5.76c1.06,0,1.92-.77,1.85-2.28a2.08,2.08,0,0,0-2-2.1h-.92V978Zm-1,.41v4.15c0,.63,1.23.71,1.79.71a2,2,0,0,0,1.91-2.33,2.41,2.41,0,0,0-2.48-2.54Z" fill="#fff"/><path d="M1133.76,978.56a5.49,5.49,0,0,1,5.29-5.46,5.09,5.09,0,0,1,5.31,5.29,5.28,5.28,0,0,1-5.31,5.44A5,5,0,0,1,1133.76,978.56Zm9.41.29c-.1-3-2.26-5.25-4.47-5.22-2.37,0-3.82,2.3-3.73,4.47.14,3,2.12,5.21,4.45,5.21C1141.52,983.31,1143.26,981.42,1143.17,978.85Z" fill="#fff"/><path d="M1146.7,973.73c-.22-.29-.85-.29-1-.29s-.14-.22,0-.22,1.53.07,1.9.07,1.83-.07,2-.07.13.22,0,.22-.87,0-1.09.29-.24.76-.28,2.19v6.65c0,.64.81.74,1.89.74a2.77,2.77,0,0,0,2.56-1.61c.06-.13.24-.08.2,0s-.43,2-.9,2h-6.33c-.14,0-.1-.22,0-.22.49,0,.78,0,1-.28a4.58,4.58,0,0,0,.39-2.2v-5.1A4.13,4.13,0,0,0,1146.7,973.73Z" fill="#fff"/><path d="M1155.32,975.91a4.58,4.58,0,0,0-.39-2.2c-.22-.25-.52-.28-1-.28-.13,0-.17-.22,0-.22h4.57c3.21,0,5.52,1.76,5.52,5.21a5.13,5.13,0,0,1-5.1,5.37c-.46,0-1.89-.11-2.69-.11l-2.3,0c-.14,0-.1-.22,0-.22.49,0,.78,0,1-.28a4.58,4.58,0,0,0,.39-2.2Zm3.5,7.4c2.89,0,4.08-2.24,4-4.5-.1-2.54-1.67-5.13-4.58-5.13l-1.78,0v8.94C1156.46,983.21,1158.32,983.31,1158.82,983.31Z" fill="#fff"/><path d="M1173.58,982v-2.59h-2.45s0-.15,0-.31.1-.31.17-.31h2.24v-2.39a2.15,2.15,0,0,1,.87-.18v2.58h2.4s0,.15-.06.29-.08.32-.14.32h-2.2v2.38C1174.45,981.88,1173.58,982,1173.58,982Z" fill="#fff"/><path d="M1188.63,983.79c-.17,0-1.39-.11-2-.11l-2.3,0c-.14,0-.1-.22,0-.22.49,0,.78,0,1-.28a4.58,4.58,0,0,0,.39-2.2v-5.1a4.58,4.58,0,0,0-.39-2.2c-.22-.25-.52-.28-1-.28-.13,0-.17-.22,0-.22H1188c1.36,0,2.91.66,2.91,2.42a2.57,2.57,0,0,1-2,2.46c1.86.25,3,1.32,3,2.73A3.12,3.12,0,0,1,1188.63,983.79Zm-.7-5.76c1.06,0,1.92-.77,1.85-2.28a2.08,2.08,0,0,0-2-2.1h-.92V978Zm-1,.41v4.15c0,.63,1.23.71,1.79.71a2,2,0,0,0,1.91-2.33,2.41,2.41,0,0,0-2.48-2.54Z" fill="#fff"/><path d="M1194,973.73c-.22-.29-.85-.29-1-.29s-.14-.22,0-.22,1.53.07,1.9.07,1.83-.07,2-.07.13.22,0,.22-.87,0-1.09.29-.24.76-.28,2.19v6.65c0,.64.81.74,1.89.74a2.77,2.77,0,0,0,2.56-1.61c.06-.13.24-.08.2,0s-.43,2-.9,2H1193c-.14,0-.1-.22,0-.22.49,0,.78,0,1-.28a4.58,4.58,0,0,0,.39-2.2v-5.1A4.13,4.13,0,0,0,1194,973.73Z" fill="#fff"/><path d="M1212.15,983.71c-.18,0-1.25,0-1.68,0l-2.07,0a.11.11,0,0,1,0-.22c.15,0,1.18-.07,1.19-.32s-.6-1.64-1.32-3.39l-.13-.32-1.93,0-1.72,0c-.18.48-.34.88-.46,1.23a17.1,17.1,0,0,0-.88,2.48c0,.25.85.32,1,.32a.11.11,0,0,1,0,.22c-.17,0-1.25,0-1.64,0s-1.5,0-1.68,0-.13-.22,0-.22a1.94,1.94,0,0,0,1.12-.39A10,10,0,0,0,1203,981c.63-1.42,1.65-3.78,3.35-7.77,0-.08.1-.14.17-.14s.13.06.17.14c.77,1.79,1.57,3.73,2.35,5.56a46.86,46.86,0,0,0,1.95,4.3c.18.29,1,.39,1.12.39S1212.31,983.71,1212.15,983.71Zm-4.24-4.8c-.62-1.5-1.26-3-1.64-4-.66,1.64-1.16,2.93-1.57,4l1.5,0Z" fill="#fff"/><path d="M1217.59,983.83c-3.07,0-5.32-1.85-5.32-5.27a5.37,5.37,0,0,1,5.25-5.46,7.93,7.93,0,0,1,3.77.84,6,6,0,0,1-.29,2.68c-.06.07-.28.06-.25,0a2.5,2.5,0,0,0,.18-.57c.13-1.28-1.44-2.41-3.57-2.41-2.31,0-4,2.24-3.89,4.55.07,2.52,1.9,5.13,4.48,5.11a3.25,3.25,0,0,0,3.36-2.63c0-.1.25-.14.25,0a12.72,12.72,0,0,1-.27,2.2A8.15,8.15,0,0,1,1217.59,983.83Z" fill="#fff"/><path d="M1231.3,983.81a4.37,4.37,0,0,1-.84-.11c-.59-.2-1-.48-2-1.86-.74-1-2-3.18-2.21-3.18h-.94V981a5,5,0,0,0,.29,2.18c.2.29,1,.29,1.12.29s.14.22,0,.22-1.7-.07-2.06-.07-1.72.07-1.91.07-.13-.22,0-.22.8,0,1-.29a4.12,4.12,0,0,0,.38-2.18v-5.07a4.12,4.12,0,0,0-.38-2.18c-.22-.29-.85-.29-1-.29s-.14-.22,0-.22,1.53.07,1.91.07,1.83-.07,2-.07.13.22,0,.22-.87,0-1.09.29-.24.73-.28,2.16v2.34h.69a.82.82,0,0,0,.6-.29c.45-.5,1-1.22,1.65-2a5.63,5.63,0,0,0,1.25-2.23c0-.29-.64-.29-.81-.29s-.14-.22,0-.22,1.18.07,1.57.07,1.44-.07,1.63-.07.13.22,0,.22a1.42,1.42,0,0,0-1,.34c-.41.41-1.58,1.61-2,2.14-.57.74-1.15,1.39-1.78,2.14a32.41,32.41,0,0,1,2.61,3.08c1.05,1.25,1.79,2.37,2.77,2.37.1,0,.13.18,0,.21A8.94,8.94,0,0,1,1231.3,983.81Z" fill="#fff"/><path d="M475.06,156.27c-3.1-.9-12-15.9-16.8-24.4-2.5,5.1-5.4,10.1-7.6,13.8-3.1,5.5-5.6,9.6-7,10.6-1.4,1.2-4.1.5-5.8-.6-3-1.9-16-24.3-18.5-28.4-1.1-1.8-6-11-8.4-13.8-1.6-1.6-4.9-1.8-5.4-1.7-1.7,0-1.7-3,0-3,1.1,0,15.3.8,18.1.8,2.4,0,15.4-.9,16.6-.9s1.3,2.8-.1,2.8c-1,0-4.1,0-5.4,1.2-1.9,2,4.9,12.9,6.1,15,1,1.8,4.3,8,7.7,13.1,1.3-2.6,2.5-5,3.5-7.3a35.12,35.12,0,0,0,3-7.6c-1.7-3.5-4.7-10.2-6.7-12.4-1.5-1.6-4.9-1.8-5.4-1.7-1.6,0-1.6-3,0-3,1.1,0,15.4.8,18.2.8,2.4,0,16-.9,17.2-.9s1.3,2.8-.1,2.8c-1,0-4.3,0-5.6,1.2-2,2,3.7,13.3,4.9,15.2,1,1.7,4.7,8.3,8.1,13.4,2.7-6.6,4.5-12.6,6.2-18,1.9-6.1-.1-7.1-2.3-9-1.8-1.5-3.2-2.6-6.5-2.6-2.4,0-2.1-2.9.2-2.9,1.2,0,11.8.8,14.2.8,2.8,0,13.3-.8,14.4-.8a1.46,1.46,0,1,1,.1,2.9,11.9,11.9,0,0,0-6.8,1.9c-3.5,2.8-4.6,5.8-6.7,9.6-5.7,11.9-11,21.8-15,29.5-.4.7-2.5,3.8-2.9,3.6C479.26,157.47,476.76,156.87,475.06,156.27Z" fill="#fff"/><path d="M518.06,116c-1.3-1.7-3.4-1.3-4.7-1s-2-2-.7-2.3,21.8-4.7,24.7-5.1c1.4-.2,2.1-.1,2.1,1.3l.2,19.6V137c0,3.9.1,11.9,1.9,14.6,1.2,1.8,4.2,1.6,5.3,1.6,1.6,0,1.5,3.1-.2,3.1-1.1,0-14-.8-16.8-.8-2.4,0-15.4.8-16.6.8-2.1,0-2.1-3.1-.2-3.1,1,0,3.8.2,5.1-1.8,2-2.8,1.8-10.5,1.8-14.4v-8.5C520,124.57,520.26,119,518.06,116Zm.8-20.4c-1.3-3.8.6-9.7,6.2-11.9,5.4-2.4,9.8-.2,11.9,5.5a9.69,9.69,0,0,1-5.9,12C527.46,102.87,521.16,101.27,518.86,95.57Z" fill="#fff"/><path d="M556.86,140.57c-.4,1.8,1.3,4.7,2.4,5.8,4.2,4.5,8.1,6.2,11.5,6.2,4,0,7-2.3,7-6.1,0-4.9-7.3-7.9-11.6-10.6-4.8-3-12.1-5.5-12.1-15.3s10.8-13.3,20.9-13.3,17.8,3.1,18.9,3.8-.2,10.8-.7,13c-.1.3-2,.5-1.9,0a8.65,8.65,0,0,0-2.7-8.2c-2.5-2.4-4.9-3.6-7.7-3.6-4.1,0-7.3,1.4-7.3,5.5,0,5.7,7.8,8.7,12.2,11.1,5.8,3,10.4,6.1,10.4,12.6,0,10.8-11.1,15.3-22.8,15.3-6.6,0-17.1-2.6-18.6-3.1-.9-.4.1-11.6-.1-13.1S557,139.37,556.86,140.57Z" fill="#fff"/><path d="M672.36,156.27c-1.1,0-14-.8-16.8-.8-2.4,0-14.5.8-15.7.8-2.1,0-2.1-3.1-.2-3.1a4.26,4.26,0,0,0,4.2-1.8c1.9-2.8,1.8-10.5,1.8-14.4v-10.5c0-6.2-2.5-9.9-7.9-9.9-3.8,0-6,1.6-7.2,4.1V137c0,3.9.1,11.9,1.9,14.6,1.2,1.8,3,1.6,4.1,1.6,1.7,0,1.5,3.1-.1,3.1-1.1,0-12.9-.8-15.7-.8-2.4,0-15.4.8-16.6.8-2.1,0-2.1-3.1-.2-3.1,1,0,3.8.2,5.1-1.8,1.9-2.8,1.8-10.5,1.8-14.4V98.57c0-3.9.3-9.6-2-12.5-1.2-1.7-3.4-1.3-4.7-1s-1.9-2.1-.6-2.4,21.7-4.6,24.7-5.1c1.4-.1,2-.1,2,1.4l.3,19.4v16.5c3.8-3.6,9.9-7.4,16.4-7.4,8.6,0,18.4,4.3,18.4,18.9V137c0,3.9.1,11.9,1.9,14.6,1.2,1.8,4.1,1.6,5.2,1.6C674.16,153.17,674,156.27,672.36,156.27Z" fill="#fff"/><path d="M709.35,172.17c.9-.1,2.8-.9,8.9-3.1a81.94,81.94,0,0,0,21.1-14.6c-4.2-4.5-14.4-21.3-17.3-26.8-1.1-1.7-5.6-11.6-8.1-14.3a6.56,6.56,0,0,0-4.6-1.8c-1.6,0-1.6-3,0-3,1.1,0,14.5.9,17.3.9,2.4,0,15.2-.9,16.4-.9s1.3,2.7-.1,2.7c-1,0-3.6,0-4.9,1.2-2,2,4.2,13,5.5,15.3.8,1.5,3.4,6.5,6.2,11.1,2.5-4.9,4.4-8.8,6.3-13.4,1.7-4.6,1.4-8.7-2.4-11.9a9.21,9.21,0,0,0-5.9-1.9c-2.4,0-2.1-2.9.2-2.9,1.2,0,11.9.8,14.3.8,2.8,0,13.2-.8,14.3-.8,2.2,0,2.3,2.9.2,2.9a10.55,10.55,0,0,0-6.8,1.9c-3.6,2.8-7.4,12.3-8.2,13.7-4.4,9.3-8.1,15.6-10.9,20.7-10.7,20.5-17.4,27.7-22.3,32.2C724.45,184.17,706,173.17,709.35,172.17Z" fill="#fff"/><path d="M779.45,134.87c-.2-14.5,8.9-27.8,31.9-27.8,10.8,0,26,4.1,26.2,22,.1,13.1-5.8,28.7-30.5,28.7C796,157.77,779.55,151.57,779.45,134.87Zm38.4,3.3c.7-13.3-3.3-26.9-11.5-26.9-4.2,0-6.7,4.4-7.3,12.7-.8,13.6,2.8,30.1,11.3,30.1C814.15,154.07,817.25,147.07,817.85,138.17Z" fill="#fff"/><path d="M887.16,147.57c-3,3.3-12.1,9.7-22.8,9.7-7.5,0-15.2-1.7-15.2-16.9v-12.2c0-3.9.3-9.6-1.9-12.5-1.3-1.7-3.4-1.3-4.7-1s-2-2.1-.7-2.4,21.8-4.6,24.7-5.1c1.4-.1,2.1-.1,2.1,1.4l.2,19.4v12.3c0,6.3,2,8.1,5.4,8.1,5.1,0,9-2,10.6-6a35.24,35.24,0,0,1-.5-6.4v-8c0-3.9.4-9.7-1.8-12.5-1.3-1.7-2.9-1.3-4.2-1s-1.9-2-.6-2.3,21.1-4.7,24-5.1c1.4-.2,2.1-.1,2.1,1.3l.2,19.5v10.6c0,3.9,0,11.1,2.1,12.7,2,1.9,4,1,5.1,1,1.5,0,1.6,2.5.5,2.9-.7.3-6.6.3-9.4.3-3.7,0-9.2-1-12.6-5C888.86,149.37,888,148.47,887.16,147.57Z" fill="#fff"/><path d="M1015.16,156.27c-3.1-.9-12-15.9-16.8-24.4-2.5,5.1-5.4,10.1-7.6,13.8-3.1,5.5-5.6,9.6-7,10.6-1.4,1.2-4.1.5-5.8-.6-3-1.9-16-24.3-18.5-28.4-1.1-1.8-6-11-8.4-13.8-1.6-1.6-4.9-1.8-5.4-1.7-1.7,0-1.7-3,0-3,1.1,0,15.3.8,18.1.8,2.4,0,15.4-.9,16.6-.9s1.3,2.8-.1,2.8c-1,0-4.1,0-5.4,1.2-1.9,2,4.9,12.9,6.1,15,1,1.8,4.3,8,7.7,13.1,1.3-2.6,2.5-5,3.5-7.3a35.12,35.12,0,0,0,3-7.6c-1.7-3.5-4.7-10.2-6.7-12.4-1.5-1.6-4.9-1.8-5.4-1.7-1.6,0-1.6-3,0-3,1.1,0,15.4.8,18.2.8,2.4,0,16-.9,17.2-.9s1.3,2.8-.1,2.8c-1,0-4.3,0-5.6,1.2-2,2,3.7,13.3,4.9,15.2,1,1.7,4.7,8.3,8.1,13.4,2.7-6.6,4.5-12.6,6.2-18,1.9-6.1-.1-7.1-2.3-9-1.8-1.5-3.2-2.6-6.5-2.6-2.4,0-2.1-2.9.2-2.9,1.2,0,11.8.8,14.2.8,2.8,0,13.3-.8,14.4-.8a1.46,1.46,0,1,1,.1,2.9,11.9,11.9,0,0,0-6.8,1.9c-3.5,2.8-4.6,5.8-6.7,9.6-5.7,11.9-11,21.8-15,29.5-.4.7-2.5,3.8-2.9,3.6C1019.36,157.47,1016.86,156.87,1015.16,156.27Z" fill="#fff"/><path d="M1083.85,157.77c-13.9,0-30.6-7.5-30.6-23.1,0-15.8,16-27.6,32.7-27.6,13.8,0,21,8.5,21,17.7,0,1.5-2,1.9-4.4,2.4l-29.5,6.1.1.6c2,9.1,8.4,17.2,16.6,17.2,8.5,0,11.9-1.8,13.4-2.6.5-.2,2.3.4,2,.9C1104.05,151.37,1094.55,157.77,1083.85,157.77Zm-11.4-28.5,17.7-3.7c-.4-7.1-6.5-13.4-10-13.4C1076,112.17,1071,116.57,1072.45,129.27Z" fill="#fff"/><path d="M1146.65,156.27c-1.3,0-14.4-.8-16.5-.8-3.1,0-15.9.8-16.9.8-1.7,0-1.8-3.1-.2-3.1,1.1,0,4.4.4,5.6-1.4,1.9-3.1,1.6-10.9,1.6-14.8v-9c0-3.9.3-8.9-2-11.8-1.2-1.7-3.4-1.3-4.7-1s-1.9-2.1-.6-2.4,21.7-4.6,24.7-5.1c1.4-.1,2-.1,2,1.4l.1,8.4c2.2-4.6,7.1-10.2,14.1-10.2,8.4,0,14.5,6.8,14.5,11.4,0,2.2-1,4.6-5.3,6-1.5.5-8.1,1.2-8.1.7,0-5.7-1-11.3-6.9-11.3-2.6,0-6.2,3.1-8.2,9.1l.1,4.3V137c0,3.9.2,11.8,2,14.3,1.4,2,3.9,1.9,4.8,1.9A1.55,1.55,0,0,1,1146.65,156.27Z" fill="#fff"/><path d="M1202.15,157.77c-13.9,0-30.6-7.5-30.6-23.1,0-15.8,16-27.6,32.7-27.6,13.8,0,21,8.5,21,17.7,0,1.5-2,1.9-4.4,2.4l-29.5,6.1.1.6c2,9.1,8.4,17.2,16.6,17.2,8.5,0,11.9-1.8,13.4-2.6.5-.2,2.3.4,2,.9C1222.35,151.37,1212.85,157.77,1202.15,157.77Zm-11.4-28.5,17.7-3.7c-.4-7.1-6.5-13.4-10-13.4C1194.25,112.17,1189.25,116.57,1190.75,129.27Z" fill="#fff"/><path d="M1332.75,156.27c-1.1,0-14-.8-16.8-.8-2.4,0-14.5.8-15.7.8-2.1,0-2.1-3.1-.2-3.1,1,0,2.9.2,4.2-1.8,1.9-2.8,1.8-10.5,1.8-14.4v-10.5c0-6.2-2.5-9.9-7.9-9.9-3.8,0-6,1.6-7.2,4.1V137c0,3.9.1,11.9,1.9,14.6,1.2,1.8,3,1.6,4.1,1.6,1.7,0,1.5,3.1-.1,3.1-1.1,0-12.9-.8-15.7-.8-2.4,0-15.4.8-16.6.8-2.1,0-2.1-3.1-.2-3.1,1,0,3.8.2,5.1-1.8,1.9-2.8,1.8-10.5,1.8-14.4V98.57c0-3.9.3-9.6-2-12.5-1.2-1.7-3.4-1.3-4.7-1s-1.9-2.1-.6-2.4,21.7-4.6,24.7-5.1c1.4-.1,2-.1,2,1.4l.3,19.4v16.5c3.8-3.6,9.9-7.4,16.4-7.4,8.6,0,18.4,4.3,18.4,18.9V137c0,3.9.1,11.9,1.9,14.6,1.2,1.8,4.1,1.6,5.2,1.6C1334.55,153.17,1334.35,156.27,1332.75,156.27Z" fill="#fff"/><path d="M1370.25,157.77c-13.9,0-30.6-7.5-30.6-23.1,0-15.8,16-27.6,32.7-27.6,13.8,0,21,8.5,21,17.7,0,1.5-2,1.9-4.4,2.4l-29.5,6.1.1.6c2,9.1,8.4,17.2,16.6,17.2,8.5,0,11.9-1.8,13.4-2.6.5-.2,2.3.4,2,.9C1390.45,151.37,1380.95,157.77,1370.25,157.77Zm-11.4-28.5,17.7-3.7c-.4-7.1-6.5-13.4-10-13.4C1362.35,112.17,1357.35,116.57,1358.85,129.27Z" fill="#fff"/><path d="M1433,156.27c-1.3,0-14.4-.8-16.5-.8-3.1,0-15.9.8-16.9.8-1.7,0-1.8-3.1-.2-3.1,1.1,0,4.4.4,5.6-1.4,1.9-3.1,1.6-10.9,1.6-14.8v-9c0-3.9.3-8.9-2-11.8-1.2-1.7-3.4-1.3-4.7-1s-1.9-2.1-.6-2.4,21.7-4.6,24.7-5.1c1.4-.1,2-.1,2,1.4l.1,8.4c2.2-4.6,7.1-10.2,14.1-10.2,8.4,0,14.5,6.8,14.5,11.4,0,2.2-1,4.6-5.3,6-1.5.5-8.1,1.2-8.1.7,0-5.7-1-11.3-6.9-11.3-2.6,0-6.2,3.1-8.2,9.1l.1,4.3V137c0,3.9.2,11.8,2,14.3,1.4,2,3.9,1.9,4.8,1.9A1.55,1.55,0,0,1,1433,156.27Z" fill="#fff"/><path d="M1488.55,157.77c-13.9,0-30.6-7.5-30.6-23.1,0-15.8,16-27.6,32.7-27.6,13.8,0,21,8.5,21,17.7,0,1.5-2,1.9-4.4,2.4l-29.5,6.1.1.6c2,9.1,8.4,17.2,16.6,17.2,8.5,0,11.9-1.8,13.4-2.6.5-.2,2.3.4,2,.9C1508.75,151.37,1499.25,157.77,1488.55,157.77Zm-11.4-28.5,17.7-3.7c-.4-7.1-6.5-13.4-10-13.4C1480.65,112.17,1475.65,116.57,1477.15,129.27Z" fill="#fff"/><path d="M495.61,274.07c-3-1.2-11.6-16.1-15.9-24.5-2.3,4.8-5.1,9.5-7.2,13.5-3,5.3-5.4,9.5-6.9,11-1.2,1.4-3.5.8-5-.2-3-2-14.3-22-17.2-27.8-1.4-2.8-5.6-11.7-8.1-14.3-1.5-1.7-4.5-1.8-5.3-1.8-1.4,0-1.4-2.7,0-2.7,1.1,0,13.8.8,16.6.8,2.4,0,14.3-.8,15.5-.8s1.1,2.5-.2,2.5c-1,0-4-.1-5.2,1.3-1.9,2.2,3.8,12.3,5.4,15.2.5.4,4.4,8.2,7.8,13.6,1.1-2.3,2.2-4.6,3.2-6.8a49.89,49.89,0,0,0,3.6-9.6c-1.7-3.9-4.2-9.7-6-11.7-1.6-1.7-4.5-1.8-5.3-1.8-1.5,0-1.5-2.7,0-2.7,1.1,0,13.8.8,16.6.8,2.4,0,14.6-.8,15.8-.8s1.1,2.5-.2,2.5c-1,0-4.2-.1-5.4,1.3-1.8,2.2,3,12.4,4.6,15.4.4.4,4.6,8.7,8,13.9,2.4-6,4.1-11.6,5.8-16.9,2.3-6.6,1.2-9.1-.7-11.1a7.71,7.71,0,0,0-6.2-2.4c-2.1,0-1.9-2.7.1-2.7,1.2,0,10.8.8,13.2.8,2.8,0,11.9-.8,13-.8a1.35,1.35,0,1,1,.1,2.7,10.21,10.21,0,0,0-6.4,1.9c-3.2,2.7-4.8,7.1-7.4,12.3-4.8,10.1-9.4,18.8-12.9,25.6a31.51,31.51,0,0,1-2.9,4.3C499.21,275.47,497.11,274.87,495.61,274.07Z" fill="#fff"/><path d="M536.91,234.07c-1.3-1.7-3.5-1.3-4.9-1-1.2.2-1.7-1.9-.5-2.2s19.5-4.2,22.5-4.7c1.3-.1,1.9-.1,1.9,1.4l.2,19.5V255c0,3.9,0,12.2,1.8,14.9,1.2,1.8,4.2,1.7,5.3,1.7,1.5,0,1.4,2.7,0,2.7-1.1,0-12.9-.8-15.7-.8-2.4,0-14.3.8-15.5.8a1.35,1.35,0,0,1-.1-2.7c1,0,3.8,0,5.1-1.9,1.8-2.8,1.8-10.8,1.8-14.7v-7.9C538.81,243.17,539.11,236.87,536.91,234.07Zm.6-20.7a9.19,9.19,0,0,1,5.5-11c4.9-2.1,9.1-.1,11,5.1a8.88,8.88,0,0,1-5.4,10.9C545.21,220,539.51,218.47,537.51,213.37Z" fill="#fff"/><path d="M572.81,258.77a8,8,0,0,0,1.6,5.3c3.4,4.4,9.1,6.7,12.4,6.7,4.5,0,7.5-2.6,7.5-6.4,0-4.8-7.2-7.5-11.9-10.5-5-3.3-12.1-5.9-12.1-15.1s10.3-12.8,19.9-12.8c6.7,0,16.7,2.8,17.7,3.4s0,10.4-.5,12.3c-.1.3-1.7.3-1.7,0,.4-3-.9-5.4-2.9-7.4a11.31,11.31,0,0,0-8-3.7c-4.3,0-7.6,1.6-7.6,5.8,0,5.3,7.4,8.1,12.3,10.7,5.9,3.2,10.9,6.4,10.9,13,0,10.3-10.4,14.7-21.6,14.7-6.6,0-16.4-2.5-17.8-3.1-.9-.3-.1-11.3-.3-12.9C570.71,257.67,572.81,257.57,572.81,258.77Z" fill="#fff"/><path d="M683.11,274.27c-1.1,0-12.9-.8-15.7-.8-2.4,0-14.3.8-15.5.8a1.35,1.35,0,0,1-.1-2.7c1,0,3.8,0,5.1-1.9,1.9-2.8,1.8-10.8,1.8-14.7v-10.1c0-7-2.6-10.5-8-10.5a9,9,0,0,0-8.6,5.3V255c0,3.9,0,12.2,1.8,14.9,1.2,1.8,4.3,1.7,5.4,1.7,1.4,0,1.4,2.7-.1,2.7-1.1,0-12.9-.8-15.7-.8-2.4,0-14.3.8-15.5.8a1.35,1.35,0,0,1-.1-2.7c1,0,3.8,0,5.1-1.9,1.9-2.8,1.8-10.8,1.8-14.7v-38.2c0-3.9.3-10.1-1.8-13-1.4-1.7-3.5-1.3-4.9-1s-1.8-1.8-.6-2.1,19.6-4.3,22.5-4.7c1.3-.2,2-.1,2,1.3l.1,19.4v17.1c3.6-3.6,9.7-7.7,16.5-7.7,8.6,0,17.4,4.5,17.4,18.6V255c0,3.9,0,12.2,1.8,14.9,1.2,1.8,4.3,1.7,5.4,1.7C684.61,271.57,684.61,274.27,683.11,274.27Z" fill="#fff"/><path d="M721.1,291.27c1.1-.3,3.6-1.5,9.2-4a69.82,69.82,0,0,0,18.9-14.3c-3.8-3.8-13.5-20.5-16.5-26.7-1.4-2.8-5.4-12-7.8-14.7a6.7,6.7,0,0,0-4.9-1.7c-1.5,0-1.5-2.7,0-2.7,1.1,0,13.4.7,16.2.7,2.4,0,14.2-.8,15.4-.8s1.1,2.6-.2,2.6c-1,0-3.9-.1-5.1,1.3-1.8,2.2,3.7,12.4,5.2,15.3.4.4,3.6,7,6.7,12.1,2.4-4.9,4.3-9,6.2-13.7,2.1-5.3,2.2-10-.9-12.8a7.66,7.66,0,0,0-5.6-1.9c-2.1,0-1.9-2.7.1-2.7,1.2,0,10.7.8,13.1.8,2.8,0,12-.8,13.1-.8a1.35,1.35,0,1,1,0,2.7,9.3,9.3,0,0,0-6.4,1.9c-3.1,2.6-6.8,11.6-8.1,14.3-4.2,8.9-8,15.8-10.9,21.3-9.8,19.2-15.8,26.4-20.4,30.8C734.9,301.67,717.9,292.17,721.1,291.27Z" fill="#fff"/><path d="M787.4,252.77c-.1-14.1,8.9-26.9,29.9-26.9,11,0,25.4,4.7,25.5,21.9.2,13.1-6.2,27.8-28.8,27.8C802.7,275.57,787.6,269.27,787.4,252.77Zm38.1,2.8c.3-12.7-3.7-25.9-12.4-25.9-5.3,0-8,5.6-8.4,14-.4,13.2,3.7,28.3,12.2,28.3C821.91,272,825.21,264.47,825.51,255.57Z" fill="#fff"/><path d="M890.8,265.57c-3.1,3.6-11.1,9.6-20.9,9.6-8,0-15.2-2.7-15.2-17.1v-11.3c0-3.9.3-10.1-1.9-13-1.3-1.7-3.5-1.3-4.9-1-1.2.3-1.7-1.8-.5-2.1s19.5-4.3,22.5-4.7c1.3-.2,1.9-.1,1.9,1.3l.2,19.4v11.2c0,6.9,2.1,9.4,6.1,9.4,5.3,0,9.4-2.7,11.1-6.8a37.71,37.71,0,0,1-.4-6.3v-7.5c0-3.9.3-10.3-1.8-13-1.4-1.7-3.2-1.3-4.6-1s-1.8-1.9-.6-2.2,19.2-4.2,22.2-4.7c1.3-.1,1.9-.1,1.9,1.4l.2,19.3v9.7c0,3.9,0,11.4,2,13.3,1.8,1.9,4,1.3,5.1,1.3,1.4,0,1.5,2.2.4,2.6-.7.2-6,.3-8.8.3-3.4,0-8.3-1-11.3-4.4A19.47,19.47,0,0,1,890.8,265.57Z" fill="#fff"/><path d="M1013.6,274.07c-3-1.2-11.6-16.1-15.9-24.5-2.3,4.8-5.1,9.5-7.2,13.5-3,5.3-5.4,9.5-6.9,11-1.2,1.4-3.5.8-5-.2-3-2-14.3-22-17.2-27.8-1.4-2.8-5.6-11.7-8.1-14.3-1.5-1.7-4.5-1.8-5.3-1.8-1.4,0-1.4-2.7,0-2.7,1.1,0,13.8.8,16.6.8,2.4,0,14.3-.8,15.5-.8s1.1,2.5-.2,2.5c-1,0-4-.1-5.2,1.3-1.9,2.2,3.8,12.3,5.4,15.2.5.4,4.4,8.2,7.8,13.6,1.1-2.3,2.2-4.6,3.2-6.8a49.89,49.89,0,0,0,3.6-9.6c-1.7-3.9-4.2-9.7-6-11.7-1.6-1.7-4.5-1.8-5.3-1.8-1.5,0-1.5-2.7,0-2.7,1.1,0,13.8.8,16.6.8,2.4,0,14.6-.8,15.8-.8s1.1,2.5-.2,2.5c-1,0-4.2-.1-5.4,1.3-1.8,2.2,3,12.4,4.6,15.4.4.4,4.6,8.7,8,13.9,2.4-6,4.1-11.6,5.8-16.9,2.3-6.6,1.2-9.1-.7-11.1a7.71,7.71,0,0,0-6.2-2.4c-2.1,0-1.9-2.7.1-2.7,1.2,0,10.8.8,13.2.8,2.8,0,11.9-.8,13-.8a1.35,1.35,0,1,1,.1,2.7,10.21,10.21,0,0,0-6.4,1.9c-3.2,2.7-4.8,7.1-7.4,12.3-4.8,10.1-9.4,18.8-12.9,25.6a31.51,31.51,0,0,1-2.9,4.3C1017.2,275.47,1015.1,274.87,1013.6,274.07Z" fill="#fff"/><path d="M1078.9,275.57c-13.4,0-28.9-7.5-28.9-22.8,0-15.6,14.8-26.9,30.3-26.9,13.1,0,20.3,8.1,20.3,16.9,0,2.9-1.7,2.3-4.1,2.8l-29,5.9v.2c1.9,9.3,8.2,17.7,16.9,17.7,8,0,11.4-1.9,12.9-2.8.5-.3,2.1.2,1.8.8C1097.9,269.47,1089.2,275.57,1078.9,275.57Zm-12-27.9,18.7-3.9c-.4-7-5.9-13.2-10.2-13.2C1070.3,230.57,1065.7,235.47,1066.9,247.67Z" fill="#fff"/><path d="M1138,274.27c-1.2,0-13.1-.8-15.4-.8-2.9,0-14.7.8-15.8.8-1.4,0-1.5-2.7-.1-2.7,1.2,0,4.4.1,5.5-1.7,1.9-2.8,1.7-11,1.7-14.9v-8.3c0-3.9.3-9.6-1.8-12.5-1.4-1.7-3.5-1.3-4.9-1s-1.8-1.8-.6-2.1,19.6-4.3,22.5-4.7c1.3-.2,2-.1,2,1.3V236c2.2-4.5,7-10,13.6-10,7.9,0,13.5,6.4,13.5,10.7,0,2-1,4.3-4.9,5.6-1.4.4-7.2,1-7.2.6,0-5.2-1.3-10.7-6.8-10.7-2.6,0-6.2,3.5-8.1,9.2V255c0,3.9.2,12,2,14.6,1.3,1.9,3.9,2,4.9,2A1.35,1.35,0,0,1,1138,274.27Z" fill="#fff"/><path d="M1190.9,275.57c-13.4,0-28.9-7.5-28.9-22.8,0-15.6,14.8-26.9,30.3-26.9,13.1,0,20.3,8.1,20.3,16.9,0,2.9-1.7,2.3-4.1,2.8l-29,5.9v.2c1.9,9.3,8.2,17.7,16.9,17.7,8,0,11.4-1.9,12.9-2.8.5-.3,2.1.2,1.8.8C1209.9,269.47,1201.2,275.57,1190.9,275.57Zm-12-27.9,18.7-3.9c-.4-7-5.9-13.2-10.2-13.2C1182.3,230.57,1177.7,235.47,1178.9,247.67Z" fill="#fff"/><path d="M1317.5,274.27c-1.1,0-12.9-.8-15.7-.8-2.4,0-14.3.8-15.5.8a1.35,1.35,0,0,1-.1-2.7c1,0,3.8,0,5.1-1.9,1.9-2.8,1.8-10.8,1.8-14.7v-10.1c0-7-2.6-10.5-8-10.5a9,9,0,0,0-8.6,5.3V255c0,3.9,0,12.2,1.8,14.9,1.2,1.8,4.3,1.7,5.4,1.7,1.4,0,1.4,2.7-.1,2.7-1.1,0-12.9-.8-15.7-.8-2.4,0-14.3.8-15.5.8a1.35,1.35,0,0,1-.1-2.7c1,0,3.8,0,5.1-1.9,1.9-2.8,1.8-10.8,1.8-14.7v-38.2c0-3.9.3-10.1-1.8-13-1.4-1.7-3.5-1.3-4.9-1s-1.8-1.8-.6-2.1,19.6-4.3,22.5-4.7c1.3-.2,2-.1,2,1.3l.1,19.4v17.1c3.6-3.6,9.7-7.7,16.5-7.7,8.6,0,17.4,4.5,17.4,18.6V255c0,3.9,0,12.2,1.8,14.9,1.2,1.8,4.3,1.7,5.4,1.7C1319,271.57,1319,274.27,1317.5,274.27Z" fill="#fff"/><path d="M1353,275.57c-13.4,0-28.9-7.5-28.9-22.8,0-15.6,14.8-26.9,30.3-26.9,13.1,0,20.3,8.1,20.3,16.9,0,2.9-1.7,2.3-4.1,2.8l-29,5.9v.2c1.9,9.3,8.2,17.7,16.9,17.7,8,0,11.4-1.9,12.9-2.8.5-.3,2.1.2,1.8.8C1372,269.47,1363.3,275.57,1353,275.57Zm-12-27.9,18.7-3.9c-.4-7-5.9-13.2-10.2-13.2C1344.4,230.57,1339.8,235.47,1341,247.67Z" fill="#fff"/><path d="M1412.1,274.27c-1.2,0-13.1-.8-15.4-.8-2.9,0-14.7.8-15.8.8-1.4,0-1.5-2.7-.1-2.7,1.2,0,4.4.1,5.5-1.7,1.9-2.8,1.7-11,1.7-14.9v-8.3c0-3.9.3-9.6-1.8-12.5-1.4-1.7-3.5-1.3-4.9-1s-1.8-1.8-.6-2.1,19.6-4.3,22.5-4.7c1.3-.2,2-.1,2,1.3V236c2.2-4.5,7-10,13.6-10,7.9,0,13.5,6.4,13.5,10.7,0,2-1,4.3-4.9,5.6-1.4.4-7.2,1-7.2.6,0-5.2-1.3-10.7-6.8-10.7-2.6,0-6.2,3.5-8.1,9.2V255c0,3.9.2,12,2,14.6,1.3,1.9,3.9,2,4.9,2A1.35,1.35,0,0,1,1412.1,274.27Z" fill="#fff"/><path d="M1465,275.57c-13.4,0-28.9-7.5-28.9-22.8,0-15.6,14.8-26.9,30.3-26.9,13.1,0,20.3,8.1,20.3,16.9,0,2.9-1.7,2.3-4.1,2.8l-29,5.9v.2c1.9,9.3,8.2,17.7,16.9,17.7,8,0,11.4-1.9,12.9-2.8.5-.3,2.1.2,1.8.8C1484,269.47,1475.3,275.57,1465,275.57Zm-12-27.9,18.7-3.9c-.4-7-5.9-13.2-10.2-13.2C1456.39,230.57,1451.79,235.47,1453,247.67Z" fill="#fff"/><path d="M483.41,392c-2.9-2-12.7-19.6-16-27-1.7-3.9-5.2-12.5-7.6-15a7.61,7.61,0,0,0-5.2-1.8c-1.3,0-1.3-2.4,0-2.4,1.1,0,12.3.7,15.1.7,2.4,0,13.1-.7,14.3-.7s1,2.3-.2,2.3c-1,0-4.1-.1-5.2,1.4-1.7,2.4,3,11.6,4.8,15.5,1.1,2.3,4.6,9.3,7.7,14.3q1.65-3.45,3-6.6a84.55,84.55,0,0,0,4.4-11.4c-1.6-4.2-3.6-9.4-5.4-11.3a7.61,7.61,0,0,0-5.2-1.8c-1.3,0-1.3-2.4,0-2.4,1.1,0,12.3.7,15.1.7,2.4,0,13.1-.7,14.3-.7s1,2.3-.2,2.3c-1,0-4.1-.1-5.2,1.4-1.7,2.4,2.3,11.6,4.1,15.5a147.48,147.48,0,0,0,7.9,14.6c2.2-5.5,3.9-10.8,5.6-15.8,2.5-7.3,2.4-11.3.9-13.3-1.2-1.6-3.5-2.3-5.9-2.3a1.21,1.21,0,1,1,0-2.4c1.2,0,9.6.7,12,.7,2.8,0,10.7-.7,11.8-.7a1.2,1.2,0,0,1,0,2.4c-1.8,0-4.5.3-6.1,1.9-2.7,2.7-4.9,8.4-8,15-4,8.5-7.8,15.9-10.8,21.9a50.78,50.78,0,0,1-3,5c-1.1,1.4-3,.8-4.3,0-2.8-1.7-11.1-16.5-15-24.7-2.2,4.4-4.7,9-6.8,13.1a120.61,120.61,0,0,1-6.6,11.6C486.61,393.37,484.71,392.87,483.41,392Z" fill="#fff"/><path d="M579.71,392.27c-1.1,0-11.8-.8-14.6-.8-2.4,0-13.2.8-14.4.8a1.2,1.2,0,0,1,0-2.4c1,0,3.8-.1,5.1-2,1.8-2.6,1.9-11,1.9-14.9v-7.4c0-3.9.3-10.7-1.8-13.4-1.4-1.8-3.6-1.3-5.1-1-1.1.2-1.6-1.7-.4-2s17.3-3.8,20.2-4.3c1.3-.2,1.9-.1,1.9,1.3V373c0,3.9,0,12.4,1.8,15.1,1.2,1.8,4.3,1.8,5.4,1.8C581,389.87,581,392.27,579.71,392.27Zm-23.5-61.2a8.11,8.11,0,0,1,4.9-9.9c4.3-1.8,8.4,0,9.9,4.5a7.88,7.88,0,0,1-14.8,5.4Z" fill="#fff"/><path d="M588.7,377.07A10.53,10.53,0,0,0,591,383a17.29,17.29,0,0,0,12,6.1c4.8,0,8-2.9,8-6.8,0-4.8-7.1-7.4-12.1-10.5-5.3-3.3-12.2-6.1-12.2-14.9,0-8.5,9.6-12.2,18.9-12.2,6.6,0,15.4,2.4,16.5,3,.9.5,0,10.1-.4,11.7-.1.3-1.5.3-1.5,0a8.87,8.87,0,0,0-2.9-6.9,12.16,12.16,0,0,0-8.4-3.6c-4.6,0-7.9,1.9-7.9,6,0,5,6.8,7.6,12.2,10.5,6.2,3.3,11.5,6.5,11.5,13.4,0,9.7-9.8,14-20.4,14a60.5,60.5,0,0,1-17.1-3.1c-.7-.3-.3-11.1-.3-12.6C586.9,376.07,588.7,376.07,588.7,377.07Z" fill="#fff"/><path d="M693.91,392.27c-1.1,0-11.8-.8-14.6-.8-2.4,0-13.2.8-14.4.8a1.2,1.2,0,0,1,0-2.4c1,0,3.8-.1,5.1-2,1.8-2.6,1.9-11,1.9-14.9v-9.8c0-7.8-2.8-11-8.3-11a10.85,10.85,0,0,0-9.9,6.5V373c0,3.9,0,12.4,1.8,15.1,1.2,1.8,4.3,1.8,5.4,1.8,1.3,0,1.3,2.4,0,2.4-1.1,0-11.8-.8-14.6-.8-2.4,0-13.2.8-14.4.8a1.2,1.2,0,0,1,0-2.4c1,0,3.8-.1,5.1-2,1.8-2.6,1.9-11,1.9-14.9V335c0-3.9.3-10.7-1.8-13.4-1.4-1.8-3.6-1.3-5.1-1-1.1.2-1.6-1.7-.4-2s17.3-3.8,20.2-4.3c1.3-.2,1.9-.1,1.9,1.3v37.1c3.3-3.5,9.4-7.9,16.7-7.9,8.5,0,16.3,4.5,16.3,18.2v10c0,3.9,0,12.4,1.8,15.1,1.2,1.8,4.3,1.8,5.4,1.8C695.21,389.87,695.21,392.27,693.91,392.27Z" fill="#fff"/><path d="M733.1,410.27a80.17,80.17,0,0,0,9.5-4.8,62.13,62.13,0,0,0,16.6-14c-3.5-3.3-12.4-19.6-15.5-26.6-1.7-3.9-5.2-12.5-7.6-15a7.61,7.61,0,0,0-5.2-1.8c-1.3,0-1.3-2.4,0-2.4,1.1,0,12.3.7,15.1.7,2.4,0,13.1-.7,14.3-.7s1,2.3-.2,2.3c-1,0-4.1-.1-5.2,1.4-1.7,2.4,3,11.6,4.8,15.5a136.73,136.73,0,0,0,7.1,13.3c2.3-5,4.4-9.5,6.3-14.4,2.3-5.9,3-11.1.6-13.7-1.4-1.6-3.8-1.9-5.5-1.9a1.21,1.21,0,1,1,0-2.4c1.2,0,9.6.7,12,.7,2.8,0,10.7-.7,11.8-.7a1.2,1.2,0,0,1,0,2.4c-1.4,0-4.2,0-6.1,1.9-2.6,2.5-6.1,10.9-8,15-4,8.6-7.8,15.9-10.8,21.9-8.9,17.8-14.3,25-18.6,29.3C745.6,419.17,730.2,411.27,733.1,410.27Z" fill="#fff"/><path d="M795.7,370.67c-.1-13.6,8.8-26.1,27.8-26.1,11.2,0,24.8,5.4,24.9,22,.1,13.1-6.8,26.8-27.3,26.8C809.8,393.37,795.8,386.87,795.7,370.67Zm37.7,2.2c0-12-4.2-24.7-13.3-24.7-6.4,0-9.4,6.7-9.4,15.3,0,12.6,4.4,26.5,13.1,26.5C829.9,390,833.4,381.77,833.4,372.87Z" fill="#fff"/><path d="M894.8,383.47c-2.9,3.8-10,9.6-19.3,9.6-8.5,0-15.1-3.6-15.1-17.3v-10.4c0-3.9.3-10.7-1.8-13.4-1.4-1.8-3.6-1.3-5.1-1-1.1.2-1.6-1.7-.4-2s17.3-3.8,20.2-4.3c1.3-.2,1.9-.1,1.9,1.3v29.6c0,7.4,2.4,10.5,6.9,10.5a12.7,12.7,0,0,0,11.6-7.6,55.23,55.23,0,0,1-.3-6.1v-7.1c0-3.9.3-10.7-1.8-13.4-1.4-1.8-3.6-1.3-5.1-1-1.1.2-1.6-1.7-.4-2s17.3-3.8,20.2-4.3c1.3-.2,1.9-.1,1.9,1.3v28c0,3.9.1,11.6,2,13.8,1.6,1.9,4,1.6,5.1,1.6,1.3,0,1.3,2,.3,2.3a79.48,79.48,0,0,1-8.2.3c-3.1,0-7.4-.8-9.9-3.7A13.49,13.49,0,0,1,894.8,383.47Z" fill="#fff"/><path d="M979.6,392c-2.9-2-12.7-19.6-16-27-1.7-3.9-5.2-12.5-7.6-15a7.61,7.61,0,0,0-5.2-1.8c-1.3,0-1.3-2.4,0-2.4,1.1,0,12.3.7,15.1.7,2.4,0,13.1-.7,14.3-.7s1,2.3-.2,2.3c-1,0-4.1-.1-5.2,1.4-1.7,2.4,3,11.6,4.8,15.5,1.1,2.3,4.6,9.3,7.7,14.3q1.65-3.45,3-6.6a84.55,84.55,0,0,0,4.4-11.4c-1.6-4.2-3.6-9.4-5.4-11.3a7.61,7.61,0,0,0-5.2-1.8c-1.3,0-1.3-2.4,0-2.4,1.1,0,12.3.7,15.1.7,2.4,0,13.1-.7,14.3-.7s1,2.3-.2,2.3c-1,0-4.1-.1-5.2,1.4-1.7,2.4,2.3,11.6,4.1,15.5a147.48,147.48,0,0,0,7.9,14.6c2.2-5.5,3.9-10.8,5.6-15.8,2.5-7.3,2.4-11.3.9-13.3-1.2-1.6-3.5-2.3-5.9-2.3a1.21,1.21,0,1,1,0-2.4c1.2,0,9.6.7,12,.7,2.8,0,10.7-.7,11.8-.7a1.2,1.2,0,0,1,0,2.4c-1.8,0-4.5.3-6.1,1.9-2.7,2.7-4.9,8.4-8,15-4,8.5-7.8,15.9-10.8,21.9a50.78,50.78,0,0,1-3,5c-1.1,1.4-3,.8-4.3,0-2.8-1.7-11.1-16.5-15-24.7-2.2,4.4-4.7,9-6.8,13.1a120.61,120.61,0,0,1-6.6,11.6C982.8,393.37,980.9,392.87,979.6,392Z" fill="#fff"/><path d="M1074.2,393.37c-12.9,0-27-7.4-27-22.5,0-15.3,13.4-26.3,27.9-26.3,12.4,0,19.6,7.7,19.6,16.2,0,2.9-1.6,2.6-4,3.1l-28.4,5.9c1.7,9.3,8,18,17,18,7.5,0,11.1-2.2,12.5-3.1.6-.4,2,.1,1.6.8C1092.2,387.57,1084.2,393.37,1074.2,393.37Zm-12.3-27.2,19.6-4.2c-.4-7.1-5.4-13.1-10.5-13.1C1065.1,348.87,1060.8,354.57,1061.9,366.17Z" fill="#fff"/><path d="M1129.7,392.27c-1.2,0-12-.8-14.4-.8-2.8,0-13.5.8-14.6.8-1.3,0-1.3-2.4,0-2.4,1.1,0,4.2,0,5.4-1.8,1.8-2.7,1.8-11.2,1.8-15.1v-7.7c0-3.9.3-10.3-1.8-13-1.4-1.8-3.6-1.3-5.1-1-1.1.2-1.6-1.7-.4-2s17.3-3.8,20.2-4.3c1.3-.2,1.9-.1,1.9,1.3v8.4c2.1-4.5,6.8-10,13.2-10,7.3,0,12.3,5.9,12.3,9.9,0,1.9-.8,4-4.5,5.2-1.3.4-6.1,1-6.1.6,0-4.7-1.7-10-6.7-10-2.7,0-6.3,3.9-8.2,9.6v13c0,3.9.1,12.3,1.9,14.9,1.3,1.9,4.1,2,5.1,2A1.2,1.2,0,0,1,1129.7,392.27Z" fill="#fff"/><path d="M1179.7,393.37c-12.9,0-27-7.4-27-22.5,0-15.3,13.4-26.3,27.9-26.3,12.4,0,19.6,7.7,19.6,16.2,0,2.9-1.6,2.6-4,3.1l-28.4,5.9c1.7,9.3,8,18,17,18,7.5,0,11.1-2.2,12.5-3.1.6-.4,2,.1,1.6.8C1197.7,387.57,1189.7,393.37,1179.7,393.37Zm-12.3-27.2L1187,362c-.4-7.1-5.4-13.1-10.5-13.1C1170.6,348.87,1166.3,354.57,1167.4,366.17Z" fill="#fff"/><path d="M1302.4,392.27c-1.1,0-11.8-.8-14.6-.8-2.4,0-13.2.8-14.4.8a1.2,1.2,0,0,1,0-2.4c1,0,3.8-.1,5.1-2,1.8-2.6,1.9-11,1.9-14.9v-9.8c0-7.8-2.8-11-8.3-11a10.85,10.85,0,0,0-9.9,6.5V373c0,3.9,0,12.4,1.8,15.1,1.2,1.8,4.3,1.8,5.4,1.8,1.3,0,1.3,2.4,0,2.4-1.1,0-11.8-.8-14.6-.8-2.4,0-13.2.8-14.4.8a1.2,1.2,0,0,1,0-2.4c1,0,3.8-.1,5.1-2,1.8-2.6,1.9-11,1.9-14.9V335c0-3.9.3-10.7-1.8-13.4-1.4-1.8-3.6-1.3-5.1-1-1.1.2-1.6-1.7-.4-2s17.3-3.8,20.2-4.3c1.3-.2,1.9-.1,1.9,1.3v37.1c3.3-3.5,9.4-7.9,16.7-7.9,8.5,0,16.3,4.5,16.3,18.2v10c0,3.9,0,12.4,1.8,15.1,1.2,1.8,4.3,1.8,5.4,1.8C1303.7,389.87,1303.7,392.27,1302.4,392.27Z" fill="#fff"/><path d="M1335.9,393.37c-12.9,0-27-7.4-27-22.5,0-15.3,13.4-26.3,27.9-26.3,12.4,0,19.6,7.7,19.6,16.2,0,2.9-1.6,2.6-4,3.1l-28.4,5.9c1.7,9.3,8,18,17,18,7.5,0,11.1-2.2,12.5-3.1.6-.4,2,.1,1.6.8C1353.9,387.57,1345.9,393.37,1335.9,393.37Zm-12.3-27.2,19.6-4.2c-.4-7.1-5.4-13.1-10.5-13.1C1326.8,348.87,1322.5,354.57,1323.6,366.17Z" fill="#fff"/><path d="M1391.4,392.27c-1.2,0-12-.8-14.4-.8-2.8,0-13.5.8-14.6.8-1.3,0-1.3-2.4,0-2.4,1.1,0,4.2,0,5.4-1.8,1.8-2.7,1.8-11.2,1.8-15.1v-7.7c0-3.9.3-10.3-1.8-13-1.4-1.8-3.6-1.3-5.1-1-1.1.2-1.6-1.7-.4-2s17.3-3.8,20.2-4.3c1.3-.2,1.9-.1,1.9,1.3v8.4c2.1-4.5,6.8-10,13.2-10,7.3,0,12.3,5.9,12.3,9.9,0,1.9-.8,4-4.5,5.2-1.3.4-6.1,1-6.1.6,0-4.7-1.7-10-6.7-10-2.7,0-6.3,3.9-8.2,9.6v13c0,3.9.1,12.3,1.9,14.9,1.3,1.9,4.1,2,5.1,2A1.2,1.2,0,0,1,1391.4,392.27Z" fill="#fff"/><path d="M1441.4,393.37c-12.9,0-27-7.4-27-22.5,0-15.3,13.4-26.3,27.9-26.3,12.4,0,19.6,7.7,19.6,16.2,0,2.9-1.6,2.6-4,3.1l-28.4,5.9c1.7,9.3,8,18,17,18,7.5,0,11.1-2.2,12.5-3.1.6-.4,2,.1,1.6.8C1459.4,387.57,1451.4,393.37,1441.4,393.37Zm-12.3-27.2,19.6-4.2c-.4-7.1-5.4-13.1-10.5-13.1C1432.3,348.87,1428,354.57,1429.1,366.17Z" fill="#fff"/><path d="M506.21,510.07c-2.8-2-11.1-17.2-14.8-26.2-2-5-4.8-13.3-7.1-15.7a7.58,7.58,0,0,0-5.1-1.8c-1.2,0-1.2-2.1,0-2.1s10.8.6,13.6.6c2.4,0,11.9-.6,13.1-.6,1,0,.9,2.1-.2,2.1s-4.2-.1-5.2,1.5c-1.5,2.6,2.2,10.9,4.2,15.8a99.91,99.91,0,0,0,7.6,14.9c1-2.1,1.9-4.2,2.8-6.3a124.06,124.06,0,0,0,5.2-13.3c-1.5-4.3-3.1-9.1-4.8-10.8a7.43,7.43,0,0,0-5.1-1.8c-1.1,0-1.1-2.1,0-2.1s10.8.6,13.6.6c2.4,0,11.6-.6,12.8-.6,1,0,.9,2.1-.2,2.1s-4-.1-5,1.5c-1.6,2.6,1.6,10.8,3.6,15.6a109.73,109.73,0,0,0,7.8,15.2c2-4.9,3.7-9.9,5.4-14.6,2.7-8,3.6-13.5,2.5-15.5-.9-1.6-3.7-2.2-5.6-2.2a1.05,1.05,0,1,1-.1-2.1c1.2,0,8.4.6,10.8.6,2.8,0,9.5-.6,10.6-.6,1.3,0,1.2,2.1-.1,2.1-1.6,0-4.4.2-5.8,1.9-2.2,2.7-5,9.7-8.6,17.7-3.2,6.9-6.2,13-8.7,18.2-.8,1.7-2.3,4.4-3.1,5.7s-2.6.8-3.7,0c-2.7-2.3-10.5-16.8-14.1-25.1-2,4.2-4.2,8.7-6.4,12.9-2.4,4.9-4.6,9.3-6.3,12.2C508.81,511.27,507.31,510.87,506.21,510.07Z" fill="#fff"/><path d="M574.91,470.27c-1.5-1.9-3.7-1.3-5.3-1a.92.92,0,0,1-.3-1.8c1.3-.3,15.1-3.4,17.9-3.9,1.3-.3,1.9-.1,1.9,1.2l-.2,19.3V491c0,3.9,0,12.6,1.8,15.3,1.2,1.8,4.4,1.9,5.5,1.9s1.2,2.1,0,2.1-10.7-.8-13.5-.8c-2.4,0-12.1.8-13.3.8s-1.2-2.1.1-2.1c1,0,3.8-.2,5.1-2.1,1.8-2.4,2-11.2,2-15.1v-6.9C576.61,480.17,576.91,472.87,574.91,470.27Zm0-21.5a7,7,0,0,1,4.3-8.8c3.7-1.5,7.7.1,8.8,3.9a6.84,6.84,0,0,1-4.2,8.9A7,7,0,0,1,574.91,448.77Z" fill="#fff"/><path d="M604.6,495.37a13.83,13.83,0,0,0,3,6.5,16.89,16.89,0,0,0,11.6,5.5c5.1,0,8.5-3.2,8.5-7.2,0-4.8-7-7.3-12.3-10.5-5.6-3.3-12.3-6.3-12.3-14.7,0-7.9,8.9-11.6,17.9-11.6a51.26,51.26,0,0,1,15.3,2.6c.8.4,0,9.8-.3,11.1-.1.3-1.3.3-1.3,0a9.44,9.44,0,0,0-2.9-6.4,13.12,13.12,0,0,0-8.8-3.5c-4.9,0-8.2,2.2-8.2,6.2,0,4.7,6.2,7.1,12.1,10.3,6.5,3.4,12.1,6.6,12.1,13.8,0,9.1-9.2,13.3-19.2,13.3a52,52,0,0,1-16.4-3.1c-.5-.3-.5-10.9-.3-12.3C603.1,494.47,604.6,494.57,604.6,495.37Z" fill="#fff"/><path d="M704.71,510.27c-1.1,0-10.7-.8-13.5-.8-2.4,0-12.1.8-13.3.8s-1.2-2.1.1-2.1c1,0,3.8-.2,5.1-2.1,1.7-2.4,2-11.2,2-15.1v-9.5c0-8.6-3-11.5-8.6-11.5-4.9,0-9.3,3.4-11.2,7.5V491c0,3.9,0,12.6,1.8,15.3,1.2,1.8,4.3,1.9,5.4,1.9s1.2,2.1.1,2.1-10.7-.8-13.5-.8c-2.4,0-12.1.8-13.3.8s-1.2-2.1.1-2.1c1,0,3.8-.2,5.1-2.1,1.7-2.4,2-11.2,2-15.1v-37.8c0-3.9.3-11.3-1.8-13.8-1.4-1.9-3.7-1.3-5.3-1a1,1,0,0,1-.2-1.9c1.3-.3,15-3.3,17.9-3.9,1.3-.2,1.8-.1,1.8,1.3l-.1,19.2v18.7c3-3.5,9-8.3,16.9-8.3,8.4,0,15.2,4.5,15.2,17.8V491c0,3.9,0,12.6,1.8,15.3,1.2,1.8,4.3,1.9,5.4,1.9S705.81,510.27,704.71,510.27Z" fill="#fff"/><path d="M745.1,529.27a62.16,62.16,0,0,0,24.1-19.5c-3.5-2.9-11.3-18.5-14.5-26.3-2-5-5-13-7.4-15.3-1.6-1.6-4.1-1.8-5.5-1.9-1.1,0-1.1-2.1,0-2.1s11.2.7,14,.7c2.4,0,12-.6,13.2-.6,1,0,.9,2-.2,2s-4.3-.1-5.3,1.5c-1.6,2.6,2.3,10.8,4.4,15.7a111,111,0,0,0,7.5,14.4c2.3-5,4.4-10,6.4-15,2.5-6.5,3.8-12.2,2.1-14.6-1.1-1.6-3.9-1.9-5.4-1.9a1.05,1.05,0,1,1-.1-2.1c1.2,0,8.5.6,10.9.6,2.8,0,9.4-.6,10.5-.6a1.05,1.05,0,0,1,0,2.1c-1.3,0-4.2,0-5.8,1.9-2.1,2.4-5.4,10.2-7.9,15.7-3.8,8.3-7.6,16-10.7,22.5-8,16.4-12.8,23.6-16.8,27.8C756.3,536.67,742.5,530.37,745.1,529.27Z" fill="#fff"/><path d="M804,488.57c-.1-13.1,8.7-25.3,25.7-25.3,11.4,0,24.2,6.1,24.3,22.1,0,13.1-7.4,25.8-25.8,25.8C816.9,511.17,804,504.47,804,488.57Zm37.3,1.6c-.3-11.3-4.7-23.5-14.2-23.5-7.5,0-10.8,7.8-10.4,16.6.4,12,5.1,24.7,14,24.7C837.9,508,841.6,499.07,841.3,490.17Z" fill="#fff"/><path d="M898.9,501.37c-2.7,3.9-8.9,9.6-17.8,9.6s-15-4.5-15-17.5V484c0-3.9.3-11.3-1.7-13.8-1.5-1.9-3.7-1.3-5.3-1-1,.1-1.5-1.6-.3-1.9s15.1-3.3,17.9-3.9c1.3-.2,1.9-.1,1.9,1.3l-.2,19.2v9.4c0,7.9,2.7,11.6,7.7,11.6,5.5,0,10.3-4.1,12.1-8.5-.1-1.7-.2-3.7-.2-5.8v-6.7c0-3.9.3-11.1-1.8-13.8-1.4-1.9-4-1.3-5.6-1-.9.2-1.4-1.5-.2-1.8s15.4-3.4,18.2-3.9c1.3-.3,1.9-.1,1.9,1.2l-.2,19.3v7.7c0,3.9.2,11.8,2,14.3,1.4,1.9,4,1.9,5.1,1.9s1.1,1.8.2,2a67.75,67.75,0,0,1-7.6.3c-2.8,0-6.5-.6-8.5-3A12.57,12.57,0,0,1,898.9,501.37Z" fill="#fff"/><path d="M980.6,510.07c-2.8-2-11.1-17.2-14.8-26.2-2-5-4.8-13.3-7.1-15.7a7.58,7.58,0,0,0-5.1-1.8c-1.2,0-1.2-2.1,0-2.1s10.8.6,13.6.6c2.4,0,11.9-.6,13.1-.6,1,0,.9,2.1-.2,2.1s-4.2-.1-5.2,1.5c-1.5,2.6,2.2,10.9,4.2,15.8a99.91,99.91,0,0,0,7.6,14.9c1-2.1,1.9-4.2,2.8-6.3a124.06,124.06,0,0,0,5.2-13.3c-1.5-4.3-3.1-9.1-4.8-10.8a7.43,7.43,0,0,0-5.1-1.8c-1.1,0-1.1-2.1,0-2.1s10.8.6,13.6.6c2.4,0,11.6-.6,12.8-.6,1,0,.9,2.1-.2,2.1s-4-.1-5,1.5c-1.6,2.6,1.6,10.8,3.6,15.6a109.73,109.73,0,0,0,7.8,15.2c2-4.9,3.7-9.9,5.4-14.6,2.7-8,3.6-13.5,2.5-15.5-.9-1.6-3.7-2.2-5.6-2.2a1.05,1.05,0,1,1-.1-2.1c1.2,0,8.4.6,10.8.6,2.8,0,9.5-.6,10.6-.6,1.3,0,1.2,2.1-.1,2.1-1.6,0-4.4.2-5.8,1.9-2.2,2.7-5,9.7-8.6,17.7-3.2,6.9-6.2,13-8.7,18.2-.8,1.7-2.3,4.4-3.1,5.7s-2.6.8-3.7,0c-2.7-2.3-10.5-16.8-14.1-25.1-2,4.2-4.2,8.7-6.4,12.9-2.4,4.9-4.6,9.3-6.3,12.2C983.2,511.27,981.7,510.87,980.6,510.07Z" fill="#fff"/><path d="M1069.5,511.17c-12.4,0-25.1-7.3-25.1-22.2a25.46,25.46,0,0,1,25.5-25.7c11.7,0,18.9,7.3,18.9,15.5,0,2.9-1.5,2.9-3.9,3.4l-27.7,5.9c1.5,9.3,7.7,18.1,17,18.1,7,0,10.8-2.5,12.1-3.4.7-.5,1.9,0,1.4.8C1086.5,505.67,1079.2,511.17,1069.5,511.17Zm-12.7-26.6,20.6-4.4c-.4-7.1-4.9-13-10.8-13C1060,467.17,1055.9,473.67,1056.8,484.57Z" fill="#fff"/><path d="M1121.4,510.27c-1.2,0-10.9-.8-13.4-.8-2.7,0-12.3.8-13.4.8s-1.1-2.1.1-2.1c1,0,4-.1,5.3-1.9,1.7-2.6,1.9-11.4,1.9-15.3v-7.1c0-3.9.3-11-1.8-13.5-1.4-1.9-3.7-1.3-5.3-1a1,1,0,0,1-.2-1.9c1.3-.3,15-3.3,17.9-3.9,1.3-.2,1.8-.1,1.8,1.3v8.5c2-4.4,6.5-10,12.8-10,6.7,0,11.1,5.4,11.1,9.1,0,1.8-.6,3.7-4.1,4.8-1.2.4-5,1-5,.6,0-4.2-2.1-9.3-6.6-9.3-2.9,0-6.4,4.3-8.3,10V491c0,3.9,0,12.6,1.8,15.2,1.3,1.9,4.3,2,5.3,2C1122.6,508.17,1122.7,510.27,1121.4,510.27Z" fill="#fff"/><path d="M1168.5,511.17c-12.4,0-25.1-7.3-25.1-22.2a25.46,25.46,0,0,1,25.5-25.7c11.7,0,18.9,7.3,18.9,15.5,0,2.9-1.5,2.9-3.9,3.4l-27.7,5.9c1.5,9.3,7.7,18.1,17,18.1,7,0,10.8-2.5,12.1-3.4.7-.5,1.9,0,1.4.8C1185.5,505.67,1178.2,511.17,1168.5,511.17Zm-12.7-26.6,20.6-4.4c-.4-7.1-4.9-13-10.8-13C1159,467.17,1154.9,473.67,1155.8,484.57Z" fill="#fff"/><path d="M1287.3,510.27c-1.1,0-10.7-.8-13.5-.8-2.4,0-12.1.8-13.3.8s-1.2-2.1.1-2.1c1,0,3.8-.2,5.1-2.1,1.7-2.4,2-11.2,2-15.1v-9.5c0-8.6-3-11.5-8.6-11.5-4.9,0-9.3,3.4-11.2,7.5V491c0,3.9,0,12.6,1.8,15.3,1.2,1.8,4.3,1.9,5.4,1.9s1.2,2.1.1,2.1-10.7-.8-13.5-.8c-2.4,0-12.1.8-13.3.8s-1.2-2.1.1-2.1c1,0,3.8-.2,5.1-2.1,1.7-2.4,2-11.2,2-15.1v-37.8c0-3.9.3-11.3-1.8-13.8-1.4-1.9-3.7-1.3-5.3-1a1,1,0,0,1-.2-1.9c1.3-.3,15-3.3,17.9-3.9,1.3-.2,1.8-.1,1.8,1.3l-.1,19.2v18.7c3-3.5,9-8.3,16.9-8.3,8.4,0,15.2,4.5,15.2,17.8V491c0,3.9,0,12.6,1.8,15.3,1.2,1.8,4.3,1.9,5.4,1.9S1288.4,510.27,1287.3,510.27Z" fill="#fff"/><path d="M1318.8,511.17c-12.4,0-25.1-7.3-25.1-22.2a25.46,25.46,0,0,1,25.5-25.7c11.7,0,18.9,7.3,18.9,15.5,0,2.9-1.5,2.9-3.9,3.4l-27.7,5.9c1.5,9.3,7.7,18.1,17,18.1,7,0,10.8-2.5,12.1-3.4.7-.5,1.9,0,1.4.8C1335.8,505.67,1328.5,511.17,1318.8,511.17Zm-12.7-26.6,20.6-4.4c-.4-7.1-4.9-13-10.8-13C1309.29,467.17,1305.2,473.67,1306.09,484.57Z" fill="#fff"/><path d="M1370.7,510.27c-1.2,0-10.9-.8-13.4-.8-2.7,0-12.3.8-13.4.8s-1.1-2.1.1-2.1c1,0,4-.1,5.3-1.9,1.7-2.6,1.9-11.4,1.9-15.3v-7.1c0-3.9.3-11-1.8-13.5-1.4-1.9-3.7-1.3-5.3-1a1,1,0,0,1-.2-1.9c1.3-.3,15-3.3,17.9-3.9,1.3-.2,1.8-.1,1.8,1.3v8.5c2-4.4,6.5-10,12.8-10,6.7,0,11.1,5.4,11.1,9.1,0,1.8-.6,3.7-4.1,4.8-1.2.4-5,1-5,.6,0-4.2-2.1-9.3-6.6-9.3-2.9,0-6.4,4.3-8.3,10V491c0,3.9,0,12.6,1.8,15.2,1.3,1.9,4.3,2,5.3,2C1371.9,508.17,1372,510.27,1370.7,510.27Z" fill="#fff"/><path d="M1417.79,511.17c-12.4,0-25.1-7.3-25.1-22.2a25.46,25.46,0,0,1,25.5-25.7c11.7,0,18.9,7.3,18.9,15.5,0,2.9-1.5,2.9-3.9,3.4l-27.7,5.9c1.5,9.3,7.7,18.1,17,18.1,7,0,10.8-2.5,12.1-3.4.7-.5,1.9,0,1.4.8C1434.8,505.67,1427.5,511.17,1417.79,511.17Zm-12.7-26.6,20.6-4.4c-.4-7.1-4.9-13-10.8-13C1408.29,467.17,1404.19,473.67,1405.09,484.57Z" fill="#fff"/><path d="M529.71,628.27c-2.8-2.1-9.4-14.9-13.5-25.6-2.3-6-4.4-14-6.8-16.2a6.89,6.89,0,0,0-5-1.9c-.9,0-.9-1.8,0-1.8,1.1,0,9.3.6,12.1.6,2.4,0,10.8-.5,12-.5.9,0,.7,1.8-.3,1.8s-4.1-.2-5,1.6c-1.5,2.8,1.3,10.3,3.5,16a79.67,79.67,0,0,0,7.7,15.5c.8-1.9,1.7-3.9,2.5-5.9,2.3-5.5,4.5-10.7,6-15.1-1.4-4.5-2.6-8.7-4.3-10.3a7,7,0,0,0-5-1.9c-1,0-1-1.8,0-1.8s9.2.6,12,.6c2.4,0,10.2-.5,11.4-.5.9,0,.7,1.8-.3,1.8s-3.9-.2-4.8,1.6c-1.4,2.8.9,10,3.3,15.8a89.65,89.65,0,0,0,7.7,15.8c1.7-4.4,3.4-9.1,5-13.6,3.1-8.5,4.9-15.5,4.1-17.6-.6-1.7-3.8-2-5.3-2-1.2,0-1.3-1.9-.2-1.9s7.4.6,9.8.6c2.8,0,8.1-.6,9.2-.6s1,1.9-.1,1.9c-1.3,0-4.2.1-5.4,1.9-1.9,2.6-5.2,11-9.3,20.4-2.3,5.1-4.6,10-6.6,14.3-1,2.1-2.3,4.6-3.1,6.4-.9,1.6-2.2,1-3.1,0-2.5-2.7-9.8-16.8-13.1-25.4-1.9,4.1-4,8.4-6.1,12.8-2.3,4.7-4.4,9.2-6.2,12.6C531.71,629.27,530.61,629,529.71,628.27Z" fill="#fff"/><path d="M594.51,588.37c-1.5-1.9-3.8-1.3-5.5-1-.8.1-1.2-1.4-.1-1.7,1.3-.3,12.8-2.9,15.7-3.5,1.2-.2,1.7-.1,1.7,1.3l-.2,19.2V609c0,3.9-.1,12.9,1.7,15.6,1.2,1.8,4.4,2,5.5,2s1.1,1.7.2,1.7c-1.1,0-9.6-.8-12.4-.8-2.4,0-11,.8-12.2.8s-.9-1.7.2-1.7,3.8-.4,5.1-2.2c1.6-2.4,2-11.5,2-15.4v-6.3C596.21,598.77,596.51,590.77,594.51,588.37Zm-.2-21.8c-1.1-2.8.4-6.9,3.6-7.9,3.2-1.2,7,.2,7.9,3.5a6,6,0,0,1-3.7,7.8C599.31,571.07,595.41,569.87,594.31,566.57Z" fill="#fff"/><path d="M621.31,613.57a15.2,15.2,0,0,0,3.5,7.2c2.7,3,7.8,4.8,11.2,4.8,5.6,0,9-3.5,9-7.5,0-4.7-6.8-7.3-12.5-10.4-5.9-3.3-12.4-6.7-12.4-14.5,0-7.3,8.4-11.1,16.9-11.1a48.26,48.26,0,0,1,14.1,2.2c.7.3.2,9.4-.1,10.4-.1.3-1,.3-1.1,0a11.59,11.59,0,0,0-2.9-5.9c-1.9-2-5.9-3.3-9.3-3.3-5.1,0-8.5,2.4-8.5,6.5,0,4.3,5.8,6.5,12.2,9.9,6.6,3.6,12.6,6.9,12.6,14.2,0,8.6-8.5,12.7-18,12.7-6.6,0-14.1-2.2-15.6-3.1-.5-.2-.7-10.6-.5-12.1C620,613,621.21,613,621.31,613.57Z" fill="#fff"/><path d="M716.21,628.27c-1.1,0-9.6-.8-12.4-.8-2.4,0-11,.8-12.2.8s-.9-1.7.2-1.7,3.8-.4,5.1-2.2c1.7-2.4,2-11.5,2-15.4v-9.1c0-9.4-3.1-12.1-8.7-12.1-5.1,0-10.5,4-12.6,8.3V609c0,3.9-.1,12.9,1.7,15.6,1.2,1.8,4.5,2,5.6,2,.9,0,1.1,1.7.1,1.7s-9.6-.8-12.4-.8c-2.4,0-11,.8-12.2.8s-.9-1.7.2-1.7,3.8-.4,5.1-2.2c1.7-2.4,2-11.5,2-15.4v-37.6c0-3.9.3-11.8-1.6-14.3-1.6-1.9-3.8-1.3-5.5-1-.9.2-1.3-1.3-.2-1.6,1.3-.3,12.9-3,15.7-3.5,1.2-.3,1.8-.1,1.8,1.2l-.3,19.2v19.4c2.7-3.4,8.6-8.7,17-8.7s14.2,4.7,14.2,17.5V609c0,3.9-.1,12.9,1.7,15.6,1.2,1.8,4.5,2,5.6,2C717,626.57,717.21,628.27,716.21,628.27Z" fill="#fff"/><path d="M757.61,648.37a45.69,45.69,0,0,0,10.1-6.5,50,50,0,0,0,11.9-13.9c-3.4-2.5-10.2-17.4-13.5-25.9-2.3-6.1-4.8-13.4-7.1-15.7a8.83,8.83,0,0,0-5.8-1.8c-1,0-1-1.8,0-1.8s10.1.5,12.9.5c2.4,0,11-.5,12.2-.5.9,0,.7,1.9-.3,1.9s-4.6-.2-5.5,1.6c-1.4,2.8,1.8,10,4.1,15.7a83.44,83.44,0,0,0,8,15.6c2.1-5,4.3-10.3,6.3-15.5,2.9-7.2,4.6-13.5,3.6-15.5-.6-1.7-3.9-1.9-5.1-1.9s-1.3-1.9-.2-1.9,7.3.6,9.7.6c2.8,0,8.2-.6,9.3-.6s.9,1.9-.2,1.9-4.1,0-5.4,1.9c-1.6,2.2-4.8,9.5-7.8,16.3-3.6,7.9-7.5,16.2-10.7,23.1-7.1,15.1-11.2,22.3-14.9,26.4C767.51,654.17,755.21,649.37,757.61,648.37Z" fill="#fff"/><path d="M811.71,606.47c0-12.7,8.7-24.4,23.7-24.4,11.6,0,23.6,6.7,23.6,22,.1,13.1-7.8,24.9-24.1,24.9C823.41,629,811.81,622.17,811.71,606.47Zm37,1.1c-.7-10.7-5.1-22.5-15.1-22.5-8.6,0-12.1,9-11.5,17.9.8,11.6,6,22.9,14.9,22.9C845.41,625.87,849.31,616.47,848.71,607.57Z" fill="#fff"/><path d="M902.71,619.07c-2.4,4-7.8,9.8-16.3,9.8-9.5,0-15-5.5-15-17.7v-8.6c0-3.9.3-11.8-1.7-14.3-1.5-1.9-3.8-1.3-5.5-1-.8.2-1.2-1.3-.1-1.6,1.3-.3,12.8-3,15.7-3.5,1.2-.3,1.7-.1,1.7,1.2l-.2,19.2v8.3c0,8.5,2.8,12.9,8.4,12.9s10.7-4.8,12.6-9.4c-.1-1.7-.1-3.6-.1-5.6v-6.2c0-3.9.2-11.7-1.8-14.3-1.5-1.9-4.3-1.3-6-1a.86.86,0,0,1-.2-1.7c1.3-.3,13.5-2.9,16.4-3.5,1.2-.2,1.7-.1,1.7,1.3l-.2,19.1v6.8c0,3.9.2,12.1,1.9,14.9,1.2,1.9,4,2.2,5.1,2.2s1,1.5.1,1.7c-.7.1-4.4.3-7,.3s-5.6-.6-7.2-2.4C903.71,624.47,903,622.07,902.71,619.07Z" fill="#fff"/><path d="M981,628.27c-2.8-2.1-9.4-14.9-13.5-25.6-2.3-6-4.4-14-6.8-16.2a6.89,6.89,0,0,0-5-1.9c-.9,0-.9-1.8,0-1.8,1.1,0,9.3.6,12.1.6,2.4,0,10.8-.5,12-.5.9,0,.7,1.8-.3,1.8s-4.1-.2-5,1.6c-1.5,2.8,1.3,10.3,3.5,16a79.67,79.67,0,0,0,7.7,15.5c.8-1.9,1.7-3.9,2.5-5.9,2.3-5.5,4.5-10.7,6-15.1-1.4-4.5-2.6-8.7-4.3-10.3a7,7,0,0,0-5-1.9c-1,0-1-1.8,0-1.8s9.2.6,12,.6c2.4,0,10.2-.5,11.4-.5.9,0,.7,1.8-.3,1.8s-3.9-.2-4.8,1.6c-1.4,2.8.9,10,3.3,15.8a89.65,89.65,0,0,0,7.7,15.8c1.7-4.4,3.4-9.1,5-13.6,3.1-8.5,4.9-15.5,4.1-17.6-.6-1.7-3.8-2-5.3-2-1.2,0-1.3-1.9-.2-1.9s7.4.6,9.8.6c2.8,0,8.1-.6,9.2-.6s1,1.9-.1,1.9c-1.3,0-4.2.1-5.4,1.9-1.9,2.6-5.2,11-9.3,20.4-2.3,5.1-4.6,10-6.6,14.3-1,2.1-2.3,4.6-3.1,6.4-.9,1.6-2.2,1-3.1,0-2.5-2.7-9.8-16.8-13.1-25.4-1.9,4.1-4,8.4-6.1,12.8-2.3,4.7-4.4,9.2-6.2,12.6C983,629.27,981.9,629,981,628.27Z" fill="#fff"/><path d="M1063.8,629c-11.9,0-23.4-7.3-23.4-21.9,0-14.8,10.8-25,23.1-25,11,0,18.2,6.9,18.2,14.7,0,2.9-1.2,3.3-3.6,3.8l-27.3,5.7c1.5,9.3,7.6,18.2,17.3,18.2a18.61,18.61,0,0,0,11.6-3.6c.7-.6,1.7-.2,1.2.7C1079.61,623.77,1073.11,629,1063.8,629Zm-13.3-26,21.6-4.5c-.4-7.2-4.3-12.9-11-12.9C1053.5,585.57,1049.9,592.67,1050.5,603Z" fill="#fff"/><path d="M1112,628.27c-1.1,0-9.6-.8-12.3-.8-2.5,0-11.1.8-12.3.8-.9,0-.8-1.7.2-1.7s4-.4,5.2-2.2c1.7-2.3,2-11.5,2-15.4v-6.4c0-3.9.3-11.7-1.6-14.2-1.6-1.9-3.8-1.3-5.5-1-.9.2-1.3-1.3-.2-1.6,1.3-.3,12.9-3,15.7-3.5,1.2-.3,1.8-.1,1.8,1.2l-.1,8.3c2.1-4.3,6.4-9.7,12.3-9.7,6.2,0,10.1,5,10.1,8.4,0,1.6-.6,3.4-3.7,4.4-1.1.3-4.1.8-4.1.5,0-3.7-2.4-8.7-6.5-8.7-2.9,0-6.4,4.7-8.2,10.1l-.1,5.7V609c0,3.9,0,12.8,1.8,15.5,1.2,1.8,4.3,2.1,5.4,2.1S1113.1,628.27,1112,628.27Z" fill="#fff"/><path d="M1156.5,629c-11.9,0-23.4-7.3-23.4-21.9,0-14.8,10.8-25,23.1-25,11,0,18.2,6.9,18.2,14.7,0,2.9-1.2,3.3-3.6,3.8l-27.3,5.7c1.5,9.3,7.6,18.2,17.3,18.2a18.61,18.61,0,0,0,11.6-3.6c.7-.6,1.7-.2,1.2.7C1172.3,623.77,1165.8,629,1156.5,629Zm-13.3-26,21.6-4.5c-.4-7.2-4.3-12.9-11-12.9C1146.2,585.57,1142.6,592.67,1143.2,603Z" fill="#fff"/><path d="M1271.3,628.27c-1.1,0-9.6-.8-12.4-.8-2.4,0-11,.8-12.2.8s-.9-1.7.2-1.7,3.8-.4,5.1-2.2c1.7-2.4,2-11.5,2-15.4v-9.1c0-9.4-3.1-12.1-8.7-12.1-5.1,0-10.5,4-12.6,8.3V609c0,3.9-.1,12.9,1.7,15.6,1.2,1.8,4.5,2,5.6,2,.9,0,1.1,1.7.1,1.7s-9.6-.8-12.4-.8c-2.4,0-11,.8-12.2.8s-.9-1.7.2-1.7,3.8-.4,5.1-2.2c1.7-2.4,2-11.5,2-15.4v-37.6c0-3.9.3-11.8-1.6-14.3-1.6-1.9-3.8-1.3-5.5-1-.9.2-1.3-1.3-.2-1.6,1.3-.3,12.9-3,15.7-3.5,1.2-.3,1.8-.1,1.8,1.2l-.3,19.2v19.4c2.7-3.4,8.6-8.7,17-8.7s14.2,4.7,14.2,17.5V609c0,3.9-.1,12.9,1.7,15.6,1.2,1.8,4.5,2,5.6,2C1272.1,626.57,1272.3,628.27,1271.3,628.27Z" fill="#fff"/><path d="M1300.8,629c-11.9,0-23.4-7.3-23.4-21.9,0-14.8,10.8-25,23.1-25,11,0,18.2,6.9,18.2,14.7,0,2.9-1.2,3.3-3.6,3.8l-27.3,5.7c1.5,9.3,7.6,18.2,17.3,18.2a18.61,18.61,0,0,0,11.6-3.6c.7-.6,1.7-.2,1.2.7C1316.6,623.77,1310.1,629,1300.8,629Zm-13.3-26,21.6-4.5c-.4-7.2-4.3-12.9-11-12.9C1290.5,585.57,1286.9,592.67,1287.5,603Z" fill="#fff"/><path d="M1349,628.27c-1.1,0-9.6-.8-12.3-.8-2.5,0-11.1.8-12.3.8-.9,0-.8-1.7.2-1.7s4-.4,5.2-2.2c1.7-2.3,2-11.5,2-15.4v-6.4c0-3.9.3-11.7-1.6-14.2-1.6-1.9-3.8-1.3-5.5-1-.9.2-1.3-1.3-.2-1.6,1.3-.3,12.9-3,15.7-3.5,1.2-.3,1.8-.1,1.8,1.2l-.1,8.3c2.1-4.3,6.4-9.7,12.3-9.7,6.2,0,10.1,5,10.1,8.4,0,1.6-.6,3.4-3.7,4.4-1.1.3-4.1.8-4.1.5,0-3.7-2.4-8.7-6.5-8.7-2.9,0-6.4,4.7-8.2,10.1l-.1,5.7V609c0,3.9,0,12.8,1.8,15.5,1.2,1.8,4.3,2.1,5.4,2.1S1350.1,628.27,1349,628.27Z" fill="#fff"/><path d="M1393.5,629c-11.9,0-23.4-7.3-23.4-21.9,0-14.8,10.8-25,23.1-25,11,0,18.2,6.9,18.2,14.7,0,2.9-1.2,3.3-3.6,3.8l-27.3,5.7c1.5,9.3,7.6,18.2,17.3,18.2a18.61,18.61,0,0,0,11.6-3.6c.7-.6,1.7-.2,1.2.7C1409.3,623.77,1402.8,629,1393.5,629Zm-13.3-26,21.6-4.5c-.4-7.2-4.3-12.9-11-12.9C1383.2,585.57,1379.6,592.67,1380.2,603Z" fill="#fff"/><path d="M553,746.37c-2.7-2.1-7.8-12.5-12.3-24.8-2.6-7.1-4-14.8-6.3-16.9a6.77,6.77,0,0,0-4.9-1.9c-.8,0-.8-1.5,0-1.5,1.1,0,7.8.5,10.6.5,2.4,0,9.6-.4,10.8-.4.8,0,.6,1.6-.3,1.6s-4.2-.2-5,1.7c-1.3,3,.5,9.6,2.9,16.3a78.34,78.34,0,0,0,7.6,16.2c.7-1.9,1.5-3.8,2.3-5.7,2.6-6.2,5.1-12,6.9-16.8-1.3-4.7-2.2-8.5-3.8-10a6.77,6.77,0,0,0-4.9-1.9c-.8,0-.8-1.5,0-1.5,1.1,0,7.7.5,10.5.5,2.4,0,8.7-.4,9.9-.4.8,0,.6,1.6-.3,1.6s-3.8-.2-4.6,1.7c-1.3,3,.2,9.2,2.8,15.9,3.1,8.2,5.2,12.6,7.6,16.4,1.5-3.9,3.2-8.2,4.8-12.4,3.3-9.2,6.1-17.7,5.7-19.8-.3-1.7-4-1.9-5-1.9s-1.1-1.6-.3-1.6c1.2,0,6.2.5,8.6.5,2.8,0,6.9-.5,8-.5.8,0,.6,1.6-.2,1.6-1.1,0-4.1,0-5.1,1.9-1.4,2.6-5.3,12.3-9.9,23.1-1.5,3.5-3,7.1-4.5,10.6-1.1,2.4-2.2,4.8-3.2,7.1-.7,1.6-1.8,1-2.5,0-2.2-3.2-8.3-15.5-11.7-24.9-.1-.3-.2-.7-.3-1-1.8,3.9-3.8,8.2-5.9,12.7s-4,9.1-5.9,13.2C554.41,747.17,553.71,747,553,746.37Z" fill="#fff"/><path d="M614,706.47c-1.6-2-3.9-1.3-5.7-1-.7.1-1.1-1.2,0-1.5,1.3-.3,10.6-2.5,13.4-3.1,1.2-.3,1.7-.1,1.7,1.2l-.4,19.1V727c0,3.9-.1,13.1,1.7,15.8,1.2,1.8,4.5,2.1,5.6,2.1.8,0,1,1.4.2,1.4-1.1,0-8.5-.8-11.3-.8-2.4,0-9.9.8-11.1.8-.8,0-.6-1.4.3-1.4s3.8-.5,5.1-2.3c1.6-2.2,2.1-11.7,2.1-15.6v-5.8C615.61,717.27,615.91,708.77,614,706.47Zm-.5-22.2c-1.1-2.5.4-6.2,3-6.8,2.6-.9,6.3.3,6.8,2.9,1.1,2.9-.3,6.1-3.1,6.8C617.61,688.07,614.31,687,613.51,684.27Z" fill="#fff"/><path d="M637.71,731.87c.9,2.7,2,5.6,4.2,7.8,2.4,2.5,7.3,4.2,10.8,4.2,5.9,0,9.5-3.8,9.5-7.9,0-4.7-6.7-7.2-12.7-10.4-6.2-3.3-12.5-6.9-12.5-14.3,0-6.7,7.7-10.5,15.9-10.5a43.52,43.52,0,0,1,12.9,1.8c.6.2.2,9.1,0,9.8-.1.3-.8.3-.9,0A15.19,15.19,0,0,0,662,707c-1.8-1.9-6.2-3.2-9.7-3.2-5.4,0-8.8,2.7-8.8,6.7s5.2,6,12.1,9.7,13.2,7,13.2,14.6c0,8-7.9,12-16.8,12-6.6,0-13.3-2.1-14.9-3.1-.3-.2-.9-10.4-.5-11.8C636.71,731.37,637.61,731.47,637.71,731.87Z" fill="#fff"/><path d="M727.51,746.27c-1.1,0-8.5-.8-11.3-.8-2.4,0-9.9.8-11.1.8-.8,0-.6-1.4.3-1.4s3.8-.5,5.1-2.3c1.6-2.2,2.1-11.7,2.1-15.6v-8.8c0-10.2-3.3-12.6-9-12.6-5.3,0-11.7,4.6-13.9,9.2V727c0,3.9-.1,13.1,1.7,15.8,1.2,1.8,4.5,2.1,5.6,2.1.8,0,1,1.4.2,1.4-1.1,0-8.5-.8-11.3-.8-2.4,0-9.9.8-11.1.8-.8,0-.6-1.4.3-1.4s3.8-.5,5.1-2.3c1.6-2.2,2.1-11.7,2.1-15.6v-37.4c0-3.9.3-12.4-1.6-14.7-1.6-2-3.9-1.3-5.7-1-.7.1-1.1-1.2,0-1.5,1.3-.3,10.6-2.5,13.4-3.1,1.2-.3,1.7-.1,1.7,1.2l-.4,19.1v20.3a21.32,21.32,0,0,1,17.2-9.1c8.3,0,13.1,4.7,13.1,17.1V727c0,3.9-.1,13.1,1.7,15.8,1.2,1.8,4.5,2.1,5.6,2.1C728.11,744.87,728.31,746.27,727.51,746.27Z" fill="#fff"/><path d="M770.1,767.37c2.2-1.1,7.1-3.6,10.4-7.3,2.5-2.7,5.5-6.3,9.3-13.9-3.5-2.8-8.9-16.4-12.2-25.5-2.6-7.2-4.6-13.9-6.9-16-1.7-1.5-4.1-1.8-6.1-1.9-.8,0-.8-1.5,0-1.5,1.1,0,9,.5,11.8.5,2.4,0,9.9-.4,11.1-.4.8,0,.6,1.6-.3,1.6s-4.8-.2-5.6,1.7c-1.3,3,1.1,9.2,3.7,15.9a71.85,71.85,0,0,0,8.4,16.7c2.1-4.9,4.4-10.7,6.4-16.1,3.1-7.8,5.4-14.6,5.1-16.4s-4-1.9-5-1.9-1.1-1.6-.3-1.6c1.2,0,6.2.5,8.6.5,2.8,0,6.9-.5,8-.5.8,0,.6,1.6-.2,1.6-1.1,0-4.1,0-5.1,1.9-1.1,2.1-4.1,8.8-7.7,17-3.4,7.6-7.3,16.3-10.6,23.7-6.2,13.7-9.7,20.9-13.1,24.9C778.71,771.67,768,768.47,770.1,767.37Z" fill="#fff"/><path d="M820,724.37c0-12.2,8.6-23.6,21.6-23.6,11.8,0,23,7.4,23,22.1,0,13.1-8.4,23.9-22.6,23.9C830.5,746.77,820,739.77,820,724.37Zm36.6.5c-1-10-5.6-21.3-16-21.3-9.7,0-13.5,10.1-12.5,19.2,1.2,11,6.7,21.1,15.8,21.1C853.41,743.87,857.51,733.77,856.61,724.87Z" fill="#fff"/><path d="M906.9,736.67c-2,4.1-6.7,10.1-14.9,10.1-10,0-14.9-6.4-14.9-17.9v-7.7c0-3.9.3-12.4-1.6-14.7-1.6-2-3.9-1.3-5.7-1-.7.1-1.1-1.2,0-1.5,1.3-.3,10.6-2.5,13.4-3.1,1.2-.3,1.7-.1,1.7,1.2l-.4,19.1v7.4c0,9,3.1,14,9.2,14,5.9,0,11.1-5.5,13.1-10.2v-11.2c0-3.9.2-12.1-1.8-14.7-1.5-2-4.7-1.3-6.5-1-.7.1-1.1-1.2,0-1.5,1.3-.3,11.6-2.5,14.4-3.1,1.2-.3,1.7-.1,1.7,1.2l-.4,19.1V727c0,3.9.3,12.3,1.9,15.4,1,1.9,4,2.5,5.1,2.5s.8,1.3,0,1.4-3.9.3-6.4.3c-2.2,0-4.7-.4-5.8-1.7C907.7,743.27,907.1,740.17,906.9,736.67Z" fill="#fff"/><path d="M982,746.37c-2.7-2.1-7.8-12.5-12.3-24.8-2.6-7.1-4-14.8-6.3-16.9a6.77,6.77,0,0,0-4.9-1.9c-.8,0-.8-1.5,0-1.5,1.1,0,7.8.5,10.6.5,2.4,0,9.6-.4,10.8-.4.8,0,.6,1.6-.3,1.6s-4.2-.2-5,1.7c-1.3,3,.5,9.6,2.9,16.3a78.34,78.34,0,0,0,7.6,16.2c.7-1.9,1.5-3.8,2.3-5.7,2.6-6.2,5.1-12,6.9-16.8-1.3-4.7-2.2-8.5-3.8-10a6.77,6.77,0,0,0-4.9-1.9c-.8,0-.8-1.5,0-1.5,1.1,0,7.7.5,10.5.5,2.4,0,8.7-.4,9.9-.4.8,0,.6,1.6-.3,1.6s-3.8-.2-4.6,1.7c-1.3,3,.2,9.2,2.8,15.9,3.1,8.2,5.2,12.6,7.6,16.4,1.5-3.9,3.2-8.2,4.8-12.4,3.3-9.2,6.1-17.7,5.7-19.8-.3-1.7-4-1.9-5-1.9s-1.1-1.6-.3-1.6c1.2,0,6.2.5,8.6.5,2.8,0,6.9-.5,8-.5.8,0,.6,1.6-.2,1.6-1.1,0-4.1,0-5.1,1.9-1.4,2.6-5.3,12.3-9.9,23.1-1.5,3.5-3,7.1-4.5,10.6-1.1,2.4-2.2,4.8-3.2,7.1-.7,1.6-1.8,1-2.5,0-2.2-3.2-8.3-15.5-11.7-24.9-.1-.3-.2-.7-.3-1-1.8,3.9-3.8,8.2-5.9,12.7s-4,9.1-5.9,13.2C983.4,747.17,982.7,747,982,746.37Z" fill="#fff"/><path d="M1058.6,746.77c-11.4,0-21.5-7.2-21.5-21.6s9.4-24.4,20.7-24.4c10.3,0,17.5,6.5,17.5,14,0,2.9-1.1,3.6-3.5,4.1l-26.6,5.7c1.3,9.3,7.4,18.3,17.3,18.3a17.81,17.81,0,0,0,11.2-3.9c.8-.7,1.6-.3,1,.7C1073.4,741.87,1067.6,746.77,1058.6,746.77Zm-13.7-25.3,22.6-4.8c-.4-7.2-3.8-12.8-11.3-12.8C1047.8,703.87,1044.5,712,1044.9,721.47Z" fill="#fff"/><path d="M1103.2,746.27c-1.1,0-8.5-.8-11.3-.8-2.4,0-9.9.8-11.1.8-.8,0-.6-1.4.3-1.4s3.8-.5,5.1-2.3c1.6-2.2,2.1-11.7,2.1-15.6v-5.8c0-3.9.3-12.4-1.6-14.7-1.6-2-3.9-1.3-5.7-1-.7.1-1.1-1.2,0-1.5,1.3-.3,10.6-2.5,13.4-3.1,1.2-.3,1.7-.1,1.7,1.2l-.2,8.4c2-4.2,6.3-9.7,12-9.7s8.9,4.5,8.9,7.6c0,1.5-.4,3.1-3.3,4-1,.3-3,.8-3,.5,0-3.2-2.8-8-6.4-8-3,0-6.5,5.1-8.3,10.4l-.1,5.9V727c0,3.9-.1,13.1,1.7,15.8,1.2,1.8,4.5,2.1,5.6,2.1C1103.8,744.87,1104,746.27,1103.2,746.27Z" fill="#fff"/><path d="M1144.8,746.77c-11.4,0-21.5-7.2-21.5-21.6s9.4-24.4,20.7-24.4c10.3,0,17.5,6.5,17.5,14,0,2.9-1.1,3.6-3.5,4.1l-26.6,5.7c1.3,9.3,7.4,18.3,17.3,18.3a17.81,17.81,0,0,0,11.2-3.9c.8-.7,1.6-.3,1,.7C1159.6,741.87,1153.8,746.77,1144.8,746.77Zm-13.7-25.3,22.6-4.8c-.4-7.2-3.8-12.8-11.3-12.8C1134,703.87,1130.7,712,1131.1,721.47Z" fill="#fff"/><path d="M1255.7,746.27c-1.1,0-8.5-.8-11.3-.8-2.4,0-9.9.8-11.1.8-.8,0-.6-1.4.3-1.4s3.8-.5,5.1-2.3c1.6-2.2,2.1-11.7,2.1-15.6v-8.8c0-10.2-3.3-12.6-9-12.6-5.3,0-11.7,4.6-13.9,9.2V727c0,3.9-.1,13.1,1.7,15.8,1.2,1.8,4.5,2.1,5.6,2.1.8,0,1,1.4.2,1.4-1.1,0-8.5-.8-11.3-.8-2.4,0-9.9.8-11.1.8-.8,0-.6-1.4.3-1.4s3.8-.5,5.1-2.3c1.6-2.2,2.1-11.7,2.1-15.6v-37.4c0-3.9.3-12.4-1.6-14.7-1.6-2-3.9-1.3-5.7-1-.7.1-1.1-1.2,0-1.5,1.3-.3,10.6-2.5,13.4-3.1,1.2-.3,1.7-.1,1.7,1.2l-.4,19.1v20.3a21.32,21.32,0,0,1,17.2-9.1c8.3,0,13.1,4.7,13.1,17.1V727c0,3.9-.1,13.1,1.7,15.8,1.2,1.8,4.5,2.1,5.6,2.1C1256.3,744.87,1256.5,746.27,1255.7,746.27Z" fill="#fff"/><path d="M1283.2,746.77c-11.4,0-21.5-7.2-21.5-21.6s9.4-24.4,20.7-24.4c10.3,0,17.5,6.5,17.5,14,0,2.9-1.1,3.6-3.5,4.1l-26.6,5.7c1.3,9.3,7.4,18.3,17.3,18.3a17.81,17.81,0,0,0,11.2-3.9c.8-.7,1.6-.3,1,.7C1298,741.87,1292.2,746.77,1283.2,746.77Zm-13.7-25.3,22.6-4.8c-.4-7.2-3.8-12.8-11.3-12.8C1272.39,703.87,1269.09,712,1269.49,721.47Z" fill="#fff"/><path d="M1327.79,746.27c-1.1,0-8.5-.8-11.3-.8-2.4,0-9.9.8-11.1.8-.8,0-.6-1.4.3-1.4s3.8-.5,5.1-2.3c1.6-2.2,2.1-11.7,2.1-15.6v-5.8c0-3.9.3-12.4-1.6-14.7-1.6-2-3.9-1.3-5.7-1-.7.1-1.1-1.2,0-1.5,1.3-.3,10.6-2.5,13.4-3.1,1.2-.3,1.7-.1,1.7,1.2l-.2,8.4c2-4.2,6.3-9.7,12-9.7s8.9,4.5,8.9,7.6c0,1.5-.4,3.1-3.3,4-1,.3-3,.8-3,.5,0-3.2-2.8-8-6.4-8-3,0-6.5,5.1-8.3,10.4l-.1,5.9V727c0,3.9-.1,13.1,1.7,15.8,1.2,1.8,4.5,2.1,5.6,2.1C1328.39,744.87,1328.59,746.27,1327.79,746.27Z" fill="#fff"/><path d="M1369.39,746.77c-11.4,0-21.5-7.2-21.5-21.6s9.4-24.4,20.7-24.4c10.3,0,17.5,6.5,17.5,14,0,2.9-1.1,3.6-3.5,4.1l-26.6,5.7c1.3,9.3,7.4,18.3,17.3,18.3a17.81,17.81,0,0,0,11.2-3.9c.8-.7,1.6-.3,1,.7C1384.19,741.87,1378.39,746.77,1369.39,746.77Zm-13.7-25.3,22.6-4.8c-.4-7.2-3.8-12.8-11.3-12.8C1358.59,703.87,1355.29,712,1355.69,721.47Z" fill="#fff"/><path d="M575.76,864.47c-2.6-2.1-6.2-10.1-11.1-24-2.9-8.2-3.6-15.6-5.8-17.6-1.8-1.4-2.5-1.8-4.8-1.9-.7,0-.7-1.2,0-1.2,1.1,0,6.3.4,9.1.4,2.4,0,8.4-.3,9.6-.3.7,0,.5,1.4-.3,1.4-1,0-4.3-.2-5,1.8-1.1,3.2-.3,8.9,2.3,16.6,3.7,10.6,5.6,13.7,7.5,16.8q1.05-2.55,2.1-5.4c2.8-6.8,5.7-13.3,7.8-18.5-1.2-4.9-1.7-8.3-3.3-9.7a6.48,6.48,0,0,0-4.8-1.9c-.6,0-.6-1.2,0-1.2,1.1,0,6.2.4,9,.4,2.4,0,7.2-.3,8.4-.3.7,0,.5,1.4-.3,1.4-1,0-3.7-.2-4.4,1.8-1.2,3.2-.5,8.4,2.3,16,3.8,10.1,5.4,13.6,7.5,17,1.4-3.4,3.1-7.3,4.6-11.2,3.5-9.9,7.3-19.9,7.3-22,0-1.7-4.2-1.8-4.7-1.8s-.9-1.3-.4-1.3c1.2,0,5,.4,7.4.4,2.8,0,5.7-.4,6.8-.4.5,0,.2,1.3-.3,1.3-.9,0-4-.1-4.8,1.9-.9,2.6-5.4,13.6-10.5,25.8-.7,1.9-1.4,4.2-2.4,6.9-1.2,2.7-2.1,5-3.3,7.8-.5,1.6-1.4,1-1.9,0a208.94,208.94,0,0,1-10.2-24.2c-.3-.8-.5-1.5-.7-2.2q-2.55,5.7-5.7,12.6c-1.7,4.3-3.6,9-5.6,13.8C576.56,865.07,576.26,865,575.76,864.47Z" fill="#fff"/><path d="M633,824.57c-1.7-2.1-4-1.3-5.9-1-.6.1-1-1,.1-1.3,1.3-.3,8.4-2.1,11.1-2.7,1.2-.4,1.7-.1,1.7,1.1l-.6,19V845c0,3.9-.1,13.3,1.7,16,1.2,1.8,4.6,2.2,5.7,2.2.6,0,.9,1.1.2,1.1-1.1,0-7.4-.8-10.2-.8-2.4,0-8.8.8-10,.8-.5,0-.3-1.1.4-1.1,1,0,3.8-.6,5.1-2.4,1.6-2,2.2-11.9,2.2-15.8v-5.3C634.46,835.77,634.76,826.77,633,824.57Zm-.8-22.6c-1.1-2.2.4-5.5,2.4-5.7,2-.6,5.6.4,5.7,2.3,1.1,2.8-.3,5.5-2.5,5.8C635.36,805.07,632.66,804.07,632.16,802Z" fill="#fff"/><path d="M653.56,850.17c1.2,2.8,2.4,6,4.9,8.4,2.1,2,6.8,3.6,10.4,3.6,6.2,0,10-4.1,10-8.3,0-4.7-6.6-7.1-12.9-10.4-6.5-3.3-12.6-7.1-12.6-14.1,0-6.1,7-9.9,14.9-9.9,6.2,0,10.4.9,11.7,1.4.5.1.2,8.8.1,9.2a.38.38,0,0,1-.7,0c-.7-.9-1.3-3.2-2.9-4.9s-6.5-3.1-10.1-3.1c-5.7,0-9.1,3-9.1,6.9,0,3.7,4.6,5.5,12,9.5,7.2,3.8,13.8,7.1,13.8,15,0,7.4-7.3,11.3-15.6,11.3-6.6,0-12.5-2-14.2-3.1-.1-.2-1.1-10.2-.5-11.5C652.86,849.77,653.46,850,653.56,850.17Z" fill="#fff"/><path d="M738.26,864.27c-1.1,0-7.4-.8-10.2-.8-2.4,0-8.8.8-10,.8-.5,0-.3-1.1.4-1.1,1,0,3.8-.6,5.1-2.4,1.5-2,2.2-11.9,2.2-15.8v-8.5c0-11-3.5-13.1-9.3-13.1-5.4,0-12.9,5.2-15.2,10V845c0,3.9-.1,13.3,1.7,16,1.2,1.8,4.5,2.2,5.6,2.2.7,0,.9,1.1.3,1.1-1.1,0-7.4-.8-10.2-.8-2.4,0-8.8.8-10,.8-.5,0-.3-1.1.4-1.1,1,0,3.8-.6,5.1-2.4,1.5-2,2.2-11.9,2.2-15.8v-37.2c0-3.9.3-13-1.6-15.1-1.6-2.1-4-1.3-5.9-1-.5,0-.9-1.1.2-1.4,1.3-.3,8.3-2,11.1-2.7,1.2-.3,1.6-.1,1.6,1.2l-.5,19v21.3a20.57,20.57,0,0,1,17.4-9.6c8.2,0,12,4.7,12,16.7V845c0,3.9-.1,13.3,1.7,16,1.2,1.8,4.5,2.2,5.6,2.2C738.66,863.17,738.86,864.27,738.26,864.27Zm-37.7-28.6v0Z" fill="#fff"/><path d="M782.05,886.37c2.5-1.3,8-4.1,10.7-8.1,1.4-2.7,3-5.5,6.7-14-3.6-3.1-7.6-15.3-10.9-25-2.9-8.3-4.4-14.4-6.7-16.3-1.7-1.5-4.1-1.8-6.4-2-.6,0-.6-1.2,0-1.2,1.1,0,7.9.5,10.7.5,2.4,0,8.8-.3,10-.3.7,0,.5,1.3-.3,1.3-1,0-5-.2-5.7,1.8-1.2,3.2.4,8.4,3.3,16.1,4.2,11,6.4,14.1,8.9,17.9,1.9-4.9,4.3-11.3,6.4-16.8,3.3-8.4,6.2-15.7,6.6-17.3,0-1.7-4.1-1.9-4.9-1.9-.6,0-.9-1.3-.4-1.3,1.2,0,5.1.4,7.5.4,2.8,0,5.6-.4,6.7-.4.6,0,.3,1.3-.2,1.3-1,0-4.1,0-4.8,1.9s-3.4,8.1-7.6,17.7c-3.2,7.3-7.1,16.4-10.5,24.3-5.3,12.3-8.2,19.5-11.3,23.4C789.35,889.17,780.25,887.57,782.05,886.37Z" fill="#fff"/><path d="M828.55,842.27c0-11.7,8.5-22.8,19.5-22.8,12,0,22.4,8.1,22.4,22.2-.1,13.1-9,22.9-21.1,22.9C837.85,864.57,828.45,857.37,828.55,842.27Zm36.2-.1c-1.3-9.3-6.1-20.1-16.9-20.1s-14.9,11.2-13.5,20.5c1.6,10.4,7.4,19.3,16.7,19.3C861.66,861.87,866,851.07,864.76,842.17Z" fill="#fff"/><path d="M917.66,864.77c-1.9,0-3.8-.2-4.4-1-1.4-1.7-1.7-5.5-1.8-9.7-1.6,4.2-5.4,10.6-13.6,10.6-10.5,0-14.8-7.3-14.8-18.1v-6.8c0-3.9.3-13-1.5-15.1s-4-1.3-5.9-1c-.6,0-1-1.1.1-1.4,1.3-.3,8.4-2,11.1-2.7,1.2-.3,1.7-.1,1.7,1.2l-.6,19v6.5c0,9.5,3.4,15.1,10,15.1,6,0,11.6-6.3,13.6-11.1,0-1.8.1-3.5.1-5.1v-5.4c0-3.9.2-12.5-1.8-15.1-1.5-2.1-5.1-1.3-7-1-.5.1-.9-1,.2-1.3,1.3-.3,9.7-2.1,12.4-2.7,1.2-.4,1.7-.1,1.7,1.1l-.6,19.1v4.8c0,3.9.4,12.5,1.9,15.9.8,1.9,4,2.8,5.1,2.8.9,0,.6,1.1-.1,1.1A57.21,57.21,0,0,1,917.66,864.77Zm-5.3-17.7v0Z" fill="#fff"/><path d="M983.25,864.47c-2.6-2.1-6.2-10.1-11.1-24-2.9-8.2-3.6-15.6-5.8-17.6-1.8-1.4-2.5-1.8-4.8-1.9-.7,0-.7-1.2,0-1.2,1.1,0,6.3.4,9.1.4,2.4,0,8.4-.3,9.6-.3.7,0,.5,1.4-.3,1.4-1,0-4.3-.2-5,1.8-1.1,3.2-.3,8.9,2.3,16.6,3.7,10.6,5.6,13.7,7.5,16.8q1.05-2.55,2.1-5.4c2.8-6.8,5.7-13.3,7.8-18.5-1.2-4.9-1.7-8.3-3.3-9.7a6.48,6.48,0,0,0-4.8-1.9c-.6,0-.6-1.2,0-1.2,1.1,0,6.2.4,9,.4,2.4,0,7.2-.3,8.4-.3.7,0,.5,1.4-.3,1.4-1,0-3.7-.2-4.4,1.8-1.2,3.2-.5,8.4,2.3,16,3.8,10.1,5.4,13.6,7.5,17,1.4-3.4,3.1-7.3,4.6-11.2,3.5-9.9,7.3-19.9,7.3-22,0-1.7-4.2-1.8-4.7-1.8s-.9-1.3-.4-1.3c1.2,0,5,.4,7.4.4,2.8,0,5.7-.4,6.8-.4.5,0,.2,1.3-.3,1.3-.9,0-4-.1-4.8,1.9-.9,2.6-5.4,13.6-10.5,25.8-.7,1.9-1.4,4.2-2.4,6.9-1.2,2.7-2.1,5-3.3,7.8-.5,1.6-1.4,1-1.9,0a209,209,0,0,1-10.2-24.2c-.3-.8-.5-1.5-.7-2.2q-2.55,5.7-5.7,12.6c-1.7,4.3-3.6,9-5.6,13.8C984.05,865.07,983.75,865,983.25,864.47Z" fill="#fff"/><path d="M1054,864.57c-10.9,0-19.6-7.1-19.6-21.3s8-23.8,18.3-23.8c9.6,0,16.8,6.1,16.8,13.3,0,2.9-1,3.9-3.4,4.4l-26,5.6c1.1,9.4,7.2,18.5,17.4,18.5a17.21,17.21,0,0,0,10.8-4.2c.9-.8,1.5-.4.8.7C1067.75,860,1062.65,864.57,1054,864.57Zm-14.1-24.6,23.6-5.1c-.3-7.2-3.3-12.7-11.6-12.7C1042.55,822.17,1039.55,831.17,1039.85,840Z" fill="#fff"/><path d="M1094.95,864.27c-1.1,0-7.4-.8-10.3-.8-2.3,0-8.7.8-9.9.8-.7,0-.4-1.1.4-1.1a7.37,7.37,0,0,0,5-2.4c1.5-2.1,2.2-11.9,2.2-15.8v-5.2c0-3.9.3-13.1-1.6-15.2-1.6-2.1-4-1.3-5.9-1-.5,0-.9-1.1.2-1.4,1.3-.3,8.3-2,11.1-2.7,1.2-.3,1.6-.1,1.6,1.2l-.2,8.5c1.9-4.2,6-9.7,11.6-9.7,5,0,7.7,4,7.7,6.8,0,1.4-.2,2.8-2.9,3.6-.9.3-1.9.8-1.9.5,0-2.7-3.2-7.3-6.3-7.3s-6.6,5.6-8.3,10.8l-.2,6V845c0,3.9-.2,13.4,1.6,16.1,1.2,1.8,4.7,2.1,5.8,2.1C1095.25,863.17,1095.45,864.27,1094.95,864.27Z" fill="#fff"/><path d="M1133.65,864.57c-10.9,0-19.6-7.1-19.6-21.3s8-23.8,18.3-23.8c9.6,0,16.8,6.1,16.8,13.3,0,2.9-1,3.9-3.4,4.4l-26,5.6c1.1,9.4,7.2,18.5,17.4,18.5a17.21,17.21,0,0,0,10.8-4.2c.9-.8,1.5-.4.8.7C1147.45,860,1142.35,864.57,1133.65,864.57Zm-14.1-24.6,23.6-5.1c-.3-7.2-3.3-12.7-11.6-12.7C1122.25,822.17,1119.25,831.17,1119.55,840Z" fill="#fff"/><path d="M1240.65,864.27c-1.1,0-7.4-.8-10.2-.8-2.4,0-8.8.8-10,.8-.5,0-.3-1.1.4-1.1,1,0,3.8-.6,5.1-2.4,1.5-2,2.2-11.9,2.2-15.8v-8.5c0-11-3.5-13.1-9.3-13.1-5.4,0-12.9,5.2-15.2,10V845c0,3.9-.1,13.3,1.7,16,1.2,1.8,4.5,2.2,5.6,2.2.7,0,.9,1.1.3,1.1-1.1,0-7.4-.8-10.2-.8-2.4,0-8.8.8-10,.8-.5,0-.3-1.1.4-1.1,1,0,3.8-.6,5.1-2.4,1.5-2,2.2-11.9,2.2-15.8v-37.2c0-3.9.3-13-1.6-15.1-1.6-2.1-4-1.3-5.9-1-.5,0-.9-1.1.2-1.4,1.3-.3,8.3-2,11.1-2.7,1.2-.3,1.6-.1,1.6,1.2l-.5,19v21.3a20.57,20.57,0,0,1,17.4-9.6c8.2,0,12,4.7,12,16.7V845c0,3.9-.1,13.3,1.7,16,1.2,1.8,4.5,2.2,5.6,2.2C1241,863.17,1241.25,864.27,1240.65,864.27Zm-37.7-28.6v0Z" fill="#fff"/><path d="M1266.15,864.57c-10.9,0-19.6-7.1-19.6-21.3s8-23.8,18.3-23.8c9.6,0,16.8,6.1,16.8,13.3,0,2.9-1,3.9-3.4,4.4l-26,5.6c1.1,9.4,7.2,18.5,17.4,18.5a17.21,17.21,0,0,0,10.8-4.2c.9-.8,1.5-.4.8.7C1279.95,860,1274.85,864.57,1266.15,864.57ZM1252,840l23.6-5.1c-.3-7.2-3.3-12.7-11.6-12.7C1254.75,822.17,1251.75,831.17,1252,840Z" fill="#fff"/><path d="M1307.14,864.27c-1.1,0-7.4-.8-10.3-.8-2.3,0-8.7.8-9.9.8-.7,0-.4-1.1.4-1.1a7.37,7.37,0,0,0,5-2.4c1.5-2.1,2.2-11.9,2.2-15.8v-5.2c0-3.9.3-13.1-1.6-15.2-1.6-2.1-4-1.3-5.9-1-.5,0-.9-1.1.2-1.4,1.3-.3,8.3-2,11.1-2.7,1.2-.3,1.6-.1,1.6,1.2l-.2,8.5c1.9-4.2,6-9.7,11.6-9.7,5,0,7.7,4,7.7,6.8,0,1.4-.2,2.8-2.9,3.6-.9.3-1.9.8-1.9.5,0-2.7-3.2-7.3-6.3-7.3s-6.6,5.6-8.3,10.8l-.2,6V845c0,3.9-.2,13.4,1.6,16.1,1.2,1.8,4.7,2.1,5.8,2.1C1307.44,863.17,1307.64,864.27,1307.14,864.27Z" fill="#fff"/><path d="M1345.84,864.57c-10.9,0-19.6-7.1-19.6-21.3s8-23.8,18.3-23.8c9.6,0,16.8,6.1,16.8,13.3,0,2.9-1,3.9-3.4,4.4l-26,5.6c1.1,9.4,7.2,18.5,17.4,18.5a17.21,17.21,0,0,0,10.8-4.2c.9-.8,1.5-.4.8.7C1359.65,860,1354.54,864.57,1345.84,864.57Zm-14.1-24.6,23.6-5.1c-.3-7.2-3.3-12.7-11.6-12.7C1334.44,822.17,1331.44,831.17,1331.74,840Z" fill="#fff"/></svg>