<svg id="Layer_1" data-name="Layer 1" xmlns="http://www.w3.org/2000/svg" viewBox="0 0 1920 1080"><title>screensArtboard 1</title><rect width="1920" height="1080" fill="#b6b9c4"/><path d="M370.33,622.93c-39.24,0-70.56-25.56-70.56-76.68s28.8-85.68,65.88-85.68c34.56,0,60.48,22,60.48,47.88,0,10.44-3.6,14-12.24,15.84L320.3,544.46c4,33.84,25.92,66.6,62.64,66.6,19.8,0,34.92-11.52,38.88-15.12,3.24-2.88,5.4-1.44,2.88,2.52C420,606.37,401.65,622.93,370.33,622.93Zm-50.76-88.56,85-18.36c-1.08-25.92-11.88-45.72-41.76-45.72C329.3,470.3,318.49,502.7,319.57,534.38Z" fill="#fff"/><path d="M539.89,623.65c-41,0-77.4-25.92-77.4-77.76,0-52.2,33.84-87.84,74.52-87.84,37.08,0,63,23.4,63,50.4,0,10.44-4,13-12.6,14.76l-95.76,20.52c4.68,33.48,26.64,65.88,62.28,65.88a64.11,64.11,0,0,0,40.32-14c2.88-2.52,5.76-1.08,3.6,2.52C593.17,606,572.29,623.65,539.89,623.65Zm-49.32-91.08,81.36-17.28c-1.44-25.92-13.68-46.08-40.68-46.08C501,469.22,489.13,498.38,490.57,532.58Z" fill="#fff"/><path d="M719.52,624.37c-42.84,0-84.24-26.28-84.24-78.84,0-53.28,38.88-90,83.16-90,39.6,0,65.52,24.84,65.52,52.92,0,10.44-4.32,11.88-13,13.68l-98.28,20.52c5.4,33.48,27.36,65.52,62.28,65.52,23.4,0,37.08-9.36,41.76-13,2.52-2.16,6.12-.72,4.32,2.52C776.4,605.65,753,624.37,719.52,624.37Zm-47.88-93.6,77.76-16.2c-1.44-25.92-15.48-46.44-39.6-46.44C682.44,468.14,669.48,493.7,671.64,530.78Z" fill="#fff"/><path d="M908.88,625.09c-44.64,0-90.36-26.28-90.36-79.92,0-54,43.2-92.52,91.8-92.52,42.12,0,68,26.28,68,55.8,0,10.44-5.4,10.44-14,12.24L864.6,541.94c5.4,33.48,27.72,65.16,61.2,65.16,25.2,0,38.88-9,43.56-12.24,2.52-1.8,6.84,0,5,2.88C970.07,605.3,943.79,625.09,908.88,625.09Zm-45.72-95.76,74.16-15.84c-1.44-25.56-17.64-46.8-38.88-46.8C874.68,466.7,859.92,490.1,863.16,529.34Z" fill="#fff"/><path d="M1108.31,625.81c-46.44,0-97.2-26.64-97.2-81,0-55.08,48.24-94.68,100.44-94.68,44.64,0,70.56,27.72,70.56,58.32,0,10.44-5.76,9.36-14.4,11.16l-102.23,21.24c6.12,33.48,28.8,64.8,61.2,64.8,27,0,40-7.92,45-11.16,2.16-1.44,7.2.36,5.76,2.88C1173.11,604.94,1144.31,625.81,1108.31,625.81ZM1064,527.9l70.56-15.12c-1.44-25.56-19.44-47.16-37.8-47.16C1075.55,465.62,1060.08,486.14,1064,527.9Z" fill="#fff"/><path d="M1317.83,626.53c-48.24,0-104-27-104-82.08,0-56.16,53.28-96.84,109.08-96.84,47.16,0,73.08,29.16,73.08,60.84,0,7.57-6.12,8.28-14.76,10.08l-104.4,21.24v.72c6.84,33.48,29.52,63.72,60.84,63.72,28.8,0,41-6.84,46.44-10.08,1.8-1.08,7.56.72,6.48,2.88C1386.23,604.57,1354.91,626.53,1317.83,626.53Zm-43.2-100.44,67.32-14c-1.44-25.2-21.24-47.52-36.72-47.52C1286.87,464.54,1270.31,482.18,1274.63,526.1Z" fill="#fff"/><path d="M1537.07,627.25c-50,0-110.16-27-110.16-83.16,0-56.88,57.6-99.36,117.71-99.36,49.68,0,75.6,30.6,75.6,63.72,0,5.18-7.2,6.84-15.84,8.64l-106.2,22,.36,2.16c7.2,32.76,30.24,61.92,59.76,61.92,30.6,0,42.84-6.48,48.24-9.36,1.8-.72,8.28,1.44,7.2,3.24C1609.79,604.21,1575.58,627.25,1537.07,627.25Zm-40.68-100.08-.36-2.52,63.72-13.32c-1.44-25.56-23.4-48.24-36-48.24C1508.27,463.1,1489.91,479.3,1496.39,527.18Z" fill="#fff"/></svg>