<svg id="Layer_1" data-name="Layer 1" xmlns="http://www.w3.org/2000/svg" viewBox="0 0 1920 1080"><title>characterset_lightArtboard 1</title><rect width="1920" height="1080" fill="#faf8f3"/><path d="M406.64,242.17c-.75,0-5.13-.17-6.91-.17-1.61,0-7.83.17-8.53.17a.46.46,0,0,1,0-.92c.63,0,4.84-.29,4.9-1.32,0-.52-2.48-6.74-5.41-13.94-.17-.46-.35-.86-.52-1.32l-7.95-.17-7.09.17c-.75,2-1.38,3.63-1.9,5.07-2.36,6.28-3.69,9.33-3.63,10.2.06,1,3.51,1.32,4.15,1.32a.46.46,0,0,1,0,.92c-.69,0-5.13-.17-6.74-.17-1.79,0-6.16.17-6.91.17s-.52-.92,0-.92c.69,0,3.69-.46,4.61-1.61.63-.81,1.79-2.48,4.49-8.58,2.59-5.82,6.8-15.55,13.77-32,.17-.35.4-.58.69-.58s.52.23.69.58c3.17,7.37,6.45,15.32,9.68,22.87s6.34,15.09,8,17.68c.75,1.21,3.92,1.61,4.61,1.61C407.16,241.25,407.27,242.17,406.64,242.17Zm-17.45-19.76C386.65,216.24,384,210,382.45,206c-2.71,6.74-4.78,12-6.45,16.36l6.16.12Z" fill="#020202"/><path d="M454.53,242.45c-.69,0-5.7-.46-8.24-.46-1.61,0-8.64.17-9.45.17-.58,0-.4-.92.11-.92,2,0,3.23-.12,4.15-1.15,1.15-1.32,1.73-6.28,1.61-9v-21c.11-2.77-.46-7.72-1.61-9-.92-1-2.13-1.15-4.15-1.15-.52,0-.69-.92-.11-.92h14.92c5.59,0,12,2.71,12,10,0,4.44-2.59,8.24-8.18,10.14,7.66,1,12.15,5.41,12.15,11.23C467.73,237.33,461.27,242.45,454.53,242.45Zm-2.88-23.68c4.38,0,7.89-3.17,7.6-9.39s-5.19-8.64-8.06-8.64h-3.8v18Zm-4.26,1.67V237.5c0,2.59,5.07,2.94,7.37,2.94,5.18,0,8.12-4.26,7.83-9.56-.4-7.49-5.3-10.43-10.2-10.43Z" fill="#020202"/><path d="M521.9,242.63C509.28,242.63,500,235,500,221c0-10.31,7.78-22.47,21.6-22.47,7.09,0,14.23,2.25,15.5,3.46.86.81-.35,9.85-1.21,11-.23.29-1.15.23-1,0a10.14,10.14,0,0,0,.75-2.36c.52-5.24-5.93-9.91-14.69-9.91-9.51-.06-16.3,9.22-16,18.72.29,10.37,7.83,21.08,18.43,21,8.47,0,13.54-6.34,13.83-10.83,0-.4,1-.58,1,0,0,1.67-.75,8.87-1.09,9A33.54,33.54,0,0,1,521.9,242.63Z" fill="#020202"/><path d="M576.13,210.08c.11-2.77-.46-7.72-1.61-9-.92-1-2.13-1.15-4.15-1.15-.52,0-.69-.92-.12-.92H589c13.19,0,22.7,7.26,22.7,21.43,0,11.92-8.41,22.06-21,22.06-1.9,0-7.78-.46-11.06-.46-1.61,0-8.64.17-9.45.17-.58,0-.4-.92.12-.92,2,0,3.23-.12,4.15-1.15,1.15-1.32,1.73-6.28,1.61-9Zm14.4,30.42c11.87,0,16.76-9.22,16.42-18.49-.4-10.43-6.86-21.08-18.84-21.08l-7.32-.17V237.5C580.8,240.09,588.46,240.5,590.53,240.5Z" fill="#020202"/><path d="M650.24,210.08c0-2.77-.46-7.72-1.61-9-.92-1-2.13-1.15-4.15-1.15-.52,0-.69-.92-.12-.92h26c.58,0,.17,7.14.17,7.78,0,.35-.69.4-.69,0,0-2.65-1-5.93-8.64-5.93l-6.34-.11v17.57h9c2.76-.17,3.51-1,3.51-2.94,0-.29.69-.29.69,0v8.58c0,.29-.69.29-.69,0,0-1.9-.75-3.4-3.51-3.51l-9-.46v17.51c0,2.65,3.34,3.05,7.78,3.05a11.39,11.39,0,0,0,10.54-6.62c.23-.52,1-.35.81.11-.4,1-1.79,8.18-3.69,8.18h-26c-.58,0-.4-.92.12-.92,2,0,3.23-.12,4.15-1.15,1.15-1.32,1.73-6.28,1.61-9Z" fill="#020202"/><path d="M721.35,242.17c-.75,0-7-.29-8.47-.29s-7.09.29-7.83.29c-.58,0-.52-.92,0-.92.69,0,3.28,0,4.2-1.21.69-.92,1.44-3.11,1.56-9v-21c-.06-2.94-.4-7.78-1.61-9-.92-1-2.13-1.15-4.15-1.15-.52,0-.69-.92-.12-.92H731c.58,0,.17,7.14.17,7.78,0,.35-.69.4-.69,0,0-2.59-1-5.93-8.64-5.93l-6.34-.11v17.57h9c2.76-.17,3.51-1,3.51-2.94,0-.29.69-.29.69,0v8.58c0,.29-.69.29-.69,0,0-1.9-.75-3.34-3.51-3.51l-9-.4V231c.17,5.88.52,7.89,1.21,9s3.92,1.21,4.61,1.21C721.87,241.25,721.93,242.17,721.35,242.17Z" fill="#020202"/><path d="M795.92,230.42c-.12-5.88-.46-7.95-1.21-9s-2.59-1.15-3.28-1.15c-.46,0-.52-1,0-1,.75,0,5.24.4,6.8.4,1.79,0,5.53-.4,6.28-.4.52,0,.58.92.12.92-.69,0-2.54.29-3.11,1.21-.69,1.09-1,3.11-1.21,9v7.66c0,.17,0,.35-.12.4a34.31,34.31,0,0,1-15.27,4.15c-12.15,0-21.95-7.32-21.89-22,.06-10,7.2-22.06,21.54-22.06,7.09,0,14.8,2.19,16.07,3.4.86.81-.35,9.85-1.21,11-.23.29-1.15.23-1,0a10.14,10.14,0,0,0,.75-2.36c.46-5.3-7.43-9.91-15.38-9.91-12.27,0-16.07,9.62-15.78,18.66.35,11.41,8.41,21.08,18.09,21.08a17.38,17.38,0,0,0,9.85-3.11Z" fill="#020202"/><path d="M882.24,242.17c-.75,0-7-.29-8.47-.29s-7.09.29-7.83.29c-.58,0-.52-.92,0-.92.69,0,3.28,0,4.2-1.21.69-.92,1.44-3.11,1.56-9V221c-3.34-.17-7.55-.35-12.56-.35-4.67,0-8.93.35-12.15.52V231c.17,5.88.52,7.89,1.21,9s3.92,1.21,4.61,1.21c.52,0,.58.92,0,.92-.75,0-7-.29-8.47-.29s-7.09.29-7.83.29c-.58,0-.52-.92,0-.92.69,0,3.28,0,4.2-1.21.69-.92,1.44-3.11,1.56-9v-21c-.11-5.88-.86-8.06-1.56-9-.92-1.21-3.51-1.21-4.2-1.21-.52,0-.58-.92,0-.92.75,0,6.28.29,7.83.29s7.55-.29,8.3-.29c.58,0,.52.92,0,.92-.69,0-3.57,0-4.49,1.21-.75,1-1,3.11-1.15,9v8.64c3.23.06,7.49.23,12.15.23,5,0,9.22-.17,12.56-.23v-8.64c-.11-5.88-.86-8.06-1.56-9-.92-1.21-3.51-1.21-4.2-1.21-.52,0-.58-.92,0-.92.75,0,6.28.29,7.83.29s7.55-.29,8.29-.29c.58,0,.52.92,0,.92-.69,0-3.57,0-4.49,1.21-.75,1-1,3.11-1.15,9v21c.17,5.88.52,7.89,1.21,9s3.92,1.21,4.61,1.21C882.75,241.25,882.81,242.17,882.24,242.17Z" fill="#020202"/><path d="M924.6,231c.17,5.88.52,7.89,1.21,9s3.92,1.21,4.61,1.21c.52,0,.58.92,0,.92-.75,0-7-.29-8.47-.29s-7.09.29-7.83.29c-.58,0-.52-.92,0-.92.69,0,3.28,0,4.2-1.21.69-.92,1.44-3.11,1.56-9v-21c-.11-5.88-.86-8.06-1.56-9-.92-1.21-3.51-1.21-4.2-1.21-.52,0-.58-.92,0-.92.75,0,6.28.29,7.83.29s7.55-.29,8.29-.29c.58,0,.52.92,0,.92-.69,0-3.57,0-4.49,1.21-.75,1-1,3.11-1.15,9Z" fill="#020202"/><path d="M966.51,201.09c-.92-1.21-3.51-1.21-4.21-1.21-.52,0-.58-.92,0-.92.75,0,6.28.29,7.83.29s7.55-.29,8.3-.29c.58,0,.52.92,0,.92-.69,0-3.57,0-4.49,1.21-.75,1-1,3.11-1.15,9v22.47c0,10.14-6,14.57-12.85,16.36-.75.23-.86-1.09-.11-1.32,4.09-1.27,8.24-5.7,8.24-15.44V210.08C967.95,204.21,967.2,202,966.51,201.09Z" fill="#020202"/><path d="M1044.76,242.57a18,18,0,0,1-3.46-.46c-2.42-.81-4-2-8.41-7.66-3.05-4-8.41-13.08-9.1-13.08h-3.86V231c.17,5.88.52,7.89,1.21,9s3.92,1.21,4.61,1.21c.52,0,.58.92,0,.92-.75,0-7-.29-8.47-.29s-7.09.29-7.83.29c-.58,0-.52-.92,0-.92.69,0,3.28,0,4.2-1.21.69-.92,1.44-3.11,1.56-9V210.2c-.11-5.88-.86-8.06-1.56-9-.92-1.21-3.51-1.21-4.2-1.21-.52,0-.58-.92,0-.92.75,0,6.28.29,7.83.29s7.55-.29,8.29-.29c.58,0,.52.92,0,.92-.69,0-3.57,0-4.49,1.21-.75,1-1,3-1.15,8.87v9.62h2.82a3.4,3.4,0,0,0,2.48-1.21c1.84-2.07,4.26-5,6.8-8.24s5.13-7.26,5.13-9.16c0-1.21-2.65-1.21-3.34-1.21-.52,0-.58-.92,0-.92.81,0,4.84.29,6.45.29,1.79,0,5.93-.29,6.68-.29.58,0,.52.92,0,.92a5.83,5.83,0,0,0-4,1.38c-1.67,1.67-6.51,6.62-8.24,8.81-2.36,3.05-4.72,5.7-7.32,8.81,2.59,2,7.6,9,10.71,12.67,4.32,5.13,7.37,9.74,11.41,9.74.4,0,.52.75,0,.86A37,37,0,0,1,1044.76,242.57Z" fill="#020202"/><path d="M1083,201.09c-.92-1.21-3.51-1.21-4.2-1.21-.52,0-.58-.92,0-.92.75,0,6.28.29,7.83.29s7.55-.29,8.3-.29c.58,0,.52.92,0,.92-.69,0-3.57,0-4.49,1.21-.75,1-1,3.11-1.15,9v27.36c0,2.65,3.34,3.05,7.78,3.05a11.39,11.39,0,0,0,10.54-6.62c.23-.52,1-.35.81.11-.4,1-1.79,8.18-3.69,8.18h-26c-.58,0-.4-.92.12-.92,2,0,3.23-.12,4.15-1.15,1.15-1.32,1.73-6.28,1.61-9v-21C1084.48,204.21,1083.73,202,1083,201.09Z" fill="#020202"/><path d="M1166.19,242.63c-.29,0-.52-.23-.69-.58L1150,209.39c-.86,7.6-2.25,21.14-2.3,21.66-.17,1.5-1,8.41.11,9.5.69.69,3.05.69,3.74.69.52,0,.58.92,0,.92-.75,0-5.13-.17-6.91-.17s-5.24.17-6,.17c-.52,0-.52-.92,0-.92,1.33,0,3.23.06,4.38-1.5.92-1.27,1.56-4.09,2.13-8.7.06-.58,3.05-24,4-32a.73.73,0,0,1,.69-.58c.29,0,.52.23.69.58l17.11,35.72,15.67-35.72c.17-.35.4-.58.69-.58a.73.73,0,0,1,.69.58l4.78,32c.35,2.13,1.27,6.91,2.3,8.7.81,1.38,2.59,1.5,3.92,1.5.52,0,.58.92,0,.92-.75,0-5.07-.17-6.62-.17-1.79,0-6.51.17-7.26.17-.58,0-.52-.92,0-.92.69,0,2.19.11,2.71-.69,1.15-1.67.23-7.83,0-9.33l-3.46-22.12-14.17,32.95C1166.71,242.4,1166.48,242.63,1166.19,242.63Z" fill="#020202"/><path d="M1265.87,242.17c-1.5-1.73-23.21-24.89-31.91-34.39v23.33c0,2.25.12,7.2,1.27,8.87.86,1.27,3.57,1.27,4.26,1.27.52,0,.58.92,0,.92-.81,0-5.36-.23-7-.23s-6.11.23-6.91.23c-.58,0-.52-.92,0-.92.69,0,3.23,0,4.09-1.27,1.15-1.67,1.27-6.62,1.27-8.87V199.42c0-1.27,1-.81,1.38-.35l32.09,34.45V210.08c0-2.25-.06-7.2-1.21-8.87-.86-1.27-3.34-1.33-4-1.33-.52,0-.58-.92,0-.92.81,0,5.24.29,6.85.29s5.88-.29,6.68-.29c.58,0,.52.92,0,.92-.69,0-3.17.06-4,1.33-1.15,1.67-1.27,6.62-1.27,8.87v32C1267.42,242.69,1266.33,242.69,1265.87,242.17Z" fill="#020202"/><path d="M1305.41,221c0-9.85,8-22.47,21.78-22.47,12.39,0,21.83,8.58,21.83,21.77,0,11.52-8.35,22.35-21.83,22.35C1314.57,242.63,1305.41,234.51,1305.41,221Zm38.71,1.21c-.4-12.21-9.27-21.6-18.38-21.49-9.74.11-15.73,9.45-15.32,18.38.58,12.15,8.7,21.43,18.32,21.43C1337.32,240.5,1344.47,232.72,1344.12,222.18Z" fill="#020202"/><path d="M1398,199c8.35,0,13.19,5.3,13.19,11.52,0,7.32-5.82,13.13-11.92,13.13a7.73,7.73,0,0,1-3.86-1c-.46-.29.17-1.32.46-1.21a9.68,9.68,0,0,0,3.57.63c4.15,0,7.32-4.84,7-10.71-.29-5-4-10.6-9.39-10.6h-4.78V231c.17,5.88.52,7.89,1.21,9s3.92,1.21,4.61,1.21c.52,0,.58.92,0,.92-.75,0-7-.29-8.47-.29s-7.09.29-7.83.29c-.58,0-.52-.92,0-.92.69,0,3.28,0,4.2-1.21.69-.92,1.44-3.11,1.56-9v-21c0-2.77-.46-7.83-1.61-9.16-.92-1-2.19-1.15-4.2-1.15a.4.4,0,1,1,0-.81Z" fill="#020202"/><path d="M1500.74,254.67c-12.56,0-23.33-8.93-28.8-12.79a20.91,20.91,0,0,1-5.82.75c-12.62,0-21.78-8.12-21.78-21.66,0-9.85,8-22.47,21.78-22.47,12.39,0,21.83,8.58,21.83,21.77a22.37,22.37,0,0,1-11.58,19.93c7.32,4.44,16.42,11.46,26.15,11.46a33.13,33.13,0,0,0,11.92-2c.23-.06.4.52.12.63C1511.75,251.9,1507.83,254.67,1500.74,254.67Zm-17.68-32.49c-.4-12.21-9.27-21.6-18.38-21.49-9.74.11-15.73,9.45-15.32,18.38.58,12.15,8.7,21.43,18.32,21.43C1476.26,240.5,1483.4,232.72,1483.06,222.18Z" fill="#020202"/><path d="M1557.16,242.51a13.69,13.69,0,0,1-3.05-.46c-2.13-.69-4.61-2.82-7-5.93-2.13-2.71-8.93-13.65-8.93-13.65a35.7,35.7,0,0,1-5.53-.4v9c.17,5.88.52,7.89,1.21,9s3.92,1.21,4.61,1.21c.52,0,.58.92,0,.92-.75,0-7-.29-8.47-.29s-7.09.29-7.83.29c-.58,0-.52-.92,0-.92.69,0,3.28,0,4.2-1.21.69-.92,1.44-3.11,1.56-9v-21c.11-2.77-.46-7.72-1.61-9-.92-1-2.13-1.15-4.15-1.15-.52,0-.69-.92-.12-.92h16.76c5.93,0,12.73,3.11,12.73,10.25,0,5.36-3.8,10.2-8.93,12.39,1.5,2.07,7.49,10.37,9.85,13.25,4.09,5,7.83,6.34,9.74,6.34.4,0,.4.86,0,1S1557.91,242.51,1557.16,242.51Zm-10.94-32.83a9.31,9.31,0,0,0-9.45-8.93h-4.15v19.64a32.81,32.81,0,0,0,6.11.29C1542.48,220.39,1546.68,216.47,1546.22,209.68Z" fill="#020202"/><path d="M363.38,326.21c-.81-.86.35-9.85,1.21-11,.23-.35,1.15-.23,1,0a12.19,12.19,0,0,0-.69,2.36c-.4,5.07,5.07,9.45,11.64,9.45,5.3,0,7.89-4.26,7.89-8.53,0-5.41-6.74-8.18-10.25-10.43-3.8-2.42-10.89-5.36-10.89-13,0-5.93,5.13-10.2,12.9-10.2,5,0,9.91,1.61,10.83,2.48.75.81-.35,8.93-1.09,10-.23.29-1,.23-.92,0a9.78,9.78,0,0,0,.58-2.13c.4-4.55-4.61-8.58-10.43-8.58-5,0-7.37,2.94-7.37,6.45,0,5.47,6.22,8.18,10.77,11,4.32,2.65,10.48,5.7,10.48,13.36,0,5.24-3.74,11.58-12.73,11.58C370.29,329,364.47,327.18,363.38,326.21Z" fill="#020202"/><path d="M445.11,326.44c.81,1.21,3.92,1.21,4.61,1.21.52,0,.58.92,0,.92-.75,0-7-.29-8.47-.29s-7.09.29-7.83.29c-.58,0-.52-.92,0-.92.69,0,3.28,0,4.21-1.21.69-.92,1.44-3.11,1.56-9l.11-30.36c-9,0-12.33.29-14,1.61s-1.84,5.53-1.84,6.22c0,.4-.75.58-.75,0,0-.75-.46-9.56.17-9.56H460.2c.63,0,.17,8.81.17,9.56,0,.52-.75.4-.75,0,0-.69-.29-5-1.84-6.22s-5-1.61-14-1.61l.11,30.36C444.07,323.32,444.41,325.34,445.11,326.44Z" fill="#020202"/><path d="M501.72,311.17c0,9.62,6.86,15.67,15.09,15.67,8.76,0,12.67-5.65,12.67-15.44V296.48c-.11-5.88-.52-7.78-1.21-9s-2.36-1.21-3.05-1.21c-.46,0-.52-.92,0-.92.75,0,4.55.29,6.11.29,1.79,0,5-.29,5.7-.29.52,0,.46.92,0,.92a3.44,3.44,0,0,0-2.88,1.21c-.75,1.09-1.09,3.11-1.27,9v14.69c0,11.75-6.57,17.86-16.71,17.86-12,0-19.18-6.16-19.18-17.86V296.48c-.11-5.88-.86-8.06-1.56-9-.92-1.21-3.51-1.21-4.2-1.21-.52,0-.58-.92,0-.92.75,0,6.28.29,7.83.29s7.55-.29,8.29-.29c.58,0,.52.92,0,.92-.69,0-3.57,0-4.49,1.21-.75,1-1,3.11-1.15,9Z" fill="#020202"/><path d="M591.62,329c-.35,0-.58-.46-.81-.86-2.82-5.41-7.14-13.59-10.37-21.49-2.59-6.34-6.39-17.34-8.3-19.24-.75-.75-2.94-1.15-4-1.15a.47.47,0,1,1,0-.92c.75,0,5.93.29,7.49.29,1.79,0,7.14-.29,7.89-.29a.46.46,0,1,1,0,.92c-.69,0-3.05.29-3.74,1.21-.86,1.21,3.34,12.33,5.76,18.26s5.24,12.27,7.66,16c2.88-7.37,9.39-23.91,9.91-25.29,2.3-5.88,2.77-7.89,2.48-9s-2.94-1.21-3.63-1.21a.46.46,0,1,1,0-.92c.75,0,5.24.29,7,.29,1.56,0,4.55-.29,5.3-.29a.47.47,0,1,1,0,.92c-1,0-2.76.23-3.57,1.21s-1.79,3.23-4.32,9c-.81,1.84-10.54,24-14.06,32A.85.85,0,0,1,591.62,329Z" fill="#020202"/><path d="M683.77,329c-.17,0-.46-.23-.63-.58a213.68,213.68,0,0,1-9.1-21.66c-.17-.52-.4-1.09-.58-1.61-3.05,9.27-7.6,22.12-8.18,23.27-.17.35-.4.58-.69.58s-.46-.23-.63-.58a216.09,216.09,0,0,1-10.25-22c-2.3-5.76-5.88-17.11-7.55-18.78-1.15-1.15-4.26-1.38-5.24-1.38-.52,0-.58-.92,0-.92.75,0,6.8.29,8.58.29,1.55,0,7.09-.29,7.83-.29.58,0,.52.92,0,.92-.69,0-3.46-.06-3.74,1.15-.52,2.25,2.76,12,4.78,17.17,2.13,5.42,5,12.21,7.32,16.19l6.62-19.12c-2-6.39-4-13.08-4.9-14-1.27-1.27-3.8-1.38-4.78-1.38-.52,0-.58-.92,0-.92.75,0,6.8.29,8.58.29,1.56,0,6.8-.29,7.55-.29.58,0,.52.92,0,.92-.69,0-3.8-.06-4.38,1.15-1,2.07,1.09,9.16,4,17.57a142.91,142.91,0,0,0,6.51,15.78c2.36-7.6,6.51-21.43,7.49-24.89.81-2.88,1.61-6.51,1.15-8.12-.4-1.44-3.28-1.5-4-1.5-.52,0-.58-.92,0-.92.75,0,5.76.29,7.32.29,1.79,0,6.11-.29,6.85-.29.58,0,.52.92,0,.92-1,0-3.17.23-4.32,1.38-1.5,1.5-3,6.16-3.92,8.81-1.73,5.07-8.29,24-11.06,32C684.29,328.8,684.06,329,683.77,329Z" fill="#020202"/><path d="M773.79,328.57c-.75,0-6.39-.29-7.95-.29-1.79,0-7.2.29-7.95.29a.46.46,0,1,1,0-.92c.69,0,3.57-.29,4.26-1.09,1.09-1.33-6.68-9.79-12-17.17-2,3.05-4.55,6.8-5.47,8.3-3.17,5.07-4.15,7.55-3.69,8.64s2.71,1.33,3.4,1.33a.46.46,0,1,1,0,.92c-.75,0-4.9-.29-6.68-.29-1.56,0-5.65.29-6.39.29a.47.47,0,1,1,0-.92,6.29,6.29,0,0,0,3.46-1.09c1.09-.86,4.09-4.84,7.6-9.85,2.07-2.88,4.32-6.11,6.45-9.22-4.67-6.74-9.33-13.77-13.65-20-.63-.92-2-1.21-4.55-1.21a.47.47,0,1,1,0-.92c.75,0,6.68.29,8.24.29,1.79,0,7.2-.29,8-.29a.46.46,0,1,1,0,.92c-.69,0-4.09.17-4.26,1.21-.35,1.79,4,8.06,10.14,16.65,1.38-2.07,3.69-5.3,4.84-7.09,3.23-4.9,4.84-8.41,4.38-9.56-.58-1.38-2.88-1.27-3.57-1.27a.46.46,0,1,1,0-.92c.75,0,5,.35,6.74.35,1.56,0,5.24-.29,6-.29a.47.47,0,1,1,0,.92,5.68,5.68,0,0,0-3.86,1.21,95.89,95.89,0,0,0-6.57,9c-.58.81-4.55,6.51-6.57,9.56l.06.11c4.38,6,9.33,12.9,15.09,20.28.69.86,2,1.21,4.55,1.21A.47.47,0,1,1,773.79,328.57Z" fill="#020202"/><path d="M832.65,328.57c-.75,0-7-.29-8.47-.29s-7.09.29-7.83.29c-.58,0-.52-.92,0-.92.69,0,3.28,0,4.21-1.21.69-.92,1.44-3.11,1.56-9v-5.82a206.36,206.36,0,0,1-15-24.14c-.63-1.09-3.51-1.21-4.55-1.21a.47.47,0,1,1,0-.92c.75,0,6.39.29,7.95.29,1.79,0,7.2-.29,7.95-.29a.46.46,0,1,1,0,.92c-.69,0-4.84-.11-4.78,1,.06,1.67,3.92,9.56,12,21.31,2.76-4.38,5.18-8.7,7-12.21,2.42-4.67,3.8-8.12,3.57-8.93-.35-1.09-2.42-1.21-3.11-1.21a.46.46,0,1,1,0-.92c.75,0,4.32.29,6.11.29,1.56,0,4.38-.29,5.13-.29a.47.47,0,1,1,0,.92,5.6,5.6,0,0,0-3.23,1.21c-1,1.09-6.91,11.58-14.34,23.27v6.68c.17,5.88.52,7.89,1.21,9s3.92,1.21,4.61,1.21C833.17,327.65,833.23,328.57,832.65,328.57Z" fill="#020202"/><path d="M907.58,328.57H874.34c-.69,0-1.15-.69-.58-1.5l27.59-39.92H886.26c-3.17,0-5.82.17-7.72,1.44a6.21,6.21,0,0,0-2.71,5.24,12.47,12.47,0,0,0,.17,2.48c.06.29-1,.35-1.09-.17-.35-1.44-.23-9.79.63-10.66.11-.17.75-.12,30.88-.12,1,0,1.15.92.63,1.61l-27.3,39.86c5.24-.06,14.57-.23,17.11-.35,3.74-.17,6.57-.46,8.7-1.73a7.44,7.44,0,0,0,3.74-5.24,13.41,13.41,0,0,0,.29-2.71c.06-.35,1-.17,1.09.35C910.69,318.89,909.59,328.57,907.58,328.57Z" fill="#020202"/><path d="M988.27,328.57c-.75,0-5.13-.17-6.91-.17-1.61,0-7.83.17-8.53.17a.46.46,0,0,1,0-.92c.63,0,4.84-.29,4.9-1.33,0-.52-2.48-6.74-5.42-13.94-.17-.46-.35-.86-.52-1.32l-7.95-.17-7.09.17c-.75,1.9-1.32,3.57-1.9,5.07-2.36,6.28-3.69,9.33-3.63,10.2.06,1,3.51,1.33,4.15,1.33a.46.46,0,0,1,0,.92c-.69,0-5.13-.17-6.74-.17-1.79,0-6.16.17-6.91.17s-.52-.92,0-.92c.69,0,3.69-.46,4.61-1.61.63-.81,1.79-2.48,4.49-8.58,2.59-5.82,6.8-15.55,13.77-32,.17-.35.4-.58.69-.58s.52.23.69.58c3.17,7.37,6.45,15.32,9.68,22.87s6.34,15.09,8,17.69c.75,1.21,3.92,1.61,4.61,1.61C988.79,327.65,988.9,328.57,988.27,328.57Zm-33.35-48.68c-.58-1.67.29-4,2-4.44s4,.23,4.44,2c.58,2-.23,3.92-2.07,4.44A3.48,3.48,0,0,1,954.92,279.89Zm15.9,28.92c-2.53-6.22-5.18-12.56-6.8-16.42-2.88,7.09-4.9,12.27-6.45,16.42l6.22.12Zm-2-29c-.58-1.67.29-4,2-4.44s4,.23,4.44,2a3.38,3.38,0,0,1-2.13,4.44A3.42,3.42,0,0,1,968.86,279.83Z" fill="#020202"/><path d="M1066.25,328.57c-.75,0-5.13-.17-6.91-.17-1.61,0-7.83.17-8.53.17a.46.46,0,0,1,0-.92c.63,0,4.84-.29,4.9-1.33,0-.52-2.48-6.74-5.42-13.94-.17-.46-.35-.86-.52-1.32l-7.95-.17-7.09.17c-.75,1.9-1.32,3.57-1.9,5.07-2.36,6.28-3.69,9.33-3.63,10.2.06,1,3.51,1.33,4.15,1.33a.46.46,0,0,1,0,.92c-.69,0-5.13-.17-6.74-.17-1.79,0-6.16.17-6.91.17s-.52-.92,0-.92c.69,0,3.69-.46,4.61-1.61.63-.81,1.79-2.48,4.49-8.58,2.59-5.82,6.8-15.55,13.77-32,.17-.35.4-.58.69-.58s.52.23.69.58c3.17,7.37,6.45,15.32,9.68,22.87s6.34,15.09,8,17.69c.75,1.21,3.92,1.61,4.61,1.61C1066.77,327.65,1066.88,328.57,1066.25,328.57Zm-17.45-19.76c-2.53-6.22-5.18-12.56-6.8-16.42-2.88,7.09-4.9,12.27-6.45,16.42l6.22.12Zm-6.22-36.23a1.4,1.4,0,0,1,2.3,0,117,117,0,0,0,6.11,10.71c.29.46-.46.75-.81.46a57.81,57.81,0,0,1-6.45-6.22c-1.73,2.13-5.07,4.9-6.45,6.28-.29.29-1-.06-.81-.46C1039.12,279.2,1042.17,273.5,1042.57,272.57Z" fill="#020202"/><path d="M1144.23,328.57c-.75,0-5.13-.17-6.91-.17-1.61,0-7.83.17-8.53.17a.46.46,0,0,1,0-.92c.63,0,4.84-.29,4.9-1.33,0-.52-2.48-6.74-5.42-13.94-.17-.46-.35-.86-.52-1.32l-7.95-.17-7.09.17c-.75,1.9-1.33,3.57-1.9,5.07-2.36,6.28-3.69,9.33-3.63,10.2.06,1,3.51,1.33,4.15,1.33a.46.46,0,0,1,0,.92c-.69,0-5.13-.17-6.74-.17-1.79,0-6.16.17-6.91.17s-.52-.92,0-.92c.69,0,3.69-.46,4.61-1.61.63-.81,1.79-2.48,4.49-8.58,2.59-5.82,6.8-15.55,13.77-32,.17-.35.4-.58.69-.58s.52.23.69.58c3.17,7.37,6.45,15.32,9.68,22.87s6.34,15.09,8,17.69c.75,1.21,3.92,1.61,4.61,1.61C1144.75,327.65,1144.86,328.57,1144.23,328.57Zm-17.45-19.76c-2.53-6.22-5.18-12.56-6.8-16.42-2.88,7.09-4.9,12.27-6.45,16.42l6.22.12Zm-9.27-26.27c2.42-2.88,5-8.53,5.65-9.68.35-.63,4.9,1.38,4.49,2a61.23,61.23,0,0,1-9.39,8.24C1117.79,283.35,1117.16,282.94,1117.5,282.54Z" fill="#020202"/><path d="M1198.65,341.87a9,9,0,0,1-3.23-.63c-.52-.23-.06-.69.23-.58,1.84.58,5.53-.11,5.18-2.71-.29-2-3.34-2.94-3.34-5.36,0-1.61.86-2.53,2.19-3.57h-.29c-12.62,0-21.89-7.6-21.89-21.66,0-10.31,7.78-22.47,21.6-22.47,7.09,0,14.23,2.25,15.5,3.46.86.81-.35,9.85-1.21,11-.23.29-1.15.23-1,0a10.16,10.16,0,0,0,.75-2.36c.52-5.24-5.93-9.91-14.69-9.91-9.51-.06-16.3,9.22-16,18.72.29,10.37,7.83,21.08,18.43,21,8.47,0,13.54-6.34,13.83-10.83,0-.4,1-.58,1,0,0,1.67-.75,8.87-1.09,9a33.2,33.2,0,0,1-13.54,3.92,2.8,2.8,0,0,0-.46,3.17c.69,1.84,3.8,2.76,3.8,5.65C1204.41,340.84,1201.3,341.82,1198.65,341.87Z" fill="#020202"/><path d="M1278.19,328.86c-1.9,0-7.78-.46-11.06-.46-1.61,0-8.64.17-9.45.17-.58,0-.4-.92.11-.92,2,0,3.23-.11,4.15-1.15,1.15-1.32,1.73-6.28,1.61-9v-11H1253c-.17,0-.06-.75.11-1.5s.4-1.5.63-1.5h9.85v-7c.11-2.76-.46-7.72-1.61-9-.92-1-2.13-1.15-4.15-1.15-.52,0-.69-.92-.11-.92h18.78c13.19,0,22.7,7.26,22.7,21.43C1299.16,318.72,1290.75,328.86,1278.19,328.86Zm-.23-2c11.87,0,16.76-9.22,16.42-18.49-.4-10.43-6.86-21.08-18.84-21.08l-7.32-.17v16.3h13.42c.12,0-.06.75-.17,1.44s-.35,1.56-.52,1.56h-12.73V323.9C1268.22,326.49,1275.88,326.9,1278,326.9Z" fill="#020202"/><path d="M1340,296.48c0-2.76-.46-7.72-1.61-9-.92-1-2.13-1.15-4.15-1.15-.52,0-.69-.92-.12-.92h26c.58,0,.17,7.14.17,7.78,0,.35-.69.4-.69,0,0-2.65-1-5.93-8.64-5.93l-6.34-.12v17.57h9c2.76-.17,3.51-1,3.51-2.94,0-.29.69-.29.69,0v8.58c0,.29-.69.29-.69,0,0-1.9-.75-3.4-3.51-3.51l-9-.46v17.51c0,2.65,3.34,3.05,7.78,3.05a11.39,11.39,0,0,0,10.54-6.62c.23-.52,1-.35.81.12-.4,1-1.79,8.18-3.69,8.18h-26c-.58,0-.4-.92.12-.92,2,0,3.23-.11,4.15-1.15,1.15-1.32,1.73-6.28,1.61-9Zm3.51-14.17c2.42-2.88,5-8.52,5.65-9.68.35-.63,4.9,1.38,4.49,2a61.24,61.24,0,0,1-9.39,8.24C1343.78,283.12,1343.15,282.71,1343.5,282.31Z" fill="#020202"/><path d="M1404.37,296.48c0-2.76-.46-7.72-1.61-9-.92-1-2.13-1.15-4.15-1.15-.52,0-.69-.92-.12-.92h26c.58,0,.17,7.14.17,7.78,0,.35-.69.4-.69,0,0-2.65-1-5.93-8.64-5.93l-6.34-.12v17.57h9c2.76-.17,3.51-1,3.51-2.94,0-.29.69-.29.69,0v8.58c0,.29-.69.29-.69,0,0-1.9-.75-3.4-3.51-3.51l-9-.46v17.51c0,2.65,3.34,3.05,7.78,3.05a11.39,11.39,0,0,0,10.54-6.62c.23-.52,1-.35.81.12-.4,1-1.79,8.18-3.69,8.18h-26c-.58,0-.4-.92.12-.92,2,0,3.23-.11,4.15-1.15,1.15-1.32,1.73-6.28,1.61-9Zm7.55-24.89a1.4,1.4,0,0,1,2.3,0,116.71,116.71,0,0,0,6.11,10.71c.29.46-.46.75-.81.46a57.8,57.8,0,0,1-6.45-6.22c-1.73,2.13-5.07,4.9-6.45,6.28-.29.29-1,0-.81-.4C1408.46,278.28,1411.51,272.52,1411.92,271.6Z" fill="#020202"/><path d="M1468.76,296.48c0-2.76-.46-7.72-1.61-9-.92-1-2.13-1.15-4.15-1.15-.52,0-.69-.92-.12-.92h26c.58,0,.17,7.14.17,7.78,0,.35-.69.4-.69,0,0-2.65-1-5.93-8.64-5.93l-6.34-.12v17.57h9c2.76-.17,3.51-1,3.51-2.94,0-.29.69-.29.69,0v8.58c0,.29-.69.29-.69,0,0-1.9-.75-3.4-3.51-3.51l-9-.46v17.51c0,2.65,3.34,3.05,7.78,3.05a11.39,11.39,0,0,0,10.54-6.62c.23-.52,1-.35.81.12-.4,1-1.79,8.18-3.69,8.18h-26c-.58,0-.4-.92.12-.92,2,0,3.23-.11,4.15-1.15,1.15-1.32,1.73-6.28,1.61-9Zm-1.27-16.53c-.58-1.67.29-4,2-4.44s4.09.23,4.44,2c.58,2-.23,3.92-2.07,4.44A3.48,3.48,0,0,1,1467.49,279.95Zm13.94-.06c-.58-1.67.29-4,2-4.44s4,.23,4.44,2a3.38,3.38,0,0,1-2.13,4.44A3.42,3.42,0,0,1,1481.43,279.89Z" fill="#020202"/><path d="M1533.14,296.48c0-2.76-.46-7.72-1.61-9-.92-1-2.13-1.15-4.15-1.15-.52,0-.69-.92-.12-.92h26c.58,0,.17,7.14.17,7.78,0,.35-.69.4-.69,0,0-2.65-1-5.93-8.64-5.93l-6.34-.12v17.57h9c2.76-.17,3.51-1,3.51-2.94,0-.29.69-.29.69,0v8.58c0,.29-.69.29-.69,0,0-1.9-.75-3.4-3.51-3.51l-9-.46v17.51c0,2.65,3.34,3.05,7.78,3.05a11.39,11.39,0,0,0,10.54-6.62c.23-.52,1-.35.81.12-.4,1-1.79,8.18-3.69,8.18h-26c-.58,0-.4-.92.12-.92,2,0,3.23-.11,4.15-1.15,1.15-1.32,1.73-6.28,1.61-9Zm12.56-14c.35.4-.29.81-.75.52a61.16,61.16,0,0,1-9.39-8.24c-.4-.58,4.15-2.59,4.49-2C1540.69,274,1543.28,279.6,1545.7,282.48Z" fill="#020202"/><path d="M372.25,403.85c.17,5.88.52,7.89,1.21,9s3.92,1.21,4.61,1.21c.52,0,.58.92,0,.92-.75,0-7-.29-8.47-.29s-7.09.29-7.83.29c-.58,0-.52-.92,0-.92.69,0,3.28,0,4.21-1.21.69-.92,1.44-3.11,1.56-9v-21c-.12-5.88-.86-8.06-1.56-9-.92-1.21-3.51-1.21-4.21-1.21-.52,0-.58-.92,0-.92.75,0,6.28.29,7.83.29s7.55-.29,8.3-.29c.58,0,.52.92,0,.92-.69,0-3.57,0-4.49,1.21-.75,1-1,3.11-1.15,9Zm-7-35.25c2.42-2.88,5-8.53,5.65-9.68.35-.63,4.9,1.38,4.49,2a61.12,61.12,0,0,1-9.39,8.24C365.57,369.4,364.93,369,365.28,368.6Z" fill="#020202"/><path d="M428.85,403.85c.17,5.88.52,7.89,1.21,9S434,414,434.67,414c.52,0,.58.92,0,.92-.75,0-7-.29-8.47-.29s-7.09.29-7.83.29c-.58,0-.52-.92,0-.92.69,0,3.28,0,4.21-1.21.69-.92,1.44-3.11,1.56-9v-21c-.12-5.88-.86-8.06-1.56-9-.92-1.21-3.51-1.21-4.21-1.21-.52,0-.58-.92,0-.92.75,0,6.28.29,7.83.29s7.55-.29,8.3-.29c.58,0,.52.92,0,.92-.69,0-3.57,0-4.49,1.21-.75,1-1,3.11-1.15,9Zm-3.51-45.74a1.4,1.4,0,0,1,2.3,0,116.57,116.57,0,0,0,6.11,10.71c.29.46-.46.75-.81.46a57.81,57.81,0,0,1-6.45-6.22c-1.73,2.13-5.07,5.24-6.45,6.63-.29.29-1-.4-.81-.81C421.88,364.74,424.94,359,425.34,358.11Z" fill="#020202"/><path d="M475,366.35c-.58-1.67.29-4,2-4.44s4.09.23,4.44,2c.58,2-.23,3.92-2.07,4.44A3.48,3.48,0,0,1,475,366.35Zm11.52,37.5c.17,5.88.52,7.89,1.21,9s3.92,1.21,4.61,1.21c.52,0,.58.92,0,.92-.75,0-7-.29-8.47-.29s-7.09.29-7.83.29c-.58,0-.52-.92,0-.92.69,0,3.28,0,4.2-1.21.69-.92,1.44-3.11,1.56-9v-21c-.11-5.88-.86-8.06-1.56-9-.92-1.21-3.51-1.21-4.2-1.21-.52,0-.58-.92,0-.92.75,0,6.28.29,7.83.29s7.55-.29,8.29-.29c.58,0,.52.92,0,.92-.69,0-3.57,0-4.49,1.21-.75,1-1,3.11-1.15,9Zm.06-37.56c-.58-1.67.29-4,2-4.44s4,.23,4.44,2a3.38,3.38,0,0,1-2.13,4.44A3.42,3.42,0,0,1,486.61,366.29Z" fill="#020202"/><path d="M536.76,373.89c-.92-1.21-3.51-1.21-4.2-1.21-.52,0-.58-.92,0-.92.75,0,6.28.29,7.83.29s7.55-.29,8.29-.29c.58,0,.52.92,0,.92-.69,0-3.57,0-4.49,1.21-.75,1-1,3.11-1.15,9v21c.17,5.88.52,7.89,1.21,9s3.92,1.21,4.61,1.21c.52,0,.58.92,0,.92-.75,0-7-.29-8.47-.29s-7.09.29-7.83.29c-.58,0-.52-.92,0-.92.69,0,3.28,0,4.2-1.21.69-.92,1.44-3.11,1.56-9v-21C538.2,377,537.45,374.82,536.76,373.89Zm7.26-4.72a61.2,61.2,0,0,1-9.39-8.24c-.4-.58,4.15-2.59,4.49-2,.63,1.15,3.23,6.8,5.65,9.68C545.11,369.06,544.48,369.46,544,369.17Z" fill="#020202"/><path d="M627.69,414.91c-1.67-1.61-23.21-24.83-31.91-34.33v23.33c0,2.25.12,7.2,1.27,8.87.86,1.27,3.57,1.27,4.26,1.27.52,0,.58.92,0,.92-.81,0-5.36-.23-7-.23s-6.11.23-6.91.23c-.58,0-.52-.92,0-.92.69,0,3.23,0,4.09-1.27,1.15-1.67,1.27-6.62,1.27-8.87V372.22c0-1.27,1-.81,1.38-.35l32.09,34.45V382.88c0-2.25-.06-7.2-1.21-8.87-.86-1.27-3.34-1.32-4-1.32-.52,0-.58-.92,0-.92.81,0,5.24.29,6.85.29s5.88-.29,6.68-.29c.58,0,.52.92,0,.92-.69,0-3.17.06-4,1.32-1.15,1.67-1.27,6.62-1.27,8.87v32C629.25,415.49,628,415.2,627.69,414.91Zm-16.53-48.1c-1.79-1-3.28-2.07-5-2.07a6.24,6.24,0,0,0-5.59,3.11c-.29.52-1.09.35-1,0,.46-2.25,2.53-6.68,6.74-6.68a9.19,9.19,0,0,1,5.3,1.56c1.9,1,3.28,2.07,4.9,2.07a6.29,6.29,0,0,0,5.59-3.17c.29-.46,1.09-.35,1,0-.52,2.19-2.53,6.8-6.74,6.8A9.63,9.63,0,0,1,611.16,366.81Z" fill="#020202"/><path d="M675.88,393.77c0-9.85,8-22.47,21.78-22.47,12.39,0,21.83,8.58,21.83,21.77,0,11.52-8.35,22.35-21.83,22.35C685,415.43,675.88,407.31,675.88,393.77ZM714.6,395c-.4-12.21-9.27-21.6-18.38-21.49-9.74.12-15.73,9.45-15.32,18.38.58,12.15,8.7,21.43,18.32,21.43C707.8,413.3,714.94,405.52,714.6,395Zm-26.79-28.74c-.58-1.67.29-4,2-4.44s4,.23,4.44,2c.58,2-.23,3.92-2.07,4.44A3.49,3.49,0,0,1,687.81,366.23Zm13.94-.06c-.58-1.67.29-4,2-4.44s4,.23,4.44,2a3.38,3.38,0,0,1-2.13,4.44A3.42,3.42,0,0,1,701.75,366.18Z" fill="#020202"/><path d="M763.65,393.77c0-9.85,8-22.47,21.77-22.47,12.39,0,21.83,8.58,21.83,21.77,0,11.52-8.35,22.35-21.83,22.35C772.81,415.43,763.65,407.31,763.65,393.77ZM802.36,395c-.4-12.21-9.27-21.6-18.38-21.49-9.74.12-15.73,9.45-15.32,18.38.58,12.15,8.7,21.43,18.32,21.43C795.56,413.3,802.71,405.52,802.36,395ZM784.5,366.81c-1.79-1-3.28-2.07-5-2.07a6.24,6.24,0,0,0-5.59,3.11c-.29.52-1.09.35-1,0,.46-2.25,2.53-6.68,6.74-6.68a9.19,9.19,0,0,1,5.3,1.56c1.9,1,3.28,2.07,4.9,2.07a6.29,6.29,0,0,0,5.59-3.17c.29-.46,1.09-.35,1,0-.52,2.19-2.53,6.8-6.74,6.8A9.63,9.63,0,0,1,784.5,366.81Z" fill="#020202"/><path d="M851.41,393.77c0-9.85,8-22.47,21.77-22.47,12.39,0,21.83,8.58,21.83,21.77,0,11.52-8.35,22.35-21.83,22.35C860.57,415.43,851.41,407.31,851.41,393.77ZM890.12,395c-.4-12.21-9.27-21.6-18.38-21.49-9.74.12-15.73,9.45-15.32,18.38.58,12.15,8.7,21.43,18.32,21.43C883.33,413.3,890.47,405.52,890.12,395Zm-21.37-26.27c2.42-2.88,5-8.52,5.65-9.68.35-.63,4.9,1.38,4.49,2a61.28,61.28,0,0,1-9.39,8.24C869,369.52,868.41,369.11,868.75,368.71Z" fill="#020202"/><path d="M939.18,393.77c0-9.85,8-22.47,21.77-22.47,12.39,0,21.83,8.58,21.83,21.77,0,11.52-8.35,22.35-21.83,22.35C948.34,415.43,939.18,407.31,939.18,393.77ZM977.89,395c-.4-12.21-9.27-21.6-18.38-21.49-9.74.12-15.73,9.45-15.32,18.38.58,12.15,8.7,21.43,18.32,21.43C971.09,413.3,978.23,405.52,977.89,395Zm-18.49-37a1.4,1.4,0,0,1,2.3,0,116.69,116.69,0,0,0,6.11,10.71c.29.46-.46.75-.81.46a57.8,57.8,0,0,1-6.45-6.22c-1.73,2.13-5.07,4.9-6.45,6.28-.29.29-1-.06-.81-.46C955.94,364.56,959,358.86,959.4,357.94Z" fill="#020202"/><path d="M1026.94,393.77c0-9.85,8-22.47,21.78-22.47,12.39,0,21.83,8.58,21.83,21.77,0,11.52-8.35,22.35-21.83,22.35C1036.1,415.43,1026.94,407.31,1026.94,393.77Zm38.71,1.21c-.4-12.21-9.27-21.6-18.38-21.49-9.74.12-15.73,9.45-15.32,18.38.58,12.15,8.7,21.43,18.32,21.43C1058.86,413.3,1066,405.52,1065.65,395Zm-12.39-26.21c.35.4-.29.81-.75.52a61.23,61.23,0,0,1-9.39-8.24c-.4-.58,4.15-2.59,4.49-2C1048.26,360.24,1050.85,365.89,1053.27,368.77Z" fill="#020202"/><path d="M1123.58,397.57c0,9.62,6.86,15.67,15.09,15.67,8.76,0,12.67-5.65,12.67-15.44V382.88c-.11-5.88-.52-7.78-1.21-9s-2.36-1.21-3.05-1.21c-.46,0-.52-.92,0-.92.75,0,4.55.29,6.11.29,1.79,0,5-.29,5.7-.29.52,0,.46.92,0,.92a3.44,3.44,0,0,0-2.88,1.21c-.75,1.09-1.09,3.11-1.27,9v14.69c0,11.75-6.57,17.86-16.71,17.86-12,0-19.18-6.16-19.18-17.86V382.88c-.11-5.88-.86-8.06-1.56-9-.92-1.21-3.51-1.21-4.2-1.21-.52,0-.58-.92,0-.92.75,0,6.28.29,7.83.29s7.55-.29,8.29-.29c.58,0,.52.92,0,.92-.69,0-3.57,0-4.49,1.21-.75,1-1,3.11-1.15,9Zm3.51-31.34c-.58-1.67.29-4,2-4.44s4.09.23,4.44,2c.58,2-.23,3.92-2.07,4.44A3.49,3.49,0,0,1,1127.09,366.23Zm13.94-.06c-.58-1.67.29-4,2-4.44s4,.23,4.44,2a3.38,3.38,0,0,1-2.13,4.44A3.42,3.42,0,0,1,1141,366.18Z" fill="#020202"/><path d="M1208.46,397.57c0,9.62,6.86,15.67,15.09,15.67,8.76,0,12.67-5.65,12.67-15.44V382.88c-.11-5.88-.52-7.78-1.21-9s-2.36-1.21-3.05-1.21c-.46,0-.52-.92,0-.92.75,0,4.55.29,6.11.29,1.79,0,5-.29,5.7-.29.52,0,.46.92,0,.92a3.44,3.44,0,0,0-2.88,1.21c-.75,1.09-1.09,3.11-1.27,9v14.69c0,11.75-6.57,17.86-16.71,17.86-12,0-19.18-6.16-19.18-17.86V382.88c-.11-5.88-.86-8.06-1.56-9-.92-1.21-3.51-1.21-4.2-1.21-.52,0-.58-.92,0-.92.75,0,6.28.29,7.83.29s7.55-.29,8.29-.29c.58,0,.52.92,0,.92-.69,0-3.57,0-4.49,1.21-.75,1-1,3.11-1.15,9Zm10.14-28.86c2.42-2.88,5-8.52,5.65-9.68.35-.63,4.9,1.38,4.49,2a61.24,61.24,0,0,1-9.39,8.24C1218.89,369.52,1218.26,369.11,1218.6,368.71Z" fill="#020202"/><path d="M1293.35,397.57c0,9.62,6.86,15.67,15.09,15.67,8.76,0,12.67-5.65,12.67-15.44V382.88c-.11-5.88-.52-7.78-1.21-9s-2.36-1.21-3.05-1.21c-.46,0-.52-.92,0-.92.75,0,4.55.29,6.11.29,1.79,0,5-.29,5.7-.29.52,0,.46.92,0,.92a3.44,3.44,0,0,0-2.88,1.21c-.75,1.09-1.09,3.11-1.27,9v14.69c0,11.75-6.57,17.86-16.71,17.86-12,0-19.18-6.16-19.18-17.86V382.88c-.11-5.88-.86-8.06-1.56-9-.92-1.21-3.51-1.21-4.2-1.21-.52,0-.58-.92,0-.92.75,0,6.28.29,7.83.29s7.55-.29,8.29-.29c.58,0,.52.92,0,.92-.69,0-3.57,0-4.49,1.21-.75,1-1,3.11-1.15,9ZM1307.23,358a1.4,1.4,0,0,1,2.3,0,116.59,116.59,0,0,0,6.11,10.71c.29.46-.46.75-.81.46a57.8,57.8,0,0,1-6.45-6.22c-1.73,2.13-5.07,4.9-6.45,6.28-.29.29-1-.06-.81-.46C1303.77,364.62,1306.83,358.92,1307.23,358Z" fill="#020202"/><path d="M1396.55,415c-.75,0-7-.29-8.47-.29s-7.09.29-7.83.29c-.58,0-.52-.92,0-.92.69,0,3.28,0,4.21-1.21.69-.92,1.44-3.11,1.56-9V398a206.36,206.36,0,0,1-15-24.14c-.63-1.09-3.51-1.21-4.55-1.21a.47.47,0,1,1,0-.92c.75,0,6.39.29,7.95.29,1.79,0,7.2-.29,8-.29a.46.46,0,1,1,0,.92c-.69,0-4.84-.11-4.78,1,.06,1.67,3.92,9.56,12,21.31,2.42-3.74,4.55-7.49,6.28-10.71,2.88-5.47,4.61-9.56,4.32-10.43-.35-1.09-2.42-1.21-3.11-1.21a.46.46,0,1,1,0-.92c.75,0,4.32.29,6.11.29,1.56,0,4.38-.29,5.13-.29a.47.47,0,1,1,0,.92,5.6,5.6,0,0,0-3.23,1.21c-1,1.09-6.91,11.58-14.34,23.27v6.68c.17,5.88.52,7.89,1.21,9s3.92,1.21,4.61,1.21C1397.07,414,1397.13,415,1396.55,415Zm-10.43-46.26c2.42-2.88,5-8.52,5.65-9.68.35-.63,4.9,1.38,4.49,2a61.23,61.23,0,0,1-9.39,8.24C1386.41,369.52,1385.78,369.11,1386.13,368.71Z" fill="#020202"/><path d="M1475.5,415c-.75,0-7-.29-8.47-.29s-7.09.29-7.83.29c-.58,0-.52-.92,0-.92.69,0,3.28,0,4.21-1.21.69-.92,1.44-3.11,1.56-9V398a206.36,206.36,0,0,1-15-24.14c-.63-1.09-3.51-1.21-4.55-1.21a.47.47,0,1,1,0-.92c.75,0,6.39.29,7.95.29,1.79,0,7.2-.29,8-.29a.46.46,0,1,1,0,.92c-.69,0-4.84-.11-4.78,1,.06,1.67,3.92,9.56,12,21.31,2.76-4.38,5.18-8.7,7-12.21,2.42-4.67,3.8-8.12,3.57-8.93-.35-1.09-2.42-1.21-3.11-1.21a.46.46,0,1,1,0-.92c.75,0,4.32.29,6.11.29,1.56,0,4.38-.29,5.13-.29a.47.47,0,1,1,0,.92,5.6,5.6,0,0,0-3.23,1.21c-1,1.09-6.91,11.58-14.34,23.27v6.68c.17,5.88.52,7.89,1.21,9s3.92,1.21,4.61,1.21C1476,414,1476.08,415,1475.5,415ZM1457,366.23c-.58-1.67.29-4,2-4.44s4.09.23,4.44,2c.58,2-.23,3.92-2.07,4.44A3.49,3.49,0,0,1,1457,366.23Zm13.94-.06c-.58-1.67.29-4,2-4.44s4,.23,4.44,2a3.38,3.38,0,0,1-2.13,4.44A3.42,3.42,0,0,1,1471,366.18Z" fill="#020202"/><path d="M1555.9,415h-33.24c-.69,0-1.15-.69-.58-1.5l27.59-39.92h-15.09c-3.17,0-5.82.17-7.72,1.44a6.21,6.21,0,0,0-2.71,5.24,12.47,12.47,0,0,0,.17,2.48c.06.29-1,.35-1.09-.17-.35-1.44-.23-9.79.63-10.66.11-.17.75-.12,30.88-.12,1,0,1.15.92.63,1.61l-27.31,39.86c5.24-.06,14.57-.23,17.11-.35,3.74-.17,6.57-.46,8.7-1.73a7.44,7.44,0,0,0,3.74-5.24,13.41,13.41,0,0,0,.29-2.71c.06-.35,1-.17,1.09.35C1559,405.29,1557.91,415,1555.9,415Z" fill="#020202"/><path d="M377.32,495.61c-1.67,2.36-4.72,5.24-8.18,5.24-4.21,0-7.37-2.59-7.2-6.74.29-6,9.22-7.43,15.21-8.47V484c0-4.32-2-7.95-5.7-7.95a4.71,4.71,0,0,0-5,5.36c0,.17-1.15.06-1.73-.11-1.61-.52-1.84-.92-1.84-1.79,0-1.79,2.88-5.13,8.35-5.13,7,0,10.14,4,10.14,9.27v5.82c0,2.25.17,7.09,1.09,8.87.58,1.09,2.3,1.44,2.94,1.44s.46.75,0,.81a22.35,22.35,0,0,1-2.88.17c-2,0-2.71-.11-3.4-.63C378.07,499.3,377.55,497.69,377.32,495.61Zm-6.39,3.05c2.42,0,5.36-2.48,6.28-5.07a14.5,14.5,0,0,1-.06-1.61v-4.55c-4.9.75-10.48,1.84-10.77,6C366.2,496,367.47,498.67,370.92,498.67Z" fill="#020202"/><path d="M419.71,467.91c0-2.25.11-7.14-1-8.47-.92-1.15-2.25-.75-3.28-.58-.4.06-.63-.69,0-.86s6.11-1.44,7.72-1.79c.69-.17,1-.06,1,.69l-.17,11V478c1.21-1.73,4.55-3.63,7.89-3.63,6.68,0,10.83,4.61,10.83,12.33,0,7.49-3.92,14.17-12.85,14.17a31.19,31.19,0,0,1-10.48-2,93.53,93.53,0,0,0,.35-10ZM424,496.36c0,1.44,3.34,2.59,7,2.59,5.36,0,7.14-5.13,7.14-11.12-.46-6.11-3.28-11.23-8.06-11.23a7,7,0,0,0-6,3.23Z" fill="#020202"/><path d="M481.11,487.26c.46,6.51,4.61,11.35,10,11.35a10.13,10.13,0,0,0,6.45-2.19c.69-.58.92,0,.63.35a11.57,11.57,0,0,1-8.93,4.09c-8.24,0-12.79-5.3-12.79-12.85,0-7.72,6.86-13.65,14.06-13.65,5.47,0,7.66,2.59,7.66,4.38,0,.86-.52,1.79-2.19,2.3-.58.17-1.73.46-1.73.29,0-1.84-1.32-5.36-4.78-5.36C484.1,476,480.71,481.79,481.11,487.26Z" fill="#020202"/><path d="M550.11,496.42c-1.33,1.61-4,4.44-7.83,4.44-6.8,0-11-5-11-12.67,0-7.55,5-13.82,12.1-13.82a18.46,18.46,0,0,1,6.57,1.32v-7.78c0-2.25.23-7.14-.86-8.47-.92-1.15-2.25-.75-3.28-.58-.4.06-.63-.69,0-.86s6.11-1.44,7.72-1.79c.69-.17,1-.06,1,.69l-.29,11v21.54c0,2.25.17,7.09,1.09,8.87.58,1.09,2.3,1.44,2.94,1.44s.46.75,0,.81-1.73.11-3.05.11-3.11,0-3.86-.75A6,6,0,0,1,550.11,496.42Zm-5.93,2.25c2.59,0,4.78-2.3,5.76-4.78V478.16a12.7,12.7,0,0,0-6.74-1.9c-4.72,0-7.49,4-7.49,9.39C535.71,490.26,538.19,498.67,544.18,498.67Z" fill="#020202"/><path d="M603.39,500.86c-6.57,0-12.39-4.15-12.39-12.44s5.41-14.06,11.92-14.06c5.93,0,10.08,3.74,10.08,8.06,0,1.67-.63,2.07-2,2.36l-15.32,3.28c.75,5.36,4.26,10.54,10,10.54a10.26,10.26,0,0,0,6.45-2.25c.46-.4.92-.17.58.4C611.92,498,608.58,500.86,603.39,500.86Zm-7.89-14.57,13-2.76c-.23-4.15-2.19-7.37-6.51-7.37C597.17,476.14,595.27,480.81,595.5,486.28Z" fill="#020202"/><path d="M659.26,500.57c-.63,0-4.9-.46-6.51-.46-1.38,0-5.7.46-6.39.46-.46,0-.35-.81.17-.81a4.06,4.06,0,0,0,2.94-1.32c.92-1.27,1.21-6.74,1.21-9V476.14c-1.67.11-3.69.23-4.84.23-.46,0,.17-1.73.75-1.73h4.09v-6c0-8.06,3.05-11.75,8.3-11.75,3.51,0,6.22,2.3,6.22,4.38,0,.86-.23,1.79-1.9,2.3-.58.17-1.61.46-1.61.29,0-2.76-.69-5.47-3.23-5.47-3.69,0-3.51,4.21-3.51,9.79v6.45h6.28c.46,0-.06,1.44-.58,1.44-1.61-.06-3.86,0-5.7,0v13.36c0,2.25-.06,7.55,1,9.1.69,1,2.59,1.21,3.23,1.21C659.61,499.76,659.72,500.57,659.26,500.57Z" fill="#020202"/><path d="M703.38,513.76c-6.22,0-11.87-1.84-11.87-6.51,0-2.76,3.51-4.55,9.22-7-4.9-.81-6.45-2.94-6.45-4.61,0-2.07,2.07-3.46,4.44-4.32a8.15,8.15,0,0,1-5.24-7.66c0-5.36,5.36-9.27,10.54-9.27h.17a8.08,8.08,0,0,1,1.15.06c3.63.17,7.83.23,9.62-.52,1.55-.52,1.84-1.27,2.25-1.27.23,0,.4.29.35.63-.17,1-.52,2.88-1,2.88l-6.11-.29a7.86,7.86,0,0,1,4.26,7c0,5.41-4.84,9.5-10.66,9.5a12.43,12.43,0,0,1-4-.63c-1.79.81-2.76,1.73-2.53,2.82.46,1.9,6.45,2,9.45,2.13,5.47.29,11,2.13,11,6.8C718,507.94,711.1,513.76,703.38,513.76Zm.92-1.5c5,0,9.68-3.51,9.62-7.83-.06-2.94-4.84-3.51-10.43-3.86-.46-.06-.92-.06-1.38-.11-2.82,1-6.51,3.17-6.51,6.28C695.61,510,700.5,512.26,704.3,512.26Zm6.22-28.34c-.35-4.38-3.05-8-7.49-8-3.17,0-5.76,2.88-5.41,7.09s3.8,8,7.78,8C709,491,710.81,487.2,710.52,483.92Z" fill="#020202"/><path d="M779.24,500.57c-.63,0-4.9-.46-6.51-.46-1.38,0-5.7.46-6.39.46-.46,0-.35-.81.17-.81a4.06,4.06,0,0,0,2.94-1.32c.92-1.27,1.21-6.74,1.21-9v-5.07c0-5.88-1.9-7.26-5.18-7.26-3.05,0-6.74,2.65-8,5.3v7c0,2.25-.06,7.55,1,9.1.69,1,2.59,1.21,3.23,1.21.46,0,.58.81.11.81-.63,0-4.9-.46-6.51-.46-1.38,0-5.7.46-6.39.46-.46,0-.35-.81.17-.81a4.06,4.06,0,0,0,2.94-1.32c.92-1.27,1.21-6.74,1.21-9V467.91c0-2.25.17-7.14-.92-8.47-.92-1.15-2.25-.75-3.28-.58-.4.06-.63-.69,0-.86s6.11-1.44,7.72-1.79c.69-.17,1-.06,1,.69l-.23,11V479.6a12.28,12.28,0,0,1,9.91-5.24c4.78,0,7.55,2.71,7.55,9.85v5.24c0,2.25-.06,7.55,1,9.1.69,1,2.59,1.21,3.23,1.21C779.59,499.76,779.7,500.57,779.24,500.57Z" fill="#020202"/><path d="M814.72,477.64c-.92-1.15-2.25-.75-3.28-.58-.4.06-.63-.69,0-.86s6.11-1.44,7.72-1.79c.69-.17,1-.06,1,.69l-.23,11v3.34c0,2.25-.06,7.55,1,9.1.69,1,2.59,1.21,3.23,1.21.46,0,.58.81.12.81-.63,0-4.9-.46-6.51-.46-1.38,0-5.7.46-6.39.46-.46,0-.35-.81.17-.81a4.06,4.06,0,0,0,2.94-1.32c.92-1.27,1.21-6.74,1.21-9v-3.34C815.64,483.86,815.81,479,814.72,477.64Zm-.29-12.79a3,3,0,0,1,1.73-3.92c1.5-.52,3.63.17,3.92,1.67a2.88,2.88,0,0,1-1.79,3.92A3,3,0,0,1,814.43,464.85Z" fill="#020202"/><path d="M859.24,477.64c-.92-1.15-2.25-.75-3.28-.58-.4.06-.63-.69,0-.86s6.11-1.44,7.72-1.79c.69-.17,1-.06,1,.69l-.23,11V501a14.27,14.27,0,0,1-12.21,13.82c-.35.06-.35-1,.11-1,5.7-1,7.83-7.32,7.83-12.79V486.11C860.16,483.86,860.34,479,859.24,477.64Zm-.46-12.79c-.58-1.44.23-3.57,1.79-3.92,1.5-.52,3.63.17,3.92,1.67.63,1.9-.11,3.57-1.79,4S859.24,466.46,858.78,464.85Z" fill="#020202"/><path d="M928.71,500.57H922.2c-.86,0-2.13-1.21-2.82-2.13-2.94-3.92-6.28-12.1-7.95-13.82h-2.59v4.84c0,2.25-.06,7.55,1,9.1.69,1,2.59,1.21,3.23,1.21.46,0,.58.81.12.81-.63,0-4.9-.46-6.51-.46-1.38,0-5.7.46-6.39.46-.46,0-.35-.81.17-.81a4.06,4.06,0,0,0,2.94-1.32c.92-1.27,1.21-6.74,1.21-9V467.91c0-2.25.17-7.14-.92-8.47-.92-1.15-2.25-.75-3.28-.58-.4.06-.63-.69,0-.86s6.11-1.44,7.72-1.79c.69-.17,1-.06,1,.69l-.23,11v15.38a22.84,22.84,0,0,0,3.11-.23c2.42-1.79,6.91-5.59,7.49-6.45.29-.46.11-.75-.29-1a6.91,6.91,0,0,0-2.65-.4c-.4,0-.35-.58,0-.58.69,0,4.55.17,5.93.17,1.61,0,4.44-.23,5.07-.23.35,0,.35.63,0,.63-2.19,0-3.86.92-6.85,3-1.27.86-3.63,3-6.16,5,3.11,3.69,9.28,13.82,10.2,14.69a6.43,6.43,0,0,0,4,1.73C929.11,499.65,929.17,500.57,928.71,500.57Z" fill="#020202"/><path d="M968.28,489.45c0,2.25-.06,7.55,1,9.1.69,1,2.59,1.21,3.23,1.21.46,0,.58.81.11.81-.63,0-4.9-.46-6.51-.46-1.38,0-5.7.46-6.39.46-.46,0-.35-.81.17-.81a4.06,4.06,0,0,0,2.94-1.32c.92-1.27,1.21-6.74,1.21-9V467.91c0-2.25.17-7.14-.92-8.47-.92-1.15-2.25-.75-3.28-.58-.4.06-.63-.69,0-.86s6.11-1.44,7.72-1.79c.69-.17,1-.06,1,.69l-.23,11Z" fill="#020202"/><path d="M1049.09,500.57c-.63,0-4.9-.46-6.51-.46-1.38,0-5.7.46-6.39.46-.46,0-.35-.81.17-.81a4.06,4.06,0,0,0,2.94-1.32c.92-1.27,1.21-6.74,1.21-9v-5.07c0-4.61-1.15-7.6-4.67-7.6-2.76,0-5.41,2.19-6.68,4.55.06.81.12,1.67.12,2.59v5.53c0,2.25-.06,7.55,1,9.1.69,1,2.65,1.21,3.28,1.21.46,0,.58.81.11.81-.63,0-4.9-.46-6.51-.46-1.38,0-5.7.46-6.39.46-.46,0-.35-.81.17-.81a4.06,4.06,0,0,0,2.94-1.32c.92-1.27,1.15-6.74,1.15-9v-4.84c0-6.22-2-7.89-5-7.89-2.76,0-5.47,2.76-6.74,5.24l-.06,3.74v3.74c0,2.25-.06,7.55,1,9.1.69,1,2.59,1.21,3.23,1.21.46,0,.58.81.12.81-.63,0-4.9-.46-6.51-.46-1.38,0-5.7.46-6.39.46-.46,0-.35-.81.17-.81a4.06,4.06,0,0,0,2.94-1.32c.92-1.27,1.21-6.74,1.21-9v-3.34c0-2.25.12-7-1-8.47-.86-1.15-2.71-.75-3.74-.58-.4.06-.63-.69,0-.86s6.68-1.44,8.3-1.79c.69-.17,1-.06,1,.69l-.11,4.21c1.44-2,4.61-5,8.7-5,3.05,0,5.59,1,6.62,4.84,1.56-2.19,4.78-4.84,8.76-4.84,4.72,0,7.32,2.82,7.32,9.33v5.76c0,2.25-.06,7.55,1,9.1.69,1,2.59,1.21,3.23,1.21C1049.44,499.76,1049.55,500.57,1049.09,500.57Z" fill="#020202"/><path d="M1111.12,500.57c-.63,0-5-.46-6.57-.46-1.38,0-5.76.46-6.45.46-.46,0-.35-.81.17-.81a4.06,4.06,0,0,0,2.94-1.32c.92-1.27,1.21-6.74,1.21-9v-5.24c0-5.59-1.61-7.09-4.9-7.09s-6.34,2.76-8,5.36l-.11,7c0,2.25-.06,7.55,1,9.1.69,1,2.59,1.21,3.23,1.21.46,0,.58.81.12.81-.63,0-4.9-.46-6.51-.46-1.38,0-5.7.46-6.39.46-.46,0-.35-.81.17-.81a4.06,4.06,0,0,0,2.94-1.32c.92-1.27,1.21-6.74,1.21-9v-3.34c0-2.25.12-7-1-8.47-.86-1.15-2.71-.75-3.74-.58-.4.06-.63-.69,0-.86l8.18-1.79c.75-.17,1.09-.06,1.09.75l-.06,4.72c1.44-2.07,4.55-5.53,9.5-5.53,4.32,0,7.66,2.42,7.66,9.39v5.7c0,2.25-.06,7.55,1,9.1.69,1,2.59,1.21,3.23,1.21C1111.47,499.76,1111.58,500.57,1111.12,500.57Z" fill="#020202"/><path d="M1143.78,488c0-7,5-13.59,12.44-13.59,6.8,0,13.25,4.26,13.25,12.73,0,7.55-4.84,13.77-13,13.77C1149.83,500.86,1143.78,496.82,1143.78,488Zm21.08.29c-.58-5.76-3.23-12.27-9.22-12.27-5.59,0-7.78,5.82-7.2,11.06.69,6.34,3.86,12.15,9.1,12.15C1163,499.18,1165.38,493.37,1164.86,488.24Z" fill="#020202"/><path d="M1215,515c-.63,0-4.9-.46-6.51-.46-1.38,0-5.7.46-6.39.46-.46,0-.35-.81.17-.81a4.05,4.05,0,0,0,2.94-1.33c.92-1.27,1.21-6.74,1.21-9V486.11c0-2.25.17-7.14-.92-8.47-.92-1.15-2.25-.75-3.28-.58-.4.06-.63-.69,0-.86s6.11-1.44,7.72-1.79c.69-.17,1-.06,1,.69l-.06,2.36a12.29,12.29,0,0,1,8-3.11c6.28,0,10.6,4.72,10.6,12.73,0,7.26-4.67,13.77-11.81,13.77a10.84,10.84,0,0,1-7-2.42v5.41c0,2.25-.06,7.55,1,9.1.69,1,2.59,1.21,3.23,1.21C1215.37,514.16,1215.49,515,1215,515Zm2.65-16.07c5.41,0,7.43-5.59,7.2-10.54-.29-6.16-2.82-11.75-8.3-11.75a7.4,7.4,0,0,0-5.76,2.94l-.12,6.57v8.47C1210.71,496.42,1214,498.9,1217.68,498.9Z" fill="#020202"/><path d="M1290.66,515c-.63,0-4.9-.46-6.51-.46-1.38,0-5.7.46-6.39.46-.46,0-.35-.81.17-.81a4.05,4.05,0,0,0,2.94-1.33c.92-1.27,1.21-6.74,1.21-9v-7.43c-1,1.32-3.51,4.44-7.66,4.44-5.82,0-11.12-3.69-11.12-12.85,0-7.78,5.24-13.65,12.15-13.65a12.66,12.66,0,0,1,5.47,1.09l5-1c.63-.12,1-.06.92.63-.06,1-.46,8.41-.46,10.94v17.86c0,2.25-.06,7.55,1,9.1.69,1,2.59,1.21,3.23,1.21C1291,514.16,1291.12,515,1290.66,515Zm-8.58-23.21V479.89c0-1.33-3.17-3.63-7-3.63-5.13,0-7.6,5.3-7.2,10.95.46,6.11,3.28,11.46,8.47,11.46C1279.83,498.67,1282.07,494.75,1282.07,491.75Z" fill="#020202"/><path d="M1334.2,500.57c-.63,0-4.9-.46-6.51-.46-1.38,0-5.7.46-6.39.46-.46,0-.35-.81.17-.81a4.06,4.06,0,0,0,2.94-1.32c.92-1.27,1.21-6.74,1.21-9v-3.34c0-2.25.17-7.14-.92-8.47-.92-1.15-2.25-.75-3.28-.58-.4.06-.63-.69,0-.86s6.11-1.44,7.72-1.79c.69-.17,1-.06,1,.69l-.11,4.84c1.15-2.42,3.63-5.59,6.91-5.59a5,5,0,0,1,5.13,4.38c0,.86-.23,1.79-1.9,2.3-.58.17-1.73.46-1.73.29,0-1.84-1.61-4.61-3.69-4.61-1.73,0-3.74,2.94-4.78,6l-.06,3.4v3.34c0,2.25-.06,7.55,1,9.1.69,1,2.59,1.21,3.23,1.21C1334.55,499.76,1334.66,500.57,1334.2,500.57Z" fill="#020202"/><path d="M1375.67,492.27a11.06,11.06,0,0,0,2.42,4.49,9.75,9.75,0,0,0,6.22,2.42c3.4,0,5.47-2.19,5.47-4.55,0-2.71-3.86-4.15-7.32-6s-7.2-4-7.2-8.24c0-3.86,4.44-6,9.16-6a25.06,25.06,0,0,1,7.43,1c.35.12.11,5.24,0,5.65-.06.17-.46.17-.52,0a8.77,8.77,0,0,0-1.67-3.11c-1-1.09-3.57-1.84-5.59-1.84-3.11,0-5.07,1.56-5.07,3.86s3,3.46,7,5.59,7.6,4,7.6,8.41c0,4.61-4.55,6.91-9.68,6.91a21.32,21.32,0,0,1-8.58-1.79,35.6,35.6,0,0,1-.29-6.8C1375.09,492,1375.61,492,1375.67,492.27Z" fill="#020202"/><path d="M1434.25,476.09V494.4c0,3.11,2,4.44,4.09,4.44a8.42,8.42,0,0,0,2.71-.58c.29-.12.86.86.29,1.21a11.44,11.44,0,0,1-4.61,1.56c-3.8,0-6.91-2.07-6.91-6.62V476.14h-4.26c-.4,0,0-1.5.46-1.5a6.69,6.69,0,0,0,6.68-6.74c0-.58,1.56-.63,1.56,0v6.51c2.42,0,5.59-.35,6.91-1.44.35-.17,0,3.11-.4,3.11Z" fill="#020202"/><path d="M1493.11,495c-1.15,2.36-3.86,5.82-8.58,5.82-5.76,0-8.58-3.69-8.58-10.31v-4.44c0-2.25.17-7.14-.92-8.47-.92-1.15-2.25-.75-3.28-.58-.4.06-.63-.69,0-.86s6.11-1.44,7.72-1.79c.69-.17,1-.06,1,.69l-.23,11v4.26c0,5.18,1.79,8.06,5.3,8.06s6.39-3.17,7.55-5.88v-6.45c0-2.25.11-7-1-8.47-.86-1.15-2.71-.75-3.74-.58-.4.06-.63-.69,0-.86s6.68-1.44,8.29-1.79c.69-.17,1-.06,1,.69l-.23,11v3.34c0,2.25.17,7.09,1.09,8.87.58,1.09,2.3,1.44,2.94,1.44s.46.75,0,.81-2.25.17-3.69.17c-1.27,0-2.71-.23-3.34-1C1493.58,498.84,1493.23,497.05,1493.11,495Z" fill="#020202"/><path d="M1545.24,500.16c-1.79-1.79-5.41-9-7.49-14.4-1.61-4.15-2.54-8-3.86-9.22a3.77,3.77,0,0,0-2.76-1.09c-.46,0-.46-.86,0-.86.63,0,4.44.29,6,.29,1.38,0,5.59-.23,6.28-.23.46,0,.35.92-.17.92s-2.48-.11-2.94,1c-.75,1.73.52,5.3,2,9.16a42.34,42.34,0,0,0,5,9.68c1.21-3.28,2.65-7.09,3.86-10.48,1.44-3.86,2.59-7.26,2.42-8.24s-2.3-1.09-2.88-1.09-.63-.92-.17-.92c.69,0,3.57.29,5,.29,1.61,0,4-.29,4.61-.29.46,0,.35.92-.11.92-.63,0-2.36,0-2.94,1.09s-2,4.09-3.63,8c-2,4.72-4.26,10.66-6.51,15.5C1546.56,501.09,1545.7,500.62,1545.24,500.16Z" fill="#020202"/><path d="M373.23,587c-1.56-1.21-4.49-7.2-7.09-14.29-1.5-4.09-2.3-8.53-3.63-9.74a3.9,3.9,0,0,0-2.82-1.09c-.46,0-.46-.86,0-.86.63,0,4.49.29,6.11.29,1.38,0,5.53-.23,6.22-.23.46,0,.35.92-.17.92s-2.42-.11-2.88,1c-.75,1.73.29,5.53,1.67,9.39a45.12,45.12,0,0,0,4.38,9.33c.4-1.09.86-2.19,1.32-3.28,1.5-3.57,2.94-6.91,4-9.68-.75-2.71-1.27-4.9-2.19-5.76a3.9,3.9,0,0,0-2.82-1.09c-.46,0-.46-.86,0-.86.63,0,4.44.29,6,.29,1.38,0,5-.23,5.7-.23.46,0,.35.92-.17.92s-2.19-.11-2.65,1c-.75,1.73.12,5.3,1.61,9.16a50.15,50.15,0,0,0,4.38,9.45c.86-2.25,1.84-4.72,2.76-7.14,1.9-5.3,3.51-10.2,3.28-11.41-.17-1-2.3-1.09-2.88-1.09s-.63-.92-.17-.92c.69,0,3.57.29,5,.29,1.61,0,4-.29,4.61-.29.46,0,.35.92-.12.92-.63,0-2.36,0-2.94,1.09-.81,1.5-3.05,7.09-5.7,13.31-.86,2-1.73,4.09-2.59,6.11-.63,1.38-1.27,2.76-1.84,4.09-.4.92-1,.58-1.44,0a91.33,91.33,0,0,1-6.74-14.34c-.06-.17-.11-.4-.17-.58-1,2.25-2.19,4.72-3.4,7.32s-2.3,5.24-3.4,7.6C374,587.49,373.63,587.37,373.23,587Z" fill="#020202"/><path d="M462.78,587c-.58,0-3.23-.35-5.93-.35s-5.3.35-6,.35c-.46,0-.35-.92.17-.92s3.11-.06,2.94-1.21-2.88-4.67-5.76-8.47c-2.53,3.23-5.18,7.55-5.24,8.58s2.3,1,2.88,1c.4,0,.46.92,0,.92-.63,0-4.09-.29-5.41-.29-1.5,0-4.9.29-5.53.29s-.46-.92,0-.92a7,7,0,0,0,3.4-1c1.27-1,5.24-5.59,8.93-9.79L445.44,573c-3.4-4.49-5.53-7.72-7.49-9.68a4,4,0,0,0-3.17-1.38c-.46,0-.46-.86,0-.86.63,0,4.38.29,6,.29,1.38,0,5.24-.29,5.93-.29.46,0,.35.92-.17.92s-2.94.06-2.77,1.21c.23,1.56,2.54,4.55,5.59,8.58,2.76-3.17,5.76-7.78,5.82-8.76s-2.42-1-3-1c-.4,0-.46-.92,0-.92.63,0,3.86.29,5.18.29,1.5,0,4.32-.29,5-.29s.46.92,0,.92a5.66,5.66,0,0,0-3.17,1c-1.55,1.44-5.3,5.93-8.81,10,3.51,4.67,7.26,9.91,9.22,11.75a3.52,3.52,0,0,0,3.23,1.38C463.24,586.16,463.24,587,462.78,587Z" fill="#020202"/><path d="M497,599.12a20.46,20.46,0,0,0,6-4.21,31.3,31.3,0,0,0,5.36-8c-2-1.61-5.13-9.45-7-14.69-1.5-4.15-2.65-8-4-9.22a5.64,5.64,0,0,0-3.51-1.09c-.46,0-.46-.86,0-.86.63,0,5.18.29,6.8.29,1.38,0,5.7-.23,6.39-.23.46,0,.35.92-.17.92s-2.76-.11-3.23,1c-.75,1.73.63,5.3,2.13,9.16a41.4,41.4,0,0,0,4.84,9.62c1.21-2.82,2.53-6.16,3.69-9.27,1.79-4.49,3.11-8.41,2.94-9.45s-2.3-1.09-2.88-1.09-.63-.92-.17-.92c.69,0,3.57.29,5,.29,1.61,0,4-.29,4.61-.29.46,0,.35.92-.12.92-.63,0-2.36,0-2.94,1.09s-2.36,5.07-4.44,9.79c-2,4.38-4.21,9.39-6.11,13.65-3.57,7.89-5.59,12-7.55,14.34C501.93,601.6,495.77,599.76,497,599.12Z" fill="#020202"/><path d="M576.28,587H557.56c-.4,0-.46-.58-.11-1.09l15.9-23.27-11.06.17c-3.23.29-4.09,3-4.2,6.28,0,.52-.81.63-.86.11a24.47,24.47,0,0,1,.63-6c.35-1.33.75-2.07,1.5-2.07h18.89c.35,0,.63.4.29,1L563,585.24l9.39-.17c3.4,0,5.59-3.28,6-6.74.06-.52.92-.52.92,0a29.18,29.18,0,0,1-1.21,6.57C577.61,586.28,577.14,587,576.28,587Z" fill="#020202"/><path d="M642.39,587.26c-5.18,0-9.85-2.59-11.64-7.72l-.11.17c-.69,2-4.72,7.55-9.51,7.55-4.2,0-7.37-2.59-7.2-6.74.29-6,9.22-7.43,15.21-8.47v-1.67c0-4.32-1.73-7.95-6-7.95a4.71,4.71,0,0,0-5,5.36c0,.17-1.15.06-1.73-.11-1.61-.52-1.84-.92-1.84-1.79,0-1.79,3.28-5.13,8.76-5.13,4.61,0,7.83,2,9.27,5a11.41,11.41,0,0,1,9.27-5c5.93,0,10.08,3.74,10.08,8.06,0,1.67-.63,2.07-2,2.36l-15.32,3.28c.75,5.36,4.26,10.54,10,10.54a10.26,10.26,0,0,0,6.45-2.25c.46-.4.92-.17.58.4C650.92,584.43,647.57,587.26,642.39,587.26Zm-19.47-2.19c2.94,0,6.22-3.63,6.22-6.68v-4.55c-4.9.75-10.48,1.84-10.77,6C618.2,582.42,619.46,585.07,622.92,585.07Zm11.58-12.39,13-2.76c-.23-4.15-2.19-7.37-6.51-7.37C636.17,562.54,634.27,567.21,634.5,572.68Z" fill="#020202"/><path d="M718.57,587.26c-4.49,0-8.64-2-10.83-5.82a12.21,12.21,0,0,1-10.89,5.82c-6.62,0-12.67-4-12.67-12.9,0-7,5-13.59,12.44-13.59,4.67,0,9.22,2,11.58,6a11.33,11.33,0,0,1,9.91-6c5.93,0,10.08,3.74,10.08,8.06,0,1.67-.63,2.07-2,2.36l-15.32,3.28c.75,5.36,4.26,10.54,10,10.54a10.26,10.26,0,0,0,6.45-2.25c.46-.4.92-.17.58.4C727.1,584.43,723.76,587.26,718.57,587.26Zm-13.31-12.62c-.58-5.76-3.23-12.27-9.22-12.27-5.59,0-7.78,5.82-7.2,11.06.69,6.34,3.86,12.15,9.1,12.15C703.42,585.58,705.79,579.77,705.27,574.64Zm5.41-2,13-2.76c-.23-4.15-2.19-7.37-6.51-7.37C712.35,562.54,710.45,567.21,710.68,572.68Z" fill="#020202"/><path d="M778.52,582c-1.67,2.36-4.72,5.24-8.18,5.24-4.21,0-7.37-2.59-7.2-6.74.29-6,9.22-7.43,15.21-8.47v-1.67c0-4.32-2-7.95-5.7-7.95a4.71,4.71,0,0,0-5,5.36c0,.17-1.15.06-1.73-.11-1.61-.52-1.84-.92-1.84-1.79,0-1.79,2.88-5.13,8.35-5.13,7,0,10.14,4,10.14,9.27v5.82c0,2.25.17,7.09,1.09,8.87.58,1.09,2.3,1.44,2.94,1.44s.46.75,0,.81a22.35,22.35,0,0,1-2.88.17c-2,0-2.71-.11-3.4-.63C779.27,585.7,778.75,584.09,778.52,582Zm-6.39,3.05c2.42,0,5.36-2.48,6.28-5.07a14.5,14.5,0,0,1-.06-1.61v-4.55c-4.9.75-10.48,1.84-10.77,6C767.4,582.42,768.67,585.07,772.12,585.07ZM771,556.72c2.42-2.88,5-8.52,5.65-9.68.35-.63,4.9,1.38,4.49,2a61.24,61.24,0,0,1-9.39,8.24C771.32,557.53,770.68,557.13,771,556.72Z" fill="#020202"/><path d="M836.39,582c-1.67,2.36-4.72,5.24-8.18,5.24-4.21,0-7.37-2.59-7.2-6.74.29-6,9.22-7.43,15.21-8.47v-1.67c0-4.32-2-7.95-5.7-7.95a4.71,4.71,0,0,0-5,5.36c0,.17-1.15.06-1.73-.11-1.61-.52-1.84-.92-1.84-1.79,0-1.79,2.88-5.13,8.35-5.13,7,0,10.14,4,10.14,9.27v5.82c0,2.25.17,7.09,1.09,8.87.58,1.09,2.3,1.44,2.94,1.44s.46.75,0,.81a22.35,22.35,0,0,1-2.88.17c-2,0-2.71-.11-3.4-.63C837.14,585.7,836.62,584.09,836.39,582Zm-1.9-25.29c.35.4-.29.81-.75.52a61.23,61.23,0,0,1-9.39-8.24c-.4-.58,4.15-2.59,4.49-2C829.48,548.2,832.07,553.84,834.49,556.72ZM830,585.07c2.42,0,5.36-2.48,6.28-5.07a14.5,14.5,0,0,1-.06-1.61v-4.55c-4.9.75-10.48,1.84-10.77,6C825.27,582.42,826.54,585.07,830,585.07Z" fill="#020202"/><path d="M893.8,582c-1.67,2.36-4.72,5.24-8.18,5.24-4.21,0-7.37-2.59-7.2-6.74.29-6,9.22-7.43,15.21-8.47v-1.67c0-4.32-2-7.95-5.7-7.95a4.71,4.71,0,0,0-5,5.36c0,.17-1.15.06-1.73-.11-1.61-.52-1.84-.92-1.84-1.79,0-1.79,2.88-5.13,8.35-5.13,7,0,10.14,4,10.14,9.27v5.82c0,2.25.17,7.09,1.09,8.87.58,1.09,2.3,1.44,2.94,1.44s.46.75,0,.81a22.35,22.35,0,0,1-2.88.17c-2,0-2.71-.11-3.4-.63C894.55,585.7,894,584.09,893.8,582Zm-5.24-35.6a1.4,1.4,0,0,1,2.3,0A116.69,116.69,0,0,0,897,557.13c.29.46-.46.75-.81.46a57.8,57.8,0,0,1-6.45-6.22c-1.73,2.13-5.07,4.9-6.45,6.28-.29.29-1-.06-.81-.46C885.1,553,888.16,547.33,888.56,546.41Zm-1.15,38.65c2.42,0,5.36-2.48,6.28-5.07a14.5,14.5,0,0,1-.06-1.61v-4.55c-4.9.75-10.48,1.84-10.77,6C882.68,582.42,884,585.07,887.41,585.07Z" fill="#020202"/><path d="M951.21,582c-1.67,2.36-4.72,5.24-8.18,5.24-4.21,0-7.37-2.59-7.2-6.74.29-6,9.22-7.43,15.21-8.47v-1.67c0-4.32-2-7.95-5.7-7.95a4.71,4.71,0,0,0-5,5.36c0,.17-1.15.06-1.73-.11-1.61-.52-1.84-.92-1.84-1.79,0-1.79,2.88-5.13,8.35-5.13,7,0,10.14,4,10.14,9.27v5.82c0,2.25.17,7.09,1.09,8.87.58,1.09,2.3,1.44,2.94,1.44s.46.75,0,.81a22.35,22.35,0,0,1-2.88.17c-2,0-2.71-.11-3.4-.63C952,585.7,951.44,584.09,951.21,582Zm-12.56-30.93a2.7,2.7,0,0,1,1.56-3.4c1.33-.4,3.11.17,3.4,1.5a2.57,2.57,0,0,1-1.61,3.4A2.63,2.63,0,0,1,938.65,551.08Zm6.16,34c2.42,0,5.36-2.48,6.28-5.07a14.5,14.5,0,0,1-.06-1.61v-4.55c-4.9.75-10.48,1.84-10.77,6C940.09,582.42,941.36,585.07,944.82,585.07Zm4.55-34a2.7,2.7,0,0,1,1.55-3.4c1.33-.4,3.11.17,3.4,1.5a2.57,2.57,0,0,1-1.61,3.4A2.62,2.62,0,0,1,949.37,551Z" fill="#020202"/><path d="M1008.62,582c-1.67,2.36-4.72,5.24-8.18,5.24-4.21,0-7.37-2.59-7.2-6.74.29-6,9.22-7.43,15.21-8.47v-1.67c0-4.32-2-7.95-5.7-7.95a4.71,4.71,0,0,0-5,5.36c0,.17-1.15.06-1.73-.11-1.61-.52-1.84-.92-1.84-1.79,0-1.79,2.88-5.13,8.35-5.13,7,0,10.14,4,10.14,9.27v5.82c0,2.25.17,7.09,1.09,8.87.58,1.09,2.3,1.44,2.94,1.44s.46.75,0,.81a22.35,22.35,0,0,1-2.88.17c-2,0-2.71-.11-3.4-.63C1009.37,585.7,1008.85,584.09,1008.62,582Zm-8.35-29.9a5.24,5.24,0,0,0-4.61,2.59c-.23.4-.86.29-.81,0,.35-1.84,2.07-5.53,5.53-5.53a7.94,7.94,0,0,1,4.44,1.27c1.55.86,2.65,1.73,4,1.73a5.24,5.24,0,0,0,4.61-2.59c.23-.4.86-.29.81,0-.4,1.79-2.07,5.59-5.53,5.59a8.07,8.07,0,0,1-4.32-1.32C1003,553,1001.71,552.12,1000.27,552.12Zm2,33c2.42,0,5.36-2.48,6.28-5.07a14.5,14.5,0,0,1-.06-1.61v-4.55c-4.9.75-10.48,1.84-10.77,6C997.51,582.42,998.77,585.07,1002.23,585.07Z" fill="#020202"/><path d="M1061.6,600.27a9,9,0,0,1-3.23-.63c-.52-.23-.06-.69.23-.58,1.84.58,5.53-.11,5.18-2.71-.29-2-3.34-2.94-3.34-5.36,0-1.73,1-2.71,2.42-3.8-7.49-.46-11.64-5.59-11.64-12.79,0-7.72,6.86-13.65,14.06-13.65,5.47,0,7.66,2.59,7.66,4.38,0,.86-.52,1.79-2.19,2.3-.58.17-1.73.46-1.73.29,0-1.84-1.33-5.36-4.78-5.36-5.41,0-8.81,5.82-8.41,11.29.46,6.51,4.61,11.35,10,11.35a10.13,10.13,0,0,0,6.45-2.19c.69-.58.92,0,.63.35a11.49,11.49,0,0,1-8.81,4.09,2.82,2.82,0,0,0-.58,3.28c.69,1.84,3.8,2.76,3.8,5.65C1067.36,599.24,1064.25,600.22,1061.6,600.27Z" fill="#020202"/><path d="M1120.68,587.26c-6.57,0-12.39-4.15-12.39-12.44s5.41-14.06,11.92-14.06c5.93,0,10.08,3.74,10.08,8.06,0,1.67-.63,2.07-2,2.36L1113,574.47c.75,5.36,4.26,10.54,10,10.54a10.26,10.26,0,0,0,6.45-2.25c.46-.4.92-.17.58.4C1129.21,584.43,1125.87,587.26,1120.68,587.26Zm-7.89-14.57,13-2.76c-.23-4.15-2.19-7.37-6.51-7.37C1114.46,562.54,1112.56,567.21,1112.79,572.68Zm2.71-16c2.42-2.88,5-8.52,5.65-9.68.35-.63,4.9,1.38,4.49,2a61.23,61.23,0,0,1-9.39,8.24C1115.78,557.53,1115.15,557.13,1115.5,556.72Z" fill="#020202"/><path d="M1178.21,587.26c-6.57,0-12.39-4.15-12.39-12.44s5.41-14.06,11.92-14.06c5.93,0,10.08,3.74,10.08,8.06,0,1.67-.63,2.07-2,2.36l-15.32,3.28c.75,5.36,4.26,10.54,10,10.54a10.26,10.26,0,0,0,6.45-2.25c.46-.4.92-.17.58.4C1186.73,584.43,1183.39,587.26,1178.21,587.26Zm1.67-30.53c.35.4-.29.81-.75.52a61.28,61.28,0,0,1-9.39-8.24c-.4-.58,4.15-2.59,4.49-2C1174.87,548.2,1177.46,553.84,1179.88,556.72Zm-9.56,16,13-2.76c-.23-4.15-2.19-7.37-6.51-7.37C1172,562.54,1170.09,567.21,1170.32,572.68Z" fill="#020202"/><path d="M1235.73,587.26c-6.57,0-12.39-4.15-12.39-12.44s5.41-14.06,11.92-14.06c5.93,0,10.08,3.74,10.08,8.06,0,1.67-.63,2.07-2,2.36L1228,574.47c.75,5.36,4.26,10.54,10,10.54a10.26,10.26,0,0,0,6.45-2.25c.46-.4.92-.17.58.4C1244.26,584.43,1240.92,587.26,1235.73,587.26Zm-2.94-40.84a1.4,1.4,0,0,1,2.3,0,116.57,116.57,0,0,0,6.11,10.71c.29.46-.46.75-.81.46a57.8,57.8,0,0,1-6.45-6.22c-1.73,2.13-5.07,4.9-6.45,6.28-.29.29-1-.06-.81-.46C1229.34,553,1232.39,547.33,1232.8,546.41Zm-5,26.27,13-2.76c-.23-4.15-2.19-7.37-6.51-7.37C1229.51,562.54,1227.61,567.21,1227.84,572.68Z" fill="#020202"/><path d="M1293.26,587.26c-6.57,0-12.39-4.15-12.39-12.44s5.41-14.06,11.92-14.06c5.93,0,10.08,3.74,10.08,8.06,0,1.67-.63,2.07-2,2.36l-15.32,3.28c.75,5.36,4.26,10.54,10,10.54a10.26,10.26,0,0,0,6.45-2.25c.46-.4.92-.17.58.4C1301.79,584.43,1298.44,587.26,1293.26,587.26Zm-9.39-36.18a2.7,2.7,0,0,1,1.55-3.4c1.33-.4,3.11.17,3.4,1.5a2.57,2.57,0,0,1-1.61,3.4A2.62,2.62,0,0,1,1283.87,551.08Zm1.5,21.6,13-2.76c-.23-4.15-2.19-7.37-6.51-7.37C1287,562.54,1285.14,567.21,1285.37,572.68Zm9.22-21.66a2.7,2.7,0,0,1,1.56-3.4c1.33-.4,3.11.17,3.4,1.5a2.57,2.57,0,0,1-1.61,3.4A2.63,2.63,0,0,1,1294.59,551Z" fill="#020202"/><path d="M1341.69,564c-.86-1.15-2.71-.75-3.74-.58-.4.06-.63-.69,0-.86l8.18-1.79c.75-.17,1.09-.06,1.09.75l-.23,10.95v3.34c0,2.25-.06,7.55,1,9.1.69,1,2.59,1.21,3.23,1.21.46,0,.58.81.12.81-.63,0-4.9-.46-6.51-.46-1.38,0-5.7.46-6.39.46-.46,0-.35-.81.17-.81a4.06,4.06,0,0,0,2.94-1.32c.92-1.27,1.21-6.74,1.21-9v-3.34C1342.72,570.26,1342.84,565.54,1341.69,564Zm-4-7.49c2.42-2.88,5-8.52,5.65-9.68.35-.63,4.9,1.38,4.49,2a61.24,61.24,0,0,1-9.39,8.24C1337.94,557.36,1337.31,557,1337.65,556.55Z" fill="#020202"/><path d="M1389,564c-.86-1.15-2.71-.75-3.74-.58-.4.06-.63-.69,0-.86l8.18-1.79c.75-.17,1.09-.06,1.09.75l-.23,10.95v3.34c0,2.25-.06,7.55,1,9.1.69,1,2.59,1.21,3.23,1.21.46,0,.58.81.12.81-.63,0-4.9-.46-6.51-.46-1.38,0-5.7.46-6.39.46-.46,0-.35-.81.17-.81a4.06,4.06,0,0,0,2.94-1.32c.92-1.27,1.21-6.74,1.21-9v-3.34C1390,570.26,1390.11,565.54,1389,564Zm6.8-7.32c.35.4-.29.81-.75.52a61.23,61.23,0,0,1-9.39-8.24c-.4-.58,4.15-2.59,4.49-2C1390.75,548.2,1393.34,553.84,1395.76,556.72Z" fill="#020202"/><path d="M1438.25,546.41a1.4,1.4,0,0,1,2.3,0,116.57,116.57,0,0,0,6.11,10.71c.29.46-.46.75-.81.46a57.8,57.8,0,0,1-6.45-6.22c-1.73,2.13-5.07,4.9-6.45,6.28-.29.29-1-.06-.81-.46C1434.79,553,1437.85,547.33,1438.25,546.41ZM1436.46,564c-.86-1.15-2.71-.75-3.74-.58-.4.06-.63-.69,0-.86l8.18-1.79c.75-.17,1.09-.06,1.09.75l-.23,10.95v3.34c0,2.25-.06,7.55,1,9.1.69,1,2.59,1.21,3.23,1.21.46,0,.58.81.12.81-.63,0-4.9-.46-6.51-.46-1.38,0-5.7.46-6.39.46-.46,0-.35-.81.17-.81a4.06,4.06,0,0,0,2.94-1.32c.92-1.27,1.21-6.74,1.21-9v-3.34C1437.5,570.26,1437.62,565.54,1436.46,564Z" fill="#020202"/><path d="M1480.05,551.08a2.7,2.7,0,0,1,1.56-3.4c1.33-.4,3.11.17,3.4,1.5a2.57,2.57,0,0,1-1.61,3.4A2.63,2.63,0,0,1,1480.05,551.08Zm4.78,13c-.86-1.15-2.71-.75-3.74-.58-.4.06-.63-.69,0-.86l8.18-1.79c.75-.17,1.09-.06,1.09.75l-.23,10.95v3.34c0,2.25-.06,7.55,1,9.1.69,1,2.59,1.21,3.23,1.21.46,0,.58.81.11.81-.63,0-4.9-.46-6.51-.46-1.38,0-5.7.46-6.39.46-.46,0-.35-.81.17-.81a4.06,4.06,0,0,0,2.94-1.32c.92-1.27,1.21-6.74,1.21-9v-3.34C1485.87,570.26,1486,565.54,1484.83,564Zm5.93-13a2.7,2.7,0,0,1,1.56-3.4c1.32-.4,3.11.17,3.4,1.5a2.57,2.57,0,0,1-1.61,3.4A2.63,2.63,0,0,1,1490.77,551Z" fill="#020202"/><path d="M1559.35,587c-.63,0-5-.46-6.57-.46-1.38,0-5.76.46-6.45.46-.46,0-.35-.81.17-.81a4.06,4.06,0,0,0,2.94-1.32c.92-1.27,1.21-6.74,1.21-9v-5.24c0-5.59-1.61-7.09-4.9-7.09s-6.34,2.76-8,5.36l-.11,7c0,2.25-.06,7.55,1,9.1.69,1,2.59,1.21,3.23,1.21.46,0,.58.81.12.81-.63,0-4.9-.46-6.51-.46-1.38,0-5.7.46-6.39.46-.46,0-.35-.81.17-.81a4.06,4.06,0,0,0,2.94-1.32c.92-1.27,1.21-6.74,1.21-9v-3.34c0-2.25.12-7-1-8.47-.86-1.15-2.71-.75-3.74-.58-.4.06-.63-.69,0-.86l8.18-1.79c.75-.17,1.09-.06,1.09.75l-.06,4.72c1.44-2.07,4.55-5.53,9.5-5.53,4.32,0,7.66,2.42,7.66,9.39v5.7c0,2.25-.06,7.55,1,9.1.69,1,2.59,1.21,3.23,1.21C1559.7,586.16,1559.81,587,1559.35,587Zm-16.53-33.12c-1.44-.81-2.71-1.73-4.15-1.73a5.24,5.24,0,0,0-4.61,2.59c-.23.4-.86.29-.81,0,.35-1.84,2.07-5.53,5.53-5.53a7.94,7.94,0,0,1,4.44,1.27c1.56.86,2.65,1.73,4,1.73a5.24,5.24,0,0,0,4.61-2.59c.23-.4.86-.29.81,0-.4,1.79-2.07,5.59-5.53,5.59A8.07,8.07,0,0,1,1542.82,553.84Z" fill="#020202"/><path d="M362.51,660.75c0-7,5-13.59,12.44-13.59,6.8,0,13.25,4.26,13.25,12.73,0,7.55-4.84,13.77-13,13.77C368.56,673.66,362.51,669.62,362.51,660.75Zm21.08.29c-.58-5.76-3.23-12.27-9.22-12.27-5.59,0-7.78,5.82-7.2,11.06.69,6.34,3.86,12.15,9.1,12.15C381.75,672,384.12,666.17,383.6,661Zm-12.27-17.92c2.42-2.88,5-8.52,5.65-9.68.35-.63,4.9,1.38,4.49,2a61.23,61.23,0,0,1-9.39,8.24C371.62,643.93,371,643.53,371.33,643.12Z" fill="#020202"/><path d="M422.64,660.75c0-7,5-13.59,12.44-13.59,6.8,0,13.25,4.26,13.25,12.73,0,7.55-4.84,13.77-13,13.77C428.69,673.66,422.64,669.62,422.64,660.75Zm21.08.29c-.58-5.76-3.23-12.27-9.22-12.27-5.59,0-7.78,5.82-7.2,11.06.69,6.34,3.86,12.15,9.1,12.15C441.88,672,444.25,666.17,443.73,661Zm-4.61-18c.35.4-.29.81-.75.52a61.24,61.24,0,0,1-9.39-8.24c-.4-.58,4.15-2.59,4.49-2C434.11,634.48,436.7,640.13,439.12,643Z" fill="#020202"/><path d="M482.77,660.75c0-7,5-13.59,12.44-13.59,6.8,0,13.25,4.26,13.25,12.73,0,7.55-4.84,13.77-13,13.77C488.82,673.66,482.77,669.62,482.77,660.75Zm21.08.29c-.58-5.76-3.23-12.27-9.22-12.27-5.59,0-7.78,5.82-7.2,11.06.69,6.34,3.86,12.15,9.1,12.15C502,672,504.37,666.17,503.86,661Zm-9.16-28.23a1.4,1.4,0,0,1,2.3,0,116.57,116.57,0,0,0,6.11,10.71c.29.46-.46.75-.81.46a57.8,57.8,0,0,1-6.45-6.22c-1.73,2.13-5.07,4.9-6.45,6.28-.29.29-1-.06-.81-.46C491.24,639.44,494.29,633.73,494.7,632.81Z" fill="#020202"/><path d="M555.58,673.66c-6.62,0-12.67-4-12.67-12.9,0-7,5-13.59,12.44-13.59,6.8,0,13.25,4.26,13.25,12.73C568.59,667.43,563.76,673.66,555.58,673.66Zm1.09-1.67c5.47,0,7.83-5.82,7.32-10.94-.58-5.76-3.23-12.27-9.22-12.27-5.59,0-7.78,5.82-7.2,11.06C548.26,666.17,551.43,672,556.67,672Zm-8.76-34.51a2.7,2.7,0,0,1,1.56-3.4c1.33-.4,3.11.17,3.4,1.5a2.57,2.57,0,0,1-1.61,3.4A2.63,2.63,0,0,1,547.91,637.48Zm10.71-.06a2.7,2.7,0,0,1,1.56-3.4c1.32-.4,3.11.17,3.4,1.5a2.57,2.57,0,0,1-1.61,3.4A2.63,2.63,0,0,1,558.63,637.42Z" fill="#020202"/><path d="M603,660.75c0-7,5-13.59,12.44-13.59,6.8,0,13.25,4.26,13.25,12.73,0,7.55-4.84,13.77-13,13.77C609.08,673.66,603,669.62,603,660.75Zm12.73-20.51c-1.44-.81-2.71-1.73-4.15-1.73a5.24,5.24,0,0,0-4.61,2.59c-.23.4-.86.29-.81,0,.35-1.84,2.07-5.53,5.53-5.53a7.94,7.94,0,0,1,4.44,1.27c1.56.86,2.65,1.73,4,1.73a5.24,5.24,0,0,0,4.61-2.59c.23-.4.86-.29.81,0-.4,1.79-2.07,5.59-5.53,5.59A8.07,8.07,0,0,1,615.76,640.24Zm8.35,20.8c-.58-5.76-3.23-12.27-9.22-12.27-5.59,0-7.78,5.82-7.2,11.06.69,6.34,3.86,12.15,9.1,12.15C622.27,672,624.63,666.17,624.12,661Z" fill="#020202"/><path d="M682.92,667.84c-1.15,2.36-3.86,5.82-8.58,5.82-5.76,0-8.58-3.69-8.58-10.31v-4.44c0-2.25.17-7.14-.92-8.47-.92-1.15-2.25-.75-3.28-.58-.4.06-.63-.69,0-.86s6.11-1.44,7.72-1.79c.69-.17,1-.06,1,.69l-.23,11v4.26c0,5.18,1.79,8.06,5.3,8.06s6.39-3.17,7.55-5.88v-6.45c0-2.25.11-7-1-8.47-.86-1.15-2.71-.75-3.74-.58-.4.06-.63-.69,0-.86s6.68-1.44,8.29-1.79c.69-.17,1-.06,1,.69l-.23,11v3.34c0,2.25.17,7.09,1.09,8.87.58,1.09,2.3,1.44,2.94,1.44s.46.75,0,.81-2.25.17-3.69.17c-1.27,0-2.71-.23-3.34-1C683.38,671.64,683,669.85,682.92,667.84Zm-10.08-24.71c2.42-2.88,5-8.52,5.65-9.68.35-.63,4.9,1.38,4.49,2a61.24,61.24,0,0,1-9.39,8.24C673.13,643.93,672.49,643.53,672.84,643.12Z" fill="#020202"/><path d="M744.32,667.84c-1.15,2.36-3.86,5.82-8.58,5.82-5.76,0-8.58-3.69-8.58-10.31v-4.44c0-2.25.17-7.14-.92-8.47-.92-1.15-2.25-.75-3.28-.58-.4.06-.63-.69,0-.86s6.11-1.44,7.72-1.79c.69-.17,1-.06,1,.69l-.23,11v4.26c0,5.18,1.79,8.06,5.3,8.06s6.39-3.17,7.55-5.88v-6.45c0-2.25.11-7-1-8.47-.86-1.15-2.71-.75-3.74-.58-.4.06-.63-.69,0-.86s6.68-1.44,8.29-1.79c.69-.17,1-.06,1,.69l-.23,11v3.34c0,2.25.17,7.09,1.09,8.87.58,1.09,2.3,1.44,2.94,1.44s.46.75,0,.81-2.25.17-3.69.17c-1.27,0-2.71-.23-3.34-1C744.78,671.64,744.43,669.85,744.32,667.84Zm-2.65-24.71c.35.4-.29.81-.75.52a61.24,61.24,0,0,1-9.39-8.24c-.4-.58,4.15-2.59,4.49-2C736.66,634.6,739.25,640.24,741.67,643.12Z" fill="#020202"/><path d="M805.71,667.84c-1.15,2.36-3.86,5.82-8.58,5.82-5.76,0-8.58-3.69-8.58-10.31v-4.44c0-2.25.17-7.14-.92-8.47-.92-1.15-2.25-.75-3.28-.58-.4.06-.63-.69,0-.86s6.11-1.44,7.72-1.79c.69-.17,1-.06,1,.69l-.23,11v4.26c0,5.18,1.79,8.06,5.3,8.06s6.39-3.17,7.55-5.88v-6.45c0-2.25.11-7-1-8.47-.86-1.15-2.71-.75-3.74-.58-.4.06-.63-.69,0-.86s6.68-1.44,8.29-1.79c.69-.17,1-.06,1,.69l-.23,11v3.34c0,2.25.17,7.09,1.09,8.87.58,1.09,2.3,1.44,2.94,1.44s.46.75,0,.81-2.25.17-3.69.17c-1.27,0-2.71-.23-3.34-1C806.17,671.64,805.83,669.85,805.71,667.84Zm-7.2-35a1.4,1.4,0,0,1,2.3,0,116.57,116.57,0,0,0,6.11,10.71c.29.46-.46.75-.81.46a57.8,57.8,0,0,1-6.45-6.22c-1.73,2.13-5.07,4.9-6.45,6.28-.29.29-1-.06-.81-.46C795.06,639.44,798.11,633.73,798.51,632.81Z" fill="#020202"/><path d="M867.11,667.84c-1.15,2.36-3.86,5.82-8.58,5.82-5.76,0-8.58-3.69-8.58-10.31v-4.44c0-2.25.17-7.14-.92-8.47-.92-1.15-2.25-.75-3.28-.58-.4.06-.63-.69,0-.86s6.11-1.44,7.72-1.79c.69-.17,1-.06,1,.69l-.23,11v4.26c0,5.18,1.79,8.06,5.3,8.06s6.39-3.17,7.55-5.88v-6.45c0-2.25.11-7-1-8.47-.86-1.15-2.71-.75-3.74-.58-.4.06-.63-.69,0-.86s6.68-1.44,8.29-1.79c.69-.17,1-.06,1,.69l-.23,11v3.34c0,2.25.17,7.09,1.09,8.87.58,1.09,2.3,1.44,2.94,1.44s.46.75,0,.81-2.25.17-3.69.17c-1.27,0-2.71-.23-3.34-1C867.57,671.64,867.22,669.85,867.11,667.84Zm-14.17-30.36a2.7,2.7,0,0,1,1.55-3.4c1.33-.4,3.11.17,3.4,1.5a2.57,2.57,0,0,1-1.61,3.4A2.62,2.62,0,0,1,852.94,637.48Zm10.71-.06a2.7,2.7,0,0,1,1.56-3.4c1.32-.4,3.11.17,3.4,1.5a2.57,2.57,0,0,1-1.61,3.4A2.63,2.63,0,0,1,863.65,637.42Z" fill="#020202"/><path d="M909.09,685.52a20.46,20.46,0,0,0,6-4.21,31.3,31.3,0,0,0,5.36-8c-2-1.61-5.13-9.45-7-14.69-1.5-4.15-2.65-8-4-9.22a5.64,5.64,0,0,0-3.51-1.09c-.46,0-.46-.86,0-.86.63,0,5.18.29,6.8.29,1.38,0,5.7-.23,6.39-.23.46,0,.35.92-.17.92s-2.76-.11-3.23,1c-.75,1.73.63,5.3,2.13,9.16a41.4,41.4,0,0,0,4.84,9.62c1.21-2.82,2.53-6.16,3.69-9.27,1.79-4.49,3.11-8.41,2.94-9.45s-2.3-1.09-2.88-1.09-.63-.92-.17-.92c.69,0,3.57.29,5,.29,1.61,0,4-.29,4.61-.29.46,0,.35.92-.12.92-.63,0-2.36,0-2.94,1.09s-2.36,5.07-4.44,9.79c-2,4.38-4.21,9.39-6.11,13.65-3.57,7.89-5.59,12-7.55,14.34C914,688,907.88,686.16,909.09,685.52Zm4.72-48a2.7,2.7,0,0,1,1.56-3.4c1.32-.4,3.11.17,3.4,1.5a2.57,2.57,0,0,1-1.61,3.4A2.63,2.63,0,0,1,913.82,637.48Zm10.71-.06a2.7,2.7,0,0,1,1.55-3.4c1.33-.4,3.11.17,3.4,1.5a2.57,2.57,0,0,1-1.61,3.4A2.62,2.62,0,0,1,924.53,637.42Z" fill="#020202"/><path d="M968.88,685.52a20.46,20.46,0,0,0,6-4.21,31.3,31.3,0,0,0,5.36-8c-2-1.61-5.13-9.45-7-14.69-1.5-4.15-2.65-8-4-9.22a5.64,5.64,0,0,0-3.51-1.09c-.46,0-.46-.86,0-.86.63,0,5.18.29,6.8.29,1.38,0,5.7-.23,6.39-.23.46,0,.35.92-.17.92s-2.76-.11-3.23,1c-.75,1.73.63,5.3,2.13,9.16a41.4,41.4,0,0,0,4.84,9.62c1.21-2.82,2.53-6.16,3.69-9.27,1.79-4.49,3.11-8.41,2.94-9.45s-2.3-1.09-2.88-1.09-.63-.92-.17-.92c.69,0,3.57.29,5,.29,1.61,0,4-.29,4.61-.29.46,0,.35.92-.12.92-.63,0-2.36,0-2.94,1.09s-2.36,5.07-4.44,9.79c-2,4.38-4.21,9.39-6.11,13.65-3.57,7.89-5.59,12-7.55,14.34C973.83,688,967.67,686.16,968.88,685.52Zm9.33-42.4c2.42-2.88,5-8.52,5.65-9.68.35-.63,4.9,1.38,4.49,2a61.24,61.24,0,0,1-9.39,8.24C978.5,643.93,977.86,643.53,978.21,643.12Z" fill="#020202"/><path d="M1049.4,673.71a16.81,16.81,0,0,1-7-1.73c-.17-.06-.29-5.88-.29-6.68,0-.29.81-.29.81,0a6.82,6.82,0,0,0,6.68,6.8c3.92,0,5.59-3.23,5.59-5.88,0-3.28-3.63-5.76-6.74-8.18-2.77-2.19-5.82-4-5.82-7.95,0-4.72,3.63-7,8.06-9-.11-4-2.65-10-7.72-10-5.41,0-5.93,4.32-5.93,9.91v21.26c0,2.25-.06,7.55,1,9.1.69,1,2.59,1.21,3.23,1.21.46,0,.58.81.11.81-.63,0-4.9-.46-6.51-.46-1.38,0-5.7.46-6.39.46-.46,0-.35-.81.17-.81a4.06,4.06,0,0,0,2.94-1.33c.92-1.27,1.21-6.74,1.21-9v-20.8c0-8.35,4.21-11.75,11.06-11.75,5.88,0,10.25,3.11,10.25,10.48,0,.52-.12.86-1,1.33-2.36,1.27-7,3.69-7,7.49,0,3.17,3.92,4.84,6.91,7.09,2.59,2,5.65,4.44,5.7,8.7A9.17,9.17,0,0,1,1049.4,673.71Z" fill="#020202"/><path d="M1121.51,673.37c-.63,0-4.9-.46-6.51-.46-1.38,0-5.7.46-6.39.46-.46,0-.35-.81.17-.81a4.06,4.06,0,0,0,2.94-1.33c.92-1.27,1.21-6.74,1.21-9v-3.34c0-2.25,0-7-1-8.47-.75-1.09-2-1.21-3.74-1.27-2.59.06-5.3-.06-7-.12v13.19c0,2.25-.06,7.55,1,9.1.69,1,2.59,1.21,3.23,1.21.46,0,.58.81.12.81-.63,0-4.9-.46-6.51-.46-1.38,0-5.7.46-6.39.46-.46,0-.35-.81.17-.81a4.06,4.06,0,0,0,2.94-1.33c.92-1.27,1.21-6.74,1.21-9V649.06c-1.84.06-3.86.12-4.84.12-.46,0,.17-1.73.75-1.73h4.09v-6c0-8.06,3.05-11.75,8.3-11.75,3.51,0,6.22,2.3,6.22,4.38,0,.86-.23,1.79-1.9,2.3-.58.17-1.61.46-1.61.29,0-2.76-.69-5.47-3.23-5.47-3.69,0-3.51,4.21-3.51,9.79v6.45c4,0,13.42.06,15.38,0,.46,0,.86,0,.86.75,0,.58-.12,1.56-.23,10.71v3.34c0,2.36-.06,7.66,1,9.16.69,1.09,2.59,1.15,3.23,1.15C1121.86,672.56,1122,673.37,1121.51,673.37Z" fill="#020202"/><path d="M1183,673.37c-.63,0-4.9-.46-6.51-.46-1.38,0-5.7.46-6.39.46-.46,0-.35-.81.17-.81a4.06,4.06,0,0,0,2.94-1.33c.92-1.27,1.21-6.74,1.21-9v-24.6c0-3.8-4.15-6.45-6.68-6.45-4.49,0-4.49,4.21-4.49,9.79v6.45h6.28c.46,0-.06,1.44-.58,1.44-1.61-.06-3.86,0-5.7,0v13.36c0,2.25-.06,7.55,1,9.1.69,1,2.59,1.21,3.23,1.21.46,0,.58.81.12.81-.63,0-4.9-.46-6.51-.46-1.38,0-5.7.46-6.39.46-.46,0-.35-.81.17-.81a4.06,4.06,0,0,0,2.94-1.33c.92-1.27,1.21-6.74,1.21-9V648.94c-1.67.11-3.69.23-4.84.23-.46,0,.17-1.73.75-1.73h4.09v-6c0-8.06,3.57-11.75,8.81-11.75a17.84,17.84,0,0,1,5.3,1c1.73-.4,3.92-.81,4.84-1,.69-.17,1-.06,1,.69l-.23,11v20.85c0,2.25-.06,7.55,1,9.1.69,1,2.59,1.21,3.23,1.21C1183.31,672.56,1183.43,673.37,1183,673.37Z" fill="#020202"/><path d="M1217.69,652.86c0-10.31,6.11-21,16.48-21,10,0,16.47,8.64,16.47,20.16,0,9.62-5.65,21.77-16.24,21.77C1224.14,673.83,1217.69,664.78,1217.69,652.86Zm27.42-.81c-.69-8.47-3.69-18.26-11.87-18.26-7,0-10.48,10.08-10,19.07s4.15,19,12.1,19C1242.58,671.87,1245.86,661.67,1245.11,652.05Z" fill="#020202"/><path d="M1290.49,635.52c-.92-1.15-2.25-.75-3.28-.58-.4.06-.63-.69,0-.86s6.11-1.44,7.72-1.79c.69-.17,1-.06,1,.69l-.23,11v18.26c0,2.25-.06,7.55,1,9.1.69,1,2.59,1.21,3.23,1.21.46,0,.58.81.12.81-.63,0-4.9-.46-6.51-.46-1.38,0-5.7.46-6.39.46-.46,0-.35-.81.17-.81a4.06,4.06,0,0,0,2.94-1.33c.92-1.27,1.21-6.74,1.21-9V644C1291.41,641.74,1291.59,636.84,1290.49,635.52Z" fill="#020202"/><path d="M1362.66,673.37h-25.52c-1,0-.81-1-.23-1.73,3.34-4,9.68-11,13.71-15.73,3.86-4.55,6.68-8.76,6.68-13s-1.84-9.68-7.78-9.68c-7.78,0-9.91,11.12-10.89,12.73-.11.23-.81.23-.81,0-.17-1.44-.75-5.47-.63-5.82.69-2.36,5.59-8.47,13.19-8.47,7,0,12.1,4.49,12.1,10.37,0,6.22-5.59,10.83-10.94,16.24-3.28,3.28-7.66,8.12-10.66,11.52,2.48.92,8.81.86,10.77.86,3.17,0,10.95-1.09,12.85-4.44.35-.58,1-.46.86,0C1365.14,667.32,1363.24,673.37,1362.66,673.37Z" fill="#020202"/><path d="M1413,673.66a17.25,17.25,0,0,1-10.71-3.17c-.29-.17-.75-5.53-.75-6.91,0-.46.75-.46.81,0a9.91,9.91,0,0,0,2.48,4.72,10.45,10.45,0,0,0,8.12,3.92c5.59,0,8.81-5.59,8.18-12.1-.58-5.88-4-8.24-8.64-8.24h-2.36c-.29,0,.11-1.38.46-1.38h.63c3.92,0,8.3-4.2,7.83-10.08a7.66,7.66,0,0,0-7.66-7.09c-5.88,0-7.32,7.09-7.83,8.35-.17.4-1,.4-1,.12-.12-1.38-.35-6.11-.12-6.34,1.09-1.09,5.3-3.69,11.06-3.69,3.4,0,9.79,1.44,9.85,7.89a11.77,11.77,0,0,1-7.78,10.95c4.78.29,10,2.65,10.6,9.27a12.05,12.05,0,0,1-4.84,10.66A13.73,13.73,0,0,1,1413,673.66Z" fill="#020202"/><path d="M1488.8,673.37c-.63,0-4.9-.46-6.51-.46-1.38,0-5.7.46-6.39.46-.46,0-.35-.81.17-.81a4.06,4.06,0,0,0,2.94-1.33c.92-1.27,1.21-6.74,1.21-9v-.92H1462.7c-.29,0-.4-.4-.17-.63,2.07-2.25,16.76-21.31,20.8-28.51.29-.52,1.15-.52,1.15,0v26.44h7.2c1.09,0,2.3-.4,3.69-2.59.17-.29.69-.23.63,0a33.76,33.76,0,0,1-2.13,4.61c-.23.46-.46.69-.75.69h-8.64v.92c0,2.25-.06,7.55,1,9.1.69,1,2.59,1.21,3.23,1.21C1489.14,672.56,1489.26,673.37,1488.8,673.37Zm-22.64-14.75h14.06v-19Z" fill="#020202"/><path d="M1543.74,673.66a17.25,17.25,0,0,1-10.71-3.17c-.29-.17-.86-5.53-.86-6.91,0-.46.75-.46.81,0a9.91,9.91,0,0,0,2.48,4.72,10.5,10.5,0,0,0,8.24,3.69c5.3,0,8.81-6.51,8.18-13-.63-6.68-4.09-10.48-9.27-10.43-3.4,0-7.32,2.65-7.89,3.57-.12.17-.58.06-.58-.17s1.15-14.52,1.5-19.12c.06-.46.29-.58.52-.58,1.61,0,15.73.06,16.94-.23a3.26,3.26,0,0,0,2-1.73c.11-.29.81-.35.75,0-.11.52-2.07,6.62-2.65,6.62-1,0-12.27-.46-16.13-.63l-.92,12.44a19.06,19.06,0,0,1,8-1.84c5.47,0,12,3,12.79,11.87a14,14,0,0,1-4.9,11.87A13.51,13.51,0,0,1,1543.74,673.66Z" fill="#020202"/><path d="M376.57,760.17c-7,0-13.19-5.3-13.19-15.73,0-13.94,7-26.15,19.47-26.15a17.64,17.64,0,0,1,5.47.69c.4.12.23,1-.35.86a19.34,19.34,0,0,0-4.38-.4c-9,.29-14.11,8.87-15,20a13.06,13.06,0,0,1,10.83-5.65c5.07,0,11,2.88,11,12.15C390.45,752.85,385,760.17,376.57,760.17Zm1.27-1.67c5,0,8.18-5.36,7.95-11.75s-3.4-10.43-7.78-10.48-8.64,3.46-9.5,5.18a15.59,15.59,0,0,0-.06,1.67C368.45,752.28,371.85,758.5,377.84,758.5Z" fill="#020202"/><path d="M437.79,759.77h-4.84c-.35,0-.35-.23-.29-.52,1.61-10.54,13.13-29.67,16.88-36.64-12.79-.06-18.61.58-19.93,1.5a4,4,0,0,0-1.5,3.11c0,.29-1,.35-1,0,0-.63.35-8.58.92-8.58.86,0,15.84.06,24.08,0,.29,0,.4.23.23.69-1,2.54-5.36,10.14-9,19-3.05,7.43-4.26,15.44-4.9,21C438.42,759.48,438.25,759.77,437.79,759.77Z" fill="#020202"/><path d="M502.57,760.11c-8.41,0-13.6-4.84-13.6-10.48s5.36-9.27,9.62-12.33c-4-2.42-7.72-5-7.72-10,0-4.78,4.67-9,11.58-9,5.82,0,10.31,3.34,10.31,8.06,0,3.92-3.46,6.68-7.32,9.27,4.78,2.59,10.54,5.18,10.54,11.87A13.19,13.19,0,0,1,502.57,760.11Zm.17-1.55c6.16-.06,8.7-5.13,8.58-9.1-.17-5.88-5.88-8-11.52-11.41l-.11-.06c-4.15,3.17-5.88,6.39-6,11C493.47,753.2,496.35,758.61,502.75,758.56ZM504.3,735a10.6,10.6,0,0,0,4.26-9c-.17-3.05-1.9-6.11-6.62-6.11-4.32,0-7.66,3.46-7.14,7.14.46,3.17,5,5.47,9.27,7.89A.44.44,0,0,0,504.3,735Z" fill="#020202"/><path d="M555.78,759.48c-.4-.11-.23-1.15.35-1a26.51,26.51,0,0,0,5.24.46c8.18,0,12.5-9.79,13.13-20.68a13.14,13.14,0,0,1-10.6,4.72c-5.18,0-11.29-2.3-11.29-10.89a14.21,14.21,0,0,1,14.06-13.83c7.09,0,12.9,5.36,13,15.73.17,13.65-6.39,26.15-18.38,26.15A22.66,22.66,0,0,1,555.78,759.48Zm9.45-18.38c4,.06,8.24-2.71,9.39-4.32V735.4c0-9.16-3.23-15.44-9.22-15.44-5,0-8.35,5.36-8.12,11.35C557.51,737.13,560.74,741,565.23,741.1Z" fill="#020202"/><path d="M616.25,739.26c0-10.31,6.11-21,16.48-21,10,0,16.48,8.64,16.48,20.16,0,9.62-5.65,21.77-16.24,21.77C622.7,760.23,616.25,751.18,616.25,739.26Zm27.42-.81C643,730,640,720.19,631.81,720.19c-7,0-10.48,10.08-10,19.07s4.15,19,12.1,19C641.14,758.27,644.42,748.07,643.67,738.45Z" fill="#020202"/><path d="M685.36,758.73a3.43,3.43,0,0,1,6-3.34,3.15,3.15,0,0,1-1.33,4.44A3.22,3.22,0,0,1,685.36,758.73Z" fill="#020202"/><path d="M729.36,766.1c1-.86,2.53-2.3,2.76-6.28a3.43,3.43,0,0,1-.81.11,3.33,3.33,0,0,1-3.23-3.4,3.77,3.77,0,0,1,3.57-3.34,4.09,4.09,0,0,1,3.63,3.63,10.66,10.66,0,0,1-5.3,10.6A.74.74,0,0,1,729.36,766.1Z" fill="#020202"/><path d="M772.25,738a3.43,3.43,0,0,1,6-3.34,3.15,3.15,0,0,1-1.32,4.44A3.22,3.22,0,0,1,772.25,738Zm0,20.74a3.43,3.43,0,0,1,6-3.34,3.15,3.15,0,0,1-1.32,4.44A3.22,3.22,0,0,1,772.25,758.73Z" fill="#020202"/><path d="M816,738a3.43,3.43,0,0,1,6-3.34,3.15,3.15,0,0,1-1.33,4.44A3.22,3.22,0,0,1,816,738ZM817.34,766c1-.86,2.54-2.3,2.77-6.28a3.39,3.39,0,0,1-.81.11,3.33,3.33,0,0,1-3.23-3.4,3.58,3.58,0,0,1,3.51-3.34c2.07,0,3.4,1.61,3.69,3.63a10.66,10.66,0,0,1-5.3,10.6A.74.74,0,0,1,817.34,766Z" fill="#020202"/><path d="M862.49,758.73a3.43,3.43,0,0,1,6-3.34,3.15,3.15,0,0,1-1.33,4.44A3.22,3.22,0,0,1,862.49,758.73Zm4.21-10.43c0,.52-2.53.52-2.53,0,0-.92-1.21-26.67-1.21-27.3s5.65-2.07,5.65-1.44S866.69,747.38,866.69,748.3Z" fill="#020202"/><path d="M919.16,740.87a8.79,8.79,0,0,0-1.5,3.8,26.5,26.5,0,0,0-.29,3.69c0,.4-2.88.35-2.88,0,0-2.94.29-6.57,1.61-8.53,2.36-3.57,7.32-7.49,7.37-12.62,0-3.46-2.07-8.64-7.66-8.64-4.84,0-8.64,4.78-8.64,8.24,0,.35-.75.35-.75,0,0-1.38-.17-6.68.11-6.91a15.63,15.63,0,0,1,10-3.28c7.14,0,11.52,4.61,11.58,10.83C928.14,734,922.21,737.3,919.16,740.87Zm-5.76,17.86a3.43,3.43,0,0,1,6-3.34,3.15,3.15,0,0,1-1.33,4.44A3.22,3.22,0,0,1,913.4,758.73Z" fill="#020202"/><path d="M966.55,754.24a3.15,3.15,0,0,1,1.32,4.44,3.43,3.43,0,0,1-6-3.34A3.22,3.22,0,0,1,966.55,754.24Zm11.35,0a3.15,3.15,0,0,1,1.32,4.44,3.43,3.43,0,0,1-6-3.34A3.22,3.22,0,0,1,977.9,754.24Zm11.12,0a3.15,3.15,0,0,1,1.32,4.44,3.43,3.43,0,0,1-6-3.34A3.22,3.22,0,0,1,989,754.24Z" fill="#020202"/><path d="M1033.93,734.07c-.06.46-1.61.46-1.67,0-.69-5.53-1.56-12.61-1.56-13.19,0-.86,5.07-1.44,5.07-.52C1035.77,721,1034.62,728.83,1033.93,734.07Z" fill="#020202"/><path d="M1079.07,734.07c-.06.46-1.61.46-1.67,0-.69-5.53-1.56-12.61-1.56-13.19,0-.86,5.07-1.44,5.07-.52C1080.92,721,1079.77,728.83,1079.07,734.07Zm10.2,0c-.06.46-1.61.46-1.67,0-.69-5.53-1.56-12.61-1.56-13.19,0-.86,5.07-1.44,5.07-.52C1091.11,721,1090,728.83,1089.27,734.07Z" fill="#020202"/><path d="M1136.09,731.6a10.66,10.66,0,0,1-5.3-10.6,4.09,4.09,0,0,1,3.63-3.63,3.77,3.77,0,0,1,3.57,3.34,3.33,3.33,0,0,1-3.23,3.4,3.39,3.39,0,0,1-.81-.11c.23,4,1.73,5.41,2.76,6.28A.74.74,0,0,1,1136.09,731.6Zm9.27,0a10.66,10.66,0,0,1-5.3-10.6,4.09,4.09,0,0,1,3.63-3.63,3.77,3.77,0,0,1,3.57,3.34,3.33,3.33,0,0,1-3.23,3.4,3.39,3.39,0,0,1-.81-.11c.23,4,1.73,5.41,2.76,6.28A.74.74,0,0,1,1145.36,731.6Z" fill="#020202"/><path d="M1186.94,730.27c1-.86,2.53-2.3,2.76-6.28a3.39,3.39,0,0,1-.81.11,3.33,3.33,0,0,1-3.23-3.4,3.77,3.77,0,0,1,3.57-3.34,4.09,4.09,0,0,1,3.63,3.63,10.66,10.66,0,0,1-5.3,10.6A.74.74,0,0,1,1186.94,730.27Zm9.27,0c1-.86,2.53-2.3,2.76-6.28a3.39,3.39,0,0,1-.81.11,3.33,3.33,0,0,1-3.23-3.4,3.77,3.77,0,0,1,3.57-3.34,4.09,4.09,0,0,1,3.63,3.63,10.66,10.66,0,0,1-5.3,10.6A.74.74,0,0,1,1196.21,730.27Z" fill="#020202"/><path d="M1249.88,719.39a1.94,1.94,0,0,1,3.23,0,104.34,104.34,0,0,0,8.24,13.77c.4.52-.4,1-.86.58a93.58,93.58,0,0,1-9-7.83c-2.65,2.53-7,6.11-9,7.83-.4.4-1.21-.11-.81-.58A142.23,142.23,0,0,0,1249.88,719.39Z" fill="#020202"/><path d="M1300.38,743.29c4,3.69,5.82,5.47,5.82,11.18v8.35c0,5.07,2.65,6.85,3.86,6.91.35,0,.17.52,0,.52-2.13,0-7.72-2-7.72-7.43v-8.35c0-5.59-1.21-6.91-4.84-11.18,3.63-4.21,4.84-5.65,4.84-11.17v-8.58c0-5.41,5.59-7.43,7.72-7.43.17,0,.35.52,0,.52-1.21.06-3.86,1.84-3.86,6.91v8.58C1306.2,737.82,1304.3,739.55,1300.38,743.29Z" fill="#020202"/><path d="M1356.47,743.29c-3.92-3.74-5.82-5.47-5.82-11.17v-8.58c0-5.07-2.65-6.85-3.86-6.91-.35,0-.17-.52,0-.52,2.13,0,7.72,2,7.72,7.43v8.58c0,5.53,1.21,7,4.84,11.17-3.63,4.26-4.84,5.59-4.84,11.18v8.35c0,5.41-5.59,7.43-7.72,7.43-.17,0-.35-.52,0-.52,1.21-.06,3.86-1.84,3.86-6.91v-8.35C1350.66,748.76,1352.5,747,1356.47,743.29Z" fill="#020202"/><path d="M1404,715.35v58.12c0,.35-4.15.75-4.2.52V715.64C1399.83,715.18,1404,715.07,1404,715.35Z" fill="#020202"/><path d="M1456,770a33.17,33.17,0,0,1-11.58-25.52c0-18.09,10-26.67,11.58-28.28.17-.17.63.17.46.46-.92,1.21-7.55,9.27-7.49,27.19.06,15.67,6.57,24.71,7.55,25.75C1456.68,769.73,1456.16,770.14,1456,770Z" fill="#020202"/><path d="M1493.18,716.16a33.18,33.18,0,0,1,11.58,25.52c0,18.09-10,26.67-11.58,28.28-.17.17-.63-.17-.46-.46.92-1.21,7.55-9.27,7.49-27.19-.06-15.67-6.57-24.71-7.55-25.75C1492.49,716.39,1493,716,1493.18,716.16Z" fill="#020202"/><path d="M1558.43,718.87l-15.15,49.66c-.17.35-3.74.75-3.63.52l15.27-49.89C1555.09,718.69,1558.6,718.58,1558.43,718.87Z" fill="#020202"/><path d="M373.92,854.23h-7.37c-.58,0-.86-.17-.86-1.27V803.65c0-.46,0-.69.46-.69h8.58c.46,0-.4,2.25-.69,2.25h-4.38V852h5C374.78,852,374.21,854.23,373.92,854.23Z" fill="#020202"/><path d="M448.47,854.23h-7.37c-.35,0-1-2.25-.69-2.25h5V805.21H441c-.29,0-1-2.25-.69-2.25h8.58c.46,0,.46.23.46.69v49.19C449.33,853.83,449,854.23,448.47,854.23Z" fill="#020202"/><path d="M540.87,812.18c-5,3.63-14.46,10.54-21.89,15.9,6.28,4.32,16.82,11.41,22.06,15,.86.63-.4,2.53-1.5,1.9-7.95-4.44-24.65-14.17-27.3-15.84-.4-.23-.46-2,0-2.3,2.65-1.67,19-11.58,27.36-16.48C540.47,809.88,541.85,811.49,540.87,812.18Z" fill="#020202"/><path d="M630.69,826.87c.46.29.4,2.07,0,2.3-2.65,1.67-19.36,11.41-27.3,15.84-1.09.63-2.36-1.27-1.5-1.9,5.24-3.63,15.78-10.71,22.06-15-7.43-5.36-16.94-12.27-21.89-15.9-1-.69.4-2.3,1.27-1.79C611.68,815.29,628,825.2,630.69,826.87Z" fill="#020202"/><path d="M692.22,805.56l15.26,49.89c.12.23-3.46-.17-3.63-.52L688.7,805.27C688.53,805,692,805.09,692.22,805.56Z" fill="#020202"/><path d="M780.7,847.66v-4.38c-4.61-.23-8.76-1.61-9.62-2.36-.63-.75.4-7.83.86-8.93.17-.35,1-.23,1,0a13.38,13.38,0,0,0-.29,1.61c-.29,3.92,3.28,7.14,8.06,7.72V825.72l-.4-.23c-3.23-2.07-9.22-4.55-9.22-11,0-4.72,3.74-8.18,9.62-8.64v-3.51c0-.46,2.36-.58,2.36-.29v3.74c3.86.23,7.43,1.44,8.18,2.13s-.4,7.43-.81,8.3c-.11.29-.92.23-.86,0a7.65,7.65,0,0,0,.17-1.61c0-3.34-2.76-6.16-6.68-6.91v13.83c.35.17.63.4,1,.58,3.69,2.3,8.93,4.9,8.93,11.41,0,4.26-2.94,9.39-9.91,9.85v3.8C783.07,847.49,780.76,847.89,780.7,847.66Zm0-27.54V807.51c-4,.12-5.82,2.42-5.82,5.36C774.89,816.27,777.71,818.34,780.7,820.13Zm2.36,7v14.29c4-.35,6-3.69,6-7.09S785.89,828.77,783.07,827.1Z" fill="#020202"/><path d="M872.07,836c-.06,6.22-4.44,10.83-11.58,10.83a15.63,15.63,0,0,1-10-3.28c-.29-.23-.11-5.53-.11-6.91,0-.35.75-.35.75,0,0,3.46,3.8,8.24,8.64,8.24,5.59,0,7.66-5.18,7.66-8.64-.06-5.13-5-9-7.37-12.62-1.33-2-1.61-5.59-1.61-8.53,0-.35,2.88-.4,2.88,0,0,2.65.46,5.88,1.79,7.49C866.2,826.12,872.13,829.4,872.07,836ZM862,803.6a3.15,3.15,0,0,1,1.33,4.44,3.43,3.43,0,0,1-6-3.34A3.22,3.22,0,0,1,862,803.6Z" fill="#020202"/><path d="M938,806.36a3.15,3.15,0,0,1,1.33,4.44,3.43,3.43,0,0,1-6-3.34A3.22,3.22,0,0,1,938,806.36Zm1.44,40.27c0,.63-5.65-.81-5.65-1.44S935,818.8,935,817.88c0-.52,2.53-.52,2.53,0C937.52,818.8,939.42,845.94,939.42,846.63Z" fill="#020202"/><path d="M1011.72,839V828.31h-10.08c-.17,0-.06-.63.17-1.27s.4-1.27.69-1.27h9.22v-9.85c0-.29,3.57-1,3.57-.75v10.6h9.85c.11,0-.12.63-.23,1.21s-.35,1.32-.58,1.32h-9v9.79C1015.29,838.62,1011.72,839.31,1011.72,839Z" fill="#020202"/><path d="M1090.76,829.29c-.35,0,.29-2.3.75-2.3h20.57c.23,0-.4,2.3-.69,2.3Zm7.89-8.87a3,3,0,0,1,1.33-4.15,2.95,2.95,0,1,1-1.33,4.15Zm0,18.09a3,3,0,0,1,1.33-4.15,3,3,0,1,1-1.33,4.15Z" fill="#020202"/><path d="M1177.41,823.93c-.35,0,.29-2.3.75-2.3h20.56c.23,0-.4,2.3-.69,2.3Zm0,9.33c-.35,0,.29-2.3.75-2.3h20.56c.23,0-.4,2.3-.69,2.3Z" fill="#020202"/><path d="M1273.56,827.21c-2.13-.81-4.38-1.9-5.93-1.9a5.06,5.06,0,0,0-4.32,3c-.23.4-1.21.29-1.15,0,.29-1.79,1.73-6.28,5.7-6.28a19.9,19.9,0,0,1,6.28,1.56,17.24,17.24,0,0,0,5.24,1.61c1.9,0,3.4-1.38,4.38-3.05.23-.4,1.21-.29,1.15,0-.35,1.79-1.84,6.22-5.88,6.22A16.35,16.35,0,0,1,1273.56,827.21Z" fill="#020202"/><path d="M1359.68,844.73l1.61-10.83h-8.93l-1.55,10.31c-.17.35-3.74.75-3.63.52l1.61-10.83h-5.47c-.35,0,.29-2.3.75-2.3h5.13l1.44-9.56h-6c-.35,0,.29-2.3.75-2.3H1351l1.5-10c.17-.46,3.69-.58,3.51-.29l-1.56,10.25h9l1.5-10c.17-.46,3.69-.58,3.51-.29l-1.5,10.25h5.36c.23,0-.4,2.3-.69,2.3h-5l-1.44,9.56h6.16c.23,0-.4,2.3-.69,2.3h-5.82l-1.5,10.31C1363.14,844.55,1359.57,845,1359.68,844.73Zm2-13.13,1.44-9.56h-9l-1.38,9.56Z" fill="#020202"/><path d="M1431.92,815.18c0-5.18,3.4-10.48,8.58-10.48,5,0,8.58,4.32,8.58,10.08,0,4.78-3.17,10.89-8.47,10.89C1435.5,825.66,1431.92,821.11,1431.92,815.18Zm13.59-.4c-.29-4-1.56-8.53-5.41-8.53-3.34,0-4.84,4.67-4.61,8.93s1.79,8.87,5.59,8.87C1444.48,824,1445.92,819.32,1445.52,814.77ZM1466.08,803l-11.69,21.89c-3.51,6.63-8.93,16.53-12,22.35-.17.35-4,.23-3.92,0,3.34-5.93,9.62-16.88,12.61-22.41,2.42-4.49,8.58-16.88,11.06-21.83C1462.28,802.5,1466.26,802.68,1466.08,803Zm-10.31,33c0-5.18,3.4-10.48,8.58-10.48,5,0,8.58,4.32,8.58,10.08,0,4.78-3.17,10.89-8.47,10.89C1459.34,846.46,1455.77,841.9,1455.77,836Zm13.59-.4c-.29-4-1.56-8.53-5.41-8.53-3.34,0-4.84,4.67-4.61,8.93s1.79,8.87,5.59,8.87C1468.33,844.84,1469.77,840.12,1469.37,835.57Z" fill="#020202"/><path d="M1551.52,825.2c-1.67-1.56-4.72-4.84-7-6.91-2.25,2-3.74,3.63-7,6.91-.35.35-1-.23-.81-.58,1-2.07,3.05-5.93,4.44-8.93-2.59-1.5-5.76-3.17-8.7-4.55a.57.57,0,0,1,.11-1.09c1,0,6.63,1.15,9.85,1.5.58-2.82,1.21-6.51,1.56-9.68.06-.52,1-.46,1.09,0,.23,2.25,1,6.63,1.67,9.68,3.4-.35,9.1-1.5,9.91-1.5.46,0,.58.86.12,1.09-2,1-6,3-8.76,4.55a81.1,81.1,0,0,0,4.49,8.93C1552.78,825.14,1551.92,825.6,1551.52,825.2Z" fill="#020202"/></svg>