<svg id="Layer_1" data-name="Layer 1" xmlns="http://www.w3.org/2000/svg" viewBox="0 0 1920 1080"><title>accentsArtboard 1</title><path d="M549.34,142.46c.63,8.95,6.34,15.6,13.78,15.6a13.93,13.93,0,0,0,8.87-3c.95-.79,1.27,0,.87.47a15.89,15.89,0,0,1-12.27,5.62c-11.32,0-17.58-7.29-17.58-17.66,0-10.61,9.43-18.77,19.32-18.77,7.52,0,10.53,3.56,10.53,6,0,1.19-.71,2.46-3,3.17-.79.24-2.38.63-2.38.4,0-2.54-1.82-7.36-6.57-7.36C553.45,126.94,548.78,134.94,549.34,142.46Z" fill="#ada682"/><path d="M595.11,160.75c-.87,0-6.73-.63-8.95-.63-1.9,0-7.84.63-8.79.63-.63,0-.47-1.11.24-1.11a5.59,5.59,0,0,0,4-1.82c1.27-1.74,1.66-9.27,1.66-12.35v-4.59c0-3.09.24-9.82-1.27-11.64-1.27-1.58-3.09-1-4.51-.79-.55.08-.87-.95,0-1.19,1-.24,8.39-2,10.61-2.45.95-.24,1.35-.08,1.35.95l-.16,6.65c1.58-3.33,5-7.68,9.5-7.68s7,3.56,7,6c0,1.19-.32,2.46-2.61,3.17-.79.24-2.38.63-2.38.4,0-2.54-2.22-6.34-5.07-6.34-2.37,0-5.15,4-6.57,8.23l-.08,4.67v4.59c0,3.09-.08,10.37,1.35,12.51.95,1.42,3.56,1.66,4.43,1.66C595.59,159.65,595.75,160.75,595.11,160.75Z" fill="#ada682"/><path d="M628.85,161.15c-9,0-17-5.7-17-17.11s7.44-19.32,16.39-19.32c8.16,0,13.86,5.15,13.86,11.09,0,2.3-.87,2.85-2.77,3.25l-21.07,4.51c1,7.36,5.86,14.49,13.7,14.49a14.1,14.1,0,0,0,8.87-3.09c.63-.55,1.27-.24.79.55C640.57,157.27,636,161.15,628.85,161.15Zm2.3-42c.47.55-.4,1.11-1,.71-3.72-2.22-12.19-10.22-12.91-11.32-.55-.79,5.7-3.56,6.18-2.69C624.26,107.46,627.82,115.22,631.15,119.18ZM618,141.12l17.9-3.8c-.32-5.7-3-10.14-8.95-10.14C620.3,127.18,617.68,133.59,618,141.12Z" fill="#ada682"/><path d="M709.47,160.75c-.87,0-6.73-.63-8.95-.63-1.9,0-7.84.63-8.79.63-.63,0-.47-1.11.24-1.11a5.58,5.58,0,0,0,4-1.82c1.27-1.74,1.66-9.27,1.66-12.35v-7c0-6.33-1.58-10.45-6.41-10.45-3.8,0-7.44,3-9.19,6.26.08,1.11.16,2.3.16,3.56v7.6c0,3.09-.08,10.37,1.34,12.51,1,1.42,3.64,1.66,4.51,1.66.63,0,.79,1.11.16,1.11-.87,0-6.73-.63-8.95-.63-1.9,0-7.84.63-8.79.63-.63,0-.48-1.11.24-1.11a5.58,5.58,0,0,0,4-1.82c1.27-1.74,1.58-9.27,1.58-12.35v-6.65c0-8.55-2.69-10.85-6.81-10.85-3.8,0-7.52,3.8-9.26,7.21l-.08,5.15v5.15c0,3.09-.08,10.37,1.34,12.51,1,1.42,3.56,1.66,4.44,1.66.63,0,.79,1.11.16,1.11-.87,0-6.73-.63-8.95-.63-1.9,0-7.84.63-8.79.63-.63,0-.47-1.11.24-1.11a5.58,5.58,0,0,0,4-1.82c1.27-1.74,1.66-9.27,1.66-12.35v-4.59c0-3.09.16-9.58-1.42-11.64-1.19-1.58-3.72-1-5.15-.79-.55.08-.87-.95,0-1.19,1-.24,9.19-2,11.4-2.45.95-.24,1.34-.08,1.34.95l-.16,5.78c2-2.77,6.33-6.81,12-6.81,4.2,0,7.68,1.42,9.11,6.65,2.14-3,6.57-6.65,12-6.65,6.49,0,10.06,3.88,10.06,12.83v7.92c0,3.09-.08,10.37,1.35,12.51.95,1.42,3.56,1.66,4.43,1.66C709.95,159.65,710.1,160.75,709.47,160.75Z" fill="#ada682"/><path d="M732,161.15c-9,0-17-5.7-17-17.11s7.44-19.32,16.39-19.32c8.16,0,13.86,5.15,13.86,11.09,0,2.3-.87,2.85-2.77,3.25l-21.07,4.51c1,7.36,5.86,14.49,13.7,14.49A14.1,14.1,0,0,0,744,155c.63-.55,1.27-.24.79.55C743.77,157.27,739.17,161.15,732,161.15Zm-10.85-20,17.9-3.8c-.32-5.7-3-10.14-8.95-10.14C723.49,127.18,720.88,133.59,721.2,141.12Z" fill="#ada682"/><path d="M798.81,160.75c-.87,0-6.73-.63-8.95-.63-1.9,0-7.84.63-8.79.63-.63,0-.47-1.11.24-1.11a5.58,5.58,0,0,0,4-1.82c1.27-1.74,1.66-9.27,1.66-12.35V127.18c-2.3.16-5.07.32-6.65.32-.63,0,.24-2.38,1-2.38H787v-8.23c0-11.09,4.2-16.16,11.4-16.16,4.83,0,8.55,3.17,8.55,6,0,1.19-.32,2.45-2.61,3.17-.79.24-2.22.63-2.22.4,0-3.8-.95-7.52-4.43-7.52-5.07,0-4.83,5.78-4.83,13.46v8.87h8.63c.63,0-.08,2-.79,2-2.22-.08-5.31,0-7.84,0v18.37c0,3.09-.08,10.37,1.34,12.51,1,1.42,3.56,1.66,4.44,1.66C799.28,159.65,799.44,160.75,798.81,160.75Z" fill="#ada682"/><path d="M822.73,160.75c-.87,0-6.73-.63-8.95-.63-1.9,0-7.84.63-8.79.63-.63,0-.47-1.11.24-1.11a5.59,5.59,0,0,0,4-1.82c1.27-1.74,1.66-9.27,1.66-12.35v-4.59c0-3.09.24-9.82-1.27-11.64-1.27-1.58-3.09-1-4.51-.79-.55.08-.87-.95,0-1.19,1-.24,8.39-2,10.61-2.45.95-.24,1.35-.08,1.35.95l-.16,6.65c1.58-3.33,5-7.68,9.5-7.68s7,3.56,7,6c0,1.19-.32,2.46-2.61,3.17-.79.24-2.38.63-2.38.4,0-2.54-2.22-6.34-5.07-6.34-2.37,0-5.15,4-6.57,8.23l-.08,4.67v4.59c0,3.09-.08,10.37,1.35,12.51.95,1.42,3.56,1.66,4.43,1.66C823.2,159.65,823.36,160.75,822.73,160.75Z" fill="#ada682"/><path d="M859.79,153.94c-2.3,3.25-6.49,7.21-11.24,7.21-5.78,0-10.14-3.56-9.9-9.26.4-8.32,12.67-10.22,20.91-11.64v-2.3c0-5.94-2.69-10.93-7.84-10.93-5.86,0-7,4.83-6.81,7.36,0,.24-1.59.08-2.38-.16-2.22-.71-2.54-1.27-2.54-2.46,0-2.45,4-7,11.48-7,9.66,0,13.94,5.46,13.94,12.75v8c0,3.09.24,9.74,1.51,12.19.79,1.51,3.17,2,4,2s.63,1,0,1.11a30.78,30.78,0,0,1-4,.24c-2.69,0-3.72-.16-4.67-.87C860.82,159,860.11,156.79,859.79,153.94Zm-8.79,4.2c3.33,0,7.36-3.41,8.63-7a20,20,0,0,1-.08-2.22V142.7c-6.73,1-14.41,2.53-14.81,8.23C844.51,154.5,846.25,158.14,851,158.14Z" fill="#ada682"/><path d="M883.55,105a1.93,1.93,0,0,1,3.17,0,160.18,160.18,0,0,0,8.39,14.73c.4.63-.63,1-1.11.63a79.33,79.33,0,0,1-8.87-8.55c-2.38,2.93-7,6.73-8.87,8.63-.4.4-1.42-.08-1.11-.63C878.8,114.11,883,106.27,883.55,105Zm-2.45,24.23c-1.19-1.58-3.72-1-5.15-.79-.55.08-.87-.95,0-1.19,1-.24,9-2,11.24-2.45,1-.24,1.5-.08,1.5,1l-.32,15v4.59c0,3.09-.08,10.37,1.34,12.51,1,1.42,3.56,1.66,4.44,1.66.63,0,.79,1.11.16,1.11-.87,0-6.73-.63-8.95-.63-1.9,0-7.84.63-8.79.63-.63,0-.47-1.11.24-1.11a5.58,5.58,0,0,0,4-1.82c1.27-1.74,1.66-9.27,1.66-12.35v-4.59C882.52,137.79,882.68,131.29,881.1,129.24Z" fill="#ada682"/><path d="M906.68,142.46c.63,8.95,6.34,15.6,13.78,15.6a13.93,13.93,0,0,0,8.87-3c.95-.79,1.27,0,.87.47a15.89,15.89,0,0,1-12.27,5.62c-11.32,0-17.58-7.29-17.58-17.66,0-10.61,9.43-18.77,19.32-18.77,7.52,0,10.53,3.56,10.53,6,0,1.19-.71,2.46-3,3.17-.79.24-2.38.63-2.38.4,0-2.54-1.82-7.36-6.57-7.36C910.8,126.94,906.12,134.94,906.68,142.46Z" fill="#ada682"/><path d="M976.45,160.75c-.87,0-6.73-.63-8.95-.63-1.9,0-7.84.63-8.79.63-.63,0-.48-1.11.24-1.11a5.58,5.58,0,0,0,4-1.82c1.27-1.74,1.66-9.27,1.66-12.35v-7c0-8.08-2.61-10-7.13-10-4.2,0-9.27,3.64-11,7.29v9.66c0,3.09-.08,10.37,1.35,12.51.95,1.42,3.56,1.66,4.43,1.66.63,0,.79,1.11.16,1.11-.87,0-6.73-.63-8.95-.63-1.9,0-7.84.63-8.79.63-.63,0-.47-1.11.24-1.11a5.59,5.59,0,0,0,4-1.82c1.27-1.74,1.66-9.27,1.66-12.35V115.85c0-3.09.24-9.82-1.27-11.64-1.27-1.58-3.09-1-4.51-.79-.55.08-.87-1,0-1.19,1-.24,8.39-2,10.61-2.46.95-.24,1.35-.08,1.35.95l-.32,15.13v16.08a16.88,16.88,0,0,1,13.62-7.21c6.57,0,10.37,3.72,10.37,13.54v7.21c0,3.09-.08,10.37,1.34,12.51,1,1.42,3.56,1.66,4.43,1.66C976.92,159.65,977.08,160.75,976.45,160.75Z" fill="#ada682"/><path d="M999,161.15c-9,0-17-5.7-17-17.11s7.44-19.32,16.39-19.32c8.16,0,13.86,5.15,13.86,11.09,0,2.3-.87,2.85-2.77,3.25l-21.07,4.51c1,7.36,5.86,14.49,13.7,14.49A14.1,14.1,0,0,0,1011,155c.63-.55,1.27-.24.79.55C1010.74,157.27,1006.15,161.15,999,161.15Zm-10.85-20,17.9-3.8c-.32-5.7-3-10.14-8.95-10.14C990.47,127.18,987.86,133.59,988.17,141.12Z" fill="#ada682"/><path d="M583.15,259.75c-.87,0-6.73-.63-8.95-.63-1.9,0-7.84.63-8.79.63-.63,0-.48-1.11.24-1.11a5.58,5.58,0,0,0,4-1.82c1.27-1.74,1.66-9.27,1.66-12.35v-7c0-8.08-2.61-10-7.13-10-4.2,0-9.27,3.64-11,7.29v9.66c0,3.09-.08,10.37,1.35,12.51.95,1.42,3.56,1.66,4.43,1.66.63,0,.79,1.11.16,1.11-.87,0-6.73-.63-8.95-.63-1.9,0-7.84.63-8.79.63-.63,0-.47-1.11.24-1.11a5.59,5.59,0,0,0,4-1.82c1.27-1.74,1.66-9.27,1.66-12.35V214.85c0-3.09.24-9.82-1.27-11.64-1.27-1.58-3.09-1-4.51-.79-.55.08-.87-1,0-1.19,1-.24,8.39-2,10.61-2.46.95-.24,1.35-.08,1.35.95l-.32,15.13v16.08a16.88,16.88,0,0,1,13.62-7.21c6.57,0,10.37,3.72,10.37,13.54v7.21c0,3.09-.08,10.37,1.34,12.51,1,1.42,3.56,1.66,4.43,1.66C583.63,258.65,583.78,259.75,583.15,259.75Z" fill="#aaaa81"/><path d="M588.7,242.41c0-9.66,6.81-18.69,17.11-18.69,9.34,0,18.21,5.86,18.21,17.5,0,10.37-6.65,18.93-17.9,18.93C597,260.15,588.7,254.61,588.7,242.41Zm29,.4c-.79-7.92-4.43-16.87-12.67-16.87-7.68,0-10.69,8-9.9,15.2.95,8.71,5.31,16.71,12.51,16.71C615.15,257.85,618.4,249.85,617.68,242.81ZM605.09,204a1.93,1.93,0,0,1,3.17,0,160.18,160.18,0,0,0,8.39,14.73c.4.63-.63,1-1.11.63a79.33,79.33,0,0,1-8.87-8.55c-2.37,2.93-7,6.73-8.87,8.63-.4.4-1.42-.08-1.11-.63C600.34,213.11,604.54,205.27,605.09,204Z" fill="#aaaa81"/><path d="M640.57,226.1v25.18c0,4.28,2.69,6.1,5.62,6.1a11.51,11.51,0,0,0,3.72-.79c.4-.16,1.19,1.19.4,1.66-1.19.71-4.28,2.14-6.33,2.14-5.23,0-9.5-2.85-9.5-9.11v-25.1h-5.86c-.55,0,0-2.06.63-2.06a9.2,9.2,0,0,0,9.18-9.27c0-.79,2.14-.87,2.14,0v9c3.33,0,7.68-.48,9.5-2,.47-.24,0,4.28-.55,4.28Z" fill="#aaaa81"/><path d="M672,260.15c-9,0-17-5.7-17-17.11s7.44-19.32,16.39-19.32c8.16,0,13.86,5.15,13.86,11.09,0,2.3-.87,2.85-2.77,3.25l-21.07,4.51c1,7.36,5.86,14.49,13.7,14.49A14.1,14.1,0,0,0,684,254c.63-.55,1.27-.24.79.55C683.73,256.27,679.14,260.15,672,260.15Zm-10.85-20,17.9-3.8c-.32-5.7-3-10.14-8.95-10.14C663.46,226.18,660.85,232.59,661.16,240.12Z" fill="#aaaa81"/><path d="M702.19,244.47c0,3.09-.08,10.37,1.35,12.51.95,1.42,3.56,1.66,4.43,1.66.63,0,.79,1.11.16,1.11-.87,0-6.73-.63-8.95-.63-1.9,0-7.84.63-8.79.63-.63,0-.47-1.11.24-1.11a5.59,5.59,0,0,0,4-1.82c1.27-1.74,1.66-9.27,1.66-12.35V214.85c0-3.09.24-9.82-1.27-11.64-1.27-1.58-3.09-1-4.51-.79-.55.08-.87-1,0-1.19,1-.24,8.39-2,10.61-2.46.95-.24,1.35-.08,1.35.95l-.32,15.13Z" fill="#aaaa81"/><path d="M568.9,353.05c-1.82,2.22-5.54,6.1-10.77,6.1-9.35,0-15.13-6.81-15.13-17.42,0-10.37,6.81-19,16.63-19a25.34,25.34,0,0,1,9,1.82V313.85c0-3.09.32-9.82-1.19-11.64-1.27-1.58-3.09-1-4.51-.79-.55.08-.87-1,0-1.19,1-.24,8.39-2,10.61-2.46.95-.24,1.35-.08,1.35.95l-.4,15.13v29.62c0,3.09.24,9.74,1.51,12.19.79,1.51,3.17,2,4,2s.63,1,0,1.11c-.48.08-2.38.16-4.2.16s-4.28,0-5.31-1S569.13,355.19,568.9,353.05Zm-8.16,3.09c3.56,0,6.57-3.17,7.92-6.57V327.95a17.47,17.47,0,0,0-9.27-2.61c-6.49,0-10.29,5.54-10.29,12.91C549.1,344.58,552.5,356.14,560.74,356.14Z" fill="#a3a882"/><path d="M602.8,359.15c-9,0-17-5.7-17-17.11s7.44-19.32,16.39-19.32c8.16,0,13.86,5.15,13.86,11.09,0,2.3-.87,2.85-2.77,3.25l-21.07,4.51c1,7.36,5.86,14.49,13.7,14.49a14.1,14.1,0,0,0,8.87-3.09c.63-.55,1.27-.24.79.55C614.52,355.27,609.92,359.15,602.8,359.15Zm-10.85-20,17.9-3.8c-.32-5.7-3-10.14-8.95-10.14C594.24,325.18,591.63,331.59,591.95,339.12Zm3.72-21.94c3.33-4,6.89-11.72,7.76-13.31.47-.87,6.73,1.9,6.18,2.69-.71,1.11-9.19,9.11-12.91,11.32C596.06,318.29,595.19,317.73,595.67,317.18Z" fill="#a3a882"/><path d="M626.4,327.24c-1.27-1.58-3.09-1-4.51-.79-.55.08-.87-.95,0-1.19,1-.24,8.39-2,10.61-2.45.95-.24,1.34-.08,1.34.95l-.32,15.13v20.51c0,10.06-8.31,18.06-16.79,19-.47.08-.47-1.35.16-1.43,7.84-1.34,10.77-10.06,10.77-17.58V338.88C627.66,335.79,627.9,329.06,626.4,327.24Zm-.63-17.58c-.79-2,.32-4.91,2.45-5.38,2.06-.71,5,.24,5.39,2.29.87,2.61-.16,4.91-2.46,5.47C629,312.67,626.4,311.87,625.76,309.66Z" fill="#a3a882"/><path d="M664.57,351.94c-2.3,3.25-6.49,7.21-11.24,7.21-5.78,0-10.14-3.56-9.9-9.26.4-8.32,12.67-10.22,20.91-11.64v-2.3c0-5.94-2.69-10.93-7.84-10.93-5.86,0-7,4.83-6.81,7.36,0,.24-1.59.08-2.38-.16-2.22-.71-2.54-1.27-2.54-2.46,0-2.45,4-7,11.48-7,9.66,0,13.94,5.46,13.94,12.75v8c0,3.09.24,9.74,1.51,12.19.79,1.51,3.17,2,4,2s.63,1,0,1.11a30.78,30.78,0,0,1-4,.24c-2.69,0-3.72-.16-4.67-.87C665.6,357,664.89,354.79,664.57,351.94ZM662,317.18c.47.55-.4,1.11-1,.71-3.72-2.22-12.2-10.22-12.91-11.32-.55-.79,5.7-3.56,6.18-2.69C655.07,305.46,658.63,313.22,662,317.18Zm-6.18,39c3.33,0,7.36-3.41,8.63-7a20,20,0,0,1-.08-2.22V340.7c-6.73,1-14.41,2.53-14.81,8.23C649.29,352.5,651,356.14,655.78,356.14Z" fill="#a3a882"/><path d="M682.47,341c-.48,0,.4-4.12,1-4.12h17.74c.32,0-.47,4.12-.95,4.12Z" fill="#a3a882"/><path d="M724.68,358.2c-2.45-2.46-7.44-12.43-10.29-19.8-2.22-5.7-3.48-11-5.31-12.67a5.19,5.19,0,0,0-3.8-1.5c-.63,0-.63-1.19,0-1.19.87,0,6.1.4,8.31.4,1.9,0,7.68-.32,8.63-.32.63,0,.47,1.27-.24,1.27s-3.41-.16-4,1.34c-1,2.38.71,7.29,2.77,12.59a58.21,58.21,0,0,0,6.89,13.3c1.66-4.51,3.64-9.74,5.31-14.41,2-5.31,3.56-10,3.33-11.32s-3.17-1.5-4-1.5-.87-1.27-.24-1.27c.95,0,4.91.4,6.81.4,2.22,0,5.46-.4,6.34-.4.63,0,.47,1.27-.16,1.27-.87,0-3.25,0-4,1.5s-2.69,5.62-5,11c-2.77,6.49-5.86,14.65-8.95,21.3C726.5,359.47,725.31,358.83,724.68,358.2Z" fill="#a3a882"/><path d="M776.32,351.15c-1.58,3.25-5.3,8-11.8,8-7.92,0-11.8-5.07-11.8-14.18v-6.1c0-3.09.24-9.82-1.27-11.64-1.27-1.58-3.09-1-4.51-.79-.55.08-.87-.95,0-1.19,1-.24,8.39-2,10.61-2.45,1-.24,1.35-.08,1.35.95l-.32,15.13v5.86c0,7.13,2.45,11.09,7.29,11.09,4.67,0,8.79-4.35,10.37-8.08v-8.87c0-3.09.16-9.58-1.42-11.64-1.19-1.58-3.72-1-5.15-.79-.55.08-.87-.95,0-1.19,1-.24,9.19-2,11.4-2.45.95-.24,1.34-.08,1.34.95l-.32,15.13v4.59c0,3.09.24,9.74,1.5,12.19.79,1.51,3.17,2,4,2s.63,1,0,1.11-3.09.24-5.07.24c-1.74,0-3.72-.32-4.59-1.34C777,356.38,776.48,353.92,776.32,351.15Z" fill="#a3a882"/><path d="M556.54,475.89c-8.55,0-16.31-2.54-16.31-9,0-3.8,4.83-6.25,12.67-9.66-6.73-1.11-8.87-4-8.87-6.34,0-2.85,2.85-4.75,6.1-5.94-3.88-1.74-7.21-5.07-7.21-10.53,0-7.36,7.36-12.75,14.49-12.75h.24a11.12,11.12,0,0,1,1.59.08c5,.24,10.77.32,13.22-.71,2.14-.71,2.54-1.74,3.09-1.74.32,0,.55.4.47.87-.24,1.43-.71,4-1.43,4l-8.39-.4a10.81,10.81,0,0,1,5.86,9.66c0,7.44-6.65,13.07-14.65,13.07a17.09,17.09,0,0,1-5.47-.87c-2.45,1.11-3.8,2.38-3.48,3.88.63,2.61,8.87,2.69,13,2.93,7.52.4,15.13,2.93,15.13,9.35C576.58,467.89,567.15,475.89,556.54,475.89Zm1.27-2.06c6.81,0,13.3-4.83,13.23-10.77-.08-4-6.65-4.83-14.33-5.3-.63-.08-1.27-.08-1.9-.16-3.88,1.35-8.95,4.35-8.95,8.63C545.85,470.74,552.58,473.83,557.81,473.83Zm8.55-39c-.47-6-4.2-11-10.3-11-4.35,0-7.92,4-7.44,9.74s5.23,11,10.69,11C564.3,444.61,566.76,439.38,566.36,434.87Z" fill="#99a581"/><path d="M601.68,450.94c-2.3,3.25-6.49,7.21-11.24,7.21-5.78,0-10.14-3.56-9.9-9.26.4-8.32,12.67-10.22,20.91-11.64v-2.3c0-5.94-2.69-10.93-7.84-10.93-5.86,0-7,4.83-6.81,7.36,0,.24-1.59.08-2.38-.16-2.22-.71-2.54-1.27-2.54-2.46,0-2.45,4-7,11.48-7,9.66,0,13.94,5.46,13.94,12.75v8c0,3.09.24,9.74,1.51,12.19.79,1.51,3.17,2,4,2s.63,1,0,1.11a30.78,30.78,0,0,1-4,.24c-2.69,0-3.72-.16-4.67-.87C602.71,456,602,453.79,601.68,450.94Zm-8.79,4.2c3.33,0,7.36-3.41,8.63-7a20,20,0,0,1-.08-2.22V439.7c-6.73,1-14.41,2.53-14.81,8.23C586.4,451.5,588.14,455.14,592.9,455.14Z" fill="#99a581"/><path d="M634.32,457.75c-.87,0-6.73-.63-8.95-.63-1.9,0-7.84.63-8.79.63-.63,0-.47-1.11.24-1.11a5.59,5.59,0,0,0,4-1.82c1.27-1.74,1.66-9.27,1.66-12.35v-4.59c0-3.09.24-9.82-1.27-11.64-1.27-1.58-3.09-1-4.51-.79-.55.08-.87-.95,0-1.19,1-.24,8.39-2,10.61-2.45.95-.24,1.35-.08,1.35.95l-.16,6.65c1.58-3.33,5-7.68,9.5-7.68s7,3.56,7,6c0,1.19-.32,2.46-2.61,3.17-.79.24-2.38.63-2.38.4,0-2.54-2.22-6.34-5.07-6.34-2.37,0-5.15,4-6.57,8.23l-.08,4.67v4.59c0,3.09-.08,10.37,1.35,12.51.95,1.42,3.56,1.66,4.43,1.66C634.79,456.65,634.95,457.75,634.32,457.75Z" fill="#99a581"/><path d="M664.49,476a12.32,12.32,0,0,1-4.43-.87c-.71-.32-.08-.95.32-.79,2.54.79,7.6-.16,7.13-3.72-.4-2.69-4.59-4-4.59-7.36,0-2.38,1.34-3.72,3.33-5.23-10.3-.63-16-7.68-16-17.58,0-10.61,9.43-18.77,19.32-18.77,7.52,0,10.53,3.56,10.53,6,0,1.19-.71,2.46-3,3.17-.79.24-2.38.63-2.38.4,0-2.54-1.82-7.36-6.57-7.36-7.44,0-12.12,8-11.56,15.52.63,8.95,6.34,15.6,13.78,15.6a13.93,13.93,0,0,0,8.87-3c.95-.79,1.27,0,.87.47A15.79,15.79,0,0,1,668,458.15a3.88,3.88,0,0,0-.79,4.51c1,2.54,5.23,3.8,5.23,7.76C672.41,474.62,668.13,476,664.49,476Z" fill="#99a581"/><path d="M686.19,440.41c0-9.66,6.81-18.69,17.11-18.69,9.34,0,18.21,5.86,18.21,17.5,0,10.37-6.65,18.93-17.9,18.93C694.51,458.15,686.19,452.61,686.19,440.41Zm29,.4c-.79-7.92-4.43-16.87-12.67-16.87-7.68,0-10.69,8-9.9,15.2.95,8.71,5.31,16.71,12.51,16.71C712.64,455.85,715.89,447.85,715.18,440.81Z" fill="#99a581"/><path d="M768.64,457.75c-.87,0-6.81-.63-9-.63-1.9,0-7.92.63-8.87.63-.63,0-.47-1.11.24-1.11a5.58,5.58,0,0,0,4-1.82c1.27-1.74,1.66-9.27,1.66-12.35v-7.21c0-7.68-2.22-9.74-6.73-9.74-4.35,0-8.71,3.8-10.93,7.36l-.16,9.58c0,3.09-.08,10.37,1.34,12.51.95,1.42,3.56,1.66,4.43,1.66.63,0,.79,1.11.16,1.11-.87,0-6.73-.63-8.95-.63-1.9,0-7.84.63-8.79.63-.63,0-.47-1.11.24-1.11a5.58,5.58,0,0,0,4-1.82c1.27-1.74,1.66-9.27,1.66-12.35v-4.59c0-3.09.16-9.58-1.43-11.64-1.19-1.58-3.72-1-5.15-.79-.55.08-.87-.95,0-1.19,1-.24,9-2,11.24-2.45,1-.24,1.5-.08,1.5,1l-.08,6.49c2-2.85,6.26-7.6,13.07-7.6,5.94,0,10.53,3.33,10.53,12.91v7.84c0,3.09-.08,10.37,1.35,12.51.95,1.42,3.56,1.66,4.43,1.66C769.11,456.65,769.27,457.75,768.64,457.75Z" fill="#99a581"/><path d="M544,545.35a15.18,15.18,0,0,0,3.33,6.18c1.9,2,5.78,3.33,8.55,3.33,4.67,0,7.52-3,7.52-6.26,0-3.72-5.3-5.7-10.06-8.23-4.91-2.61-9.9-5.46-9.9-11.32,0-5.31,6.1-8.31,12.59-8.31a34.49,34.49,0,0,1,10.22,1.42c.47.16.16,7.21,0,7.76-.08.24-.63.24-.71,0a12,12,0,0,0-2.29-4.28c-1.43-1.5-4.91-2.53-7.68-2.53-4.28,0-7,2.14-7,5.3s4.12,4.75,9.58,7.68,10.45,5.55,10.45,11.56c0,6.34-6.26,9.5-13.3,9.5-5.23,0-10.53-1.66-11.8-2.46a48.9,48.9,0,0,1-.4-9.34C543.16,545,543.87,545,544,545.35Z" fill="#92a381"/><path d="M622.19,557.15c-6.18,0-11.88-2.69-14.89-8-2.93,4.83-8.08,8-15,8-9.11,0-17.42-5.54-17.42-17.74,0-9.66,6.81-18.69,17.11-18.69,6.42,0,12.67,2.77,15.92,8.31a15.57,15.57,0,0,1,13.62-8.31c8.16,0,13.86,5.15,13.86,11.09,0,2.3-.87,2.85-2.77,3.25l-21.07,4.51c1,7.36,5.86,14.49,13.7,14.49a14.09,14.09,0,0,0,8.87-3.09c.63-.55,1.27-.24.79.55C633.92,553.27,629.32,557.15,622.19,557.15ZM603.9,539.81c-.79-7.92-4.43-16.87-12.67-16.87-7.68,0-10.69,8-9.9,15.2.95,8.71,5.31,16.71,12.51,16.71C601.37,554.85,604.62,546.85,603.9,539.81Zm7.44-2.69,17.9-3.8c-.32-5.7-3-10.14-8.95-10.14C613.64,523.18,611,529.59,611.35,537.12Z" fill="#92a381"/><path d="M669.72,549.15c-1.58,3.25-5.3,8-11.8,8-7.92,0-11.8-5.07-11.8-14.18v-6.1c0-3.09.24-9.82-1.27-11.64-1.27-1.58-3.09-1-4.51-.79-.55.08-.87-.95,0-1.19,1-.24,8.39-2,10.61-2.45,1-.24,1.35-.08,1.35.95L652,536.88v5.86c0,7.13,2.45,11.09,7.29,11.09,4.67,0,8.79-4.35,10.37-8.08v-8.87c0-3.09.16-9.58-1.42-11.64-1.19-1.58-3.72-1-5.15-.79-.55.08-.87-.95,0-1.19,1-.24,9.19-2,11.4-2.45.95-.24,1.34-.08,1.34.95l-.32,15.13v4.59c0,3.09.24,9.74,1.5,12.19.79,1.51,3.17,2,4,2s.63,1,0,1.11S678,557,676,557c-1.74,0-3.72-.32-4.59-1.34C670.35,554.38,669.88,551.92,669.72,549.15Z" fill="#92a381"/><path d="M702.9,556.75c-.87,0-6.73-.63-8.95-.63-1.9,0-7.84.63-8.79.63-.63,0-.47-1.11.24-1.11a5.59,5.59,0,0,0,4-1.82c1.27-1.74,1.66-9.27,1.66-12.35v-4.59c0-3.09.24-9.82-1.27-11.64-1.27-1.58-3.09-1-4.51-.79-.55.08-.87-.95,0-1.19,1-.24,8.39-2,10.61-2.45.95-.24,1.35-.08,1.35.95l-.16,6.65c1.58-3.33,5-7.68,9.5-7.68s7,3.56,7,6c0,1.19-.32,2.46-2.61,3.17-.79.24-2.38.63-2.38.4,0-2.54-2.22-6.34-5.07-6.34-2.37,0-5.15,4-6.57,8.23l-.08,4.67v4.59c0,3.09-.08,10.37,1.35,12.51.95,1.42,3.56,1.66,4.43,1.66C703.38,555.65,703.54,556.75,702.9,556.75Z" fill="#92a381"/><path d="M556.54,673.89c-8.55,0-16.31-2.54-16.31-9,0-3.8,4.83-6.25,12.67-9.66-6.73-1.11-8.87-4-8.87-6.34,0-2.85,2.85-4.75,6.1-5.94-3.88-1.74-7.21-5.07-7.21-10.53,0-7.36,7.36-12.75,14.49-12.75h.24a11.12,11.12,0,0,1,1.59.08c5,.24,10.77.32,13.22-.71,2.14-.71,2.54-1.74,3.09-1.74.32,0,.55.4.47.87-.24,1.43-.71,4-1.43,4l-8.39-.4a10.81,10.81,0,0,1,5.86,9.66c0,7.44-6.65,13.07-14.65,13.07a17.09,17.09,0,0,1-5.47-.87c-2.45,1.11-3.8,2.38-3.48,3.88.63,2.61,8.87,2.69,13,2.93,7.52.4,15.13,2.93,15.13,9.35C576.58,665.89,567.15,673.89,556.54,673.89Zm1.27-2.06c6.81,0,13.3-4.83,13.23-10.77-.08-4-6.65-4.83-14.33-5.3-.63-.08-1.27-.08-1.9-.16-3.88,1.35-8.95,4.35-8.95,8.63C545.85,668.74,552.58,671.83,557.81,671.83Zm8.55-39c-.47-6-4.2-11-10.3-11-4.35,0-7.92,4-7.44,9.74s5.23,11,10.69,11C564.3,642.61,566.76,637.38,566.36,632.87Z" fill="#8ba080"/><path d="M597.73,656.15c-9,0-17-5.7-17-17.11s7.44-19.32,16.39-19.32c8.16,0,13.86,5.15,13.86,11.09,0,2.3-.87,2.85-2.77,3.25l-21.07,4.51c1,7.36,5.86,14.49,13.7,14.49a14.1,14.1,0,0,0,8.87-3.09c.63-.55,1.27-.24.79.55C609.44,652.27,604.85,656.15,597.73,656.15Zm-10.85-20,17.9-3.8c-.32-5.7-3-10.14-8.95-10.14C589.17,622.18,586.56,628.59,586.88,636.12Z" fill="#8ba080"/><path d="M658.07,655.75c-.87,0-6.81-.63-9-.63-1.9,0-7.92.63-8.87.63-.63,0-.47-1.11.24-1.11a5.58,5.58,0,0,0,4-1.82c1.27-1.74,1.66-9.27,1.66-12.35v-7.21c0-7.68-2.22-9.74-6.73-9.74-4.35,0-8.71,3.8-10.93,7.36l-.16,9.58c0,3.09-.08,10.37,1.34,12.51.95,1.42,3.56,1.66,4.43,1.66.63,0,.79,1.11.16,1.11-.87,0-6.73-.63-8.95-.63-1.9,0-7.84.63-8.79.63-.63,0-.47-1.11.24-1.11a5.58,5.58,0,0,0,4-1.82c1.27-1.74,1.66-9.27,1.66-12.35v-4.59c0-3.09.16-9.58-1.43-11.64-1.19-1.58-3.72-1-5.15-.79-.55.08-.87-.95,0-1.19,1-.24,9-2,11.24-2.45,1-.24,1.5-.08,1.5,1l-.08,6.49c2-2.85,6.26-7.6,13.07-7.6,5.94,0,10.53,3.33,10.53,12.91v7.84c0,3.09-.08,10.37,1.35,12.51.95,1.42,3.56,1.66,4.43,1.66C658.55,654.65,658.7,655.75,658.07,655.75Z" fill="#8ba080"/><path d="M667.5,624.24c-1.27-1.58-3.09-1-4.51-.79-.55.08-.87-.95,0-1.19,1-.24,8.4-2,10.61-2.45.95-.24,1.34-.08,1.34.95l-.32,15.13v4.59c0,3.09-.08,10.37,1.34,12.51,1,1.42,3.56,1.66,4.44,1.66.63,0,.79,1.11.16,1.11-.87,0-6.73-.63-8.95-.63-1.9,0-7.84.63-8.79.63-.63,0-.47-1.11.24-1.11a5.58,5.58,0,0,0,4-1.82c1.27-1.74,1.66-9.27,1.66-12.35v-4.59C668.77,632.79,669,626.06,667.5,624.24Zm-.4-17.58c-.87-2,.32-4.91,2.38-5.38,2.06-.71,5,.24,5.38,2.29a4,4,0,0,1-2.45,5.39C670.35,609.67,667.74,608.79,667.1,606.66Z" fill="#8ba080"/><path d="M703.14,656.15c-9,0-17-5.7-17-17.11s7.44-19.32,16.39-19.32c8.16,0,13.86,5.15,13.86,11.09,0,2.3-.87,2.85-2.77,3.25l-21.07,4.51c1,7.36,5.86,14.49,13.7,14.49a14.1,14.1,0,0,0,8.87-3.09c.63-.55,1.27-.24.79.55C714.86,652.27,710.26,656.15,703.14,656.15Zm-10.85-20,17.9-3.8c-.32-5.7-3-10.14-8.95-10.14C694.58,622.18,692,628.59,692.29,636.12Z" fill="#8ba080"/><path d="M750.1,656.23c-5.23,0-8.39-2-9.66-2.38-.24-.08-.4-8.08-.4-9.19,0-.4,1.11-.4,1.11,0a9.38,9.38,0,0,0,9.18,9.35c5.39,0,7.68-4.43,7.68-8.08,0-4.51-5-7.92-9.27-11.24-3.8-3-8-5.54-8-10.93,0-6.49,5-9.58,11.09-12.35-.16-5.55-3.64-13.78-10.61-13.78-7.44,0-8.16,5.94-8.16,13.62v29.22c0,3.09-.08,10.37,1.35,12.51.95,1.42,3.56,1.66,4.43,1.66.63,0,.79,1.11.16,1.11-.87,0-6.73-.63-9-.63-1.9,0-7.84.63-8.79.63-.63,0-.47-1.11.24-1.11a5.59,5.59,0,0,0,4-1.82c1.27-1.74,1.66-9.27,1.66-12.35V611.88c0-11.48,5.78-16.16,15.2-16.16,8.08,0,14.1,4.28,14.1,14.41,0,.71-.16,1.19-1.35,1.82-3.25,1.74-9.66,5.07-9.66,10.29,0,4.36,5.38,6.65,9.5,9.74,3.56,2.69,7.76,6.1,7.84,12A12.61,12.61,0,0,1,750.1,656.23Z" fill="#8ba080"/><path d="M786.53,656.15c-9,0-17-5.7-17-17.11s7.44-19.32,16.39-19.32c8.16,0,13.86,5.15,13.86,11.09,0,2.3-.87,2.85-2.77,3.25l-21.07,4.51c1,7.36,5.86,14.49,13.7,14.49a14.1,14.1,0,0,0,8.87-3.09c.63-.55,1.27-.24.79.55C798.25,652.27,793.66,656.15,786.53,656.15Zm-10.85-20,17.9-3.8c-.32-5.7-3-10.14-8.95-10.14C778,622.18,775.36,628.59,775.68,636.12Z" fill="#8ba080"/><path d="M846.88,655.75c-.87,0-6.81-.63-9-.63-1.9,0-7.92.63-8.87.63-.63,0-.47-1.11.24-1.11a5.58,5.58,0,0,0,4-1.82c1.27-1.74,1.66-9.27,1.66-12.35v-7.21c0-7.68-2.22-9.74-6.73-9.74-4.35,0-8.71,3.8-10.93,7.36l-.16,9.58c0,3.09-.08,10.37,1.34,12.51.95,1.42,3.56,1.66,4.43,1.66.63,0,.79,1.11.16,1.11-.87,0-6.73-.63-8.95-.63-1.9,0-7.84.63-8.79.63-.63,0-.47-1.11.24-1.11a5.58,5.58,0,0,0,4-1.82c1.27-1.74,1.66-9.27,1.66-12.35v-4.59c0-3.09.16-9.58-1.43-11.64-1.19-1.58-3.72-1-5.15-.79-.55.08-.87-.95,0-1.19,1-.24,9-2,11.24-2.45,1-.24,1.5-.08,1.5,1l-.08,6.49c2-2.85,6.26-7.6,13.07-7.6,5.94,0,10.53,3.33,10.53,12.91v7.84c0,3.09-.08,10.37,1.35,12.51.95,1.42,3.56,1.66,4.43,1.66C847.35,654.65,847.51,655.75,846.88,655.75Z" fill="#8ba080"/><path d="M568.9,749.05c-1.82,2.22-5.54,6.1-10.77,6.1-9.35,0-15.13-6.81-15.13-17.42,0-10.37,6.81-19,16.63-19a25.34,25.34,0,0,1,9,1.82V709.85c0-3.09.32-9.82-1.19-11.64-1.27-1.58-3.09-1-4.51-.79-.55.08-.87-1,0-1.19,1-.24,8.39-2,10.61-2.46.95-.24,1.35-.08,1.35.95l-.4,15.13v29.62c0,3.09.24,9.74,1.51,12.19.79,1.51,3.17,2,4,2s.63,1,0,1.11c-.48.08-2.38.16-4.2.16s-4.28,0-5.31-1S569.13,751.19,568.9,749.05Zm-8.16,3.09c3.56,0,6.57-3.17,7.92-6.57V723.95a17.47,17.47,0,0,0-9.27-2.61c-6.49,0-10.29,5.54-10.29,12.91C549.1,740.58,552.5,752.14,560.74,752.14Z" fill="#7c9b86"/><path d="M601.61,755.15c-9,0-17-5.7-17-17.11S592,718.72,601,718.72c8.16,0,13.86,5.15,13.86,11.09,0,2.3-.87,2.85-2.77,3.25L591,737.57c1,7.36,5.86,14.49,13.7,14.49a14.1,14.1,0,0,0,8.87-3.09c.63-.55,1.27-.24.79.55C613.33,751.27,608.73,755.15,601.61,755.15Zm-10.85-20,17.9-3.8c-.32-5.7-3-10.14-8.95-10.14C593.05,721.18,590.44,727.59,590.76,735.12Z" fill="#7c9b86"/><path d="M627.9,736.46c.63,8.95,6.34,15.6,13.78,15.6a13.93,13.93,0,0,0,8.87-3c.95-.79,1.27,0,.87.47a15.89,15.89,0,0,1-12.27,5.62c-11.32,0-17.58-7.29-17.58-17.66,0-10.61,9.43-18.77,19.32-18.77,7.52,0,10.53,3.56,10.53,6,0,1.19-.71,2.46-3,3.17-.79.24-2.38.63-2.38.4,0-2.54-1.82-7.36-6.57-7.36C632,720.94,627.35,728.94,627.9,736.46Z" fill="#7c9b86"/><path d="M657.52,737.41c0-9.66,6.81-18.69,17.11-18.69,9.34,0,18.21,5.86,18.21,17.5,0,10.37-6.65,18.93-17.9,18.93C665.84,755.15,657.52,749.61,657.52,737.41Zm29,.4c-.79-7.92-4.43-16.87-12.67-16.87-7.68,0-10.69,8-9.9,15.2.95,8.71,5.31,16.71,12.51,16.71C684,752.85,687.22,744.85,686.51,737.81Z" fill="#7c9b86"/><path d="M716.13,754.75c-.87,0-6.73-.63-8.95-.63-1.9,0-7.84.63-8.79.63-.63,0-.47-1.11.24-1.11a5.59,5.59,0,0,0,4-1.82c1.27-1.74,1.66-9.27,1.66-12.35v-4.59c0-3.09.24-9.82-1.27-11.64-1.27-1.58-3.09-1-4.51-.79-.55.08-.87-.95,0-1.19,1-.24,8.39-2,10.61-2.45.95-.24,1.35-.08,1.35.95l-.16,6.65c1.58-3.33,5-7.68,9.5-7.68s7,3.56,7,6c0,1.19-.32,2.46-2.61,3.17-.79.24-2.38.63-2.38.4,0-2.54-2.22-6.34-5.07-6.34-2.37,0-5.15,4-6.57,8.23l-.08,4.67v4.59c0,3.09-.08,10.37,1.35,12.51.95,1.42,3.56,1.66,4.43,1.66C716.6,753.65,716.76,754.75,716.13,754.75Z" fill="#7c9b86"/><path d="M753.19,747.94c-2.3,3.25-6.49,7.21-11.24,7.21-5.78,0-10.14-3.56-9.9-9.26.4-8.32,12.67-10.22,20.91-11.64v-2.3c0-5.94-2.69-10.93-7.84-10.93-5.86,0-7,4.83-6.81,7.36,0,.24-1.59.08-2.38-.16-2.22-.71-2.54-1.27-2.54-2.46,0-2.45,4-7,11.48-7,9.66,0,13.94,5.46,13.94,12.75v8c0,3.09.24,9.74,1.51,12.19.79,1.51,3.17,2,4,2s.63,1,0,1.11a30.78,30.78,0,0,1-4,.24c-2.69,0-3.72-.16-4.67-.87C754.22,753,753.51,750.79,753.19,747.94Zm-8.79,4.2c3.33,0,7.36-3.41,8.63-7A20,20,0,0,1,753,743V736.7c-6.73,1-14.41,2.53-14.81,8.23C737.91,748.5,739.65,752.14,744.4,752.14Z" fill="#7c9b86"/><path d="M783.92,773a12.32,12.32,0,0,1-4.43-.87c-.71-.32-.08-.95.32-.79,2.54.79,7.6-.16,7.13-3.72-.4-2.69-4.59-4-4.59-7.36,0-2.38,1.34-3.72,3.33-5.23-10.3-.63-16-7.68-16-17.58,0-10.61,9.43-18.77,19.32-18.77,7.52,0,10.53,3.56,10.53,6,0,1.19-.71,2.46-3,3.17-.79.24-2.38.63-2.38.4,0-2.54-1.82-7.36-6.57-7.36-7.44,0-12.12,8-11.56,15.52.63,8.95,6.34,15.6,13.78,15.6a13.93,13.93,0,0,0,8.87-3c.95-.79,1.27,0,.87.47a15.79,15.79,0,0,1-12.12,5.62,3.88,3.88,0,0,0-.79,4.51c1,2.54,5.23,3.8,5.23,7.76C791.84,771.62,787.57,773,783.92,773Z" fill="#7c9b86"/><path d="M806.42,737.41c0-9.66,6.81-18.69,17.11-18.69,9.34,0,18.21,5.86,18.21,17.5,0,10.37-6.65,18.93-17.9,18.93C814.73,755.15,806.42,749.61,806.42,737.41Zm17.5-28.19c-2-1.11-3.72-2.38-5.7-2.38a7.2,7.2,0,0,0-6.33,3.56c-.32.55-1.19.4-1.11,0,.47-2.54,2.85-7.6,7.6-7.6a10.9,10.9,0,0,1,6.1,1.74c2.14,1.19,3.64,2.38,5.54,2.38a7.2,7.2,0,0,0,6.34-3.56c.32-.55,1.19-.4,1.11,0-.55,2.46-2.85,7.68-7.6,7.68A11.1,11.1,0,0,1,823.92,709.22Zm11.48,28.59c-.79-7.92-4.43-16.87-12.67-16.87-7.68,0-10.69,8-9.9,15.2.95,8.71,5.31,16.71,12.51,16.71C832.87,752.85,836.11,744.85,835.4,737.81Z" fill="#7c9b86"/><path d="M865.89,755.15c-9,0-17-5.7-17-17.11s7.44-19.32,16.39-19.32c8.16,0,13.86,5.15,13.86,11.09,0,2.3-.87,2.85-2.77,3.25l-21.07,4.51c1,7.36,5.86,14.49,13.7,14.49a14.1,14.1,0,0,0,8.87-3.09c.63-.55,1.27-.24.79.55C877.61,751.27,873,755.15,865.89,755.15Zm-10.85-20,17.9-3.8c-.32-5.7-3-10.14-8.95-10.14C857.34,721.18,854.73,727.59,855,735.12Z" fill="#7c9b86"/><path d="M886.8,743.35a15.18,15.18,0,0,0,3.33,6.18c1.9,2,5.78,3.33,8.55,3.33,4.67,0,7.52-3,7.52-6.26,0-3.72-5.3-5.7-10.06-8.23-4.91-2.61-9.9-5.46-9.9-11.32,0-5.31,6.1-8.31,12.59-8.31a34.49,34.49,0,0,1,10.22,1.42c.47.16.16,7.21,0,7.76-.08.24-.63.24-.71,0a12,12,0,0,0-2.29-4.28c-1.43-1.5-4.91-2.53-7.68-2.53-4.28,0-7,2.14-7,5.3s4.12,4.75,9.58,7.68,10.45,5.55,10.45,11.56c0,6.34-6.26,9.5-13.3,9.5-5.23,0-10.53-1.66-11.8-2.46a48.9,48.9,0,0,1-.4-9.34C886,743,886.72,743,886.8,743.35Z" fill="#7c9b86"/><path d="M603.26,853.75c-.87,0-6.73-.63-8.95-.63-1.9,0-7.84.63-8.79.63-.63,0-.47-1.11.24-1.11a5.58,5.58,0,0,0,4-1.82c1.27-1.74,1.66-9.27,1.66-12.35v-7c0-6.33-1.58-10.45-6.41-10.45-3.8,0-7.44,3-9.19,6.26.08,1.11.16,2.3.16,3.56v7.6c0,3.09-.08,10.37,1.34,12.51,1,1.42,3.64,1.66,4.51,1.66.63,0,.79,1.11.16,1.11-.87,0-6.73-.63-8.95-.63-1.9,0-7.84.63-8.79.63-.63,0-.48-1.11.24-1.11a5.58,5.58,0,0,0,4-1.82c1.27-1.74,1.58-9.27,1.58-12.35v-6.65c0-8.55-2.69-10.85-6.81-10.85-3.8,0-7.52,3.8-9.26,7.21l-.08,5.15v5.15c0,3.09-.08,10.37,1.34,12.51,1,1.42,3.56,1.66,4.44,1.66.63,0,.79,1.11.16,1.11-.87,0-6.73-.63-8.95-.63-1.9,0-7.84.63-8.79.63-.63,0-.47-1.11.24-1.11a5.58,5.58,0,0,0,4-1.82c1.27-1.74,1.66-9.27,1.66-12.35v-4.59c0-3.09.16-9.58-1.42-11.64-1.19-1.58-3.72-1-5.15-.79-.55.08-.87-.95,0-1.19,1-.24,9.19-2,11.4-2.45.95-.24,1.34-.08,1.34.95l-.16,5.78c2-2.77,6.33-6.81,12-6.81,4.2,0,7.68,1.42,9.11,6.65,2.14-3,6.57-6.65,12-6.65,6.49,0,10.06,3.88,10.06,12.83v7.92c0,3.09-.08,10.37,1.35,12.51.95,1.42,3.56,1.66,4.43,1.66C603.74,852.65,603.9,853.75,603.26,853.75Z" fill="#7c9994"/><path d="M629.17,846.94c-2.3,3.25-6.49,7.21-11.24,7.21-5.78,0-10.14-3.56-9.9-9.26.4-8.32,12.67-10.22,20.91-11.64v-2.3c0-5.94-2.69-10.93-7.84-10.93-5.86,0-7,4.83-6.81,7.36,0,.24-1.59.08-2.38-.16-2.22-.71-2.54-1.27-2.54-2.46,0-2.45,4-7,11.48-7,9.66,0,13.94,5.46,13.94,12.75v8c0,3.09.24,9.74,1.51,12.19.79,1.51,3.17,2,4,2s.63,1,0,1.11a30.78,30.78,0,0,1-4,.24c-2.69,0-3.72-.16-4.67-.87C630.2,852,629.49,849.79,629.17,846.94Zm-8.79,4.2c3.33,0,7.36-3.41,8.63-7a20,20,0,0,1-.08-2.22V835.7c-6.73,1-14.41,2.53-14.81,8.23C613.88,847.5,615.63,851.14,620.38,851.14Z" fill="#7c9994"/><path d="M686,853.75c-.87,0-6.81-.63-9-.63-1.9,0-7.92.63-8.87.63-.63,0-.47-1.11.24-1.11a5.58,5.58,0,0,0,4-1.82c1.27-1.74,1.66-9.27,1.66-12.35v-7.21c0-7.68-2.22-9.74-6.73-9.74-4.35,0-8.71,3.8-10.93,7.36l-.16,9.58c0,3.09-.08,10.37,1.34,12.51.95,1.42,3.56,1.66,4.43,1.66.63,0,.79,1.11.16,1.11-.87,0-6.73-.63-8.95-.63-1.9,0-7.84.63-8.79.63-.63,0-.47-1.11.24-1.11a5.58,5.58,0,0,0,4-1.82c1.27-1.74,1.66-9.27,1.66-12.35v-4.59c0-3.09.16-9.58-1.43-11.64-1.19-1.58-3.72-1-5.15-.79-.55.08-.87-.95,0-1.19,1-.24,9-2,11.24-2.45,1-.24,1.5-.08,1.5,1l-.08,6.49c2-2.85,6.26-7.6,13.07-7.6,5.94,0,10.53,3.33,10.53,12.91v7.84c0,3.09-.08,10.37,1.35,12.51.95,1.42,3.56,1.66,4.43,1.66C686.51,852.65,686.66,853.75,686,853.75ZM663.3,808.22c-2-1.11-3.72-2.38-5.7-2.38a7.21,7.21,0,0,0-6.34,3.56c-.32.55-1.19.4-1.11,0,.48-2.54,2.85-7.6,7.6-7.6a10.91,10.91,0,0,1,6.1,1.74c2.14,1.19,3.64,2.38,5.54,2.38a7.21,7.21,0,0,0,6.34-3.56c.32-.55,1.19-.4,1.11,0-.55,2.46-2.85,7.68-7.6,7.68A11.09,11.09,0,0,1,663.3,808.22Z" fill="#7c9994"/><path d="M711.45,846.94c-2.3,3.25-6.49,7.21-11.24,7.21-5.78,0-10.14-3.56-9.9-9.26.4-8.32,12.67-10.22,20.91-11.64v-2.3c0-5.94-2.69-10.93-7.84-10.93-5.86,0-7,4.83-6.81,7.36,0,.24-1.59.08-2.38-.16-2.22-.71-2.54-1.27-2.54-2.46,0-2.45,4-7,11.48-7,9.66,0,13.94,5.46,13.94,12.75v8c0,3.09.24,9.74,1.51,12.19.79,1.51,3.17,2,4,2s.63,1,0,1.11a30.78,30.78,0,0,1-4,.24c-2.69,0-3.72-.16-4.67-.87C712.48,852,711.77,849.79,711.45,846.94Zm-8.79,4.2c3.33,0,7.36-3.41,8.63-7a20,20,0,0,1-.08-2.22V835.7c-6.73,1-14.41,2.53-14.81,8.23C696.17,847.5,697.91,851.14,702.67,851.14Z" fill="#7c9994"/><path d="M768.32,853.75c-.87,0-6.81-.63-9-.63-1.9,0-7.92.63-8.87.63-.63,0-.47-1.11.24-1.11a5.58,5.58,0,0,0,4-1.82c1.27-1.74,1.66-9.27,1.66-12.35v-7.21c0-7.68-2.22-9.74-6.73-9.74-4.35,0-8.71,3.8-10.93,7.36l-.16,9.58c0,3.09-.08,10.37,1.34,12.51.95,1.42,3.56,1.66,4.43,1.66.63,0,.79,1.11.16,1.11-.87,0-6.73-.63-8.95-.63-1.9,0-7.84.63-8.79.63-.63,0-.47-1.11.24-1.11a5.58,5.58,0,0,0,4-1.82c1.27-1.74,1.66-9.27,1.66-12.35v-4.59c0-3.09.16-9.58-1.43-11.64-1.19-1.58-3.72-1-5.15-.79-.55.08-.87-.95,0-1.19,1-.24,9-2,11.24-2.45,1-.24,1.5-.08,1.5,1l-.08,6.49c2-2.85,6.26-7.6,13.07-7.6,5.94,0,10.53,3.33,10.53,12.91v7.84c0,3.09-.08,10.37,1.35,12.51.95,1.42,3.56,1.66,4.43,1.66C768.79,852.65,769,853.75,768.32,853.75Z" fill="#7c9994"/><path d="M794.22,846.94c-2.3,3.25-6.49,7.21-11.24,7.21-5.78,0-10.14-3.56-9.9-9.26.4-8.32,12.67-10.22,20.91-11.64v-2.3c0-5.94-2.69-10.93-7.84-10.93-5.86,0-7,4.83-6.81,7.36,0,.24-1.59.08-2.38-.16-2.22-.71-2.54-1.27-2.54-2.46,0-2.45,4-7,11.48-7,9.66,0,13.94,5.46,13.94,12.75v8c0,3.09.24,9.74,1.51,12.19.79,1.51,3.17,2,4,2s.63,1,0,1.11a30.78,30.78,0,0,1-4,.24c-2.69,0-3.72-.16-4.67-.87C795.25,852,794.54,849.79,794.22,846.94Zm-8.79,4.2c3.33,0,7.36-3.41,8.63-7A20,20,0,0,1,794,842V835.7c-6.73,1-14.41,2.53-14.81,8.23C778.93,847.5,780.68,851.14,785.43,851.14Z" fill="#7c9994"/><path d="M556.54,970.89c-8.55,0-16.31-2.54-16.31-9,0-3.8,4.83-6.25,12.67-9.66-6.73-1.11-8.87-4-8.87-6.34,0-2.85,2.85-4.75,6.1-5.94-3.88-1.74-7.21-5.07-7.21-10.53,0-7.36,7.36-12.75,14.49-12.75h.24a11.12,11.12,0,0,1,1.59.08c5,.24,10.77.32,13.22-.71,2.14-.71,2.54-1.74,3.09-1.74.32,0,.55.4.47.87-.24,1.43-.71,4-1.43,4l-8.39-.4a10.81,10.81,0,0,1,5.86,9.66c0,7.44-6.65,13.07-14.65,13.07a17.09,17.09,0,0,1-5.47-.87c-2.45,1.11-3.8,2.38-3.48,3.88.63,2.61,8.87,2.69,13,2.93,7.52.4,15.13,2.93,15.13,9.35C576.58,962.89,567.15,970.89,556.54,970.89Zm1.27-2.06c6.81,0,13.3-4.83,13.23-10.77-.08-4-6.65-4.83-14.33-5.3-.63-.08-1.27-.08-1.9-.16-3.88,1.35-8.95,4.35-8.95,8.63C545.85,965.74,552.58,968.83,557.81,968.83Zm8.55-39c-.47-6-4.2-11-10.3-11-4.35,0-7.92,4-7.44,9.74s5.23,11,10.69,11C564.3,939.61,566.76,934.38,566.36,929.87Z" fill="#7e9199"/><path d="M591.55,937.47c0,3.09-.08,10.37,1.35,12.51.95,1.42,3.56,1.66,4.43,1.66.63,0,.79,1.11.16,1.11-.87,0-6.73-.63-8.95-.63-1.9,0-7.84.63-8.79.63-.63,0-.47-1.11.24-1.11a5.59,5.59,0,0,0,4-1.82c1.27-1.74,1.66-9.27,1.66-12.35V907.85c0-3.09.24-9.82-1.27-11.64-1.27-1.58-3.09-1-4.51-.79-.55.08-.87-1,0-1.19,1-.24,8.39-2,10.61-2.46.95-.24,1.35-.08,1.35.95l-.32,15.13Z" fill="#7e9199"/><path d="M629.8,945.15c-1.58,3.25-5.3,8-11.8,8-7.92,0-11.8-5.07-11.8-14.18v-6.1c0-3.09.24-9.82-1.27-11.64-1.27-1.58-3.09-1-4.51-.79-.55.08-.87-.95,0-1.19,1-.24,8.39-2,10.61-2.45,1-.24,1.35-.08,1.35.95l-.32,15.13v5.86c0,7.13,2.45,11.09,7.29,11.09,4.67,0,8.79-4.35,10.37-8.08v-8.87c0-3.09.16-9.58-1.42-11.64-1.19-1.58-3.72-1-5.15-.79-.55.08-.87-.95,0-1.19,1-.24,9.19-2,11.4-2.45.95-.24,1.34-.08,1.34.95l-.32,15.13v4.59c0,3.09.24,9.74,1.5,12.19.79,1.51,3.17,2,4,2s.63,1,0,1.11-3.09.24-5.07.24c-1.74,0-3.72-.32-4.59-1.34C630.43,950.38,630,947.92,629.8,945.15Zm-19.48-41.73c-.63-1.74.32-4.2,2.14-4.67s4.28.24,4.67,2.06a3.53,3.53,0,0,1-2.22,4.67A3.61,3.61,0,0,1,610.32,903.42Zm14.73-.08c-.63-1.74.32-4.2,2.14-4.67s4.28.24,4.67,2.06a3.53,3.53,0,0,1-2.22,4.67A3.61,3.61,0,0,1,625,903.34Z" fill="#7e9199"/><path d="M653.17,934.46c.63,8.95,6.34,15.6,13.78,15.6a13.93,13.93,0,0,0,8.87-3c.95-.79,1.27,0,.87.47a15.89,15.89,0,0,1-12.27,5.62c-11.32,0-17.58-7.29-17.58-17.66,0-10.61,9.43-18.77,19.32-18.77,7.52,0,10.53,3.56,10.53,6,0,1.19-.71,2.46-3,3.17-.79.24-2.38.63-2.38.4,0-2.54-1.82-7.36-6.57-7.36C657.28,918.94,652.61,926.94,653.17,934.46Z" fill="#7e9199"/><path d="M719.92,952.75H711c-1.19,0-2.93-1.66-3.88-2.93-4-5.38-8.63-16.63-10.93-19H692.6v6.65c0,3.09-.08,10.37,1.34,12.51,1,1.42,3.56,1.66,4.44,1.66.63,0,.79,1.11.16,1.11-.87,0-6.73-.63-8.95-.63-1.9,0-7.84.63-8.79.63-.63,0-.47-1.11.24-1.11a5.58,5.58,0,0,0,4-1.82c1.27-1.74,1.66-9.27,1.66-12.35V907.85c0-3.09.24-9.82-1.27-11.64-1.27-1.58-3.09-1-4.51-.79-.55.08-.87-1,0-1.19,1-.24,8.4-2,10.61-2.46.95-.24,1.34-.08,1.34.95l-.32,15.13V929a31.59,31.59,0,0,0,4.28-.32c3.33-2.46,9.5-7.68,10.3-8.87.4-.63.16-1-.4-1.34a9.46,9.46,0,0,0-3.64-.55c-.55,0-.47-.79,0-.79.95,0,6.26.24,8.16.24,2.22,0,6.1-.32,7-.32.47,0,.47.87,0,.87-3,0-5.3,1.27-9.42,4.12-1.74,1.19-5,4.12-8.47,6.89,4.28,5.07,12.75,19,14,20.19a8.84,8.84,0,0,0,5.54,2.38C720.48,951.49,720.56,952.75,719.92,952.75Z" fill="#7e9199"/><path d="M735,937.47c0,3.09-.08,10.37,1.35,12.51.95,1.42,3.56,1.66,4.43,1.66.63,0,.79,1.11.16,1.11-.87,0-6.73-.63-8.95-.63-1.9,0-7.84.63-8.79.63-.63,0-.47-1.11.24-1.11a5.59,5.59,0,0,0,4-1.82c1.27-1.74,1.66-9.27,1.66-12.35V907.85c0-3.09.24-9.82-1.27-11.64-1.27-1.58-3.09-1-4.51-.79-.55.08-.87-1,0-1.19,1-.24,8.39-2,10.61-2.46.95-.24,1.35-.08,1.35.95L735,907.85Z" fill="#7e9199"/><path d="M750.34,921.24c-1.27-1.58-3.09-1-4.51-.79-.55.08-.87-.95,0-1.19,1-.24,8.4-2,10.61-2.45.95-.24,1.34-.08,1.34.95l-.32,15.13v4.59c0,3.09-.08,10.37,1.34,12.51,1,1.42,3.56,1.66,4.44,1.66.63,0,.79,1.11.16,1.11-.87,0-6.73-.63-8.95-.63-1.9,0-7.84.63-8.79.63-.63,0-.47-1.11.24-1.11a5.58,5.58,0,0,0,4-1.82c1.27-1.74,1.66-9.27,1.66-12.35v-4.59C751.61,929.79,751.85,923.06,750.34,921.24Zm-.4-17.58c-.87-2,.32-4.91,2.38-5.38,2.06-.71,5,.24,5.38,2.29a4,4,0,0,1-2.45,5.39C753.19,906.67,750.58,905.79,749.95,903.66Z" fill="#7e9199"/><path d="M774.5,934.46c.63,8.95,6.34,15.6,13.78,15.6a13.93,13.93,0,0,0,8.87-3c.95-.79,1.27,0,.87.47a15.89,15.89,0,0,1-12.27,5.62c-11.32,0-17.58-7.29-17.58-17.66,0-10.61,9.43-18.77,19.32-18.77,7.52,0,10.53,3.56,10.53,6,0,1.19-.71,2.46-3,3.17-.79.24-2.38.63-2.38.4,0-2.54-1.82-7.36-6.57-7.36C778.62,918.94,773.94,926.94,774.5,934.46Z" fill="#7e9199"/><path d="M843.87,952.75c-.87,0-6.73-.63-8.95-.63-1.9,0-7.84.63-8.79.63-.63,0-.48-1.11.24-1.11a5.58,5.58,0,0,0,4-1.82c1.27-1.74,1.66-9.27,1.66-12.35v-7c0-8.08-2.61-10-7.13-10-4.2,0-9.27,3.64-11,7.29v9.66c0,3.09-.08,10.37,1.35,12.51.95,1.42,3.56,1.66,4.43,1.66.63,0,.79,1.11.16,1.11-.87,0-6.73-.63-8.95-.63-1.9,0-7.84.63-8.79.63-.63,0-.47-1.11.24-1.11a5.59,5.59,0,0,0,4-1.82c1.27-1.74,1.66-9.27,1.66-12.35V907.85c0-3.09.24-9.82-1.27-11.64-1.27-1.58-3.09-1-4.51-.79-.55.08-.87-1,0-1.19,1-.24,8.39-2,10.61-2.46.95-.24,1.35-.08,1.35.95l-.32,15.13v16.08a16.88,16.88,0,0,1,13.62-7.21c6.57,0,10.37,3.72,10.37,13.54v7.21c0,3.09-.08,10.37,1.34,12.51,1,1.42,3.56,1.66,4.43,1.66C844.34,951.65,844.5,952.75,843.87,952.75Z" fill="#7e9199"/></svg>