<svg id="Layer_1" data-name="Layer 1" xmlns="http://www.w3.org/2000/svg" viewBox="0 0 1920 1080"><title>mexicoArtboard 1</title><path d="M750.27,272.16c-10.65-4-21.88-9.5-29.66-9.5-9.5,0-17.28,6.62-21.6,15-1.15,2-6,1.44-5.76,0,1.44-8.93,8.64-31.39,28.5-31.39,8.35,0,20.16,3.46,31.39,7.78,8.93,3.74,19.58,8.06,26.2,8.06,9.5,0,17-6.91,21.88-15.26,1.15-2,6-1.44,5.76,0-1.73,8.93-9.21,31.1-29.37,31.1C770.13,277.92,760.06,275.9,750.27,272.16Z" fill="#db4105"/><path d="M436.44,272.16c-10.65-4-21.88-9.5-29.66-9.5-9.5,0-17.28,6.62-21.6,15-1.15,2-6,1.44-5.76,0,1.44-8.93,8.64-31.39,28.5-31.39,8.35,0,20.16,3.46,31.39,7.78,8.93,3.74,19.58,8.06,26.2,8.06,9.5,0,17-6.91,21.88-15.26,1.15-2,6-1.44,5.76,0-1.73,8.93-9.21,31.1-29.37,31.1C456.31,277.92,446.23,275.9,436.44,272.16Z" fill="#db4105"/><path d="M697.24,380.31c-4.68-10.38-8.76-22.19-14.25-27.69-6.72-6.72-16.9-7.53-25.86-4.68-2.24.61-5.29-3.26-4.07-4.07,7.33-5.29,28.3-16.09,42.35-2,5.91,5.91,11.81,16.7,16.7,27.69,3.67,9,8.14,19.55,12.82,24.23,6.72,6.72,16.9,7.12,26.27,4.68,2.24-.61,5.29,3.26,4.07,4.07-7.53,5.09-28.5,15.47-42.76,1.22C707.22,398.43,701.52,389.88,697.24,380.31Z" fill="#db4105"/><path d="M475.33,158.4c-4.68-10.38-8.76-22.19-14.25-27.69-6.72-6.72-16.9-7.53-25.86-4.68-2.24.61-5.29-3.26-4.07-4.07,7.33-5.29,28.3-16.09,42.35-2,5.91,5.91,11.81,16.7,16.7,27.69,3.67,9,8.14,19.55,12.82,24.23,6.72,6.72,16.9,7.12,26.27,4.68,2.24-.61,5.29,3.26,4.07,4.07-7.53,5.09-28.5,15.47-42.76,1.22C485.31,176.52,479.61,168,475.33,158.4Z" fill="#db4105"/><path d="M583.28,419.28c4-10.65,9.5-21.88,9.5-29.66,0-9.5-6.62-17.28-15-21.6-2-1.15-1.44-6,0-5.76,8.93,1.44,31.39,8.64,31.39,28.5,0,8.35-3.46,20.16-7.78,31.39-3.74,8.93-8.06,19.58-8.06,26.2,0,9.5,6.91,17,15.26,21.88,2,1.15,1.44,6,0,5.76-8.93-1.73-31.1-9.21-31.1-29.37C577.52,439.15,579.53,429.07,583.28,419.28Z" fill="#db4105"/><path d="M583.28,105.46c4-10.65,9.5-21.88,9.5-29.66,0-9.5-6.62-17.28-15-21.6-2-1.15-1.44-6,0-5.76,8.93,1.44,31.39,8.64,31.39,28.5,0,8.35-3.46,20.16-7.78,31.39-3.74,8.93-8.06,19.58-8.06,26.2,0,9.5,6.91,17,15.26,21.88,2,1.15,1.44,6,0,5.76-8.93-1.73-31.1-9.21-31.1-29.37C577.52,125.32,579.53,115.25,583.28,105.46Z" fill="#db4105"/><path d="M475.13,366.26c10.38-4.68,22.19-8.76,27.69-14.25,6.72-6.72,7.53-16.9,4.68-25.86-.61-2.24,3.26-5.29,4.07-4.07,5.29,7.33,16.09,28.3,2,42.35-5.91,5.91-16.7,11.81-27.69,16.7-9,3.67-19.55,8.14-24.23,12.82-6.72,6.72-7.12,16.9-4.68,26.27.61,2.24-3.26,5.29-4.07,4.07-5.09-7.53-15.47-28.5-1.22-42.76C457,376.23,465.56,370.53,475.13,366.26Z" fill="#db4105"/><path d="M697,144.35c10.38-4.68,22.19-8.76,27.69-14.25,6.72-6.72,7.53-16.9,4.68-25.86-.61-2.24,3.26-5.29,4.07-4.07,5.29,7.33,16.09,28.3,2,42.35-5.91,5.91-16.7,11.81-27.69,16.7-9,3.67-19.55,8.14-24.23,12.82-6.72,6.72-7.12,16.9-4.68,26.27.61,2.24-3.26,5.29-4.07,4.07-5.09-7.53-15.47-28.5-1.22-42.76C678.92,154.32,687.47,148.62,697,144.35Z" fill="#db4105"/><path d="M742.55,212.6c-11.39.25-23.85-.61-31.06,2.3-8.81,3.56-13.54,12.61-14.41,22-.31,2.3-5.07,3.6-5.34,2.16-2-8.81-3.75-32.34,14.67-39.78,7.74-3.13,20-4.35,32-4.55,9.68.13,21.17.14,27.31-2.34,8.81-3.56,13.16-12.77,14.57-22.35.31-2.3,5.07-3.6,5.34-2.16,1.74,8.92,3.11,32.28-15.58,39.83C763.13,210.5,753,212.4,742.55,212.6Z" fill="#db4105"/><path d="M451.58,330.16c-11.39.25-23.85-.61-31.06,2.3-8.81,3.56-13.54,12.61-14.41,22-.31,2.3-5.07,3.6-5.34,2.16-2-8.81-3.75-32.34,14.67-39.78,7.74-3.13,20-4.35,32-4.55,9.68.13,21.17.14,27.31-2.34,8.81-3.56,13.16-12.77,14.57-22.35.31-2.3,5.07-3.6,5.34-2.16,1.74,8.92,3.11,32.28-15.58,39.83C472.15,328.06,462.06,330,451.58,330.16Z" fill="#db4105"/><path d="M733.9,332.74c-8.23-7.87-16.43-17.3-23.59-20.33-8.75-3.71-18.49-.65-25.73,5.35-1.85,1.41-6.13-1-5.3-2.25,4.81-7.65,20.21-25.52,38.5-17.75,7.69,3.26,17.2,11.06,25.85,19.42,6.75,6.93,14.87,15.07,21,17.66,8.75,3.71,18.34.27,26.11-5.5,1.85-1.41,6.13,1,5.3,2.25-5.08,7.54-20.63,25-39.18,17.15C749.94,345.8,741.45,340,733.9,332.74Z" fill="#db4105"/><path d="M445,210.11c-8.23-7.87-16.43-17.3-23.59-20.33-8.75-3.71-18.49-.65-25.73,5.35-1.85,1.41-6.13-1-5.3-2.25,4.81-7.65,20.21-25.52,38.5-17.75,7.69,3.26,17.2,11.06,25.85,19.42,6.75,6.93,14.87,15.07,21,17.66,8.75,3.71,18.34.27,26.11-5.5,1.85-1.41,6.13,1,5.3,2.25-5.08,7.54-20.63,25-39.18,17.15C461.06,223.18,452.57,217.39,445,210.11Z" fill="#db4105"/><path d="M642.83,411.57c-.25-11.39.61-23.85-2.3-31.06-3.56-8.81-12.61-13.54-22-14.41-2.3-.31-3.6-5.07-2.16-5.34,8.81-2,32.34-3.75,39.78,14.67,3.13,7.74,4.35,20,4.55,32-.13,9.68-.14,21.17,2.34,27.31,3.56,8.81,12.77,13.16,22.35,14.57,2.3.31,3.6,5.07,2.16,5.34-8.92,1.74-32.28,3.11-39.83-15.58C644.94,432.14,643,422,642.83,411.57Z" fill="#db4105"/><path d="M525.27,120.59c-.25-11.39.61-23.85-2.3-31.06-3.56-8.81-12.61-13.54-22-14.41-2.3-.31-3.6-5.07-2.16-5.34,8.81-2,32.34-3.75,39.78,14.67,3.13,7.74,4.35,20,4.55,32-.13,9.68-.14,21.17,2.34,27.31,3.56,8.81,12.77,13.16,22.35,14.57,2.3.31,3.6,5.07,2.16,5.34-8.92,1.74-32.28,3.11-39.83-15.58C527.37,141.17,525.47,131.07,525.27,120.59Z" fill="#db4105"/><path d="M522.7,402.92c7.87-8.23,17.3-16.43,20.33-23.59,3.71-8.75.65-18.49-5.35-25.73-1.41-1.85,1-6.13,2.25-5.3,7.65,4.81,25.52,20.21,17.75,38.5-3.26,7.69-11.06,17.2-19.42,25.85-6.93,6.75-15.07,14.87-17.66,21-3.71,8.75-.27,18.34,5.5,26.11,1.41,1.85-1,6.13-2.25,5.3-7.54-5.08-25-20.63-17.15-39.18C509.63,419,515.43,410.47,522.7,402.92Z" fill="#db4105"/><path d="M645.32,114c7.87-8.23,17.3-16.43,20.33-23.59,3.71-8.75.65-18.49-5.35-25.73-1.41-1.85,1-6.13,2.25-5.3,7.65,4.81,25.52,20.21,17.75,38.5-3.26,7.69-11.06,17.2-19.42,25.85-6.93,6.75-15.07,14.87-17.66,21-3.71,8.75-.27,18.34,5.5,26.11,1.41,1.85-1,6.13-2.25,5.3-7.54-5.08-25-20.63-17.15-39.18C632.26,130.07,638,121.59,645.32,114Z" fill="#db4105"/><circle cx="591.62" cy="262.23" r="87.51" fill="#f2bb0f" stroke="#db4105" stroke-miterlimit="10"/><path d="M536.67,218.82a22.86,22.86,0,0,1,41.23,0" fill="none" stroke="#db4105" stroke-miterlimit="10"/><path d="M591.62,308.22a11.43,11.43,0,0,1,20.61,0,22.86,22.86,0,0,1-41.23,0,11.43,11.43,0,0,1,20.61,0Z" fill="none" stroke="#db4105" stroke-linejoin="bevel"/><path d="M606.72,218.82a22.86,22.86,0,0,1,41.23,0" fill="none" stroke="#db4105" stroke-miterlimit="10"/><path d="M538.24,257.27a18,18,0,0,1,32.38,0" fill="none" stroke="#db4105" stroke-miterlimit="10"/><path d="M608.72,257.27a18,18,0,0,1,32.38,0" fill="none" stroke="#db4105" stroke-miterlimit="10"/><path d="M602.35,281.54h4.37c3.68,6.12,11.53,10.35,20.61,10.35s16.93-4.23,20.61-10.35" fill="none" stroke="#db4105" stroke-miterlimit="10"/><path d="M536.67,281.54c3.68,6.12,11.53,10.35,20.61,10.35,8.71,0,16.29-3.89,20.14-9.61q.25-.37.47-.74h4.19" fill="none" stroke="#db4105" stroke-miterlimit="10"/><path d="M576.66,240c6.65,0,11,10.52,11,17.94s-5.11,15.81-6.9,17,2.23,12.67,11.66,12.67,13.14-11.25,11.48-12.67-6.9-8.19-6.9-17c0-7.43,2.81-17.91,8.82-17.91" fill="none" stroke="#db4105" stroke-miterlimit="10"/><ellipse cx="554.65" cy="256.85" rx="6.58" ry="2.78" fill="#db4105"/><ellipse cx="624.91" cy="256.85" rx="6.58" ry="2.78" fill="#db4105"/><path d="M1028.47,173.2V195c0,3.64,2.43,5.19,4.92,5.19a9.83,9.83,0,0,0,3.17-.67c.34-.13,1,1,.34,1.42a20,20,0,0,1-7.69,1.82c-5.12,0-10.72-1.82-10.72-7.75V173.07h-5.12c-.74,0-.47-2.22.54-2.22,5.46,0,12.14-3.57,12.68-8.36.07-.81,1.89-.88,1.89,0v8.29c2.7,0,6.07-.47,7.62-1.69.4-.2-.2,4.25-.67,4.25C1033.12,173.34,1030.36,173.27,1028.47,173.2Z" fill="#59c2e8"/><path d="M1040.54,187.63c-.07-9.17,5.93-17.6,18.75-17.6,7.55,0,16.72,3.64,16.79,14.83.07,8.83-4.59,18.07-18.41,18.07C1050,202.94,1040.61,198.56,1040.54,187.63Zm25.42,1.48c0-8.09-2.83-16.65-9-16.65-4.32,0-6.34,4.52-6.34,10.32,0,8.5,3,17.87,8.83,17.87C1063.6,200.65,1066,195.12,1066,189.12Z" fill="#59c2e8"/><path d="M984.74,294.35a2.29,2.29,0,0,1-2.18-1.19c-.89-1.78-16.52-33.63-25.12-50.84-.79,8.41-1.88,20-2.57,29.38-.59,8.61-.89,15.63-.4,16.81.79,1.78,7,2.28,8,2.28,1.19,0,1.29,2.47,0,2.47s-11.47-1.19-14-1.19c-3.07,0-12.76,1.09-14,1.19s-1.09-2.37,0-2.47,5.84-1.29,7.91-2.77c1.39-1,4-6.63,5.44-14.24,3.46-17.9,7.81-47.38,9.3-55.39.1-.69.79-1.38,2.08-1.38a2.07,2.07,0,0,1,2,1c8.7,14.54,23,43.62,29.08,54.4l23.34-53.22a2.67,2.67,0,0,1,2.47-1.68,2.58,2.58,0,0,1,2.57,1.68c3.86,17.9,6.63,34.82,9.1,47.68,2,10.29,3.86,17.9,6.13,21.36,1.19,2.08,7.81,2.57,9.2,2.57,1.09,0,1.29,2.47,0,2.47s-16-1.19-19.09-1.19c-2.77,0-16.62,1.19-17.8,1.19s-1.19-2.47,0-2.47,8.31-.49,8.41-2.28c0-.79-1.09-8.7-2.57-18.3-1.29-8.9-3-19.49-4.35-27.2l-20.77,50.25A2.06,2.06,0,0,1,984.74,294.35Z" fill="#1f5b7a"/><path d="M1057.62,238.07c0-4.95-.1-11.37-2.08-14.24-1.48-2.18-4.25-2.28-5.44-2.28s-1.19-2.47,0-2.47h50.84c1.19,0,0,13.85,0,14.94s-2.18,1.19-2.18,0c0-4.55-4.25-10.88-17.31-10.88l-7.12-.2v29.28h14.44c4.75-.3,5-1.78,5-5,0-1.09,2.18-1.09,2.18,0v16.72c0,1.09-2.18,1.19-2.18,0,0-3.26-.3-6.53-5-6.73l-14.44-.59V284c0,4.55,5.74,5.24,13.35,5.24s13.95-4.25,17.51-11.37c.59-1.19,2.08-.79,2,.2-.2,1.78-3.07,15.23-6.33,15.23H1049.9c-1.19,0-1.19-2.47,0-2.47s3.76-.1,5.24-2.28c2-2.87,2.47-9.4,2.47-14.34Z" fill="#1f5b7a"/><path d="M1157.9,293.26c-1.19,0-1.09-2.37,0-2.37s6.43-.1,7.22-1.68c1-2.18-10.48-17.51-17.41-27-1.88,3-3.66,6.13-5.24,8.9-4.75,8.7-8.21,14.74-6.92,17.41.79,1.68,7.22,2.28,8.31,2.28s1.29,2.47,0,2.47-13.16-1.19-15.93-1.19c-3.07,0-13.06,1.09-14.34,1.19s-1.19-2.47,0-2.47c2.18,0,6.13-1.39,8.41-2.77,2.67-1.68,6.63-7.32,14.34-18.1,2.37-3.27,5.54-7.52,8.61-11.57-3.36-4.75-20.47-31.75-24.13-34.62-1.88-1.48-5.93-2.28-8.11-2.28-1.19,0-1.29-2.37,0-2.37s15.33,1.09,18,1.09c3.07,0,18-1.19,19.29-1.19s1.09,2.47,0,2.47-7,.2-7.32,2c-.59,3.36,4.65,9.79,15.43,25.82,2.27-3.26,4.45-6.63,6.13-9.59,4.75-8.21,8.61-13.55,7-15.92-1-1.48-7.12-2.28-8.21-2.28s-1.29-2.47,0-2.47,12.76,1.19,15.53,1.19c3.07,0,13.06-1.09,14.34-1.19s1.09,2.37,0,2.47-5.94,1.29-7.91,2.77a107.68,107.68,0,0,0-13.65,14.64c-4.15,5.34-7.52,9.89-10.68,14.24,6.23,9.3,17.51,25.42,25.72,34.72,2.28,2.57,6.43,3,8.8,3,1.19,0,1.29,2.37,0,2.37s-14.93-1.09-17.61-1.09C1174.52,292.07,1159.19,293.26,1157.9,293.26Z" fill="#1f5b7a"/><path d="M1229.11,274.17c.3,10.29.79,12.76,2.08,14.54a5.81,5.81,0,0,0,5,2.08c1.38,0,1.48,2.47,0,2.47-1.29,0-11.08-1.19-15.83-1.19-4.45,0-14.54,1.19-15.83,1.19s-1.29-2.47,0-2.47a5.81,5.81,0,0,0,5-2.08c1.19-1.58,2.57-4.35,2.77-14.44l.2-36.1c-.2-10.09-1.78-13-3-14.54a5.81,5.81,0,0,0-5-2.08c-1.29,0-1.39-2.47,0-2.47s11.37,1.19,15.83,1.19c4.75,0,14.54-1.19,15.83-1.19,1.48,0,1.38,2.47,0,2.47a5.81,5.81,0,0,0-5,2.08c-1.29,1.78-1.78,4.25-2.08,14.54Z" fill="#1f5b7a"/><path d="M1288.15,294c-21.66,0-38.77-13.06-38.77-37.19,0-17.7,13.85-38.58,37.59-38.58,13.75,0,26.21,5.74,28.39,7.81,1.48,1.39-1.29,18.3-2.67,20.47-.49.79-2.77,0-2.47-.69a12.6,12.6,0,0,0,1.19-4.06c1-9.5-10.58-18.79-25.62-18.79-15.23,0-18.79,15.23-18.79,28.09,0,15.92,9.89,37.88,25.12,37.88,14.54,0,20-11.18,20.57-18.89.1-1.19,2.87-1.39,2.87,0,0,2.87-1.29,16.42-1.88,16.72A53.24,53.24,0,0,1,1288.15,294Z" fill="#1f5b7a"/><path d="M1330.57,258.54c0-20.47,13.55-40.26,39.07-40.26,23.24,0,39.07,14,39.07,36.5,0,21.17-14.74,39.27-39.07,39.27C1347.29,294,1330.57,280.6,1330.57,258.54Zm59.35-6.33c-3.56-18-14-31.35-26.81-28.88-12.36,2.47-17.31,18.69-13.85,36.6s14,31.16,27.2,28.78C1388.63,286.33,1393.38,270.11,1389.92,252.21Z" fill="#1f5b7a"/><path d="M159.38,694C367.55,687.18,1443,673.6,1596.9,694c0,0-201.49-146.39-404.84-146.39s-466.72,105.8-466.72,105.8" fill="#00749d"/><path d="M960.49,683.22c-229.22.27-677.26,6.71-801.12,10.75,0,0,233.87-81.14,397.13-81.14s404,70.39,404,70.39" fill="#59c2e8"/><path d="M1549.59,476.43a7.54,7.54,0,0,0-7.54,7.54s0,0,0,.07v41.35a8.31,8.31,0,0,1-7.22,8.23v-40.1a7.54,7.54,0,1,0-15.07,0s0,0,0,.07v77.6a8.32,8.32,0,0,1-4.72,7.48v-127a7.54,7.54,0,1,0-15.07,0s0,0,0,.07V599.83a7.86,7.86,0,0,1-5.63-7.91V382.81a7.54,7.54,0,1,0-15.07,0s0,0,0,.07V566.78h-.25a8,8,0,0,1-8.34-8.34V501a7.54,7.54,0,1,0-15.07,0s0,0,0,.07v58.51A14.37,14.37,0,0,0,1470,574h9.28v18c0,7.93,6.43,15.52,14.37,15.52H1500v80.42h15.06V586.7h5.42a14.37,14.37,0,0,0,14.37-14.37V540.9h7.92a14.37,14.37,0,0,0,14.37-14.37V484A7.54,7.54,0,0,0,1549.59,476.43Z" fill="#db4105"/><path d="M159.38,694C407.86,670.11,1443,673.6,1596.9,694l-1007.44,246Z" fill="#f2bb0f"/><path d="M1173.78,881.14c.07,2.29.2,3.08.47,3.51s1.53.47,1.8.47.22.36,0,.36-2.72-.11-3.3-.11-2.76.11-3.05.11-.2-.36,0-.36,1.28,0,1.64-.47.56-1.21.61-3.51V873c0-2.29-.34-3.15-.61-3.51s-1.37-.47-1.64-.47-.22-.36,0-.36,2.45.11,3.05.11,2.94-.11,3.24-.11.2.36,0,.36-1.39,0-1.75.47-.38,1.21-.45,3.51Z" fill="#00749d"/><path d="M1197,885.47c-.25,0-1.91-.18-2.54-.18s-2.22.18-2.49.18-.13-.31.07-.31a1.58,1.58,0,0,0,1.15-.52,10.29,10.29,0,0,0,.47-3.51v-2c0-2.29-.74-2.83-2-2.83a4,4,0,0,0-3.12,2.07v2.74c0,.88,0,2.94.38,3.55.27.4,1,.47,1.26.47s.22.31,0,.31-1.91-.18-2.54-.18-2.22.18-2.49.18-.13-.31.07-.31a1.58,1.58,0,0,0,1.15-.52,10.29,10.29,0,0,0,.47-3.51v-8.4c0-.88.07-2.79-.36-3.3s-.88-.29-1.28-.22c-.16,0-.25-.27,0-.34s2.38-.56,3-.7c.27-.07.38,0,.38.27l-.09,4.29v4.56a4.79,4.79,0,0,1,3.86-2c1.86,0,2.94,1.06,2.94,3.84v2c0,.88,0,2.94.38,3.55.27.4,1,.47,1.26.47S1197.21,885.47,1197,885.47Z" fill="#00749d"/><path d="M1204.16,883.54a4.37,4.37,0,0,1-3.19,2,2.54,2.54,0,0,1-2.81-2.63c.11-2.36,3.59-2.9,5.93-3.3V879c0-1.69-.76-3.1-2.22-3.1a1.84,1.84,0,0,0-1.93,2.09c0,.07-.45,0-.67,0-.63-.2-.72-.36-.72-.7,0-.7,1.12-2,3.26-2,2.74,0,4,1.55,4,3.62v2.27a10.77,10.77,0,0,0,.43,3.46,1.44,1.44,0,0,0,1.15.56c.22,0,.18.29,0,.31a8.78,8.78,0,0,1-1.12.07c-.76,0-1.06,0-1.33-.25A2.45,2.45,0,0,1,1204.16,883.54Zm-2.49,1.19a3.08,3.08,0,0,0,2.45-2,5.81,5.81,0,0,1,0-.63v-1.77c-1.91.29-4.09.72-4.2,2.34A1.73,1.73,0,0,0,1201.67,884.73Z" fill="#00749d"/><path d="M1216,883.85a4.16,4.16,0,0,1-3.06,1.73c-2.65,0-4.29-1.93-4.29-4.94s1.93-5.39,4.72-5.39a7.19,7.19,0,0,1,2.56.52v-3c0-.88.09-2.79-.34-3.3s-.88-.29-1.28-.22c-.16,0-.25-.27,0-.34s2.38-.56,3-.7c.27-.07.38,0,.38.27l-.11,4.29v8.4a10.77,10.77,0,0,0,.43,3.46,1.44,1.44,0,0,0,1.15.56c.22,0,.18.29,0,.31s-.67,0-1.19,0-1.21,0-1.5-.29A2.34,2.34,0,0,1,1216,883.85Zm-2.31.88a2.7,2.7,0,0,0,2.25-1.87v-6.13a5,5,0,0,0-2.63-.74c-1.84,0-2.92,1.57-2.92,3.66C1210.35,881.45,1211.31,884.73,1213.65,884.73Z" fill="#00749d"/><path d="M1234.39,883.54a4.37,4.37,0,0,1-3.19,2,2.54,2.54,0,0,1-2.81-2.63c.11-2.36,3.59-2.9,5.93-3.3V879c0-1.69-.76-3.1-2.22-3.1a1.84,1.84,0,0,0-1.93,2.09c0,.07-.45,0-.67,0-.63-.2-.72-.36-.72-.7,0-.7,1.12-2,3.26-2,2.74,0,4,1.55,4,3.62v2.27a10.77,10.77,0,0,0,.43,3.46,1.44,1.44,0,0,0,1.15.56c.22,0,.18.29,0,.31a8.78,8.78,0,0,1-1.12.07c-.76,0-1.06,0-1.33-.25A2.45,2.45,0,0,1,1234.39,883.54Zm-2.49,1.19a3.08,3.08,0,0,0,2.45-2,5.81,5.81,0,0,1,0-.63v-1.77c-1.91.29-4.09.72-4.2,2.34A1.73,1.73,0,0,0,1231.9,884.73Z" fill="#00749d"/><path d="M1264,885.47c-.25,0-1.91-.18-2.54-.18s-2.22.18-2.49.18-.13-.31.07-.31a1.58,1.58,0,0,0,1.15-.52,10.29,10.29,0,0,0,.47-3.51v-2c0-1.8-.45-3-1.82-3a3.24,3.24,0,0,0-2.61,1.78c0,.31,0,.65,0,1v2.16c0,.88,0,2.94.38,3.55.27.4,1,.47,1.28.47s.22.31,0,.31-1.91-.18-2.54-.18-2.22.18-2.49.18-.13-.31.07-.31a1.58,1.58,0,0,0,1.15-.52,10.3,10.3,0,0,0,.45-3.51v-1.89c0-2.43-.76-3.08-1.93-3.08a3.5,3.5,0,0,0-2.63,2l0,1.46v1.46c0,.88,0,2.94.38,3.55.27.4,1,.47,1.26.47s.22.31,0,.31-1.91-.18-2.54-.18-2.22.18-2.49.18-.13-.31.07-.31a1.58,1.58,0,0,0,1.15-.52,10.26,10.26,0,0,0,.47-3.51v-1.3c0-.88,0-2.72-.4-3.3s-1.06-.29-1.46-.22c-.16,0-.25-.27,0-.34l3.24-.7c.27-.07.38,0,.38.27l0,1.64a4.44,4.44,0,0,1,3.39-1.93,2.36,2.36,0,0,1,2.58,1.89,4.41,4.41,0,0,1,3.41-1.89c1.84,0,2.85,1.1,2.85,3.64v2.25c0,.88,0,2.94.38,3.55.27.4,1,.47,1.26.47S1264.21,885.47,1264,885.47Z" fill="#00749d"/><path d="M1271.16,883.54a4.37,4.37,0,0,1-3.19,2,2.54,2.54,0,0,1-2.81-2.63c.11-2.36,3.59-2.9,5.93-3.3V879c0-1.69-.76-3.1-2.22-3.1a1.84,1.84,0,0,0-1.93,2.09c0,.07-.45,0-.67,0-.63-.2-.72-.36-.72-.7,0-.7,1.12-2,3.26-2,2.74,0,4,1.55,4,3.62v2.27a10.77,10.77,0,0,0,.43,3.46,1.44,1.44,0,0,0,1.15.56c.22,0,.18.29,0,.31a8.78,8.78,0,0,1-1.12.07c-.76,0-1.06,0-1.33-.25A2.45,2.45,0,0,1,1271.16,883.54Zm-2.49,1.19a3.08,3.08,0,0,0,2.45-2,5.81,5.81,0,0,1,0-.63v-1.77c-1.91.29-4.09.72-4.2,2.34A1.73,1.73,0,0,0,1268.67,884.73Z" fill="#00749d"/><path d="M1278.29,875.93v7.14a1.55,1.55,0,0,0,1.59,1.73,3.29,3.29,0,0,0,1.06-.22c.11,0,.34.34.11.47a4.46,4.46,0,0,1-1.8.61,2.45,2.45,0,0,1-2.7-2.58v-7.12h-1.66c-.16,0,0-.58.18-.58a2.61,2.61,0,0,0,2.61-2.63c0-.22.61-.25.61,0v2.54a5.07,5.07,0,0,0,2.7-.56c.13-.07,0,1.21-.16,1.21Z" fill="#00749d"/><path d="M1284,880.28c.18,2.54,1.8,4.43,3.91,4.43a3.94,3.94,0,0,0,2.52-.85c.27-.22.36,0,.25.14a4.51,4.51,0,0,1-3.48,1.59,4.64,4.64,0,0,1-5-5,5.5,5.5,0,0,1,5.48-5.32c2.13,0,3,1,3,1.71,0,.34-.2.7-.85.9-.22.07-.67.18-.67.11a2,2,0,0,0-1.86-2.09C1285.12,875.88,1283.8,878.15,1284,880.28Z" fill="#00749d"/><path d="M1303.52,885.47c-.25,0-1.91-.18-2.54-.18s-2.22.18-2.49.18-.13-.31.07-.31a1.58,1.58,0,0,0,1.15-.52,10.29,10.29,0,0,0,.47-3.51v-2c0-2.29-.74-2.83-2-2.83a4,4,0,0,0-3.12,2.07v2.74c0,.88,0,2.94.38,3.55.27.4,1,.47,1.26.47s.22.31,0,.31-1.91-.18-2.54-.18-2.22.18-2.49.18-.13-.31.07-.31a1.58,1.58,0,0,0,1.15-.52,10.29,10.29,0,0,0,.47-3.51v-8.4c0-.88.07-2.79-.36-3.3s-.88-.29-1.28-.22c-.16,0-.25-.27,0-.34s2.38-.56,3-.7c.27-.07.38,0,.38.27l-.09,4.29v4.56a4.79,4.79,0,0,1,3.86-2c1.86,0,2.94,1.06,2.94,3.84v2c0,.88,0,2.94.38,3.55.27.4,1,.47,1.26.47S1303.7,885.47,1303.52,885.47Z" fill="#00749d"/><path d="M1305.37,887.94a3,3,0,0,0,1.08-2.45,1.25,1.25,0,0,1-.31,0,1.3,1.3,0,0,1-1.26-1.33,1.47,1.47,0,0,1,1.39-1.3,1.59,1.59,0,0,1,1.41,1.41,4.16,4.16,0,0,1-2.07,4.13A.29.29,0,0,1,1305.37,887.94Z" fill="#00749d"/><path d="M1324.65,885.58c-.27,0-2.22-.18-3.21-.18-.63,0-3.37.07-3.68.07s-.16-.36,0-.36c.79,0,1.26,0,1.62-.45a7.36,7.36,0,0,0,.63-3.53V873a7.35,7.35,0,0,0-.63-3.53c-.36-.4-.83-.45-1.62-.45-.2,0-.27-.36,0-.36h5.82c2.18,0,4.67,1.06,4.67,3.89,0,1.73-1,3.21-3.19,4,3,.4,4.74,2.11,4.74,4.38A5,5,0,0,1,1324.65,885.58Zm-1.12-9.23c1.71,0,3.08-1.24,3-3.66a3.34,3.34,0,0,0-3.15-3.37h-1.48v7Zm-1.66.65v6.65c0,1,2,1.15,2.88,1.15,2,0,3.17-1.66,3.06-3.73-.16-2.92-2.07-4.07-4-4.07Z" fill="#00749d"/><path d="M1339.08,883.32a3.78,3.78,0,0,1-3.35,2.27c-2.25,0-3.35-1.44-3.35-4v-1.73c0-.88.07-2.79-.36-3.3s-.88-.29-1.28-.22c-.16,0-.25-.27,0-.34s2.38-.56,3-.7c.27-.07.38,0,.38.27l-.09,4.29v1.66c0,2,.7,3.15,2.07,3.15a3.64,3.64,0,0,0,2.94-2.29v-2.52c0-.88,0-2.72-.4-3.3s-1.06-.29-1.46-.22c-.16,0-.25-.27,0-.34l3.24-.7c.27-.07.38,0,.38.27l-.09,4.29v1.3a10.74,10.74,0,0,0,.43,3.46,1.44,1.44,0,0,0,1.15.56c.22,0,.18.29,0,.31s-.88.07-1.44.07a1.81,1.81,0,0,1-1.3-.38A3.48,3.48,0,0,1,1339.08,883.32Z" fill="#00749d"/><path d="M1346.37,875.93v7.14a1.55,1.55,0,0,0,1.59,1.73,3.29,3.29,0,0,0,1.06-.22c.11,0,.34.34.11.47a4.46,4.46,0,0,1-1.8.61,2.45,2.45,0,0,1-2.7-2.58v-7.12H1343c-.16,0,0-.58.18-.58a2.61,2.61,0,0,0,2.61-2.63c0-.22.61-.25.61,0v2.54a5.07,5.07,0,0,0,2.7-.56c.13-.07,0,1.21-.16,1.21Z" fill="#00749d"/><path d="M1358.6,882.24a4.32,4.32,0,0,0,.94,1.75,3.8,3.8,0,0,0,2.43.94,1.93,1.93,0,0,0,2.13-1.78c0-1.06-1.5-1.62-2.85-2.34s-2.81-1.55-2.81-3.21c0-1.5,1.73-2.36,3.57-2.36a9.8,9.8,0,0,1,2.9.4,9,9,0,0,1,0,2.2c0,.07-.18.07-.2,0a2.49,2.49,0,0,0-2.83-1.93c-1.21,0-2,.61-2,1.5s1.17,1.35,2.72,2.18,3,1.57,3,3.28-1.77,2.7-3.77,2.7a8.32,8.32,0,0,1-3.35-.7,13.81,13.81,0,0,1-.11-2.65C1358.37,882.12,1358.57,882.15,1358.6,882.24Z" fill="#00749d"/><path d="M1378.77,885.47c-.25,0-1.91-.18-2.54-.18s-2.22.18-2.49.18-.13-.31.07-.31a1.58,1.58,0,0,0,1.15-.52,10.29,10.29,0,0,0,.47-3.51v-2c0-2.29-.74-2.83-2-2.83a4,4,0,0,0-3.12,2.07v2.74c0,.88,0,2.94.38,3.55.27.4,1,.47,1.26.47s.22.31,0,.31-1.91-.18-2.54-.18-2.22.18-2.49.18-.13-.31.07-.31a1.58,1.58,0,0,0,1.15-.52,10.29,10.29,0,0,0,.47-3.51v-8.4c0-.88.07-2.79-.36-3.3s-.88-.29-1.28-.22c-.16,0-.25-.27,0-.34s2.38-.56,3-.7c.27-.07.38,0,.38.27l-.09,4.29v4.56a4.79,4.79,0,0,1,3.86-2c1.86,0,2.94,1.06,2.94,3.84v2c0,.88,0,2.94.38,3.55.27.4,1,.47,1.26.47S1379,885.47,1378.77,885.47Z" fill="#00749d"/><path d="M1385,885.58a4.57,4.57,0,0,1-4.83-4.85c0-3.26,2.11-5.48,4.65-5.48,2.31,0,3.93,1.46,3.93,3.14,0,.65-.25.81-.79.92l-6,1.28c.29,2.09,1.66,4.11,3.89,4.11a4,4,0,0,0,2.52-.88c.18-.16.36-.07.22.16A4.46,4.46,0,0,1,1385,885.58Zm-3.08-5.68,5.08-1.08c-.09-1.62-.85-2.88-2.54-2.88C1382.53,875.95,1381.79,877.77,1381.88,879.9Z" fill="#00749d"/><path d="M1409.88,885.47c-.25,0-1.91-.18-2.54-.18s-2.22.18-2.49.18-.13-.31.07-.31a1.58,1.58,0,0,0,1.15-.52,10.29,10.29,0,0,0,.47-3.51v-2c0-2.29-.74-2.83-2-2.83a4,4,0,0,0-3.12,2.07v2.74c0,.88,0,2.94.38,3.55.27.4,1,.47,1.26.47s.22.31,0,.31-1.91-.18-2.54-.18-2.22.18-2.49.18-.13-.31.07-.31a1.58,1.58,0,0,0,1.15-.52,10.29,10.29,0,0,0,.47-3.51v-8.4c0-.88.07-2.79-.36-3.3s-.88-.29-1.28-.22c-.16,0-.25-.27,0-.34s2.38-.56,3-.7c.27-.07.38,0,.38.27l-.09,4.29v4.56a4.79,4.79,0,0,1,3.86-2c1.86,0,2.94,1.06,2.94,3.84v2c0,.88,0,2.94.38,3.55.27.4,1,.47,1.26.47S1410.06,885.47,1409.88,885.47Z" fill="#00749d"/><path d="M1417,883.54a4.37,4.37,0,0,1-3.19,2A2.54,2.54,0,0,1,1411,883c.11-2.36,3.59-2.9,5.93-3.3V879c0-1.69-.76-3.1-2.22-3.1a1.84,1.84,0,0,0-1.93,2.09c0,.07-.45,0-.67,0-.63-.2-.72-.36-.72-.7,0-.7,1.12-2,3.26-2,2.74,0,4,1.55,4,3.62v2.27a10.77,10.77,0,0,0,.43,3.46,1.44,1.44,0,0,0,1.15.56c.22,0,.18.29,0,.31a8.78,8.78,0,0,1-1.12.07c-.76,0-1.06,0-1.33-.25A2.45,2.45,0,0,1,1417,883.54Zm-2.49,1.19a3.08,3.08,0,0,0,2.45-2,5.81,5.81,0,0,1,0-.63v-1.77c-1.91.29-4.09.72-4.2,2.34A1.73,1.73,0,0,0,1414.51,884.73Z" fill="#00749d"/><path d="M1428.81,883.85a4.16,4.16,0,0,1-3.06,1.73c-2.65,0-4.29-1.93-4.29-4.94s1.93-5.39,4.72-5.39a7.19,7.19,0,0,1,2.56.52v-3c0-.88.09-2.79-.34-3.3s-.88-.29-1.28-.22c-.16,0-.25-.27,0-.34s2.38-.56,3-.7c.27-.07.38,0,.38.27l-.11,4.29v8.4a10.77,10.77,0,0,0,.43,3.46,1.44,1.44,0,0,0,1.15.56c.22,0,.18.29,0,.31s-.67,0-1.19,0-1.21,0-1.5-.29A2.34,2.34,0,0,1,1428.81,883.85Zm-2.31.88a2.7,2.7,0,0,0,2.25-1.87v-6.13a5,5,0,0,0-2.63-.74c-1.84,0-2.92,1.57-2.92,3.66C1423.19,881.45,1424.16,884.73,1426.49,884.73Z" fill="#00749d"/><path d="M1447.24,883.54a4.37,4.37,0,0,1-3.19,2,2.54,2.54,0,0,1-2.81-2.63c.11-2.36,3.59-2.9,5.93-3.3V879c0-1.69-.76-3.1-2.22-3.1A1.84,1.84,0,0,0,1443,878c0,.07-.45,0-.67,0-.63-.2-.72-.36-.72-.7,0-.7,1.12-2,3.26-2,2.74,0,4,1.55,4,3.62v2.27a10.77,10.77,0,0,0,.43,3.46,1.44,1.44,0,0,0,1.15.56c.22,0,.18.29,0,.31a8.78,8.78,0,0,1-1.12.07c-.76,0-1.06,0-1.33-.25A2.45,2.45,0,0,1,1447.24,883.54Zm-2.49,1.19a3.08,3.08,0,0,0,2.45-2,5.81,5.81,0,0,1,0-.63v-1.77c-1.91.29-4.09.72-4.2,2.34A1.73,1.73,0,0,0,1444.74,884.73Z" fill="#00749d"/><path d="M1462.68,881.14c0,.88,0,2.94.38,3.55.27.4,1,.47,1.26.47s.22.31,0,.31-1.91-.18-2.54-.18-2.22.18-2.49.18-.13-.31.07-.31a1.58,1.58,0,0,0,1.15-.52,10.29,10.29,0,0,0,.47-3.51v-8.4c0-.88.07-2.79-.36-3.3s-.88-.29-1.28-.22c-.16,0-.25-.27,0-.34s2.38-.56,3-.7c.27-.07.38,0,.38.27l-.09,4.29Z" fill="#00749d"/><path d="M1466.82,876.53c-.36-.45-.88-.29-1.28-.22-.16,0-.25-.27,0-.34s2.38-.56,3-.7c.27-.07.38,0,.38.27l-.09,4.29v1.3c0,.88,0,2.94.38,3.55.27.4,1,.47,1.26.47s.22.31,0,.31-1.91-.18-2.54-.18-2.22.18-2.49.18-.13-.31.07-.31a1.58,1.58,0,0,0,1.15-.52,10.26,10.26,0,0,0,.47-3.51v-1.3C1467.17,879,1467.24,877,1466.82,876.53Zm-.11-5a1.17,1.17,0,0,1,.67-1.53c.58-.2,1.42.07,1.53.65a1.12,1.12,0,0,1-.7,1.53A1.16,1.16,0,0,1,1466.7,871.54Z" fill="#00749d"/><path d="M1475.71,890.62c-2.43,0-4.63-.72-4.63-2.54,0-1.08,1.37-1.77,3.59-2.74-1.91-.31-2.52-1.15-2.52-1.8,0-.81.81-1.35,1.73-1.68a3.18,3.18,0,0,1-2-3c0-2.09,2.09-3.62,4.11-3.62h.07a3.24,3.24,0,0,1,.45,0,11.66,11.66,0,0,0,3.75-.2c.61-.2.72-.49.88-.49s.16.11.13.25c-.07.4-.2,1.12-.4,1.12l-2.38-.11a3.07,3.07,0,0,1,1.66,2.74,3.93,3.93,0,0,1-4.16,3.71,4.83,4.83,0,0,1-1.55-.25c-.7.32-1.08.67-1,1.1.18.74,2.52.76,3.68.83,2.13.11,4.29.83,4.29,2.65S1478.72,890.62,1475.71,890.62Zm.36-.58c1.93,0,3.77-1.37,3.75-3.06,0-1.15-1.89-1.37-4.07-1.51l-.54,0c-1.1.38-2.54,1.24-2.54,2.45S1474.59,890,1476.07,890ZM1478.5,879c-.13-1.71-1.19-3.12-2.92-3.12a2.31,2.31,0,0,0-2.11,2.76,3.31,3.31,0,0,0,3,3.12C1477.92,881.74,1478.61,880.26,1478.5,879Z" fill="#00749d"/><path d="M1493.92,885.47c-.25,0-1.91-.18-2.54-.18s-2.22.18-2.49.18-.13-.31.07-.31a1.58,1.58,0,0,0,1.15-.52,10.29,10.29,0,0,0,.47-3.51v-2c0-2.29-.74-2.83-2-2.83a4,4,0,0,0-3.12,2.07v2.74c0,.88,0,2.94.38,3.55.27.4,1,.47,1.26.47s.22.31,0,.31-1.91-.18-2.54-.18-2.22.18-2.49.18-.13-.31.07-.31a1.58,1.58,0,0,0,1.15-.52,10.29,10.29,0,0,0,.47-3.51v-8.4c0-.88.07-2.79-.36-3.3s-.88-.29-1.28-.22c-.16,0-.25-.27,0-.34s2.38-.56,3-.7c.27-.07.38,0,.38.27l-.09,4.29v4.56a4.79,4.79,0,0,1,3.86-2c1.86,0,2.94,1.06,2.94,3.84v2c0,.88,0,2.94.38,3.55.27.4,1,.47,1.26.47S1494.1,885.47,1493.92,885.47Z" fill="#00749d"/><path d="M1497.95,875.93v7.14a1.55,1.55,0,0,0,1.59,1.73,3.29,3.29,0,0,0,1.06-.22c.11,0,.34.34.11.47a4.46,4.46,0,0,1-1.8.61,2.45,2.45,0,0,1-2.7-2.58v-7.12h-1.66c-.16,0,0-.58.18-.58a2.61,2.61,0,0,0,2.61-2.63c0-.22.61-.25.61,0v2.54a5.07,5.07,0,0,0,2.7-.56c.13-.07,0,1.21-.16,1.21Z" fill="#00749d"/><path d="M1506.64,885.58a4.57,4.57,0,0,1-4.83-4.85c0-3.26,2.11-5.48,4.65-5.48,2.31,0,3.93,1.46,3.93,3.14,0,.65-.25.81-.79.92l-6,1.28c.29,2.09,1.66,4.11,3.89,4.11a4,4,0,0,0,2.52-.88c.18-.16.36-.07.22.16A4.46,4.46,0,0,1,1506.64,885.58Zm-3.08-5.68,5.08-1.08c-.09-1.62-.85-2.88-2.54-2.88C1504.22,875.95,1503.47,877.77,1503.56,879.9Z" fill="#00749d"/><path d="M1516.66,885.47c-.25,0-1.91-.18-2.54-.18s-2.22.18-2.49.18-.13-.31.07-.31a1.58,1.58,0,0,0,1.15-.52,10.29,10.29,0,0,0,.47-3.51v-1.3c0-.88.07-2.79-.36-3.3s-.88-.29-1.28-.22c-.16,0-.25-.27,0-.34s2.38-.56,3-.7c.27-.07.38,0,.38.27l0,1.89c.45-.94,1.42-2.18,2.7-2.18a1.94,1.94,0,0,1,2,1.71c0,.34-.09.7-.74.9-.22.07-.67.18-.67.11,0-.72-.63-1.8-1.44-1.8s-1.46,1.15-1.86,2.34l0,1.32v1.3c0,.88,0,2.94.38,3.55.27.4,1,.47,1.26.47S1516.84,885.47,1516.66,885.47Z" fill="#00749d"/><path d="M1521.68,887.94a3,3,0,0,0,1.08-2.45,1.25,1.25,0,0,1-.31,0,1.3,1.3,0,0,1-1.26-1.33,1.47,1.47,0,0,1,1.39-1.3,1.59,1.59,0,0,1,1.41,1.41,4.16,4.16,0,0,1-2.07,4.13A.29.29,0,0,1,1521.68,887.94Z" fill="#00749d"/><path d="M1173.78,912.6c.07,2.29.2,3.08.47,3.51s1.53.47,1.8.47.22.36,0,.36-2.72-.11-3.3-.11-2.76.11-3.05.11-.2-.36,0-.36,1.28,0,1.64-.47.56-1.21.61-3.51v-8.18c0-2.29-.34-3.15-.61-3.51s-1.37-.47-1.64-.47-.22-.36,0-.36,2.45.11,3.05.11,2.94-.11,3.24-.11.2.36,0,.36-1.39,0-1.75.47-.38,1.21-.45,3.51Z" fill="#00749d"/><path d="M1197,916.94c-.25,0-1.91-.18-2.54-.18s-2.22.18-2.49.18-.13-.31.07-.31a1.58,1.58,0,0,0,1.15-.52,10.29,10.29,0,0,0,.47-3.51v-2c0-2.29-.74-2.83-2-2.83a4,4,0,0,0-3.12,2.07v2.74c0,.88,0,2.94.38,3.55.27.4,1,.47,1.26.47s.22.31,0,.31-1.91-.18-2.54-.18-2.22.18-2.49.18-.13-.31.07-.31a1.58,1.58,0,0,0,1.15-.52,10.29,10.29,0,0,0,.47-3.51v-8.4c0-.88.07-2.79-.36-3.3s-.88-.29-1.28-.22c-.16,0-.25-.27,0-.34s2.38-.56,3-.7c.27-.07.38,0,.38.27l-.09,4.29v4.56a4.79,4.79,0,0,1,3.86-2c1.86,0,2.94,1.06,2.94,3.84v2c0,.88,0,2.94.38,3.55.27.4,1,.47,1.26.47S1197.21,916.94,1197,916.94Z" fill="#00749d"/><path d="M1204.16,915a4.37,4.37,0,0,1-3.19,2,2.54,2.54,0,0,1-2.81-2.63c.11-2.36,3.59-2.9,5.93-3.3v-.65c0-1.69-.76-3.1-2.22-3.1a1.84,1.84,0,0,0-1.93,2.09c0,.07-.45,0-.67,0-.63-.2-.72-.36-.72-.7,0-.7,1.12-2,3.26-2,2.74,0,4,1.55,4,3.62v2.27a10.77,10.77,0,0,0,.43,3.46,1.44,1.44,0,0,0,1.15.56c.22,0,.18.29,0,.31a8.78,8.78,0,0,1-1.12.07c-.76,0-1.06,0-1.33-.25A2.45,2.45,0,0,1,1204.16,915Zm-2.49,1.19a3.08,3.08,0,0,0,2.45-2,5.81,5.81,0,0,1,0-.63v-1.77c-1.91.29-4.09.72-4.2,2.34A1.73,1.73,0,0,0,1201.67,916.2Z" fill="#00749d"/><path d="M1216,915.32a4.16,4.16,0,0,1-3.06,1.73c-2.65,0-4.29-1.93-4.29-4.94s1.93-5.39,4.72-5.39a7.19,7.19,0,0,1,2.56.52v-3c0-.88.09-2.79-.34-3.3s-.88-.29-1.28-.22c-.16,0-.25-.27,0-.34s2.38-.56,3-.7c.27-.07.38,0,.38.27l-.11,4.29v8.4a10.77,10.77,0,0,0,.43,3.46,1.44,1.44,0,0,0,1.15.56c.22,0,.18.29,0,.31s-.67,0-1.19,0-1.21,0-1.5-.29A2.34,2.34,0,0,1,1216,915.32Zm-2.31.88a2.7,2.7,0,0,0,2.25-1.87V908.2a5,5,0,0,0-2.63-.74c-1.84,0-2.92,1.57-2.92,3.66C1210.35,912.92,1211.31,916.2,1213.65,916.2Z" fill="#00749d"/><path d="M1234.39,915a4.37,4.37,0,0,1-3.19,2,2.54,2.54,0,0,1-2.81-2.63c.11-2.36,3.59-2.9,5.93-3.3v-.65c0-1.69-.76-3.1-2.22-3.1a1.84,1.84,0,0,0-1.93,2.09c0,.07-.45,0-.67,0-.63-.2-.72-.36-.72-.7,0-.7,1.12-2,3.26-2,2.74,0,4,1.55,4,3.62v2.27a10.77,10.77,0,0,0,.43,3.46,1.44,1.44,0,0,0,1.15.56c.22,0,.18.29,0,.31a8.78,8.78,0,0,1-1.12.07c-.76,0-1.06,0-1.33-.25A2.45,2.45,0,0,1,1234.39,915Zm-2.49,1.19a3.08,3.08,0,0,0,2.45-2,5.81,5.81,0,0,1,0-.63v-1.77c-1.91.29-4.09.72-4.2,2.34A1.73,1.73,0,0,0,1231.9,916.2Z" fill="#00749d"/><path d="M1257.92,916.94c-.25,0-1.91-.18-2.54-.18s-2.22.18-2.49.18-.13-.31.07-.31a1.58,1.58,0,0,0,1.15-.52,10.26,10.26,0,0,0,.47-3.51V903a2.81,2.81,0,0,0-2.61-2.52c-1.75,0-1.75,1.64-1.75,3.82v2.52h2.45c.18,0,0,.56-.22.56-.63,0-1.51,0-2.22,0v5.21c0,.88,0,2.94.38,3.55.27.4,1,.47,1.26.47s.22.31,0,.31-1.91-.18-2.54-.18-2.22.18-2.49.18-.13-.31.07-.31a1.58,1.58,0,0,0,1.15-.52,10.29,10.29,0,0,0,.47-3.51v-5.19c-.65,0-1.44.09-1.89.09-.18,0,.07-.67.29-.67h1.59v-2.34c0-3.14,1.39-4.58,3.44-4.58a6.93,6.93,0,0,1,2.07.4c.67-.16,1.53-.31,1.89-.4s.38,0,.38.27l-.09,4.29v8.13c0,.88,0,2.94.38,3.55.27.4,1,.47,1.26.47S1258.1,916.94,1257.92,916.94Z" fill="#00749d"/><path d="M1265.27,915a4.37,4.37,0,0,1-3.19,2,2.54,2.54,0,0,1-2.81-2.63c.11-2.36,3.59-2.9,5.93-3.3v-.65c0-1.69-.76-3.1-2.22-3.1a1.84,1.84,0,0,0-1.93,2.09c0,.07-.45,0-.67,0-.63-.2-.72-.36-.72-.7,0-.7,1.12-2,3.26-2,2.74,0,4,1.55,4,3.62v2.27a10.77,10.77,0,0,0,.43,3.46,1.44,1.44,0,0,0,1.15.56c.22,0,.18.29,0,.31a8.78,8.78,0,0,1-1.12.07c-.76,0-1.06,0-1.33-.25A2.45,2.45,0,0,1,1265.27,915Zm-2.49,1.19a3.08,3.08,0,0,0,2.45-2,5.81,5.81,0,0,1,0-.63v-1.77c-1.91.29-4.09.72-4.2,2.34A1.73,1.73,0,0,0,1262.78,916.2Z" fill="#00749d"/><path d="M1286.82,916.94c-.25,0-1.91-.18-2.54-.18s-2.22.18-2.49.18-.13-.31.07-.31a1.58,1.58,0,0,0,1.15-.52,10.29,10.29,0,0,0,.47-3.51v-2c0-1.8-.45-3-1.82-3a3.24,3.24,0,0,0-2.61,1.78c0,.31,0,.65,0,1v2.16c0,.88,0,2.94.38,3.55.27.4,1,.47,1.28.47s.22.31,0,.31-1.91-.18-2.54-.18-2.22.18-2.49.18-.13-.31.07-.31a1.58,1.58,0,0,0,1.15-.52,10.3,10.3,0,0,0,.45-3.51v-1.89c0-2.43-.76-3.08-1.93-3.08a3.5,3.5,0,0,0-2.63,2l0,1.46v1.46c0,.88,0,2.94.38,3.55.27.4,1,.47,1.26.47s.22.31,0,.31-1.91-.18-2.54-.18-2.22.18-2.49.18-.13-.31.07-.31a1.58,1.58,0,0,0,1.15-.52,10.26,10.26,0,0,0,.47-3.51v-1.3c0-.88,0-2.72-.4-3.3s-1.06-.29-1.46-.22c-.16,0-.25-.27,0-.34l3.24-.7c.27-.07.38,0,.38.27l0,1.64a4.44,4.44,0,0,1,3.39-1.93,2.36,2.36,0,0,1,2.58,1.89,4.41,4.41,0,0,1,3.41-1.89c1.84,0,2.85,1.1,2.85,3.64v2.25c0,.88,0,2.94.38,3.55.27.4,1,.47,1.26.47S1287,916.94,1286.82,916.94Z" fill="#00749d"/><path d="M1293,917.05a4.57,4.57,0,0,1-4.83-4.85c0-3.26,2.11-5.48,4.65-5.48,2.31,0,3.93,1.46,3.93,3.14,0,.65-.25.81-.79.92l-6,1.28c.29,2.09,1.66,4.11,3.89,4.11a4,4,0,0,0,2.52-.88c.18-.16.36-.07.22.16A4.46,4.46,0,0,1,1293,917.05Zm-3.08-5.68,5.08-1.08c-.09-1.62-.85-2.88-2.54-2.88C1290.58,907.41,1289.84,909.23,1289.93,911.37Z" fill="#00749d"/><path d="M1298.95,919.41A3,3,0,0,0,1300,917a1.25,1.25,0,0,1-.31,0,1.3,1.3,0,0,1-1.26-1.33,1.47,1.47,0,0,1,1.39-1.3,1.59,1.59,0,0,1,1.41,1.41,4.16,4.16,0,0,1-2.07,4.13A.29.29,0,0,1,1298.95,919.41Z" fill="#00749d"/><path d="M1318.23,917.05c-.27,0-2.22-.18-3.21-.18-.63,0-3.37.07-3.68.07s-.16-.36,0-.36c.79,0,1.26,0,1.62-.45a7.36,7.36,0,0,0,.63-3.53v-8.18a7.35,7.35,0,0,0-.63-3.53c-.36-.4-.83-.45-1.62-.45-.2,0-.27-.36,0-.36h5.82c2.18,0,4.67,1.06,4.67,3.89,0,1.73-1,3.21-3.19,4,3,.4,4.74,2.11,4.74,4.38A5,5,0,0,1,1318.23,917.05Zm-1.12-9.23c1.71,0,3.08-1.24,3-3.66a3.34,3.34,0,0,0-3.15-3.37h-1.48v7Zm-1.66.65v6.65c0,1,2,1.15,2.88,1.15,2,0,3.17-1.66,3.06-3.73-.16-2.92-2.07-4.07-4-4.07Z" fill="#00749d"/><path d="M1332.66,914.78a3.78,3.78,0,0,1-3.35,2.27c-2.25,0-3.35-1.44-3.35-4V911.3c0-.88.07-2.79-.36-3.3s-.88-.29-1.28-.22c-.16,0-.25-.27,0-.34s2.38-.56,3-.7c.27-.07.38,0,.38.27l-.09,4.29V913c0,2,.7,3.15,2.07,3.15a3.64,3.64,0,0,0,2.94-2.29V911.3c0-.88,0-2.72-.4-3.3s-1.06-.29-1.46-.22c-.16,0-.25-.27,0-.34l3.24-.7c.27-.07.38,0,.38.27l-.09,4.29v1.3a10.74,10.74,0,0,0,.43,3.46,1.44,1.44,0,0,0,1.15.56c.22,0,.18.29,0,.31s-.88.07-1.44.07a1.81,1.81,0,0,1-1.3-.38A3.48,3.48,0,0,1,1332.66,914.78Z" fill="#00749d"/><path d="M1339.94,907.39v7.14a1.55,1.55,0,0,0,1.59,1.73,3.29,3.29,0,0,0,1.06-.22c.11,0,.34.34.11.47a4.46,4.46,0,0,1-1.8.61,2.45,2.45,0,0,1-2.7-2.58v-7.12h-1.66c-.16,0,0-.58.18-.58a2.61,2.61,0,0,0,2.61-2.63c0-.22.61-.25.61,0v2.54a5.07,5.07,0,0,0,2.7-.56c.13-.07,0,1.21-.16,1.21Z" fill="#00749d"/><path d="M1352.17,913.7a4.32,4.32,0,0,0,.94,1.75,3.8,3.8,0,0,0,2.43.94,1.93,1.93,0,0,0,2.13-1.78c0-1.06-1.5-1.62-2.85-2.34s-2.81-1.55-2.81-3.21c0-1.5,1.73-2.36,3.57-2.36a9.8,9.8,0,0,1,2.9.4,9,9,0,0,1,0,2.2c0,.07-.18.07-.2,0a2.49,2.49,0,0,0-2.83-1.93c-1.21,0-2,.61-2,1.5s1.17,1.35,2.72,2.18,3,1.57,3,3.28-1.77,2.7-3.77,2.7a8.32,8.32,0,0,1-3.35-.7,13.81,13.81,0,0,1-.11-2.65C1351.94,913.59,1352.14,913.62,1352.17,913.7Z" fill="#00749d"/><path d="M1372.34,916.94c-.25,0-1.91-.18-2.54-.18s-2.22.18-2.49.18-.13-.31.07-.31a1.58,1.58,0,0,0,1.15-.52,10.29,10.29,0,0,0,.47-3.51v-2c0-2.29-.74-2.83-2-2.83a4,4,0,0,0-3.12,2.07v2.74c0,.88,0,2.94.38,3.55.27.4,1,.47,1.26.47s.22.31,0,.31-1.91-.18-2.54-.18-2.22.18-2.49.18-.13-.31.07-.31a1.58,1.58,0,0,0,1.15-.52,10.29,10.29,0,0,0,.47-3.51v-8.4c0-.88.07-2.79-.36-3.3s-.88-.29-1.28-.22c-.16,0-.25-.27,0-.34s2.38-.56,3-.7c.27-.07.38,0,.38.27l-.09,4.29v4.56a4.79,4.79,0,0,1,3.86-2c1.86,0,2.94,1.06,2.94,3.84v2c0,.88,0,2.94.38,3.55.27.4,1,.47,1.26.47S1372.52,916.94,1372.34,916.94Z" fill="#00749d"/><path d="M1378.53,917.05a4.57,4.57,0,0,1-4.83-4.85c0-3.26,2.11-5.48,4.65-5.48,2.31,0,3.93,1.46,3.93,3.14,0,.65-.25.81-.79.92l-6,1.28c.29,2.09,1.66,4.11,3.89,4.11a4,4,0,0,0,2.52-.88c.18-.16.36-.07.22.16A4.46,4.46,0,0,1,1378.53,917.05Zm-3.08-5.68,5.08-1.08c-.09-1.62-.85-2.88-2.54-2.88C1376.1,907.41,1375.36,909.23,1375.45,911.37Z" fill="#00749d"/><path d="M1403.45,916.94c-.25,0-1.91-.18-2.54-.18s-2.22.18-2.49.18-.13-.31.07-.31a1.58,1.58,0,0,0,1.15-.52,10.29,10.29,0,0,0,.47-3.51v-2c0-2.29-.74-2.83-2-2.83a4,4,0,0,0-3.12,2.07v2.74c0,.88,0,2.94.38,3.55.27.4,1,.47,1.26.47s.22.31,0,.31-1.91-.18-2.54-.18-2.22.18-2.49.18-.13-.31.07-.31a1.58,1.58,0,0,0,1.15-.52,10.29,10.29,0,0,0,.47-3.51v-8.4c0-.88.07-2.79-.36-3.3s-.88-.29-1.28-.22c-.16,0-.25-.27,0-.34s2.38-.56,3-.7c.27-.07.38,0,.38.27l-.09,4.29v4.56a4.79,4.79,0,0,1,3.86-2c1.86,0,2.94,1.06,2.94,3.84v2c0,.88,0,2.94.38,3.55.27.4,1,.47,1.26.47S1403.63,916.94,1403.45,916.94Z" fill="#00749d"/><path d="M1410.58,915a4.37,4.37,0,0,1-3.19,2,2.54,2.54,0,0,1-2.81-2.63c.11-2.36,3.59-2.9,5.93-3.3v-.65c0-1.69-.76-3.1-2.22-3.1a1.84,1.84,0,0,0-1.93,2.09c0,.07-.45,0-.67,0-.63-.2-.72-.36-.72-.7,0-.7,1.12-2,3.26-2,2.74,0,4,1.55,4,3.62v2.27a10.77,10.77,0,0,0,.43,3.46,1.44,1.44,0,0,0,1.15.56c.22,0,.18.29,0,.31a8.78,8.78,0,0,1-1.12.07c-.76,0-1.06,0-1.33-.25A2.45,2.45,0,0,1,1410.58,915Zm-2.49,1.19a3.08,3.08,0,0,0,2.45-2,5.81,5.81,0,0,1,0-.63v-1.77c-1.91.29-4.09.72-4.2,2.34A1.73,1.73,0,0,0,1408.08,916.2Z" fill="#00749d"/><path d="M1422.38,915.32a4.16,4.16,0,0,1-3.06,1.73c-2.65,0-4.29-1.93-4.29-4.94s1.93-5.39,4.72-5.39a7.19,7.19,0,0,1,2.56.52v-3c0-.88.09-2.79-.34-3.3s-.88-.29-1.28-.22c-.16,0-.25-.27,0-.34s2.38-.56,3-.7c.27-.07.38,0,.38.27l-.11,4.29v8.4a10.77,10.77,0,0,0,.43,3.46,1.44,1.44,0,0,0,1.15.56c.22,0,.18.29,0,.31s-.67,0-1.19,0-1.21,0-1.5-.29A2.34,2.34,0,0,1,1422.38,915.32Zm-2.31.88a2.7,2.7,0,0,0,2.25-1.87V908.2a5,5,0,0,0-2.63-.74c-1.84,0-2.92,1.57-2.92,3.66C1416.76,912.92,1417.73,916.2,1420.06,916.2Z" fill="#00749d"/><path d="M1440.81,915a4.37,4.37,0,0,1-3.19,2,2.54,2.54,0,0,1-2.81-2.63c.11-2.36,3.59-2.9,5.93-3.3v-.65c0-1.69-.76-3.1-2.22-3.1a1.84,1.84,0,0,0-1.93,2.09c0,.07-.45,0-.67,0-.63-.2-.72-.36-.72-.7,0-.7,1.12-2,3.26-2,2.74,0,4,1.55,4,3.62v2.27a10.77,10.77,0,0,0,.43,3.46,1.44,1.44,0,0,0,1.15.56c.22,0,.18.29,0,.31a8.78,8.78,0,0,1-1.12.07c-.76,0-1.06,0-1.33-.25A2.45,2.45,0,0,1,1440.81,915Zm-2.49,1.19a3.08,3.08,0,0,0,2.45-2,5.81,5.81,0,0,1,0-.63v-1.77c-1.91.29-4.09.72-4.2,2.34A1.73,1.73,0,0,0,1438.31,916.2Z" fill="#00749d"/><path d="M1464.56,916.94c-.25,0-1.91-.18-2.54-.18s-2.22.18-2.49.18-.13-.31.07-.31a1.58,1.58,0,0,0,1.15-.52,10.29,10.29,0,0,0,.47-3.51v-1.3c0-.88,0-2.72-.4-3.3-.29-.43-.79-.47-1.46-.49-1,0-2.07,0-2.72,0v5.15c0,.88,0,2.94.38,3.55.27.4,1,.47,1.26.47s.22.31,0,.31-1.91-.18-2.54-.18-2.22.18-2.49.18-.13-.31.07-.31a1.58,1.58,0,0,0,1.15-.52,10.29,10.29,0,0,0,.47-3.51v-5.15l-1.89,0c-.18,0,.07-.67.29-.67H1455v-2.34c0-3.14,1.19-4.58,3.24-4.58,1.37,0,2.43.9,2.43,1.71,0,.34-.09.7-.74.9-.22.07-.63.18-.63.11,0-1.08-.27-2.13-1.26-2.13-1.44,0-1.37,1.64-1.37,3.82v2.52c1.55,0,5.23,0,6,0,.18,0,.34,0,.34.29s0,.61-.09,4.18v1.3c0,.92,0,3,.38,3.57.27.43,1,.45,1.26.45S1464.74,916.94,1464.56,916.94Z" fill="#00749d"/><path d="M1470.5,916.94c-.25,0-1.91-.18-2.54-.18s-2.22.18-2.49.18-.13-.31.07-.31a1.58,1.58,0,0,0,1.15-.52,10.29,10.29,0,0,0,.47-3.51v-1.3c0-.88.07-2.79-.36-3.3s-.88-.29-1.28-.22c-.16,0-.25-.27,0-.34s2.38-.56,3-.7c.27-.07.38,0,.38.27l0,1.89c.45-.94,1.42-2.18,2.7-2.18a1.94,1.94,0,0,1,2,1.71c0,.34-.09.7-.74.9-.22.07-.67.18-.67.11,0-.72-.63-1.8-1.44-1.8s-1.46,1.15-1.86,2.34l0,1.32v1.3c0,.88,0,2.94.38,3.55.27.4,1,.47,1.26.47S1470.68,916.94,1470.5,916.94Z" fill="#00749d"/><path d="M1479.85,917.05a4.57,4.57,0,0,1-4.83-4.85c0-3.26,2.11-5.48,4.65-5.48,2.31,0,3.93,1.46,3.93,3.14,0,.65-.25.81-.79.92l-6,1.28c.29,2.09,1.66,4.11,3.89,4.11a4,4,0,0,0,2.52-.88c.18-.16.36-.07.22.16A4.46,4.46,0,0,1,1479.85,917.05Zm-3.08-5.68,5.08-1.08c-.09-1.62-.85-2.88-2.54-2.88C1477.42,907.41,1476.68,909.23,1476.77,911.37Z" fill="#00749d"/><path d="M1485.78,919.41a3,3,0,0,0,1.08-2.45,1.25,1.25,0,0,1-.31,0,1.3,1.3,0,0,1-1.26-1.33,1.47,1.47,0,0,1,1.39-1.3,1.59,1.59,0,0,1,1.41,1.41,4.16,4.16,0,0,1-2.07,4.13A.29.29,0,0,1,1485.78,919.41Z" fill="#00749d"/><path d="M1173.78,944.07c.07,2.29.2,3.08.47,3.51s1.53.47,1.8.47.22.36,0,.36-2.72-.11-3.3-.11-2.76.11-3.05.11-.2-.36,0-.36,1.28,0,1.64-.47.56-1.21.61-3.51v-8.18c0-2.29-.34-3.15-.61-3.51s-1.37-.47-1.64-.47-.22-.36,0-.36,2.45.11,3.05.11,2.94-.11,3.24-.11.2.36,0,.36-1.39,0-1.75.47-.38,1.21-.45,3.51Z" fill="#00749d"/><path d="M1189.82,948.43c-.61-.47-1.75-2.81-2.76-5.57-.58-1.59-.9-3.32-1.41-3.8a1.53,1.53,0,0,0-1.1-.43c-.18,0-.18-.34,0-.34s1.75.11,2.38.11,2.16-.09,2.43-.09.13.36-.07.36-.94,0-1.12.38c-.29.67.11,2.16.65,3.66a17.64,17.64,0,0,0,1.71,3.64c.16-.43.34-.85.52-1.28.58-1.39,1.15-2.7,1.55-3.78a5.86,5.86,0,0,0-.85-2.25,1.53,1.53,0,0,0-1.1-.43c-.18,0-.18-.34,0-.34s1.73.11,2.36.11,2-.09,2.22-.09.13.36-.07.36-.85,0-1,.38c-.29.67,0,2.07.63,3.57a19.48,19.48,0,0,0,1.71,3.68c.34-.88.72-1.84,1.08-2.79a18.41,18.41,0,0,0,1.28-4.45c-.07-.38-.9-.43-1.12-.43s-.25-.36-.07-.36,1.39.11,1.93.11,1.55-.11,1.8-.11.13.36,0,.36-.92,0-1.14.43c-.31.58-1.19,2.76-2.22,5.19l-1,2.38c-.25.54-.49,1.08-.72,1.6-.16.36-.4.22-.56,0a35.72,35.72,0,0,1-2.63-5.59l-.07-.22-1.33,2.85c-.45,1-.9,2-1.32,3C1190.14,948.61,1190,948.56,1189.82,948.43Z" fill="#00749d"/><path d="M1208.21,946.47a4.37,4.37,0,0,1-3.19,2,2.54,2.54,0,0,1-2.81-2.63c.11-2.36,3.59-2.9,5.93-3.3v-.65c0-1.69-.76-3.1-2.22-3.1a1.84,1.84,0,0,0-1.93,2.09c0,.07-.45,0-.67,0-.63-.2-.72-.36-.72-.7,0-.7,1.12-2,3.26-2,2.74,0,4,1.55,4,3.62v2.27a10.77,10.77,0,0,0,.43,3.46,1.44,1.44,0,0,0,1.15.56c.22,0,.18.29,0,.31a8.78,8.78,0,0,1-1.12.07c-.76,0-1.06,0-1.33-.25A2.45,2.45,0,0,1,1208.21,946.47Zm-2.49,1.19a3.08,3.08,0,0,0,2.45-2,5.81,5.81,0,0,1,0-.63v-1.77c-1.91.29-4.09.72-4.2,2.34A1.73,1.73,0,0,0,1205.71,947.67Z" fill="#00749d"/><path d="M1212.93,945.17a4.32,4.32,0,0,0,.94,1.75,3.8,3.8,0,0,0,2.43.94,1.93,1.93,0,0,0,2.13-1.78c0-1.06-1.5-1.62-2.85-2.34s-2.81-1.55-2.81-3.21c0-1.5,1.73-2.36,3.57-2.36a9.8,9.8,0,0,1,2.9.4,9,9,0,0,1,0,2.2c0,.07-.18.07-.2,0a2.49,2.49,0,0,0-2.83-1.93c-1.21,0-2,.61-2,1.5s1.17,1.35,2.72,2.18,3,1.57,3,3.28-1.77,2.7-3.77,2.7a8.32,8.32,0,0,1-3.35-.7,13.81,13.81,0,0,1-.11-2.65C1212.71,945.06,1212.91,945.08,1212.93,945.17Z" fill="#00749d"/><path d="M1230.51,935.67c0-.88,0-2.79-.38-3.3s-.88-.29-1.28-.22c-.16,0-.25-.27,0-.34s2.38-.56,3-.7c.27-.07.38,0,.38.27l-.07,4.29v3.93a4.13,4.13,0,0,1,3.08-1.41c2.61,0,4.22,1.8,4.22,4.81s-1.53,5.52-5,5.52a12.18,12.18,0,0,1-4.09-.79,36.31,36.31,0,0,0,.13-3.89Zm1.66,11.1c0,.56,1.3,1,2.72,1,2.09,0,2.79-2,2.79-4.34-.18-2.38-1.28-4.38-3.15-4.38a2.75,2.75,0,0,0-2.36,1.26Z" fill="#00749d"/><path d="M1245.86,948.41c-.25,0-1.91-.18-2.54-.18s-2.22.18-2.49.18-.13-.31.07-.31a1.58,1.58,0,0,0,1.15-.52,10.29,10.29,0,0,0,.47-3.51v-1.3c0-.88.07-2.79-.36-3.3s-.88-.29-1.28-.22c-.16,0-.25-.27,0-.34s2.38-.56,3-.7c.27-.07.38,0,.38.27l0,1.89c.45-.94,1.42-2.18,2.7-2.18a1.94,1.94,0,0,1,2,1.71c0,.34-.09.7-.74.9-.22.07-.67.18-.67.11,0-.72-.63-1.8-1.44-1.8s-1.46,1.15-1.86,2.34l0,1.32v1.3c0,.88,0,2.94.38,3.55.27.4,1,.47,1.26.47S1246,948.41,1245.86,948.41Z" fill="#00749d"/><path d="M1251.48,939.47c-.36-.45-.88-.29-1.28-.22-.16,0-.25-.27,0-.34s2.38-.56,3-.7c.27-.07.38,0,.38.27l-.09,4.29v1.3c0,.88,0,2.94.38,3.55.27.4,1,.47,1.26.47s.22.31,0,.31-1.91-.18-2.54-.18-2.22.18-2.49.18-.13-.31.07-.31a1.58,1.58,0,0,0,1.15-.52,10.26,10.26,0,0,0,.47-3.51v-1.3C1251.84,941.89,1251.9,940,1251.48,939.47Zm-.11-5A1.17,1.17,0,0,1,1252,933c.58-.2,1.42.07,1.53.65a1.12,1.12,0,0,1-.7,1.53A1.16,1.16,0,0,1,1251.36,934.48Z" fill="#00749d"/><path d="M1260.38,953.55c-2.43,0-4.63-.72-4.63-2.54,0-1.08,1.37-1.77,3.59-2.74-1.91-.31-2.52-1.15-2.52-1.8,0-.81.81-1.35,1.73-1.68a3.18,3.18,0,0,1-2-3c0-2.09,2.09-3.62,4.11-3.62h.07a3.24,3.24,0,0,1,.45,0,11.66,11.66,0,0,0,3.75-.2c.61-.2.72-.49.88-.49s.16.11.13.25c-.07.4-.2,1.12-.4,1.12l-2.38-.11a3.07,3.07,0,0,1,1.66,2.74,3.93,3.93,0,0,1-4.16,3.71,4.83,4.83,0,0,1-1.55-.25c-.7.32-1.08.67-1,1.1.18.74,2.52.76,3.68.83,2.13.11,4.29.83,4.29,2.65S1263.39,953.55,1260.38,953.55Zm.36-.58c1.93,0,3.77-1.37,3.75-3.06,0-1.15-1.89-1.37-4.07-1.51l-.54,0c-1.1.38-2.54,1.24-2.54,2.45S1259.25,953,1260.73,953Zm2.43-11.05c-.13-1.71-1.19-3.12-2.92-3.12a2.31,2.31,0,0,0-2.11,2.76,3.31,3.31,0,0,0,3,3.12C1262.58,944.68,1263.27,943.19,1263.16,941.92Z" fill="#00749d"/><path d="M1278.58,948.41c-.25,0-1.91-.18-2.54-.18s-2.22.18-2.49.18-.13-.31.07-.31a1.58,1.58,0,0,0,1.15-.52,10.29,10.29,0,0,0,.47-3.51v-2c0-2.29-.74-2.83-2-2.83a4,4,0,0,0-3.12,2.07v2.74c0,.88,0,2.94.38,3.55.27.4,1,.47,1.26.47s.22.31,0,.31-1.91-.18-2.54-.18-2.22.18-2.49.18-.13-.31.07-.31a1.58,1.58,0,0,0,1.15-.52,10.29,10.29,0,0,0,.47-3.51v-8.4c0-.88.07-2.79-.36-3.3s-.88-.29-1.28-.22c-.16,0-.25-.27,0-.34s2.38-.56,3-.7c.27-.07.38,0,.38.27l-.09,4.29v4.56a4.79,4.79,0,0,1,3.86-2c1.86,0,2.94,1.06,2.94,3.84v2c0,.88,0,2.94.38,3.55.27.4,1,.47,1.26.47S1278.76,948.41,1278.58,948.41Z" fill="#00749d"/><path d="M1282.61,938.86V946a1.55,1.55,0,0,0,1.59,1.73,3.29,3.29,0,0,0,1.06-.22c.11,0,.34.34.11.47a4.46,4.46,0,0,1-1.8.61,2.45,2.45,0,0,1-2.7-2.58v-7.12h-1.66c-.16,0,0-.58.18-.58a2.61,2.61,0,0,0,2.61-2.63c0-.22.61-.25.61,0v2.54a5.07,5.07,0,0,0,2.7-.56c.13-.07,0,1.21-.16,1.21Z" fill="#00749d"/><path d="M1287,950.88a3,3,0,0,0,1.08-2.45,1.25,1.25,0,0,1-.31,0,1.3,1.3,0,0,1-1.26-1.33,1.47,1.47,0,0,1,1.39-1.3,1.59,1.59,0,0,1,1.41,1.41,4.16,4.16,0,0,1-2.07,4.13A.29.29,0,0,1,1287,950.88Z" fill="#00749d"/><path d="M1306.25,948.52c-.27,0-2.22-.18-3.21-.18-.63,0-3.37.07-3.68.07s-.16-.36,0-.36c.79,0,1.26,0,1.62-.45a7.36,7.36,0,0,0,.63-3.53v-8.18a7.35,7.35,0,0,0-.63-3.53c-.36-.4-.83-.45-1.62-.45-.2,0-.27-.36,0-.36h5.82c2.18,0,4.67,1.06,4.67,3.89,0,1.73-1,3.21-3.19,4,3,.4,4.74,2.11,4.74,4.38A5,5,0,0,1,1306.25,948.52Zm-1.12-9.23c1.71,0,3.08-1.24,3-3.66a3.34,3.34,0,0,0-3.15-3.37h-1.48v7Zm-1.66.65v6.65c0,1,2,1.15,2.88,1.15,2,0,3.17-1.66,3.06-3.73-.16-2.92-2.07-4.07-4-4.07Z" fill="#00749d"/><path d="M1320.68,946.25a3.78,3.78,0,0,1-3.35,2.27c-2.25,0-3.35-1.44-3.35-4v-1.73c0-.88.07-2.79-.36-3.3s-.88-.29-1.28-.22c-.16,0-.25-.27,0-.34s2.38-.56,3-.7c.27-.07.38,0,.38.27l-.09,4.29v1.66c0,2,.7,3.15,2.07,3.15a3.64,3.64,0,0,0,2.94-2.29v-2.52c0-.88,0-2.72-.4-3.3s-1.06-.29-1.46-.22c-.16,0-.25-.27,0-.34l3.24-.7c.27-.07.38,0,.38.27l-.09,4.29v1.3a10.74,10.74,0,0,0,.43,3.46,1.44,1.44,0,0,0,1.15.56c.22,0,.18.29,0,.31s-.88.07-1.44.07a1.81,1.81,0,0,1-1.3-.38A3.48,3.48,0,0,1,1320.68,946.25Z" fill="#00749d"/><path d="M1328,938.86V946a1.55,1.55,0,0,0,1.59,1.73,3.29,3.29,0,0,0,1.06-.22c.11,0,.34.34.11.47a4.46,4.46,0,0,1-1.8.61,2.45,2.45,0,0,1-2.7-2.58v-7.12h-1.66c-.16,0,0-.58.18-.58a2.61,2.61,0,0,0,2.61-2.63c0-.22.61-.25.61,0v2.54a5.07,5.07,0,0,0,2.7-.56c.13-.07,0,1.21-.16,1.21Z" fill="#00749d"/><path d="M1340.19,945.17a4.32,4.32,0,0,0,.94,1.75,3.8,3.8,0,0,0,2.43.94,1.93,1.93,0,0,0,2.13-1.78c0-1.06-1.5-1.62-2.85-2.34s-2.81-1.55-2.81-3.21c0-1.5,1.73-2.36,3.57-2.36a9.8,9.8,0,0,1,2.9.4,9,9,0,0,1,0,2.2c0,.07-.18.07-.2,0a2.49,2.49,0,0,0-2.83-1.93c-1.21,0-2,.61-2,1.5s1.17,1.35,2.72,2.18,3,1.57,3,3.28-1.77,2.7-3.77,2.7a8.32,8.32,0,0,1-3.35-.7,13.81,13.81,0,0,1-.11-2.65C1340,945.06,1340.17,945.08,1340.19,945.17Z" fill="#00749d"/><path d="M1360.37,948.41c-.25,0-1.91-.18-2.54-.18s-2.22.18-2.49.18-.13-.31.07-.31a1.58,1.58,0,0,0,1.15-.52,10.29,10.29,0,0,0,.47-3.51v-2c0-2.29-.74-2.83-2-2.83a4,4,0,0,0-3.12,2.07v2.74c0,.88,0,2.94.38,3.55.27.4,1,.47,1.26.47s.22.31,0,.31-1.91-.18-2.54-.18-2.22.18-2.49.18-.13-.31.07-.31a1.58,1.58,0,0,0,1.15-.52,10.29,10.29,0,0,0,.47-3.51v-8.4c0-.88.07-2.79-.36-3.3s-.88-.29-1.28-.22c-.16,0-.25-.27,0-.34s2.38-.56,3-.7c.27-.07.38,0,.38.27l-.09,4.29v4.56a4.79,4.79,0,0,1,3.86-2c1.86,0,2.94,1.06,2.94,3.84v2c0,.88,0,2.94.38,3.55.27.4,1,.47,1.26.47S1360.55,948.41,1360.37,948.41Z" fill="#00749d"/><path d="M1366.55,948.52a4.57,4.57,0,0,1-4.83-4.85c0-3.26,2.11-5.48,4.65-5.48,2.31,0,3.93,1.46,3.93,3.14,0,.65-.25.81-.79.92l-6,1.28c.29,2.09,1.66,4.11,3.89,4.11a4,4,0,0,0,2.52-.88c.18-.16.36-.07.22.16A4.46,4.46,0,0,1,1366.55,948.52Zm-3.08-5.68,5.08-1.08c-.09-1.62-.85-2.88-2.54-2.88C1364.12,938.88,1363.38,940.7,1363.47,942.83Z" fill="#00749d"/><path d="M1384.26,948.43c-.61-.47-1.75-2.81-2.76-5.57-.58-1.59-.9-3.32-1.41-3.8a1.53,1.53,0,0,0-1.1-.43c-.18,0-.18-.34,0-.34s1.75.11,2.38.11,2.16-.09,2.43-.09.13.36-.07.36-.94,0-1.12.38c-.29.67.11,2.16.65,3.66a17.64,17.64,0,0,0,1.71,3.64c.16-.43.34-.85.52-1.28.58-1.39,1.15-2.7,1.55-3.78a5.86,5.86,0,0,0-.85-2.25,1.53,1.53,0,0,0-1.1-.43c-.18,0-.18-.34,0-.34s1.73.11,2.36.11,2-.09,2.22-.09.13.36-.07.36-.85,0-1,.38c-.29.67,0,2.07.63,3.57a19.48,19.48,0,0,0,1.71,3.68c.34-.88.72-1.84,1.08-2.79a18.41,18.41,0,0,0,1.28-4.45c-.07-.38-.9-.43-1.12-.43s-.25-.36-.07-.36,1.39.11,1.93.11,1.55-.11,1.8-.11.13.36,0,.36-.92,0-1.14.43c-.31.58-1.19,2.76-2.22,5.19l-1,2.38c-.25.54-.49,1.08-.72,1.6-.16.36-.4.22-.56,0a35.72,35.72,0,0,1-2.63-5.59l-.07-.22-1.33,2.85c-.45,1-.9,2-1.32,3C1384.58,948.61,1384.42,948.56,1384.26,948.43Z" fill="#00749d"/><path d="M1402.65,946.47a4.37,4.37,0,0,1-3.19,2,2.54,2.54,0,0,1-2.81-2.63c.11-2.36,3.59-2.9,5.93-3.3v-.65c0-1.69-.76-3.1-2.22-3.1a1.84,1.84,0,0,0-1.93,2.09c0,.07-.45,0-.67,0-.63-.2-.72-.36-.72-.7,0-.7,1.12-2,3.26-2,2.74,0,4,1.55,4,3.62v2.27a10.77,10.77,0,0,0,.43,3.46,1.44,1.44,0,0,0,1.15.56c.22,0,.18.29,0,.31a8.78,8.78,0,0,1-1.12.07c-.76,0-1.06,0-1.33-.25A2.45,2.45,0,0,1,1402.65,946.47Zm-2.49,1.19a3.08,3.08,0,0,0,2.45-2,5.81,5.81,0,0,1,0-.63v-1.77c-1.91.29-4.09.72-4.2,2.34A1.73,1.73,0,0,0,1400.15,947.67Z" fill="#00749d"/><path d="M1407.37,945.17a4.32,4.32,0,0,0,.94,1.75,3.8,3.8,0,0,0,2.43.94,1.93,1.93,0,0,0,2.13-1.78c0-1.06-1.5-1.62-2.85-2.34s-2.81-1.55-2.81-3.21c0-1.5,1.73-2.36,3.57-2.36a9.8,9.8,0,0,1,2.9.4,9,9,0,0,1,0,2.2c0,.07-.18.07-.2,0a2.49,2.49,0,0,0-2.83-1.93c-1.21,0-2,.61-2,1.5s1.17,1.35,2.72,2.18,3,1.57,3,3.28-1.77,2.7-3.77,2.7a8.32,8.32,0,0,1-3.35-.7,13.81,13.81,0,0,1-.11-2.65C1407.14,945.06,1407.35,945.08,1407.37,945.17Z" fill="#00749d"/><path d="M1441.34,948.41c-.25,0-1.91-.18-2.54-.18s-2.22.18-2.49.18-.13-.31.07-.31a1.58,1.58,0,0,0,1.15-.52,10.29,10.29,0,0,0,.47-3.51v-2c0-1.8-.45-3-1.82-3a3.24,3.24,0,0,0-2.61,1.78c0,.31,0,.65,0,1v2.16c0,.88,0,2.94.38,3.55.27.4,1,.47,1.28.47s.22.31,0,.31-1.91-.18-2.54-.18-2.22.18-2.49.18-.13-.31.07-.31a1.58,1.58,0,0,0,1.15-.52,10.3,10.3,0,0,0,.45-3.51v-1.89c0-2.43-.76-3.08-1.93-3.08a3.5,3.5,0,0,0-2.63,2l0,1.46v1.46c0,.88,0,2.94.38,3.55.27.4,1,.47,1.26.47s.22.31,0,.31-1.91-.18-2.54-.18-2.22.18-2.49.18-.13-.31.07-.31a1.58,1.58,0,0,0,1.15-.52,10.26,10.26,0,0,0,.47-3.51v-1.3c0-.88,0-2.72-.4-3.3s-1.06-.29-1.46-.22c-.16,0-.25-.27,0-.34l3.24-.7c.27-.07.38,0,.38.27l0,1.64a4.44,4.44,0,0,1,3.39-1.93,2.36,2.36,0,0,1,2.58,1.89,4.41,4.41,0,0,1,3.41-1.89c1.84,0,2.85,1.1,2.85,3.64v2.25c0,.88,0,2.94.38,3.55.27.4,1,.47,1.26.47S1441.52,948.41,1441.34,948.41Z" fill="#00749d"/><path d="M1450.41,946.25a3.78,3.78,0,0,1-3.35,2.27c-2.25,0-3.35-1.44-3.35-4v-1.73c0-.88.07-2.79-.36-3.3s-.88-.29-1.28-.22c-.16,0-.25-.27,0-.34s2.38-.56,3-.7c.27-.07.38,0,.38.27l-.09,4.29v1.66c0,2,.7,3.15,2.07,3.15a3.64,3.64,0,0,0,2.94-2.29v-2.52c0-.88,0-2.72-.4-3.3s-1.06-.29-1.46-.22c-.16,0-.25-.27,0-.34l3.24-.7c.27-.07.38,0,.38.27l-.09,4.29v1.3a10.74,10.74,0,0,0,.43,3.46,1.44,1.44,0,0,0,1.15.56c.22,0,.18.29,0,.31s-.88.07-1.44.07a1.81,1.81,0,0,1-1.3-.38A3.48,3.48,0,0,1,1450.41,946.25Z" fill="#00749d"/><path d="M1456.82,943.22c.18,2.54,1.8,4.43,3.91,4.43a3.94,3.94,0,0,0,2.52-.85c.27-.22.36,0,.25.14a4.51,4.51,0,0,1-3.48,1.59,4.64,4.64,0,0,1-5-5,5.5,5.5,0,0,1,5.48-5.32c2.13,0,3,1,3,1.71,0,.34-.2.7-.85.9-.22.07-.67.18-.67.11a2,2,0,0,0-1.86-2.09C1458,938.81,1456.66,941.08,1456.82,943.22Z" fill="#00749d"/><path d="M1476.39,948.41c-.25,0-1.91-.18-2.54-.18s-2.22.18-2.49.18-.13-.31.07-.31a1.58,1.58,0,0,0,1.15-.52,10.29,10.29,0,0,0,.47-3.51v-2c0-2.29-.74-2.83-2-2.83a4,4,0,0,0-3.12,2.07v2.74c0,.88,0,2.94.38,3.55.27.4,1,.47,1.26.47s.22.31,0,.31-1.91-.18-2.54-.18-2.22.18-2.49.18-.13-.31.07-.31a1.58,1.58,0,0,0,1.15-.52,10.29,10.29,0,0,0,.47-3.51v-8.4c0-.88.07-2.79-.36-3.3s-.88-.29-1.28-.22c-.16,0-.25-.27,0-.34s2.38-.56,3-.7c.27-.07.38,0,.38.27l-.09,4.29v4.56a4.79,4.79,0,0,1,3.86-2c1.86,0,2.94,1.06,2.94,3.84v2c0,.88,0,2.94.38,3.55.27.4,1,.47,1.26.47S1476.57,948.41,1476.39,948.41Z" fill="#00749d"/><path d="M1486.53,935.67c0-.88,0-2.79-.38-3.3s-.88-.29-1.28-.22c-.16,0-.25-.27,0-.34s2.38-.56,3-.7c.27-.07.38,0,.38.27l-.07,4.29v3.93a4.13,4.13,0,0,1,3.08-1.41c2.61,0,4.22,1.8,4.22,4.81s-1.53,5.52-5,5.52a12.18,12.18,0,0,1-4.09-.79,36.31,36.31,0,0,0,.13-3.89Zm1.66,11.1c0,.56,1.3,1,2.72,1,2.09,0,2.79-2,2.79-4.34-.18-2.38-1.28-4.38-3.15-4.38a2.75,2.75,0,0,0-2.36,1.26Z" fill="#00749d"/><path d="M1501.88,948.41c-.25,0-1.91-.18-2.54-.18s-2.22.18-2.49.18-.13-.31.07-.31a1.58,1.58,0,0,0,1.15-.52,10.29,10.29,0,0,0,.47-3.51v-1.3c0-.88.07-2.79-.36-3.3s-.88-.29-1.28-.22c-.16,0-.25-.27,0-.34s2.38-.56,3-.7c.27-.07.38,0,.38.27l0,1.89c.45-.94,1.42-2.18,2.7-2.18a1.94,1.94,0,0,1,2,1.71c0,.34-.09.7-.74.9-.22.07-.67.18-.67.11,0-.72-.63-1.8-1.44-1.8s-1.46,1.15-1.86,2.34l0,1.32v1.3c0,.88,0,2.94.38,3.55.27.4,1,.47,1.26.47S1502.06,948.41,1501.88,948.41Z" fill="#00749d"/><path d="M1507.5,939.47c-.36-.45-.88-.29-1.28-.22-.16,0-.25-.27,0-.34s2.38-.56,3-.7c.27-.07.38,0,.38.27l-.09,4.29v1.3c0,.88,0,2.94.38,3.55.27.4,1,.47,1.26.47s.22.31,0,.31-1.91-.18-2.54-.18-2.22.18-2.49.18-.13-.31.07-.31a1.58,1.58,0,0,0,1.15-.52,10.26,10.26,0,0,0,.47-3.51v-1.3C1507.86,941.89,1507.93,940,1507.5,939.47Zm-.11-5a1.17,1.17,0,0,1,.67-1.53c.58-.2,1.42.07,1.53.65a1.12,1.12,0,0,1-.7,1.53A1.16,1.16,0,0,1,1507.39,934.48Z" fill="#00749d"/><path d="M1516.4,953.55c-2.43,0-4.63-.72-4.63-2.54,0-1.08,1.37-1.77,3.59-2.74-1.91-.31-2.52-1.15-2.52-1.8,0-.81.81-1.35,1.73-1.68a3.18,3.18,0,0,1-2-3c0-2.09,2.09-3.62,4.11-3.62h.07a3.24,3.24,0,0,1,.45,0,11.66,11.66,0,0,0,3.75-.2c.61-.2.72-.49.88-.49s.16.11.13.25c-.07.4-.2,1.12-.4,1.12l-2.38-.11a3.07,3.07,0,0,1,1.66,2.74,3.93,3.93,0,0,1-4.16,3.71,4.83,4.83,0,0,1-1.55-.25c-.7.32-1.08.67-1,1.1.18.74,2.52.76,3.68.83,2.13.11,4.29.83,4.29,2.65S1519.41,953.55,1516.4,953.55Zm.36-.58c1.93,0,3.77-1.37,3.75-3.06,0-1.15-1.89-1.37-4.07-1.51l-.54,0c-1.1.38-2.54,1.24-2.54,2.45S1515.27,953,1516.76,953Zm2.43-11.05c-.13-1.71-1.19-3.12-2.92-3.12a2.31,2.31,0,0,0-2.11,2.76,3.31,3.31,0,0,0,3,3.12C1518.6,944.68,1519.3,943.19,1519.18,941.92Z" fill="#00749d"/><path d="M1534.6,948.41c-.25,0-1.91-.18-2.54-.18s-2.22.18-2.49.18-.13-.31.07-.31a1.58,1.58,0,0,0,1.15-.52,10.29,10.29,0,0,0,.47-3.51v-2c0-2.29-.74-2.83-2-2.83a4,4,0,0,0-3.12,2.07v2.74c0,.88,0,2.94.38,3.55.27.4,1,.47,1.26.47s.22.31,0,.31-1.91-.18-2.54-.18-2.22.18-2.49.18-.13-.31.07-.31a1.58,1.58,0,0,0,1.15-.52,10.29,10.29,0,0,0,.47-3.51v-8.4c0-.88.07-2.79-.36-3.3s-.88-.29-1.28-.22c-.16,0-.25-.27,0-.34s2.38-.56,3-.7c.27-.07.38,0,.38.27l-.09,4.29v4.56a4.79,4.79,0,0,1,3.86-2c1.86,0,2.94,1.06,2.94,3.84v2c0,.88,0,2.94.38,3.55.27.4,1,.47,1.26.47S1534.78,948.41,1534.6,948.41Z" fill="#00749d"/><path d="M1538.63,938.86V946a1.55,1.55,0,0,0,1.59,1.73,3.29,3.29,0,0,0,1.06-.22c.11,0,.34.34.11.47a4.46,4.46,0,0,1-1.8.61,2.45,2.45,0,0,1-2.7-2.58v-7.12h-1.66c-.16,0,0-.58.18-.58a2.61,2.61,0,0,0,2.61-2.63c0-.22.61-.25.61,0v2.54a5.07,5.07,0,0,0,2.7-.56c.13-.07,0,1.21-.16,1.21Z" fill="#00749d"/><path d="M1547.33,948.52a4.57,4.57,0,0,1-4.83-4.85c0-3.26,2.11-5.48,4.65-5.48,2.31,0,3.93,1.46,3.93,3.14,0,.65-.25.81-.79.92l-6,1.28c.29,2.09,1.66,4.11,3.89,4.11a4,4,0,0,0,2.52-.88c.18-.16.36-.07.22.16A4.46,4.46,0,0,1,1547.33,948.52Zm-3.08-5.68,5.08-1.08c-.09-1.62-.85-2.88-2.54-2.88C1544.9,938.88,1544.16,940.7,1544.25,942.83Z" fill="#00749d"/><path d="M1557.35,948.41c-.25,0-1.91-.18-2.54-.18s-2.22.18-2.49.18-.13-.31.07-.31a1.58,1.58,0,0,0,1.15-.52,10.29,10.29,0,0,0,.47-3.51v-1.3c0-.88.07-2.79-.36-3.3s-.88-.29-1.28-.22c-.16,0-.25-.27,0-.34s2.38-.56,3-.7c.27-.07.38,0,.38.27l0,1.89c.45-.94,1.42-2.18,2.7-2.18a1.94,1.94,0,0,1,2,1.71c0,.34-.09.7-.74.9-.22.07-.67.18-.67.11,0-.72-.63-1.8-1.44-1.8s-1.46,1.15-1.86,2.34l0,1.32v1.3c0,.88,0,2.94.38,3.55.27.4,1,.47,1.26.47S1557.53,948.41,1557.35,948.41Z" fill="#00749d"/><path d="M1562.36,950.88a3,3,0,0,0,1.08-2.45,1.25,1.25,0,0,1-.31,0,1.3,1.3,0,0,1-1.26-1.33,1.47,1.47,0,0,1,1.39-1.3,1.59,1.59,0,0,1,1.41,1.41,4.16,4.16,0,0,1-2.07,4.13A.29.29,0,0,1,1562.36,950.88Z" fill="#00749d"/><path d="M1173.78,975.54c.07,2.29.2,3.08.47,3.51s1.53.47,1.8.47.22.36,0,.36-2.72-.11-3.3-.11-2.76.11-3.05.11-.2-.36,0-.36,1.28,0,1.64-.47.56-1.21.61-3.51v-8.18c0-2.29-.34-3.15-.61-3.51s-1.37-.47-1.64-.47-.22-.36,0-.36,2.45.11,3.05.11,2.94-.11,3.24-.11.2.36,0,.36-1.39,0-1.75.47-.38,1.21-.45,3.51Z" fill="#00749d"/><path d="M1189.82,979.89c-.61-.47-1.75-2.81-2.76-5.57-.58-1.59-.9-3.32-1.41-3.8a1.53,1.53,0,0,0-1.1-.43c-.18,0-.18-.34,0-.34s1.75.11,2.38.11,2.16-.09,2.43-.09.13.36-.07.36-.94,0-1.12.38c-.29.67.11,2.16.65,3.66a17.64,17.64,0,0,0,1.71,3.64c.16-.43.34-.85.52-1.28.58-1.39,1.15-2.7,1.55-3.78a5.86,5.86,0,0,0-.85-2.25,1.53,1.53,0,0,0-1.1-.43c-.18,0-.18-.34,0-.34s1.73.11,2.36.11,2-.09,2.22-.09.13.36-.07.36-.85,0-1,.38c-.29.67,0,2.07.63,3.57a19.48,19.48,0,0,0,1.71,3.68c.34-.88.72-1.84,1.08-2.79a18.41,18.41,0,0,0,1.28-4.45c-.07-.38-.9-.43-1.12-.43s-.25-.36-.07-.36,1.39.11,1.93.11,1.55-.11,1.8-.11.13.36,0,.36-.92,0-1.14.43c-.31.58-1.19,2.76-2.22,5.19l-1,2.38c-.25.54-.49,1.08-.72,1.6-.16.36-.4.22-.56,0a35.72,35.72,0,0,1-2.63-5.59l-.07-.22-1.33,2.85c-.45,1-.9,2-1.32,3C1190.14,980.07,1190,980,1189.82,979.89Z" fill="#00749d"/><path d="M1208.21,977.94a4.37,4.37,0,0,1-3.19,2,2.54,2.54,0,0,1-2.81-2.63c.11-2.36,3.59-2.9,5.93-3.3v-.65c0-1.69-.76-3.1-2.22-3.1a1.84,1.84,0,0,0-1.93,2.09c0,.07-.45,0-.67,0-.63-.2-.72-.36-.72-.7,0-.7,1.12-2,3.26-2,2.74,0,4,1.55,4,3.62v2.27a10.77,10.77,0,0,0,.43,3.46,1.44,1.44,0,0,0,1.15.56c.22,0,.18.29,0,.31a8.78,8.78,0,0,1-1.12.07c-.76,0-1.06,0-1.33-.25A2.45,2.45,0,0,1,1208.21,977.94Zm-2.49,1.19a3.08,3.08,0,0,0,2.45-2,5.81,5.81,0,0,1,0-.63v-1.77c-1.91.29-4.09.72-4.2,2.34A1.73,1.73,0,0,0,1205.71,979.13Z" fill="#00749d"/><path d="M1212.93,976.64a4.32,4.32,0,0,0,.94,1.75,3.8,3.8,0,0,0,2.43.94,1.93,1.93,0,0,0,2.13-1.78c0-1.06-1.5-1.62-2.85-2.34s-2.81-1.55-2.81-3.21c0-1.5,1.73-2.36,3.57-2.36a9.8,9.8,0,0,1,2.9.4,9,9,0,0,1,0,2.2c0,.07-.18.07-.2,0a2.49,2.49,0,0,0-2.83-1.93c-1.21,0-2,.61-2,1.5s1.17,1.35,2.72,2.18,3,1.57,3,3.28-1.77,2.7-3.77,2.7a8.32,8.32,0,0,1-3.35-.7,13.81,13.81,0,0,1-.11-2.65C1212.71,976.53,1212.91,976.55,1212.93,976.64Z" fill="#00749d"/><path d="M1241.2,979.87c-.25,0-1.91-.18-2.54-.18s-2.22.18-2.49.18-.13-.31.07-.31a1.58,1.58,0,0,0,1.15-.52,10.29,10.29,0,0,0,.47-3.51v-2c0-2.29-.74-2.83-2-2.83a4,4,0,0,0-3.12,2.07v2.74c0,.88,0,2.94.38,3.55.27.4,1,.47,1.26.47s.22.31,0,.31-1.91-.18-2.54-.18-2.22.18-2.49.18-.13-.31.07-.31a1.58,1.58,0,0,0,1.15-.52,10.29,10.29,0,0,0,.47-3.51v-8.4c0-.88.07-2.79-.36-3.3s-.88-.29-1.28-.22c-.16,0-.25-.27,0-.34s2.38-.56,3-.7c.27-.07.38,0,.38.27l-.09,4.29v4.56a4.79,4.79,0,0,1,3.86-2c1.86,0,2.94,1.06,2.94,3.84v2c0,.88,0,2.94.38,3.55.27.4,1,.47,1.26.47S1241.38,979.87,1241.2,979.87Z" fill="#00749d"/><path d="M1243.66,970.93c-.36-.45-.88-.29-1.28-.22-.16,0-.25-.27,0-.34s2.38-.56,3-.7c.27-.07.38,0,.38.27l-.09,4.29v1.3c0,.88,0,2.94.38,3.55.27.4,1,.47,1.26.47s.22.31,0,.31-1.91-.18-2.54-.18-2.22.18-2.49.18-.13-.31.07-.31a1.58,1.58,0,0,0,1.15-.52,10.26,10.26,0,0,0,.47-3.51v-1.3C1244,973.36,1244.08,971.45,1243.66,970.93Zm-.11-5a1.17,1.17,0,0,1,.67-1.53c.58-.2,1.42.07,1.53.65a1.12,1.12,0,0,1-.7,1.53A1.16,1.16,0,0,1,1243.54,965.95Z" fill="#00749d"/><path d="M1252.55,985c-2.43,0-4.63-.72-4.63-2.54,0-1.08,1.37-1.77,3.59-2.74-1.91-.31-2.52-1.15-2.52-1.8,0-.81.81-1.35,1.73-1.68a3.18,3.18,0,0,1-2-3c0-2.09,2.09-3.62,4.11-3.62h.07a3.24,3.24,0,0,1,.45,0,11.66,11.66,0,0,0,3.75-.2c.61-.2.72-.49.88-.49s.16.11.13.25c-.07.4-.2,1.12-.4,1.12l-2.38-.11A3.07,3.07,0,0,1,1257,973a3.93,3.93,0,0,1-4.16,3.71,4.84,4.84,0,0,1-1.55-.25c-.7.32-1.08.67-1,1.1.18.74,2.52.76,3.68.83,2.13.11,4.29.83,4.29,2.65S1255.56,985,1252.55,985Zm.36-.58c1.93,0,3.77-1.37,3.75-3.06,0-1.15-1.89-1.37-4.07-1.51l-.54,0c-1.1.38-2.54,1.24-2.54,2.45S1251.43,984.43,1252.91,984.43Zm2.43-11.05c-.13-1.71-1.19-3.12-2.92-3.12a2.31,2.31,0,0,0-2.11,2.76,3.31,3.31,0,0,0,3,3.12C1254.76,976.14,1255.45,974.66,1255.34,973.38Z" fill="#00749d"/><path d="M1270.75,979.87c-.25,0-1.91-.18-2.54-.18s-2.22.18-2.49.18-.13-.31.07-.31a1.58,1.58,0,0,0,1.15-.52,10.29,10.29,0,0,0,.47-3.51v-2c0-2.29-.74-2.83-2-2.83a4,4,0,0,0-3.12,2.07v2.74c0,.88,0,2.94.38,3.55.27.4,1,.47,1.26.47s.22.31,0,.31-1.91-.18-2.54-.18-2.22.18-2.49.18-.13-.31.07-.31a1.58,1.58,0,0,0,1.15-.52,10.29,10.29,0,0,0,.47-3.51v-8.4c0-.88.07-2.79-.36-3.3s-.88-.29-1.28-.22c-.16,0-.25-.27,0-.34s2.38-.56,3-.7c.27-.07.38,0,.38.27l-.09,4.29v4.56a4.79,4.79,0,0,1,3.86-2c1.86,0,2.94,1.06,2.94,3.84v2c0,.88,0,2.94.38,3.55.27.4,1,.47,1.26.47S1270.93,979.87,1270.75,979.87Z" fill="#00749d"/><path d="M1272.6,982.34a3,3,0,0,0,1.08-2.45,1.25,1.25,0,0,1-.31,0,1.3,1.3,0,0,1-1.26-1.33,1.47,1.47,0,0,1,1.39-1.3,1.59,1.59,0,0,1,1.41,1.41,4.16,4.16,0,0,1-2.07,4.13A.29.29,0,0,1,1272.6,982.34Z" fill="#00749d"/><path d="M1291.89,980c-.27,0-2.22-.18-3.21-.18-.63,0-3.37.07-3.68.07s-.16-.36,0-.36c.79,0,1.26,0,1.62-.45a7.36,7.36,0,0,0,.63-3.53v-8.18a7.35,7.35,0,0,0-.63-3.53c-.36-.4-.83-.45-1.62-.45-.2,0-.27-.36,0-.36h5.82c2.18,0,4.67,1.06,4.67,3.89,0,1.73-1,3.21-3.19,4,3,.4,4.74,2.11,4.74,4.38A5,5,0,0,1,1291.89,980Zm-1.12-9.23c1.71,0,3.08-1.24,3-3.66a3.34,3.34,0,0,0-3.15-3.37h-1.48v7Zm-1.66.65v6.65c0,1,2,1.15,2.88,1.15,2,0,3.17-1.66,3.06-3.73-.16-2.92-2.07-4.07-4-4.07Z" fill="#00749d"/><path d="M1306.32,977.72A3.78,3.78,0,0,1,1303,980c-2.25,0-3.35-1.44-3.35-4v-1.73c0-.88.07-2.79-.36-3.3s-.88-.29-1.28-.22c-.16,0-.25-.27,0-.34s2.38-.56,3-.7c.27-.07.38,0,.38.27l-.09,4.29v1.66c0,2,.7,3.15,2.07,3.15a3.64,3.64,0,0,0,2.94-2.29v-2.52c0-.88,0-2.72-.4-3.3s-1.06-.29-1.46-.22c-.16,0-.25-.27,0-.34l3.24-.7c.27-.07.38,0,.38.27l-.09,4.29v1.3a10.74,10.74,0,0,0,.43,3.46,1.44,1.44,0,0,0,1.15.56c.22,0,.18.29,0,.31s-.88.07-1.44.07a1.81,1.81,0,0,1-1.3-.38A3.48,3.48,0,0,1,1306.32,977.72Z" fill="#00749d"/><path d="M1313.6,970.33v7.14a1.55,1.55,0,0,0,1.59,1.73,3.29,3.29,0,0,0,1.06-.22c.11,0,.34.34.11.47a4.46,4.46,0,0,1-1.8.61,2.45,2.45,0,0,1-2.7-2.58v-7.12h-1.66c-.16,0,0-.58.18-.58a2.61,2.61,0,0,0,2.61-2.63c0-.22.61-.25.61,0v2.54a5.07,5.07,0,0,0,2.7-.56c.13-.07,0,1.21-.16,1.21Z" fill="#00749d"/><path d="M1325.83,976.64a4.32,4.32,0,0,0,.94,1.75,3.8,3.8,0,0,0,2.43.94,1.93,1.93,0,0,0,2.13-1.78c0-1.06-1.5-1.62-2.85-2.34s-2.81-1.55-2.81-3.21c0-1.5,1.73-2.36,3.57-2.36a9.8,9.8,0,0,1,2.9.4,9,9,0,0,1,0,2.2c0,.07-.18.07-.2,0a2.49,2.49,0,0,0-2.83-1.93c-1.21,0-2,.61-2,1.5s1.17,1.35,2.72,2.18,3,1.57,3,3.28S1331,980,1329,980a8.32,8.32,0,0,1-3.35-.7,13.81,13.81,0,0,1-.11-2.65C1325.6,976.53,1325.81,976.55,1325.83,976.64Z" fill="#00749d"/><path d="M1346,979.87c-.25,0-1.91-.18-2.54-.18s-2.22.18-2.49.18-.13-.31.07-.31a1.58,1.58,0,0,0,1.15-.52,10.29,10.29,0,0,0,.47-3.51v-2c0-2.29-.74-2.83-2-2.83a4,4,0,0,0-3.12,2.07v2.74c0,.88,0,2.94.38,3.55.27.4,1,.47,1.26.47s.22.31,0,.31-1.91-.18-2.54-.18-2.22.18-2.49.18-.13-.31.07-.31a1.58,1.58,0,0,0,1.15-.52,10.29,10.29,0,0,0,.47-3.51v-8.4c0-.88.07-2.79-.36-3.3s-.88-.29-1.28-.22c-.16,0-.25-.27,0-.34s2.38-.56,3-.7c.27-.07.38,0,.38.27l-.09,4.29v4.56a4.79,4.79,0,0,1,3.86-2c1.86,0,2.94,1.06,2.94,3.84v2c0,.88,0,2.94.38,3.55.27.4,1,.47,1.26.47S1346.18,979.87,1346,979.87Z" fill="#00749d"/><path d="M1352.19,980a4.57,4.57,0,0,1-4.83-4.85c0-3.26,2.11-5.48,4.65-5.48,2.31,0,3.93,1.46,3.93,3.14,0,.65-.25.81-.79.92l-6,1.28c.29,2.09,1.66,4.11,3.89,4.11a4,4,0,0,0,2.52-.88c.18-.16.36-.07.22.16A4.46,4.46,0,0,1,1352.19,980Zm-3.08-5.68,5.08-1.08c-.09-1.62-.85-2.88-2.54-2.88C1349.76,970.35,1349,972.17,1349.11,974.3Z" fill="#00749d"/><path d="M1369.9,979.89c-.61-.47-1.75-2.81-2.76-5.57-.58-1.59-.9-3.32-1.41-3.8a1.53,1.53,0,0,0-1.1-.43c-.18,0-.18-.34,0-.34s1.75.11,2.38.11,2.16-.09,2.43-.09.13.36-.07.36-.94,0-1.12.38c-.29.67.11,2.16.65,3.66a17.64,17.64,0,0,0,1.71,3.64c.16-.43.34-.85.52-1.28.58-1.39,1.15-2.7,1.55-3.78a5.86,5.86,0,0,0-.85-2.25,1.53,1.53,0,0,0-1.1-.43c-.18,0-.18-.34,0-.34s1.73.11,2.36.11,2-.09,2.22-.09.13.36-.07.36-.85,0-1,.38c-.29.67,0,2.07.63,3.57a19.48,19.48,0,0,0,1.71,3.68c.34-.88.72-1.84,1.08-2.79a18.41,18.41,0,0,0,1.28-4.45c-.07-.38-.9-.43-1.12-.43s-.25-.36-.07-.36,1.39.11,1.93.11,1.55-.11,1.8-.11.13.36,0,.36-.92,0-1.14.43c-.31.58-1.19,2.76-2.22,5.19l-1,2.38c-.25.54-.49,1.08-.72,1.6-.16.36-.4.22-.56,0a35.72,35.72,0,0,1-2.63-5.59l-.07-.22-1.33,2.85c-.45,1-.9,2-1.32,3C1370.21,980.07,1370.06,980,1369.9,979.89Z" fill="#00749d"/><path d="M1388.28,977.94a4.37,4.37,0,0,1-3.19,2,2.54,2.54,0,0,1-2.81-2.63c.11-2.36,3.59-2.9,5.93-3.3v-.65c0-1.69-.76-3.1-2.22-3.1a1.84,1.84,0,0,0-1.93,2.09c0,.07-.45,0-.67,0-.63-.2-.72-.36-.72-.7,0-.7,1.12-2,3.26-2,2.74,0,4,1.55,4,3.62v2.27a10.77,10.77,0,0,0,.43,3.46,1.44,1.44,0,0,0,1.15.56c.22,0,.18.29,0,.31a8.78,8.78,0,0,1-1.12.07c-.76,0-1.06,0-1.33-.25A2.45,2.45,0,0,1,1388.28,977.94Zm-2.49,1.19a3.08,3.08,0,0,0,2.45-2,5.81,5.81,0,0,1,0-.63v-1.77c-1.91.29-4.09.72-4.2,2.34A1.73,1.73,0,0,0,1385.79,979.13Z" fill="#00749d"/><path d="M1393,976.64a4.32,4.32,0,0,0,.94,1.75,3.8,3.8,0,0,0,2.43.94,1.93,1.93,0,0,0,2.13-1.78c0-1.06-1.5-1.62-2.85-2.34s-2.81-1.55-2.81-3.21c0-1.5,1.73-2.36,3.57-2.36a9.8,9.8,0,0,1,2.9.4,9,9,0,0,1,0,2.2c0,.07-.18.07-.2,0a2.49,2.49,0,0,0-2.83-1.93c-1.21,0-2,.61-2,1.5s1.17,1.35,2.72,2.18,3,1.57,3,3.28-1.77,2.7-3.77,2.7a8.32,8.32,0,0,1-3.35-.7,13.81,13.81,0,0,1-.11-2.65C1392.78,976.53,1393,976.55,1393,976.64Z" fill="#00749d"/><path d="M1412.56,970.33v7.14a1.55,1.55,0,0,0,1.59,1.73,3.29,3.29,0,0,0,1.06-.22c.11,0,.34.34.11.47a4.46,4.46,0,0,1-1.8.61,2.45,2.45,0,0,1-2.7-2.58v-7.12h-1.66c-.16,0,0-.58.18-.58a2.61,2.61,0,0,0,2.61-2.63c0-.22.61-.25.61,0v2.54a5.07,5.07,0,0,0,2.7-.56c.13-.07,0,1.21-.16,1.21Z" fill="#00749d"/><path d="M1427.82,979.87c-.25,0-1.91-.18-2.54-.18s-2.22.18-2.49.18-.13-.31.07-.31A1.58,1.58,0,0,0,1424,979a10.29,10.29,0,0,0,.47-3.51v-2c0-2.29-.74-2.83-2-2.83a4,4,0,0,0-3.12,2.07v2.74c0,.88,0,2.94.38,3.55.27.4,1,.47,1.26.47s.22.31,0,.31-1.91-.18-2.54-.18-2.22.18-2.49.18-.13-.31.07-.31a1.58,1.58,0,0,0,1.15-.52,10.29,10.29,0,0,0,.47-3.51v-8.4c0-.88.07-2.79-.36-3.3s-.88-.29-1.28-.22c-.16,0-.25-.27,0-.34s2.38-.56,3-.7c.27-.07.38,0,.38.27l-.09,4.29v4.56a4.79,4.79,0,0,1,3.86-2c1.86,0,2.94,1.06,2.94,3.84v2c0,.88,0,2.94.38,3.55.27.4,1,.47,1.26.47S1428,979.87,1427.82,979.87Z" fill="#00749d"/><path d="M1434,980a4.57,4.57,0,0,1-4.83-4.85c0-3.26,2.11-5.48,4.65-5.48,2.31,0,3.93,1.46,3.93,3.14,0,.65-.25.81-.79.92l-6,1.28c.29,2.09,1.66,4.11,3.89,4.11a4,4,0,0,0,2.52-.88c.18-.16.36-.07.22.16A4.46,4.46,0,0,1,1434,980Zm-3.08-5.68,5.08-1.08c-.09-1.62-.85-2.88-2.54-2.88C1431.57,970.35,1430.83,972.17,1430.92,974.3Z" fill="#00749d"/><path d="M1447.8,976.64a4.32,4.32,0,0,0,.94,1.75,3.8,3.8,0,0,0,2.43.94,1.93,1.93,0,0,0,2.13-1.78c0-1.06-1.5-1.62-2.85-2.34s-2.81-1.55-2.81-3.21c0-1.5,1.73-2.36,3.57-2.36a9.8,9.8,0,0,1,2.9.4,9,9,0,0,1,0,2.2c0,.07-.18.07-.2,0a2.49,2.49,0,0,0-2.83-1.93c-1.21,0-2,.61-2,1.5s1.17,1.35,2.72,2.18,3,1.57,3,3.28S1453,980,1451,980a8.32,8.32,0,0,1-3.35-.7,13.81,13.81,0,0,1-.11-2.65C1447.58,976.53,1447.78,976.55,1447.8,976.64Z" fill="#00749d"/><path d="M1467.46,979.87h-2.54c-.34,0-.83-.47-1.1-.83-1.15-1.53-2.45-4.72-3.1-5.39h-1v1.89c0,.88,0,2.94.38,3.55.27.4,1,.47,1.26.47s.22.31,0,.31-1.91-.18-2.54-.18-2.22.18-2.49.18-.13-.31.07-.31a1.58,1.58,0,0,0,1.15-.52,10.26,10.26,0,0,0,.47-3.51v-8.4c0-.88.07-2.79-.36-3.3s-.88-.29-1.28-.22c-.16,0-.25-.27,0-.34s2.38-.56,3-.7c.27-.07.38,0,.38.27l-.09,4.29v6a8.93,8.93,0,0,0,1.21-.09,24.67,24.67,0,0,0,2.92-2.52c.11-.18,0-.29-.11-.38a2.67,2.67,0,0,0-1-.16c-.16,0-.13-.22,0-.22s1.77.07,2.31.07,1.73-.09,2-.09.13.25,0,.25a4.62,4.62,0,0,0-2.67,1.17c-.49.34-1.42,1.17-2.4,2,1.21,1.44,3.62,5.39,4,5.73a2.5,2.5,0,0,0,1.57.67C1467.62,979.51,1467.64,979.87,1467.46,979.87Z" fill="#00749d"/><path d="M1468.75,984.61a8,8,0,0,0,2.34-1.64,12.25,12.25,0,0,0,2.09-3.12c-.79-.63-2-3.68-2.74-5.73-.58-1.62-1-3.12-1.55-3.59a2.21,2.21,0,0,0-1.37-.43c-.18,0-.18-.34,0-.34s2,.11,2.65.11,2.22-.09,2.49-.09.13.36-.07.36-1.08,0-1.26.38c-.29.67.25,2.07.83,3.57a16.15,16.15,0,0,0,1.89,3.75c.47-1.1,1-2.4,1.44-3.62a13.8,13.8,0,0,0,1.15-3.68c-.07-.38-.9-.43-1.12-.43s-.25-.36-.07-.36,1.39.11,1.93.11,1.55-.11,1.8-.11.13.36,0,.36-.92,0-1.15.43-.92,2-1.73,3.82l-2.38,5.32c-1.39,3.08-2.18,4.7-2.94,5.59C1470.68,985.58,1468.28,984.86,1468.75,984.61Z" fill="#00749d"/><path d="M1480.46,979.47a1.34,1.34,0,0,1,2.34-1.3,1.23,1.23,0,0,1-.52,1.73A1.25,1.25,0,0,1,1480.46,979.47Z" fill="#00749d"/><path d="M1493.54,974.84c-.07,0,0-.29,0-.58s.16-.58.25-.58H1512s0,.29-.07.56-.13.61-.2.61Z" fill="#00749d"/><path d="M1522.22,980.05c-4.92,0-8.54-3-8.54-8.45,0-4,3-8.76,8.42-8.76,2.76,0,5.55.88,6,1.35.34.31-.13,3.84-.47,4.29-.09.11-.45.09-.4,0a4,4,0,0,0,.29-.92c.2-2-2.31-3.87-5.73-3.87-3.71,0-6.36,3.6-6.24,7.3.11,4,3.06,8.22,7.19,8.2,3.3,0,5.28-2.47,5.39-4.22,0-.16.4-.22.4,0a20.36,20.36,0,0,1-.43,3.53A13.07,13.07,0,0,1,1522.22,980.05Z" fill="#00749d"/><path d="M1535.93,977.94a4.37,4.37,0,0,1-3.19,2,2.54,2.54,0,0,1-2.81-2.63c.11-2.36,3.59-2.9,5.93-3.3v-.65c0-1.69-.76-3.1-2.22-3.1a1.84,1.84,0,0,0-1.93,2.09c0,.07-.45,0-.67,0-.63-.2-.72-.36-.72-.7,0-.7,1.12-2,3.26-2,2.74,0,4,1.55,4,3.62v2.27a10.77,10.77,0,0,0,.43,3.46,1.44,1.44,0,0,0,1.15.56c.22,0,.18.29,0,.31a8.78,8.78,0,0,1-1.12.07c-.76,0-1.06,0-1.33-.25A2.45,2.45,0,0,1,1535.93,977.94Zm-2.49,1.19a3.08,3.08,0,0,0,2.45-2,5.81,5.81,0,0,1,0-.63v-1.77c-1.91.29-4.09.72-4.2,2.34A1.73,1.73,0,0,0,1533.43,979.13Z" fill="#00749d"/><path d="M1551.25,979.87h-2.54c-.34,0-.83-.47-1.1-.83-1.15-1.53-2.45-4.72-3.1-5.39h-1v1.89c0,.88,0,2.94.38,3.55.27.4,1,.47,1.26.47s.22.31,0,.31-1.91-.18-2.54-.18-2.22.18-2.49.18-.13-.31.07-.31a1.58,1.58,0,0,0,1.15-.52,10.26,10.26,0,0,0,.47-3.51v-8.4c0-.88.07-2.79-.36-3.3s-.88-.29-1.28-.22c-.16,0-.25-.27,0-.34s2.38-.56,3-.7c.27-.07.38,0,.38.27l-.09,4.29v6a8.93,8.93,0,0,0,1.21-.09,24.67,24.67,0,0,0,2.92-2.52c.11-.18,0-.29-.11-.38a2.67,2.67,0,0,0-1-.16c-.16,0-.13-.22,0-.22s1.77.07,2.31.07,1.73-.09,2-.09.13.25,0,.25a4.62,4.62,0,0,0-2.67,1.17c-.49.34-1.42,1.17-2.4,2,1.21,1.44,3.62,5.39,4,5.73a2.5,2.5,0,0,0,1.57.67C1551.41,979.51,1551.43,979.87,1551.25,979.87Z" fill="#00749d"/><path d="M1557.24,980a4.57,4.57,0,0,1-4.83-4.85c0-3.26,2.11-5.48,4.65-5.48,2.31,0,3.93,1.46,3.93,3.14,0,.65-.25.81-.79.92l-6,1.28c.29,2.09,1.66,4.11,3.89,4.11a4,4,0,0,0,2.52-.88c.18-.16.36-.07.22.16A4.46,4.46,0,0,1,1557.24,980Zm-3.08-5.68,5.08-1.08c-.09-1.62-.85-2.88-2.54-2.88C1554.81,970.35,1554.07,972.17,1554.16,974.3Z" fill="#00749d"/></svg>