<svg id="Layer_1" data-name="Layer 1" xmlns="http://www.w3.org/2000/svg" viewBox="0 0 1920 1080"><title>numbersArtboard 1</title><rect x="510" width="932" height="1080" fill="#fff"/><path d="M1226.16,545c-24.88,25.61-212.91,227.55-352.66,372.42,120.72,2.2,133.89,2.2,220.23-2.2,57.8-5.12,89.26-11.71,104.63-22,16.1-11,16.83-46.83,16.83-55.61,0-6.58,19.76-7.32,19.76,0,0,10.24-9.51,82.68-9.51,103.16s9.51,93.65,9.51,103.9c0,7.32-19.76,6.58-19.76,0,0-8.78-.73-41-16.83-51.95-14.63-10.24-45.36-18.29-104.63-24.14-140.48-9.51-217.3-5.85-389.25-5.85-33.66,0-41-19-22.68-38,24.88-24.88,169-192.43,364.37-378.27C887.4,547.15,905,550.08,839.11,553c-98.77,5.85-108.29,14.63-116.34,20.49-16.1,11-16.1,50.49-16.1,59.27,0,6.58-20.49,7.32-20.49,0,0-10.24,11.71-90,11.71-110.48s-11.71-95.12-11.7-105.36c0-7.32,20.49-6.58,20.49,0,0,8.78,0,46.09,16.1,57.07,7.32,5.85,14.63,13.9,109.75,19.76,94.39,5.85,116.34,8.78,383.39,8.78C1245.19,502.52,1249.58,521.54,1226.16,545Z" fill="#fceaca"/><path d="M982.52,639.06c-160.23,0-302.18-99.51-302.18-293.4C680.34,169.34,782.77,53,948.13,53c160.23,0,292.67,109.75,292.67,292.67C1240.8,513.22,1142.76,639.06,982.52,639.06Zm-68-421.44c-125.85,33.66-217.3,99.51-193.89,186.57,24.14,80.48,144.87,103.9,283.15,71.7,126.58-32.93,216.57-101.7,193.16-191C1173.48,201.53,1046.91,184.7,914.47,217.63Z" fill="#dff0ed"/><path d="M1209.5,233.2c-24.88,10.24-67.31-5.12-79-41.71-13.9-35.85,2.93-68,41-76.83,23.41-9.51,65.12,2.19,78.29,41C1259.25,180.52,1246.08,222.22,1209.5,233.2Z" fill="#fceaca"/><path d="M983.15,315.84H916.46c-2.71,0-2.11-2.71-.6-4.52,8.73-10.39,25.29-28.75,35.83-41.1,10.09-11.89,17.46-22.88,17.46-33.87s-4.82-25.29-20.32-25.29c-20.32,0-25.89,29.05-28.45,33.27-.3.6-2.11.6-2.11,0-.45-3.76-2-14.3-1.66-15.2C918.42,223,931.21,207,951.08,207c18.21,0,31.61,11.74,31.61,27.1,0,16.26-14.6,28.3-28.6,42.45-8.58,8.58-20,21.23-27.85,30.11,6.47,2.41,23,2.26,28.15,2.26,8.28,0,28.6-2.86,33.57-11.59.9-1.5,2.56-1.2,2.26,0C989.62,300,984.65,315.84,983.15,315.84Z" fill="#e89c15"/><path d="M1119.33,628.73c0,21.26-7.9,31-10.35,35-.56.94-18.07,2.45-22.58,2.45-1.51,0-1.51-2.45,0-2.64,4.52-.56,10.91-4,15.43-8.09,7.53-6.78,12.8-14.87,12.8-26.53,0-18.25-18.25-28.79-39.52-26.72-19.19,1.88-26.91,13.17-26.91,28.23v7.72c0,.94-4.52-.38-4.52-1.51v-2.07c0-12.8-13.74-27.1-32.93-25.59-16,1.32-23.15,14.87-23.15,25,0,19.2,23.15,23.9,27.29,25.59,1.32.56,1.32,3.2.38,3.2-4.52.38-19.95,1.13-20.7.38-3.58-3.58-12-17.31-12-36.13,0-11.1,4.71-32,25.78-32.18,16.37-.19,30.86,11.29,35.75,25.4.94-15.62,8.66-32.74,30.3-34.63,14.3-1.32,26.35,5.27,34.81,15.81C1115.38,609.16,1119.33,619.13,1119.33,628.73Z" fill="#96ccc3"/><path d="M940.15,642.84c-4.55,0-44.29-3.31-55.89-3.31-9.94,0-50.09,3.31-55.06,3.31-5.38,0-5-8.69.41-8.69,4.14,0,15.73-.83,21.11-8.69,7.45-9.93,8.28-46,8.28-62.1v-6.62H741.86c-2.9,0-2.9-3.31-2.07-4.55C755.52,536.45,866,394,898.34,347.27c2.9-4.55,11.59-3.72,11.59.83V532.31h41.81c7.86,0,16.56,2.07,26.49-13.66,1.24-2.07,5-1.66,4.55,0-1.24,5.38-10.35,24-15.32,33.12-1.66,3.31-3.31,5-5.38,5H909.93v6.21c0,16.14,0,52.16,7.45,63.34,5,7.45,18.21,7.86,22.77,7.86S945.12,642.84,940.15,642.84ZM859,532.31V421.78L774.56,532.31Z" fill="#db4105"/><path d="M924.07,812.92c0,10.21-3.79,14.91-5,16.8-.27.45-8.67,1.35-10.84,1.35-.72,0-.72-1.17,0-1.27a15.54,15.54,0,0,0,7.41-3.88A16.46,16.46,0,0,0,921.44,813c0-8.31-10.21-13.82-20.41-12.83-10.48,1-16.44,6.41-16.35,14.54,0,5.33,4.16,11.47,5.6,12.37.27.18.09.9-.27.9-.54,0-22.76-1.81-30-2.35-.72-.09-.9-.45-.9-.81,0-2.53.09-24.66-.36-26.56a5.12,5.12,0,0,0-2.71-3.16c-.45-.18-.54-1.26,0-1.17.81.18,10.39,3.25,10.39,4.15,0,1.63-.72,19.24-1,25.29L885,824.84a29.91,29.91,0,0,1-2.89-12.56c0-8.58,4.7-18.88,18.61-20.05a21.87,21.87,0,0,1,18.61,7.68A21.18,21.18,0,0,1,924.07,812.92Z" fill="#475993"/><path d="M997.11,469.68c-11,0-20.69-8.31-20.69-24.66,0-21.86,11-41,30.53-41a27.68,27.68,0,0,1,8.58,1.08c.63.18.36,1.54-.54,1.35a30.46,30.46,0,0,0-6.87-.63c-14.09.45-22.13,13.91-23.48,31.35a20.47,20.47,0,0,1,17-8.85c7.95,0,17.25,4.52,17.25,19.06C1018.88,458.21,1010.3,469.68,997.11,469.68Zm2-2.62c7.77,0,12.83-8.4,12.46-18.43s-5.33-16.35-12.19-16.44c-6.69-.09-13.55,5.42-14.9,8.13a24.6,24.6,0,0,0-.09,2.62C984.38,457.31,989.7,467.06,999.1,467.06Z" fill="#475993"/><path d="M1146.87,256.42v15.81c0,1.13-.75,1.13-1.69.94-34.44-5.27-96.91-42.9-119.68-55.14-.19,41.78,1.88,60.78,4.89,65.11,2.82,4.14,8.28,4.89,10.16,4.89.94,0,1.13,3.39,0,3.39-2.07,0-28-1.13-28-3,0-2.82.19-51.75,0-78.66,0-.94.75-1.32,2.26-.75,8.28,3.2,33.12,17.5,62.1,29.36,24.28,10,50.43,13.93,68.5,16C1145.93,254.35,1146.87,254.91,1146.87,256.42Z" fill="#96ccc3"/><path d="M975.57,785.91c0-47.16,27.92-95.89,75.34-95.89,45.84,0,75.34,39.52,75.34,92.2,0,44-25.82,99.58-74.29,99.58C1005.07,881.8,975.57,840.44,975.57,785.91ZM1101,782.22c-3.16-38.73-16.86-83.51-54.27-83.51-32.14,0-47.95,46.1-45.84,87.2,2.11,41.36,19,86.93,55.32,86.93C1089.37,872.84,1104.39,826.21,1101,782.22Z" fill="#e89c15"/><path d="M888,769.31c-22,0-35.53-12.64-35.53-27.4,0-15.05,14-24.24,25.14-32.21-10.54-6.32-20.17-12.95-20.17-26,0-12.5,12.19-23.63,30.26-23.63,15.2,0,26.95,8.73,26.95,21.08,0,10.24-9,17.46-19.12,24.24,12.49,6.78,27.55,13.55,27.55,31C923.07,750.8,910.43,769.31,888,769.31Zm.45-4.06c16.11-.15,22.73-13.4,22.43-23.78-.45-15.35-15.35-20.92-30.11-29.81l-.3-.15c-10.84,8.28-15.35,16.71-15.81,28.75C864.21,751.25,871.74,765.4,888.45,765.25Zm4.06-61.57c8-6.62,11.59-14.45,11.14-23.63-.45-8-5-16-17.31-16-11.29,0-20,9-18.67,18.67,1.2,8.28,13.1,14.3,24.24,20.62A1.14,1.14,0,0,0,892.52,703.68Z" fill="#96ccc3"/><path d="M944,408.65c-.63-.18-.36-1.81.54-1.54a41.53,41.53,0,0,0,8.22.72c12.83,0,19.6-15.36,20.59-32.43-2.08,2.71-7.41,7.41-16.62,7.41-8.13,0-17.7-3.61-17.7-17.07,0-10.3,8.85-21.68,22-21.68,11.11,0,20.23,8.4,20.32,24.66.27,21.41-10,41-28.82,41A35.57,35.57,0,0,1,944,408.65Zm14.81-28.82c6.23.09,12.92-4.24,14.72-6.78v-2.17c0-14.36-5.06-24.21-14.45-24.21-7.77,0-13.1,8.4-12.74,17.8C946.73,373.6,951.79,379.74,958.84,379.83Z" fill="#475993"/><path d="M1129,321.79c-3-3.76-7.34-2.45-10.73-1.88-1.32.19-2.07-2.26,0-2.82,2.45-.56,19.95-4.7,25.22-5.83,2.26-.57,3.2-.19,3.2,2.26l-.75,35.94v59.65c0,7.34-.19,24.65,3.2,29.73,2.26,3.39,8.47,4,10.54,4,1.5,0,1.88,2.63.38,2.63-2.07,0-16-1.5-21.26-1.5-4.52,0-18.63,1.5-20.89,1.5-1.51,0-1.13-2.63.56-2.63,1.88,0,7.15-.94,9.6-4.33,3-4.14,4-22,4-29.36V349.45C1132,342.11,1132.55,326.12,1129,321.79Z" fill="#db4105"/><path d="M1191,204.63l2.44-16H1182l-2.25,15.12c-.29.59-10.14,1.27-9.95.88l2.44-16H1164c-.59,0,.49-7.9,1.27-7.9h8.1l1.85-12.19h-9c-.59,0,.49-7.9,1.27-7.9h8.88l2.34-15.22c.29-.78,10-1,9.76-.49l-2.34,15.71h11.41l2.24-15.22c.29-.78,10-1,9.75-.49l-2.34,15.71h5.85c.39,0-.68,7.9-1.17,7.9h-5.85l-1.76,12.19h7.12c.39,0-.68,7.9-1.17,7.9h-7.12l-2.24,15.12C1200.63,204.33,1190.77,205,1191,204.63Zm3.61-23.9,1.76-12.19H1185l-1.85,12.19Z" fill="#db4105"/></svg>