<?xml version="1.0" encoding="UTF-8" standalone="no"?>
<svg width="640px" height="360px" viewBox="0 0 640 360" version="1.1" xmlns="http://www.w3.org/2000/svg" xmlns:xlink="http://www.w3.org/1999/xlink">
    <!-- Generator: Sketch 42 (36781) - http://www.bohemiancoding.com/sketch -->
    <title>amalie</title>
    <desc>Created with Sketch.</desc>
    <defs>
        <polygon id="path-1" points="0 2548.3867 934.408456 2548.3867 934.408456 0 0 0"></polygon>
        <polygon id="path-3" points="0 2548.3867 934.408456 2548.3867 934.408456 0 0 0"></polygon>
    </defs>
    <g id="Page-1" stroke="none" stroke-width="1" fill="none" fill-rule="evenodd">
        <g id="amalie">
            <g id="tcw_amalie_poster_v3" transform="translate(401.968750, 574.518440) rotate(-360.000000) translate(-401.968750, -574.518440) translate(-65.531250, -699.981560)">
                <polygon id="Fill-1" fill="#4FB374" points="47.1923463 716.120848 887.21611 716.120848 887.21611 270.243431 47.1923463 270.243431"></polygon>
                <polygon id="Fill-9" fill="#DCAD59" points="257.198287 1161.18597 887.21611 1161.18597 887.21611 715.230093 257.198287 715.230093"></polygon>
                <polygon id="Fill-10" fill="#F0C4A8" points="47.1923463 938.812682 257.198287 938.812682 257.198287 714.581788 47.1923463 714.581788"></polygon>
                <polygon id="Fill-11" fill="#1A1918" points="47.1923463 1161.09925 257.198287 1161.09925 257.198287 936.868357 47.1923463 936.868357"></polygon>
                <g id="Group-1565" transform="translate(0.000000, 0.000000)">
                    <path d="M148.20078,861.695256 L111.955288,861.695256 L111.955288,858.52393 L122.527553,858.52393 L122.527553,792.375598 L111.955288,792.375598 L111.955288,789.204272 L127.813096,789.204272 L137.478678,799.473917 C138.08274,798.718839 138.686213,798.114777 139.44188,797.35911 C144.726833,792.074157 151.372695,787.241071 160.585231,787.241071 C173.572565,787.241071 184.446271,794.3388 184.446271,809.743561 L184.446271,858.52393 L195.017357,858.52393 L195.017357,861.695256 L158.773045,861.695256 L158.773045,858.52393 L169.34413,858.52393 L169.34413,811.102701 C169.34413,805.967584 168.891084,800.984072 166.776867,797.812746 C164.209013,793.886343 160.28202,792.678219 156.204601,792.678219 C150.617028,792.678219 144.877848,796.00056 139.894927,801.588134 C139.139259,802.494817 138.384182,803.551926 137.629694,804.458019 L137.629694,858.52393 L148.20078,858.52393 L148.20078,861.695256 Z" id="Fill-347" fill="#1A1918"></path>
                    <path d="M125.863934,1011.40997 L137.643734,1011.40997 L145.044083,1021.83063 C149.423533,1015.6384 156.521852,1010.35286 166.036419,1010.35286 C176.607504,1010.35286 186.272497,1017.45059 182.950746,1032.85535 C181.742622,1038.44292 176.75911,1061.39846 173.587194,1076.6522 L177.363172,1082.08817 L185.82004,1075.89654 L187.783242,1078.4638 L177.665203,1085.71314 L165.432357,1085.71314 L159.239541,1076.95365 C161.354938,1066.53299 166.790907,1041.46323 168.301062,1034.21449 C170.71731,1022.5857 172.680511,1014.27926 163.771186,1014.27926 C152.293418,1014.27926 142.778851,1028.02226 139.304904,1044.48354 C138.852448,1047.20241 137.643734,1052.03491 137.341703,1053.24303 L130.69702,1084.80704 L116.500383,1084.80704 L130.092368,1020.6225 L126.165965,1015.18535 L117.709097,1021.22656 L115.745895,1018.6593 L125.863934,1011.40997 Z" id="Fill-349" fill="#4FB374"></path>
                    <g id="Group-491" transform="translate(342.144510, 791.061704)" fill="#1A1918">
                        <path d="M31.6255379,23.806415 L25.650397,9.01751352 L20.1731353,23.806415 L31.6255379,23.806415 Z M21.9658545,35.9566745 L11.2602708,35.9566745 L11.2602708,35.3591014 L15.9895338,31.4250294 L27.5422202,0.452692582 L28.1899351,0.452692582 L42.03322,34.7113864 L45.0204955,34.7113864 L45.0204955,35.9566745 L32.4230886,35.9566745 L32.4230886,34.7113864 L36.058079,34.7113864 L32.1234172,25.0511132 L19.675256,25.0511132 L17.2843738,31.5748651 L21.9658545,35.3591014 L21.9658545,35.9566745 Z" id="Fill-351"></path>
                        <path d="M57.373977,17.4327347 L57.373977,34.7116224 L61.8053383,34.7116224 C67.9303149,34.7116224 69.9713839,31.0766319 69.9713839,25.9975557 C69.9713839,20.8187856 67.7309273,17.4327347 60.6101921,17.4327347 L57.373977,17.4327347 Z M57.373977,2.34534163 L57.373977,16.1880366 L61.1080714,16.1880366 C65.9889398,16.1880366 68.0300088,13.0007835 68.0300088,9.16699528 C68.0300088,4.5362463 65.1913891,2.34534163 60.6101921,2.34534163 L57.373977,2.34534163 Z M62.7509549,35.9563205 L48.4115605,35.9563205 L48.4115605,34.7116224 L51.8967153,34.7116224 L51.8967153,2.34534163 L48.4115605,2.34534163 L48.4115605,1.10005359 L59.1171443,1.10005359 C60.9086837,1.10005359 65.0427333,0.752010038 67.880763,1.64807471 C71.1169781,2.69397509 73.3580247,5.18337135 73.3580247,9.16699528 C73.3580247,13.3995588 70.1212196,15.889545 64.8928976,16.7856097 C71.5157534,17.6321224 75.797869,20.9680314 75.797869,26.1468015 C75.797869,33.6161701 69.7725862,35.9563205 62.7509549,35.9563205 L62.7509549,35.9563205 Z" id="Fill-353"></path>
                        <path d="M99.3551084,36.6040355 C89.3957536,36.6040355 82.0266688,28.4869519 82.0266688,18.577739 C82.0266688,8.5694222 87.8531538,0.452928543 99.2064525,0.452928543 C103.438426,0.452928543 108.318705,1.79732051 111.654614,3.63959172 L111.654614,13.1004773 L110.858243,13.1004773 L103.139935,1.99670817 C102.044482,1.74717864 100.799784,1.64807471 99.4553921,1.64807471 C92.4839028,1.64807471 88.5008688,8.17123677 88.5008688,18.577739 C88.5008688,28.6367876 92.6827006,35.3593374 99.6547798,35.3593374 C105.480085,35.3593374 109.364015,31.2760196 111.30657,26.0966596 L112.550678,26.6446807 C110.01114,33.2675366 105.380981,36.6040355 99.3551084,36.6040355" id="Fill-355"></path>
                        <path d="M127.395149,2.34522365 L127.395149,34.7115044 L131.528019,34.7115044 C141.039046,34.7115044 144.176157,28.6862216 144.176157,18.528659 C144.176157,8.37050646 141.039046,2.34522365 131.528019,2.34522365 L127.395149,2.34522365 Z M118.282897,1.10052551 L131.528019,1.10052551 C142.581646,1.10052551 150.649177,8.021873 150.649177,18.528659 C150.649177,28.9853031 143.080705,35.9567925 131.528019,35.9567925 L118.282897,35.9567925 L118.282897,34.7115044 L121.917887,34.7115044 L121.917887,2.34522365 L118.282897,2.34522365 L118.282897,1.10052551 Z" id="Fill-357"></path>
                        <polygon id="Fill-359" points="183.220568 24.6031398 183.220568 35.9564385 157.376269 35.9564385 157.376269 34.7117404 160.513971 34.7117404 160.513971 2.34545961 157.376269 2.34545961 157.376269 1.10017157 182.22422 1.10017157 182.22422 12.0552849 181.427849 12.0552849 175.601364 2.34545961 165.991232 2.34545961 165.991232 17.930732 172.266045 17.930732 176.099243 12.0552849 176.896204 12.0552849 176.896204 24.6031398 176.099243 24.6031398 172.266045 19.17602 165.991232 19.17602 165.991232 34.7117404 176.54698 34.7117404 182.423017 24.6031398"></polygon>
                        <polygon id="Fill-361" points="214.296551 1.10028955 214.296551 12.0548129 213.499 12.0548129 207.673695 2.34498769 199.059322 2.34498769 199.059322 17.9308499 205.334135 17.9308499 209.167333 12.0548129 209.964294 12.0548129 209.964294 24.6032578 209.167333 24.6032578 205.334135 19.176138 199.059322 19.176138 199.059322 34.7118584 202.196433 34.7118584 202.196433 35.9565565 190.444359 35.9565565 190.444359 34.7118584 193.582061 34.7118584 193.582061 2.34498769 190.444359 2.34498769 190.444359 1.10028955"></polygon>
                        <path d="M250.451256,22.2130245 L250.451256,36.6043304 L249.654886,36.6043304 L246.019895,32.6702585 C243.530499,35.3089005 240.292514,36.6043304 236.508868,36.6043304 C226.549513,36.6043304 219.180428,28.4872469 219.180428,18.578034 C219.180428,8.56912724 225.005733,0.452633591 236.359032,0.452633591 C240.592185,0.452633591 245.471874,1.79761546 248.808373,3.63988668 L248.808373,13.1007723 L248.010822,13.1007723 L240.292514,1.99641322 C239.198241,1.74747359 237.952953,1.64836966 236.607971,1.64836966 C229.637662,1.64836966 225.653448,8.17094182 225.653448,18.578034 C225.653448,28.6370826 229.83705,35.3590424 236.807359,35.3590424 C240.242962,35.3590424 243.03144,33.9149566 245.12383,31.6739101 L245.12383,22.2130245 L241.73778,22.2130245 L241.73778,20.9683263 L252.941243,20.9683263 L252.941243,22.2130245 L250.451256,22.2130245 Z" id="Fill-363"></path>
                        <polygon id="Fill-365" points="271.122094 35.9564975 258.672753 35.9564975 258.672753 34.7117994 262.158498 34.7117994 262.158498 2.3449287 258.672753 2.3449287 258.672753 1.10023056 271.122094 1.10023056 271.122094 2.3449287 267.636939 2.3449287 267.636939 17.9803429 284.21738 17.9803429 284.21738 2.3449287 280.732225 2.3449287 280.732225 1.10023056 293.181566 1.10023056 293.181566 2.3449287 289.694642 2.3449287 289.694642 34.7117994 293.181566 34.7117994 293.181566 35.9564975 280.732225 35.9564975 280.732225 34.7117994 284.21738 34.7117994 284.21738 19.225631 267.636939 19.225631 267.636939 34.7117994 271.122094 34.7117994"></polygon>
                        <polygon id="Fill-367" points="312.506419 1.10028955 312.506419 2.34498769 309.021264 2.34498769 309.021264 34.7118584 312.506419 34.7118584 312.506419 35.9565565 300.058258 35.9565565 300.058258 34.7118584 303.544003 34.7118584 303.544003 2.34498769 300.058258 2.34498769 300.058258 1.10028955"></polygon>
                        <path d="M321.174119,1.10028955 L332.925014,1.10028955 L332.925014,2.34498769 L329.787902,2.34498769 L329.787902,35.4085354 C329.688798,43.1763956 326.750485,47.1600195 320.376569,47.1600195 C318.384462,47.1600195 315.547022,46.5128945 314.153078,45.5171359 L314.153078,37.7988277 L314.948859,37.7988277 L320.029115,46.0651571 C320.824896,46.0150152 321.522163,45.8657694 322.070774,45.4174421 C324.609722,43.4259251 324.310051,37.7492758 324.310051,31.4249115 L324.310051,2.34498769 L321.174119,2.34498769 L321.174119,1.10028955 Z" id="Fill-369"></path>
                        <polygon id="Fill-371" points="340.147802 1.10028955 352.597143 1.10028955 352.597143 2.34498769 349.110219 2.34498769 349.110219 18.1296477 361.758947 5.58179273 357.128198 1.69786264 357.128198 1.10028955 367.983028 1.10028955 367.983028 1.69786264 363.152891 6.12922395 354.986256 14.2958595 368.829541 34.7118584 372.016204 34.7118584 372.016204 35.9565565 363.502115 35.9565565 351.351265 17.9308499 349.110219 20.1217546 349.110219 34.7118584 353.094433 34.7118584 353.094433 35.9565565 340.147802 35.9565565 340.147802 34.7118584 343.632957 34.7118584 343.632957 2.34498769 340.147802 2.34498769"></polygon>
                        <polygon id="Fill-377" points="0.327219931 65.4275278 9.88779938 65.4275278 29.3074499 91.61928 29.3074499 69.8093372 24.7262529 66.0251009 24.7262529 65.4275278 35.4324265 65.4275278 35.4324265 66.0251009 30.5527379 69.9591729 30.5527379 100.93151 29.7557772 100.93151 5.95431732 69.3114579 5.95431732 95.8022916 10.734902 99.6862217 10.734902 100.283795 0.0287283408 100.283795 0.0287283408 99.6862217 4.70902928 95.8022916 4.70902928 67.6679845 3.9622104 66.672226 0.327219931 66.672226"></polygon>
                        <path d="M45.8950287,82.8556613 C45.8950287,93.0138139 48.8823042,99.6862217 56.849552,99.6862217 C64.8663519,99.6862217 67.8553971,93.0138139 67.8553971,82.8556613 C67.8553971,72.6975088 64.8663519,66.0251009 56.849552,66.0251009 C48.8823042,66.0251009 45.8950287,72.6975088 45.8950287,82.8556613 M74.2287235,82.8556613 C74.2287235,93.3128953 66.4101315,100.93151 56.849552,100.93151 C47.3892563,100.93151 39.5211124,93.3128953 39.5211124,82.8556613 C39.5211124,72.3488753 47.3892563,64.7798129 56.849552,64.7798129 C66.4101315,64.7798129 74.2287235,72.3488753 74.2287235,82.8556613" id="Fill-379"></path>
                        <path d="M88.6734748,66.6724619 L88.6734748,83.3036347 L91.5616464,83.3036347 C96.989946,83.3036347 100.226161,80.4154631 100.226161,74.8385076 C100.226161,69.8591251 96.989946,66.6724619 92.408749,66.6724619 L88.6734748,66.6724619 Z M79.7110583,65.4277638 L90.9145213,65.4277638 C92.7072406,65.4277638 96.8401103,65.0791304 99.6787299,65.975195 C103.014639,67.0210954 105.703423,70.2573105 105.703423,74.8385076 C105.703423,81.8099969 99.2799546,84.6486165 92.2589133,84.6486165 L88.6734748,84.6486165 L88.6734748,99.0387427 L92.6576886,99.0387427 L92.6576886,100.284031 L79.7110583,100.284031 L79.7110583,99.0387427 L83.1962131,99.0387427 L83.1962131,66.6724619 L79.7110583,66.6724619 L79.7110583,65.4277638 Z" id="Fill-381"></path>
                        <path d="M116.313678,82.8556613 C116.313678,93.0138139 119.300954,99.6862217 127.268201,99.6862217 C135.285001,99.6862217 138.272867,93.0138139 138.272867,82.8556613 C138.272867,72.6975088 135.285001,66.0251009 127.268201,66.0251009 C119.300954,66.0251009 116.313678,72.6975088 116.313678,82.8556613 L116.313678,82.8556613 Z M142.50543,112.731956 L142.406326,112.782098 L123.036228,105.611811 L119.450789,107.553776 L118.803664,106.508465 L129.110473,100.831816 C128.514079,100.881368 127.915916,100.93151 127.268201,100.93151 C117.807906,100.93151 109.939762,93.3128953 109.939762,82.8556613 C109.939762,72.3488753 117.807906,64.7798129 127.268201,64.7798129 C136.828781,64.7798129 144.646193,72.3488753 144.646193,82.8556613 C144.646193,90.2748881 140.712711,96.3001709 134.98651,99.1387905 L124.031986,105.06379 L132.695911,105.06379 L145.044968,109.595435 L148.381467,107.503634 L149.029182,108.45043 L142.50543,112.731956 Z" id="Fill-383"></path>
                        <path d="M159.241901,66.6724619 L159.241901,81.8099969 L163.125831,81.8099969 C168.354153,81.8099969 170.296708,78.6728857 170.296708,74.3406283 C170.296708,69.2120001 166.561434,66.6724619 162.478116,66.6724619 L159.241901,66.6724619 Z M150.279484,65.4277638 L160.985068,65.4277638 C162.777787,65.4277638 166.910657,65.0791304 169.748687,65.975195 C173.085186,67.0210954 175.77397,69.6597375 175.77397,74.2409345 C175.77397,80.1665235 169.848381,82.8057554 165.068386,83.054695 L170.844139,86.4407459 L176.570341,99.0387427 L179.608348,99.0387427 L179.608348,100.284031 L171.691242,100.284031 L163.723994,83.054695 L159.241901,83.054695 L159.241901,99.0387427 L162.727056,99.0387427 L162.727056,100.284031 L150.279484,100.284031 L150.279484,99.0387427 L153.764639,99.0387427 L153.764639,66.6724619 L150.279484,66.6724619 L150.279484,65.4277638 Z" id="Fill-385"></path>
                        <path d="M197.289609,100.931274 C192.061287,100.931274 187.430538,99.3874942 183.795548,97.0473437 L183.795548,87.63601 L184.64265,87.63601 L192.310227,99.2382484 C193.754902,99.53674 195.297502,99.7361276 196.841282,99.7361276 C201.72215,99.7361276 205.107021,97.5452229 205.107021,93.7108448 C205.107021,90.6232856 202.966259,88.5816267 199.530656,86.7393555 C196.442507,85.0964719 194.102946,83.8517738 191.115081,82.2584422 C187.130867,80.1170895 184.392531,77.4778575 184.392531,73.4440917 C184.392531,67.6677485 189.172526,64.7801668 195.796561,64.7801668 C199.38082,64.7801668 203.912465,65.975313 207.099128,67.5686446 L207.099128,76.9793883 L206.252026,76.9793883 L199.181432,66.3734984 C198.08716,66.1245588 196.941566,65.975313 195.796561,65.975313 C191.662512,65.975313 188.475849,67.5686446 188.475849,71.0048373 C188.475849,73.7927252 190.418404,75.4857506 193.804454,77.228328 C196.641894,78.7231455 198.983225,79.9678437 202.020642,81.5611753 C206.302757,83.8016319 209.589114,86.4408639 209.589114,91.1217547 C209.589114,96.9476499 204.858082,100.931274 197.289609,100.931274" id="Fill-387"></path>
                        <polygon id="Fill-389" points="213.577635 65.4275278 242.656968 65.4275278 242.656968 76.3820512 241.860598 76.3820512 236.034113 66.672226 230.855342 66.672226 230.855342 99.0892385 234.490333 99.0892385 234.490333 100.283795 221.74309 100.283795 221.74309 99.0892385 225.378081 99.0892385 225.378081 66.672226 220.20049 66.672226 214.374005 76.3820512 213.577635 76.3820512"></polygon>
                        <path d="M255.260333,66.6724619 L255.260333,88.1839132 C255.260333,95.6031399 258.546101,99.6864577 264.571973,99.6864577 C270.845606,99.6864577 273.883613,94.8061792 273.883613,87.685444 L273.883613,69.8591251 L269.252274,66.024747 L269.252274,65.4277638 L279.957858,65.4277638 L279.957858,66.024747 L275.177863,69.9086771 L275.177863,87.4365044 C275.177863,95.4037522 272.290281,100.931156 263.626357,100.931156 C255.309885,100.931156 249.783072,96.7976962 249.783072,87.8352797 L249.783072,66.6724619 L246.645371,66.6724619 L246.645371,65.4277638 L258.397445,65.4277638 L258.397445,66.6724619 L255.260333,66.6724619 Z" id="Fill-391"></path>
                        <polygon id="Fill-393" points="310.089227 69.8593021 298.686377 100.931333 297.888826 100.931333 284.145825 66.6726389 280.90961 66.6726389 280.90961 65.4273509 293.209115 65.4273509 293.209115 66.6726389 290.270801 66.6726389 300.32926 92.5157576 308.695283 69.8091602 304.114086 66.024924 304.114086 65.4273509 314.82026 65.4273509 314.82026 66.024924"></polygon>
                        <polygon id="Fill-395" points="356.104065 65.4275278 366.809649 65.4275278 366.809649 66.0251009 362.029654 69.8594791 350.826191 100.93151 350.028641 100.93151 340.120018 74.6394738 330.60899 100.93151 329.812029 100.93151 316.864809 66.672226 313.280551 66.672226 313.280551 65.4275278 325.828995 65.4275278 325.828995 66.672226 322.790398 66.672226 332.102038 92.7648742 339.372609 72.6975088 337.08201 66.672226 333.69596 66.672226 333.69596 65.4275278 346.243815 65.4275278 346.243815 66.672226 343.007599 66.672226 352.319239 92.7648742 360.63571 69.8093372 356.104065 66.0251009"></polygon>
                        <path d="M30.181924,160.926963 C30.3317597,160.777127 30.5311474,160.578329 30.7305351,160.378941 L30.7305351,152.262448 L26.8961569,152.262448 C24.4061708,152.262448 21.4684472,153.158512 21.4684472,158.088343 C21.4684472,161.773475 23.1113308,163.765582 25.3517874,163.765582 C27.2447904,163.765582 28.6888762,162.4206 30.181924,160.926963 L30.181924,160.926963 Z M30.829639,161.773475 C29.1867554,163.366807 27.0459926,165.25922 24.0073954,165.25922 C20.372405,165.25922 16.339819,163.217561 16.339819,158.287141 C16.339819,155.94758 17.1361898,154.154861 19.028013,152.760327 C20.970568,151.266689 23.4104123,151.216547 26.9952609,151.216547 L30.7305351,151.216547 L30.7305351,147.232924 C30.7305351,145.490346 30.5806994,143.847463 29.8338805,142.800972 C29.0369197,141.70611 27.6423859,141.107947 25.9995024,141.107947 C24.7553941,141.107947 23.3107184,141.45717 22.2146762,142.154437 L22.1155723,149.47397 L21.617693,149.47397 L17.3851294,145.988225 C18.1325382,144.196096 19.3276844,142.701278 20.921016,141.655968 C22.4647956,140.660799 24.3070668,140.062636 26.4478296,140.062636 C28.6888762,140.062636 30.4320435,140.510964 32.174031,141.556274 C34.4150775,142.900666 35.7099175,145.191265 35.7099175,148.42866 L35.7099175,163.566195 L39.1950723,163.566195 L39.1950723,164.611505 L33.7178106,164.611505 L30.829639,161.773475 Z" id="Fill-403"></path>
                        <path d="M49.9045494,145.440794 L49.9045494,159.980166 C51.3492251,162.320907 53.4404359,163.814544 55.9304221,163.814544 C60.0137399,163.814544 62.2052344,159.632123 62.2052344,152.660633 C62.2052344,145.689734 60.0137399,141.506722 55.9304221,141.506722 C53.2906002,141.506722 51.3492251,143.149606 49.9045494,145.440794 M56.7769348,165.25922 C53.7896593,165.25922 51.2489414,163.615747 49.9045494,161.673781 L46.9674157,164.611505 L44.9263468,164.611505 L44.9263468,128.809032 L41.4394223,128.809032 L41.4394223,127.763131 L49.9045494,127.763131 L49.9045494,143.597933 C51.3492251,141.755662 53.6398236,140.062636 56.8760387,140.062636 C63.3997907,140.062636 67.9809877,146.038367 67.9809877,152.660633 C67.9809877,159.034549 63.5991784,165.25922 56.7769348,165.25922" id="Fill-405"></path>
                        <path d="M89.9431259,141.855297 L90.5412889,142.154378 L89.9431259,141.855297 Z M86.5075231,165.259161 C79.2375421,165.259161 73.7101386,159.731757 73.7101386,152.660574 C73.7101386,145.539839 78.2417836,140.062577 86.0591958,140.062577 C88.9969193,140.062577 92.7316036,141.107888 94.9225083,142.353176 L94.9225083,149.97179 L94.3249352,149.97179 L87.8023631,141.257724 C87.4035877,141.207582 87.0054023,141.15803 86.5075231,141.15803 C82.1752657,141.15803 79.4858918,144.54467 79.4858918,152.660574 C79.4858918,160.677374 82.4242053,164.213261 86.7564627,164.213261 C90.3419012,164.213261 92.9811332,161.673722 94.6741586,157.98918 L95.6693272,158.386776 C93.8766079,162.669481 90.8893324,165.259161 86.5075231,165.259161 L86.5075231,165.259161 Z" id="Fill-407"></path>
                        <path d="M112.254664,163.765287 C114.944038,163.765287 116.438266,162.221508 118.379641,160.229401 C118.429193,160.179849 118.429193,160.179849 118.479925,160.130297 L118.479925,145.19156 C116.53737,143.200043 114.944038,141.507017 112.254664,141.507017 C108.171347,141.507017 105.880748,145.689439 105.880748,152.660928 C105.880748,159.631828 108.171347,163.765287 112.254664,163.765287 L112.254664,163.765287 Z M126.64538,164.6118 L121.416468,164.6118 L118.479925,161.673487 C116.835861,163.31696 114.446159,165.258925 111.408742,165.258925 C104.486804,165.258925 100.104995,159.133948 100.104995,152.660928 C100.104995,146.137766 104.486804,140.062341 111.408742,140.062341 C114.446159,140.062341 116.835861,142.004306 118.479925,143.597638 L118.479925,128.808737 L115.342224,128.808737 L115.342224,127.763426 L123.458127,127.763426 L123.458127,163.515758 L126.64538,163.515758 L126.64538,164.6118 Z" id="Fill-409"></path>
                        <path d="M137.505342,150.121449 L149.007297,150.121449 C148.908193,146.336623 148.111232,141.108301 143.679871,141.108301 C139.895045,141.108301 137.902938,143.896779 137.505342,150.121449 M154.285171,151.16676 L137.45461,151.16676 C137.405058,151.664639 137.405058,152.163108 137.405058,152.710539 C137.405058,160.677787 139.596553,164.213674 144.276854,164.213674 C148.06168,164.213674 151.248343,161.573852 153.090614,157.889309 L154.036231,158.387188 C151.398179,163.366571 147.413965,165.258984 144.276854,165.258984 C136.508994,165.258984 131.629305,159.781722 131.629305,152.710539 C131.629305,145.539662 136.65824,140.0624 143.679871,140.0624 C147.81274,140.0624 150.551076,142.104059 152.094856,144.245412 C153.48939,146.187377 154.285171,148.528117 154.285171,151.16676" id="Fill-411"></path>
                        <path d="M171.369508,164.611564 L158.422878,164.611564 L158.422878,163.566254 L161.909212,163.566254 L161.909212,141.755721 L158.422878,141.755721 L158.422878,140.70982 L161.909212,140.70982 L161.909212,135.033171 C161.909212,129.904543 165.493471,127.116065 170.472853,127.116065 C172.315715,127.116065 173.76039,127.365005 175.203886,127.76319 L175.203886,134.336494 L174.605723,134.336494 L170.025116,128.111824 C167.236638,128.510599 166.887415,130.552258 166.887415,133.489981 L166.887415,140.70982 L171.369508,140.70982 L171.369508,141.755721 L166.887415,141.755721 L166.887415,163.566254 L171.369508,163.566254 L171.369508,164.611564 Z" id="Fill-413"></path>
                        <path d="M181.927852,148.627634 C181.927852,153.009444 182.67467,156.246249 186.609332,156.246249 C190.392979,156.246249 191.239491,153.009444 191.239491,148.627634 C191.239491,144.344929 190.392979,141.108124 186.609332,141.108124 C182.67467,141.108124 181.927852,144.344929 181.927852,148.627634 M187.205726,176.661658 C192.783271,176.661658 195.87024,173.62424 195.87024,169.74031 C195.87024,167.15063 194.128253,165.956074 191.438879,165.956074 L182.526015,165.956074 C181.8783,165.956074 181.230585,165.905932 180.58346,165.707134 C179.388313,167.101078 178.990128,168.644858 178.990128,170.437577 C178.990128,174.321507 182.824506,176.661658 187.205726,176.661658 M186.80695,177.707558 C180.932683,177.707558 175.703771,175.616347 175.703771,170.935456 C175.703771,168.346366 177.645146,166.404401 179.538149,165.358501 C179.28803,165.258807 178.990128,165.108971 178.741188,164.960315 C177.595594,164.213497 176.898917,162.968798 176.898917,161.125937 C176.898917,158.985175 178.193757,157.391253 179.985297,155.598534 C177.694698,154.005202 176.600426,151.515806 176.600426,148.627634 C176.600426,143.84705 180.683743,140.062223 186.609332,140.062223 C188.650401,140.062223 190.542814,140.560693 192.086594,141.357653 L197.463572,135.929944 L198.310085,135.929944 L198.310085,141.755839 L192.732539,141.755839 C195.123422,143.299618 196.617649,145.789015 196.617649,148.627634 C196.617649,153.506733 192.385086,157.292149 186.609332,157.292149 C184.368286,157.292149 182.575567,156.893374 181.130301,156.196107 L181.080749,156.246249 C180.484356,156.843822 179.787089,157.590051 179.089822,158.387012 L179.089822,161.225041 L190.791164,161.225041 C193.480538,161.225041 195.222525,161.673369 196.617649,162.818963 C197.961451,163.914415 198.758412,165.85638 198.758412,167.947591 C198.758412,173.674382 193.679926,177.707558 186.80695,177.707558" id="Fill-415"></path>
                        <path d="M203.492807,127.763249 L211.608711,127.763249 L211.608711,143.548499 C211.857651,143.249418 212.10777,143.000478 212.35612,142.751538 C213.849757,141.307453 216.090214,140.062754 219.178363,140.062754 C223.459889,140.062754 227.045327,142.502599 227.045327,147.481981 L227.045327,163.565723 L230.182439,163.565723 L230.182439,164.611623 L218.928244,164.611623 L218.928244,163.565723 L222.065355,163.565723 L222.065355,147.930308 C222.065355,146.237283 221.916699,144.59381 221.220022,143.548499 C220.323368,142.203517 218.82914,141.805922 217.385644,141.805922 C215.642477,141.805922 213.999593,142.602293 212.405672,144.245176 C212.206284,144.444564 211.908382,144.743055 211.608711,145.092279 L211.608711,163.565723 L214.745822,163.565723 L214.745822,164.611623 L203.492807,164.611623 L203.492807,163.565723 L206.628739,163.565723 L206.628739,128.80856 L203.492807,128.80856 L203.492807,127.763249 Z" id="Fill-417"></path>
                        <path d="M240.294992,129.107818 L243.980714,132.842502 L240.294992,136.577187 L236.560897,132.842502 L240.294992,129.107818 Z M243.033917,140.710056 L243.033917,163.5659 L246.520252,163.5659 L246.520252,164.6118 L234.56879,164.6118 L234.56879,163.5659 L238.055125,163.5659 L238.055125,141.755367 L234.56879,141.755367 L234.56879,140.710056 L243.033917,140.710056 Z" id="Fill-419"></path>
                        <path d="M256.928701,129.107818 L260.613243,132.842502 L256.928701,136.577187 L253.194606,132.842502 L256.928701,129.107818 Z M251.550543,140.710056 L259.717179,140.710056 L259.717179,169.78998 C259.717179,174.919198 256.13233,177.707676 251.152948,177.707676 C249.310676,177.707676 247.866001,177.458736 246.421915,177.059961 L246.421915,170.487247 L247.020078,170.487247 L251.550543,176.611634 C254.140223,176.26359 254.687654,174.569975 254.687654,171.33376 L254.687654,141.755367 L251.550543,141.755367 L251.550543,140.710056 Z" id="Fill-421"></path>
                        <polygon id="Fill-423" points="292.980822 164.611564 285.313245 164.611564 277.097058 152.461305 275.452995 154.054636 275.452995 163.566254 278.939329 163.566254 278.939329 164.611564 266.987867 164.611564 266.987867 163.566254 270.474792 163.566254 270.474792 128.809091 266.987867 128.809091 266.987867 127.76319 275.452995 127.76319 275.452995 152.61114 283.968853 144.394953 279.885536 141.307394 279.885536 140.70982 289.545219 140.70982 289.545219 141.307394 285.562185 144.345401 280.333863 149.374335 289.894442 163.566254 292.980822 163.566254"></polygon>
                        <polygon id="Fill-425" points="293.83111 127.763249 302.296237 127.763249 302.296237 163.565723 305.782572 163.565723 305.782572 164.611623 293.83111 164.611623 293.83111 163.565723 297.316265 163.565723 297.316265 128.80856 293.83111 128.80856"></polygon>
                        <path d="M310.664148,140.710056 L315.543247,140.710056 L318.7305,144.096107 C318.979439,143.797026 319.279111,143.448982 319.52746,143.200043 C321.021098,141.556569 322.764266,140.062341 325.850645,140.062341 C329.037308,140.062341 331.527294,141.407323 332.623337,144.145659 C332.922418,143.797026 333.469849,143.249595 333.918177,142.801267 C335.56106,141.258078 337.353779,140.062341 340.242541,140.062341 C344.524656,140.062341 347.562074,142.502776 347.562074,147.481568 L347.562074,163.5659 L350.699185,163.5659 L350.699185,164.6118 L339.44499,164.6118 L339.44499,163.5659 L342.582101,163.5659 L342.582101,147.929895 C342.582101,146.23746 342.482997,144.593986 341.835872,143.499124 C341.087874,142.253836 339.993601,141.805509 338.698171,141.805509 C337.004556,141.805509 335.610612,142.701573 334.01728,144.245353 C333.768341,144.494293 333.320014,144.992762 332.97197,145.390947 C333.120626,146.038072 333.171358,146.735339 333.171358,147.481568 L333.171358,163.5659 L336.307879,163.5659 L336.307879,164.6118 L325.054864,164.6118 L325.054864,163.5659 L328.191975,163.5659 L328.191975,147.929895 C328.191975,146.23746 328.091692,144.593986 327.394425,143.499124 C326.598644,142.253836 325.601705,141.805509 324.207761,141.805509 C322.515326,141.805509 320.921994,143.100349 319.577012,144.593986 C319.377625,144.793374 319.079723,145.241701 318.780052,145.639297 L318.780052,163.5659 L321.917163,163.5659 L321.917163,164.6118 L310.664148,164.6118 L310.664148,163.5659 L313.801259,163.5659 L313.801259,141.755367 L310.664148,141.755367 L310.664148,140.710056 Z" id="Fill-427"></path>
                        <path d="M366.639344,164.611564 L354.689062,164.611564 L354.689062,163.566254 L358.174217,163.566254 L358.174217,141.755721 L354.689062,141.755721 L354.689062,140.70982 L359.917384,140.70982 L363.104637,144.096461 C363.302845,143.847522 363.502233,143.648134 363.751172,143.399194 C365.494339,141.656027 367.685244,140.062695 370.722662,140.062695 C375.005367,140.062695 378.590805,142.403436 378.590805,147.481922 L378.590805,163.566254 L382.07596,163.566254 L382.07596,164.611564 L370.124499,164.611564 L370.124499,163.566254 L373.610833,163.566254 L373.610833,147.930249 C373.610833,146.237814 373.460997,144.593751 372.76432,143.54844 C371.917218,142.25419 370.623558,141.855415 369.279166,141.855415 C367.436894,141.855415 365.543891,142.950867 363.900418,144.793138 C363.652068,145.09222 363.403129,145.440853 363.154189,145.739345 L363.154189,163.566254 L366.639344,163.566254 L366.639344,164.611564 Z" id="Fill-429"></path>
                        <path d="M42.4085761,228.142019 C45.0979499,228.142019 46.6912815,226.448993 48.6326567,224.457476 L48.6326567,209.518739 L48.5335527,209.419635 C46.5909978,207.427528 45.0979499,205.883748 42.4085761,205.883748 C38.3252583,205.883748 36.0346598,210.016618 36.0346598,216.988107 C36.0346598,223.959007 38.3252583,228.142019 42.4085761,228.142019 M48.6326567,207.974959 L51.5703802,205.037236 L57.3968653,205.037236 L57.3968653,206.132688 L53.7123228,206.132688 L53.7123228,241.088649 L57.3473133,241.088649 L57.3473133,242.134549 L44.998846,242.134549 L44.998846,241.088649 L48.6326567,241.088649 L48.6326567,226.050808 C46.9897731,227.644139 44.6000707,229.586104 41.5614735,229.586104 C34.6407159,229.586104 30.2589066,223.51068 30.2589066,216.988107 C30.2589066,210.514497 34.6407159,204.389521 41.5614735,204.389521 C44.6000707,204.389521 46.9897731,206.331486 48.6326567,207.974959" id="Fill-435"></path>
                        <path d="M74.0813654,228.938743 L61.6332042,228.938743 L61.6332042,227.893433 L65.1189489,227.893433 L65.1189489,206.0829 L61.6332042,206.0829 L61.6332042,205.037 L66.8621162,205.037 L69.9484956,209.269563 C71.2928876,206.780167 73.5339341,204.78865 76.6716353,204.78865 C77.4178642,204.78865 78.0160272,204.838202 78.7628461,205.037 L78.7628461,210.962589 L78.2649668,210.962589 L73.4348302,206.929413 C71.9901545,207.726374 70.8451502,209.568645 70.0983313,211.560162 L70.0983313,227.893433 L74.0813654,227.893433 L74.0813654,228.938743 Z" id="Fill-437"></path>
                        <path d="M92.8569583,229.586281 C89.3210717,229.586281 85.7368131,228.191747 83.3459308,226.349476 L83.3459308,219.377987 L83.9440938,219.377987 L90.2171364,228.391135 C90.9144033,228.540971 91.711954,228.590523 92.458183,228.590523 C95.5958841,228.590523 98.1843843,227.245541 98.1843843,224.656451 C98.1843843,222.415994 96.2430091,221.170706 94.5493938,220.274641 C92.359079,219.129047 90.3669721,218.083737 88.1754775,216.938732 C85.2389338,215.443915 83.5948704,213.751479 83.5948704,210.763614 C83.5948704,206.630744 87.130757,204.389698 91.5621183,204.389698 C94.6001256,204.389698 97.8363407,205.435598 100.126939,206.730438 L100.126939,213.751479 L99.5293661,213.751479 L93.7536129,205.634396 C93.056346,205.48574 92.359079,205.435598 91.4630144,205.435598 C89.3210717,205.435598 87.130757,206.431357 87.130757,208.721955 C87.130757,210.564816 88.1754775,211.510433 90.0684805,212.506781 C92.408631,213.701338 93.9524106,214.498298 96.4919488,215.793138 C99.9275516,217.535716 101.919658,219.178599 101.919658,222.614792 C101.919658,226.996601 97.8363407,229.586281 92.8569583,229.586281" id="Fill-439"></path>
                        <path d="M115.565915,229.586281 C112.031209,229.586281 109.74061,227.893256 109.74061,223.809938 L109.74061,206.082723 L106.753335,206.082723 L106.753335,205.037413 L109.74061,205.037413 L109.74061,202.946202 L114.222703,198.663496 L114.819096,198.663496 L114.819096,205.037413 L119.799069,205.037413 L119.799069,206.082723 L114.819096,206.082723 L114.819096,225.104188 C114.819096,226.947049 115.666199,227.843114 117.060143,227.843114 C118.852862,227.843114 119.848621,225.951291 120.495746,223.959184 L121.441952,224.258265 C120.545298,227.544622 118.603923,229.586281 115.565915,229.586281" id="Fill-441"></path>
                        <path d="M136.034003,229.586281 C131.901133,229.586281 128.415978,227.245541 128.415978,222.167055 L128.415978,206.082723 L124.930823,206.082723 L124.930823,205.037413 L133.395361,205.037413 L133.395361,221.718727 C133.395361,223.411163 133.544017,225.054636 134.241284,226.100537 C135.087796,227.345235 136.23339,227.793562 137.478678,227.793562 C139.220666,227.793562 141.013385,226.648558 142.607307,224.855249 C142.855656,224.556757 143.104596,224.208124 143.353536,223.909632 L143.353536,206.082723 L139.868381,206.082723 L139.868381,205.037413 L148.333508,205.037413 L148.333508,227.893256 L151.819843,227.893256 L151.819843,228.938566 L146.590931,228.938566 L143.404267,225.552515 C143.20488,225.801455 143.005492,226.000843 142.756552,226.249782 C141.062937,227.942808 138.971726,229.586281 136.034003,229.586281" id="Fill-443"></path>
                        <polygon id="Fill-445" points="174.380085 208.821531 166.163897 229.586163 165.566324 229.586163 156.40393 206.082605 152.818492 206.082605 152.818492 205.037295 165.218281 205.037295 165.218281 206.082605 161.533738 206.082605 167.857513 222.365734 173.23508 208.771979 169.252046 205.634868 169.252046 205.037295 178.563686 205.037295 178.563686 205.634868"></polygon>
                        <polygon id="Fill-447" points="196.343639 211.709997 189.670051 229.586458 189.073658 229.586458 179.910674 206.0829 177.023092 206.0829 177.023092 205.037 188.226555 205.037 188.226555 206.0829 185.039892 206.0829 191.364256 222.315887 195.795028 210.265912 194.152144 206.0829 191.263972 206.0829 191.263972 205.037 202.966495 205.037 202.966495 206.0829 199.280772 206.0829 205.604547 222.315887 210.534967 208.821826 206.501201 205.634573 206.501201 205.037 215.812841 205.037 215.812841 205.634573 211.679971 208.772274 203.912111 229.586458 203.313948 229.586458"></polygon>
                        <polygon id="Fill-449" points="225.727127 228.938743 216.365935 228.938743 216.365935 228.34117 221.046826 224.207711 226.673334 217.336505 219.104271 206.0829 216.365935 206.0829 216.365935 205.037 227.669682 205.037 227.669682 206.0829 224.333183 206.0829 230.110116 214.597579 234.989215 208.572886 231.204389 205.634573 231.204389 205.037 240.516029 205.037 240.516029 205.634573 235.88587 209.169869 230.70651 215.494234 239.072533 227.893433 241.861011 227.893433 241.861011 228.938743 230.110116 228.938743 230.110116 227.893433 233.745107 227.893433 227.270907 218.282712 221.843197 224.905567 225.727127 228.34117"></polygon>
                        <path d="M246.942918,242.034737 C245.100647,242.034737 243.35748,241.437164 242.211886,240.790039 L242.211886,234.565369 L242.810049,234.565369 L247.590633,241.088531 C249.233517,240.840181 250.328969,239.295812 251.176072,236.955661 L253.267283,231.129766 L243.756255,206.083018 L240.618554,206.083018 L240.618554,205.037118 L252.121688,205.037118 L252.121688,206.083018 L249.134413,206.083018 L255.855783,223.958889 L261.383776,208.72166 L257.449704,205.634691 L257.449704,205.037118 L266.761344,205.037118 L266.761344,205.634691 L262.578922,208.821354 C259.839997,216.290723 252.868507,235.511575 252.271524,237.155049 C251.225624,239.943527 249.880642,242.034737 246.942918,242.034737" id="Fill-451"></path>
                        <polygon id="Fill-453" points="283.046951 206.082841 274.48154 206.082841 270.199425 212.755839 269.602441 212.755839 269.602441 205.037531 288.873436 205.037531 288.873436 206.082841 273.137148 227.893374 283.295891 227.893374 287.628148 221.220376 288.225721 221.220376 288.225721 228.938684 267.361395 228.938684 267.361395 227.893374"></polygon>
                        <path d="M315.119518,217.336564 L318.106794,206.282347 L307.948641,206.282347 L304.960776,217.336564 L315.119518,217.336564 Z M314.770295,218.581262 L304.612142,218.581262 L301.823665,228.938802 L300.479273,228.938802 L303.267161,218.581262 L295.200809,218.581262 L295.200809,217.336564 L303.616384,217.336564 L306.603659,206.282347 L298.537898,206.282347 L298.537898,205.037059 L306.952883,205.037059 L309.891196,194.082535 L311.234408,194.082535 L308.297865,205.037059 L318.454837,205.037059 L321.393151,194.082535 L322.737543,194.082535 L319.799819,205.037059 L327.866761,205.037059 L327.866761,206.282347 L319.451776,206.282347 L316.462731,217.336564 L324.530262,217.336564 L324.530262,218.581262 L316.114687,218.581262 L313.326799,228.938802 L311.982407,228.938802 L314.770295,218.581262 Z" id="Fill-455"></path>
                        <path d="M354.859721,213.801149 C355.805928,209.518444 355.159393,205.336022 352.221079,205.336022 C348.436253,205.336022 346.096692,211.75949 346.096692,217.087506 C346.096692,220.523699 346.942025,222.316418 348.835028,222.316418 C351.872446,222.316418 353.963067,217.834325 354.859721,213.801149 M351.424118,233.321084 C342.41156,233.321084 331.854632,226.947167 331.854632,214.100231 C331.854632,201.053907 342.013375,193.435292 352.021691,193.435292 C362.777417,193.435292 370.495725,200.954213 370.495725,210.415099 C370.495725,217.236752 367.060123,223.013095 359.191979,223.013095 L356.701992,223.013095 L353.764269,219.975678 C351.97214,222.316418 350.42836,223.262035 348.635641,223.262035 C344.900366,223.262035 342.162031,220.374453 342.162031,215.743114 C342.162031,209.618138 346.394594,204.389816 351.573954,204.389816 C354.012619,204.389816 355.457884,205.78435 356.054277,207.975254 L359.640306,205.037531 L360.686206,205.037531 L357.549095,219.577493 L359.74,221.917643 C365.665589,221.917643 369.250437,217.037364 369.250437,210.365547 C369.250437,201.452092 361.979866,194.580297 352.021691,194.580297 C342.361418,194.580297 333.149472,202.597686 333.149472,214.100231 C333.149472,225.004612 341.36566,232.174899 351.424118,232.174899 C357.349707,232.174899 362.578029,230.13383 366.959839,224.258383 L367.956187,225.004612 C363.474684,230.831097 357.996832,233.321084 351.424118,233.321084" id="Fill-457"></path>
                        <polygon id="Fill-467" points="69.4520321 263.937236 79.7098785 257.762708 80.4065555 257.762708 80.4065555 292.170647 85.0384843 292.170647 85.0384843 293.266689 70.7964241 293.266689 70.7964241 292.170647 75.4283529 292.170647 75.4283529 261.597086 70.0006432 264.883443"></polygon>
                        <path d="M111.929745,284.55221 L111.929745,293.266277 L89.5216392,293.266277 L89.5216392,290.378695 C89.5216392,290.378695 93.604957,286.095989 97.8870725,281.71359 C103.613274,275.887695 105.85432,271.207394 105.85432,266.626197 C105.85432,262.791819 104.460376,258.858337 99.7293437,258.858337 C99.3818901,258.858337 99.0326667,258.907889 98.6846232,258.907889 L91.6635818,270.06239 L91.0158669,270.06239 L91.0158669,261.098794 C93.2569134,259.20697 96.9414559,257.762885 100.775834,257.762885 C106.701423,257.762885 111.580522,261.198487 111.580522,267.074524 C111.580522,272.751174 106.851259,276.037531 100.526894,281.564934 C97.7372368,284.004779 94.4019177,286.992644 92.4098108,288.785363 L110.784741,288.785363 L110.784741,284.55221 L111.929745,284.55221 Z" id="Fill-469"></path>
                        <path d="M123.584957,292.220966 L123.037526,291.972026 C123.236913,292.07172 123.386749,292.170824 123.584957,292.220966 L123.584957,292.220966 Z M118.805552,265.082417 L121.394642,258.4106 L140.316413,258.4106 L140.515801,259.007583 L124.581305,273.846626 C125.726899,273.548134 127.021739,273.348747 128.366131,273.348747 C134.590212,273.348747 139.669288,276.584962 139.669288,283.606003 C139.669288,290.627634 133.593864,293.963543 127.768558,293.963543 C123.93418,293.963543 120.896763,292.619152 118.656306,290.926126 L118.656306,283.656145 L119.303431,283.656145 L125.428408,292.818539 C125.776451,292.868091 126.125675,292.918233 126.52268,292.918233 C132.051264,292.918233 133.992639,288.237342 133.992639,283.755249 C133.992639,278.328129 131.901428,274.493751 127.369783,274.493751 C125.677347,274.493751 123.884628,274.892526 122.739034,275.589793 L121.942073,274.792833 L134.590212,262.891513 L120.846031,262.891513 L119.80131,265.481193 L118.805552,265.082417 Z" id="Fill-471"></path>
                        <polygon id="Fill-473" points="166.162894 283.208231 166.162894 293.266689 161.183512 293.266689 161.183512 283.208231 145.697344 283.208231 145.249016 282.460822 151.225337 273.796897 157.200478 258.410423 164.669847 258.410423 147.041736 281.913391 161.183512 281.913391 161.183512 268.717821 166.162894 262.244211 166.162894 281.913391 172.188767 281.913391 172.188767 283.208231"></polygon>
                        <path d="M197.090281,256.169435 L197.090281,262.891985 L179.612005,262.891985 L179.612005,273.796956 C181.404724,272.303318 183.845159,271.157724 186.881986,271.157724 C193.45529,271.157724 198.733164,275.041654 198.733164,282.411329 C198.733164,289.43237 193.804513,293.913874 186.98227,293.913874 C182.948504,293.913874 179.463349,292.370094 177.520794,290.876456 L177.520794,283.606475 L178.168509,283.606475 L184.193202,292.669175 C184.790775,292.818421 185.488042,292.867973 186.335145,292.867973 C191.762855,292.867973 193.056515,287.839039 193.056515,282.411329 C193.056515,276.435598 190.8662,272.551668 185.837266,272.551668 C183.446383,272.551668 181.355172,273.597568 179.612005,275.141348 L178.567285,274.742573 L178.567285,258.410482 L196.144074,258.410482 L196.144074,256.169435 L197.090281,256.169435 Z" id="Fill-475"></path>
                        <path d="M218.106743,292.220966 C222.738672,292.220966 224.132616,286.693563 224.132616,281.664038 C224.132616,275.888285 222.140509,271.804967 217.907355,271.804967 C215.219161,271.804967 213.028257,273.548134 211.633723,276.28647 C211.483887,277.731146 211.434335,279.174642 211.434335,280.66828 C211.434335,286.644011 213.227644,292.220966 218.106743,292.220966 M218.156295,293.266277 C210.289331,293.266277 205.708134,287.14189 205.708134,279.074948 C205.708134,268.867244 212.927973,258.460151 227.218995,257.762885 L227.368831,258.808195 C217.658416,259.505462 213.37571,265.829826 211.981766,273.746932 C213.675382,271.655721 216.114636,270.460575 219.202195,270.460575 C224.829293,270.460575 229.858817,274.593445 229.858817,281.664038 C229.858817,288.337036 224.530211,293.266277 218.156295,293.266277" id="Fill-477"></path>
                        <polygon id="Fill-479" points="245.995886 293.266572 239.722253 293.266572 254.013866 262.891808 236.385755 262.891808 235.341034 265.480898 234.344096 265.082712 236.934366 258.410305 256.851305 258.410305 257.250081 259.007878 250.925716 272.402835"></polygon>
                        <path d="M276.17545,272.900479 C278.416497,271.157901 279.611053,268.368833 279.611053,265.082476 C279.611053,261.846261 277.818334,258.808254 273.635912,258.808254 C270.348965,258.808254 268.257754,260.999159 268.257754,263.688533 C268.257754,267.273971 271.993029,269.962755 276.075167,272.850927 L276.17545,272.900479 Z M273.934404,292.818598 C278.167557,292.818598 280.357872,290.079672 280.357872,286.096048 C280.357872,282.161976 277.419559,279.971072 272.54046,276.336081 C272.390624,276.236387 272.29152,276.137284 272.141685,276.03759 C268.955021,277.531817 267.312138,281.266502 267.312138,284.602411 C267.312138,289.134056 269.503043,292.818598 273.934404,292.818598 L273.934404,292.818598 Z M273.934404,293.91405 C267.262586,293.91405 262.97988,290.328612 262.97988,285.10029 C262.97988,280.369847 266.316379,276.933654 271.196068,275.340323 C267.312138,272.402599 264.723048,269.962755 264.723048,265.829885 C264.723048,261.148994 268.606978,257.762944 273.934404,257.762944 C278.76454,257.762944 283.544535,260.949607 283.544535,265.779743 C283.544535,269.763957 280.707095,272.103518 277.270903,273.697439 C281.60316,276.784409 284.888927,279.573476 284.888927,284.403023 C284.888927,290.378754 280.108932,293.91405 273.934404,293.91405 L273.934404,293.91405 Z" id="Fill-481"></path>
                        <path d="M302.770697,279.274218 C305.608727,279.274218 307.699348,277.731028 309.04433,275.141348 C309.194165,273.746814 309.294449,272.303318 309.294449,270.809091 C309.294449,264.136683 307.600834,258.808667 302.920533,258.808667 C298.039664,258.808667 296.596169,264.784398 296.596169,269.315453 C296.596169,274.642879 298.587096,279.274218 302.770697,279.274218 M293.658445,293.217197 L293.658445,292.170706 C302.421474,292.170706 307.152506,285.947216 308.696286,277.581192 C307.202058,279.373912 305.1604,280.419222 302.32237,280.419222 C296.296497,280.419222 290.869967,276.834374 290.869967,269.315453 C290.869967,262.941537 296.246945,257.762767 302.620861,257.762767 C309.84129,257.762767 315.02065,263.937295 315.02065,272.403012 C315.02065,283.257842 306.654627,293.217197 293.658445,293.217197" id="Fill-483"></path>
                        <path d="M327.47182,275.838438 C327.47182,285.598405 329.114704,292.818244 335.638456,292.818244 C342.260722,292.818244 343.903605,285.598405 343.903605,275.838438 C343.903605,266.078471 342.260722,258.858632 335.638456,258.858632 C329.114704,258.858632 327.47182,266.078471 327.47182,275.838438 M349.630396,275.838438 C349.630396,286.295672 343.804501,293.914286 335.638456,293.914286 C327.621656,293.914286 321.745619,286.295672 321.745619,275.838438 C321.745619,265.331652 327.621656,257.76259 335.638456,257.76259 C343.804501,257.76259 349.630396,265.331652 349.630396,275.838438" id="Fill-485"></path>
                        <path d="M361.785316,283.556746 L358.847592,256.418198 L365.370755,256.418198 L362.433031,283.556746 L361.785316,283.556746 Z M363.4282,286.693268 L365.370755,288.635233 L365.370755,291.324606 L363.4282,293.266572 L360.790147,293.266572 L358.79804,291.324606 L358.79804,288.635233 L360.790147,286.693268 L363.4282,286.693268 Z" id="Fill-487"></path>
                    </g>
                    <g id="Group-528">
                        <mask id="mask-2" fill="white">
                            <use xlink:href="#path-1"></use>
                        </mask>
                        <g id="Clip-507"></g>
                    </g>
                    <mask id="mask-4" fill="white">
                        <use xlink:href="#path-3"></use>
                    </mask>
                    <g id="Clip-1256"></g>
                </g>
            </g>
        </g>
    </g>
</svg>