<?xml version="1.0" encoding="UTF-8" standalone="no"?>
<svg width="21px" height="21px" viewBox="0 0 21 21" version="1.1" xmlns="http://www.w3.org/2000/svg" xmlns:xlink="http://www.w3.org/1999/xlink">
    <!-- Generator: Sketch 41.2 (35397) - http://www.bohemiancoding.com/sketch -->
    <title>facebook</title>
    <desc>Created with Sketch.</desc>
    <defs></defs>
    <g id="Page-4" stroke="none" stroke-width="1" fill="none" fill-rule="evenodd">
        <g id="Profile-Mobile" transform="translate(-191.000000, -548.000000)" fill="#777777">
            <path d="M211.5,567.36865 C211.5,567.993517 210.993517,568.500558 210.36865,568.500558 L205.144671,568.500558 L205.144671,560.561562 L207.80943,560.561562 L208.208698,557.467939 L205.144671,557.467939 L205.144671,555.492264 C205.144671,554.596565 205.393724,553.986217 206.67808,553.986217 L208.316472,553.985658 L208.316472,551.21815 C208.032797,551.180736 207.060595,551.096415 205.929245,551.096415 C203.567146,551.096415 201.949974,552.538245 201.949974,555.186252 L201.949974,557.467939 L199.278513,557.467939 L199.278513,560.561562 L201.949974,560.561562 L201.949974,568.500558 L192.13135,568.500558 C191.506483,568.500558 191,567.993517 191,567.36865 L191,549.131909 C191,548.506483 191.506483,548 192.13135,548 L210.36865,548 C210.993517,548 211.5,548.506483 211.5,549.131909 L211.5,567.36865" id="facebook"></path>
        </g>
    </g>
</svg>