<?xml version="1.0" encoding="UTF-8" standalone="no"?>
<svg width="640px" height="360px" viewBox="0 0 640 360" version="1.1" xmlns="http://www.w3.org/2000/svg" xmlns:xlink="http://www.w3.org/1999/xlink">
    <!-- Generator: Sketch 42 (36781) - http://www.bohemiancoding.com/sketch -->
    <title>kim</title>
    <desc>Created with Sketch.</desc>
    <defs></defs>
    <g id="Page-1" stroke="none" stroke-width="1" fill="none" fill-rule="evenodd">
        <g id="kim">
            <g id="KR-florrence-poster-F-outline-3" transform="translate(-24.937500, -26.265625)">
                <polygon id="Fill-1" fill="#E15A57" points="4.45274095 372.437296 697.531909 372.437296 697.531909 0.000410534938 4.45274095 0.000410534938"></polygon>
                <polygon id="Fill-2" fill="#FFFDE8" points="14.8410957 1758.73168 697.531497 1758.73168 697.531497 372.437296 14.8410957 372.437296"></polygon>
                <polygon id="Fill-13" fill="#FFE05B" points="207.389801 0 181.585258 59.5776513 155.780715 0 146.762688 0 140.573539 66.0468609 85.1820352 3.32779621 103.576749 84.8189814 31.4337704 42.2157182 74.21529 114.058101 -8.24505316e-05 97.4449835 -8.24505316e-05 102.411225 55.3638005 150.900738 -8.24505316e-05 156.045972 -8.24505316e-05 170.751334 48.8683476 191.741574 -8.24505316e-05 212.731815 -8.24505316e-05 227.437177 55.3638005 232.582411 -8.24505316e-05 281.071924 -8.24505316e-05 286.038165 74.21529 269.425459 31.4337704 341.267841 103.576749 298.664168 85.1820352 380.155353 140.573539 317.436288 148.366763 400.599993 181.585258 323.905498 214.80334 400.599993 222.596977 317.436288 277.988481 380.155353 259.594179 298.664168 331.737158 341.267841 288.955226 269.425459 370.787378 287.743117 307.806303 232.582411 391.317973 224.821659 314.301756 191.741574 391.317973 158.66149 307.806303 150.900738 370.787378 95.7400319 288.955226 114.058101 331.737158 42.2157182 259.594179 84.8189814 277.988481 3.32779621 222.596977 66.0468609 216.407415 0"></polygon>
                <path d="M207.638059,250.154579 C199.104429,231.714992 194.838027,217.577811 193.009274,199.752794 C193.618995,199.752794 194.838027,199.138224 196.057058,197.909082 C209.466812,209.587569 219.219061,219.421934 230.800063,236.632379 C242.381477,253.227844 258.838603,251.383721 266.762511,238.476092 C273.467388,226.183034 266.153201,210.816711 246.647879,208.358017 C226.53366,206.514305 213.123905,203.44104 196.666367,196.67953 C197.276089,196.064959 197.276089,195.450388 197.276089,194.835817 C197.276089,194.221247 197.276089,193.606265 196.666367,192.991694 C213.733215,186.845165 227.142969,184.386472 247.257601,181.928188 C267.981542,180.084065 274.07711,164.717743 267.372233,151.810114 C260.057634,139.517056 242.990786,138.287503 231.409784,153.653826 C220.438092,170.864272 210.685843,180.698636 196.057058,191.762553 C195.447336,190.533001 194.228305,189.91843 193.009274,189.91843 C194.838027,172.093413 199.104429,159.185784 207.638059,140.746197 C216.171689,122.921181 206.419028,108.784 192.399964,108.784 C177.771179,108.784 167.409208,121.691628 175.942426,140.131626 C184.476056,159.185784 188.742459,172.093413 191.790243,189.91843 C191.180521,189.91843 189.35218,190.533001 188.742459,191.762553 C173.504364,180.698636 164.361424,170.864272 152.780423,153.653826 C141.80873,138.287503 124.132161,139.517056 117.427284,151.810114 C110.113097,164.717743 116.817974,180.084065 136.932606,181.928188 C157.046825,184.386472 170.45658,186.845165 187.523428,192.991694 L187.523428,194.835817 C187.523428,195.450388 187.523428,196.064959 188.133149,196.67953 C171.066302,203.44104 157.046825,206.514305 136.932606,208.358017 C118.037005,210.816711 110.113097,226.183034 117.427284,238.476092 C124.741883,251.383721 142.41804,253.227844 153.999454,236.632379 C165.580455,219.421934 174.723395,209.587569 188.742459,197.909082 C189.35218,198.523653 190.571212,199.752794 191.790243,199.752794 C188.742459,217.577811 184.476056,230.48585 175.942426,249.540008 C167.409208,267.979596 177.771179,282.116777 192.399964,282.116777 C206.419028,282.116777 216.171689,267.979596 207.638059,250.154579" id="Fill-14" fill="#FFFDE8"></path>
                <path d="M435.736259,69.2162316 L435.736259,332.28702" id="Stroke-16" stroke="#FFFDE8" stroke-width="4"></path>
                <polygon id="Fill-17" fill="#43B4BC" points="14.8410957 549.788389 712.372592 549.788389 712.372592 372.437296 14.8410957 372.437296"></polygon>
                <g id="Group-447" transform="translate(190.048475, 75.948964)">
                    <path d="M297.792315,227.147585 L297.792315,214.128702 C297.792315,214.128702 297.915166,213.333906 299.510996,213.333906 C301.045401,213.333906 302.641231,214.3118 302.641231,220.729693 C302.641231,226.230861 301.168252,227.147585 299.388145,227.147585 L297.792315,227.147585 Z M299.940564,242.550446 C298.221882,242.550446 297.792315,242.183428 297.792315,241.450212 L297.792315,243.222492 L303.255075,243.222492 C310.743232,243.222492 314.548324,240.533488 314.548324,235.521267 C314.548324,229.959339 310.190814,227.514193 304.482351,227.514193 L304.420925,227.514193 C308.717423,227.391854 313.01392,225.497235 313.01392,220.301915 C313.01392,215.350864 308.963125,212.66145 302.825095,212.66145 L283.49127,212.66145 L283.49127,213.333906 C286.437228,213.333906 287.051072,214.189871 287.051072,214.923087 L287.051072,240.961265 C287.051072,241.694891 286.437228,242.550446 283.49127,242.550446 L283.49127,243.222492 L297.792315,243.222492 L297.792315,227.881211 L299.572422,227.881211 C301.720671,227.881211 303.746068,229.164544 303.746068,234.97115 C303.746068,241.450212 302.027387,242.550446 299.940564,242.550446 L299.940564,242.550446 Z M329.475168,233.320799 L321.987011,233.320799 L325.301523,222.135775 L329.475168,233.320799 Z M323.828544,242.550446 C320.698309,242.550446 320.207316,239.372084 320.636884,237.966413 L321.741721,234.298694 L329.84331,234.298694 L331.316701,238.149511 C331.746268,239.249745 330.948147,242.550446 328.370331,242.550446 L328.370331,243.222492 L347.643143,243.222492 L347.643143,242.550446 C345.433469,242.550446 343.653362,240.472318 342.732802,238.027172 L332.973957,212.172503 L327.32692,212.172503 L319.593472,237.966413 C319.163905,239.310915 317.138095,242.550446 314.989847,242.550446 L314.989847,243.222492 L323.828544,243.222492 L323.828544,242.550446 Z M363.606803,242.428106 L362.992959,242.428106 C362.256263,242.428106 362.256263,242.000329 362.256263,241.266703 L362.256263,214.923087 C362.256263,214.189871 362.870107,213.333906 365.816477,213.333906 L365.816477,212.66145 L347.832779,212.66145 L347.832779,213.333906 C350.778737,213.333906 351.392581,214.128702 351.392581,214.861917 L351.392581,240.961265 C351.392581,241.694891 350.778737,242.550446 347.832779,242.550446 L347.832779,243.222492 L373.243209,243.222492 L373.243209,230.081268 L372.567939,230.081268 C372.567939,234.482203 366.98274,242.428106 363.606803,242.428106 L363.606803,242.428106 Z M390.925962,242.428106 L390.312118,242.428106 C389.575834,242.428106 389.575834,242.000329 389.575834,241.266703 L389.575834,214.923087 C389.575834,214.189871 390.189266,213.333906 393.135636,213.333906 L393.135636,212.66145 L375.151938,212.66145 L375.151938,213.333906 C378.097896,213.333906 378.71174,214.128702 378.71174,214.861917 L378.71174,240.961265 C378.71174,241.694891 378.097896,242.550446 375.151938,242.550446 L375.151938,243.222492 L400.562368,243.222492 L400.562368,230.081268 L399.887098,230.081268 C399.887098,234.482203 394.301899,242.428106 390.925962,242.428106 L390.925962,242.428106 Z M415.839214,243.773019 C422.038258,243.773019 426.641883,240.288809 426.641883,234.115595 C426.641883,229.71466 424.309358,226.536299 417.005477,223.480277 C411.726994,221.27981 410.43788,219.751799 410.43788,217.001214 C410.43788,214.923087 412.03371,213.028468 415.471073,213.028468 C420.810982,213.028468 423.511236,219.385191 423.511236,223.846885 L424.247932,223.846885 L424.247932,223.357937 L424.247932,223.846885 C424.247932,223.846885 424.186506,213.945192 424.186506,211.744725 L423.450223,211.744725 C423.450223,213.456245 421.792967,213.639344 419.951435,213.272736 C418.478456,212.60028 416.698349,212.172503 414.857229,212.172503 C408.903476,212.172503 404.238837,217.245893 404.238837,222.380043 C404.238837,227.086416 406.018532,230.203608 411.972285,232.770683 C418.232753,235.460097 419.276165,236.866179 419.276165,239.188575 C419.276165,241.022435 418.110314,242.917054 415.286796,242.917054 C407.491923,242.917054 405.159397,234.849221 405.159397,231.303841 L404.422702,231.303841 L404.422702,244.017287 L405.159397,244.017287 C405.159397,242.000329 407.123369,241.939159 409.149178,242.428106 C410.867447,243.222492 413.138547,243.773019 415.839214,243.773019 L415.839214,243.773019 Z" id="Fill-437" fill="#FFFDE8"></path>
                    <path d="M310.090884,185.584454 L317.579041,185.584454 L324.146638,161.930252 C324.637631,160.279901 326.11061,155.695868 328.565574,155.695868 L328.565574,154.962242 L320.034005,154.962242 L320.034005,155.695868 C323.655645,155.695868 323.532794,159.913293 322.980375,161.746742 L318.990594,176.294048 L313.957814,158.446041 C313.773537,156.9792 314.26453,155.695868 317.149474,155.695868 L317.149474,154.962242 L299.165776,154.962242 L299.165776,155.573529 C300.70018,155.573529 301.559315,156.367914 301.988882,157.223879 L303.339422,162.05218 L299.533918,176.477147 L293.273449,157.651656 C293.334874,156.490253 294.071158,155.573529 296.096555,155.573529 L296.096555,154.962242 L278.051432,154.962242 L278.051432,155.573529 C280.383957,155.573529 281.059227,157.04037 281.427369,158.079434 L290.388505,185.584454 L298.367655,185.584454 L304.014279,164.374987 L310.090884,185.584454 Z M343.332464,183.017379 L343.332464,157.468147 C343.332464,156.734932 343.946309,155.634698 346.892266,155.634698 L346.892266,154.962242 L328.969994,154.962242 L328.969994,155.634698 C331.915952,155.634698 332.529796,156.734932 332.529796,157.468147 L332.529796,183.017379 C332.529796,183.750594 331.915952,184.850828 328.969994,184.850828 L328.969994,185.523284 L346.892266,185.523284 L346.892266,184.850828 C343.946309,184.850828 343.332464,183.750594 343.332464,183.017379 L343.332464,183.017379 Z M368.441949,183.017379 L368.441949,155.695868 L368.68724,155.695868 C374.947708,156.429083 377.709801,163.88604 377.709801,166.819723 L378.385071,166.819723 L378.385071,154.962242 L347.696159,154.962242 L347.696159,166.819723 L348.371016,166.819723 C348.371016,163.88604 351.133109,156.429083 357.393578,155.695868 L357.639281,155.695868 L357.639281,183.017379 C357.639281,183.750594 357.025436,184.850828 354.079479,184.850828 L354.079479,185.523284 L372.001751,185.523284 L372.001751,184.850828 C369.055381,184.850828 368.441949,183.750594 368.441949,183.017379 L368.441949,183.017379 Z M412.498566,183.262057 L412.498566,157.223879 C412.498566,156.490253 413.111998,155.634698 416.058368,155.634698 L416.058368,154.962242 L398.258535,154.962242 L398.258535,155.634698 C401.204905,155.634698 401.818749,156.490253 401.818749,157.223879 L401.818749,168.89785 C401.818749,168.89785 401.818749,169.448378 401.020628,169.448378 L394.146315,169.448378 C393.348606,169.448378 393.348606,168.89785 393.348606,168.89785 L393.348606,157.223879 C393.348606,156.490253 393.962038,155.634698 396.908408,155.634698 L396.908408,154.962242 L379.108575,154.962242 L379.108575,155.634698 C382.054944,155.634698 382.668788,156.490253 382.668788,157.223879 L382.668788,183.262057 C382.668788,183.995273 382.054944,184.850828 379.108575,184.850828 L379.108575,185.523284 L396.908408,185.523284 L396.908408,184.850828 C393.962038,184.850828 393.348606,183.995273 393.348606,183.262057 L393.348606,170.976389 C393.348606,170.976389 393.348606,170.426272 394.146315,170.426272 L401.020628,170.426272 C401.818749,170.426272 401.818749,170.976389 401.818749,170.976389 L401.818749,183.262057 C401.818749,183.995273 401.204905,184.850828 398.258535,184.850828 L398.258535,185.523284 L416.058368,185.523284 L416.058368,184.850828 C413.111998,184.850828 412.498566,183.995273 412.498566,183.262057 L412.498566,183.262057 Z" id="Fill-439" fill="#FFFDE8"></path>
                    <path d="M297.792315,111.748801 L297.792315,98.7299168 C297.792315,98.7299168 297.915166,97.9351211 299.510996,97.9351211 C301.045401,97.9351211 302.641231,98.9130153 302.641231,105.330908 C302.641231,110.832076 301.168252,111.748801 299.388145,111.748801 L297.792315,111.748801 Z M299.940564,127.151661 C298.221882,127.151661 297.792315,126.784643 297.792315,126.051427 L297.792315,127.823707 L303.255075,127.823707 C310.743232,127.823707 314.548324,125.134703 314.548324,120.122482 C314.548324,114.560555 310.190814,112.115408 304.482351,112.115408 L304.420925,112.115408 C308.717423,111.993069 313.01392,110.09845 313.01392,104.903131 C313.01392,99.9520793 308.963125,97.2626649 302.825095,97.2626649 L283.49127,97.2626649 L283.49127,97.9351211 C286.437228,97.9351211 287.051072,98.7910865 287.051072,99.5243019 L287.051072,125.56248 C287.051072,126.296106 286.437228,127.151661 283.49127,127.151661 L283.49127,127.823707 L297.792315,127.823707 L297.792315,112.482427 L299.572422,112.482427 C301.720671,112.482427 303.746068,113.765759 303.746068,119.572365 C303.746068,126.051427 302.027387,127.151661 299.940564,127.151661 L299.940564,127.151661 Z M317.077082,112.543596 C317.077082,124.217568 325.976792,128.496163 333.280673,128.496163 C340.584553,128.496163 349.300399,124.278738 349.300399,112.543596 C349.300399,100.746875 340.523127,96.6517889 333.280673,96.6517889 C326.038218,96.6517889 317.077082,100.808045 317.077082,112.543596 L317.077082,112.543596 Z M337.700021,112.543596 C337.700021,124.523416 336.65661,127.640608 333.280673,127.640608 C329.904736,127.640608 328.738885,124.523416 328.738885,112.543596 C328.738885,100.563366 329.904736,97.446174 333.280673,97.446174 C336.65661,97.446174 337.700021,100.563366 337.700021,112.543596 L337.700021,112.543596 Z M367.775089,127.823707 C374.526551,127.823707 382.812417,125.378971 382.812417,111.993069 C382.812417,100.929973 376.92009,97.2626649 367.775089,97.2626649 L350.650526,97.2626649 L350.650526,97.9351211 C353.596484,97.9351211 354.210328,98.7910865 354.210328,99.5243019 L354.210328,125.56248 C354.210328,126.296106 353.596484,127.151661 350.650526,127.151661 L350.650526,127.823707 L367.775089,127.823707 Z M364.82872,125.56248 L364.82872,99.4631322 C364.82872,99.4631322 364.644443,97.9351211 366.854117,97.9351211 C369.800487,97.9351211 372.378303,99.0965245 372.378303,111.321023 C372.378303,125.929088 369.739061,127.029322 366.179259,127.029322 C364.82872,127.029322 364.82872,125.56248 364.82872,125.56248 L364.82872,125.56248 Z M386.027988,112.543596 C386.027988,124.217568 394.927698,128.496163 402.231991,128.496163 C409.535871,128.496163 418.251305,124.278738 418.251305,112.543596 C418.251305,100.746875 409.474446,96.6517889 402.231991,96.6517889 C394.989124,96.6517889 386.027988,100.808045 386.027988,112.543596 L386.027988,112.543596 Z M406.650927,112.543596 C406.650927,124.523416 405.607516,127.640608 402.231991,127.640608 C398.856054,127.640608 397.689791,124.523416 397.689791,112.543596 C397.689791,100.563366 398.856054,97.446174 402.231991,97.446174 C405.607516,97.446174 406.650927,100.563366 406.650927,112.543596 L406.650927,112.543596 Z M424.180322,121.528564 L424.180322,106.73699 L443.698425,127.823707 L444.066978,127.701778 L443.944127,127.823707 L447.258639,127.823707 L447.258639,103.680558 C447.258639,102.458395 448.056347,97.9351211 451.248007,97.9351211 L451.248007,97.2626649 L441.673027,97.2626649 L441.673027,97.9351211 C444.864687,97.9351211 446.276653,102.458395 446.276653,103.680558 L446.276653,114.254706 L430.99321,97.2626649 L418.840414,97.2626649 L418.840414,97.9351211 C421.786784,97.9351211 423.136911,99.6466413 423.136911,100.379857 L423.136911,121.528564 C423.136911,123.178504 422.032074,127.151661 418.840414,127.151661 L418.840414,127.823707 L428.783536,127.823707 L428.783536,127.151661 C425.592288,127.151661 424.180322,123.178504 424.180322,121.528564 L424.180322,121.528564 Z M467.242998,125.317801 L467.242998,99.7689807 C467.242998,99.0353548 467.85643,97.9351211 470.8028,97.9351211 L470.8028,97.2626649 L452.880528,97.2626649 L452.880528,97.9351211 C455.826485,97.9351211 456.44033,99.0353548 456.44033,99.7689807 L456.44033,125.317801 C456.44033,126.051427 455.826485,127.151661 452.880528,127.151661 L452.880528,127.823707 L470.8028,127.823707 L470.8028,127.151661 C467.85643,127.151661 467.242998,126.051427 467.242998,125.317801 L467.242998,125.317801 Z" id="Fill-441" fill="#FFFDE8"></path>
                    <path d="M279.845308,70.8968385 C282.821772,70.8968385 284.46666,68.2447828 285.602416,64.3057001 L289.322996,50.5774117 L292.377789,50.5774117 L292.495281,50.0314003 L289.479652,50.0314003 L290.302096,46.9893364 C291.516181,42.5042422 292.612773,40.7102045 294.492645,40.7102045 C295.745893,40.7102045 296.372517,41.8022274 296.372517,42.3092381 C296.372517,43.2062569 294.727629,42.6992463 294.061841,43.401261 C293.356889,44.1422766 293.826857,45.3123012 294.845121,45.3123012 C296.059205,45.3123012 296.959977,43.7912692 296.959977,42.7772479 C296.959977,41.4902209 295.785057,40.2421947 293.983513,40.2421947 C291.046212,40.2421947 289.048848,43.0502536 287.99142,46.9893364 L287.168976,50.0314003 L285.24994,50.0314003 L285.132448,50.5774117 L287.01232,50.5774117 L283.800872,62.3166583 C282.978428,64.7737099 281.999328,70.2728254 279.649488,70.2728254 C276.712188,70.2728254 277.652124,66.6457492 278.905372,66.4507451 L278.827044,66.1777394 C276.868844,66.5287468 276.359712,70.8968385 279.845308,70.8968385 M300.652936,64.6567074 C302.767792,64.6567074 303.590236,62.3556591 303.981876,60.9516296 L303.511908,60.9516296 C303.081104,62.589664 302.141168,64.0716952 301.27956,64.0716952 C300.613772,64.0716952 300.457116,63.6036853 300.731264,62.4336608 L304.099368,49.9923995 L303.668564,49.9923995 C303.668564,49.9923995 302.767792,50.5384109 301.749528,50.5384109 L299.282196,59.2745944 C298.655572,60.7566255 296.932356,64.110696 294.974156,64.110696 C293.799236,64.110696 293.25094,63.1746763 293.25094,61.302637 C293.25094,57.4415559 296.149076,50.304406 298.773064,50.304406 C301.514544,50.304406 300.535444,54.828501 300.535444,54.828501 L301.08374,52.8784601 C301.08374,52.8784601 301.357888,49.8363962 298.694736,49.8363962 C294.582516,49.8363962 290.979428,55.7255199 290.979428,60.7566255 C290.979428,63.9546927 292.66348,64.8127107 294.582516,64.8127107 C296.814864,64.8127107 298.263932,62.3166583 298.7339,61.3806386 C298.420588,63.2136771 299.047212,64.6567074 300.652936,64.6567074 M309.945936,64.8517115 C312.374104,64.8517115 314.018992,62.589664 314.802272,61.1076329 L314.371468,60.8346272 C313.666516,62.160655 312.256612,64.1496968 310.494232,64.1496968 C309.240984,64.1496968 308.183555,62.7066665 308.183555,60.444619 C308.183555,56.1935297 311.238348,50.304406 314.606452,50.304406 C315.977192,50.304406 316.407996,51.162424 316.407996,51.6694347 C316.407996,52.5664535 314.998092,51.9814412 314.332304,52.683456 C313.627352,53.4244715 314.09732,54.5944961 315.115584,54.5944961 C316.329668,54.5944961 316.995456,53.1514658 316.995456,52.1374445 C316.995456,50.7724158 315.977192,49.8363962 314.410632,49.8363962 C309.240984,49.8363962 305.755387,55.8035215 305.755387,60.01561 C305.755387,63.4476821 307.713587,64.8517115 309.945936,64.8517115 M325.791279,50.2264044 C326.378739,50.2264044 326.652887,50.5774117 326.652887,51.4354298 C326.652887,55.1795084 323.441439,57.4415559 320.190826,57.4415559 C321.169926,53.8144797 323.637259,50.2264044 325.791279,50.2264044 M326.652887,61.1076329 L326.222083,60.8346272 C325.438803,62.1996558 323.872243,64.1496968 321.99237,64.1496968 C320.42581,64.1496968 319.760022,62.8626698 319.720858,60.6006223 C319.720858,59.7036034 319.83835,58.7285829 320.112498,57.7535625 L320.073334,57.9095657 C324.498867,57.9095657 328.767743,54.9065027 328.767743,52.0984437 C328.767743,50.733415 327.984463,49.8363962 326.143755,49.8363962 C321.444074,49.8363962 317.331854,55.686519 317.371018,60.3666173 C317.410182,63.7986894 319.094234,64.8517115 321.326582,64.8517115 C323.950571,64.8517115 325.791279,62.6286649 326.652887,61.1076329 M350.503352,42.8552496 L347.801036,52.6444552 C347.801036,52.0594429 347.683544,49.8363962 345.412032,49.8363962 C341.299811,49.8363962 337.696723,55.7255199 337.696723,60.7566255 C337.696723,63.9546927 339.380775,64.8127107 341.299811,64.8127107 C343.53216,64.8127107 344.981228,62.3166583 345.451196,61.3806386 C345.137884,63.2136771 345.803672,64.6567074 347.409396,64.6567074 C349.524252,64.6567074 350.346696,62.3556591 350.738336,60.9516296 L350.268368,60.9516296 C349.837564,62.589664 348.897628,64.0716952 348.03602,64.0716952 C347.370232,64.0716952 347.213576,63.6036853 347.487724,62.4336608 L352.774864,42.8552496 L353.597308,39.9691889 L353.166504,39.9691889 C352.500716,40.4761996 350.97332,40.827207 349.367596,40.827207 L349.250104,41.256216 C350.738336,41.256216 350.738336,41.9972315 350.503352,42.8552496 M341.691451,64.110696 C340.516531,64.110696 339.968235,63.1746763 339.968235,61.302637 C339.968235,57.4415559 342.866372,50.304406 345.49036,50.304406 C347.722708,50.304406 347.487724,53.3074691 347.331068,54.399492 L345.960328,59.352596 C345.333704,60.8346272 343.610488,64.110696 341.691451,64.110696 M362.467749,64.7737099 C364.582605,64.7737099 365.405049,62.4726616 365.796689,61.0686321 L365.326721,61.0686321 C364.973833,62.6286649 363.955569,64.1886976 363.094373,64.1886976 C362.428585,64.1886976 362.349844,63.0576739 362.859389,61.1856345 L365.835853,49.9923995 L363.760161,49.9923995 L361.370744,58.494578 C360.509549,60.9516296 359.060068,64.0326943 356.945212,64.0326943 C356.044852,64.0326943 355.418228,63.4476821 355.418228,62.0046517 C355.418228,60.3666173 356.867296,55.686519 357.68974,52.6054543 C358.159708,50.733415 357.454344,49.6803929 356.044852,49.6803929 C353.6946,49.6803929 352.755076,51.9814412 352.363024,53.3854707 L352.833404,53.3854707 C353.185468,51.825438 354.360388,50.4214085 355.065752,50.4214085 C355.73154,50.4214085 355.888196,50.9284191 355.614048,51.9034396 C354.086652,57.5975592 353.224632,60.2106141 353.224632,61.7706468 C353.224632,63.6036853 354.439128,64.7737099 356.201508,64.7737099 C358.78592,64.7737099 360.000417,62.7456673 360.627041,61.2246354 C360.039168,63.3696804 360.627041,64.7737099 362.467749,64.7737099 M372.986787,42.7772479 L368.443763,59.7816051 C367.425499,63.6036853 367.151351,64.0716952 366.877203,64.3057001 L366.759711,64.7347091 C367.973795,64.7347091 369.501191,63.6426861 369.697011,63.2916788 C369.697011,63.2916788 370.127815,64.7737099 372.164343,64.7737099 C376.002416,64.7737099 379.997144,60.444619 379.997144,54.1264863 C379.997144,51.7084355 378.665568,49.8363962 376.159072,49.8363962 C374.2792,49.8363962 373.104279,51.6304339 372.555983,52.7224568 L375.2583,42.7772479 L376.04158,39.9691889 L375.64994,39.9691889 C374.984152,40.4761996 373.456756,40.827207 371.851031,40.827207 L371.733539,41.256216 C373.221771,41.256216 373.221771,41.9192299 372.986787,42.7772479 M371.968523,64.2666993 C370.362799,64.2666993 369.931995,63.1356755 369.853667,62.7846681 L371.968523,54.9065027 C372.595147,53.112465 373.965888,50.5384109 375.610776,50.4994101 C376.82486,50.4994101 377.60814,51.6694347 377.60814,53.8144797 C377.60814,58.1435707 375.2583,64.2666993 371.968523,64.2666993 M386.991835,42.7772479 L382.44881,59.7816051 C381.430546,63.6036853 381.156398,64.0716952 380.88225,64.3057001 L380.764758,64.7347091 C381.978842,64.7347091 383.506239,63.6426861 383.702059,63.2916788 C383.702059,63.2916788 384.132863,64.7737099 386.169391,64.7737099 C390.007463,64.7737099 394.002191,60.444619 394.002191,54.1264863 C394.002191,51.7084355 392.670615,49.8363962 390.164119,49.8363962 C388.284247,49.8363962 387.109327,51.6304339 386.561031,52.7224568 L389.263347,42.7772479 L390.046627,39.9691889 L389.654987,39.9691889 C388.989199,40.4761996 387.461803,40.827207 385.856079,40.827207 L385.738587,41.256216 C387.226819,41.256216 387.226819,41.9192299 386.991835,42.7772479 M385.973571,64.2666993 C384.367847,64.2666993 383.937043,63.1356755 383.858715,62.7846681 L385.973571,54.9065027 C386.600195,53.112465 387.970935,50.5384109 389.615823,50.4994101 C390.829907,50.4994101 391.613187,51.6694347 391.613187,53.8144797 C391.613187,58.1435707 389.263347,64.2666993 385.973571,64.2666993 M404.082593,50.2264044 C404.670053,50.2264044 404.944613,50.5774117 404.944613,51.4354298 C404.944613,55.1795084 401.732753,57.4415559 398.482141,57.4415559 C399.461241,53.8144797 401.928573,50.2264044 404.082593,50.2264044 M404.944613,61.1076329 L404.513397,60.8346272 C403.730117,62.1996558 402.163969,64.1496968 400.283685,64.1496968 C398.717537,64.1496968 398.051749,62.8626698 398.012173,60.6006223 C398.012173,59.7036034 398.129665,58.7285829 398.404225,57.7535625 L398.365061,57.9095657 C402.790181,57.9095657 407.05947,54.9065027 407.05947,52.0984437 C407.05947,50.733415 406.275777,49.8363962 404.435069,49.8363962 C399.735801,49.8363962 395.623169,55.686519 395.662333,60.3666173 C395.701497,63.7986894 397.385961,64.8517115 399.617897,64.8517115 C402.241885,64.8517115 404.082593,62.6286649 404.944613,61.1076329 M420.49231,42.8552496 L417.789994,52.6444552 C417.789994,52.0594429 417.672502,49.8363962 415.40099,49.8363962 C411.28877,49.8363962 407.685681,55.7255199 407.685681,60.7566255 C407.685681,63.9546927 409.369734,64.8127107 411.28877,64.8127107 C413.521118,64.8127107 414.970186,62.3166583 415.440154,61.3806386 C415.126842,63.2136771 415.79263,64.6567074 417.398354,64.6567074 C419.51321,64.6567074 420.335654,62.3556591 420.727294,60.9516296 L420.257326,60.9516296 C419.826522,62.589664 418.886586,64.0716952 418.024978,64.0716952 C417.35919,64.0716952 417.202534,63.6036853 417.476682,62.4336608 L422.763822,42.8552496 L423.586266,39.9691889 L423.155462,39.9691889 C422.489674,40.4761996 420.962278,40.827207 419.356554,40.827207 L419.239062,41.256216 C420.727294,41.256216 420.727294,41.9972315 420.49231,42.8552496 M411.68041,64.110696 C410.50549,64.110696 409.957194,63.1746763 409.957194,61.302637 C409.957194,57.4415559 412.85533,50.304406 415.479318,50.304406 C417.711666,50.304406 417.476682,53.3074691 417.320026,54.399492 L415.949286,59.352596 C415.322662,60.8346272 413.599446,64.110696 411.68041,64.110696" id="Fill-443" fill="#FFE05B"></path>
                    <path d="M292.691142,24.8348595 C294.805998,24.8348595 295.628442,22.5338112 296.020082,21.1297817 L295.550114,21.1297817 C295.11931,22.7678161 294.179374,24.2498472 293.317766,24.2498472 C292.651978,24.2498472 292.495322,23.7818374 292.76947,22.6118128 L296.137574,10.1705515 L295.70677,10.1705515 C295.70677,10.1705515 294.805998,10.716563 293.787734,10.716563 L291.320402,19.4527465 C290.693778,20.9347776 288.970562,24.288848 287.012361,24.288848 C285.837441,24.288848 285.289145,23.3528284 285.289145,21.4807891 C285.289145,17.619708 288.187282,10.4825581 290.81127,10.4825581 C293.55275,10.4825581 292.57365,15.0066531 292.57365,15.0066531 L293.121946,13.0566121 C293.121946,13.0566121 293.396094,10.0145482 290.732942,10.0145482 C286.620721,10.0145482 283.017633,15.9036719 283.017633,20.9347776 C283.017633,24.1328448 284.701685,24.9908628 286.620721,24.9908628 C288.85307,24.9908628 290.302138,22.4948103 290.772106,21.5587907 C290.458794,23.3918292 291.085418,24.8348595 292.691142,24.8348595 M318.734379,3.0334016 L316.032063,12.8226072 C316.032063,12.2375949 315.914571,10.0145482 313.643059,10.0145482 C309.530838,10.0145482 305.92775,15.9036719 305.92775,20.9347776 C305.92775,24.1328448 307.611802,24.9908628 309.530838,24.9908628 C311.763187,24.9908628 313.212255,22.4948103 313.682223,21.5587907 C313.368911,23.3918292 314.034699,24.8348595 315.640423,24.8348595 C317.755279,24.8348595 318.577723,22.5338112 318.969363,21.1297817 L318.499395,21.1297817 C318.068591,22.7678161 317.128655,24.2498472 316.267047,24.2498472 C315.601259,24.2498472 315.444603,23.7818374 315.718751,22.6118128 L321.005891,3.0334016 L321.828335,0.147340989 L321.397531,0.147340989 C320.731743,0.654351638 319.204347,1.00535901 317.598623,1.00535901 L317.481131,1.43436802 C318.969363,1.43436802 318.969363,2.17538358 318.734379,3.0334016 M309.922478,24.288848 C308.747558,24.288848 308.199262,23.3528284 308.199262,21.4807891 C308.199262,17.619708 311.097398,10.4825581 313.721387,10.4825581 C315.953735,10.4825581 315.718751,13.4856211 315.562095,14.5776441 L314.191355,19.5307481 C313.564731,21.0127792 311.841515,24.288848 309.922478,24.288848 M324.127056,5.99746386 C324.127056,6.54347533 324.518696,7.24549007 325.262812,7.24549007 C326.32024,7.24549007 327.064356,6.34847123 327.064356,5.13944584 C327.064356,4.63243519 326.672716,3.93042044 325.9286,3.93042044 C324.871172,3.93042044 324.127056,4.90544092 324.127056,5.99746386 M323.304612,12.7056047 L320.954772,21.3637866 C320.367312,23.5088316 320.954772,24.9128611 322.79548,24.9128611 C324.910336,24.9128611 325.73278,22.6118128 326.12442,21.2077833 L325.654452,21.2077833 C325.301976,22.7678161 324.283712,24.3278488 323.422104,24.3278488 C322.756316,24.3278488 322.638824,23.8208382 322.873808,22.6508136 L325.576124,12.7056047 L326.359404,9.89754577 L325.967764,9.89754577 C325.301976,10.4045564 323.77458,10.7555638 322.168856,10.7555638 L322.051364,11.1845728 C323.539596,11.1845728 323.539596,11.8475867 323.304612,12.7056047 M327.882265,21.6367923 C327.960593,23.5868333 329.801302,24.8738603 332.22947,24.8738603 C334.735966,24.8738603 337.203298,23.43083 337.203298,20.622771 C337.203298,19.1407399 336.185034,17.9707153 334.38349,16.2156785 C333.130242,14.9676523 332.111978,13.9146301 332.111978,12.7446056 C332.111978,11.145572 333.639374,10.4825581 335.323426,10.4825581 C336.92915,10.4825581 337.947414,11.3015753 338.025742,12.1985941 C338.025742,13.0566121 336.850822,12.4715998 336.185034,13.1736146 C335.480082,13.9146301 335.95005,15.0846547 336.968314,15.0846547 C337.986578,15.0846547 338.809022,14.2656375 338.809022,12.861608 C338.809022,11.145572 337.359954,9.97554741 335.323426,9.97554741 C332.22947,9.97554741 330.427926,11.9645892 330.427926,13.7586269 C330.427926,15.2796588 330.976222,16.0596752 332.81693,17.7757112 C334.461818,19.335744 335.36259,20.193762 335.36259,21.4807891 C335.36259,23.0408218 334.109342,24.3668497 332.190306,24.3668497 C330.192942,24.3668497 328.665545,23.1968251 328.665545,21.6367923 C328.626381,20.7397735 329.87963,21.3637866 330.545418,20.622771 C331.25037,19.8817555 330.780402,18.7897325 329.762138,18.7897325 C328.548053,18.7897325 327.882265,20.1547612 327.882265,21.6367923 M345.302414,24.288848 C343.422542,24.288848 343.148394,22.2608054 343.148394,22.1048022 L344.754118,15.9816736 L344.754118,16.0206744 L344.754118,15.9816736 L344.910774,15.3576604 C345.45907,13.6026236 346.712318,10.716563 348.827174,10.6775622 C350.041258,10.6385613 350.94203,11.7695851 350.94203,13.9146301 C350.94203,18.2437211 348.553026,24.288848 345.302414,24.288848 M345.498234,25.0298636 C349.37547,25.0298636 353.252706,20.4667678 353.29187,14.6166449 C353.331034,11.6915835 352.038622,9.93654659 349.37547,9.93654659 C347.338942,9.93654659 346.24235,11.4965794 345.694054,12.6276031 C345.889874,11.0675703 345.341578,9.97554741 343.970838,9.97554741 C341.620997,9.97554741 340.798553,12.2765957 340.406913,13.6806252 L340.876881,13.6806252 C341.229357,12.1205925 342.208458,10.5995605 343.10923,10.5995605 C343.69669,10.5995605 343.970838,11.0285695 343.657526,12.1985941 L338.566205,31.0359897 L340.798553,31.0359897 L342.91341,23.001821 C342.991738,23.1968251 343.461706,25.0298636 345.498234,25.0298636 M360.289859,2.83839751 L355.276867,21.4807891 C354.689407,23.6258341 355.276867,25.0298636 357.117575,25.0298636 C359.232431,25.0298636 360.054875,22.7288153 360.446515,21.3247858 L359.976547,21.3247858 C359.624071,22.8848185 358.605807,24.4448513 357.744199,24.4448513 C357.078411,24.4448513 356.960919,23.9378407 357.195903,22.7678161 L362.561371,2.83839751 L363.344651,0.0303385319 L362.953011,0.0303385319 C362.287223,0.537349181 360.759827,0.888356553 359.154103,0.888356553 L359.036611,1.31736556 C360.524843,1.31736556 360.524843,1.98037949 360.289859,2.83839751 M372.144184,24.8348595 C374.25904,24.8348595 375.081484,22.5338112 375.473124,21.1297817 L375.003156,21.1297817 C374.572352,22.7678161 373.632416,24.2498472 372.770808,24.2498472 C372.10502,24.2498472 371.948364,23.7818374 372.222512,22.6118128 L375.590616,10.1705515 L375.159812,10.1705515 C375.159812,10.1705515 374.25904,10.716563 373.240776,10.716563 L370.773444,19.4527465 C370.14682,20.9347776 368.423604,24.288848 366.465404,24.288848 C365.290484,24.288848 364.742188,23.3528284 364.742188,21.4807891 C364.742188,17.619708 367.640324,10.4825581 370.264312,10.4825581 C373.005792,10.4825581 372.026692,15.0066531 372.026692,15.0066531 L372.574988,13.0566121 C372.574988,13.0566121 372.849136,10.0145482 370.185984,10.0145482 C366.073764,10.0145482 362.470676,15.9036719 362.470676,20.9347776 C362.470676,24.1328448 364.154728,24.9908628 366.073764,24.9908628 C368.306112,24.9908628 369.75518,22.4948103 370.225148,21.5587907 C369.911836,23.3918292 370.53846,24.8348595 372.144184,24.8348595 M380.873634,31.2699947 C384.320067,31.2699947 385.847463,28.383934 387.061547,24.0548431 L387.609843,22.0268005 L390.782127,10.1315507 L388.393123,10.1315507 L385.925791,19.335744 C385.025019,21.7537948 383.77177,24.2108464 381.696078,24.2108464 C380.795306,24.2108464 380.168682,23.6258341 380.168682,22.1828038 C380.168682,20.5447694 381.61775,15.8646711 382.440194,12.7836064 C382.910162,10.9115671 382.20521,9.85854495 380.795306,9.85854495 C378.445466,9.85854495 377.427202,12.1595933 377.035562,13.5636228 L377.50553,13.5636228 C377.858006,12.00359 379.032926,10.5995605 379.737878,10.5995605 C380.403666,10.5995605 380.560322,11.1065712 380.286174,12.0815916 C378.758778,17.7757112 377.89717,20.3887661 377.89717,21.9487989 C377.89717,23.7818374 379.189582,24.951862 380.951962,24.951862 C383.536786,24.951862 384.750871,22.9238194 385.377495,21.4027874 L385.064183,22.572812 C384.790035,23.6258341 384.124246,26.0048841 383.810934,27.2529103 C383.340966,29.046948 382.244374,30.6459815 380.560322,30.6459815 C378.367138,30.6459815 377.779678,29.1639504 377.779678,28.0719275 C377.779678,27.2919111 378.053826,26.238889 378.523794,25.80988 L378.249646,25.6148759 C377.662186,26.1218865 377.348874,27.2529103 377.348874,28.1889299 C377.348874,29.5149578 378.09299,31.2699947 380.873634,31.2699947" id="Fill-445" fill="#FFE05B"></path>
                </g>
            </g>
        </g>
    </g>
</svg>