<?xml version="1.0" encoding="UTF-8" standalone="no"?>
<svg width="465px" height="318px" viewBox="0 0 465 318" version="1.1" xmlns="http://www.w3.org/2000/svg" xmlns:xlink="http://www.w3.org/1999/xlink">
    <!-- Generator: Sketch 42 (36781) - http://www.bohemiancoding.com/sketch -->
    <title>Group 2</title>
    <desc>Created with Sketch.</desc>
    <defs></defs>
    <g id="Page-4" stroke="none" stroke-width="1" fill="none" fill-rule="evenodd">
        <g id="Profile-Desktop" transform="translate(-278.000000, -185.000000)">
            <g id="Group-2" transform="translate(278.000000, 185.000000)">
                <rect id="Rectangle-Copy-3" fill="#FFFFFF" x="0" y="0" width="465" height="317.350809"></rect>
                <g id="Group-3-Copy" transform="translate(120.000000, 58.000000)" stroke="#979797">
                    <g id="Group" transform="translate(26.604181, 0.000000)">
                        <path d="M138.74489,33.5626228 C66.8450354,33.5626228 159.855951,27.5418528 97.951757,33.5626228 C82.9471381,35.0219643 70.3195233,38.816411 55.4555309,41.5531202 C53.3415271,41.9423436 57.062584,52.8252027 55.4555309,54.424785 C42.1382288,67.6801787 29.5820791,60.4809488 45.4870843,92.8535856 C46.0933538,94.087571 46.6670823,89.0833381 45.4870843,88.6196984 L41.6673992,82.143389 C37.6806754,80.5769426 31.5752383,78.3616314 29.0043904,82.143389 C25.656614,87.0680207 28.4907338,94.5888834 29.0043904,100.770874 C29.1373671,102.371283 29.9803021,103.869419 30.9106498,105.085715 C38.9987598,115.659757 48.24731,127.5348 51.7075096,110.388193" id="Path-3"></path>
                        <path d="M39.7134103,120.441066 C32.4937496,126.613679 31.9472718,134.987465 33.5747087,144.031577" id="Path-4"></path>
                        <path d="M50.2113314,151.901819 C63.1867152,163.326842 126.758362,217.96721 119.340117,154.244119" id="Path-6"></path>
                        <path d="M48.7028625,150.648357 C57.8454386,158.134915 110.741786,193.316747 113.030115,213.269493 C113.108141,213.949832 111.35599,212.076953 111.265973,212.7554" id="Path-7"></path>
                        <path d="M112.774442,213.269493 L118.230497,247.037887" id="Path-8"></path>
                        <path d="M123.057598,154.327875 L135.076772,240.82545" id="Path-10"></path>
                        <path d="M130.530911,151.728529 C132.577145,157.633859 134.146254,163.779648 136.669613,169.444517 C140.226925,177.430584 147.551773,183.712916 148.71691,192.555592 C150.130661,203.285089 144.844349,213.848991 143.943501,224.648853 C143.622535,228.496774 144.700292,232.331364 145.078688,236.17262" id="Path-11"></path>
                        <path d="M107.119963,111.78053 C118.956795,115.612694 127.485484,121.074447 129.053566,104.134848" id="Path-13"></path>
                        <path d="M110.294168,89.7058048 C114.527255,89.7058048 118.760343,89.7058048 122.993431,89.7058048" id="Path-14"></path>
                        <path d="M100.601616,83.1843342 C91.5942663,83.4404179 80.5498278,77.5028669 73.5795676,83.9525854 C68.8595039,88.320153 72.7505617,100.720001 78.1254283,103.981991 C85.8669039,108.68027 97.0997125,108.112375 104.46483,102.696759 C109.159463,99.2447668 105.240371,90.0716387 105.628141,83.7590785" id="Path-15"></path>
                        <path d="M125.005575,84.2731714 C125.005575,88.6073404 121.628715,95.2180689 125.005575,97.2756783 C132.90499,102.088998 150.914068,110.675029 151.77195,100.582624 L153.561659,99.0403456 C154.111998,92.5659829 158.710694,82.4385871 153.561659,79.5279207 C144.339045,74.3145252 132.971484,80.8969096 122.676397,81.5814041" id="Path-16"></path>
                        <path d="M95.7270911,128.178735 C106.703972,128.178735 117.680854,128.178735 128.657735,128.178735" id="Path-17"></path>
                        <path d="M106.618997,136.436272 C121.60803,136.436272 116.379505,139.349522 123.894802,133.354603" id="Path-18"></path>
                        <path d="M73.6616317,74.1438239 C79.8472067,74.1438239 86.0327816,74.1438239 92.2183565,74.1438239 C95.8463522,74.1438239 84.8832148,73.2924303 81.3343695,74.1438239 C77.2466947,75.1244865 65.5693709,79.7898304 69.7421692,79.536023 C80.7944588,78.8637756 100.625011,85.1996089 102.417141,72.8614798 C104.122697,61.1193758 81.3572814,72.0903404 70.8236647,72.0903404 C60.8293848,72.0903404 90.8867506,71.4156169 100.798732,72.8614798 C102.947855,73.1749728 104.284404,75.770822 106.027239,77.2254931" id="Path-19"></path>
                        <path d="M126.120557,71.9257152 C189.266256,71.9257152 128.424495,72.9191429 127.53954,69.1039805 C125.678981,61.0828527 142.369248,70.7660976 149.56063,69.1039805 C165.96314,65.3129304 115.97185,66.3611979 129.101701,68.0757947 C134.215955,68.7436534 139.388266,67.5617018 144.531548,67.3046554" id="Path-20"></path>
                        <path d="M77.5862587,88.3759569 C82.3147651,82.0134349 83.3138442,78.6182908 94.4069658,81.476137 C97.6347039,82.3076775 104.837345,87.9875465 101.680854,89.1153265 C83.871619,95.4783724 99.3174621,72.7594155 83.9780762,82.4407832 C80.6054459,84.5694 72.8244354,90.1771549 76.2490904,92.1969957 C79.8674927,94.3311075 82.0468086,85.3871575 85.7703419,83.4978507 C93.449343,79.6015543 96.8194337,84.8011272 102.588492,89.1470962" id="Path-21"></path>
                        <path d="M87.7875995,83.1801528 C88.5452429,86.2608593 88.4373086,95.041623 90.0605298,92.4222724 L96.1992314,92.6793188 C104.328241,79.561744 77.6469641,82.8992667 85.9978906,92.647549 C92.870785,100.670481 96.795482,89.1153265 91.4513893,89.1153265" id="Path-22"></path>
                        <path d="M130.073308,85.9008018 C136.023473,76.0230409 142.85781,73.7338597 147.80421,86.6719411 C148.706496,89.0320125 146.060928,81.2425461 143.938438,80.3150957 C140.617562,78.8639945 136.696087,79.2753799 133.256433,80.3150957 C131.015865,80.9923597 129.16605,83.0754694 127.800377,85.193202 C127.336145,85.9130818 127.781729,88.2244296 128.4549,87.7607783 L140.021533,82.9144419 C141.011475,82.2326122 136.146517,80.9431843 136.610859,82.1433025 L137.293505,88.0178248 C137.505801,88.5665177 139.111685,88.5584741 138.883789,88.0178248 L138.883789,82.6256256 C138.558067,81.8528969 136.181623,81.9203694 136.610859,82.6256256 L138.65624,90.8424475 C139.214392,91.7595187 140.750629,91.3829737 141.611817,90.8424475 C142.352102,90.377806 142.627388,89.2219446 142.747004,88.2748712 C143.014594,86.1561978 143.715371,83.6939248 142.747004,81.8544863 C142.171124,80.7605872 138.996933,80.6523877 139.367011,81.8544863" id="Path-23"></path>
                        <path d="M130.479776,145.464105 C125.108945,147.860317 120.100665,151.875197 114.367283,152.652741 C102.493157,154.263074 36.9904955,152.150306 28.2746135,132.400947 C19.0370501,111.469507 7.05181111,29.3461508 35.0959612,14.3819683 C69.0435763,-3.732266 107.062716,-7.62210979 136.897161,22.0846973 C147.203191,32.3466361 147.184278,52.9468031 147.809272,65.9905415 C150.027847,112.292566 154.099122,138.214487 115.786266,154.830416" id="Path-2"></path>
                        <path d="M40.4881097,156.442018 C81.6075453,169.27756 76.9278006,182.783576 87.807007,219.398646 C101.854504,266.676918 93.8676094,220.258101 99.1492293,256.72705" id="Path-9"></path>
                        <path d="M1.03026845,195.16166 C38.7440782,176.247294 45.2521586,217.965844 54.0494022,249.517056" id="Path-24"></path>
                    </g>
                    <path d="M62.5680074,115.109596 C58.414554,124.096114 57.3378799,128.596543 61.3304761,125.39415 C64.275315,123.032145 68.8491271,121.954168 70.025043,118.089281 C70.7281599,115.778344 65.6357436,117.451934 63.5530276,118.089281 C58.7914266,119.546412 52.0065827,129.276908 49.8014168,124.278056 C47.4046772,118.84493 59.8337757,116.362863 60.1156936,110.29725 C60.3471973,105.316326 54.3927546,120.307717 50.0038805,119.921942 C46.8656131,119.646093 53.0750915,113.164554 52.6086108,109.637389 C52.3368535,107.58257 47.9946239,108.041468 48.1589581,105.972066 C48.3062109,104.117764 53.5158511,106.616705 52.9885147,104.853396 C52.0754864,101.800408 48.1232466,101.405368 46.1115718,99.1260077 C45.1345568,98.018985 45.729441,96.2274195 47.1238906,91.1045714 C65.5615281,23.3694449 58.8478168,42.5134602 58.650675,49.9405811 C58.518319,54.9269648 59.8269937,60.5199993 56.4030999,67.759408 C54.7271709,71.302957 39.5657245,122.999042 46.4914757,82.626903 C46.9674893,79.852087 53.258694,85.3343534 53.9758098,82.626903 C55.0343364,78.630466 46.4773516,73.509734 49.5261571,71.1695494 C52.8981522,68.5812929 63.7004784,80.2580207 60.2453614,77.8145568 C53.5649443,73.0901556 45.5985605,70.4095547 39.8420202,64.3209131 C37.0858156,61.4056999 47.2925773,66.025883 50.7386647,67.759408 C56.3104633,70.5622539 67.4453001,84.6983482 66.7173768,77.8403326 C65.5416429,66.7633396 49.6682684,62.2136569 48.9688131,51.0850277 C46.8208452,16.909955 95.6686882,124.014521 50.1813207,49.9405811 C49.0262626,48.0596259 54.3385672,49.1868948 56.2484085,49.9405811 C60.491937,51.6152172 69.8734333,61.7615903 68.1823954,57.0443981 C65.4575053,49.4432497 45.4076092,39.333843 52.6336344,39.857079 L50.408808,35.0447327 C54.6315873,35.3505038 58.6004844,37.9146574 62.1380562,40.5452934 C67.3340558,44.4091821 79.4182414,60.3821891 76.2945946,54.2941177 C69.8914125,41.8141442 59.1995721,32.7671464 52.0262432,20.8370987 C50.6511547,18.5501729 50.6868252,15.2876581 51.2163882,12.5862576 C52.4584279,6.25037893 84.9317632,42.8122084 86.6088714,46.5020863 C88.4606008,50.576156 80.3748227,40.6025113 76.9019858,38.2538227 C71.6467858,34.6997174 64.1442473,34.4469111 60.5206211,28.858535 C58.4899262,25.7267862 67.4194093,28.272028 70.8098744,28.858535 C75.433539,29.6583699 80.0064614,31.0491409 84.3612963,32.9826668 C90.0314698,35.5001968 94.6936908,41.3493154 100.742661,42.1485497 C103.361983,42.4946337 98.3682964,36.6894847 96.495472,34.585923 C90.5546632,27.9131897 80.3643322,24.9234969 77.4843534,16.0247525 C75.7436198,10.6461212 87.3513856,18.7094158 92.0458193,20.8370987 C106.930491,27.5833568 121.010812,36.5841846 136.135144,42.6073593 C148.773405,47.640471 111.280238,31.101905 99.5278785,23.8167839 C96.0981357,21.6907351 93.5676685,18.0261089 91.0357754,14.6509011 C84.3230106,5.70227052 137.48974,44.3091875 135.527753,35.0730861 C133.598941,25.9931584 120.10011,28.2326434 113.054277,23.3863277 C107.239044,19.3864521 101.758651,14.5255902 97.2552798,8.74823748 C96.0211859,7.16502445 101.05602,9.15848313 102.714976,10.1220889 C111.771138,15.3823669 120.649836,21.074118 129.210429,27.309408 C135.777216,32.0924668 155.757031,44.2904811 148.019084,43.1202982 C137.523448,41.5330796 128.757957,32.8539945 120.10866,25.9329791 C115.508251,22.2518125 103.555247,9.3552552 108.784339,11.7253451 L117.276442,9.66327922 C128.781454,14.8779344 139.726575,21.5885229 150.646563,28.2244498 C151.865928,28.9654411 154.854471,31.831014 153.47878,31.6629446 C136.805946,29.6260095 109.495304,-18.3806947 140.559773,14.2462206 C194.085597,70.4642261 149.059414,40.0938977 152.088833,23.4121035 C152.495954,21.1702523 156.257561,23.9610884 157.928433,25.2473422 C160.373904,27.1298894 166.2637,34.7266798 163.995521,32.5779864 C149.221283,18.5820393 136.939664,1.12225936 115.25408,4.39212329 C101.256842,6.50269865 87.4417972,10.1383512 73.7945085,14.2462206 C70.093767,15.3601535 66.1875757,16.9080471 63.4802317,19.9761862 C61.5209793,22.1965391 62.7117683,26.5842889 60.8527527,28.9126643 C59.713749,30.3392408 57.2896857,30.5147695 55.7957087,29.6008788 C54.8951274,29.0499781 55.6145827,26.9299977 56.4030999,26.1907373 C59.0060237,23.7504123 62.2093922,22.2359405 65.3001305,20.6901765 C72.0003724,17.3391998 78.6608377,13.7002281 85.7284953,11.5242937 C109.281157,4.27308701 134.983069,15.5812782 155.703607,28.2528032 C156.714038,28.8707267 159.065285,31.0499554 157.928433,31.2324884 C149.657564,32.5604596 141.062461,30.0389821 132.87525,31.9181253 C124.506805,33.8388658 117.109801,39.4010644 109.009552,42.4604371 C106.349514,43.4651033 97.9969245,44.8319423 100.717637,44.0636934 L100.717637,37.2176346 C111.20463,34.2564177 122.272508,35.1911243 133.077714,34.9261639 C144.469267,34.6468253 162.917272,47.5240904 167.255415,35.586025 C170.132235,27.6693503 117.23634,27.4839555 113.054277,28.2528032 C97.4468764,31.1221318 82.216451,36.225042 66.9425893,40.8571809 C64.0522823,41.7337309 61.0494252,42.7255423 58.650675,44.7519079 C57.1490184,46.0204457 57.6937292,50.2337029 55.8207323,50.2524686 C54.210943,50.2685972 55.2689283,46.4938292 55.8207323,44.7802613 C57.9398097,38.1996947 63.707719,32.7652022 63.707719,25.760281 C63.707719,22.7463284 57.6897387,22.239272 55.8207323,24.3838521 C51.3906123,29.4671665 49.6913391,37.0025808 47.9314707,43.8626419 C46.2813046,50.295078 47.9040431,57.5804407 45.7089192,63.8002415 C44.525653,67.1529816 44.0768124,56.5704485 44.6966005,53.0285248 C45.7386787,47.0733256 47.6177514,41.1436104 50.5612246,36.0706105 C52.5622627,32.6218731 55.6365138,29.7045976 59.0556025,28.2811566 C63.8356943,26.2911003 69.1354102,26.432892 74.2244596,26.2190907 C74.7956487,26.1950939 75.3106288,26.9613209 75.4369672,27.5929421 C78.9614279,45.2132685 67.1669602,62.8782849 83.8835728,46.1541127 C84.9494984,45.0877051 85.3667904,43.4046915 86.1083992,42.0299809" id="Path-25"></path>
                    <path d="M72.7116687,61.655693 C72.6441808,73.2470808 75.1088011,107.641015 72.5092049,96.4298566 C69.6481119,84.0909532 70.1109791,70.7583246 71.9018137,58.1630689 C73.3624826,47.8899262 72.4749521,99.6641487 73.5192488,89.3260396 L78.1486165,100.556566 C79.3236565,88.9241525 77.9909561,76.9937531 75.9237902,65.5220665 C74.5885728,58.1123103 77.187641,95.6357542 75.9237902,88.2099464 L73.0915726,79.5002956 C72.5166571,76.1223558 72.8216209,72.6267427 72.6866451,69.1899662" id="Path-26"></path>
                    <path d="M80.5161181,150.171459 C43.7818336,175.675174 0.694260822,197.348301 0.694260822,252.254525" id="Path-5"></path>
                    <path d="M156.503159,145.665628 C160.89359,148.234634 206.217666,169.570365 212.571382,186.151139 C216.967501,197.623332 214.71763,211.116554 217.195858,223.304157 C218.727185,230.835021 222.083554,237.734247 224.527402,244.949292" id="Path-12"></path>
                </g>
            </g>
        </g>
    </g>
</svg>