<?xml version="1.0" encoding="UTF-8" standalone="no"?>
<svg width="640px" height="360px" viewBox="0 0 640 360" version="1.1" xmlns="http://www.w3.org/2000/svg" xmlns:xlink="http://www.w3.org/1999/xlink">
    <!-- Generator: Sketch 42 (36781) - http://www.bohemiancoding.com/sketch -->
    <title>highground</title>
    <desc>Created with Sketch.</desc>
    <defs></defs>
    <g id="Page-1" stroke="none" stroke-width="1" fill="none" fill-rule="evenodd">
        <g id="highground">
            <g id="FinalPoster-Winston" transform="translate(311.151229, 115.370445) rotate(-360.000000) translate(-311.151229, -115.370445) translate(-403.848771, -1646.629555)">
                <polygon id="Fill-1" fill="#0A0A08" points="50.5537753 3475.89557 1381.1548 3475.89557 1381.1548 47.2030185 50.5537753 47.2030185"></polygon>
                <path d="M64.1522093,3475.8261 C59.6026765,3419.2324 53.4440049,3391.73972 50.3727472,3325.48068 C49.1901271,3300.00912 48.4679534,3268.79893 48.4679534,3227.99531 C48.4679534,3202.53909 49.1812413,3175.02298 50.3727472,3146.50924 C56.2882707,3004.63038 73.955677,2837.97223 73.955677,2776.77488 C73.955677,2703.28118 66.7702909,2675.9339 64.8049121,2575.09212 C62.8387255,2474.25033 58.1413652,2390.50242 58.1413652,2197.36699 C58.1413652,2004.22995 72.5202154,1858.94783 72.5202154,1766.65258 C72.5202154,1690.30088 56.0620866,1571.8345 50.3727472,1465.44798 C49.1812413,1443.24316 48.4679534,1421.55371 48.4679534,1400.89502 C48.4679534,1383.3504 49.1723555,1364.03508 50.3727472,1343.74555 C57.3497207,1225.69762 81.1499489,1074.55571 81.1499489,1045.38118 C81.1499489,1011.20152 55.270442,806.097726 55.270442,671.076284 C55.270442,536.054843 64.0706214,34.1166493 64.0706214,34.1166493 L64.1522093,3475.8261 Z M92.2822485,34.2790172 C92.2822485,34.2790172 106.40341,226.761737 81.1499489,397.613173 C55.8972953,568.464609 78.5577168,765.085691 96.3818364,881.306383 C114.214842,997.527882 96.6338702,1296.6322 83.1419851,1441.91513 C69.6412141,1587.18999 98.3997222,1694.87223 96.9650684,1766.65258 C95.520721,1838.441 69.8932479,2021.26001 69.8932479,2168.31283 C69.8932479,2315.35838 94.0852594,2481.09159 94.0852594,2694.73384 C94.0852594,2908.3769 69.8932479,3077.58608 69.8932479,3202.35411 C69.8932479,3323.01851 101.540451,3392.53702 103.81037,3475.8261 L92.2822485,34.2790172 Z M118.591505,34.0778748 C127.342409,87.7012923 128.376394,194.875425 120.938974,259.170696 C111.839908,337.79231 135.779078,428.372603 120.938974,578.781838 C106.089984,729.191073 128.593692,857.380138 120.938974,975.307712 C113.284256,1093.24336 115.650303,1376.96797 109.900379,1441.91513 C104.149647,1506.8631 138.658887,1628.21091 140.094349,1741.01945 C141.529002,1853.82072 127.150152,1903.38817 115.84983,2106.77781 C104.550316,2310.16746 134.344424,2428.10311 130.029154,2544.32461 C125.714691,2660.55419 92.8937535,2611.19515 103.941234,2740.88107 C114.988715,2870.55891 103.941234,3069.03874 103.941234,3173.30075 C103.941234,3264.93603 124.096666,3435.78747 128.976589,3475.8261 L118.591505,34.0778748 Z M189.594752,3486.09244 C189.594752,3486.09244 135.060135,3269.01381 135.060135,3131.42598 C135.060135,2993.83816 124.277613,2858.81349 127.152576,2735.75396 C130.028346,2612.69362 158.294903,2573.38281 156.382032,2503.30692 C154.46916,2433.23103 190.411438,1939.28037 186.098591,1785.45575 C181.785744,1631.63033 144.605107,1558.13582 140.192093,1440.2034 C135.779078,1322.27098 130.028346,1142.80839 132.904116,1036.8395 C135.779078,930.87141 152.903642,903.524937 156.562171,783.882403 C160.219892,664.240676 174.597127,618.093453 176.035012,419.830112 C177.472897,221.565964 163.602961,34.4438085 163.602961,34.4438085 L189.594752,3486.09244 Z M230.802275,40.8407812 C230.802275,40.8407812 280.986885,168.581517 268.047536,295.060467 C255.108186,421.539418 147.0172,871.184642 140.192093,1041.96741 C133.366985,1212.74938 199.037941,1257.3222 220.603792,1402.6019 C242.168836,1547.8816 207.664443,1614.53888 232.105257,1792.29217 C256.546071,1970.04545 291.064197,1932.11033 213.415175,2286.24202 C135.766153,2640.3729 131.33779,2749.42679 156.562171,2886.16077 C181.785744,3022.89394 193.287208,2942.56302 220.603792,3091.26052 C247.919569,3239.95803 204.935693,3221.01511 204.935693,3376.69201 C204.935693,3441.63998 226.99915,3485.06896 226.99915,3485.06896 L230.802275,40.8407812 Z M334.77267,40.8407812 C358.094681,87.9298998 397.147799,189.209512 370.120408,260.877578 C287.01954,481.280309 183.936917,743.29931 155.204258,1004.36914 C133.204618,1204.25778 231.328961,1272.4725 289.611772,1383.80034 C332.549603,1465.80987 239.297105,1611.11704 285.297309,1751.27286 C332.749938,1895.82312 344.249787,1987.13609 308.305892,2074.30423 C308.305892,2074.30423 169.409431,2514.47395 156.561363,2704.98726 C140.189669,2947.69094 276.676461,2998.96446 288.17631,3067.33266 C299.676159,3135.70086 270.926537,3096.38602 270.178513,3212.6156 C269.43049,3328.8371 288.17631,3475.8261 288.17631,3475.8261 L334.77267,40.8407812 Z M394.565261,47.2312915 C396.003146,117.307183 429.070462,168.581517 429.070462,228.40238 C429.070462,288.224051 370.124447,296.769773 315.492086,443.757973 C260.858918,590.74698 186.458062,898.397019 186.458062,1026.58447 C186.458062,1154.77192 210.539405,1130.84406 222.04087,1178.70059 C233.543142,1226.55712 222.04087,1238.52145 243.606721,1276.12376 C265.172573,1313.72526 332.744283,1298.34231 344.245748,1342.78104 C355.747212,1387.21895 329.868513,1363.29109 328.431436,1494.89716 C326.993551,1626.50322 345.683633,1710.25194 344.245748,1766.655 C342.807863,1823.05725 403.191763,1870.91459 345.683633,2036.70354 C288.175502,2202.49249 196.674316,2510.24431 186.458062,2694.73304 C176.242616,2879.22257 200.475826,2810.95696 219.165907,2867.35921 C237.855989,2923.76227 234.980219,2952.81805 255.108186,2975.03741 C275.236153,2997.25596 311.178431,2997.25596 334.182168,3041.69469 C357.185097,3086.13341 314.054201,3084.42411 318.367049,3176.71855 C322.680704,3269.01381 325.555666,3475.82368 325.555666,3475.82368 L394.565261,47.2312915 Z M421.881845,2031.57562 C391.690299,2031.57562 341.370785,2103.36082 322.680704,2250.34982 C303.990622,2397.33802 236.418104,2540.90842 222.04087,2672.51448 C207.664443,2804.12054 273.798268,2969.90949 349.99648,2969.90949 C426.194692,2969.90949 551.27534,2845.14065 551.27534,2470.83253 C551.27534,2417.84808 538.335991,2387.083 516.770139,2291.36994 C495.204287,2195.65607 470.763473,2031.57562 421.881845,2031.57562 Z M429.070462,2207.05091 C370.603472,2207.05091 286.396725,2417.84808 265.72107,2660.55015 C245.044606,2903.25221 372.520383,2890.71838 372.520383,2890.71838 C404.149815,2890.71838 470.284447,2841.72204 483.702822,2655.99254 C497.121198,2470.26303 480.82786,2444.05555 483.702822,2364.29413 C486.578592,2284.53271 466.450626,2207.05091 429.070462,2207.05091 Z M411.817458,2331.25024 C377.313064,2331.25024 303.845218,2425.48341 287.217451,2605.8572 C270.588876,2786.23018 318.846882,2826.9094 349.517454,2826.9094 C380.188834,2826.9094 442.488837,2752.8454 451.11534,2630.92406 C459.741034,2509.00434 435.779246,2524.95597 435.779246,2467.98342 C435.779246,2411.01166 453.990302,2331.25024 411.817458,2331.25024 Z M395.52412,2392.78041 C374.566542,2390.01208 316.683592,2477.37652 302.552737,2608.1352 C288.421074,2738.89468 320.763793,2761.96062 355.268186,2761.96062 C389.773388,2761.96062 416.610138,2709.54648 421.402819,2649.15612 C426.194692,2588.76495 412.776317,2591.04375 409.901355,2544.32622 C407.025585,2497.6095 430.028514,2397.33802 395.52412,2392.78041 Z M376.264539,2491.91208 C347.30812,2484.48597 320.763793,2617.25123 320.763793,2646.87651 C320.763793,2676.50178 317.888023,2728.91673 352.393224,2728.91673 C386.897618,2728.91673 397.441031,2681.0602 397.441031,2640.03928 C397.441031,2599.01998 384.439481,2580.89859 385.668953,2548.93876 C386.897618,2516.97975 389.593248,2495.32989 376.264539,2491.91208 Z M360.790311,2577.3378 C352.393224,2577.3378 336.099079,2612.69362 336.099079,2640.03928 C336.099079,2667.38656 344.666612,2687.89662 359.072927,2687.89662 C373.479242,2687.89662 379.397997,2653.71373 379.397997,2627.50626 C379.397997,2601.29878 371.105117,2577.3378 360.790311,2577.3378 Z M421.881845,332.545645 C391.690299,332.545645 341.370785,404.330843 322.680704,551.319042 C303.990622,698.308049 236.418104,841.877637 222.04087,973.483698 C207.664443,1105.08976 273.798268,1270.87952 349.99648,1270.87952 C426.194692,1270.87952 551.27534,1146.10987 551.27534,771.801745 C551.27534,718.818106 538.335991,688.053021 516.770139,592.339155 C495.204287,496.625289 470.763473,332.545645 421.881845,332.545645 Z M429.070462,508.020124 C370.603472,508.020124 286.396725,718.818106 265.72107,961.519364 C245.044606,1204.22143 372.520383,1191.6876 372.520383,1191.6876 C404.149815,1191.6876 470.284447,1142.69126 483.702822,956.961753 C497.121198,771.232246 480.82786,745.024772 483.702822,665.264159 C486.578592,585.502739 466.450626,508.020124 429.070462,508.020124 Z M411.817458,632.219461 C377.313064,632.219461 303.845218,726.452629 287.217451,906.826418 C270.588876,1087.20021 318.846882,1127.87862 349.517454,1127.87862 C380.188834,1127.87862 442.488837,1053.81462 451.11534,931.894086 C459.741034,809.973553 435.779246,825.925999 435.779246,768.95344 C435.779246,711.980882 453.990302,632.219461 411.817458,632.219461 Z M395.52412,693.749631 C374.566542,690.982106 316.683592,778.346545 302.552737,909.105224 C288.421074,1039.8639 320.763793,1062.93065 355.268186,1062.93065 C389.773388,1062.93065 416.610138,1010.5157 421.402819,950.125337 C426.194692,889.734974 412.776317,892.013779 409.901355,845.296249 C407.025585,798.578719 430.028514,698.308049 395.52412,693.749631 Z M376.264539,792.881301 C347.30812,785.45519 320.763793,918.220445 320.763793,947.846531 C320.763793,977.471809 317.888023,1029.88676 352.393224,1029.88676 C386.897618,1029.88676 397.441031,982.02942 397.441031,941.010115 C397.441031,899.990002 384.439481,881.868612 385.668953,849.90879 C386.897618,817.949776 389.593248,796.299913 376.264539,792.881301 Z M360.790311,878.308635 C352.393224,878.308635 336.099079,913.662834 336.099079,941.010115 C336.099079,968.356588 344.666612,988.866644 359.072927,988.866644 C373.479242,988.866644 379.397997,954.682947 379.397997,928.475474 C379.397997,902.268807 371.105117,878.308635 360.790311,878.308635 Z M385.08249,3475.8261 C380.855269,3422.87801 365.475554,3374.92777 359.072927,3310.03715 C352.331024,3241.66895 340.057302,3057.03967 410.379573,3004.09157 C480.709921,2951.14348 513.896792,2892.99638 551.276148,2792.1554 C588.655504,2691.31362 572.841192,2569.96501 580.026578,2500.74458 C587.220042,2431.52334 591.535313,2358.02883 551.276148,2281.1141 C511.017791,2204.19937 534.026375,2140.96636 469.09698,2038.41042 C404.17728,1935.86256 371.564755,1761.52627 357.750558,1669.23102 C343.93636,1576.93738 357.185097,1453.87462 376.262115,1378.67404 C395.347212,1303.47346 469.323164,1284.66544 535.461836,1151.35815 C601.590814,1018.04198 582.905579,802.685577 585.776502,715.517433 C588.655504,628.349289 555.590611,616.381723 531.146565,551.434558 C506.70252,486.487392 535.461836,476.233979 506.70252,406.159703 C477.952898,336.078157 473.542307,406.473938 452.987014,284.803824 C432.430912,163.141787 452.987014,47.2345227 452.987014,47.2345227 L385.08249,3475.8261 Z M405.551348,3475.8261 C406.3955,3462.47397 406.3955,3432.26223 397.444262,3376.69039 C384.500066,3296.36351 367.249484,3159.62711 397.444262,3106.63943 C427.629346,3053.65902 551.797987,2937.31716 586.1594,2737.46084 C608.785086,2605.85962 613.099549,2488.93776 603.035162,2392.71579 C592.969967,2296.49382 545.526223,2117.03123 512.452445,2043.53672 C479.38836,1970.04222 398.878916,1864.07413 397.444262,1686.3257 C395.999915,1508.56918 380.036967,1419.69496 494.411027,1277.83226 C608.785086,1135.97036 601.782263,958.221922 608.158233,818.065292 C614.535011,677.917547 551.276148,407.632324 506.70252,332.544837 C462.137778,257.456543 465.008702,100.214123 475.073089,47.2345227 L405.551348,3475.8261 Z M439.390114,3475.8261 C433.736318,3433.04256 411.440215,3239.27867 452.987014,3115.18596 C499.908917,2975.03822 582.905579,2910.09105 591.535313,2826.90617 C600.155353,2743.73018 640.414517,2607.5657 640.588194,2515.27125 C640.753794,2422.97681 627.470321,2455.45039 614.535011,2281.1141 C601.590814,2106.77781 480.823013,1920.48285 443.443658,1793.99986 C406.064302,1667.52575 416.129497,1472.67456 508.390016,1329.10659 C600.642456,1185.53781 617.405934,1031.71643 615.970472,966.760374 C614.535011,901.813208 631.784784,862.50644 638.979056,801.712177 C646.164442,740.917106 628.914668,575.36161 594.405428,508.024163 C559.896996,440.677829 539.776299,346.33884 516.767715,242.076828 C497.77794,155.995176 516.751559,67.6112921 523.69299,41.4232054 L439.390114,3475.8261 Z M1360.5243,40.2599726 C1349.28456,64.38736 1324.01252,84.5775275 1332.92902,179.978775 C1347.16974,332.447901 1365.5157,508.136447 1365.01082,640.397634 C1371.27451,725.859703 1381.33889,744.659646 1381.33889,896.774956 C1381.33889,1048.89027 1355.85117,1274.50089 1355.85117,1347.99539 C1355.85117,1421.48989 1363.03656,1448.83637 1365.01082,1549.67815 C1366.95924,1650.51993 1371.66548,1734.26785 1371.66548,1927.40327 C1371.66548,2120.54031 1357.28663,2265.81517 1357.28663,2358.10881 C1357.28663,2450.40406 1381.33889,2604.23352 1381.33889,2723.87606 C1381.33889,2843.51778 1348.66578,3045.20054 1348.66578,3079.3802 C1348.66578,3113.56874 1374.53641,3318.66446 1374.53641,3453.6859 C1374.53641,3460.27675 1374.51863,3467.68913 1374.49278,3475.8261 L1360.5243,40.2599726 Z M1302.19948,42.5864382 C1293.6481,83.4134868 1275.89022,108.222658 1295.54967,208.460207 C1325.21291,359.723287 1326.22266,543.459143 1325.8745,640.397634 C1326.07483,727.565778 1359.92248,797.639246 1359.92248,922.408083 C1359.92248,1047.17611 1335.72159,1216.3861 1335.72159,1430.03642 C1335.72159,1643.67867 1359.92248,1809.40381 1359.92248,1956.45744 C1359.92248,2103.4941 1334.28613,2286.32926 1332.85066,2358.10881 C1331.40712,2429.89723 1360.16563,2537.5722 1346.66486,2682.85514 C1333.18186,2828.13807 1315.59201,3127.24238 1333.42501,3243.46388 C1342.71552,3304.06508 1353.31952,3386.5496 1357.78181,3475.8261 L1302.19948,42.5864382 Z M1275.09858,47.2345227 C1277.57772,130.305502 1215.29306,305.108699 1218.86839,428.372603 C1222.70463,560.55301 1279.25714,549.157368 1299.77769,640.397634 C1299.77769,640.397634 1325.8745,847.207505 1325.8745,951.469517 C1325.8745,1055.72345 1314.81813,1254.1952 1325.8745,1383.8892 C1336.9139,1513.55896 1304.09216,1464.21689 1299.77769,1580.43839 C1295.46323,1696.66716 1325.25653,1814.59473 1313.95702,2017.98438 C1302.65669,2221.3821 1288.27784,2270.94147 1289.71331,2383.75082 C1291.15685,2496.55128 1325.6572,2617.90797 1319.90728,2682.85514 C1314.15654,2747.8023 1316.53148,3031.5269 1308.86787,3149.45448 C1302.43051,3248.61442 1317.32312,3355.03326 1313.38267,3475.8261 L1275.09858,47.2345227 Z M1222.70463,47.2345227 C1238.04153,93.3817459 1210.24835,268.852993 1204.48954,373.68612 C1198.73961,478.511169 1214.07571,558.275821 1243.7131,648.944164 C1243.7131,648.944164 1294.74994,855.754035 1294.74994,993.343475 C1294.74994,1130.93211 1305.52762,1265.95355 1302.65669,1389.01631 C1299.77769,1512.07827 1271.51437,1551.38423 1273.42885,1621.4585 C1275.34253,1691.54086 1239.39783,2185.48748 1243.7131,2339.30967 C1248.01868,2493.13913 1285.1977,2566.63364 1289.61718,2684.56121 C1294.02777,2802.49686 1299.77769,2981.95945 1296.90677,3087.92754 C1294.02777,3193.89563 1276.90805,3221.24291 1273.23741,3340.88463 C1271.63635,3393.72771 1267.92208,3432.22184 1264.1553,3475.8261 L1222.70463,47.2345227 Z M1178.61811,47.2345227 C1178.61811,201.62783 1127.81634,288.224051 1130.68726,410.143776 C1133.56707,532.0635 1174.78267,587.900291 1207.7684,648.944164 C1207.7684,648.944164 1224.87923,683.12463 1224.87923,748.071796 C1224.87923,903.744659 1181.8897,884.80739 1209.20386,1033.51055 C1236.51883,1182.20563 1248.01868,1101.87067 1273.23741,1238.60627 C1298.4731,1375.34267 1294.04473,1484.38525 1216.38925,1838.52178 C1138.74265,2192.65025 1173.25997,2154.71997 1197.70401,2332.47649 C1222.14806,2510.22492 1187.63963,2576.88705 1209.20386,2722.16917 C1230.76891,2867.44403 1296.44632,2912.0225 1289.61718,3082.80043 C1286.17272,3168.75364 1257.08301,3325.35224 1227.39392,3475.8261 L1178.61811,47.2345227 Z M1151.68685,47.2345227 C1144.43199,153.033779 1099.68388,201.667412 1104.81664,332.544837 C1110.56657,479.420752 1121.10998,584.480063 1141.63054,648.944164 C1155.8446,693.578377 1160.37716,795.933172 1159.62914,912.154671 C1158.88031,1028.37617 1130.13069,989.069402 1141.63054,1057.4376 C1153.13039,1125.8058 1289.61718,1177.07933 1273.23741,1419.77493 C1260.39742,1610.27935 1121.50095,2050.46604 1121.50095,2050.46604 C1085.56595,2137.6261 1097.04883,2228.93099 1144.50954,2373.49741 C1190.50974,2513.64515 1097.26613,2658.96039 1140.19508,2740.96992 C1198.47869,2852.28161 1296.60223,2920.51329 1274.60259,3120.40193 C1261.44109,3240.04285 1231.64537,3366.21322 1196.32752,3482.16087 L1151.68685,47.2345227 Z M1092.74245,47.2345227 C1078.32805,89.9776743 1065.72394,120.181338 1077.77148,272.273221 C1091.94192,451.164696 1100.9804,550.299598 1104.25118,648.944164 C1104.25118,648.944164 1107.13099,855.754035 1111.43657,948.049289 C1115.75103,1040.34374 1072.62175,1038.63766 1095.62226,1083.07073 C1118.63084,1127.51188 1154.57473,1127.51188 1174.69543,1149.73205 C1194.82501,1171.95303 1191.95409,1201.00638 1210.63932,1257.40621 C1229.33344,1313.80685 1253.56019,1245.54366 1243.34717,1430.03642 C1233.12607,1614.52111 1141.63054,1922.27697 1084.1216,2088.06592 C1026.61266,2253.85487 1087.00141,2301.70898 1085.56595,2358.10881 C1084.1216,2414.51833 1102.81572,2498.26544 1101.38026,2629.86665 C1099.93672,2761.47594 1074.05721,2737.54889 1085.56595,2781.99084 C1097.0658,2826.42392 1164.63912,2811.04339 1186.20416,2848.64409 C1207.7684,2886.24478 1196.26855,2898.21234 1207.7684,2946.06564 C1219.26906,2993.92702 1243.34717,2969.99189 1243.34717,3098.18095 C1243.34717,3180.2543 1211.05615,3341.63993 1174.77298,3481.57926 L1092.74245,47.2345227 Z M1007.925,2093.18738 C1038.11655,2093.18738 1088.43687,2021.40218 1107.12695,1874.41398 C1125.81703,1727.42578 1193.38874,1583.85539 1207.76598,1452.24932 C1222.1424,1320.64326 1156.00858,1154.85351 1079.81037,1154.85351 C1003.61215,1154.85351 878.532315,1279.62315 878.532315,1653.93128 C878.532315,1706.91572 891.471664,1737.68081 913.036708,1833.39387 C934.60256,1929.10693 959.043374,2093.18738 1007.925,2093.18738 Z M1000.73638,1917.7129 C1059.20337,1917.7129 1143.41012,1706.91572 1164.08658,1464.21366 C1184.76224,1221.51159 1057.28646,1234.04543 1057.28646,1234.04543 C1025.65703,1234.04543 959.5224,1283.04176 946.104025,1468.77127 C932.685649,1654.50078 948.979795,1680.70825 946.104025,1760.46967 C943.228255,1840.23028 963.356221,1917.7129 1000.73638,1917.7129 Z M1017.98939,1793.51356 C1052.49378,1793.51356 1125.96244,1699.28039 1142.5902,1518.9066 C1159.21797,1338.53281 1110.96077,1297.8544 1080.28939,1297.8544 C1049.61882,1297.8544 987.31801,1371.9184 978.692315,1493.83894 C970.065813,1615.75947 994.027601,1599.80783 994.027601,1656.77958 C994.027601,1713.75214 975.816545,1793.51356 1017.98939,1793.51356 Z M1034.28273,1731.98339 C1055.2403,1734.75092 1113.12325,1647.38648 1127.25411,1516.6278 C1141.38577,1385.86912 1109.04386,1362.80237 1074.53866,1362.80237 C1040.03427,1362.80237 1013.19671,1415.21732 1008.40484,1475.60769 C1003.61215,1535.99805 1017.03053,1533.71924 1019.9063,1580.43677 C1022.78126,1627.1543 999.778333,1727.42578 1034.28273,1731.98339 Z M1053.54231,1632.85091 C1082.49873,1640.27702 1109.04386,1507.51258 1109.04386,1477.88649 C1109.04386,1448.26121 1111.91882,1395.84626 1077.41443,1395.84626 C1042.90923,1395.84626 1032.36582,1443.70279 1032.36582,1484.72371 C1032.36582,1525.74302 1045.36737,1543.86441 1044.1387,1575.82423 C1042.90923,1607.78325 1040.2136,1629.43311 1053.54231,1632.85091 Z M1069.01654,1547.42439 C1077.41443,1547.42439 1093.70777,1512.07019 1093.70777,1484.72371 C1093.70777,1457.37643 1085.14024,1436.86638 1070.73392,1436.86638 C1056.3276,1436.86638 1050.40885,1471.05007 1050.40885,1497.25755 C1050.40885,1523.46421 1058.70173,1547.42439 1069.01654,1547.42439 Z M901.535244,3484.48734 C888.129793,3430.11509 878.530699,3393.81657 878.530699,3352.96529 C878.530699,2978.65959 1003.61296,2853.89156 1079.80714,2853.89156 C1156.01019,2853.89156 1222.14806,3019.68051 1207.7684,3151.2898 C1196.59086,3253.57997 1153.2871,3363.08945 1125.78149,3475.8261 L901.535244,3484.48734 Z M945.843105,3475.8261 C945.817255,3470.4098 945.904498,3464.96118 946.104025,3459.50449 C948.983834,3379.73257 932.690496,3353.53641 946.104025,3167.7964 C959.518361,2982.08062 1025.65622,2933.07621 1057.28566,2933.07621 C1057.28566,2933.07621 1184.75982,2920.54561 1164.09143,3163.24929 C1153.96565,3282.08564 1128.61687,3393.26969 1098.50126,3475.8261 L945.843105,3475.8261 Z M994.975151,3475.8261 C984.632073,3449.38841 994.026793,3396.73031 994.026793,3355.80552 C994.026793,3298.84184 970.069852,3314.7846 978.699585,3192.87376 C987.319625,3070.95403 1049.62205,2996.88034 1080.28535,2996.88034 C1110.96724,2996.88034 1159.21959,3037.55471 1142.59586,3217.94304 C1130.0176,3354.30866 1080.9631,3452.73108 1044.81079,3487.12885 L994.975151,3475.8261 Z M1034.28273,3431.01337 C1055.2403,3433.7817 1113.12325,3346.41726 1127.25411,3215.65858 C1141.38577,3084.89909 1109.04386,3061.83235 1074.53866,3061.83235 C1040.03427,3061.83235 1013.19671,3114.2473 1008.40484,3174.63847 C1003.61215,3235.02883 1017.03053,3232.75003 1019.9063,3279.46675 C1022.78126,3326.18428 999.778333,3426.45576 1034.28273,3431.01337 Z M1053.54231,3331.8817 C1082.49873,3339.30781 1109.04386,3206.54255 1109.04386,3176.91727 C1109.04386,3147.29119 1111.91882,3094.87705 1077.41443,3094.87705 C1042.90923,3094.87705 1032.36582,3142.73358 1032.36582,3183.75369 C1032.36582,3224.7738 1045.36737,3242.89519 1044.1387,3274.85421 C1042.90923,3306.81403 1040.2136,3328.46308 1053.54231,3331.8817 Z M1069.01654,3246.45517 C1077.41443,3246.45517 1093.70777,3211.10097 1093.70777,3183.75369 C1093.70777,3156.40722 1085.14024,3135.89716 1070.73392,3135.89716 C1056.3276,3135.89716 1050.40885,3170.08005 1050.40885,3196.28752 C1050.40885,3222.495 1058.70173,3246.45517 1069.01654,3246.45517 Z M1045.49015,47.2345227 C1050.70047,99.0557371 1047.17765,190.368706 1059.24296,332.544837 C1076.92813,540.956576 1060.19939,548.255862 1044.14113,640.397634 C1039.63521,721.215658 1063.99282,746.365721 1070.74281,814.733922 C1077.46694,883.101316 1089.75924,1067.72252 1019.42727,1120.67062 C949.096926,1173.62679 915.910055,1231.77389 878.530699,1332.61487 C841.151343,1433.44857 856.966463,1554.80526 849.781077,1624.02569 C842.586805,1693.24693 838.28042,1766.74143 878.530699,1843.65617 C918.789864,1920.56282 895.789358,1983.80391 960.709867,2086.35177 C1025.62149,2188.90771 1058.24209,2363.24399 1072.06518,2455.53925 C1085.87937,2547.83289 1072.62175,2670.88757 1053.54473,2746.09623 C1034.46852,2821.2968 960.483683,2840.09756 894.345819,2973.41211 C828.216033,3106.72829 846.901268,3322.08469 844.030345,3409.25283 C843.073909,3438.14544 846.074888,3458.77989 851.399101,3475.8261 L1045.49015,47.2345227 Z M1012.17323,47.2345227 C1023.07288,135.988379 990.938572,254.084783 988.355226,344.624687 C985.484302,445.466471 1044.4287,479.654207 1025.17801,640.397634 C1025.17801,640.397634 1019.42727,667.744915 1032.36339,748.071796 C1045.30678,828.406755 1062.55736,965.143157 1032.36339,1018.12276 C1002.1775,1071.11124 877.999974,1187.45311 843.657141,1387.30135 C821.021761,1518.91064 816.716184,1635.8325 826.771685,1732.0464 C836.836881,1828.26837 884.280624,2007.73096 917.354402,2081.22547 C950.419295,2154.71997 1030.92793,2260.68806 1032.36339,2438.44457 C1033.80693,2616.19382 1049.76099,2705.07531 935.39582,2846.93801 C821.021761,2988.79264 828.024584,3166.54915 821.639728,3306.70498 C819.551564,3352.84412 824.997755,3413.07535 834.85373,3475.8261 L1012.17323,47.2345227 Z M955.08192,47.2345227 C965.35472,64.5456889 975.602478,109.421434 968.712747,227.832073 C960.083013,375.964118 977.333595,570.806423 989.233305,640.397634 C989.233305,640.397634 1023.74255,869.427675 976.811755,1009.57623 C929.89793,1149.73205 846.901268,1214.68002 838.28042,1297.84794 C829.651494,1381.03201 789.39233,1517.20457 789.227538,1609.49901 C789.053053,1701.79346 802.336526,1669.31988 815.271837,1843.65617 C828.216033,2017.98438 948.983834,2204.28742 986.363189,2330.76233 C1023.74255,2457.24532 1013.67735,2652.08763 921.416831,2795.65641 C829.164391,2939.23246 812.401721,3093.05384 813.836375,3158.00182 C815.271837,3222.94979 798.022063,3262.26383 790.836677,3323.05809 C787.061017,3354.92825 790.019183,3415.59488 798.656994,3475.8261 L955.08192,47.2345227 Z M530.032609,3486.63609 C530.032609,3486.63609 552.735036,3386.37754 527.815196,3259.89859 C502.894548,3133.41964 533.520691,3050.24041 551.27534,3019.47533 C569.029181,2988.71024 615.035847,2882.74216 631.329184,2750.56659 C647.62333,2618.39023 691.713085,2556.86087 663.917475,2431.52172 C636.121865,2306.18177 579.572594,2021.32059 579.572594,2021.32059 C563.278449,1946.11759 505.212936,1800.26839 518.430977,1676.06905 C531.649017,1551.86891 534.277601,1326.25909 586.158592,1246.49767 C638.038776,1166.73625 630.371133,1052.79194 647.62333,969.612718 C664.875526,886.432685 682.128531,800.974655 660.083653,708.679401 C638.038776,616.384147 577.654875,356.590637 573.821862,279.108022 C569.987232,201.626214 568.070322,47.2312915 568.070322,47.2312915 L530.032609,3486.63609 Z M595.083981,3475.8261 C599.94694,3385.04386 626.00901,3379.85374 608.602523,3240.62285 C590.673389,3097.1502 609.281076,2908.94801 631.332416,2853.89156 C653.375678,2798.83429 691.712277,2654.85596 693.625957,2521.54059 C695.548522,2388.22523 615.039886,2127.29191 600.660228,2031.57724 C586.28057,1935.86256 578.616966,1834.44885 597.659249,1745.00352 C616.700724,1655.55819 604.496473,1467.54826 598.737663,1386.64946 C592.987738,1305.75146 610.246397,1261.3095 647.625753,1116.59849 C685.005109,971.895562 683.082543,909.224778 683.569647,766.790958 C684.048673,624.357946 656.246601,419.262228 640.588194,313.294142 C624.92171,207.325247 630.367094,47.2345227 630.367094,47.2345227 L595.083981,3475.8261 Z M662.000564,3475.82368 C654.332921,3388.65634 641.872597,3202.92603 664.875526,3046.8218 C687.879263,2890.71838 714.716014,2724.35912 710.882192,2587.62514 C707.048371,2450.89197 700.339587,2266.30146 700.339587,2195.65607 C700.339587,2125.01068 624.620401,1892.56364 646.665278,1663.53522 C668.709348,1434.50598 715.452728,1072.16219 711.250549,1000.3778 C707.048371,928.592605 704.173409,563.970007 687.879263,415.842001 C671.585118,267.713187 685.354079,40.8407812 685.354079,40.8407812 L662.000564,3475.82368 Z M706.639624,3475.8261 C700.497916,3435.83513 676.78493,3262.82686 700.341203,3111.77381 C727.177953,2939.71552 715.678104,2665.10856 731.970634,2447.47417 C748.263971,2229.83977 685.005109,1942.70302 683.569647,1793.51679 C682.126108,1644.33137 701.298446,1423.11519 704.16937,1327.40051 C707.048371,1231.68503 757.850141,1063.04697 745.38497,974.172752 C732.927878,885.290455 725.255388,725.770845 734.841557,646.007001 C744.427727,566.251236 717.591784,475.090941 711.519547,312.151104 C705.439232,149.210459 729.091633,47.2345227 729.091633,47.2345227 L706.639624,3475.8261 Z M791.219575,47.2345227 C831.687152,228.411266 789.253388,599.996297 775.099914,643.729004 C760.721064,688.170152 775.099914,829.461742 789.218653,1018.60582 C803.345469,1207.75798 717.591784,1547.3121 711.519547,1757.5422 C705.439232,1967.76503 779.893403,2041.83065 796.18674,2174.00298 C812.47927,2306.18338 765.513745,2618.39023 757.850141,2687.89339 C750.177651,2757.40382 741.556803,2979.5934 752.100216,3094.87301 C762.643629,3210.16069 738.677802,3331.68621 757.850141,3475.8261 L791.219575,47.2345227 Z M821.196246,47.2345227 C824.458145,168.582324 854.652114,291.644279 850.337651,448.886699 C846.023189,606.129119 806.460348,652.276342 808.269013,831.738932 C810.087372,1011.20152 837.967801,1151.35815 808.208428,1315.43295 C778.457941,1479.51582 752.483114,1557.28359 759.720199,1732.0464 C766.949206,1906.80921 792.062918,2050.37718 821.196246,2142.67243 C850.337651,2234.96688 853.904091,2488.46278 808.269013,2632.61883 C762.643629,2776.77488 776.822953,3040.78187 789.218653,3151.08058 C801.623238,3261.37848 764.079091,3294.64936 768.393554,3385.23773 C770.733752,3434.39482 778.676855,3468.3281 783.618171,3482.74249 L821.196246,47.2345227 Z" id="Stroke-2" stroke="#FFFFFF" stroke-width="6"></path>
                <polygon id="Fill-29" fill="#FFFFFF" points="256.198798 2396.48983 1174.76498 2396.48983 1174.76498 1284.37706 256.198798 1284.37706"></polygon>
                <polygon id="Fill-30" fill="#000000" points="280.324569 2376.60825 1150.64002 2376.60825 1150.64002 1304.25703 280.324569 1304.25703"></polygon>
                <g id="Group-49" transform="translate(372.396063, 1437.885014)" fill="#FFFFFF">
                    <path d="M33.1233777,546.128439 C30.6022321,546.128439 29.0076338,544.070971 29.0076338,536.456643 C29.0076338,534.399174 29.0076338,531.929728 29.059333,529.408583 C31.8373592,529.357691 34.5127947,529.408583 37.0848317,529.460282 L37.9588719,521.280493 C35.592824,521.743363 32.4545188,522.206233 29.2136229,522.51562 C29.2653222,519.685895 29.3679128,516.959568 29.5222027,514.798701 L23.7601613,514.798701 L12.8540458,523.85253 L11.7223172,530.18084 C13.2660241,530.02655 14.8606224,529.871452 16.4552207,529.768862 C16.50692,531.05488 16.50692,532.340899 16.50692,533.884606 C16.50692,538.206339 16.0949417,543.247822 16.0949417,546.128439 C16.0949417,550.655353 19.439236,553.947948 21.7026932,555.337365 L37.9588719,551.273321 L36.621962,545.048409 C35.7988132,545.76816 34.8722659,546.128439 33.1233777,546.128439 M73.8672228,546.591308 C72.3235159,546.591308 71.3977765,545.871558 71.3977765,537.48578 C71.3977765,531.260869 71.7063563,527.607995 72.2209253,523.647349 L61.00623,520.251355 C54.4727389,521.280493 48.8132882,522.720802 43.7718048,524.573088 C40.5826081,526.630556 39.3474811,532.752877 39.3474811,539.800937 C39.3474811,545.92245 42.2797971,551.89048 47.4755704,554.205637 L53.8038801,554.205637 C55.8613481,551.942179 57.405055,550.707052 59.7202114,549.266744 L59.7711029,554.102238 C62.3431399,553.845358 63.063698,553.691068 66.7674636,553.691068 C70.2660479,553.691068 72.6329036,553.896249 74.5877809,554.205637 L75.3592305,546.437019 C74.9472522,546.540417 74.5360817,546.591308 73.8672228,546.591308 M51.5913143,537.228092 C51.5913143,532.340899 52.4144631,528.997412 53.3410103,526.373676 L59.2056425,528.431144 C59.5142223,533.524326 59.5659215,539.286368 59.3599324,544.99671 C58.5367836,545.356989 57.6102364,545.562978 56.6327977,545.562978 C53.1350212,545.562978 51.5913143,542.681554 51.5913143,537.228092 M90.894851,527.094234 C89.9174123,528.843122 89.3511441,531.312569 89.3511441,535.736892 C89.3511441,541.292945 91.9748804,545.665569 95.4734647,545.665569 C98.8686505,545.665569 100.720937,544.68813 102.521525,543.247822 L103.755844,549.472733 C97.7369219,551.993071 91.6663006,553.741959 85.6473785,554.719398 C79.7827464,552.04477 76.4901513,545.871558 76.4901513,538.25723 C76.4901513,531.621148 78.0330504,528.122564 80.039627,525.447936 C84.4639507,522.463921 90.1742929,520.920214 96.0389251,520.920214 C98.7660598,520.920214 101.492387,521.434783 104.218714,522.309631 L103.292974,532.855468 L97.068063,532.855468 C97.068063,529.049111 95.4734647,526.836546 93.0557176,526.836546 C92.1291703,526.836546 91.4603114,526.888245 90.894851,527.094234 M132.050674,520.251355 C124.282056,520.869323 117.079707,522.463921 110.391926,524.984259 C108.128468,527.557104 106.276182,532.598587 106.276182,538.25723 C106.276182,546.385319 109.980755,552.559339 115.022238,555.233967 C122.12119,554.565108 129.118358,553.124799 135.90873,550.758752 C139.407314,547.723037 140.641634,542.012695 140.641634,536.302353 C140.641634,529.614572 138.584165,523.235371 132.050674,520.251355 M125.980053,547.929026 C124.590636,548.289305 123.304618,548.237606 122.27548,547.774736 C119.240573,546.540417 118.726004,542.527264 118.726004,538.154639 C118.726004,533.318337 119.240573,530.7463 120.989461,528.122564 C122.533168,527.607995 123.973477,527.557104 125.053506,528.225963 C127.111782,529.562872 127.934931,533.318337 127.934931,538.7201 C127.934931,542.681554 127.420362,545.511279 125.980053,547.929026 M189.771256,546.591308 C188.227549,546.591308 187.30181,545.871558 187.30181,537.48578 C187.30181,531.260869 187.61039,527.607995 188.124959,523.647349 L176.910264,520.251355 C170.376773,521.280493 164.717322,522.720802 159.675838,524.573088 C156.486642,526.630556 155.251515,532.752877 155.251515,539.800937 C155.251515,545.92245 158.183831,551.89048 163.380412,554.205637 L169.707914,554.205637 C171.765382,551.942179 173.309089,550.707052 175.624245,549.266744 L175.675136,554.102238 C178.247981,553.845358 178.967732,553.691068 182.671497,553.691068 C186.170081,553.691068 188.536937,553.896249 190.491814,554.205637 L191.263264,546.437019 C190.851286,546.540417 190.440115,546.591308 189.771256,546.591308 M167.495348,537.228092 C167.495348,532.340899 168.318497,528.997412 169.245044,526.373676 L175.109676,528.431144 C175.418256,533.524326 175.469955,539.286368 175.263966,544.99671 C174.440817,545.356989 173.515078,545.562978 172.536831,545.562978 C169.039055,545.562978 167.495348,542.681554 167.495348,537.228092 M231.749421,546.282729 C230.926272,545.562978 230.257413,542.116093 230.257413,538.926089 C230.257413,534.913743 230.411703,531.827137 230.411703,528.637133 C230.411703,524.829969 227.068216,521.692472 224.186792,521.280493 L216.316391,521.280493 C214.309814,523.801639 211.892067,526.167687 209.164932,528.225963 L208.341784,521.228794 C205.821446,521.589073 203.45459,521.743363 201.088542,521.743363 C198.721687,521.743363 196.355639,521.589073 194.040482,521.280493 L193.114743,529.562872 C193.525913,529.460282 193.937892,529.408583 194.605943,529.408583 C196.14965,529.408583 197.229679,531.260869 197.229679,537.48578 C197.229679,544.482141 196.30394,546.591308 194.761041,546.591308 C193.988783,546.591308 193.423323,546.540417 193.011344,546.437019 L192.291594,554.205637 C194.605943,553.896249 198.207118,553.691068 201.808293,553.691068 C205.461167,553.691068 208.908052,553.845358 211.942959,554.205637 L212.715216,546.437019 C212.148948,546.643008 211.531788,546.745598 210.96552,546.591308 C210.09148,546.282729 209.370922,544.070971 209.370922,537.48578 C209.370922,535.993773 209.370922,534.553464 209.319222,533.164047 C211.068918,532.238308 212.766107,531.621148 214.772684,531.621148 C216.83096,531.621148 218.528149,533.884606 218.528149,539.543249 C218.528149,542.166985 218.425558,546.07674 217.55071,546.488718 C217.13954,546.694707 216.264692,546.591308 215.852713,546.437019 L215.287253,554.153937 C219.763276,553.947948 221.408766,553.587669 223.673031,553.587669 C226.501948,553.587669 230.669391,553.947948 232.830258,554.256528 L233.601708,546.488718 C232.932849,546.643008 232.315689,546.745598 231.749421,546.282729 M269.509251,546.591308 C267.966352,546.591308 267.039804,543.144423 267.039804,531.827137 C267.039804,525.653118 268.068942,518.450768 269.25237,513.306694 C266.526043,513.666973 263.902307,513.821263 261.072581,513.821263 C257.368816,513.821263 256.596559,513.666973 252.378224,513.306694 L251.606774,519.737594 C252.121343,519.634196 252.532514,519.582496 253.047083,519.582496 C254.024522,519.582496 254.59079,520.765924 254.84767,522.97849 C249.085629,523.74994 243.992446,524.829969 239.413833,526.065096 C236.224636,528.122564 234.990317,533.987196 234.990317,539.800937 C234.990317,545.92245 237.922633,551.89048 243.118406,554.205637 L249.445908,554.205637 C251.503376,551.942179 253.047083,550.707052 255.362239,549.266744 L255.413938,554.102238 C257.985976,553.845358 258.705726,553.691068 262.410299,553.691068 C265.908076,553.691068 268.274931,553.896249 270.229809,554.205637 L271.001258,546.437019 C270.590088,546.540417 270.17811,546.591308 269.509251,546.591308 M247.23415,537.228092 C247.23415,533.421736 248.005599,530.540311 248.983038,528.019973 L255.104551,530.077441 C255.104551,534.193185 254.950261,539.286368 254.950261,545.202699 C254.076221,545.61387 253.201373,545.871558 252.223934,545.871558 C248.777049,545.871558 247.23415,542.064394 247.23415,537.228092 M305.777881,546.128439 C303.256735,546.128439 301.662137,544.070971 301.662137,536.456643 C301.662137,534.399174 301.662137,531.929728 301.713836,529.408583 C304.491862,529.357691 307.16649,529.408583 309.738527,529.460282 L310.613375,521.280493 C308.247327,521.743363 305.109022,522.206233 301.868126,522.51562 C301.919017,519.685895 302.022416,516.959568 302.176706,514.798701 L296.414664,514.798701 L285.508549,523.85253 L284.37682,530.18084 C285.919719,530.02655 287.514318,529.871452 289.109724,529.768862 C289.160615,531.05488 289.160615,532.340899 289.160615,533.884606 C289.160615,538.206339 288.749445,543.247822 288.749445,546.128439 C288.749445,550.655353 292.092931,553.947948 294.357196,555.337365 L310.613375,551.273321 L309.275657,545.048409 C308.452508,545.76816 307.526769,546.128439 305.777881,546.128439 M350.790952,546.282729 C349.968611,545.61387 349.299752,542.116093 349.299752,538.926089 C349.299752,534.913743 349.454042,531.827137 349.454042,528.637133 C349.454042,524.829969 346.109747,521.692472 343.229131,521.280493 L335.357922,521.280493 C333.814215,523.44136 331.448167,525.704817 328.464152,528.019973 C328.670141,522.412222 329.18471,516.85617 329.75017,513.254995 C323.782948,514.026444 318.483776,514.026444 313.133713,513.306694 L312.362263,521.589073 C312.773434,521.486482 313.185412,521.434783 313.854271,521.434783 C315.294579,521.434783 316.117728,524.573088 316.117728,533.318337 C316.117728,543.504703 315.294579,546.591308 313.854271,546.591308 C313.185412,546.591308 312.773434,546.540417 312.362263,546.437019 L311.641705,554.205637 C313.905162,553.896249 317.197757,553.691068 320.592943,553.691068 C324.143227,553.691068 327.641003,553.845358 330.573319,554.205637 L331.344769,546.437019 C330.933598,546.540417 330.522428,546.591308 329.853569,546.591308 C328.772732,546.591308 328.361561,542.064394 328.361561,533.318337 L328.361561,533.164047 C330.110449,532.238308 331.808446,531.621148 333.814215,531.621148 C335.872491,531.621148 337.56968,533.884606 337.56968,539.543249 C337.56968,542.166985 337.467089,546.07674 336.592241,546.488718 C336.181071,546.694707 335.306223,546.591308 334.895052,546.437019 L334.328784,554.153937 C338.804807,553.947948 340.451104,553.587669 342.714562,553.587669 C345.544287,553.587669 349.710922,553.947948 351.871789,554.256528 L352.643238,546.488718 C351.97438,546.643008 351.35722,546.745598 350.790952,546.282729 M375.689789,545.871558 C371.728335,545.871558 368.847718,544.276152 367.407409,541.858405 L385.309886,537.64007 C385.309886,530.64371 383.766987,523.44136 378.673804,520.251355 C371.162874,521.023613 364.320804,522.566512 358.301881,524.933367 C355.832435,527.711394 354.031848,533.009758 354.031848,539.800937 C354.031848,547.208468 357.118454,552.81622 362.674506,555.233967 C369.927747,554.308227 377.387786,552.610231 385.155596,549.935603 L384.075566,542.990134 C381.812109,544.945011 379.702942,545.871558 375.689789,545.871558 M373.9409,535.376613 L366.48167,537.022911 C366.63596,532.135717 367.767689,528.637133 369.927747,525.910806 C371.677443,527.607995 373.323741,530.695409 373.9409,535.376613 M421.115646,546.128439 C418.595308,546.128439 416.999902,544.070971 416.999902,536.456643 C416.999902,534.399174 416.999902,531.929728 417.051601,529.408583 C419.829627,529.357691 422.505063,529.408583 425.0771,529.460282 L425.951948,521.280493 C423.585092,521.743363 420.446787,522.206233 417.205891,522.51562 C417.25759,519.685895 417.360181,516.959568 417.514471,514.798701 L411.75243,514.798701 L400.846314,523.85253 L399.714585,530.18084 C401.258292,530.02655 402.852891,529.871452 404.447489,529.768862 C404.499188,531.05488 404.499188,532.340899 404.499188,533.884606 C404.499188,538.206339 404.08721,543.247822 404.08721,546.128439 C404.08721,550.655353 407.431504,553.947948 409.694962,555.337365 L425.951948,551.273321 L424.61423,545.048409 C423.791081,545.76816 422.864534,546.128439 421.115646,546.128439 M465.820945,547.105877 C464.277238,547.105877 463.351499,544.636431 463.351499,536.456643 C463.351499,531.106579 463.814368,525.807408 464.689217,521.280493 C462.83693,521.589073 460.007204,521.795062 457.126588,521.795062 C454.091681,521.795062 451.159365,521.640772 448.638219,521.280493 L447.86677,529.049111 C448.43223,528.843122 449.04939,528.739724 449.615658,528.894821 C450.490506,529.151702 451.210256,531.415159 451.210256,538.000349 C451.210256,539.492357 451.210256,540.932665 451.261955,542.321275 C449.513067,543.247822 447.81507,543.864982 445.808494,543.864982 C444.007906,543.864982 442.515899,541.601524 442.515899,535.942074 C442.515899,530.077441 442.876178,525.550527 443.390747,521.332192 C440.81871,521.692472 438.657843,521.897653 436.908955,521.897653 C434.07923,521.897653 429.912594,521.538182 427.751728,521.228794 L426.980278,528.997412 C427.648329,528.843122 428.266297,528.739724 428.831757,529.203401 C429.654906,529.871452 430.323765,533.370037 430.323765,536.560041 C430.323765,540.572386 430.169475,543.658992 430.169475,546.848997 C430.169475,550.655353 433.513769,553.793658 436.394386,554.205637 L444.265595,554.205637 C445.860193,551.993071 448.381339,549.575324 451.518836,547.208468 C451.673126,549.523625 451.879115,551.838781 452.187695,554.256528 C454.76054,553.896249 457.126588,553.741959 459.493443,553.741959 C461.859491,553.741959 464.226347,553.896249 466.540695,554.205637 L467.312953,546.951588 C466.900974,547.054178 466.489804,547.105877 465.820945,547.105877 M490.668891,545.871558 C486.707437,545.871558 483.826012,544.276152 482.385704,541.858405 L500.288988,537.64007 C500.288988,530.64371 498.745281,523.44136 493.652098,520.251355 C486.141168,521.023613 479.299098,522.566512 473.280176,524.933367 C470.810729,527.711394 469.010142,533.009758 469.010142,539.800937 C469.010142,547.208468 472.096748,552.81622 477.6528,555.233967 C484.906849,554.308227 492.36608,552.610231 500.134698,549.935603 L499.053861,542.990134 C496.790403,544.945011 494.681236,545.871558 490.668891,545.871558 M488.919195,535.376613 L481.459964,537.022911 C481.614254,532.135717 482.745983,528.637133 484.906849,525.910806 C486.655737,527.607995 488.302035,530.695409 488.919195,535.376613 M514.127419,526.013397 C515.207449,525.550527 516.596866,525.293646 518.139765,525.293646 C520.917791,525.293646 522.564088,526.836546 522.564088,529.562872 L529.303568,529.562872 L530.229308,521.280493 C527.40039,520.817624 524.724955,520.354754 519.683472,520.354754 C514.796278,520.354754 508.982537,521.280493 503.632474,525.602226 C498.95127,544.73983 520.50662,538.41152 519.014613,549.729614 C518.139765,549.832204 517.162326,549.883904 516.030597,549.883904 C512.583712,549.883904 510.937415,547.723037 510.834824,543.967572 L504.044452,543.967572 L502.861025,554.205637 C505.381362,554.462517 509.394516,554.668506 512.841401,554.668506 C519.735171,554.668506 525.085234,553.793658 529.149279,551.118223 C537.946227,529.408583 516.442576,535.068033 514.127419,526.013397 M566.703927,546.591308 C565.161028,546.591308 564.234481,543.144423 564.234481,531.827137 C564.234481,525.653118 565.263619,518.450768 566.447046,513.306694 C563.719912,513.666973 561.096176,513.821263 558.267258,513.821263 C554.562685,513.821263 553.791235,513.666973 549.5729,513.306694 L548.801451,519.737594 C549.31602,519.634196 549.72719,519.582496 550.241759,519.582496 C551.219198,519.582496 551.784658,520.765924 552.042347,522.97849 C546.280305,523.74994 541.187123,524.829969 536.608509,526.065096 C533.419312,528.122564 532.184185,533.987196 532.184185,539.800937 C532.184185,545.92245 535.116501,551.89048 540.313082,554.205637 L546.640584,554.205637 C548.698052,551.942179 550.241759,550.707052 552.556916,549.266744 L552.607807,554.102238 C555.180652,553.845358 555.900402,553.691068 559.604976,553.691068 C563.102752,553.691068 565.469608,553.896249 567.424485,554.205637 L568.195935,546.437019 C567.783956,546.540417 567.372786,546.591308 566.703927,546.591308 M544.428019,537.228092 C544.428019,533.421736 545.200276,530.540311 546.177715,528.019973 L552.299227,530.077441 C552.299227,534.193185 552.144937,539.286368 552.144937,545.202699 C551.270089,545.61387 550.396049,545.871558 549.41861,545.871558 C545.971725,545.871558 544.428019,542.064394 544.428019,537.228092 M604.103478,546.591308 C602.560579,546.591308 601.634839,545.871558 601.634839,537.48578 C601.634839,531.260869 601.943419,527.607995 602.457988,523.647349 L591.242485,520.251355 C584.708994,521.280493 579.050351,522.720802 574.008868,524.573088 C570.818863,526.630556 569.584544,532.752877 569.584544,539.800937 C569.584544,545.92245 572.51686,551.89048 577.712633,554.205637 L584.040135,554.205637 C586.098411,551.942179 587.64131,550.707052 589.956466,549.266744 L590.008166,554.102238 C592.580203,553.845358 593.300761,553.691068 597.004526,553.691068 C600.502303,553.691068 602.869159,553.896249 604.824036,554.205637 L605.595486,546.437019 C605.184315,546.540417 604.772337,546.591308 604.103478,546.591308 M581.828377,537.228092 C581.828377,532.340899 582.651526,528.997412 583.577265,526.373676 L589.441898,528.431144 C589.750477,533.524326 589.802177,539.286368 589.596187,544.99671 C588.773039,545.356989 587.847299,545.562978 586.86986,545.562978 C583.371276,545.562978 581.828377,542.681554 581.828377,537.228092 M638.005252,521.743363 C635.484107,521.743363 633.426639,521.589073 631.626051,521.280493 L631.111482,529.203401 C631.420062,529.100003 632.14062,528.945713 632.60349,529.049111 C634.866947,529.511981 631.882932,539.183777 629.310895,545.202699 C626.636267,540.674977 622.674813,530.129141 625.70972,529.049111 C626.275988,528.791423 627.099137,528.997412 627.510307,529.151702 L628.385155,521.280493 C625.24685,521.640772 622.005954,521.743363 615.626753,521.743363 C610.43098,521.743363 608.887273,521.589073 606.469526,521.280493 L605.852366,529.151702 C606.417826,528.945713 606.984095,528.843122 607.704653,529.254293 C610.945549,530.849699 617.32475,546.488718 618.971047,554.205637 C620.257066,553.947948 622.108545,553.793658 623.909132,553.741959 C622.520523,555.439956 620.668236,556.469094 618.0445,556.469094 C615.112184,556.469094 611.922987,555.954525 609.607831,554.719398 L608.836381,563.413755 C611.45931,564.288603 614.032155,564.751473 616.655891,564.751473 C623.189382,564.751473 629.104905,561.819157 634.764356,553.176499 C636.821824,547.311867 639.703249,533.524326 641.452137,530.43772 C642.223587,529.100003 643.046736,528.997412 643.972475,529.254293 L644.899022,521.280493 C642.892446,521.589073 640.628988,521.743363 638.005252,521.743363 M657.193747,526.013397 C658.273776,525.550527 659.663193,525.293646 661.206092,525.293646 C663.984118,525.293646 665.630416,526.836546 665.630416,529.562872 L672.369896,529.562872 L673.295636,521.280493 C670.466718,520.817624 667.791283,520.354754 662.749799,520.354754 C657.862606,520.354754 652.048865,521.280493 646.698802,525.602226 C642.017598,544.73983 663.572948,538.41152 662.08094,549.729614 C661.206092,549.832204 660.228654,549.883904 659.096925,549.883904 C655.65004,549.883904 654.003742,547.723037 653.901152,543.967572 L647.11078,543.967572 L645.927352,554.205637 C648.44769,554.462517 652.460843,554.668506 655.907728,554.668506 C662.800691,554.668506 668.151562,553.793658 672.215606,551.118223 C681.012555,529.408583 659.508903,535.068033 657.193747,526.013397" id="Fill-31"></path>
                    <path d="M51.0324779,398.751364 C54.4696693,397.278744 58.889954,396.459634 63.7997659,396.459634 C72.6395275,396.459634 77.8773064,401.370254 77.8773064,410.046032 L99.3203725,410.046032 L102.267229,383.692346 C93.2642917,382.218918 84.7524971,380.745489 68.7111933,380.745489 C53.1602246,380.745489 34.6640149,383.692346 17.6404257,397.441919 C2.74458322,458.333926 71.3300828,438.200305 66.5826388,474.212054 C63.7997659,474.539214 60.6897337,474.703197 57.0885588,474.703197 C46.1218582,474.703197 40.8840793,467.828006 40.5561123,455.87902 L18.9498704,455.87902 L15.184712,488.452771 C23.2053638,489.271073 35.9734597,489.926199 46.9401602,489.926199 C68.8743691,489.926199 85.8979583,487.143326 98.8292298,478.631531 C126.820327,409.554889 58.3988113,427.560764 51.0324779,398.751364 M233.708499,463.244546 C231.089609,460.952816 228.961055,449.986115 228.961055,439.836909 C228.961055,427.069621 229.452198,417.248382 229.452198,407.099175 C229.452198,394.987013 218.812656,385.001791 209.646543,383.692346 L184.601494,383.692346 C178.218254,391.712998 170.524762,399.242507 161.848983,405.78973 L159.230094,383.528362 C151.209442,384.673824 143.679933,385.164966 136.150424,385.164966 C128.620107,385.164966 121.090598,384.673824 113.725072,383.692346 L110.778216,410.046032 C112.087661,409.718872 113.397105,409.554889 115.52566,409.554889 C120.436279,409.554889 123.873471,415.447794 123.873471,435.254256 C123.873471,457.515624 120.927422,464.226831 116.016803,464.226831 C113.561089,464.226831 111.760501,464.062848 110.451057,463.735689 L108.159326,488.452771 C115.52566,487.470485 126.983503,486.816167 138.441346,486.816167 C150.063981,486.816167 161.030681,487.306502 170.688745,488.452771 L173.143651,463.735689 C171.343064,464.390815 169.378493,464.717974 167.577905,464.226831 C164.79584,463.244546 162.50411,456.20618 162.50411,435.254256 C162.50411,430.506812 162.50411,425.923352 162.340126,421.503875 C167.905872,418.557826 173.307635,416.593255 179.690875,416.593255 C186.238906,416.593255 191.640668,423.795605 191.640668,441.80148 C191.640668,450.149291 191.312701,462.590228 188.530636,463.899672 C187.221192,464.553991 184.438319,464.226831 183.128874,463.735689 L181.328286,488.288787 C195.569003,487.634469 200.806782,486.4882 208.009131,486.4882 C217.012069,486.4882 230.271307,487.634469 237.14569,488.616754 L239.601404,463.899672 C237.472849,464.390815 235.509086,464.717974 233.708499,463.244546 M353.853485,464.226831 C348.942866,464.226831 345.996817,461.935101 345.996817,435.254256 C345.996817,415.447794 346.978295,403.825967 348.615706,391.221855 L312.931116,380.41833 C292.143176,383.692346 274.137302,388.274998 258.095998,394.167904 C247.947599,400.715935 244.018457,420.19443 244.018457,442.619782 C244.018457,462.099085 253.348554,481.086437 269.881808,488.452771 L290.01543,488.452771 C296.562653,481.250421 301.473273,477.322087 308.839606,472.738626 L309.002782,488.125611 C317.187417,487.306502 319.479148,486.816167 331.264958,486.816167 C342.395642,486.816167 349.925151,487.470485 356.145216,488.452771 L358.600121,463.735689 C357.290677,464.062848 355.981232,464.226831 353.853485,464.226831 M282.976255,434.435146 C282.976255,418.884985 285.595145,408.245444 288.542001,399.896825 L307.202195,406.444857 C308.18448,422.650144 308.348464,440.983178 307.693337,459.152228 C305.074448,460.298497 302.128399,460.952816 299.018367,460.952816 C287.886875,460.952816 282.976255,451.786703 282.976255,434.435146 M408.031862,402.188556 C404.92183,407.754301 403.121242,415.611778 403.121242,429.68851 C403.121242,447.367226 411.469053,461.279975 422.600545,461.279975 C433.40407,461.279975 439.296167,458.170751 445.025897,453.58729 L448.954231,473.392945 C429.802895,481.414404 410.487575,486.979342 391.335432,490.089375 C372.675239,481.57758 362.198873,461.935101 362.198873,437.709162 C362.198873,416.593255 367.109493,405.462571 373.493541,396.950777 C387.571081,387.456697 405.740131,382.546077 424.401132,382.546077 C433.076103,382.546077 441.751881,384.183489 450.426851,386.965554 L447.480803,420.521589 L427.67434,420.521589 C427.67434,408.409428 422.600545,401.370254 414.907052,401.370254 C411.960196,401.370254 409.832449,401.534237 408.031862,402.188556 M574.338612,464.226831 C569.591168,463.080562 558.788451,444.747529 549.457546,416.593255 C556.332737,412.828905 562.061659,410.046032 566.481136,409.390905 C568.60969,409.063746 572.046882,408.736587 573.847469,408.736587 L577.121485,383.201203 C571.555739,384.346664 562.388818,385.164966 555.350452,385.164966 C545.366037,385.164966 532.9251,384.673824 526.869019,383.855522 L524.25013,408.736587 C526.377876,407.263159 529.160749,407.918285 529.160749,410.373191 C529.160749,413.81119 515.901511,420.685573 508.372002,423.304462 L508.372002,420.849556 C508.372002,398.587381 509.681446,375.50771 512.628303,358.320138 C503.134223,359.466407 494.785604,359.95755 486.437793,359.95755 C477.598839,359.95755 469.087044,359.466407 460.57525,358.320138 L458.119536,381.563791 C459.101822,381.073456 461.229568,380.745489 463.521298,381.236632 C467.7776,381.891758 470.723648,390.239569 470.723648,420.849556 C470.723648,455.059911 467.7776,464.226831 462.86698,464.226831 C460.738425,464.226831 459.428981,464.062848 458.119536,463.735689 L455.827806,488.452771 C463.030156,487.470485 473.506521,486.816167 484.310046,486.816167 C496.750175,486.816167 508.863144,487.306502 519.33951,488.452771 L521.794416,463.735689 C519.33951,464.062848 517.866082,464.226831 514.592066,464.226831 C511.482034,464.226831 509.681446,456.860498 508.863144,442.292623 C511.482034,440.656019 514.264907,439.018607 516.883796,437.218019 C524.577289,455.059911 527.360162,464.553991 532.433957,488.452771 C539.309148,487.470485 549.62153,486.979342 559.933912,486.979342 C565.171691,486.979342 572.7012,487.470485 577.939787,488.125611 L579.576391,463.735689 C577.775803,464.390815 576.139199,464.553991 574.338612,464.226831 M619.515666,398.751364 C622.952858,397.278744 627.373143,396.459634 632.283762,396.459634 C641.122716,396.459634 646.360495,401.370254 646.360495,410.046032 L667.803561,410.046032 L670.750418,383.692346 C661.74748,382.218918 653.235686,380.745489 637.194382,380.745489 C621.643413,380.745489 603.147204,383.692346 586.123614,397.441919 C571.227772,458.333926 639.813271,438.200305 635.065827,474.212054 C632.283762,474.539214 629.17373,474.703197 625.572555,474.703197 C614.605047,474.703197 609.367268,467.828006 609.040109,455.87902 L587.433059,455.87902 L583.667901,488.452771 C591.688552,489.271073 604.456648,489.926199 615.423349,489.926199 C637.357558,489.926199 654.381147,487.143326 667.313226,478.631531 C695.303516,409.554889 626.882,427.560764 619.515666,398.751364" id="Fill-33"></path>
                    <path d="M17.0720572,285.554351 L16.5292153,293.149292 C23.9213983,293.827844 31.2449182,293.827844 38.6371013,293.149292 L39.1791354,285.554351 C31.7877602,286.232096 24.4634325,286.232096 17.0720572,285.554351 L17.0720572,285.554351 Z M38.569246,296.065452 C35.9923622,296.472584 32.0591812,296.743197 28.1260002,296.743197 C24.2606745,296.743197 20.2596383,296.540439 17.0720572,296.065452 L16.0550363,306.305132 C17.004202,306.033711 18.2247887,305.830953 19.0390516,306.101566 C20.4623962,306.576553 20.937383,312.341018 20.937383,324.208416 C20.937383,329.768507 20.8016725,334.583807 20.5981067,338.381277 C18.4962096,337.974146 16.5292153,337.364256 14.9701602,336.414283 L13.4781525,348.281681 C16.3943126,349.163799 18.4283544,349.637978 20.8695277,349.637978 C26.7018478,349.637978 32.3297944,347.26466 37.2808041,342.72159 C37.0772384,339.534008 37.1450936,334.040965 37.1450936,322.852119 C37.1450936,307.729284 37.754983,303.660393 38.569246,296.065452 L38.569246,296.065452 Z M87.665749,329.430039 C85.6308994,329.430039 84.4103127,328.480065 84.4103127,317.42693 C84.4103127,309.221292 84.8174442,304.406801 85.4951889,299.185178 L70.7124385,294.709155 C62.0996688,296.065452 54.6404383,297.964591 47.9946631,300.405764 C43.7900611,303.118359 42.1623429,311.187479 42.1623429,320.477993 C42.1623429,328.547921 46.0276687,336.414283 52.8770097,339.466153 L61.2183584,339.466153 C63.9309527,336.482138 65.9649945,334.855228 69.0168651,332.956088 L69.0847203,339.330443 C72.4750593,338.991167 73.424225,338.788409 78.3073794,338.788409 C82.9183051,338.788409 86.0380309,339.059022 88.6149147,339.466153 L89.6319356,329.226473 C89.0899014,329.362184 88.5470595,329.430039 87.665749,329.430039 L87.665749,329.430039 Z M58.3021983,317.087654 C58.3021983,310.645445 59.3870745,306.237277 60.6076612,302.779083 L68.3383126,305.491677 C68.7454441,312.205307 68.8132993,319.800248 68.5418783,327.327334 C67.4570022,327.802321 66.2364155,328.073742 64.9479736,328.073742 C60.3362402,328.073742 58.3021983,324.276271 58.3021983,317.087654 L58.3021983,317.087654 Z M110.110488,303.728248 C108.822046,306.033711 108.076446,309.289147 108.076446,315.121467 C108.076446,322.444987 111.53464,328.209452 116.146374,328.209452 C120.621589,328.209452 123.06357,326.920203 125.436888,325.021871 L127.064606,333.227509 C119.130389,336.549993 111.128317,338.855456 103.194099,340.144706 C95.4634479,336.617848 91.1231355,328.480065 91.1231355,318.443951 C91.1231355,309.695471 93.1571773,305.084545 95.8019164,301.558496 C101.634236,297.625315 109.161322,295.590465 116.891974,295.590465 C120.486686,295.590465 124.080591,296.269018 127.674496,297.421749 L126.453909,311.323189 L118.248271,311.323189 C118.248271,306.305132 116.146374,303.388972 112.958793,303.388972 C111.738206,303.388972 110.856896,303.456827 110.110488,303.728248 L110.110488,303.728248 Z M179.009414,329.430039 C177.04242,328.955052 172.567205,321.360111 168.701879,309.695471 C171.549376,308.136416 173.923502,306.983685 175.753978,306.712264 C176.636096,306.576553 178.060248,306.440843 178.805848,306.440843 L180.162145,295.861886 C177.856683,296.336873 174.059212,296.676149 171.143052,296.676149 C167.006305,296.676149 161.852538,296.472584 159.343509,296.133307 L158.258633,306.440843 C159.139943,305.830953 160.292675,306.101566 160.292675,307.119395 C160.292675,308.54274 154.799631,311.391044 151.679905,312.475921 L151.679905,311.4589 C151.679905,302.236241 152.222747,292.674305 153.443334,285.554351 C149.510153,286.02853 146.051959,286.232096 142.592957,286.232096 C138.931197,286.232096 135.405147,286.02853 131.879098,285.554351 L130.861269,295.184142 C131.2684,294.980576 132.149711,294.844865 133.099684,295.048431 C134.862305,295.319044 136.082892,298.778046 136.082892,311.4589 C136.082892,325.632568 134.862305,329.430039 132.828263,329.430039 C131.946145,329.430039 131.404111,329.362184 130.861269,329.226473 L129.912103,339.466153 C132.896119,339.059022 137.235623,338.788409 141.711646,338.788409 C146.865414,338.788409 151.883471,338.991167 156.223783,339.466153 L157.240804,329.226473 C156.223783,329.362184 155.613894,329.430039 154.257597,329.430039 C152.969155,329.430039 152.222747,326.378168 151.883471,320.342283 C152.969155,319.664538 154.121886,318.985985 155.206762,318.240385 C158.393536,325.632568 159.547075,329.564942 161.648972,339.466153 C164.497277,339.059022 168.769734,338.855456 173.041383,338.855456 C175.211944,338.855456 178.330862,339.059022 180.501422,339.330443 L181.179166,329.226473 C180.433566,329.497894 179.755014,329.564942 179.009414,329.430039 L179.009414,329.430039 Z M197.725345,302.304096 C199.149498,301.694206 200.980782,301.35493 203.014824,301.35493 C206.677391,301.35493 208.847144,303.388972 208.847144,306.983685 L217.730527,306.983685 L218.951113,296.065452 C215.221498,295.454755 211.695449,294.844865 205.049673,294.844865 C198.607464,294.844865 190.94386,296.065452 183.891761,301.761254 C177.720164,326.988058 206.134549,318.647517 204.167555,333.566786 C203.014824,333.702496 201.726382,333.770351 200.234374,333.770351 C195.691304,333.770351 193.521551,330.922047 193.385841,325.971037 L184.433795,325.971037 L182.87474,339.466153 C186.197224,339.805429 191.486702,340.07685 196.03058,340.07685 C205.117528,340.07685 212.169627,338.923311 217.526961,335.397262 C229.123746,306.780119 200.777216,314.239349 197.725345,302.304096 L197.725345,302.304096 Z M255.502473,294.709155 C245.262793,295.52261 235.768713,297.625315 226.953186,300.947799 C223.96917,304.338945 221.527997,310.984721 221.527997,318.443951 C221.527997,329.158618 226.410344,337.296401 233.056119,340.82245 C242.414489,339.94114 251.637148,338.042001 260.589194,334.923083 C265.200119,330.922047 266.827837,323.394153 266.827837,315.867067 C266.827837,307.05154 264.115243,298.642336 255.502473,294.709155 L255.502473,294.709155 Z M247.500401,331.19266 C245.669925,331.667647 243.974352,331.599791 242.618054,330.989902 C238.617018,329.362184 237.939273,324.072706 237.939273,318.308241 C237.939273,311.933886 238.617018,308.54274 240.922481,305.084545 C242.957331,304.406801 244.855662,304.338945 246.279814,305.220256 C248.992409,306.983685 250.077285,311.933886 250.077285,319.053841 C250.077285,324.276271 249.39954,328.005887 247.500401,331.19266 L247.500401,331.19266 Z M321.010253,329.022907 C319.925377,328.073742 319.044066,323.529864 319.044066,319.325262 C319.044066,314.035784 319.247632,309.966892 319.247632,305.763098 C319.247632,300.744233 314.839464,296.608294 311.041994,296.065452 L300.666603,296.065452 C298.021864,299.387936 294.834283,302.507662 291.240378,305.220256 L290.155502,295.997597 C286.832211,296.472584 283.713293,296.676149 280.593567,296.676149 C277.473841,296.676149 274.354923,296.472584 271.303053,296.065452 L270.082466,306.983685 C270.625308,306.847974 271.167342,306.780119 272.04946,306.780119 C274.083502,306.780119 275.507655,309.221292 275.507655,317.42693 C275.507655,326.649589 274.287068,329.430039 272.252218,329.430039 C271.235197,329.430039 270.489597,329.362184 269.946755,329.226473 L268.99759,339.466153 C272.04946,339.059022 276.796096,338.788409 281.542733,338.788409 C286.358032,338.788409 290.901102,338.991167 294.902138,339.466153 L295.919159,329.226473 C295.173559,329.497894 294.360104,329.632797 293.613697,329.430039 C292.460965,329.022907 291.511799,326.106747 291.511799,317.42693 C291.511799,315.459936 291.511799,313.561605 291.443944,311.730321 C293.749407,310.509734 295.987015,309.695471 298.631754,309.695471 C301.344348,309.695471 303.582763,312.679486 303.582763,320.139525 C303.582763,323.597719 303.447053,328.751486 302.294321,329.294328 C301.751479,329.564942 300.598748,329.430039 300.055906,329.226473 L299.310306,339.398298 C305.209674,339.126877 307.380234,338.652698 310.363441,338.652698 C314.093864,338.652698 319.586908,339.126877 322.434405,339.534008 L323.452234,329.294328 C322.570116,329.497894 321.756661,329.632797 321.010253,329.022907 L321.010253,329.022907 Z M377.498939,296.065452 L369.15759,296.065452 C366.580706,298.845902 364.681567,300.405764 361.968973,302.168385 C362.104683,295.997597 362.511815,290.436698 362.986802,285.554351 C359.053621,285.961482 355.594619,286.16424 352.136424,286.16424 C348.474664,286.16424 344.947807,285.961482 341.421758,285.554351 L340.404737,294.573444 C341.082481,294.437734 341.625323,294.369879 342.303068,294.369879 C344.812097,294.369879 345.62636,301.287075 345.62636,312.611631 C345.62636,324.479837 345.490649,329.768507 345.219228,335.600828 L363.393125,339.466153 C370.988874,338.177711 377.431084,335.872249 382.652707,332.413246 C386.789453,328.005887 388.484219,322.444987 388.484219,315.053612 C388.484219,305.220256 383.126885,297.625315 377.498939,296.065452 L377.498939,296.065452 Z M362.44396,328.209452 C361.968973,321.970001 361.901118,314.714336 361.901118,307.79714 C363.257415,307.05154 364.681567,306.644408 366.24143,306.644408 C370.106756,306.644408 373.294337,310.306168 373.294337,319.393117 C373.294337,324.411982 372.412219,328.41221 371.055922,331.599791 L362.44396,328.209452 Z M424.764158,294.709155 C414.524478,295.52261 405.030398,297.625315 396.214062,300.947799 C393.230855,304.338945 390.789682,310.984721 390.789682,318.443951 C390.789682,329.158618 395.672028,337.296401 402.317804,340.82245 C411.676173,339.94114 420.898832,338.042001 429.85007,334.923083 C434.460996,330.922047 436.088714,323.394153 436.088714,315.867067 C436.088714,307.05154 433.37612,298.642336 424.764158,294.709155 L424.764158,294.709155 Z M416.762086,331.19266 C414.930802,331.667647 413.236036,331.599791 411.879739,330.989902 C407.878703,329.362184 407.20015,324.072706 407.20015,318.308241 C407.20015,311.933886 407.878703,308.54274 410.184166,305.084545 C412.218207,304.406801 414.117347,304.338945 415.541499,305.220256 C418.254093,306.983685 419.338969,311.933886 419.338969,319.053841 C419.338969,324.276271 418.660417,328.005887 416.762086,331.19266 L416.762086,331.19266 Z M449.719541,338.788409 C445.243518,338.788409 440.903206,339.059022 437.91919,339.466153 L438.869164,329.226473 C439.411198,329.362184 439.95404,329.430039 440.83535,329.430039 C442.8702,329.430039 444.090787,325.632568 444.090787,311.4589 C444.090787,298.778046 442.8702,295.319044 441.106771,295.048431 C440.157606,294.844865 439.275487,294.980576 438.869164,295.184142 L439.886185,285.554351 C443.412234,286.02853 446.939091,286.232096 450.600851,286.232096 C454.059046,286.232096 457.518048,286.02853 461.451229,285.554351 C460.230642,292.674305 459.6878,302.236241 459.6878,311.4589 C459.6878,323.258443 460.4334,329.430039 462.264684,329.430039 C463.620981,329.430039 464.231678,329.362184 465.248699,329.226473 L464.231678,339.466153 C459.891366,338.991167 454.873309,338.788409 449.719541,338.788409 L449.719541,338.788409 Z M478.403731,338.788409 C473.927709,338.788409 469.588204,339.059022 466.604189,339.466153 L467.553354,329.226473 C468.096196,329.362184 468.63823,329.430039 469.520349,329.430039 C471.55439,329.430039 472.774977,325.632568 472.774977,311.4589 C472.774977,298.778046 471.55439,295.319044 469.790962,295.048431 C468.841796,294.844865 467.960486,294.980576 467.553354,295.184142 L468.570375,285.554351 C472.097232,286.02853 475.623282,286.232096 479.285042,286.232096 C482.744044,286.232096 486.202238,286.02853 490.135419,285.554351 C488.914832,292.674305 488.37199,302.236241 488.37199,311.4589 C488.37199,323.258443 489.118398,329.430039 490.948874,329.430039 C492.305171,329.430039 492.915869,329.362184 493.93289,329.226473 L492.915869,339.466153 C488.575556,338.991167 483.557499,338.788409 478.403731,338.788409 L478.403731,338.788409 Z M529.737842,294.709155 C519.498162,295.52261 510.004082,297.625315 501.188554,300.947799 C498.204539,304.338945 495.763366,310.984721 495.763366,318.443951 C495.763366,329.158618 500.645712,337.296401 507.291488,340.82245 C516.649857,339.94114 525.872516,338.042001 534.823754,334.923083 C539.435488,330.922047 541.063206,323.394153 541.063206,315.867067 C541.063206,307.05154 538.350612,298.642336 529.737842,294.709155 L529.737842,294.709155 Z M521.73577,331.19266 C519.905294,331.667647 518.20972,331.599791 516.853423,330.989902 C512.852387,329.362184 512.173834,324.072706 512.173834,318.308241 C512.173834,311.933886 512.852387,308.54274 515.15785,305.084545 C517.192699,304.406801 519.091031,304.338945 520.515183,305.220256 C523.227777,306.983685 524.312653,311.933886 524.312653,319.053841 C524.312653,324.276271 523.634909,328.005887 521.73577,331.19266 L521.73577,331.19266 Z M562.356021,303.728248 C561.067579,306.033711 560.321979,309.289147 560.321979,315.121467 C560.321979,322.444987 563.780174,328.209452 568.391099,328.209452 C572.867122,328.209452 575.308296,326.920203 577.681614,325.021871 L579.309332,333.227509 C571.375115,336.549993 563.373042,338.855456 555.438825,340.144706 C547.708174,336.617848 543.367861,328.480065 543.367861,318.443951 C543.367861,309.695471 545.402711,305.084545 548.04745,301.558496 C553.878962,297.625315 561.406856,295.590465 569.137507,295.590465 C572.731412,295.590465 576.325317,296.269018 579.920029,297.421749 L578.699442,311.323189 L570.493804,311.323189 C570.493804,306.305132 568.391099,303.388972 565.204326,303.388972 C563.983739,303.388972 563.102429,303.456827 562.356021,303.728248 L562.356021,303.728248 Z M631.25414,329.430039 C629.287953,328.955052 624.81193,321.360111 620.946604,309.695471 C623.794909,308.136416 626.168227,306.983685 627.999511,306.712264 C628.880822,306.576553 630.304974,306.440843 631.050574,306.440843 L632.406871,295.861886 C630.101408,296.336873 626.303938,296.676149 623.387778,296.676149 C619.251839,296.676149 614.097263,296.472584 611.588235,296.133307 L610.503359,306.440843 C611.385477,305.830953 612.538208,306.101566 612.538208,307.119395 C612.538208,308.54274 607.045164,311.391044 603.925439,312.475921 L603.925439,311.4589 C603.925439,302.236241 604.468281,292.674305 605.688867,285.554351 C601.755686,286.02853 598.296684,286.232096 594.83849,286.232096 C591.17673,286.232096 587.649873,286.02853 584.123823,285.554351 L583.106802,295.184142 C583.513934,294.980576 584.395244,294.844865 585.34441,295.048431 C587.107839,295.319044 588.328425,298.778046 588.328425,311.4589 C588.328425,325.632568 587.107839,329.430039 585.072989,329.430039 C584.191678,329.430039 583.648837,329.362184 583.106802,329.226473 L582.157637,339.466153 C585.140844,339.059022 589.481157,338.788409 593.95718,338.788409 C599.110947,338.788409 604.129004,338.991167 608.469317,339.466153 L609.486338,329.226473 C608.469317,329.362184 607.85862,329.430039 606.502322,329.430039 C605.213881,329.430039 604.468281,326.378168 604.129004,320.342283 C605.213881,319.664538 606.366612,318.985985 607.451488,318.240385 C610.639069,325.632568 611.791801,329.564942 613.893698,339.466153 C616.742002,339.059022 621.01446,338.855456 625.286917,338.855456 C627.456669,338.855456 630.576395,339.059022 632.746147,339.330443 L633.4247,329.226473 C632.678292,329.497894 632.000547,329.564942 631.25414,329.430039 L631.25414,329.430039 Z M649.970879,302.304096 C651.395031,301.694206 653.225507,301.35493 655.260357,301.35493 C658.922117,301.35493 661.091869,303.388972 661.091869,306.983685 L669.97606,306.983685 L671.196647,296.065452 C667.467031,295.454755 663.940174,294.844865 657.294399,294.844865 C650.852189,294.844865 643.189393,296.065452 636.136486,301.761254 C629.965698,326.988058 658.380083,318.647517 656.413088,333.566786 C655.260357,333.702496 653.971915,333.770351 652.479907,333.770351 C647.936029,333.770351 645.766277,330.922047 645.630566,325.971037 L636.679328,325.971037 L635.119465,339.466153 C638.442757,339.805429 643.732235,340.07685 648.275305,340.07685 C657.362254,340.07685 664.415161,338.923311 669.772494,335.397262 C681.368471,306.780119 653.022749,314.239349 649.970879,302.304096 L649.970879,302.304096 Z" id="Fill-35"></path>
                    <path d="M10.7453632,144.435792 L9.72591886,158.709628 C23.6168575,159.98353 37.3809714,159.98353 51.27191,158.709628 L52.2921621,144.435792 C38.4004157,145.710501 24.6363018,145.710501 10.7453632,144.435792 M51.1450853,164.189747 C46.3023209,164.953926 38.9101378,165.463649 31.5187626,165.463649 C24.2542121,165.463649 16.7352044,165.081559 10.7453632,164.189747 L8.83410703,183.433172 C10.6177307,182.92345 12.9118843,182.541361 14.4410508,183.051083 C17.1172941,183.942894 18.0099137,194.7755 18.0099137,217.078066 C18.0099137,227.528582 17.7546487,236.576756 17.3725591,243.713674 C13.4216065,242.949495 9.72591886,241.802418 6.79441059,240.017987 L3.99053481,262.320553 C9.47065388,263.977352 13.293974,264.869163 17.8822812,264.869163 C28.8425193,264.869163 39.41986,260.408489 48.7232992,251.870037 C48.3412095,245.880195 48.468842,235.557312 48.468842,214.529455 C48.468842,186.109416 49.615111,178.462775 51.1450853,164.189747 M62.1037078,144.435792 L61.0842635,158.709628 C74.9752021,159.98353 88.739316,159.98353 102.630255,158.709628 L103.650507,144.435792 C89.7587603,145.710501 75.9946464,145.710501 62.1037078,144.435792 M79.8179665,244.478661 C71.407147,244.478661 63.2507846,244.988384 57.6430331,245.753371 L59.4274645,226.509138 C60.4469088,226.764403 61.4663532,226.891227 63.1231521,226.891227 C66.9464722,226.891227 69.2406258,222.048463 69.2406258,204.334204 C69.2406258,187.002035 66.9464722,181.776373 63.1231521,181.776373 C61.4663532,181.776373 60.4469088,181.904006 59.4274645,182.158463 L61.3387207,164.189747 C76.1222789,166.35546 89.2490382,166.35546 102.50343,164.062115 C100.209276,177.570964 99.189832,189.932736 99.189832,204.334204 C99.189832,219.116955 100.591366,226.891227 104.032596,226.891227 C106.581207,226.891227 107.728284,226.764403 109.640348,226.509138 L107.728284,245.753371 C99.5719216,244.860751 89.7587603,244.478661 79.8179665,244.478661 M261.933374,226.127048 C259.893677,224.470249 258.236878,215.804165 258.236878,207.902259 C258.236878,197.961466 258.619776,190.314825 258.619776,182.413728 C258.619776,172.982656 250.335781,165.209191 243.198863,164.189747 L223.700173,164.189747 C219.74922,169.542234 213.759379,175.404442 206.240371,181.139019 C205.475384,172.34611 197.701919,165.209191 190.819458,164.189747 L171.320768,164.189747 C167.880346,169.032512 162.654684,174.129733 156.282753,179.355395 C156.792475,174.257366 157.42983,169.286969 158.321641,164.062115 C143.538083,167.502537 130.411324,167.502537 117.15774,164.189747 L115.245676,184.707882 C116.265928,184.452617 117.285373,184.324984 118.942172,184.324984 C122.765492,184.324984 125.058837,189.550646 125.058837,204.334204 C125.058837,221.666373 122.765492,226.891227 118.942172,226.891227 C117.285373,226.891227 116.265928,226.764403 115.245676,226.509138 L113.462052,245.753371 C119.068996,244.988384 127.225359,244.478661 135.636986,244.478661 C144.430703,244.478661 153.096787,244.860751 160.36053,245.753371 L162.272594,226.509138 C161.25315,226.764403 160.233705,226.891227 158.576906,226.891227 C156.027488,226.891227 155.008044,219.116955 155.008044,204.334204 C155.008044,200.383252 155.135676,196.687564 155.263309,192.991876 C159.086629,191.079813 163.036773,189.805103 167.497448,189.805103 C172.595478,189.805103 176.800887,195.412855 176.800887,209.431426 C176.800887,215.930989 176.54643,225.617326 174.379909,226.63677 C173.359657,227.146492 171.193136,226.891227 170.173691,226.509138 L168.772157,245.625738 C179.860028,245.116016 183.937805,244.223396 189.545557,244.223396 C196.554842,244.223396 206.877726,245.116016 212.230213,245.880195 L214.141469,226.63677 C212.485477,227.01886 210.955503,227.273317 209.553969,226.127048 C207.515081,224.470249 205.858282,215.804165 205.858282,207.902259 C205.858282,202.677405 205.985106,198.089098 206.112739,193.756056 C210.445781,191.335078 214.778823,189.805103 219.876853,189.805103 C224.974882,189.805103 229.180292,195.412855 229.180292,209.431426 C229.180292,215.930989 228.925027,225.617326 226.758506,226.63677 C225.739061,227.146492 223.57254,226.891227 222.553096,226.509138 L221.151562,245.625738 C232.238625,245.116016 236.31721,244.223396 241.924154,244.223396 C248.933439,244.223396 259.256323,245.116016 264.609617,245.880195 L266.520873,226.63677 C264.864074,227.01886 263.334908,227.273317 261.933374,226.127048 M418.17816,226.127048 C416.138464,224.470249 414.481665,215.804165 414.481665,207.902259 C414.481665,197.961466 414.864562,190.314825 414.864562,182.413728 C414.864562,172.982656 406.580567,165.209191 399.443649,164.189747 L379.944959,164.189747 C375.994006,169.542234 370.004165,175.404442 362.485157,181.139019 C361.720978,172.34611 353.946705,165.209191 347.065052,164.189747 L327.565554,164.189747 C324.125132,169.032512 318.89947,174.129733 312.527539,179.355395 C313.037261,174.257366 313.674616,169.286969 314.566428,164.062115 C299.783677,167.502537 286.656918,167.502537 273.402526,164.189747 L271.49127,184.707882 C272.510714,184.452617 273.530159,184.324984 275.186958,184.324984 C279.010278,184.324984 281.303624,189.550646 281.303624,204.334204 C281.303624,221.666373 279.010278,226.891227 275.186958,226.891227 C273.530159,226.891227 272.510714,226.764403 271.49127,226.509138 L269.706839,245.753371 C275.31459,244.988384 283.470953,244.478661 291.881772,244.478661 C300.675489,244.478661 309.341574,244.860751 316.606124,245.753371 L318.51738,226.509138 C317.497936,226.764403 316.478492,226.891227 314.821693,226.891227 C312.273082,226.891227 311.25283,219.116955 311.25283,204.334204 C311.25283,200.383252 311.380462,196.687564 311.508095,192.991876 C315.331415,191.079813 319.282367,189.805103 323.742234,189.805103 C328.840264,189.805103 333.045674,195.412855 333.045674,209.431426 C333.045674,215.930989 332.791216,225.617326 330.624695,226.63677 C329.605251,227.146492 327.43873,226.891227 326.418478,226.509138 L325.016944,245.625738 C336.104814,245.116016 340.182592,244.223396 345.790343,244.223396 C352.799629,244.223396 363.122512,245.116016 368.474999,245.880195 L370.387063,226.63677 C368.730264,227.01886 367.200289,227.273317 365.798755,226.127048 C363.759867,224.470249 362.103068,215.804165 362.103068,207.902259 C362.103068,202.677405 362.2307,198.089098 362.357525,193.756056 C366.690567,191.335078 371.02361,189.805103 376.121639,189.805103 C381.219668,189.805103 385.425078,195.412855 385.425078,209.431426 C385.425078,215.930989 385.169813,225.617326 383.003292,226.63677 C381.983848,227.146492 379.817327,226.891227 378.797882,226.509138 L377.396348,245.625738 C388.483411,245.116016 392.561996,244.223396 398.169748,244.223396 C405.179033,244.223396 415.501917,245.116016 420.854403,245.880195 L422.765659,226.63677 C421.10886,227.01886 419.579694,227.273317 418.17816,226.127048 M430.4123,144.435792 L429.392855,158.709628 C443.283794,159.98353 457.047908,159.98353 470.938846,158.709628 L471.958291,144.435792 C458.067352,145.710501 444.303238,145.710501 430.4123,144.435792 M448.126558,244.478661 C439.715739,244.478661 431.559376,244.988384 425.951625,245.753371 L427.736056,226.509138 C428.755501,226.764403 429.774945,226.891227 431.431744,226.891227 C435.255064,226.891227 437.549218,222.048463 437.549218,204.334204 C437.549218,187.002035 435.255064,181.776373 431.431744,181.776373 C429.774945,181.776373 428.755501,181.904006 427.736056,182.158463 L429.647312,164.189747 C444.430871,166.35546 457.55763,166.35546 470.812022,164.062115 C468.517868,177.570964 467.498424,189.932736 467.498424,204.334204 C467.498424,219.116955 468.899958,226.891227 472.341188,226.891227 C474.889799,226.891227 476.036876,226.764403 477.948132,226.509138 L476.036876,245.753371 C467.880513,244.860751 458.067352,244.478661 448.126558,244.478661 M579.51936,226.127048 C577.479664,224.342617 575.822865,215.804165 575.822865,207.902259 C575.822865,197.961466 576.205762,190.314825 576.205762,182.413728 C576.205762,172.982656 567.921767,165.209191 560.784849,164.189747 L541.286159,164.189747 C536.315762,170.434046 530.325921,176.296254 523.5719,181.394284 L521.532204,164.062115 C515.287905,164.953926 509.425697,165.336824 503.56268,165.336824 C497.700471,165.336824 491.838263,164.953926 486.102879,164.189747 L483.809533,184.707882 C484.828977,184.452617 485.848422,184.324984 487.50522,184.324984 C491.328541,184.324984 494.004784,188.913291 494.004784,204.334204 C494.004784,221.666373 491.71063,226.891227 487.88731,226.891227 C485.976054,226.891227 484.573712,226.764403 483.554268,226.509138 L481.769836,245.753371 C487.50522,244.988384 496.42657,244.478661 505.347112,244.478661 C514.395286,244.478661 522.934546,244.860751 530.453553,245.753371 L532.36481,226.509138 C530.963276,227.01886 529.434109,227.273317 528.031767,226.891227 C525.865246,226.127048 524.081622,220.646929 524.081622,204.334204 C524.081622,200.637709 524.081622,197.069654 523.95399,193.628423 C528.287032,191.335078 532.492442,189.805103 537.462839,189.805103 C542.560868,189.805103 546.766278,195.412855 546.766278,209.431426 C546.766278,215.930989 546.511013,225.617326 544.344492,226.63677 C543.325048,227.146492 541.158527,226.891227 540.139082,226.509138 L538.737548,245.625738 C549.824611,245.116016 553.903196,244.223396 559.510948,244.223396 C566.520233,244.223396 576.843117,245.116016 582.195603,245.880195 L584.106859,226.63677 C582.45006,227.01886 580.920894,227.273317 579.51936,226.127048 M665.031513,165.336824 C658.787214,165.336824 653.689185,164.953926 649.22851,164.189747 L647.954609,183.81607 C648.718788,183.560805 650.503219,183.178715 651.650296,183.433172 C657.258048,184.580249 649.865865,208.539614 643.493934,223.449997 C636.866738,212.235302 627.053577,186.109416 634.572584,183.433172 C635.974926,182.795818 638.013815,183.30554 639.033259,183.688437 L641.19978,164.189747 C633.425508,165.081559 625.396778,165.336824 609.593775,165.336824 C596.722281,165.336824 592.898961,164.953926 586.90912,164.189747 L585.379953,183.688437 C586.781487,183.178715 588.183829,182.92345 589.967453,183.942894 C597.99699,187.893847 613.799993,226.63677 617.87777,245.753371 C621.063735,245.116016 625.652043,244.733119 630.112717,244.606294 C626.671487,248.811704 622.08318,251.360314 615.583616,251.360314 C608.319874,251.360314 600.417969,250.086413 594.683392,247.027272 L592.771328,268.565659 C599.270892,270.731372 605.64363,271.878449 612.143194,271.878449 C628.328286,271.878449 642.984212,264.614706 657.002783,243.203952 C662.100812,228.675659 669.23773,194.521043 673.570773,186.874403 C675.482029,183.560805 677.520917,183.30554 679.815071,183.942894 L682.109225,164.189747 C677.138828,164.953926 671.531076,165.336824 665.031513,165.336824" id="Fill-37"></path>
                </g>
                <g id="Group-59" transform="translate(201.950142, 1234.319271)"></g>
                <g id="Group-95">
                    <path d="M12.1170085,16.963812 L1.13686838e-13,16.963812 M1417.69,16.963812 L1429.80701,16.963812 M12.1170085,3506.66227 L-1.70530257e-13,3506.66227 M1417.69,3506.66227 L1429.80701,3506.66227 M16.963812,12.1170085 L16.963812,0 M16.963812,3511.50908 L16.963812,3523.62609 M1412.8432,12.1170085 L1412.8432,4.54747351e-13 M1412.8432,3511.50908 L1412.8432,3523.62609" id="Stroke-91" stroke="#FFFFFF" stroke-width="1.25"></path>
                    <path d="M12.1170085,16.963812 L1.13686838e-13,16.963812 M1417.69,16.963812 L1429.80701,16.963812 M12.1170085,3506.66227 L-1.70530257e-13,3506.66227 M1417.69,3506.66227 L1429.80701,3506.66227 M16.963812,12.1170085 L16.963812,0 M16.963812,3511.50908 L16.963812,3523.62609 M1412.8432,12.1170085 L1412.8432,4.54747351e-13 M1412.8432,3511.50908 L1412.8432,3523.62609" id="Stroke-93" stroke="#000000" stroke-width="0.25"></path>
                </g>
            </g>
        </g>
    </g>
</svg>