<svg xmlns="http://www.w3.org/2000/svg" width="640" height="360" xmlns:xlink="http://www.w3.org/1999/xlink">
  <defs>
    <path id="a" d="M1374.663 557.655V.382H0v557.273h1374.663z"/>
  </defs>
  <g fill="none" fill-rule="evenodd">
    <path fill="#1A1918" d="M-484.408 2294.317H835.27v-3299.19H-484.41"/>
    <g transform="translate(-511.9 -54.83)">
      <mask id="b" fill="#fff">
        <use xlink:href="#a"/>
      </mask>
      <path fill="#C7404E" d="M-109.59 557.655h1775.3V.382h-1775.3" mask="url(#b)"/>
    </g>
    <path fill="#FFF" d="M82.73 360.88l.755-2.116c-3.176-2.52-7.46-11.24-7.46-23.69 0-12.4 4.284-21.07 7.46-23.59l-.756-1.864c-7.713 3.478-11.494 15.02-11.494 25.404 0 10.433 3.78 22.33 11.493 25.857zm22.075-43.095c.05-1.714-.655-2.822-2.672-3.226.202-2.57.908-4.335 2.974-6.906l-1.865-.605c-3.528 3.225-4.99 6.703-4.99 10.735 0 2.168 1.21 3.327 3.327 3.327 2.066 0 3.174-1.16 3.225-3.327zm-9.78 0c.052-1.714-.654-2.822-2.67-3.226.202-2.57.907-4.335 2.974-6.906l-1.866-.605c-3.528 3.225-4.99 6.703-4.99 10.735 0 2.168 1.21 3.327 3.327 3.327 2.067 0 3.176-1.16 3.226-3.327zm24.447 0c.05-1.714-.656-2.822-2.672-3.226.202-2.57.908-4.335 2.974-6.906l-1.865-.605c-3.53 3.225-4.99 6.703-4.99 10.735 0 2.168 1.21 3.327 3.326 3.327 2.066 0 3.175-1.16 3.226-3.327zm12.903-4.335c1.512 0 2.672-1.058 2.722-2.57.05-1.512-1.11-2.62-2.62-2.62-1.513 0-2.723 1.108-2.773 2.62-.05 1.462 1.16 2.57 2.67 2.57zm-1.31 13.307s-.303.655-.706.706c-3.227.504-7.36 1.613-8.066 5.948-1.41 8.57 3.78 13.81 6.553 14.77 2.974 1.007 5.192.755 6.1-1.01.654-1.31.1-3.578-3.177-4.03-4.89-.657-7.41-3.933-7.41-6.2 0-2.47 1.16-3.63 2.924-4.285 2.27-.857 6.1-.757 6.402-.757v-14.516h-2.62v9.375zm15.575 3.428s.302-.656.705-.706c3.226-.505 7.36-1.614 8.065-5.95 1.41-8.567-3.78-13.81-6.553-14.767-2.973-1.008-5.19-.756-6.098 1.008-.657 1.31-.102 3.58 3.174 4.033 4.89.656 7.41 3.932 7.41 6.2 0 2.47-1.16 3.63-2.924 4.284-2.268.857-6.1.756-6.4.756v14.517h2.62v-9.375zm-1.31 13.306c-1.513 0-2.672 1.06-2.723 2.572-.05 1.512 1.11 2.62 2.62 2.62 1.513 0 2.723-1.108 2.774-2.62.05-1.462-1.16-2.57-2.67-2.57zm18.8-3.93h2.62c.403-7.762 1.26-23.942 1.26-28.83 0-1.16-.655-2.723-2.62-2.723-1.866 0-2.672 1.562-2.672 2.722 0 4.888 1.058 21.068 1.41 28.83zm1.26 3.93c-1.513 0-2.672 1.06-2.723 2.572-.05 1.512 1.11 2.62 2.62 2.62 1.514 0 2.723-1.108 2.774-2.62.05-1.462-1.16-2.57-2.67-2.57zm10.685 2.27c-.05 2.167 1.06 3.377 3.125 3.377 2.016 0 3.176-1.21 3.276-3.377.05-2.168-1.058-3.327-3.175-3.327-2.066 0-3.175 1.16-3.225 3.327zm21.068 0c0-2.168-1.21-3.327-3.326-3.327-2.067 0-3.176 1.16-3.226 3.327-.05 1.713.656 2.822 2.672 3.226-.2 2.57-.907 4.334-2.974 6.905l1.865.606c3.53-3.226 4.99-6.704 4.99-10.736zm7.813-17.843c-.05 2.167 1.058 3.377 3.125 3.377 2.017 0 3.176-1.21 3.277-3.377.05-2.168-1.058-3.327-3.175-3.327-2.067 0-3.176 1.16-3.226 3.327zm0 17.843c-.05 2.167 1.058 3.377 3.125 3.377 2.017 0 3.176-1.21 3.277-3.377.05-2.168-1.058-3.327-3.175-3.327-2.067 0-3.176 1.16-3.226 3.327zm14.516-17.843c-.05 2.167 1.058 3.377 3.125 3.377 2.016 0 3.175-1.21 3.276-3.377.05-2.168-1.06-3.327-3.176-3.327-2.066 0-3.175 1.16-3.225 3.327zm6.552 17.843c0-2.168-1.21-3.327-3.327-3.327-2.066 0-3.175 1.16-3.225 3.327-.05 1.713.655 2.822 2.67 3.226-.2 2.57-.906 4.334-2.973 6.905l1.864.606c3.528-3.226 4.99-6.704 4.99-10.736zm14.668-35.384c0-2.168-1.21-3.327-3.328-3.327-2.066 0-3.174 1.158-3.225 3.326-.05 1.714.655 2.822 2.67 3.226-.202 2.57-.907 4.334-2.974 6.905l1.866.605c3.527-3.226 4.99-6.704 4.99-10.736zm14.667 0c0-2.168-1.21-3.327-3.328-3.327-2.067 0-3.175 1.158-3.226 3.326-.05 1.714.655 2.822 2.672 3.226-.202 2.57-.908 4.334-2.974 6.905l1.865.605c3.527-3.226 4.99-6.704 4.99-10.736zm9.777 0c0-2.168-1.21-3.327-3.327-3.327-2.066 0-3.175 1.158-3.225 3.326-.05 1.714.655 2.822 2.67 3.226-.2 2.57-.906 4.334-2.973 6.905l1.865.605c3.528-3.226 4.99-6.704 4.99-10.736zm5.745 50.505c7.712-3.527 11.493-15.423 11.493-25.856 0-10.384-3.78-21.926-11.493-25.404l-.756 1.865c3.176 2.52 7.46 11.19 7.46 23.59 0 12.45-4.284 21.17-7.46 23.69l.756 2.116zM-112.107 280.116l-3.075-.604V264.19c0-4.034-2.52-6.453-6.502-6.453-2.268 0-4.79.706-7.107 2.67v-18.95l-.757-.505c-2.42 1.714-4.335 2.773-6.654 3.53-9.78.3-18.096.3-27.925-.052-.1 3.78-.453 7.712-.705 10.787h2.62l1.664-8.57c3.125.05 5.897.102 8.67.102v32.51l-3.025.806v1.512c3.88-.353 7.41-.353 11.29 0v-1.512l-3.024-.806h-.05v-32.51c3.83 0 8.014-.052 13.407-.102v32.813l-3.024.656v1.513c3.174-.354 7.307-.354 10.634 0v-1.514l-3.125-.655v-16.935c1.158-1.512 3.326-2.47 4.787-2.47 2.974 0 4.335 1.966 4.335 4.487v14.97l-3.075.604v1.513c3.277-.354 7.36-.354 10.636 0v-1.514zm16.33-21.825H-98.5v1.816h4.185v19.406l-3.025.604v1.513c3.58-.405 6.906-.405 10.585 0v-1.514l-3.125-.604v-19.406H-80v19.406l-3.025.604v1.513c3.58-.405 6.906-.405 10.585 0v-1.514l-3.125-.604v-19.406h6.1l.2-1.815h-6.3v-5.795c0-6.553.706-10.333 3.68-10.333 1.31 0 2.117.202 3.024 1.36-.505.656-.656 1.26-.656 1.816 0 1.915 1.16 2.72 2.67 2.72 1.564 0 2.52-1.057 2.52-3.023 0-2.722-3.225-4.486-7.46-4.486-2.418 0-4.283.755-5.543 2.166-1.41-.705-3.527-1.058-6.25-1.058-6.5 0-10.483 4.133-10.735 11.24v2.823c0 2.32-.152 2.57-1.462 2.57zm14.315 0h-8.418v-4.686c0-6.553 2.42-10.333 6.2-10.333 2.016 0 3.528.757 4.637 2.42-.605 1.664-.907 3.68-.958 6.1v3.93c0 2.32-.152 2.57-1.462 2.57zm26.663 0h-2.72v1.816h4.183v19.406l-3.025.604v1.513c3.58-.405 6.906-.405 10.585 0v-1.514l-3.125-.604v-19.406h10.13v19.355l-3.023.656v1.513c3.58-.405 6.906-.405 10.585 0v-1.514l-3.125-.655v-21.47l-.907-.555-1.916.856h-11.744v-5.795c0-6.553.907-10.333 4.79-10.333 2.67 0 4.233 1.008 5.24 2.722-.806.454-1.16 1.36-1.21 2.62-.05 2.017 1.01 3.176 2.924 3.176 1.916 0 2.974-1.16 3.075-3.175 0-.403 0-.756-.1-1.06-.606-3.73-4.083-5.896-9.83-5.896-6.603 0-9.173 4.132-9.324 11.24v3.93c0 2.32-.152 2.57-1.462 2.57zm39.668 0h-2.722v1.816h4.183v19.406l-3.025.604v1.513c3.58-.405 6.905-.405 10.585 0v-1.514l-3.125-.604v-19.406h9.88v19.406l-3.025.604v1.513c3.58-.405 6.905-.405 10.585 0v-1.514l-3.125-.604v-19.406h10.13v19.355l-3.023.656v1.513c3.578-.405 6.905-.405 10.585 0v-1.514l-3.125-.655v-21.47l-.908-.555-1.916.856H5.08v-5.795c0-6.553.907-10.333 4.788-10.333 2.672 0 4.234 1.008 5.242 2.722-.806.454-1.16 1.36-1.21 2.62-.05 2.017 1.01 3.176 2.924 3.176 1.915 0 2.974-1.16 3.075-3.175 0-.403 0-.756-.102-1.06-.605-3.73-4.083-5.896-9.83-5.896-2.872 0-4.99.806-6.45 2.267-1.412-.756-3.63-1.16-6.453-1.16-6.502 0-10.484 4.134-10.736 11.24v2.824c0 2.32-.152 2.57-1.462 2.57zm14.314 0h-8.417v-4.686c0-6.553 2.42-10.333 6.2-10.333 2.066 0 3.578.807 4.687 2.52-.655 1.614-.957 3.63-1.008 6v3.93c0 2.32-.15 2.57-1.462 2.57zm38.66 0H35.12v1.816h4.183v19.406l-3.024.604v1.513c3.578-.405 6.905-.405 10.584 0v-1.514l-3.125-.604v-19.406h6.098l.202-1.815h-6.3v-5.795c0-6.553 1.21-10.333 5.29-10.333 2.673 0 5.294 2.167 5.294 5.897v31.452l-3.024.604v1.513c3.578-.405 6.905-.405 10.585 0v-1.514l-3.125-.604v-38.156l-.807-.504-1.512 1.46c-1.713-1.057-4.233-1.763-7.41-1.763-6.702 0-9.575 4.132-9.727 11.24v3.93c0 2.32-.15 2.57-1.46 2.57zm39.113 0h-2.72v1.816h4.182v19.406l-3.024.604v1.513c3.58-.405 6.905-.405 10.585 0v-1.514l-3.125-.604v-19.406h9.88v19.406l-3.025.604v1.513c3.578-.405 6.905-.405 10.585 0v-1.514l-3.125-.604v-19.406h6.1l.2-1.815h-6.3v-5.795c0-6.553 1.21-10.333 5.292-10.333 2.67 0 5.293 2.167 5.293 5.897v31.452l-3.025.604v1.513c3.58-.405 6.906-.405 10.585 0v-1.514l-3.125-.604v-38.156l-.806-.504-1.513 1.46c-1.714-1.057-4.234-1.763-7.41-1.763-2.974 0-5.192.806-6.754 2.318-1.41-.807-3.63-1.21-6.553-1.21-6.502 0-10.484 4.133-10.736 11.24v2.823c0 2.32-.15 2.57-1.462 2.57zm14.315 0h-8.417v-4.686c0-6.553 2.42-10.333 6.2-10.333 2.116 0 3.63.858 4.738 2.572-.655 1.663-1.008 3.63-1.058 5.947v3.93c0 2.32-.15 2.57-1.462 2.57zm38.86 0h-2.72v1.816h4.183v19.406l-3.024.604v1.513c3.577-.304 6.45-.354 7.46-.304v-28.83c0-6.554.906-10.334 4.737-10.334 1.713 0 4.486 2.067 4.486 6.653 0 3.932-1.31 6.05-6.35 8.872l.553.907c6.3 2.42 9.123 6.804 9.123 13.155 0 5.04-1.362 7.56-3.075 7.56-1.412 0-2.218-1.663-3.075-3.175-.303-.555-.958-1.01-1.714-1.01-1.41 0-2.318.707-2.318 2.42 0 1.664 1.36 4.285 6.804 4.285 3.377 0 8.367-3.125 8.367-11.442 0-6.754-5.797-11.14-8.77-12.903 2.973-2.268 4.636-5.847 4.636-8.77 0-3.83-2.016-8.166-8.67-8.166-6.45 0-9.022 4.132-9.173 11.24v3.93c0 2.32-.15 2.57-1.462 2.57zm39.265 4.437c.202 10.988 3.277 19.103 11.392 19.103 8.417 0 11.39-8.266 11.39-19.254.203-10.988-3.174-18.85-11.592-18.85-7.863.1-10.988 8.013-11.19 19zm17.944-.1c0 12.5-3.025 17.137-6.755 17.137-3.377 0-6.048-4.537-6.25-17.037.202-12.5 2.873-17.137 6.25-17.238 3.73 0 6.956 4.636 6.754 17.136zm22.33 17.288c-1.21 0-2.723 0-2.723-.655v-35.535l-7.763 2.47v1.36s3.125-.957 3.125.454v31.25c0 .655-1.513.655-2.722.655v1.36h10.08v-1.36zm25.3 1.36l1.815-6.753-.907-.555s-1.41 2.672-4.335 2.672h-9.173s4.738-7.562 5.645-9.125c1.41-2.37 8.115-10.736 8.115-15.322 0-4.587-2.873-8.468-8.57-8.468-5.342 0-7.51 4.334-9.424 8.82l1.562.404c1.966-4.235 3.68-5.344 6.3-5.344 3.983 0 6.25 2.923 5.192 8.568-.504 2.672-4.738 9.78-7.308 13.66-2.168 3.276-6.3 10.282-6.3 10.282l.705 1.16h16.684zm15.474.555c5.444 0 11.493-3.125 11.493-11.442 0-6.703-4.74-9.677-7.258-11.038 1.965-2.117 4.988-3.63 5.694-7.914.706-4.183-1.36-7.71-7.158-7.71-5.29 0-8.014 4.737-9.626 8.517l1.36.302c1.916-3.68 4.184-5.847 6.755-5.847 4.032 0 4.888 1.966 4.84 4.89-.103 4.234-4.134 6.35-7.966 10.685l.554 1.008c2.117 0 9.376 2.118 9.376 8.47 0 5.04-3.53 6.653-6.2 6.653-2.42 0-3.327-.807-3.932-1.31-.706-.555-1.814-1.26-2.722-1.26-.908 0-2.016.705-2.016 2.72 0 1.664 2.873 3.277 6.804 3.277zm37.602-1.915c-1.21 0-2.672 0-2.672-.655v-10.03h4.587c-.05-1.563-.15-1.463.303-3.277h-4.94v-22.228c-1.915.504-2.62.655-4.334.655l-13.257 23.992.705.857h12.45v10.03c0 .655-1.46.655-2.67.655v1.36h9.828v-1.36zm-16.785-13.962l9.628-17.642v17.643h-9.627zm32.864 15.676c6.603-.405 12.147-5.395 10.333-14.417-1.36-6.704-9.324-8.418-13.004-9.022l1.713-9.274h10.283l1.712-6.048h-1.612c-.303 1.11-.857 1.562-3.226 1.562h-8.367l-3.427 17.39c.05-.1.856 1.36.856 1.36 3.73.152 11.09 1.614 11.946 6.3 1.058 5.898-2.016 8.47-5.192 8.923-2.974.403-4.738-2.52-7.157-2.117-1.11.2-2.37 1.512-1.764 3.175.503 1.362 3.628 2.37 6.904 2.17zm28.58.2c5.695 0 10.18-5.19 10.18-10.887 0-8.57-4.384-12.652-10.18-12.652-2.47 0-4.033.757-5.445 2.824.957-10.988 8.82-15.776 12.65-15.978v-1.462c-8.215 0-17.943 7.46-17.943 24.648 0 8.92 4.788 13.508 10.736 13.508zm5.443-10.837c0 4.84-2.32 8.72-5.444 8.72-3.226 0-5.746-3.68-5.746-8.72 0-8.216 1.915-10.685 5.746-10.685 3.478 0 5.444 3.93 5.444 10.685zm16.784 10.837c2.118 0 2.52-1.613 2.874-8.165.554-10.434 11.14-28.53 11.038-28.983l-.756-.957H349.89l-1.713 6.45h1.612c.302-1.108 1.058-1.964 3.427-1.964h11.442c-3.73 5.948-9.78 18.146-11.14 24.75-1.412 6.904-1.01 8.87 1.41 8.87zm38.963-9.073c0-4.032-3.578-8.518-7.812-12.55 2.168-1.815 5.192-5.595 5.192-8.57 0-3.628-1.462-7.862-7.863-7.963-5.445-.1-8.267 3.276-8.267 7.56 0 3.983 2.57 7.36 6.048 10.737-2.82 1.815-7.307 6.957-7.307 11.24 0 4.89 2.873 8.52 9.728 8.62 7.007.1 10.283-4.687 10.283-9.073zm-14.617-22.833c0-2.67 1.815-4.234 4.536-4.183 3.428.05 4.99 3.327 4.99 5.898 0 2.67-2.217 5.746-4.133 7.258-3.378-3.226-5.394-6.4-5.394-8.972zm4.284 29.336c-3.125-.1-6.855-1.966-6.855-5.948 0-4.637 4.234-9.022 6.05-9.88 3.83 3.73 6.652 7.56 6.652 11.04 0 2.923-3.377 4.888-5.847 4.788zm25.756-35.586c-5.696 0-10.13 5.444-10.13 11.442 0 8.57 4.334 12.097 10.13 12.097 2.47 0 4.033-.756 5.444-2.823-.958 10.988-8.82 15.777-12.652 15.98v1.46c8.216 0 17.944-7.46 17.944-24.647 0-8.922-4.788-13.51-10.736-13.51zm-5.443 10.837c0-4.838 2.318-8.72 5.443-8.72 3.226 0 5.746 3.68 5.746 8.72 0 8.217-1.915 10.687-5.746 10.687-3.478 0-5.443-3.932-5.443-10.686zm55.545-11.794h-3.024l-21.876 38.51h3.025l21.875-38.51zm-21.37 24.043c-.91 0-2.118 0-2.118-.505v-22.782l-6.05 1.965v1.36s2.42-.755 2.42.354v19.103c0 .504-1.21.504-2.116.504v1.36h7.863v-1.36zm28.376 13.155c-.957 0-2.117 0-2.117-.555v-5.947h3.68c-.05-1.26-.15-1.16.2-2.62h-3.93V255.77c-1.512.404-2.117.556-3.478.556l-10.586 16.43.555.657h9.98v5.947c0 .555-1.21.555-2.17.555v1.36h7.864v-1.36zm-12.903-9.123l7.21-11.492v11.492h-7.21zm53.53-28.076h-3.024l-21.876 38.51h3.025l21.875-38.51zm-21.37 24.043c-.91 0-2.118 0-2.118-.505v-22.782l-6.05 1.965v1.36s2.42-.755 2.42.354v19.103c0 .504-1.21.504-2.116.504v1.36h7.863v-1.36zm28.93 14.516l1.463-5.09-.706-.455s-1.16 2.17-3.478 2.17h-6.906s3.024-3.48 4.586-5.243c1.613-1.865 5.293-5.898 5.646-9.628.352-3.68-1.714-6.805-5.898-6.805-4.334 0-6.653 3.528-7.812 7.107l1.26.353c1.21-3.377 3.125-4.335 5.292-4.385 2.924-.05 4.99 2.822 3.075 6.905-1.31 2.823-3.075 5.14-5.645 8.266-1.966 2.37-4.99 5.9-4.99 5.9l.554.906h13.56zM-130.152 178.384c-1.16-2.57-2.47-3.327-4.284-2.42-1.563.807-1.412 2.52.403 4.79 1.058 1.46 2.218 2.62 5.595 6.35h2.167c-2.067-5.192-3.277-7.46-3.882-8.72zm10.786 33.418l-.705-.958c-.505.555-1.21 1.21-2.017 1.21-.807 0-1.06-.202-1.06-.857v-15.424c0-3.478-2.166-5.393-6.2-5.393-5.493 0-9.827 3.024-9.827 6.855 0 1.512 1.058 2.772 2.37 2.772 1.51 0 2.72-.907 2.72-2.57 0-.908-.403-1.664-1.058-2.067.403-2.218 2.117-3.427 4.284-3.427 2.57 0 3.277 1.512 3.277 4.586v4.082c-8.37 2.52-12.3 5.09-12.3 9.073 0 3.075 1.41 5.09 4.436 5.09 1.814 0 5.04-1.36 8.165-3.88.152 3.024.908 3.88 2.47 3.88 3.176 0 4.84-2.116 5.444-2.973zm-8.215-2.168c-1.413.958-3.278 1.765-4.538 1.765-2.47 0-3.377-1.21-3.377-2.874 0-1.412.756-2.974 2.32-3.882 1.208-.705 2.82-1.41 5.594-2.37v7.36zm22.025-31.25c-.605 1.26-1.815 3.528-3.882 8.72h2.168c3.378-3.73 4.537-4.89 5.596-6.35 1.814-2.27 1.965-3.983.403-4.79-1.816-.907-3.126-.15-4.285 2.42zm11.24 33.418l-.706-.958c-.505.555-1.21 1.21-2.017 1.21-.807 0-1.06-.202-1.06-.857v-15.424c0-3.478-2.166-5.393-6.198-5.393-5.494 0-9.83 3.024-9.83 6.855 0 1.512 1.06 2.772 2.37 2.772 1.512 0 2.722-.907 2.722-2.57 0-.908-.404-1.664-1.06-2.067.404-2.218 2.118-3.427 4.285-3.427 2.57 0 3.277 1.512 3.277 4.586v4.082c-8.368 2.52-12.3 5.09-12.3 9.073 0 3.075 1.41 5.09 4.436 5.09 1.814 0 5.04-1.36 8.165-3.88.152 3.024.908 3.88 2.47 3.88 3.176 0 4.84-2.116 5.445-2.973zm-8.216-2.168c-1.413.958-3.278 1.765-4.538 1.765-2.47 0-3.377-1.21-3.377-2.874 0-1.412.756-2.974 2.32-3.882 1.21-.705 2.822-1.41 5.594-2.37v7.36zm15.12-24.345h2.267c1.916-1.715 3.327-2.924 4.486-3.78 1.16.856 2.57 2.065 4.486 3.78h2.268c-2.773-3.378-4.537-5.797-5.797-7.36h-1.914c-1.26 1.563-3.024 3.982-5.797 7.36zm18.145 26.512l-.706-.958c-.505.555-1.21 1.21-2.017 1.21-.806 0-1.058-.202-1.058-.857v-15.424c0-3.478-2.168-5.393-6.2-5.393-5.494 0-9.83 3.024-9.83 6.855 0 1.512 1.06 2.772 2.37 2.772 1.512 0 2.722-.907 2.722-2.57 0-.908-.403-1.664-1.06-2.067.405-2.218 2.118-3.427 4.286-3.427 2.57 0 3.276 1.512 3.276 4.586v4.082c-8.368 2.52-12.3 5.09-12.3 9.073 0 3.075 1.412 5.09 4.436 5.09 1.814 0 5.04-1.36 8.165-3.88.153 3.024.91 3.88 2.47 3.88 3.177 0 4.84-2.116 5.445-2.973zm-8.216-2.168c-1.412.958-3.277 1.765-4.537 1.765-2.47 0-3.378-1.21-3.378-2.874 0-1.412.757-2.974 2.32-3.882 1.21-.705 2.822-1.41 5.594-2.37v7.36zm14.767-27.62c-.05 1.864.907 2.872 2.67 2.872 1.715 0 2.723-1.008 2.824-2.873.05-1.865-.907-2.823-2.72-2.823-1.816 0-2.773.958-2.773 2.823zm9.224 0c-.05 1.864.908 2.872 2.722 2.872 1.714 0 2.722-1.008 2.823-2.873 0-1.865-.907-2.823-2.772-2.823-1.764 0-2.722.958-2.772 2.823zm9.93 29.788l-.705-.958c-.504.555-1.21 1.21-2.017 1.21-.806 0-1.058-.202-1.058-.857v-15.424c0-3.478-2.167-5.393-6.2-5.393-5.494 0-9.83 3.024-9.83 6.855 0 1.512 1.06 2.772 2.37 2.772 1.513 0 2.722-.907 2.722-2.57 0-.908-.403-1.664-1.058-2.067.403-2.218 2.117-3.427 4.284-3.427 2.57 0 3.276 1.512 3.276 4.586v4.082c-8.367 2.52-12.298 5.09-12.298 9.073 0 3.075 1.41 5.09 4.435 5.09 1.816 0 5.042-1.36 8.167-3.88.15 3.024.907 3.88 2.47 3.88 3.175 0 4.838-2.116 5.443-2.973zm-8.216-2.168c-1.41.958-3.276 1.765-4.536 1.765-2.47 0-3.377-1.21-3.377-2.874 0-1.412.757-2.974 2.32-3.882 1.21-.705 2.822-1.41 5.594-2.37v7.36zm19.91-29.234c-3.73.1-4.99 2.873-5.293 5.847l1.31-.1c.052-.96.91-2.622 2.118-2.622 2.218 0 3.478 1.764 5.847 1.915 3.73.05 4.99-2.42 5.293-5.443l-1.31.15c-.05.96-.908 2.22-2.118 2.22-2.066 0-3.578-1.917-5.847-1.967zm13.356 31.402l-.705-.958c-.504.555-1.21 1.21-2.016 1.21-.808 0-1.06-.202-1.06-.857v-15.424c0-3.478-2.167-5.393-6.2-5.393-5.494 0-9.828 3.024-9.828 6.855 0 1.512 1.058 2.772 2.37 2.772 1.51 0 2.72-.907 2.72-2.57 0-.908-.403-1.664-1.058-2.067.403-2.218 2.117-3.427 4.284-3.427 2.57 0 3.277 1.512 3.277 4.586v4.082c-8.368 2.52-12.3 5.09-12.3 9.073 0 3.075 1.412 5.09 4.436 5.09 1.816 0 5.042-1.36 8.167-3.88.15 3.024.907 3.88 2.47 3.88 3.175 0 4.84-2.116 5.443-2.973zm-8.215-2.168c-1.412.958-3.277 1.765-4.537 1.765-2.47 0-3.377-1.21-3.377-2.874 0-1.412.757-2.974 2.32-3.882 1.21-.705 2.822-1.41 5.595-2.37v7.36zm17.943-26.865c0 2.872 1.764 4.435 4.284 4.435 2.268 0 4.234-1.563 4.385-4.436.1-2.924-1.965-4.386-4.284-4.386-2.32 0-4.385 1.462-4.385 4.385zm1.46 0c.052-1.866 1.11-2.824 2.875-2.824 1.864 0 2.873.958 2.873 2.823-.1 1.864-1.21 2.872-2.924 2.872-1.814 0-2.873-1.008-2.823-2.873zM6.542 211.8l-.705-.958c-.504.555-1.21 1.21-2.016 1.21-.808 0-1.06-.202-1.06-.857v-15.424c0-3.478-2.167-5.393-6.2-5.393-5.493 0-9.828 3.024-9.828 6.855 0 1.512 1.058 2.772 2.37 2.772 1.51 0 2.72-.907 2.72-2.57 0-.908-.403-1.664-1.058-2.067.403-2.218 2.117-3.427 4.284-3.427 2.57 0 3.277 1.512 3.277 4.586v4.082c-8.367 2.52-12.3 5.09-12.3 9.073 0 3.075 1.412 5.09 4.437 5.09 1.814 0 5.04-1.36 8.165-3.88.15 3.024.907 3.88 2.47 3.88 3.175 0 4.84-2.116 5.444-2.973zm-8.215-2.168c-1.412.958-3.277 1.765-4.537 1.765-2.47 0-3.377-1.21-3.377-2.874 0-1.412.757-2.974 2.32-3.882 1.21-.705 2.823-1.41 5.595-2.37v7.36zm20.463-31.25c-1.16-2.57-2.47-3.327-4.284-2.42-1.563.807-1.412 2.52.403 4.79 1.058 1.46 2.218 2.62 5.595 6.35h2.167c-2.067-5.192-3.277-7.46-3.882-8.72zm-8.216 24.043c0 7.41 3.58 11.845 9.275 11.845 4.536 0 7.36-2.017 8.82-6.35l-1.31-.757c-1.613 3.578-3.377 4.637-5.595 4.586-3.88 0-6.35-3.577-6.35-8.82v-1.108l13.255-.1.454-.555c-.15-7.41-3.174-10.837-8.92-10.837-5.898 0-9.628 4.536-9.628 12.097zm9.678-10.484c3.075 0 4.385 2.318 4.385 5.393 0 2.318-.15 2.57-1.462 2.57h-7.66c0-4.284 2.065-7.963 4.737-7.963zm25-13.56c-.604 1.26-1.814 3.53-3.88 8.72h2.167c3.377-3.73 4.536-4.888 5.595-6.35 1.814-2.268 1.965-3.982.403-4.79-1.815-.906-3.125-.15-4.285 2.42zm-10.837 24.044c0 7.41 3.58 11.845 9.275 11.845 4.536 0 7.36-2.017 8.82-6.35l-1.31-.757c-1.613 3.578-3.377 4.637-5.595 4.586-3.88 0-6.35-3.577-6.35-8.82v-1.108l13.256-.1.452-.555c-.15-7.41-3.175-10.837-8.92-10.837-5.9 0-9.63 4.536-9.63 12.097zm9.678-10.484c3.076 0 4.386 2.318 4.386 5.393 0 2.318-.15 2.57-1.46 2.57h-7.663c0-4.284 2.067-7.963 4.738-7.963zm17.038-6.654h2.268c1.915-1.715 3.327-2.924 4.486-3.78 1.16.856 2.57 2.065 4.486 3.78h2.268c-2.772-3.378-4.536-5.797-5.796-7.36h-1.916c-1.26 1.563-3.024 3.982-5.796 7.36zm-2.873 17.137c0 7.41 3.578 11.845 9.274 11.845 4.535 0 7.358-2.017 8.82-6.35l-1.31-.757c-1.614 3.578-3.378 4.637-5.596 4.586-3.88 0-6.35-3.577-6.35-8.82v-1.108l13.256-.1.453-.555c-.15-7.41-3.175-10.837-8.92-10.837-5.898 0-9.628 4.536-9.628 12.097zm9.677-10.484c3.075 0 4.386 2.318 4.386 5.393 0 2.318-.152 2.57-1.462 2.57h-7.662c0-4.284 2.067-7.963 4.738-7.963zm16.432-9.93c-.05 1.865.907 2.873 2.672 2.873 1.713 0 2.72-1.008 2.822-2.873.05-1.865-.907-2.823-2.722-2.823-1.814 0-2.772.958-2.772 2.823zm9.224 0c-.05 1.865.907 2.873 2.722 2.873 1.714 0 2.722-1.008 2.823-2.873 0-1.865-.908-2.823-2.773-2.823-1.764 0-2.72.958-2.772 2.823zm-11.492 20.414c0 7.41 3.58 11.845 9.274 11.845 4.537 0 7.36-2.017 8.82-6.35l-1.31-.757c-1.612 3.578-3.377 4.637-5.594 4.586-3.88 0-6.35-3.577-6.35-8.82v-1.108l13.255-.1.455-.555c-.15-7.41-3.176-10.837-8.922-10.837-5.897 0-9.627 4.536-9.627 12.097zm9.678-10.484c3.074 0 4.385 2.318 4.385 5.393 0 2.318-.152 2.57-1.463 2.57h-7.66c0-4.284 2.065-7.963 4.737-7.963zm19.002-13.56c-1.16-2.57-2.47-3.326-4.284-2.42-1.563.808-1.412 2.522.403 4.79 1.158 1.41 2.218 2.62 5.595 6.35h2.167c-2.066-5.19-3.276-7.46-3.88-8.72zm-1.865 15.98v17.892l-3.023.656v1.513c3.578-.403 6.905-.403 10.585 0v-1.512l-3.125-.655V190.28l-.908-.555c-2.32 1.31-4.184 2.42-6.553 3.175v1.26l3.024.202zm18.095-16.03c-.604 1.26-1.814 3.53-3.88 8.72h2.167c3.377-3.73 4.435-4.94 5.595-6.35 1.814-2.27 1.965-3.983.403-4.79-1.815-.906-3.125-.15-4.285 2.42zm-1.713 16.03v17.892l-3.025.656v1.513c3.58-.403 6.906-.403 10.585 0v-1.512l-3.125-.655V190.28l-.907-.555c-2.32 1.31-4.184 2.42-6.553 3.175v1.26l3.025.202zm11.844-9.074h2.268c1.915-1.715 3.327-2.924 4.486-3.78 1.16.856 2.57 2.065 4.486 3.78h2.268c-2.772-3.378-4.536-5.797-5.796-7.36h-1.916c-1.26 1.563-3.024 3.982-5.796 7.36zm4.84 9.072v17.893l-3.026.656v1.513c3.58-.403 6.906-.403 10.585 0v-1.512l-3.125-.655V190.28l-.907-.555c-2.32 1.31-4.184 2.42-6.553 3.175v1.26l3.025.202zm12.7-12.35c-.05 1.866.908 2.874 2.672 2.874 1.714 0 2.722-1.008 2.823-2.873.05-1.865-.907-2.823-2.72-2.823-1.816 0-2.773.958-2.773 2.823zm9.225 0c-.05 1.866.908 2.874 2.722 2.874 1.714 0 2.722-1.008 2.823-2.873 0-1.865-.907-2.823-2.772-2.823-1.764 0-2.722.958-2.772 2.823zm-3.376 12.35v17.893l-3.025.656v1.513c3.578-.403 6.905-.403 10.584 0v-1.512l-3.125-.655V190.28l-.908-.555c-2.32 1.31-4.184 2.42-6.553 3.175v1.26l3.024.202zm22.883-13.962c-3.73.1-4.99 2.873-5.292 5.847l1.31-.1c.05-.96.907-2.622 2.117-2.622 2.218 0 3.478 1.764 5.847 1.915 3.73.05 4.99-2.42 5.29-5.443l-1.31.15c-.05.96-.906 2.22-2.116 2.22-2.067 0-3.58-1.917-5.847-1.967zm14.668 32.51l-3.075-.554v-15.373c0-4.083-2.42-6.452-6.603-6.452-2.62 0-4.99.757-7.107 2.723l-.252-3.024-.907-.556c-2.62 1.512-4.788 2.773-6.4 3.226v1.26l3.024.202v17.944l-3.025.605v1.513c3.326-.353 7.308-.353 10.736 0v-1.512l-3.125-.604V195.27c1.16-1.462 2.823-2.42 4.74-2.42 3.124 0 4.384 1.966 4.384 4.486v15.02l-3.075.555v1.513c3.73-.403 6.955-.403 10.685 0v-1.512zm13.91-34.526c-1.158-2.57-2.468-3.327-4.283-2.42-1.563.807-1.41 2.52.403 4.79 1.06 1.46 2.218 2.62 5.595 6.35h2.167c-2.066-5.192-3.276-7.46-3.88-8.72zm-9.122 24.143c0 7.56 3.73 12.097 10.484 12.097 6.704 0 10.333-4.586 10.333-12.147 0-7.964-3.63-12.248-10.333-12.248-6.754 0-10.484 4.334-10.484 12.297zm16.03 0c0 6.553-1.614 10.333-5.546 10.333-3.982 0-5.544-3.78-5.544-10.333 0-6.955 1.562-10.736 5.544-10.736 3.932 0 5.545 3.782 5.545 10.737zm21.824-24.143c-.605 1.26-1.815 3.528-3.88 8.72h2.166c3.377-3.73 4.536-4.89 5.595-6.35 1.814-2.27 1.966-3.983.403-4.79-1.813-.907-3.124-.15-4.283 2.42zm-11.744 24.143c0 7.56 3.73 12.097 10.484 12.097 6.703 0 10.333-4.586 10.333-12.147 0-7.964-3.63-12.248-10.333-12.248-6.754 0-10.484 4.334-10.484 12.297zm16.028 0c0 6.553-1.613 10.333-5.543 10.333-3.982 0-5.545-3.78-5.545-10.333 0-6.955 1.563-10.736 5.545-10.736 3.93 0 5.544 3.782 5.544 10.737zm13.76-17.238h2.27c1.914-1.715 3.326-2.924 4.485-3.78 1.16.856 2.57 2.065 4.486 3.78h2.27c-2.773-3.378-4.537-5.797-5.797-7.36h-1.916c-1.26 1.563-3.024 3.982-5.796 7.36zm-3.68 17.237c0 7.56 3.73 12.097 10.485 12.097 6.704 0 10.333-4.586 10.333-12.147 0-7.964-3.63-12.248-10.333-12.248-6.754 0-10.484 4.334-10.484 12.297zm16.03 0c0 6.553-1.613 10.333-5.545 10.333-3.982 0-5.544-3.78-5.544-10.333 0-6.955 1.563-10.736 5.545-10.736 3.932 0 5.545 3.782 5.545 10.737zm13.256-20.514c-.05 1.865.907 2.873 2.672 2.873 1.713 0 2.72-1.008 2.822-2.873.05-1.865-.907-2.823-2.722-2.823-1.814 0-2.772.958-2.772 2.823zm9.224 0c-.05 1.865.907 2.873 2.722 2.873 1.714 0 2.722-1.008 2.823-2.873 0-1.865-.908-2.823-2.773-2.823-1.764 0-2.72.958-2.772 2.823zm-12.4 20.514c0 7.56 3.73 12.097 10.485 12.097 6.704 0 10.333-4.586 10.333-12.147 0-7.964-3.63-12.248-10.333-12.248-6.754 0-10.484 4.334-10.484 12.297zm16.03 0c0 6.553-1.614 10.333-5.545 10.333-3.982 0-5.545-3.78-5.545-10.333 0-6.955 1.563-10.736 5.545-10.736 3.93 0 5.544 3.782 5.544 10.737zm18.195-22.127c-3.73.1-4.99 2.873-5.292 5.847l1.31-.1c.05-.96.908-2.622 2.117-2.622 2.218 0 3.478 1.764 5.847 1.915 3.73.05 4.99-2.42 5.293-5.443l-1.31.15c-.05.96-.908 2.22-2.118 2.22-2.066 0-3.58-1.917-5.847-1.967zm-8.115 22.127c0 7.56 3.73 12.097 10.484 12.097 6.704 0 10.333-4.586 10.333-12.147 0-7.964-3.63-12.248-10.333-12.248-6.754 0-10.484 4.334-10.484 12.297zm16.03 0c0 6.553-1.614 10.333-5.546 10.333-3.982 0-5.544-3.78-5.544-10.333 0-6.955 1.562-10.736 5.544-10.736 3.932 0 5.545 3.782 5.545 10.737zm21.118-24.143c-1.16-2.57-2.47-3.327-4.284-2.42-1.563.807-1.412 2.52.403 4.79 1.058 1.46 2.218 2.62 5.595 6.35h2.167c-2.067-5.192-3.277-7.46-3.882-8.72zm6.3 35.636l.807.352c1.966-.957 4.133-1.965 5.847-2.37v-1.208l-3.024-.1V190.63c-2.117.302-4.486.302-7.662 0v1.41l3.125.556v17.188c-1.057 1.36-3.073 2.47-4.99 2.47-2.67 0-3.98-2.017-3.98-4.537V190.63c-1.966.353-4.285.353-7.612 0v1.41l3.075.505v15.525c0 4.083 2.42 6.452 6.452 6.452 2.268 0 5.04-.857 7.308-2.974l.656 2.47zm22.228-35.636c-.605 1.26-1.814 3.528-3.88 8.72h2.166c3.378-3.73 4.537-4.89 5.595-6.35 1.815-2.27 1.966-3.983.404-4.79-1.814-.907-3.125-.15-4.284 2.42zm6.2 35.636l.806.352c1.966-.957 4.134-1.965 5.847-2.37v-1.208l-3.025-.1V190.63c-2.117.302-4.486.302-7.66 0v1.41l3.124.556v17.188c-1.06 1.36-3.076 2.47-4.99 2.47-2.673 0-3.983-2.017-3.983-4.537V190.63c-1.966.353-4.285.353-7.61 0v1.41l3.073.505v15.525c0 4.083 2.42 6.452 6.452 6.452 2.268 0 5.04-.857 7.31-2.974l.654 2.47zm15.423-28.73h2.267c1.915-1.715 3.327-2.924 4.486-3.78 1.16.856 2.57 2.065 4.486 3.78h2.267c-2.772-3.378-4.536-5.797-5.796-7.36h-1.915c-1.26 1.563-3.024 3.982-5.796 7.36zm13.003 28.73l.807.352c1.965-.957 4.133-1.965 5.847-2.37v-1.208l-3.025-.1V190.63c-2.117.302-4.486.302-7.66 0v1.41l3.124.556v17.188c-1.06 1.36-3.075 2.47-4.99 2.47-2.672 0-3.982-2.017-3.982-4.537V190.63c-1.966.353-4.284.353-7.61 0v1.41l3.074.505v15.525c0 4.083 2.42 6.452 6.45 6.452 2.27 0 5.042-.857 7.31-2.974l.655 2.47zm14.768-32.007c-.05 1.865.908 2.873 2.672 2.873 1.714 0 2.722-1.008 2.823-2.873.05-1.865-.907-2.823-2.722-2.823-1.814 0-2.772.958-2.772 2.823zm9.225 0c-.05 1.865.907 2.873 2.722 2.873 1.713 0 2.722-1.008 2.822-2.873 0-1.865-.908-2.823-2.773-2.823-1.764 0-2.722.958-2.772 2.823zm4.435 32.007l.807.352c1.966-.957 4.133-1.965 5.847-2.37v-1.208l-3.024-.1V190.63c-2.117.302-4.486.302-7.662 0v1.41l3.125.556v17.188c-1.058 1.36-3.074 2.47-4.99 2.47-2.67 0-3.982-2.017-3.982-4.537V190.63c-1.965.353-4.283.353-7.61 0v1.41l3.075.505v15.525c0 4.083 2.42 6.452 6.452 6.452 2.268 0 5.04-.857 7.308-2.974l.655 2.47zm15.423-28.73h2.27c1.914-1.715 3.325-2.924 4.485-3.78 1.16.856 2.57 2.065 4.486 3.78h2.268c-2.772-3.378-4.537-5.797-5.797-7.36h-1.915c-1.26 1.563-3.024 3.982-5.797 7.36zm5.797 32.812l8.82-25.403 3.025-.556v-1.512c-2.924.403-5.645.403-8.57 0v1.512l3.378.555-4.687 14.817h-.605l-4.536-14.818 3.176-.556v-1.512c-3.88.403-7.31.403-11.29 0v1.512l3.175.555 7.56 21.672c-2.016 6-2.973 8.52-4.183 9.88-.353-1.966-1.462-3.075-3.125-3.075-1.916 0-2.924.958-2.924 2.772 0 1.763 1.462 3.124 3.83 3.124 3.025 0 4.386-2.016 6.957-8.972zm19.91-36.09c-.05 1.866.907 2.874 2.67 2.874 1.715 0 2.723-1.008 2.824-2.873.05-1.865-.908-2.823-2.722-2.823-1.815 0-2.772.958-2.772 2.823zm9.224 0c-.05 1.866.907 2.874 2.72 2.874 1.715 0 2.723-1.008 2.824-2.873 0-1.865-.907-2.823-2.772-2.823-1.764 0-2.722.958-2.772 2.823zm-3.226 36.09l8.82-25.403 3.025-.556v-1.512c-2.924.403-5.646.403-8.57 0v1.512l3.378.555-4.687 14.817h-.604L479.98 192.7l3.176-.556v-1.512c-3.88.403-7.31.403-11.29 0v1.512l3.175.555 7.56 21.672c-2.016 6-2.974 8.52-4.183 9.88-.353-1.966-1.462-3.075-3.125-3.075-1.916 0-2.924.958-2.924 2.772 0 1.763 1.463 3.124 3.832 3.124 3.024 0 4.385-2.016 6.956-8.972zM-129.094 144.596l-.706-.958c-.504.555-1.21 1.21-2.016 1.21-.807 0-1.06-.202-1.06-.857v-15.423c0-3.478-2.166-5.393-6.198-5.393-5.494 0-9.83 3.024-9.83 6.855 0 1.51 1.06 2.77 2.37 2.77 1.512 0 2.722-.906 2.722-2.57 0-.907-.404-1.663-1.06-2.066.404-2.218 2.118-3.427 4.286-3.427 2.57 0 3.276 1.512 3.276 4.586v4.083c-8.367 2.52-12.3 5.09-12.3 9.073 0 3.074 1.412 5.09 4.437 5.09 1.814 0 5.04-1.36 8.165-3.88.15 3.023.907 3.88 2.47 3.88 3.176 0 4.84-2.117 5.444-2.974zm-8.216-2.167c-1.412.956-3.276 1.763-4.537 1.763-2.47 0-3.377-1.21-3.377-2.873 0-1.412.756-2.974 2.32-3.88 1.21-.707 2.822-1.413 5.594-2.37v7.36zm33.266-6.957c0-8.267-3.125-12.35-9.275-12.35-1.46 0-3.124.454-4.737 1.614v-17.692l-.806-.454c-2.32 1.312-4.083 2.37-6.704 3.277v1.26l3.075.152v30.24c0 1.564-.252 4.034-.504 4.94l1.11.757c.503-.353 1.158-1.11 2.418-1.764 1.16 1.058 3.327 1.814 5.242 1.814 5.797 0 10.182-5.04 10.182-11.794zm-13.962-8.82c1.16-1.06 2.016-1.463 3.125-1.463 4.334 0 6.047 3.377 6.047 9.83 0 6.652-1.915 10.282-5.998 10.282-1.866 0-2.52-1.11-3.176-2.168v-16.482zm38.257 14.062l-1.26-.706c-1.31 2.973-3.175 4.586-5.493 4.636-4.234 0-6.553-3.63-6.553-9.576 0-6.553 1.512-10.283 5.14-10.283 2.17 0 3.73.907 4.235 3.024-.908.455-1.463 1.362-1.463 2.37 0 1.563.857 2.672 2.52 2.672 1.966 0 2.823-1.563 2.823-3.63 0-3.73-3.276-6.098-8.115-6.098-6.3 0-10.18 4.385-10.18 11.895 0 7.66 3.628 12.096 9.475 12.096 4.687 0 7.41-2.318 8.87-6.4zm20.817 6.452l.756.352c1.915-1.16 3.58-1.966 5.746-2.27v-1.26l-3.076-.25v-36.746l-.705-.453c-2.824 1.563-4.487 2.57-6.705 3.277v1.26l3.024.202v13.154c-1.614-.957-3.075-1.36-4.436-1.36-5.646 0-9.98 4.687-9.98 11.945 0 8.114 3.326 12.6 8.972 12.6 1.865 0 3.83-1.008 5.947-2.772l.454 2.32zm-4.99-2.168c-3.78 0-5.494-3.277-5.494-9.93 0-6.402 2.066-10.233 5.09-10.233 1.916 0 3.48.605 4.436 1.714v16.534c-1.412 1.21-2.672 1.865-4.033 1.915zm16.28-9.78c0 7.41 3.58 11.846 9.275 11.846 4.536 0 7.36-2.016 8.82-6.35l-1.31-.757c-1.613 3.577-3.377 4.636-5.595 4.586-3.88 0-6.35-3.58-6.35-8.82v-1.11l13.256-.1.453-.555c-.15-7.41-3.175-10.836-8.92-10.836-5.9 0-9.628 4.536-9.628 12.097zm9.678-10.483c3.075 0 4.385 2.318 4.385 5.393 0 2.32-.15 2.57-1.46 2.57h-7.663c0-4.284 2.067-7.963 4.738-7.963zm16.382-.857h-2.722v1.814h4.183V145.1l-3.024.605v1.512c3.58-.403 6.905-.403 10.585 0v-1.512l-3.126-.605v-19.406h6.1l.2-1.814h-6.3v-5.797c0-6.552.706-10.333 3.68-10.333 1.31 0 2.116.202 3.024 1.36-.504.657-.656 1.26-.656 1.816 0 1.915 1.16 2.722 2.672 2.722 1.562 0 2.52-1.06 2.52-3.025 0-2.72-3.226-4.486-7.46-4.486-5.695 0-8.064 4.134-8.216 11.24v3.932c0 2.318-.15 2.57-1.46 2.57zm36.542 25.454c0-3.528-2.572-5.746-7.31-5.746l-3.93-.15c-2.17 0-3.53-.556-3.53-2.22 0-.654.555-1.36 2.067-2.167.504.102.958.153 1.865.153 4.637.05 8.216-3.68 8.216-8.52 0-1.712-.403-2.922-1.613-4.535.806-.706 1.563-1.06 2.772-1.16-.756 1.614.15 3.428 1.865 3.428 1.41 0 2.268-.907 2.268-2.47 0-1.713-1.41-2.974-3.377-2.974-1.965 0-3.125.656-4.536 2.168-1.41-1.26-3.377-2.016-5.595-2.016-4.788 0-8.468 3.377-8.468 7.762 0 3.377 1.815 6.15 4.84 7.56-3.177 1.866-4.084 3.226-4.084 5.09 0 1.816 1.008 2.975 3.176 3.782-3.73 2.57-5.04 4.486-5.04 7.308 0 3.075 2.923 4.89 7.56 4.89 7.41 0 12.853-4.486 12.853-10.182zM4.07 124.686c2.822 0 3.83 2.37 3.83 6.3 0 4.033-1.008 6.402-3.83 6.402-2.823 0-3.83-2.37-3.83-6.4 0-3.933 1.007-6.302 3.83-6.302zm-.555 32.662c-2.822 0-4.89-1.613-4.89-3.78 0-2.57.807-3.982 3.328-5.797.504.052 1.16.052 1.713.052h2.37c3.93 0 5.645 1.008 5.645 2.822 0 3.78-3.277 6.704-8.166 6.704zM45.1 145.705l-3.074-.605v-15.323c0-4.032-2.52-6.452-6.502-6.452-2.268 0-4.79.706-7.107 2.672v-18.952l-.756-.504c-2.47 1.362-4.384 2.52-6.753 3.277v1.26l3.024.202v33.77l-3.023.655v1.512c3.175-.353 7.308-.353 10.635 0v-1.512l-3.125-.655v-16.936c1.16-1.512 3.327-2.47 4.788-2.47 2.974 0 4.335 1.966 4.335 4.486v14.97l-3.075.605v1.512c3.277-.353 7.36-.353 10.636 0v-1.512zm6.805-32.612c-.05 2.016 1.008 3.176 2.923 3.176s2.974-1.16 3.075-3.177c.05-2.016-1.008-3.125-2.974-3.125-1.967 0-2.975 1.11-3.025 3.125zm1.26 14.063v17.894l-3.025.655v1.512c3.58-.403 6.906-.403 10.585 0v-1.512l-3.125-.655v-21.977l-.907-.554c-2.32 1.31-4.184 2.418-6.553 3.174v1.26l3.025.202zm14.365-14.012c-.05 2.016 1.007 3.175 2.923 3.175 1.916 0 2.974-1.16 3.075-3.176.05-2.017-1.008-3.125-2.974-3.125-1.966 0-2.974 1.107-3.024 3.124zm1.36 14.062V145.1c0 7.66-1.46 10.333-4.636 13.71l.806.857c4.99-3.176 8.166-7.107 8.166-14.567v-21.976l-.908-.555c-2.318 1.31-4.183 2.42-6.552 3.175v1.26l3.125.2zm36.342 18.55l-3.176-.555h-.05l-9.325-12.046 6.654-7.66 2.873-.556v-1.512c-2.923.403-5.645.403-8.568 0v1.512l3.023.504-7.56 9.073h-1.06v-27.42l-.806-.504c-2.47 1.362-4.234 2.47-6.653 3.227v1.26l3.024.202v33.82l-3.024.605v1.512c3.58-.403 6.905-.403 10.585 0v-1.512l-3.126-.605v-8.57l2.217-.15 6.554 8.87-2.722.505v1.512c3.982-.403 7.258-.403 11.14 0v-1.512zm7.56-34.477v33.82l-3.025.605v1.512c3.58-.403 6.906-.403 10.585 0v-1.512l-3.125-.605v-38.005l-.806-.504c-2.47 1.362-4.233 2.47-6.653 3.227v1.26l3.024.202zm49.093 34.425l-3.074-.555v-15.373c0-3.982-2.47-6.452-6.502-6.452-2.973 0-5.14.857-7.308 3.377-1.412-2.47-2.873-3.326-5.545-3.326-3.024 0-4.84.554-7.056 2.57l-.253-2.923-.857-.555c-2.823 1.664-4.587 2.722-6.402 3.226v1.26l3.025.202V145.1l-3.025.605v1.512c4.033-.454 6.503-.454 10.686 0v-1.512l-3.125-.605v-17.037c1.108-1.46 2.72-2.42 4.687-2.42 2.62 0 4.032 2.068 4.032 4.487v15.02l-3.076.555v1.512c4.083-.454 6.603-.454 10.686 0v-1.512l-3.075-.555v-17.087c1.412-1.713 2.52-2.42 4.285-2.42 2.923 0 4.284 2.017 4.284 4.487v15.02l-3.075.555v1.512c4.082-.454 6.602-.454 10.685 0v-1.512zm28.63 0l-3.076-.555v-15.373c0-4.083-2.42-6.452-6.604-6.452-2.62 0-4.99.756-7.107 2.722l-.253-3.024-.907-.555c-2.62 1.513-4.788 2.773-6.4 3.226v1.26l3.023.202V145.1l-3.024.605v1.512c3.326-.353 7.307-.353 10.735 0v-1.512l-3.125-.605v-17.037c1.16-1.46 2.823-2.42 4.738-2.42 3.125 0 4.385 1.967 4.385 4.487v15.02l-3.075.555v1.512c3.73-.403 6.956-.403 10.686 0v-1.512zm4.788-10.383c0 7.56 3.73 12.097 10.484 12.097 6.703 0 10.332-4.588 10.332-12.15 0-7.963-3.63-12.247-10.333-12.247-6.755 0-10.484 4.335-10.484 12.3zm16.028 0c0 6.552-1.612 10.332-5.543 10.332-3.982 0-5.545-3.78-5.545-10.332 0-6.956 1.563-10.737 5.545-10.737 3.93 0 5.544 3.78 5.544 10.737zm20.163 22.53l-3.125-.605V146.21c1.613.957 3.074 1.36 4.435 1.36 5.646 0 9.98-4.688 9.98-11.946 0-8.115-3.326-12.6-8.972-12.6-1.864 0-3.83 1.007-5.946 2.77l-.454-2.317-.756-.353c-1.915 1.16-3.58 1.965-5.746 2.268v1.26l3.075.252v30.343l-3.025.605v1.512c3.58-.403 6.855-.403 10.535 0v-1.512zm.907-32.208c3.78 0 5.595 3.276 5.595 9.93 0 6.905-2.167 10.232-5.192 10.232-1.915 0-3.478-.605-4.435-1.714V127.56c1.41-1.21 2.67-1.866 4.032-1.916zm37.652 32.208l-3.125-.605V128.77c0-1.564.302-4.033.554-4.94l-1.107-.757c-.504.353-1.21 1.06-2.47 1.714-1.16-1.058-3.327-1.764-5.242-1.764-5.796 0-10.18 5.04-10.18 11.795 0 8.266 3.124 12.35 9.273 12.35 1.462 0 3.126-.455 4.738-1.614v11.693l-3.023.605v1.512c3.58-.403 6.906-.403 10.585 0v-1.512zm-7.61-14.214c-1.16 1.06-2.017 1.462-3.126 1.462-4.335 0-6.05-3.377-6.05-9.83 0-7.106 1.917-10.28 6-10.28 1.865 0 2.52 1.108 3.175 2.166v16.482zm23.084 2.067l-3.578-.605v-17.238c.907-1.31 1.915-2.57 3.528-2.57.907 0 1.663.2 2.37.906-.102.252-.152.555-.152.958 0 1.764 1.11 2.67 2.62 2.67 1.563 0 2.672-1.057 2.672-2.872 0-2.72-2.47-3.982-5.192-3.982-2.37 0-3.982 1.01-5.897 3.025l-.252-2.974-.907-.555c-2.62 1.513-4.79 2.773-6.402 3.226v1.26l3.025.202V145.1l-3.024.605v1.512c3.327-.353 7.31-.353 11.19 0v-1.512zm19.708.2c-2.822 0-4.586-1.51-5.695-7.66h-1.766l.807 8.972h.757l1.21-.806c1.965.807 3.226 1.11 5.796 1.11 4.637 0 8.418-3.025 7.46-8.317-1.058-5.746-10.534-6.502-11.492-10.938-.654-2.974 1.06-3.88 3.277-3.88 2.672 0 4.738 1.713 5.645 6.45h1.513l-.404-7.46h-.704l-1.36.606c-1.21-.503-2.874-.957-5.092-.957-4.284 0-7.863 2.57-7.006 7.258 1.008 5.646 10.988 7.007 11.492 11.24.353 2.925-1.21 4.386-4.436 4.386zm28.478-22.025h-6.805v-5.797l-.907-.554c-1.814 3.426-4.385 5.846-7.712 7.156v1.008h4.234l-.15 12.5c-.05 5.545.654 9.073 5.543 9.073 4.335 0 6.05-2.217 7.612-5.544l-1.31-.756c-1.614 2.62-2.723 3.73-4.336 3.73-1.914 0-3.073-1.31-3.073-6.704l.1-12.3h6.603l.202-1.813zm22.833 22.934l.807.353c1.965-.958 4.133-1.966 5.847-2.37v-1.21l-3.026-.1v-20.06c-2.117.302-4.486.302-7.66 0v1.41l3.124.555v17.188c-1.06 1.36-3.075 2.47-4.99 2.47-2.672 0-3.982-2.017-3.982-4.537v-17.087c-1.966.353-4.284.353-7.61 0v1.41l3.074.505v15.526c0 4.083 2.42 6.452 6.45 6.452 2.27 0 5.042-.857 7.31-2.974l.655 2.47zm13.105-21.32l7.66 21.874c.606-.302 1.31-.605 1.967-.705l7.308-21.17 3.025-.555v-1.512c-2.924.403-5.646.403-8.57 0v1.512l3.227.555-4.486 14.82h-.654l-4.537-14.82 3.175-.555v-1.512c-3.882.403-7.31.403-11.29 0v1.512l3.175.555zm46.926 21.17l7.258-21.17 2.52-.556v-1.512c-2.37.403-5.14.403-8.165 0v1.512l3.376.555-4.536 14.82h-.404l-4.536-14.82 3.327-.555v-1.512c-3.932.403-7.057.403-10.232 0v1.512l2.67.555.858 2.52-3.78 12.3h-.656l-4.536-14.82 3.176-.555v-1.512c-3.83.403-7.207.403-10.534 0v1.512l2.67.555 7.663 21.875c.756-.353 1.21-.605 1.663-.705l5.343-15.424 5.344 16.128c.605-.353 1.008-.605 1.512-.705zm26.008.503c3.88-.404 7.36-.404 11.34 0v-1.513l-3.175-.554h.1l-7.41-11.795 6.05-7.812 2.973-.555v-1.512c-2.923.403-5.645.403-8.57 0v1.512l3.227.555-4.587 6.35-4.032-6.35 3.126-.555v-1.512c-3.982.403-7.46.403-11.34 0v1.512l3.175.555 6.503 10.383-.555.756-6.552 8.57-2.974.553v1.512c2.923-.403 5.645-.403 8.57 0v-1.512l-3.227-.554h-.05l5.695-7.862 4.89 7.762-3.176.554v1.513zm25.656 3.73l8.82-25.404 3.025-.555v-1.512c-2.924.403-5.646.403-8.57 0v1.512l3.378.555-4.688 14.82h-.605l-4.536-14.82 3.176-.555v-1.512c-3.882.403-7.31.403-11.29 0v1.512l3.174.555 7.56 21.674c-2.015 5.998-2.973 8.518-4.182 9.88-.353-1.967-1.462-3.076-3.125-3.076-1.916 0-2.924.96-2.924 2.773 0 1.765 1.462 3.125 3.83 3.125 3.025 0 4.386-2.016 6.957-8.972zm18.75-27.22c-.756 2.52-1.462 4.99-2.42 7.51h2.32l3.83-6.047h7.36l-14.467 21.724h18.55c.755-2.52 1.36-4.99 2.317-7.51h-2.318l-3.73 6.048h-8.972l14.466-21.724H487.09v.05l-.1-.05zM-289.63 77.743l-2.824.706v1.51c2.37-.402 5.796-.402 10.787 0v-1.51l-5.243-.96 4.033-11.49h10.232l3.73 11.743-4.184.706v1.51c5.042-.402 8.872-.402 12.502 0v-1.51l-2.823-.707-10.888-34.728c-.908.352-2.37.655-3.378.705l-11.945 34.023zm7.458-13.71l4.587-14.163 4.335 14.163h-8.922zm34.93 15.626h6.552c8.166 0 14.416-2.42 14.416-9.88 0-4.134-2.772-8.166-6.502-9.426-.252-.1-.605-.202-1.36-.404 1.058-.655 1.713-1.21 2.066-1.562 1.915-1.915 2.923-4.234 2.923-6.653 0-6.15-4.84-8.77-11.14-8.72-2.318 0-5.24.05-6.804.05-2.672 0-4.436-.05-6.705-.15v1.612l3.025.504v32.612l-3.025.504v1.664c2.168-.15 4.386-.15 6.553-.15zm1.865-34.63h3.68c5.594 0 7.812 1.815 7.812 7.31 0 4.032-2.52 6.955-5.192 6.955h-6.3V45.03zm0 16.13h6.35c3.932 0 7.36 3.428 7.51 8.014.203 5.948-3.124 8.418-8.92 8.418h-4.94V61.16zm53.882 7.31h-2.57c-.857 6.45-4.386 10.28-9.88 10.23-5.847 0-9.93-6.905-9.93-17.49 0-10.484 4.184-17.39 9.93-17.39 5.293 0 8.216 3.48 9.325 10.435h2.57l-.453-11.29h-1.31l-1.613 1.713c-2.067-1.663-5.293-2.67-8.52-2.67-9.374 0-15.876 7.862-15.876 19.203 0 11.493 6.4 19.457 15.827 19.457 4.335 0 8.87-1.412 11.492-3.68l1.008-8.518zm7.308-25.556v1.613l3.024.504v32.612l-3.024.504v1.613c1.915-.05 3.88-.1 5.998-.1h2.37c2.924 0 7.258 0 9.83-.405 7.207-1.11 12.6-7.308 12.6-18.952.202-12.147-7.46-17.39-16.785-17.238-1.965-.05-4.032-.05-5.645-.05h-2.37c-2.116 0-4.082-.05-5.997-.1zm12.5 2.167c8.52.102 13.105 5.092 12.853 15.223 0 9.577-2.318 15.626-9.88 17.138-1.713.253-4.586.354-7.106.303V44.98c1.462 0 3.226.1 4.133.1zm25.15 34.78c1.614-.1 4.487-.252 5.9-.252 4.837-.05 15.32.05 20.06.252.1-3.226.403-7.258.705-10.182h-2.772l-1.563 7.813h-14.012V61.514h8.267l.958 4.84h1.865c-.403-3.68-.403-8.116 0-11.796h-1.865l-.958 4.94h-8.266V45.182h13.106l1.663 7.31h2.62c-.302-2.572-.604-6.403-.705-9.68-5.545.303-8.62.354-19.103.253-1.412 0-4.285-.15-5.898-.252v1.714l3.024.504v32.612l-3.024.504v1.714zm48.59-1.512l-4.99-.706h-.05v-16.13h8.116l.956 4.84h1.865c-.402-3.68-.402-8.115 0-11.795h-1.864l-.957 4.94h-8.116V45.182h13.61l1.662 7.31h2.62c-.3-2.572-.604-6.403-.705-9.68-5.543.303-8.467.354-19.606.253-1.41 0-4.284-.15-5.897-.252v1.714l3.024.504v32.612l-3.023.706v1.613c3.528-.352 7.863-.352 13.357 0V78.35zm47.078-1.36l.202-11.695 2.974-.806v-1.512c-4.032.504-7.208.504-11.946 0v1.512l3.882.806-.353 12.047c-2.37 1.26-3.126 1.36-6.403 1.36-6.4 0-9.88-6.905-9.88-17.49 0-10.484 3.58-17.39 9.88-17.39 5.343 0 8.267 3.48 9.376 10.435h2.52l-.454-11.29h-1.31l-1.614 1.713c-2.067-1.663-5.293-2.67-8.52-2.67-9.374 0-15.876 7.862-15.876 19.203 0 11.493 6.4 19.457 15.827 19.457 4.335 0 8.87-1.412 11.694-3.68zm44.205 2.973v-1.51l-3.024-.808v-32.41l3.025-.806v-1.512c-3.78.453-7.107.453-12.298 0v1.512l3.982.806v14.265h-16.08V45.232l3.982-.806v-1.512c-5.192.453-8.52.453-12.3 0v1.512l3.025.806v32.41l-3.024.807v1.51c3.78-.453 7.107-.453 12.3 0v-1.51l-3.983-.808v-16.08h16.08v16.08l-3.983.807v1.51c5.19-.453 8.518-.453 12.298 0zm20.968-1.51l-3.024-.808h-.052v-32.41h.05l3.025-.806v-1.512c-3.83.353-7.56.353-11.392 0v1.512l3.026.806v32.41l-3.025.807v1.51c3.883-.352 7.512-.352 11.393 0v-1.51zm18.095.503v-33.57h.1l3.025-.806v-1.512c-3.83.353-7.56.202-11.39-.15v1.51l3.023.807h.1v33.52c0 9.274-.755 11.592-2.923 11.592-1.26 0-2.974-.756-2.974-3.175 0-1.765-.757-3.227-2.773-3.227-1.613 0-2.772 1.36-2.772 3.78 0 2.873 2.268 4.587 6.3 4.587 7.108.15 10.233-4.486 10.283-13.357zm44.204-.504l-3.024-.707-14.92-19.708 11.34-12.5 3.68-1.008v-1.512c-2.923.403-6.552.403-11.29 0v1.512l4.84.957-12.955 13.962h-2.218V45.232h.05l3.025-.806v-1.512c-3.83.353-7.46.353-11.29 0v1.512l3.023.806v32.41l-3.024.807v1.51c3.88-.352 7.408-.352 11.29 0v-1.51l-3.025-.808h-.05v-16.13h2.873l.1.05 12.5 16.282-3.527.605v1.51c5.04-.402 8.973-.402 12.602 0v-1.51zM52.055 60.302l.302.15-.302.153v-.303zm56.25 8.317h-2.772l-1.562 8.82H90.766V45.233h.05l3.024-.806v-1.512c-3.53.453-7.914.453-11.442 0v1.512l3.024.806v32.41l-3.024.504v1.714c2.37-.15 4.284-.252 5.443-.252 4.84-.05 15.022.05 19.76.252.1-3.528.403-7.61.705-11.24zm48.036 9.728l-3.024-.706-1.562-31.906 3.075-1.21v-1.864c-3.63.453-5.798.504-8.62.554l-.1.252-.606 1.613-.504 1.26-8.972 23.288-9.275-23.287h.05l-1.31-3.124c-3.377-.05-5.494-.1-9.123-.554v1.865l3.075 1.16-1.563 31.955-3.024.706v1.613c3.276-.352 7.61-.3 10.837 0V78.35l-5.14-.706 1.31-29.285 11.895 29.185v.15h.05v-.05l1.714-.655-.05-.05 11.24-28.983 1.512 29.688-4.234.706v1.613c4.738-.352 9.072-.352 12.35 0V78.35zm41.634-33.62v-1.764c-3.78.454-7.006.454-12.198 0v1.764l5.292 1.06v25.15l-18.952-27.62c-3.377-.05-5.494-.152-8.115-.555v1.865l4.185 1.46-.252 31.1L164 78.25v1.763c3.782-.452 7.008-.452 12.2 0v-1.763l-5.394-1.058-.1-26.16 20.362 28.98h2.722l.303-34.223 3.88-1.06zm8.065 16.533c0 12.25 5.593 19.407 16.128 19.407 10.383 0 15.877-7.158 15.877-19.456 0-12.147-5.494-19.203-15.877-19.203-10.484 0-16.08 7.107-16.13 19.254zm26.21 0c0 11.644-3.126 17.34-10.082 17.34-7.006 0-10.13-5.696-10.13-17.34 0-11.743 3.124-17.49 10.13-17.49 6.956 0 10.08 5.747 10.08 17.49zm26.713 17.19l-4.99-.808h-.05V62.168c11.14 2.823 17.994-.806 17.994-9.577 0-5.795-4.536-9.525-11.946-9.525-3.578 0-6.753.05-8.92.05-1.966 0-3.53-.1-5.444-.2v1.612l3.024.504v32.612l-3.024.807v1.51c3.58-.402 7.51-.3 13.357 0v-1.51zm-5.04-18.248v-15.12h4.687c5.444 0 8.57 2.822 8.57 7.257 0 7.106-5.142 10.23-13.257 7.862zm63.307 25.96l-.454-1.21c-4.032.805-8.67.05-13.256-2.168-1.31-.656-2.974-1.765-4.385-2.722 7.157-2.016 10.937-8.67 10.937-18.85 0-12.15-5.494-19.205-15.877-19.205-10.484 0-16.08 7.107-16.13 19.254 0 10.737 4.285 17.592 12.5 19.104 2.773 1.563 10.03 6.1 14.97 6.956 4.79.806 8.72 0 11.695-1.16zm-12.954-24.9c0 11.642-3.125 17.338-10.08 17.338-7.007 0-10.132-5.696-10.132-17.34 0-11.743 3.125-17.49 10.13-17.49 6.957 0 10.082 5.747 10.082 17.49zm27.117 17.237l-4.183-.858V62.067l3.478.05c1.965 3.378 6.855 10.888 8.67 13.71 1.007 1.563 2.318 3.327 2.77 3.882 1.665 0 2.42-.152 3.68-.152 1.715 0 3.53.15 3.73.15v-1.612l-2.62-.554c-.958-.857-2.168-2.47-3.478-4.134-1.31-1.613-6.15-8.064-8.418-11.593 6.15-1.26 9.023-4.334 9.023-9.828 0-6.2-3.932-8.972-12.652-8.972-3.024 0-5.19.05-6.905.05-2.823 0-3.982-.05-5.494-.1v1.612l3.024.504v32.562l-3.024.807v1.51c4.133-.352 7.964-.352 12.4 0V78.5zm-4.183-33.52h4.083c5.645 0 8.064 2.37 8.064 6.553 0 5.242-2.772 8.72-8.216 8.72h-3.93V44.98zm45.767 24.295c2.066 4.133-.555 9.325-5.797 9.325-6.15 0-9.425-4.184-10.13-10.13h-2.52l.956 11.642h1.714l1.108-1.11c3.58 1.16 6.05 1.715 9.376 1.715 9.275 0 12.5-8.67 9.88-14.718-3.075-7.158-14.618-7.31-17.743-14.82-1.46-3.528.757-7.208 5.193-7.208 5.04 0 8.115 4.486 9.072 10.182l2.47-.1-.504-11.19h-1.51l-1.665 1.512c-2.166-1.16-4.486-2.32-8.266-2.32-7.56 0-11.04 6.604-9.023 12.652 2.37 7.158 14.012 7.863 17.39 14.567zm32.41 9.174l-3.025-.808h-.05v-32.51c2.57 0 5.393-.05 8.92-.1l1.664 8.568h2.62c-.25-3.075-.603-7.007-.704-10.787-10.686.353-19.456.353-29.94 0-.1 3.78-.454 7.712-.706 10.787h2.62l1.664-8.57c3.428.05 6.15.102 8.67.102v32.51l-3.024.807v1.51c3.88-.352 7.41-.352 11.29 0v-1.51zm32.055-1.16c-6.754 0-8.568-6.2-8.568-11.493V45.232l3.982-.806v-1.512c-5.192.453-8.57.453-12.35 0v1.512l3.025.806v20.565c.152 8.267 2.773 14.466 13.408 14.466 8.166 0 12.198-6.25 12.198-14.466V45.232l3.982-.806v-1.512c-3.78.453-6.653.453-11.845 0v1.512l5.09.806v20.565c-.05 7.46-3.678 11.493-8.92 11.493zm38.61 1.965l11.34-34.023 2.824-.705v-1.512c-2.37.403-5.847.403-10.837 0v1.512l5.24.957-8.77 27.42-9.375-27.672 4.234-.705v-1.512c-5.04.403-8.922.403-12.55 0v1.512l2.77.705 11.795 34.73c.857-.303 2.27-.606 3.327-.707zm37.098-36.24v1.512l3.377.605 1.11 3.68-6.957 23.135-7.46-26.715 4.335-.705v-1.512c-5.04.403-8.922.403-12.55 0v1.512l2.77.705 10.284 34.73c.856-.404 1.813-.606 2.872-.707l7.964-26.21 7.964 26.916c.857-.402 1.814-.604 2.873-.705l10.333-34.023 2.772-.705v-1.512c-2.37.403-5.897.403-10.887 0v1.512l5.343.957-7.812 26.463-7.46-26.715 4.235-.705v-1.512l-1.06.05c-4.283.302-7.458.302-12.045-.05zm54.084 35.434v1.51c4.535-.402 9.224-.453 13.054 0v-1.51l-3.024-.707h-.05l-11.644-18.75 9.123-13.81 3.025-.707v-1.512c-2.57.403-6.25.403-10.736 0v1.512l4.687.958-7.36 11.543-7.26-11.745 3.782-.705v-1.512c-4.536.403-9.224.403-12.954 0v1.512l2.974.705 10.383 16.785-10.937 15.726-2.924.706v1.51c2.52-.402 6.098-.402 10.584 0v-1.51l-4.686-.96 9.173-13.558 8.568 13.81h-.05l-3.73.707zm38.66 0l-3.025-.808h-.052l-.1-14.415 9.677-18.045 3.024-.706v-1.512c-2.57.403-6.25.403-10.737 0v1.512l4.84.958-7.965 15.222-8.417-15.424 3.78-.705v-1.512c-4.535.403-9.122.403-12.852 0v1.512l2.974.705 10.585 19.204-.1 13.206-3.025.807v1.51c3.88-.352 7.51-.352 11.39 0v-1.51zm40.17-34.326l-.503-.807h-22.178c-.453 3.125-1.108 6.05-2.217 10.182l2.974-.102 3.276-8.065h11.845l-19.405 33.47.504.856h23.69c.502-3.127 1.158-5.95 2.217-10.082h-2.974l-3.276 8.014h-13.71l19.757-33.468z"/>
    <path fill="#FFF" d="M-511.52 2321.43h1373.9v-3353.416h-1373.9V2321.43zm27.494-27.495H834.888v-3298.427H-484.026v3298.427z"/>
  </g>
</svg>
