<?xml version="1.0" encoding="UTF-8" standalone="no"?>
<svg width="640px" height="360px" viewBox="0 0 640 360" version="1.1" xmlns="http://www.w3.org/2000/svg" xmlns:xlink="http://www.w3.org/1999/xlink" style="background: #FFFFFF;">
    <!-- Generator: Sketch 42 (36781) - http://www.bohemiancoding.com/sketch -->
    <title>ickhambay</title>
    <desc>Created with Sketch.</desc>
    <defs></defs>
    <g id="Page-1" stroke="none" stroke-width="1" fill="none" fill-rule="evenodd">
        <g id="ickhambay">
            <g id="tcwposterv6" transform="translate(-18.828125, -758.513025)">
                <path d="M145.63156,881.102236 C144.611223,882.907448 143.080717,884.320222 141.000799,884.320222 C138.842393,884.320222 136.997447,883.417616 136.095331,879.964167 C136.055597,879.964167 135.506184,875.686109 135.506184,875.686109 C135.114238,872.821806 134.799797,871.840713 134.211141,871.840713 C133.543997,871.840713 133.112316,873.174509 133.112316,874.234581 C133.112316,874.352312 133.112316,874.666262 132.759123,874.666262 C132.484416,874.666262 132.366685,874.430309 132.366685,874.234581 C132.366685,871.957953 133.426266,870.231229 136.487278,870.231229 C139.038612,870.231229 140.255168,871.957953 140.80458,875.882818 C140.765336,875.882818 141.667942,880.670554 141.667942,880.709798 C141.942158,882.044085 142.452817,882.475766 143.119961,882.475766 C143.865592,882.475766 144.650467,881.376942 145.278366,879.964167 C144.650467,877.020886 143.904836,873.488459 143.747861,872.507366 C145.474585,872.507366 147.044335,870.231229 148.103916,870.231229 C148.849547,870.231229 148.888791,870.859619 148.888791,870.859619 C149.791397,875.568868 150.380053,878.904586 150.77249,880.866773 C151.047196,882.161817 151.753584,882.475766 152.302996,882.475766 C153.558796,882.475766 155.756445,878.826099 155.756445,876.589205 C155.756445,874.038362 154.736108,874.11685 153.755014,874.11685 C152.459971,874.11685 151.753584,872.978291 151.753584,871.761735 C151.753584,870.388694 152.813165,869.799548 153.519552,869.799548 C155.717692,869.799548 156.698786,871.957953 156.659051,875.372649 C156.659051,879.25778 154.147452,884.163247 150.14459,884.163247 C148.417866,884.163247 146.494922,883.299885 145.63156,881.102236" id="Fill-61" fill="#1A1918"></path>
                <path d="M172.748642,884.398808 C168.824268,884.398808 167.960905,881.808721 168.11788,879.061659 L168.235611,875.450744 C168.353343,873.292339 167.921662,872.507464 167.293271,872.507464 C166.469643,872.507464 164.899893,875.568966 164.899893,877.17796 L164.899893,882.946789 C164.899893,884.281077 164.193506,884.477295 162.584022,884.163345 C160.739566,883.810152 159.052086,882.789814 159.052086,881.416284 L159.052086,857.712574 L157.325361,857.712574 C157.246873,857.712574 156.57973,857.751817 156.57973,857.280892 C156.57973,856.887964 157.20763,856.887964 157.286117,856.887964 L157.914017,856.887964 C159.405279,856.887964 163.133435,854.611827 164.349991,854.611827 C165.056378,854.611827 164.939137,855.240218 164.939137,855.240218 L164.939137,874.705113 C164.939137,874.03797 166.586884,870.192083 169.962336,870.192083 C172.63091,870.192083 174.357635,872.115026 174.239904,874.862579 L174.122173,878.590734 C173.88671,882.436621 174.161416,882.868302 174.710829,882.868302 C175.220997,882.868302 175.652678,881.534015 175.652678,879.80729 C175.652678,879.689559 175.652678,879.375609 176.005872,879.375609 C176.280578,879.375609 176.39831,879.611071 176.39831,879.80729 C176.39831,881.298552 176.241335,884.398808 172.748642,884.398808" id="Fill-63" fill="#1A1918"></path>
                <path d="M180.47907,862.186213 C182.04882,862.186213 183.383107,863.481256 183.383107,865.09025 C183.383107,866.659999 182.04882,867.994286 180.47907,867.994286 C178.870077,867.994286 177.575033,866.659999 177.575033,865.09025 C177.575033,863.481256 178.870077,862.186213 180.47907,862.186213 M182.009576,884.359417 C179.22327,884.359417 177.732008,882.475717 177.732008,878.001931 L177.732008,873.017976 L176.005283,873.017976 C175.926796,873.017976 175.259652,873.05722 175.259652,872.586295 C175.259652,872.193367 175.887552,872.193367 175.96604,872.193367 L176.59394,872.193367 C178.085202,872.193367 181.813357,869.91723 183.029913,869.91723 C183.7363,869.91723 183.618569,870.54562 183.618569,870.54562 L183.618569,878.433612 C183.618569,882.201011 183.618569,882.828911 184.128738,882.828911 C185.070588,882.828911 185.188319,880.435043 185.188319,879.846387 C185.188319,879.650168 185.266806,879.336218 185.541513,879.336218 C185.816219,879.336218 185.93395,879.571681 185.93395,879.846387 C185.93395,881.259161 185.816219,884.359417 182.009576,884.359417" id="Fill-65" fill="#1A1918"></path>
                <path d="M192.644777,884.398808 C188.131747,884.398808 186.130316,882.868302 186.130316,881.220065 C186.130316,880.12124 186.953944,879.257878 188.249478,879.257878 C189.701496,879.257878 190.447127,880.395946 190.447127,881.534015 C190.447127,882.868302 190.525615,883.810152 192.644777,883.810152 C194.018308,883.810152 194.999401,883.182252 194.999401,882.122671 C194.999401,878.433269 186.405022,880.12124 186.405022,875.176038 C186.405022,872.350489 189.152084,870.349058 192.644777,870.349058 C195.666545,870.349058 198.806044,871.173177 198.806044,873.41007 C198.806044,874.469651 197.864194,875.137285 196.529907,875.137285 C195.313351,875.137285 194.489233,874.35241 194.489233,873.41007 C194.489233,872.115026 194.763939,870.937714 192.644777,870.937714 C191.232002,870.937714 190.329396,871.879564 190.329396,872.978389 C190.329396,875.450744 199.590919,874.744357 199.590919,879.768046 C199.590919,882.750571 196.76537,884.398808 192.644777,884.398808" id="Fill-67" fill="#1A1918"></path>
                <path d="M213.954324,884.398808 C211.246506,884.398808 209.598269,883.182252 209.598269,880.670652 C209.598269,878.394516 209.637513,877.295691 208.577932,877.295691 C208.381713,877.295691 207.871544,877.255956 207.871544,876.86401 C207.871544,876.471082 208.302735,876.393085 208.617176,876.393085 C209.0881,876.393085 210.854069,876.079135 210.854069,873.292339 C210.854069,872.075783 210.383144,871.604858 209.716,871.604858 C208.460201,871.604858 207.321642,874.194945 207.321642,875.803938 L207.321642,882.789814 C207.321642,884.359564 206.615745,884.438052 204.967508,884.124102 C203.122561,883.770908 201.670543,882.868302 201.670543,881.37704 L201.670543,857.751817 L199.943818,857.751817 C199.786843,857.751817 199.1197,857.791061 199.1197,857.320136 C199.1197,856.927699 199.7476,856.927699 199.904575,856.927699 L200.532474,856.927699 C201.94574,856.927699 205.594917,854.651071 206.890451,854.651071 C207.51786,854.651071 207.40062,855.279462 207.479107,855.279462 L207.479107,872.821414 C207.479107,872.075783 208.852638,870.192083 212.070625,870.192083 C214.699955,870.192083 215.955755,871.21242 215.955755,872.78217 C215.955755,875.372747 211.717431,876.785032 209.637513,876.785032 C209.598269,876.785032 209.559025,876.785032 209.559025,876.824766 C209.559025,876.86401 209.598269,876.86401 209.637513,876.86401 C211.756675,876.86401 215.406343,877.413422 215.406343,880.827627 C215.406343,882.358133 215.406343,882.868302 215.877268,882.868302 C216.858361,882.868302 216.819117,880.631409 216.819117,879.885778 C216.819117,879.768046 216.897605,879.453606 217.172311,879.453606 C217.447017,879.453606 217.564748,879.689559 217.564748,879.885778 C217.564748,881.534015 217.407773,884.398808 213.954324,884.398808" id="Fill-69" fill="#1A1918"></path>
                <path d="M224.31423,877.609494 C224.667424,877.962687 225.177593,878.19815 225.844736,878.19815 C227.022048,878.19815 227.492973,877.099325 227.492973,874.901675 C227.492973,872.507807 227.100536,871.016545 226.040955,871.016545 C224.667424,871.016545 224.31423,875.176382 224.31423,877.334787 L224.31423,877.609494 Z M226.237174,884.359417 C221.410194,884.359417 218.035232,881.533868 218.035232,877.177812 C218.035232,872.978732 221.606412,870.270914 226.158686,870.270914 C230.122304,870.270914 233.379535,872.390076 233.379535,874.862432 C233.379535,877.374031 231.417347,879.100756 227.296755,879.100756 C226.040955,879.100756 225.059861,878.904537 224.31423,878.551343 C224.392718,880.82748 224.824399,883.182105 227.13978,883.182105 C231.417347,883.182105 232.633903,880.081849 232.752125,879.807143 C232.869366,879.610924 233.026831,879.296974 233.419269,879.375462 C233.811216,879.453949 233.575753,879.964118 233.575753,879.964118 C233.575753,879.964118 231.849029,884.359417 226.237174,884.359417 L226.237174,884.359417 Z" id="Fill-71" fill="#1A1918"></path>
                <path d="M242.248178,898.762409 C237.53893,898.762409 235.537499,895.151985 235.537499,892.483411 C235.537499,890.952905 236.086911,888.323084 238.91246,888.323084 C240.364479,888.323084 241.42406,889.775102 241.42406,891.070146 C241.42406,893.581745 238.794729,894.210136 238.794729,895.779395 C238.794729,897.428122 240.560698,898.016778 241.934229,898.016778 C245.387678,898.016778 245.152215,893.739211 245.152215,888.087621 L245.152215,880.552823 C245.152215,881.612404 243.543222,884.124004 240.874648,884.124004 C237.499686,884.124004 235.812205,881.612404 236.008424,878.865342 L236.243886,873.881387 L236.243886,873.057269 L234.517161,873.057269 C234.438674,873.057269 233.77153,873.096512 233.77153,872.625588 C233.77153,872.23266 234.39943,872.23266 234.477918,872.23266 L235.105818,872.23266 C236.59708,872.23266 240.325235,869.956523 241.541791,869.956523 C242.248178,869.956523 242.130447,870.584913 242.130447,870.584913 L241.894985,879.061561 C241.698766,881.219967 242.05196,882.083329 242.915322,882.083329 C244.014147,882.083329 245.191459,879.57173 245.191459,877.962736 L245.191459,872.900294 C245.191459,871.566007 249.115833,869.878526 250.411367,869.878526 C251.117754,869.878526 250.999533,870.505935 250.999533,870.505935 L250.999533,888.519303 C250.843048,895.112742 248.174474,898.762409 242.248178,898.762409" id="Fill-73" fill="#1A1918"></path>
                <path d="M253.82464,889.225935 C253.82464,889.186691 256.571702,886.753089 256.571702,884.830636 C256.571702,883.849543 253.706909,884.555439 253.706909,882.279302 C253.706909,881.337453 254.413297,880.317115 255.747584,880.317115 C257.081871,880.317115 257.866746,881.455184 257.866746,882.907693 C257.866746,885.968214 254.962709,889.422154 254.256322,889.422154 C253.863884,889.422154 253.82464,889.343666 253.82464,889.225935" id="Fill-75" fill="#1A1918"></path>
                <path d="M267.598752,857.75167 L265.872027,857.75167 C265.79354,857.75167 265.126396,857.790914 265.126396,857.319989 C265.126396,856.927552 265.754296,856.927552 265.832784,856.927552 L266.460684,856.927552 C267.951946,856.927552 271.680101,854.651415 272.896657,854.651415 C273.603044,854.651415 273.485313,855.279314 273.485313,855.279314 L273.485313,864.226887 L273.289094,878.355125 C273.289094,882.201011 273.289094,882.671936 273.956238,882.671936 C274.662625,882.671936 274.898088,880.748993 274.898088,879.689412 C274.898088,879.571681 274.898088,879.257731 275.251282,879.257731 C275.525988,879.257731 275.643719,879.493193 275.643719,879.689412 C275.643719,881.180674 275.486744,884.359417 271.994051,884.359417 C268.697577,884.359417 267.324046,882.554205 267.36329,877.413275 C267.36329,877.020837 267.598752,863.638231 267.598752,858.575789 L267.598752,857.75167 Z" id="Fill-77" fill="#1A1918"></path>
                <path d="M282.000911,877.609494 C282.354104,877.962687 282.864273,878.19815 283.531417,878.19815 C284.708729,878.19815 285.179654,877.099325 285.179654,874.901675 C285.179654,872.507807 284.787216,871.016545 283.727635,871.016545 C282.354104,871.016545 282.000911,875.176382 282.000911,877.334787 L282.000911,877.609494 Z M283.923854,884.359417 C279.096874,884.359417 275.721912,881.533868 275.721912,877.177812 C275.721912,872.978732 279.293092,870.270914 283.845366,870.270914 C287.808984,870.270914 291.066215,872.390076 291.066215,874.862432 C291.066215,877.374031 289.104028,879.100756 284.983435,879.100756 C283.727635,879.100756 282.746542,878.904537 282.000911,878.551343 C282.079398,880.82748 282.511079,883.182105 284.82646,883.182105 C289.104028,883.182105 290.320584,880.081849 290.438805,879.807143 C290.556046,879.610924 290.713512,879.296974 291.105949,879.375462 C291.497896,879.453949 291.262433,879.964118 291.262433,879.964118 C291.262433,879.964118 289.535709,884.359417 283.923854,884.359417 L283.923854,884.359417 Z" id="Fill-79" fill="#1A1918"></path>
                <path d="M296.912993,884.555685 C295.068537,884.202491 293.381056,883.182154 293.381056,881.808623 L293.381056,873.096512 L291.654331,873.096512 C291.575844,873.096512 290.9087,873.135756 290.9087,872.664341 C290.9087,872.271903 291.5366,872.271903 291.615088,872.271903 L292.242987,872.271903 C293.73425,872.271903 297.462405,869.995766 298.678961,869.995766 C299.385348,869.995766 299.267617,870.624157 299.267617,870.624157 L299.267617,874.627018 C299.267617,873.449216 300.209467,870.113988 304.01611,870.113988 C306.684684,870.113988 308.175946,871.840713 308.333412,874.313068 C308.490387,873.017534 309.510724,870.113988 313.121148,870.113988 C316.378379,870.113988 317.712666,872.115419 317.477203,874.862481 L317.084766,879.924923 C317.045522,881.808623 317.045522,882.475766 317.673422,882.475766 C318.419053,882.475766 318.654516,880.749042 318.654516,879.807192 C318.654516,879.650217 318.654516,879.25778 319.046953,879.25778 C319.321659,879.25778 319.400147,879.493242 319.400147,879.689461 C319.400147,881.57316 318.968465,884.359466 315.593504,884.359466 C313.552829,884.359466 311.119717,883.613835 311.394423,879.022317 C311.35518,879.022317 311.590642,875.450646 311.629886,875.450646 C311.904592,872.703584 311.826105,871.761735 311.001986,871.761735 C309.903161,871.761735 308.608118,874.705015 308.372655,877.217105 L308.372655,883.260641 C308.372655,884.594928 307.744756,884.791147 306.135272,884.477197 C304.291306,884.124004 302.642579,883.103666 302.642579,881.730135 L302.642579,875.450646 C302.642579,872.703584 302.799554,871.761735 301.858194,871.761735 C300.56266,871.761735 299.267617,875.804331 299.267617,877.962736 L299.267617,883.339129 C299.267617,884.673416 298.521986,884.869635 296.912993,884.555685" id="Fill-81" fill="#1A1918"></path>
                <path d="M329.563343,875.411844 C329.720318,876.31445 329.327881,877.138569 328.503762,877.138569 C327.601156,877.138569 326.737794,876.235963 326.737794,874.666213 C326.737794,873.959826 326.894769,871.252008 330.308975,871.252008 C334.429567,871.252008 336.823435,873.645876 336.823435,877.020837 C336.823435,880.631262 334.744008,884.359417 328.229056,884.359417 C321.439889,884.359417 319.791652,880.631262 319.791652,877.060081 C319.791652,873.606632 321.400645,870.035452 329.877293,870.035452 C330.269731,870.035452 330.465949,870.152692 330.465949,870.349401 C330.465949,870.624108 330.191243,870.741348 329.877293,870.741348 C325.952919,870.741348 325.874432,874.7447 325.874432,876.824619 C325.874432,879.336218 326.266869,883.33908 328.229056,883.33908 C330.269731,883.33908 330.740656,879.571681 330.740656,876.981594 C330.740656,874.666213 330.426706,871.997639 329.288637,871.997639 C328.072081,871.997639 329.327881,874.195288 329.563343,875.411844" id="Fill-83" fill="#1A1918"></path>
                <path d="M352.245882,884.398808 C350.165964,884.398808 347.850583,883.731664 348.086046,879.140147 L348.321508,875.450744 C348.517727,873.292339 348.713946,871.761833 347.693608,871.761833 C346.280834,871.761833 345.025034,875.568966 345.025034,877.17796 L345.025034,882.946789 C345.025034,884.281077 344.279403,884.477295 342.669919,884.163345 C340.825463,883.810152 339.137982,882.789814 339.137982,881.416284 L339.137982,873.056876 L337.411258,873.056876 C337.33277,873.056876 336.665627,873.09612 336.665627,872.625686 C336.665627,872.232758 337.293526,872.232758 337.372014,872.232758 L337.999914,872.232758 C339.491666,872.232758 343.219822,869.956621 344.436378,869.956621 C345.142765,869.956621 345.025034,870.584521 345.025034,870.584521 L345.025034,874.548138 C345.025034,872.703683 346.673271,870.113596 350.087477,870.113596 C352.716807,870.113596 354.286557,872.115026 354.208069,874.862579 L353.854876,880.042753 C353.737144,881.887208 353.815632,882.593596 354.443532,882.593596 C355.189163,882.593596 355.346138,881.259309 355.346138,879.925021 C355.346138,879.768046 355.346138,879.375609 355.699331,879.375609 C355.974038,879.375609 356.091769,879.611071 356.091769,879.80729 C356.091769,881.69099 355.738575,884.398808 352.245882,884.398808" id="Fill-85" fill="#1A1918"></path>
                <path d="M357.268689,889.225935 C357.268689,889.186691 360.015751,886.753089 360.015751,884.830636 C360.015751,883.849543 357.150957,884.555439 357.150957,882.279302 C357.150957,881.337453 357.857345,880.317115 359.191632,880.317115 C360.525919,880.317115 361.310794,881.455184 361.310794,882.907693 C361.310794,885.968214 358.406757,889.422154 357.70037,889.422154 C357.307932,889.422154 357.268689,889.343666 357.268689,889.225935" id="Fill-87" fill="#1A1918"></path>
                <path d="M379.911935,875.411844 C380.06891,876.31445 379.676472,877.138569 378.852354,877.138569 C377.949748,877.138569 377.086385,876.235963 377.086385,874.666213 C377.086385,873.959826 377.24336,871.252008 380.657566,871.252008 C384.778159,871.252008 387.172027,873.645876 387.172027,877.020837 C387.172027,880.631262 385.092599,884.359417 378.577647,884.359417 C371.78848,884.359417 370.140243,880.631262 370.140243,877.060081 C370.140243,873.606632 371.749237,870.035452 380.225885,870.035452 C380.618322,870.035452 380.814541,870.152692 380.814541,870.349401 C380.814541,870.624108 380.539835,870.741348 380.225885,870.741348 C376.301511,870.741348 376.223023,874.7447 376.223023,876.824619 C376.223023,879.336218 376.61546,883.33908 378.577647,883.33908 C380.618322,883.33908 381.089247,879.571681 381.089247,876.981594 C381.089247,874.666213 380.775297,871.997639 379.637228,871.997639 C378.420673,871.997639 379.676472,874.195288 379.911935,875.411844" id="Fill-89" fill="#1A1918"></path>
                <path d="M393.450584,884.477148 C391.606128,884.123955 389.918647,883.103617 389.918647,881.730086 L389.918647,873.096463 L388.191432,873.096463 C388.113435,873.05722 387.446291,873.096463 387.446291,872.664292 C387.446291,872.233101 388.074191,872.233101 388.152188,872.272345 C388.152188,872.233101 388.662357,872.233101 388.780088,872.272345 C390.271841,872.272345 393.999996,869.995717 395.216552,869.995717 C395.922939,869.956474 395.805208,870.584864 395.805208,870.624108 L395.805208,873.645876 C395.805208,872.272345 397.100252,869.760745 400.161754,869.760745 C402.201938,869.760745 403.615203,871.48747 403.615203,873.096463 C403.615203,874.823188 402.476644,876.392938 400.710676,876.392938 C399.102173,876.392938 398.513026,875.254869 398.513026,873.645876 C398.513026,872.272345 398.434539,871.212273 398.042101,871.212273 C397.492689,871.212273 395.805208,873.567388 395.805208,878.041175 L395.805208,883.260592 C395.805208,884.594879 395.059577,884.791098 393.450584,884.477148" id="Fill-91" fill="#1A1918"></path>
                <path d="M412.405654,882.083329 C413.779185,882.083329 414.25011,878.669124 414.25011,878.708367 L414.25011,874.74475 C414.25011,874.352312 413.857672,871.761735 412.640626,871.761735 C411.346073,871.761735 411.11012,875.529624 411.11012,878.00198 C411.11012,879.88568 411.581535,882.083329 412.405654,882.083329 M414.407085,872.821806 C414.407085,871.526272 418.292215,870.349451 419.548505,870.349451 C420.254402,870.349451 420.137161,870.97686 420.137161,870.97686 L420.137161,878.433661 C420.137161,882.279548 420.137161,882.632741 420.764571,882.632741 C421.510692,882.632741 421.706421,880.866773 421.706421,879.807192 C421.706421,879.689461 421.784908,879.375511 422.060105,879.375511 C422.33432,879.375511 422.452052,879.610973 422.452052,879.807192 C422.452052,881.298454 422.33432,884.39871 418.44919,884.39871 C415.976834,884.39871 414.446329,882.985935 414.446329,880.631311 C414.446329,881.023748 413.269016,884.163247 409.894055,884.163247 C406.793799,884.163247 404.831612,881.769379 404.831612,877.68803 C404.831612,873.292731 406.872287,870.349451 410.718173,870.349451 C413.504479,870.349451 414.407085,872.468122 414.407085,872.821806" id="Fill-93" fill="#1A1918"></path>
                <path d="M436.540162,884.398808 C434.460244,884.398808 432.144863,883.731664 432.380326,879.140147 L432.615788,875.450744 C432.811516,873.292339 433.008226,871.761833 431.987888,871.761833 C430.575114,871.761833 429.318823,875.568966 429.318823,877.17796 L429.318823,882.946789 C429.318823,884.281077 428.573683,884.477295 426.964199,884.163345 C425.120234,883.810152 423.432262,882.789814 423.432262,881.416284 L423.432262,873.056876 L421.705538,873.056876 C421.627541,873.056876 420.959907,873.09612 420.959907,872.625686 C420.959907,872.232758 421.588297,872.232758 421.666784,872.232758 L422.294194,872.232758 C423.785456,872.232758 427.514102,869.956621 428.730167,869.956621 C429.437045,869.956621 429.318823,870.584521 429.318823,870.584521 L429.318823,874.548138 C429.318823,872.703683 430.967551,870.113596 434.381756,870.113596 C437.011087,870.113596 438.580837,872.115026 438.502349,874.862579 L438.149156,880.042753 C438.031424,881.887208 438.109912,882.593596 438.737812,882.593596 C439.483443,882.593596 439.640418,881.259309 439.640418,879.925021 C439.640418,879.768046 439.640418,879.375609 439.993611,879.375609 C440.268808,879.375609 440.386049,879.611071 440.386049,879.80729 C440.386049,881.69099 440.032855,884.398808 436.540162,884.398808" id="Fill-95" fill="#1A1918"></path>
                <path d="M450.589225,878.708171 L450.589225,874.744553 C450.589225,874.352116 450.196788,871.762029 448.980232,871.762029 C447.685188,871.762029 447.449726,875.529428 447.449726,878.001784 C447.449726,879.885483 447.920651,882.083133 448.744769,882.083133 C450.1183,882.083133 450.589225,878.668927 450.589225,878.708171 M447.724432,898.801457 C443.172158,898.801457 441.013262,895.191033 441.013262,892.522458 C441.013262,890.991953 441.719649,888.362622 444.388224,888.362622 C445.997708,888.362622 446.899823,889.81464 446.899823,891.109684 C446.899823,893.621283 444.270492,894.249183 444.270492,895.818933 C444.270492,897.46717 446.193926,898.055826 447.410482,898.055826 C451.020906,898.055826 450.7462,893.778258 450.7462,888.127159 L450.7462,880.631114 C450.7462,881.455233 449.411913,884.241539 446.036951,884.241539 C442.857718,884.241539 441.052996,881.84767 441.052996,877.766321 C441.052996,873.371022 442.896961,870.388498 447.018045,870.388498 C449.4904,870.388498 450.7462,872.389929 450.7462,872.782366 C450.7462,871.644298 454.592087,870.310011 455.965618,870.310011 C456.554274,870.310011 456.475786,870.780935 456.475786,870.859423 L456.475786,888.558841 C456.475786,895.151789 453.807212,898.801457 447.724432,898.801457" id="Fill-97" fill="#1A1918"></path>
                <path d="M465.030677,877.609494 C465.38387,877.962687 465.894039,878.19815 466.561182,878.19815 C467.738985,878.19815 468.20942,877.099325 468.20942,874.901675 C468.20942,872.507807 467.817473,871.016545 466.757892,871.016545 C465.38387,871.016545 465.030677,875.176382 465.030677,877.334787 L465.030677,877.609494 Z M466.95362,884.359417 C462.12664,884.359417 458.751678,881.533868 458.751678,877.177812 C458.751678,872.978732 462.322368,870.270914 466.875132,870.270914 C470.839241,870.270914 474.095981,872.390076 474.095981,874.862432 C474.095981,877.374031 472.133794,879.100756 468.013201,879.100756 C466.757892,879.100756 465.776798,878.904537 465.030677,878.551343 C465.109164,880.82748 465.540845,883.182105 467.856226,883.182105 C472.133794,883.182105 473.35084,880.081849 473.468081,879.807143 C473.585812,879.610924 473.743278,879.296974 474.135715,879.375462 C474.527662,879.453949 474.29269,879.964118 474.29269,879.964118 C474.29269,879.964118 472.565475,884.359417 466.95362,884.359417 L466.95362,884.359417 Z" id="Fill-99" fill="#1A1918"></path>
                <path d="M476.332383,889.225935 C476.332383,889.186691 479.079445,886.753089 479.079445,884.830636 C479.079445,883.849543 476.214652,884.555439 476.214652,882.279302 C476.214652,881.337453 476.921039,880.317115 478.255327,880.317115 C479.589614,880.317115 480.374489,881.455184 480.374489,882.907693 C480.374489,885.968214 477.470452,889.422154 476.764065,889.422154 C476.371627,889.422154 476.332383,889.343666 476.332383,889.225935" id="Fill-101" fill="#1A1918"></path>
                <path d="M498.897093,878.708171 L498.897093,874.744553 C498.897093,874.352116 498.504655,871.762029 497.288099,871.762029 C495.993056,871.762029 495.757594,875.529428 495.757594,878.001784 C495.757594,879.885483 496.228518,882.083133 497.052146,882.083133 C498.426168,882.083133 498.897093,878.668927 498.897093,878.708171 M496.0323,898.801457 C491.480026,898.801457 489.32113,895.191033 489.32113,892.522458 C489.32113,890.991953 490.027517,888.362622 492.696091,888.362622 C494.305575,888.362622 495.207691,889.81464 495.207691,891.109684 C495.207691,893.621283 492.57836,894.249183 492.57836,895.818933 C492.57836,897.46717 494.501794,898.055826 495.71835,898.055826 C499.328774,898.055826 499.054068,893.778258 499.054068,888.127159 L499.054068,880.631114 C499.054068,881.455233 497.719781,884.241539 494.344819,884.241539 C491.165585,884.241539 489.360864,881.84767 489.360864,877.766321 C489.360864,873.371022 491.204829,870.388498 495.325912,870.388498 C497.798268,870.388498 499.054068,872.389929 499.054068,872.782366 C499.054068,871.644298 502.899954,870.310011 504.273485,870.310011 C504.862141,870.310011 504.783654,870.780935 504.783654,870.859423 L504.783654,888.558841 C504.783654,895.151789 502.11508,898.801457 496.0323,898.801457" id="Fill-103" fill="#1A1918"></path>
                <path d="M511.80794,884.477148 C509.963484,884.123955 508.276004,883.103617 508.276004,881.730086 L508.276004,873.096463 L506.549279,873.096463 C506.470791,873.05722 505.803648,873.096463 505.803648,872.664292 C505.803648,872.233101 506.431548,872.233101 506.510035,872.272345 C506.510035,872.233101 507.020204,872.233101 507.137445,872.272345 C508.629197,872.272345 512.357353,869.995717 513.574399,869.995717 C514.280296,869.956474 514.162565,870.584864 514.162565,870.624108 L514.162565,873.645876 C514.162565,872.272345 515.457608,869.760745 518.51911,869.760745 C520.559785,869.760745 521.97256,871.48747 521.97256,873.096463 C521.97256,874.823188 520.834001,876.392938 519.068523,876.392938 C517.459529,876.392938 516.870383,875.254869 516.870383,873.645876 C516.870383,872.272345 516.791895,871.212273 516.399458,871.212273 C515.850046,871.212273 514.162565,873.567388 514.162565,878.041175 L514.162565,883.260592 C514.162565,884.594879 513.416934,884.791098 511.80794,884.477148" id="Fill-105" fill="#1A1918"></path>
                <path d="M529.153821,877.609494 C529.507015,877.962687 530.017183,878.19815 530.684327,878.19815 C531.86213,878.19815 532.332564,877.099325 532.332564,874.901675 C532.332564,872.507807 531.940617,871.016545 530.881036,871.016545 C529.507015,871.016545 529.153821,875.176382 529.153821,877.334787 L529.153821,877.609494 Z M531.076764,884.359417 C526.249784,884.359417 522.874822,881.533868 522.874822,877.177812 C522.874822,872.978732 526.445512,870.270914 530.998277,870.270914 C534.962385,870.270914 538.219125,872.390076 538.219125,874.862432 C538.219125,877.374031 536.256938,879.100756 532.136345,879.100756 C530.881036,879.100756 529.899942,878.904537 529.153821,878.551343 C529.232308,880.82748 529.663989,883.182105 531.97937,883.182105 C536.256938,883.182105 537.473984,880.081849 537.591225,879.807143 C537.708956,879.610924 537.866422,879.296974 538.258859,879.375462 C538.650806,879.453949 538.415834,879.964118 538.415834,879.964118 C538.415834,879.964118 536.688619,884.359417 531.076764,884.359417 L531.076764,884.359417 Z" id="Fill-107" fill="#1A1918"></path>
                <path d="M553.4455,884.398808 C551.365582,884.398808 549.050201,883.731664 549.285664,879.140147 L549.521126,875.450744 C549.716854,873.292339 549.913564,871.761833 548.893226,871.761833 C547.480452,871.761833 546.224161,875.568966 546.224161,877.17796 L546.224161,882.946789 C546.224161,884.281077 545.479021,884.477295 543.869537,884.163345 C542.025572,883.810152 540.3376,882.789814 540.3376,881.416284 L540.3376,873.056876 L538.610876,873.056876 C538.532879,873.056876 537.865245,873.09612 537.865245,872.625686 C537.865245,872.232758 538.493635,872.232758 538.572122,872.232758 L539.199532,872.232758 C540.690794,872.232758 544.41944,869.956621 545.635505,869.956621 C546.342383,869.956621 546.224161,870.584521 546.224161,870.584521 L546.224161,874.548138 C546.224161,872.703683 547.872889,870.113596 551.287094,870.113596 C553.916425,870.113596 555.486175,872.115026 555.407687,874.862579 L555.054494,880.042753 C554.936762,881.887208 555.01525,882.593596 555.64315,882.593596 C556.388781,882.593596 556.545756,881.259309 556.545756,879.925021 C556.545756,879.768046 556.545756,879.375609 556.898949,879.375609 C557.174146,879.375609 557.291387,879.611071 557.291387,879.80729 C557.291387,881.69099 556.938193,884.398808 553.4455,884.398808" id="Fill-109" fill="#1A1918"></path>
                <path d="M565.45384,882.083329 C566.827371,882.083329 567.298295,878.669124 567.298295,878.708367 L567.298295,874.74475 C567.298295,874.352312 566.905858,871.761735 565.688812,871.761735 C564.394259,871.761735 564.158306,875.529624 564.158306,878.00198 C564.158306,879.88568 564.629721,882.083329 565.45384,882.083329 M567.45527,872.821806 C567.45527,871.526272 571.340401,870.349451 572.596691,870.349451 C573.302588,870.349451 573.184857,870.97686 573.184857,870.97686 L573.184857,878.433661 C573.184857,882.279548 573.184857,882.632741 573.812756,882.632741 C574.558878,882.632741 574.754606,880.866773 574.754606,879.807192 C574.754606,879.689461 574.833094,879.375511 575.10829,879.375511 C575.382506,879.375511 575.500237,879.610973 575.500237,879.807192 C575.500237,881.298454 575.382506,884.39871 571.497376,884.39871 C569.02502,884.39871 567.494514,882.985935 567.494514,880.631311 C567.494514,881.023748 566.317202,884.163247 562.94224,884.163247 C559.841985,884.163247 557.879798,881.769379 557.879798,877.68803 C557.879798,873.292731 559.920472,870.349451 563.766359,870.349451 C566.552664,870.349451 567.45527,872.468122 567.45527,872.821806" id="Fill-111" fill="#1A1918"></path>
                <path d="M585.232342,878.708171 L585.232342,874.744553 C585.232342,874.352116 584.839414,871.762029 583.623348,871.762029 C582.327814,871.762029 582.092842,875.529428 582.092842,878.001784 C582.092842,879.885483 582.563767,882.083133 583.387395,882.083133 C584.761417,882.083133 585.232342,878.668927 585.232342,878.708171 M589.431422,884.399004 C586.68436,884.399004 585.42807,882.78952 585.42807,880.591871 C585.42807,880.866577 584.761417,884.084564 580.797308,884.084564 C577.854028,884.084564 575.813353,881.691186 575.813353,877.609346 C575.813353,873.214047 577.854028,870.310011 581.542939,870.310011 C585.11461,870.310011 585.349582,872.50766 585.349582,872.429173 L585.349582,857.751523 L583.623348,857.751523 C583.544861,857.751523 582.877227,857.790767 582.877227,857.319842 C582.877227,856.927404 583.505126,856.927404 583.584105,856.927404 L584.212004,856.927404 C585.703267,856.927404 589.431422,854.651267 590.647978,854.651267 C591.353875,854.651267 591.236634,855.279167 591.236634,855.279167 L591.236634,878.472709 C591.236634,882.318595 591.236634,882.78952 591.746803,882.78952 C592.688652,882.78952 592.806384,880.474139 592.806384,879.806996 C592.806384,879.689265 592.884871,879.375315 593.159577,879.375315 C593.434283,879.375315 593.552015,879.610777 593.552015,879.806996 C593.552015,881.298258 593.434283,884.399004 589.431422,884.399004" id="Fill-113" fill="#1A1918"></path>
                <path d="M597.790142,862.186213 C599.359402,862.186213 600.694179,863.481256 600.694179,865.09025 C600.694179,866.659999 599.359402,867.994286 597.790142,867.994286 C596.181149,867.994286 594.885615,866.659999 594.885615,865.09025 C594.885615,863.481256 596.181149,862.186213 597.790142,862.186213 M599.320648,884.359417 C596.533852,884.359417 595.04259,882.475717 595.04259,878.001931 L595.04259,873.017976 L593.315865,873.017976 C593.237869,873.017976 592.570234,873.05722 592.570234,872.586295 C592.570234,872.193367 593.198625,872.193367 593.277112,872.193367 L593.904522,872.193367 C595.395784,872.193367 599.12443,869.91723 600.340495,869.91723 C601.047373,869.91723 600.929151,870.54562 600.929151,870.54562 L600.929151,878.433612 C600.929151,882.201011 600.929151,882.828911 601.43932,882.828911 C602.38117,882.828911 602.499391,880.435043 602.499391,879.846387 C602.499391,879.650168 602.577879,879.336218 602.852095,879.336218 C603.127291,879.336218 603.245022,879.571681 603.245022,879.846387 C603.245022,881.259161 603.127291,884.359417 599.320648,884.359417" id="Fill-115" fill="#1A1918"></path>
                <path d="M617.451306,884.398808 C615.371387,884.398808 613.056007,883.731664 613.291469,879.140147 L613.526932,875.450744 C613.72266,873.292339 613.919369,871.761833 612.899032,871.761833 C611.486257,871.761833 610.229967,875.568966 610.229967,877.17796 L610.229967,882.946789 C610.229967,884.281077 609.484826,884.477295 607.875342,884.163345 C606.031377,883.810152 604.343406,882.789814 604.343406,881.416284 L604.343406,873.056876 L602.616681,873.056876 C602.538684,873.056876 601.87105,873.09612 601.87105,872.625686 C601.87105,872.232758 602.49944,872.232758 602.577928,872.232758 L603.205337,872.232758 C604.696599,872.232758 608.425245,869.956621 609.641311,869.956621 C610.348189,869.956621 610.229967,870.584521 610.229967,870.584521 L610.229967,874.548138 C610.229967,872.703683 611.878695,870.113596 615.2929,870.113596 C617.922231,870.113596 619.49198,872.115026 619.413493,874.862579 L619.060299,880.042753 C618.942568,881.887208 619.021055,882.593596 619.648955,882.593596 C620.394586,882.593596 620.551561,881.259309 620.551561,879.925021 C620.551561,879.768046 620.551561,879.375609 620.904755,879.375609 C621.179952,879.375609 621.297192,879.611071 621.297192,879.80729 C621.297192,881.69099 620.943999,884.398808 617.451306,884.398808" id="Fill-117" fill="#1A1918"></path>
                <path d="M627.850505,877.609494 C628.203698,877.962687 628.713867,878.19815 629.38101,878.19815 C630.558813,878.19815 631.029248,877.099325 631.029248,874.901675 C631.029248,872.507807 630.637301,871.016545 629.57772,871.016545 C628.203698,871.016545 627.850505,875.176382 627.850505,877.334787 L627.850505,877.609494 Z M629.773448,884.359417 C624.946468,884.359417 621.571506,881.533868 621.571506,877.177812 C621.571506,872.978732 625.142196,870.270914 629.69496,870.270914 C633.659069,870.270914 636.915809,872.390076 636.915809,874.862432 C636.915809,877.374031 634.953622,879.100756 630.833029,879.100756 C629.57772,879.100756 628.596626,878.904537 627.850505,878.551343 C627.928992,880.82748 628.360673,883.182105 630.676054,883.182105 C634.953622,883.182105 636.170668,880.081849 636.287909,879.807143 C636.40564,879.610924 636.563106,879.296974 636.955543,879.375462 C637.34749,879.453949 637.112518,879.964118 637.112518,879.964118 C637.112518,879.964118 635.385303,884.359417 629.773448,884.359417 L629.773448,884.359417 Z" id="Fill-119" fill="#1A1918"></path>
                <path d="M163.636392,1087.88948 L163.636392,1084.32173 C163.636392,1083.96854 163.283199,1081.63746 162.188298,1081.63746 C161.022269,1081.63746 160.810843,1085.02812 160.810843,1087.25324 C160.810843,1088.94906 161.234675,1090.92694 161.976382,1090.92694 C163.21256,1090.92694 163.636392,1087.85416 163.636392,1087.88948 M161.058078,1105.97446 C156.960541,1105.97446 155.017976,1102.72459 155.017976,1100.32287 C155.017976,1098.94493 155.653725,1096.57853 158.055442,1096.57853 C159.503536,1096.57853 160.315881,1097.88535 160.315881,1099.05138 C160.315881,1101.31182 157.949484,1101.87693 157.949484,1103.29019 C157.949484,1104.7736 159.680623,1105.30339 160.775033,1105.30339 C164.024905,1105.30339 163.77767,1101.45309 163.77767,1096.36661 L163.77767,1089.62012 C163.77767,1090.36183 162.576811,1092.86951 159.538855,1092.86951 C156.677986,1092.86951 155.052805,1090.71502 155.052805,1087.04132 C155.052805,1083.08555 156.713306,1080.40079 160.421839,1080.40079 C162.64745,1080.40079 163.77767,1082.20208 163.77767,1082.55576 C163.77767,1081.53101 167.239458,1080.33015 168.475636,1080.33015 C169.005426,1080.33015 168.934788,1080.75398 168.934788,1080.82511 L168.934788,1096.75513 C168.934788,1102.68927 166.53258,1105.97446 161.058078,1105.97446" id="Fill-121" fill="#1A1918"></path>
                <path d="M174.620274,1073.01835 C176.033048,1073.01835 177.233907,1074.18438 177.233907,1075.63248 C177.233907,1077.04525 176.033048,1078.24611 174.620274,1078.24611 C173.171689,1078.24611 172.00615,1077.04525 172.00615,1075.63248 C172.00615,1074.18438 173.171689,1073.01835 174.620274,1073.01835 M175.997729,1092.97576 C173.490054,1092.97576 172.147428,1091.28043 172.147428,1087.25353 L172.147428,1082.76748 L170.593375,1082.76748 C170.522737,1082.76748 169.922307,1082.8028 169.922307,1082.37897 C169.922307,1082.02577 170.487417,1082.02577 170.558056,1082.02577 L171.123166,1082.02577 C172.465302,1082.02577 175.821132,1079.97725 176.916033,1079.97725 C177.552272,1079.97725 177.445823,1080.54236 177.445823,1080.54236 L177.445823,1087.64204 C177.445823,1091.03319 177.445823,1091.5983 177.904975,1091.5983 C178.75313,1091.5983 178.859088,1089.44333 178.859088,1088.91354 C178.859088,1088.73694 178.929727,1088.45439 179.176963,1088.45439 C179.423708,1088.45439 179.530156,1088.66631 179.530156,1088.91354 C179.530156,1090.18504 179.423708,1092.97576 175.997729,1092.97576" id="Fill-123" fill="#1A1918"></path>
                <path d="M192.315865,1093.01098 C190.443939,1093.01098 188.360096,1092.41055 188.572012,1088.27818 L188.783438,1084.95767 C188.960525,1083.01462 189.137122,1081.63716 188.218328,1081.63716 C186.946831,1081.63716 185.816611,1085.06363 185.816611,1086.51173 L185.816611,1091.70416 C185.816611,1092.90502 185.145543,1093.08211 183.697449,1092.79906 C182.036948,1092.48119 180.518216,1091.56289 180.518216,1090.32622 L180.518216,1082.8027 L178.964163,1082.8027 C178.893525,1082.8027 178.293095,1082.83851 178.293095,1082.41419 C178.293095,1082.061 178.858205,1082.061 178.928844,1082.061 L179.493954,1082.061 C180.83609,1082.061 184.19192,1080.01247 185.286821,1080.01247 C185.922569,1080.01247 185.816611,1080.57758 185.816611,1080.57758 L185.816611,1084.14533 C185.816611,1082.48483 187.300025,1080.15375 190.3733,1080.15375 C192.739698,1080.15375 194.152963,1081.95504 194.082324,1084.42788 L193.76445,1089.09053 C193.658001,1090.75054 193.72864,1091.3858 194.29424,1091.3858 C194.965308,1091.3858 195.106095,1090.18494 195.106095,1088.98408 C195.106095,1088.8428 195.106095,1088.48961 195.42446,1088.48961 C195.671696,1088.48961 195.777654,1088.70202 195.777654,1088.87812 C195.777654,1090.57345 195.459779,1093.01098 192.315865,1093.01098" id="Fill-125" fill="#1A1918"></path>
                <path d="M196.835714,1097.35551 C196.835714,1097.32068 199.30856,1095.13039 199.30856,1093.39974 C199.30856,1092.51675 196.729756,1093.1525 196.729756,1091.10349 C196.729756,1090.25582 197.365504,1089.33752 198.566363,1089.33752 C199.767712,1089.33752 200.474099,1090.36178 200.474099,1091.6686 C200.474099,1094.42351 197.859976,1097.5321 197.224227,1097.5321 C196.871033,1097.5321 196.835714,1097.46196 196.835714,1097.35551" id="Fill-127" fill="#1A1918"></path>
                <path d="M209.232566,1069.02692 L207.678514,1069.02692 C207.607385,1069.02692 207.006956,1069.06224 207.006956,1068.63841 C207.006956,1068.28522 207.572556,1068.28522 207.643195,1068.28522 L208.208305,1068.28522 C209.550441,1068.28522 212.906271,1066.23669 214.001171,1066.23669 C214.63692,1066.23669 214.530962,1066.8018 214.530962,1066.8018 L214.530962,1074.8556 L214.354365,1087.57155 C214.354365,1091.03285 214.354365,1091.45717 214.954794,1091.45717 C215.590543,1091.45717 215.802459,1089.72603 215.802459,1088.77241 C215.802459,1088.66645 215.802459,1088.3839 216.120333,1088.3839 C216.367569,1088.3839 216.473527,1088.59581 216.473527,1088.77241 C216.473527,1090.11455 216.33225,1092.97542 213.188826,1092.97542 C210.221509,1092.97542 208.985331,1091.35121 209.02065,1086.7234 C209.02065,1086.3702 209.232566,1074.32581 209.232566,1069.76912 L209.232566,1069.02692 Z" id="Fill-129" fill="#1A1918"></path>
                <path d="M222.194676,1086.90024 C222.51255,1087.21811 222.971702,1087.43003 223.572622,1087.43003 C224.632203,1087.43003 225.056035,1086.44109 225.056035,1084.46271 C225.056035,1082.30872 224.702842,1080.96609 223.748728,1080.96609 C222.51255,1080.96609 222.194676,1084.71044 222.194676,1086.653 L222.194676,1086.90024 Z M223.925325,1092.97566 C219.581043,1092.97566 216.543087,1090.43267 216.543087,1086.51173 C216.543087,1082.73206 219.75764,1080.29503 223.854686,1080.29503 C227.422433,1080.29503 230.354431,1082.20227 230.354431,1084.42788 C230.354431,1086.68832 228.587972,1088.24237 224.879438,1088.24237 C223.748728,1088.24237 222.865744,1088.06578 222.194676,1087.74839 C222.265315,1089.79643 222.654318,1091.91608 224.738161,1091.91608 C228.587972,1091.91608 229.683363,1089.12536 229.78883,1088.87812 C229.895279,1088.70202 230.036556,1088.41946 230.38975,1088.48961 C230.742944,1088.56074 230.531028,1089.0194 230.531028,1089.0194 C230.531028,1089.0194 228.976485,1092.97566 223.925325,1092.97566 L223.925325,1092.97566 Z" id="Fill-131" fill="#1A1918"></path>
                <path d="M235.615496,1093.15231 C233.955485,1092.83443 232.436753,1091.91564 232.436753,1090.67995 L232.436753,1082.83856 L230.882701,1082.83856 C230.812062,1082.83856 230.211142,1082.87339 230.211142,1082.45005 C230.211142,1082.09636 230.776252,1082.09636 230.846891,1082.09636 L231.412491,1082.09636 C232.754136,1082.09636 236.109967,1080.04784 237.204867,1080.04784 C237.841106,1080.04784 237.734658,1080.61295 237.734658,1080.61295 L237.734658,1084.21553 C237.734658,1083.15594 238.582813,1080.1538 242.008792,1080.1538 C244.410999,1080.1538 245.753135,1081.70785 245.894413,1083.93297 C246.03569,1082.76743 246.953994,1080.1538 250.203866,1080.1538 C253.135373,1080.1538 254.336722,1081.95509 254.124316,1084.42793 L253.771122,1088.98413 C253.735802,1090.67995 253.735802,1091.28038 254.300912,1091.28038 C254.97198,1091.28038 255.184387,1089.72633 255.184387,1088.87817 C255.184387,1088.73689 255.184387,1088.3837 255.537581,1088.3837 C255.784816,1088.3837 255.855455,1088.59562 255.855455,1088.77221 C255.855455,1090.46754 255.466942,1092.97571 252.428986,1092.97571 C250.592379,1092.97571 248.402088,1092.30415 248.649323,1088.17228 C248.614494,1088.17228 248.826411,1084.95772 248.861239,1084.95772 C249.108475,1082.48488 249.037836,1081.63721 248.29662,1081.63721 C247.307187,1081.63721 246.141648,1084.28665 245.929732,1086.54709 L245.929732,1091.98677 C245.929732,1093.18763 245.364622,1093.36422 243.916528,1093.08167 C242.256027,1092.76379 240.772614,1091.84549 240.772614,1090.60882 L240.772614,1084.95772 C240.772614,1082.48488 240.913891,1081.63721 240.066226,1081.63721 C238.900687,1081.63721 237.734658,1085.27511 237.734658,1087.21816 L237.734658,1092.05741 C237.734658,1093.25826 237.06408,1093.43486 235.615496,1093.15231" id="Fill-133" fill="#1A1918"></path>
                <path d="M265.001111,1084.92226 C265.142388,1085.7346 264.789195,1086.47631 264.047488,1086.47631 C263.235142,1086.47631 262.457626,1085.66396 262.457626,1084.25119 C262.457626,1083.61544 262.599394,1081.17791 265.672179,1081.17791 C269.381203,1081.17791 271.535684,1083.33288 271.535684,1086.37035 C271.535684,1089.62022 269.663758,1092.97556 263.800252,1092.97556 C257.689511,1092.97556 256.205607,1089.62022 256.205607,1086.40567 C256.205607,1083.29707 257.653701,1080.08301 265.283666,1080.08301 C265.636859,1080.08301 265.813456,1080.18946 265.813456,1080.36557 C265.813456,1080.6128 265.566221,1080.71925 265.283666,1080.71925 C261.751238,1080.71925 261.6806,1084.32134 261.6806,1086.19375 C261.6806,1088.45419 262.034284,1092.05726 263.800252,1092.05726 C265.636859,1092.05726 266.060692,1088.6666 266.060692,1086.33503 C266.060692,1084.25119 265.778137,1081.84898 264.753875,1081.84898 C263.658975,1081.84898 264.789195,1083.82736 265.001111,1084.92226" id="Fill-135" fill="#1A1918"></path>
                <path d="M285.415558,1093.01098 C283.543631,1093.01098 281.459788,1092.41055 281.671705,1088.27818 L281.883621,1084.95767 C282.060218,1083.01462 282.236815,1081.63716 281.31802,1081.63716 C280.046523,1081.63716 278.916304,1085.06363 278.916304,1086.51173 L278.916304,1091.70416 C278.916304,1092.90502 278.245236,1093.08211 276.797142,1092.79906 C275.136641,1092.48119 273.617908,1091.56289 273.617908,1090.32622 L273.617908,1082.8027 L272.063856,1082.8027 C271.993217,1082.8027 271.392788,1082.83851 271.392788,1082.41419 C271.392788,1082.061 271.957898,1082.061 272.028536,1082.061 L272.593646,1082.061 C273.935782,1082.061 277.291613,1080.01247 278.386513,1080.01247 C279.022262,1080.01247 278.916304,1080.57758 278.916304,1080.57758 L278.916304,1084.14533 C278.916304,1082.48483 280.399717,1080.15375 283.472992,1080.15375 C285.83939,1080.15375 287.252655,1081.95504 287.182016,1084.42788 L286.864142,1089.09053 C286.757693,1090.75054 286.828332,1091.3858 287.393933,1091.3858 C288.065001,1091.3858 288.205788,1090.18494 288.205788,1088.98408 C288.205788,1088.8428 288.205788,1088.48961 288.524152,1088.48961 C288.771388,1088.48961 288.877346,1088.70202 288.877346,1088.87812 C288.877346,1090.57345 288.559472,1093.01098 285.415558,1093.01098" id="Fill-137" fill="#1A1918"></path>
                <path d="M289.935406,1097.35551 C289.935406,1097.32068 292.408253,1095.13039 292.408253,1093.39974 C292.408253,1092.51675 289.829448,1093.1525 289.829448,1091.10349 C289.829448,1090.25582 290.465197,1089.33752 291.666055,1089.33752 C292.867404,1089.33752 293.573792,1090.36178 293.573792,1091.6686 C293.573792,1094.42351 290.959668,1097.5321 290.323919,1097.5321 C289.970726,1097.5321 289.935406,1097.46196 289.935406,1097.35551" id="Fill-139" fill="#1A1918"></path>
                <path d="M307.06525,1093.01098 C303.003032,1093.01098 301.201745,1091.63303 301.201745,1090.15011 C301.201745,1089.16068 301.943451,1088.38365 303.108991,1088.38365 C304.416298,1088.38365 305.087366,1089.40791 305.087366,1090.43267 C305.087366,1091.63303 305.158004,1092.48119 307.06525,1092.48119 C308.301428,1092.48119 309.184412,1091.91608 309.184412,1090.96246 C309.184412,1087.64195 301.44898,1089.16068 301.44898,1084.71044 C301.44898,1082.16744 303.921336,1080.36567 307.06525,1080.36567 C309.784841,1080.36567 312.610881,1081.10737 312.610881,1083.12058 C312.610881,1084.0742 311.763217,1084.67512 310.561867,1084.67512 C309.466967,1084.67512 308.72526,1083.96824 308.72526,1083.12058 C308.72526,1081.95504 308.972496,1080.89546 307.06525,1080.89546 C305.793753,1080.89546 304.980917,1081.74312 304.980917,1082.73206 C304.980917,1084.95767 313.317269,1084.32143 313.317269,1088.8428 C313.317269,1091.52757 310.774274,1093.01098 307.06525,1093.01098" id="Fill-141" fill="#1A1918"></path>
                <path d="M329.352555,1080.85989 L329.352555,1087.67702 C329.352555,1091.13881 329.352555,1091.56264 329.847027,1091.56264 C330.624053,1091.56264 330.835969,1089.83199 330.835969,1088.87837 C330.835969,1088.77241 330.835969,1088.48986 331.153843,1088.48986 C331.401079,1088.48986 331.507527,1088.70177 331.507527,1088.87837 C331.507527,1090.2205 331.33044,1093.01123 327.939781,1093.01123 C325.325657,1093.01123 324.018841,1091.24477 324.018841,1089.54944 C324.018841,1090.50306 322.570747,1092.76399 320.168539,1092.76399 C317.131073,1092.76399 315.64766,1090.50306 315.930215,1088.0307 L316.248089,1083.54465 L316.318728,1082.80295 L315.471063,1082.80295 C315.400425,1082.80295 314.799505,1082.83827 314.799505,1082.41443 C314.799505,1082.02592 315.293976,1082.06075 315.471063,1082.06075 L316.318728,1082.06075 C317.9081,1082.06075 319.956623,1080.01223 321.122652,1080.01223 C321.758401,1080.01223 321.652443,1080.57783 321.652443,1080.57783 L321.545994,1082.13188 L321.086843,1088.2073 C320.910736,1090.14987 321.22812,1090.92689 322.005146,1090.92689 C322.994579,1090.92689 324.05416,1088.66645 324.05416,1087.21836 L324.05416,1083.01486 C324.05416,1082.3433 325.219699,1081.53096 326.420557,1081.00117 C327.374671,1080.57783 328.328294,1080.29527 328.822765,1080.29527 C329.458514,1080.29527 329.352555,1080.85989 329.352555,1080.85989" id="Fill-143" fill="#1A1918"></path>
                <path d="M340.760171,1087.88948 L340.760171,1084.32173 C340.760171,1083.96854 340.406978,1081.63746 339.312077,1081.63746 C338.146048,1081.63746 337.934622,1085.02812 337.934622,1087.25324 C337.934622,1088.94906 338.358454,1090.92694 339.100161,1090.92694 C340.336339,1090.92694 340.760171,1087.85416 340.760171,1087.88948 M338.181858,1105.97446 C334.08432,1105.97446 332.141755,1102.72459 332.141755,1100.32287 C332.141755,1098.94493 332.777504,1096.57853 335.179221,1096.57853 C336.627315,1096.57853 337.43966,1097.88535 337.43966,1099.05138 C337.43966,1101.31182 335.073263,1101.87693 335.073263,1103.29019 C335.073263,1104.7736 336.804402,1105.30339 337.898812,1105.30339 C341.148684,1105.30339 340.901449,1101.45309 340.901449,1096.36661 L340.901449,1089.62012 C340.901449,1090.36183 339.70059,1092.86951 336.662634,1092.86951 C333.801766,1092.86951 332.176584,1090.71502 332.176584,1087.04132 C332.176584,1083.08555 333.837085,1080.40079 337.545618,1080.40079 C339.771229,1080.40079 340.901449,1082.20208 340.901449,1082.55576 C340.901449,1081.53101 344.363237,1080.33015 345.599415,1080.33015 C346.129206,1080.33015 346.058567,1080.75398 346.058567,1080.82511 L346.058567,1096.75513 C346.058567,1102.68927 343.656359,1105.97446 338.181858,1105.97446" id="Fill-145" fill="#1A1918"></path>
                <path d="M355.205694,1090.92714 C356.441872,1090.92714 356.865704,1087.85386 356.865704,1087.88967 L356.865704,1084.32143 C356.865704,1083.96824 356.512511,1081.63765 355.41761,1081.63765 C354.252071,1081.63765 354.040155,1085.02831 354.040155,1087.25343 C354.040155,1088.94925 354.463988,1090.92714 355.205694,1090.92714 M357.006982,1082.59079 C357.006982,1081.42525 360.50409,1080.36567 361.63431,1080.36567 C362.270058,1080.36567 362.1641,1080.93078 362.1641,1080.93078 L362.1641,1087.64195 C362.1641,1091.10324 362.1641,1091.42161 362.72921,1091.42161 C363.400278,1091.42161 363.576875,1089.83224 363.576875,1088.87812 C363.576875,1088.77217 363.647513,1088.48961 363.894749,1088.48961 C364.141985,1088.48961 364.248433,1088.70202 364.248433,1088.87812 C364.248433,1090.22075 364.141985,1093.01098 360.645367,1093.01098 C358.419757,1093.01098 357.042301,1091.73948 357.042301,1089.62032 C357.042301,1089.97351 355.98272,1092.79906 352.945255,1092.79906 C350.154534,1092.79906 348.388566,1090.64458 348.388566,1086.97137 C348.388566,1083.01462 350.225173,1080.36567 353.686961,1080.36567 C356.194637,1080.36567 357.006982,1082.27291 357.006982,1082.59079" id="Fill-147" fill="#1A1918"></path>
                <path d="M368.696907,1093.08191 C367.036897,1092.76404 365.518164,1091.84524 365.518164,1090.60907 L365.518164,1082.83832 L363.963622,1082.83832 C363.892983,1082.803 363.292554,1082.83832 363.292554,1082.4498 C363.292554,1082.0608 363.857664,1082.0608 363.928302,1082.09612 C363.928302,1082.0608 364.387454,1082.0608 364.493412,1082.09612 C365.835548,1082.09612 369.191379,1080.04809 370.286279,1080.04809 C370.922518,1080.01228 370.816069,1080.57788 370.816069,1080.6127 L370.816069,1083.33279 C370.816069,1082.09612 371.982099,1079.83568 374.73701,1079.83568 C376.574107,1079.83568 377.845605,1081.39022 377.845605,1082.83832 C377.845605,1084.39237 376.821343,1085.80514 375.231481,1085.80514 C373.783387,1085.80514 373.253596,1084.78088 373.253596,1083.33279 C373.253596,1082.09612 373.182958,1081.1425 372.829764,1081.1425 C372.335293,1081.1425 370.816069,1083.26166 370.816069,1087.28856 L370.816069,1091.98701 C370.816069,1093.18787 370.145002,1093.36398 368.696907,1093.08191" id="Fill-149" fill="#1A1918"></path>
                <path d="M379.469069,1097.35551 C379.469069,1097.32068 381.941915,1095.13039 381.941915,1093.39974 C381.941915,1092.51675 379.363111,1093.1525 379.363111,1091.10349 C379.363111,1090.25582 379.99886,1089.33752 381.199718,1089.33752 C382.400577,1089.33752 383.107454,1090.36178 383.107454,1091.6686 C383.107454,1094.42351 380.493331,1097.5321 379.857582,1097.5321 C379.504388,1097.5321 379.469069,1097.46196 379.469069,1097.35551" id="Fill-151" fill="#1A1918"></path>
                <path d="M396.84659,1086.61759 C396.84659,1089.47895 396.705312,1092.26918 398.012129,1092.26918 C399.390075,1092.26918 399.67263,1088.41936 399.67263,1086.26439 C399.67263,1084.18055 399.778588,1081.46047 398.224045,1081.46047 C397.305742,1081.46047 396.84659,1082.97969 396.84659,1083.01452 L396.84659,1086.61759 Z M398.012129,1092.94073 C394.338915,1092.94073 391.477556,1090.57335 391.477556,1085.41673 L391.477556,1069.06239 L389.887694,1069.06239 C389.817545,1069.06239 389.252436,1069.09771 389.252436,1068.67388 C389.252436,1068.32068 389.817545,1068.32068 389.887694,1068.32068 L390.453294,1068.32068 C391.79543,1068.32068 395.15126,1066.27167 396.24567,1066.27167 C396.881909,1066.27167 396.775461,1066.83727 396.775461,1066.83727 L396.775461,1081.84898 C396.775461,1081.53111 397.764893,1080.36557 399.884055,1080.36557 C402.886692,1080.36557 405.323729,1082.52005 405.323729,1085.84056 C405.323729,1089.83214 402.780734,1092.94073 398.012129,1092.94073 L398.012129,1092.94073 Z" id="Fill-153" fill="#1A1918"></path>
                <path d="M410.726561,1093.08191 C409.066551,1092.76404 407.547818,1091.84524 407.547818,1090.60907 L407.547818,1082.83832 L405.993766,1082.83832 C405.922637,1082.803 405.322208,1082.83832 405.322208,1082.4498 C405.322208,1082.0608 405.887318,1082.0608 405.957956,1082.09612 C405.957956,1082.0608 406.417108,1082.0608 406.523557,1082.09612 C407.865693,1082.09612 411.221033,1080.04809 412.315933,1080.04809 C412.951682,1080.01228 412.845723,1080.57788 412.845723,1080.6127 L412.845723,1083.33279 C412.845723,1082.09612 414.011263,1079.83568 416.766664,1079.83568 C418.603761,1079.83568 419.874768,1081.39022 419.874768,1082.83832 C419.874768,1084.39237 418.850997,1085.80514 417.261135,1085.80514 C415.813041,1085.80514 415.28325,1084.78088 415.28325,1083.33279 C415.28325,1082.09612 415.212612,1081.1425 414.859418,1081.1425 C414.364947,1081.1425 412.845723,1083.26166 412.845723,1087.28856 L412.845723,1091.98701 C412.845723,1093.18787 412.174656,1093.36398 410.726561,1093.08191" id="Fill-155" fill="#1A1918"></path>
                <path d="M435.415338,1080.85989 L435.415338,1087.67702 C435.415338,1091.13881 435.415338,1091.56264 435.9103,1091.56264 C436.687326,1091.56264 436.898752,1089.83199 436.898752,1088.87837 C436.898752,1088.77241 436.898752,1088.48986 437.217117,1088.48986 C437.464352,1088.48986 437.57031,1088.70177 437.57031,1088.87837 C437.57031,1090.2205 437.393714,1093.01123 434.002564,1093.01123 C431.388931,1093.01123 430.082114,1091.24477 430.082114,1089.54944 C430.082114,1090.50306 428.633529,1092.76399 426.231813,1092.76399 C423.193856,1092.76399 421.710934,1090.50306 421.992998,1088.0307 L422.310872,1083.54465 L422.381511,1082.80295 L421.533846,1082.80295 C421.463207,1082.80295 420.862778,1082.83827 420.862778,1082.41443 C420.862778,1082.02592 421.357249,1082.06075 421.533846,1082.06075 L422.381511,1082.06075 C423.971373,1082.06075 426.019896,1080.01223 427.185435,1080.01223 C427.821675,1080.01223 427.715226,1080.57783 427.715226,1080.57783 L427.609268,1082.13188 L427.150116,1088.2073 C426.973519,1090.14987 427.291394,1090.92689 428.06842,1090.92689 C429.057362,1090.92689 430.116943,1088.66645 430.116943,1087.21836 L430.116943,1083.01486 C430.116943,1082.3433 431.282973,1081.53096 432.48334,1081.00117 C433.437454,1080.57783 434.391077,1080.29527 434.885548,1080.29527 C435.521787,1080.29527 435.415338,1080.85989 435.415338,1080.85989" id="Fill-157" fill="#1A1918"></path>
                <path d="M442.761571,1093.01098 C440.147447,1093.01098 438.87595,1091.20969 438.87595,1087.43003 L438.87595,1082.45 L438.381478,1082.45 C438.31084,1082.45 437.710411,1082.52015 437.710411,1082.09631 C437.710411,1081.67248 438.31084,1081.7078 438.381478,1081.7078 L439.193824,1081.7078 C440.995112,1081.31929 442.796399,1077.82218 442.832209,1076.26813 C442.832209,1075.77366 443.150084,1075.59706 443.538597,1075.59706 C444.139026,1075.59706 444.033068,1076.55068 444.033068,1076.55068 L444.033068,1081.7078 L445.304565,1081.7078 C445.375204,1081.7078 445.975633,1081.63716 445.975633,1082.09631 C445.975633,1082.52015 445.375204,1082.45 445.304565,1082.45 L444.033068,1082.45 L444.033068,1087.57131 C444.033068,1090.6799 444.033068,1091.45693 444.562858,1091.45693 C445.339884,1091.45693 445.516481,1089.72628 445.516481,1088.77217 C445.516481,1088.6667 445.516481,1088.38365 445.834355,1088.38365 C446.082082,1088.38365 446.187549,1088.59557 446.187549,1088.77217 C446.187549,1090.11479 446.010952,1093.01098 442.761571,1093.01098" id="Fill-159" fill="#1A1918"></path>
                <path d="M464.589479,1087.25329 C462.787701,1087.25329 462.081313,1085.69923 462.081313,1084.1805 C462.081313,1082.69709 462.116633,1080.78935 461.021732,1080.78935 C459.785554,1080.78935 459.184635,1084.32129 459.184635,1086.40562 C459.184635,1088.7367 459.608958,1091.8811 462.434507,1091.8811 C465.225227,1091.8811 467.026515,1088.84266 467.026515,1088.84266 C467.026515,1088.84266 467.344389,1088.31287 467.697583,1088.384 C468.015457,1088.45414 467.838861,1088.84266 467.838861,1088.84266 C467.838861,1088.84266 465.931124,1093.01083 461.268968,1093.01083 C456.535682,1093.01083 453.533536,1090.18528 453.533536,1086.30015 C453.533536,1082.52049 456.64164,1080.08296 461.268968,1080.08296 C465.896295,1080.08296 467.732902,1082.55581 467.732902,1084.1805 C467.732902,1085.87583 466.567363,1087.25329 464.589479,1087.25329" id="Fill-161" fill="#1A1918"></path>
                <path d="M482.07286,1093.01098 C478.540432,1093.01098 477.763406,1090.6799 477.904684,1088.20706 L478.010642,1084.95767 C478.1166,1083.01462 477.728087,1082.30872 477.162977,1082.30872 C476.42127,1082.30872 475.008496,1085.06363 475.008496,1086.51173 L475.008496,1091.70416 C475.008496,1092.90502 474.372747,1093.08211 472.924163,1092.79906 C471.264152,1092.48119 469.744929,1091.56289 469.744929,1090.32622 L469.744929,1068.99185 L468.190877,1068.99185 C468.120729,1068.99185 467.519809,1069.02668 467.519809,1068.60334 C467.519809,1068.24965 468.084919,1068.24965 468.155558,1068.24965 L468.720667,1068.24965 C470.063294,1068.24965 473.418634,1066.20162 474.513534,1066.20162 C475.149773,1066.20162 475.043325,1066.76624 475.043325,1066.76624 L475.043325,1084.28661 C475.043325,1083.68569 476.526738,1080.22439 479.564694,1080.22439 C481.966411,1080.22439 483.520954,1081.95504 483.414996,1084.42788 L483.309038,1087.78322 C483.097121,1091.24452 483.344357,1091.63303 483.838828,1091.63303 C484.29798,1091.63303 484.686493,1090.43267 484.686493,1088.87812 C484.686493,1088.77217 484.686493,1088.48961 485.004858,1088.48961 C485.251603,1088.48961 485.357561,1088.70202 485.357561,1088.87812 C485.357561,1090.22075 485.216283,1093.01098 482.07286,1093.01098" id="Fill-163" fill="#1A1918"></path>
                <path d="M492.491239,1090.92714 C493.727907,1090.92714 494.151249,1087.85386 494.151249,1087.88967 L494.151249,1084.32143 C494.151249,1083.96824 493.798056,1081.63765 492.703155,1081.63765 C491.537616,1081.63765 491.3257,1085.02831 491.3257,1087.25343 C491.3257,1088.94925 491.749042,1090.92714 492.491239,1090.92714 M494.292527,1082.59079 C494.292527,1081.42525 497.789634,1080.36567 498.919364,1080.36567 C499.555603,1080.36567 499.450135,1080.93078 499.450135,1080.93078 L499.450135,1087.64195 C499.450135,1091.10324 499.450135,1091.42161 500.014755,1091.42161 C500.685823,1091.42161 500.862419,1089.83224 500.862419,1088.87812 C500.862419,1088.77217 500.933058,1088.48961 501.180294,1088.48961 C501.42802,1088.48961 501.533978,1088.70202 501.533978,1088.87812 C501.533978,1090.22075 501.42802,1093.01098 497.930912,1093.01098 C495.705792,1093.01098 494.327846,1091.73948 494.327846,1089.62032 C494.327846,1089.97351 493.268265,1092.79906 490.230799,1092.79906 C487.440079,1092.79906 485.674111,1090.64458 485.674111,1086.97137 C485.674111,1083.01462 487.510718,1080.36567 490.972016,1080.36567 C493.480181,1080.36567 494.292527,1082.27291 494.292527,1082.59079" id="Fill-165" fill="#1A1918"></path>
                <path d="M505.770977,1093.15231 C504.110477,1092.83443 502.592234,1091.91564 502.592234,1090.67995 L502.592234,1082.83856 L501.037692,1082.83856 C500.967053,1082.83856 500.366133,1082.87339 500.366133,1082.45005 C500.366133,1082.09636 500.931734,1082.09636 501.002372,1082.09636 L501.567482,1082.09636 C502.909618,1082.09636 506.265449,1080.04784 507.360349,1080.04784 C507.996098,1080.04784 507.890139,1080.61295 507.890139,1080.61295 L507.890139,1084.21553 C507.890139,1083.15594 508.737804,1080.1538 512.164273,1080.1538 C514.566481,1080.1538 515.908126,1081.70785 516.049404,1083.93297 C516.190681,1082.76743 517.108985,1080.1538 520.358857,1080.1538 C523.290855,1080.1538 524.491713,1081.95509 524.279307,1084.42793 L523.926604,1088.98413 C523.890794,1090.67995 523.890794,1091.28038 524.456394,1091.28038 C525.127462,1091.28038 525.339869,1089.72633 525.339869,1088.87817 C525.339869,1088.73689 525.339869,1088.3837 525.692572,1088.3837 C525.939808,1088.3837 526.010446,1088.59562 526.010446,1088.77221 C526.010446,1090.46754 525.621933,1092.97571 522.583977,1092.97571 C520.74737,1092.97571 518.557569,1092.30415 518.804805,1088.17228 C518.769486,1088.17228 518.981402,1084.95772 519.016721,1084.95772 C519.263957,1082.48488 519.193318,1081.63721 518.451611,1081.63721 C517.462669,1081.63721 516.29713,1084.28665 516.084723,1086.54709 L516.084723,1091.98677 C516.084723,1093.18763 515.519613,1093.36422 514.071519,1093.08167 C512.411509,1092.76379 510.928096,1091.84549 510.928096,1090.60882 L510.928096,1084.95772 C510.928096,1082.48488 511.069373,1081.63721 510.221218,1081.63721 C509.055679,1081.63721 507.890139,1085.27511 507.890139,1087.21816 L507.890139,1092.05741 C507.890139,1093.25826 507.219071,1093.43486 505.770977,1093.15231" id="Fill-167" fill="#1A1918"></path>
                <path d="M532.436756,1084.67507 L532.436756,1088.24233 C532.436756,1088.59552 532.78995,1090.92709 533.88485,1090.92709 C535.050389,1090.92709 535.262796,1087.53594 535.262796,1085.31082 C535.262796,1083.61549 534.838473,1081.6376 534.096766,1081.6376 C532.860588,1081.6376 532.436756,1084.71039 532.436756,1084.67507 M530.070358,1103.78432 C528.409858,1103.11325 526.891125,1102.19495 526.891125,1100.95828 L526.891125,1082.83846 L525.336582,1082.83846 C525.266434,1082.83846 524.665514,1082.87329 524.665514,1082.44995 C524.665514,1082.09627 525.231115,1082.09627 525.301753,1082.09627 L525.866373,1082.09627 C527.208999,1082.09627 530.56483,1080.04774 531.65973,1080.04774 C532.295479,1080.04774 532.18952,1080.61285 532.18952,1080.61285 L532.18952,1084.03932 C532.18952,1082.73201 532.719311,1080.1537 536.075141,1080.1537 C539.041968,1080.1537 540.913895,1082.23754 540.913895,1086.72359 C540.913895,1090.18489 538.93601,1092.7637 536.075141,1092.7637 C533.708253,1092.7637 532.18952,1090.82113 532.18952,1090.15006 L532.18952,1102.68942 C532.18952,1103.89028 531.447323,1104.34943 530.070358,1103.78432" id="Fill-169" fill="#1A1918"></path>
                <path d="M549.318972,1090.92714 C550.55564,1090.92714 550.978982,1087.85386 550.978982,1087.88967 L550.978982,1084.32143 C550.978982,1083.96824 550.625788,1081.63765 549.530888,1081.63765 C548.365349,1081.63765 548.153433,1085.02831 548.153433,1087.25343 C548.153433,1088.94925 548.576775,1090.92714 549.318972,1090.92714 M551.12026,1082.59079 C551.12026,1081.42525 554.617367,1080.36567 555.747097,1080.36567 C556.383336,1080.36567 556.277868,1080.93078 556.277868,1080.93078 L556.277868,1087.64195 C556.277868,1091.10324 556.277868,1091.42161 556.842487,1091.42161 C557.513555,1091.42161 557.690152,1089.83224 557.690152,1088.87812 C557.690152,1088.77217 557.760791,1088.48961 558.008027,1088.48961 C558.255753,1088.48961 558.361711,1088.70202 558.361711,1088.87812 C558.361711,1090.22075 558.255753,1093.01098 554.758645,1093.01098 C552.533525,1093.01098 551.155579,1091.73948 551.155579,1089.62032 C551.155579,1089.97351 550.095998,1092.79906 547.058532,1092.79906 C544.267812,1092.79906 542.501843,1090.64458 542.501843,1086.97137 C542.501843,1083.01462 544.338451,1080.36567 547.799748,1080.36567 C550.307914,1080.36567 551.12026,1082.27291 551.12026,1082.59079" id="Fill-171" fill="#1A1918"></path>
                <path d="M567.473028,1087.88948 L567.473028,1084.32173 C567.473028,1083.96854 567.119835,1081.63746 566.024934,1081.63746 C564.859395,1081.63746 564.646988,1085.02812 564.646988,1087.25324 C564.646988,1088.94906 565.071311,1090.92694 565.812527,1090.92694 C567.049196,1090.92694 567.473028,1087.85416 567.473028,1087.88948 M564.894224,1105.97446 C560.797177,1105.97446 558.854612,1102.72459 558.854612,1100.32287 C558.854612,1098.94493 559.490361,1096.57853 561.892078,1096.57853 C563.340172,1096.57853 564.152517,1097.88535 564.152517,1099.05138 C564.152517,1101.31182 561.78612,1101.87693 561.78612,1103.29019 C561.78612,1104.7736 563.517259,1105.30339 564.612159,1105.30339 C567.861541,1105.30339 567.614306,1101.45309 567.614306,1096.36661 L567.614306,1089.62012 C567.614306,1090.36183 566.413447,1092.86951 563.375491,1092.86951 C560.514132,1092.86951 558.889932,1090.71502 558.889932,1087.04132 C558.889932,1083.08555 560.549942,1080.40079 564.258475,1080.40079 C566.483595,1080.40079 567.614306,1082.20208 567.614306,1082.55576 C567.614306,1081.53101 571.076094,1080.33015 572.312272,1080.33015 C572.842063,1080.33015 572.771424,1080.75398 572.771424,1080.82511 L572.771424,1096.75513 C572.771424,1102.68927 570.369216,1105.97446 564.894224,1105.97446" id="Fill-173" fill="#1A1918"></path>
                <path d="M587.322463,1093.01098 C585.450537,1093.01098 583.366694,1092.41055 583.57812,1088.27818 L583.790527,1084.95767 C583.966633,1083.01462 584.14372,1081.63716 583.224926,1081.63716 C581.95392,1081.63716 580.823209,1085.06363 580.823209,1086.51173 L580.823209,1091.70416 C580.823209,1092.90502 580.152141,1093.08211 578.704047,1092.79906 C577.043546,1092.48119 575.524814,1091.56289 575.524814,1090.32622 L575.524814,1082.8027 L573.970762,1082.8027 C573.900123,1082.8027 573.299694,1082.83851 573.299694,1082.41419 C573.299694,1082.061 573.864313,1082.061 573.935442,1082.061 L574.500552,1082.061 C575.843179,1082.061 579.198028,1080.01247 580.293419,1080.01247 C580.929167,1080.01247 580.823209,1080.57758 580.823209,1080.57758 L580.823209,1084.14533 C580.823209,1082.48483 582.306623,1080.15375 585.379898,1080.15375 C587.746296,1080.15375 589.15907,1081.95504 589.088922,1084.42788 L588.770557,1089.09053 C588.664599,1090.75054 588.735728,1091.3858 589.300348,1091.3858 C589.971416,1091.3858 590.112693,1090.18494 590.112693,1088.98408 C590.112693,1088.8428 590.112693,1088.48961 590.431058,1088.48961 C590.678294,1088.48961 590.784252,1088.70202 590.784252,1088.87812 C590.784252,1090.57345 590.466377,1093.01098 587.322463,1093.01098" id="Fill-175" fill="#1A1918"></path>
                <path d="M596.681654,1086.90024 C596.999038,1087.21811 597.45868,1087.43003 598.059109,1087.43003 C599.11869,1087.43003 599.542523,1086.44109 599.542523,1084.46271 C599.542523,1082.30872 599.189329,1080.96609 598.235706,1080.96609 C596.999038,1080.96609 596.681654,1084.71044 596.681654,1086.653 L596.681654,1086.90024 Z M598.412303,1092.97566 C594.06753,1092.97566 591.030065,1090.43267 591.030065,1086.51173 C591.030065,1082.73206 594.244127,1080.29503 598.341664,1080.29503 C601.90892,1080.29503 604.840918,1082.20227 604.840918,1084.42788 C604.840918,1086.68832 603.07495,1088.24237 599.366416,1088.24237 C598.235706,1088.24237 597.352722,1088.06578 596.681654,1087.74839 C596.752293,1089.79643 597.140806,1091.91608 599.225139,1091.91608 C603.07495,1091.91608 604.16985,1089.12536 604.275808,1088.87812 C604.381766,1088.70202 604.523044,1088.41946 604.876238,1088.48961 C605.229431,1088.56074 605.017515,1089.0194 605.017515,1089.0194 C605.017515,1089.0194 603.463463,1092.97566 598.412303,1092.97566 L598.412303,1092.97566 Z" id="Fill-177" fill="#1A1918"></path>
                <path d="M136.626152,1055.25232 C119.113632,1055.25232 109.400807,1047.45263 109.400807,1033.47204 C109.400807,1022.43376 117.641992,1014.9284 125.441686,1014.9284 C130.886755,1014.9284 133.535707,1017.72451 133.535707,1020.2263 C133.535707,1022.43376 132.652723,1026.70152 126.471834,1026.70152 C121.026765,1026.70152 113.227071,1028.02648 113.227071,1035.97334 C113.227071,1047.1583 124.853029,1051.42556 129.856606,1051.42556 C141.924057,1051.42556 145.308829,1042.59572 144.867337,1031.55842 C144.573009,1024.78839 143.542861,1016.25287 142.954205,1003.4496 L138.833612,1003.4496 C137.6563,1003.4496 135.890332,1002.71378 135.890332,1001.3893 C135.890332,999.770501 137.803464,999.476172 138.833612,999.476172 L142.807041,999.476172 L142.807041,998.151696 C142.218385,986.96723 147.074798,964.892135 170.768697,964.892135 C172.240337,964.892135 172.681829,965.775119 172.681829,966.363776 C172.681829,967.099596 172.240337,967.835416 170.915861,967.835416 C165.617956,967.835416 165.76512,974.457797 166.353776,994.325431 C166.50094,995.944236 166.50094,997.710204 166.648104,999.476172 L179.157046,999.476172 C180.334359,999.476172 182.100327,999.917665 182.100327,1001.3893 C182.100327,1003.00811 180.187195,1003.4496 179.157046,1003.4496 L167.089596,1003.4496 C167.825416,1010.21915 168.7084,1017.13586 168.855564,1021.99227 C169.738549,1046.71681 154.139162,1055.25232 136.626152,1055.25232 M100.570965,981.669325 C100.570965,960.918707 117.2005,945.466484 144.573009,945.466484 C175.62511,945.466484 192.401809,957.533934 203.291947,957.533934 C204.46975,957.533934 208.001196,957.092442 208.001196,955.473637 C208.001196,954.149161 208.443179,953.560505 209.326163,953.560505 C212.122279,953.560505 213.888248,974.899289 195.197925,974.899289 C177.685406,974.899289 169.738549,949.439912 141.776893,949.439912 C119.996617,949.439912 104.396739,963.861987 104.396739,978.872718 C104.396739,988.586034 108.664986,987.850214 114.110055,987.850214 C120.290945,987.850214 127.943474,990.204348 127.943474,997.56304 C127.943474,1003.30244 123.675717,1006.98154 117.494828,1006.98154 C108.664986,1006.98154 100.42331,997.415876 100.570965,981.669325" id="Fill-675" fill="#D8117D"></path>
                <path d="M199.905703,1055.98814 C192.988993,1054.66366 186.66094,1050.8374 186.66094,1045.68666 L186.66094,1013.30959 L180.185723,1013.30959 C179.891395,1013.16243 177.389606,1013.30959 177.389606,1011.69079 C177.389606,1010.07198 179.744231,1010.07198 180.038559,1010.21915 C180.038559,1010.07198 181.951691,1010.07198 182.393183,1010.21915 C187.985416,1010.21915 201.965999,1001.68363 206.528084,1001.68363 C209.177037,1001.53647 208.735544,1003.89109 208.735544,1004.03826 L208.735544,1015.36989 C208.735544,1010.21915 213.591957,1000.80065 225.071242,1000.80065 C232.723772,1000.80065 238.021677,1007.27587 238.021677,1013.30959 C238.021677,1019.78481 233.75392,1025.67137 227.131539,1025.67137 C221.097813,1025.67137 218.890353,1021.4041 218.890353,1015.36989 C218.890353,1010.21915 218.596025,1006.24572 217.124385,1006.24572 C215.063598,1006.24572 208.735544,1015.07556 208.735544,1031.85275 L208.735544,1051.42556 C208.735544,1056.42914 205.939428,1057.16496 199.905703,1055.98814" id="Fill-677" fill="#D8117D"></path>
                <path d="M264.952252,1030.23394 C266.276729,1031.55842 268.189861,1032.44141 270.691649,1032.44141 C275.10657,1032.44141 276.872539,1028.32081 276.872539,1020.07914 C276.872539,1011.10213 275.400898,1005.5099 271.42747,1005.5099 C266.276729,1005.5099 264.952252,1021.10928 264.952252,1029.20331 L264.952252,1030.23394 Z M272.16329,1055.54665 C254.062114,1055.54665 241.406008,1044.95084 241.406008,1028.61514 C241.406008,1012.8681 254.797934,1002.71378 271.868962,1002.71378 C286.732528,1002.71378 298.947633,1010.66064 298.947633,1019.93246 C298.947633,1029.35096 291.589432,1035.82618 276.136718,1035.82618 C271.42747,1035.82618 267.748369,1035.09036 264.952252,1033.76588 C265.24658,1042.30189 266.865385,1051.13173 275.548553,1051.13173 C291.589432,1051.13173 296.151517,1039.50528 296.593009,1038.47562 C297.034501,1037.7398 297.623157,1036.562 299.094797,1036.85633 C300.566438,1037.15114 299.683453,1039.06379 299.683453,1039.06379 C299.683453,1039.06379 293.208236,1055.54665 272.16329,1055.54665 L272.16329,1055.54665 Z" id="Fill-679" fill="#D8117D"></path>
                <path d="M356.045216,1055.69352 C348.245522,1055.69352 339.562845,1053.19173 340.445829,1035.97354 L341.328813,1022.13963 C342.064633,1014.04561 342.800453,1008.30572 338.974189,1008.30572 C333.675793,1008.30572 328.966544,1022.58112 328.966544,1028.61485 L328.966544,1050.24845 C328.966544,1055.25252 326.170918,1055.98834 320.136703,1054.81053 C313.219993,1053.48606 306.89194,1049.65979 306.89194,1044.50905 L306.89194,1013.16262 L300.416723,1013.16262 C300.122395,1013.16262 297.620606,1013.30979 297.620606,1011.54382 C297.620606,1010.07218 299.975231,1010.07218 300.269559,1010.07218 L302.624183,1010.07218 C308.216416,1010.07218 322.197489,1001.53667 326.759084,1001.53667 C329.408527,1001.53667 328.966544,1003.8908 328.966544,1003.8908 L328.966544,1018.75486 C328.966544,1011.83815 335.147433,1002.12483 347.951194,1002.12483 C357.811184,1002.12483 363.697745,1009.63069 363.403417,1019.93217 L362.078941,1039.35831 C361.637449,1046.27502 361.931777,1048.92397 364.286402,1048.92397 C367.082518,1048.92397 367.671174,1043.9204 367.671174,1038.91682 C367.671174,1038.32816 367.671174,1036.85652 368.99565,1036.85652 C370.025799,1036.85652 370.467291,1037.73951 370.467291,1038.47533 C370.467291,1045.5392 369.142814,1055.69352 356.045216,1055.69352" id="Fill-681" fill="#D8117D"></path>
                <path d="M417.853863,1031.70559 C410.348497,1031.70559 407.405217,1025.22988 407.405217,1018.90182 C407.405217,1012.72093 407.552381,1004.77408 402.990296,1004.77408 C397.839555,1004.77408 395.337766,1019.49048 395.337766,1028.17316 C395.337766,1037.88696 397.103735,1050.98456 408.876857,1050.98456 C420.502815,1050.98456 428.00818,1038.32797 428.00818,1038.32797 C428.00818,1038.32797 429.332657,1036.12051 430.804297,1036.41532 C432.129264,1036.70916 431.393444,1038.32797 431.393444,1038.32797 C431.393444,1038.32797 423.446096,1055.69332 404.020444,1055.69332 C384.300464,1055.69332 371.791031,1043.9202 371.791031,1027.73167 C371.791031,1011.98511 384.741466,1001.8308 404.020444,1001.8308 C423.299422,1001.8308 430.951461,1012.13228 430.951461,1018.90182 C430.951461,1025.9657 426.095539,1031.70559 417.853863,1031.70559" id="Fill-683" fill="#D8117D"></path>
                <path d="M490.700056,1055.69352 C475.983654,1055.69352 472.745555,1045.98069 473.334701,1035.67921 L473.775703,1022.13963 C474.217195,1014.04561 472.598881,1011.10233 470.244257,1011.10233 C467.153321,1011.10233 461.26676,1022.58112 461.26676,1028.61485 L461.26676,1050.24845 C461.26676,1055.25252 458.618298,1055.98834 452.584083,1054.81053 C445.667373,1053.48606 439.33932,1049.65979 439.33932,1044.50905 L439.33932,955.620998 L432.864103,955.620998 C432.569775,955.620998 430.067496,955.767671 430.067496,954.002193 C430.067496,952.530063 432.422611,952.530063 432.716939,952.530063 L435.071563,952.530063 C440.663796,952.530063 454.644379,943.994549 459.206464,943.994549 C461.855416,943.994549 461.413924,946.349173 461.413924,946.349173 L461.413924,1019.34351 C461.413924,1016.84172 467.594814,1002.41916 480.25092,1002.41916 C490.258564,1002.41916 496.733782,1009.63069 496.29229,1019.93217 L495.850797,1033.91324 C494.967813,1048.33532 495.997962,1049.95412 498.058258,1049.95412 C499.97139,1049.95412 501.590195,1044.95103 501.590195,1038.47533 C501.590195,1038.03383 501.590195,1036.85652 502.914671,1036.85652 C503.944819,1036.85652 504.386311,1037.73951 504.386311,1038.47533 C504.386311,1044.06756 503.797655,1055.69352 490.700056,1055.69352" id="Fill-685" fill="#D8117D"></path>
                <path d="M562.955583,1039.06379 C562.955583,1050.8374 563.986222,1053.33919 566.340356,1053.33919 C566.782338,1053.33919 567.811996,1053.63352 567.811996,1054.66366 C567.811996,1055.84098 566.929502,1056.28247 565.898864,1056.28247 C553.537085,1056.28247 541.616799,1051.2784 541.616799,1035.97334 C541.616799,1009.63049 585.619334,1007.86452 585.619334,995.35558 C585.619334,995.061252 585.325006,994.472595 584.883514,994.472595 C584.294858,994.472595 584.147694,995.061252 584.147694,995.35558 C584.147694,996.974384 582.234561,1000.94781 574.87636,1000.94781 C566.193682,1000.94781 555.8922,992.706627 547.50336,992.706627 C539.409339,992.706627 536.466058,995.944236 536.466058,998.887516 C536.466058,1000.35916 535.435419,1000.65348 534.994418,1000.65348 C534.405762,1000.65348 533.522777,1000.06483 533.522777,998.004532 C533.522777,985.201262 536.613222,972.103663 551.623953,972.103663 C562.661255,972.103663 576.200836,993.883939 580.027101,993.883939 C583.559038,993.883939 575.023524,987.408722 575.023524,980.638686 C575.023524,976.223765 578.849298,972.103663 584.442022,972.103663 C590.034255,972.103663 594.007684,977.10675 594.007684,985.348426 C594.007684,1003.89109 562.955583,1012.57377 562.955583,1039.06379" id="Fill-687" fill="#D8117D"></path>
                <path d="M607.250925,1010.80775 C610.489025,1006.54 616.228422,1002.8609 626.529904,1002.8609 C643.748095,1002.8609 659.200318,1009.77761 659.200318,1028.76226 C659.200318,1044.06731 649.487983,1056.13526 624.322443,1056.13526 C608.281564,1056.13526 598.126756,1048.62989 598.126756,1033.76583 C598.126756,1023.75819 603.719479,1017.13581 612.843158,1017.13581 C618.72972,1017.13581 621.526327,1020.81491 621.526327,1025.08315 C621.526327,1030.96972 616.817078,1033.32434 610.930517,1033.32434 C605.19112,1033.32434 602.100184,1032.58852 602.100184,1038.18075 C602.100184,1046.27477 610.194697,1053.19197 620.349014,1053.19197 C632.710793,1053.19197 638.597354,1042.44851 638.597354,1026.84912 C638.597354,1016.69431 634.329597,1006.24567 621.673,1006.24567 C610.341861,1006.24567 609.311222,1015.07551 605.484957,1015.07551 C604.013317,1015.07551 604.307645,1013.30954 604.307645,1011.39641 L604.307645,976.960027 C604.307645,975.929388 604.455299,974.604912 605.632121,974.604912 C606.809924,974.604912 607.250925,975.488387 607.250925,976.960027 L607.250925,984.465393 C607.250925,984.465393 608.87022,972.69178 621.526327,972.69178 C630.209004,972.69178 636.389894,977.401029 643.306603,977.401029 C647.869178,977.401029 652.577937,976.224207 652.577937,974.16342 C652.577937,972.69178 653.460921,972.250288 654.196741,972.250288 C655.079725,972.250288 655.521217,973.133272 655.521217,975.046895 C655.521217,986.525689 653.460921,996.974335 641.393961,996.974335 C629.620348,996.974335 622.850803,986.084197 613.137977,986.084197 C609.458876,986.084197 607.250925,987.850165 607.250925,993.295234 L607.250925,1010.80775 Z" id="Fill-689" fill="#D8117D"></path>
                <path d="M234.415226,817.969015 C243.922022,806.784548 251.005517,791.871927 251.005517,777.33163 C251.005517,763.164149 248.955522,744.336965 239.261828,744.336965 C233.669595,744.336965 231.432702,760.554931 231.432702,777.33163 C231.432702,791.685029 231.619109,806.784548 234.415226,817.969015 M183.525414,717.12094 C188.372016,718.985508 191.913764,720.290363 193.964249,720.290363 C199.556483,720.290363 201.979784,716.002984 201.979784,712.647644 C201.979784,709.105406 199.556483,706.309289 194.896288,706.309289 C191.540948,706.309289 187.25357,710.223852 183.525414,717.12094 M250.073478,840.338437 C241.871537,840.338437 233.669595,837.728238 226.399692,832.695719 C219.129789,837.355913 210.182216,840.338437 199.74289,840.338437 C160.41036,840.338437 140.091914,805.293286 140.091914,768.570465 C140.091914,743.03211 148.853079,725.136965 160.596768,714.325314 C155.377351,713.206867 149.59871,712.460746 143.633661,712.460746 C126.297248,712.460746 103.741908,719.544241 103.741908,740.608809 C103.741908,751.980174 110.079772,751.047644 116.604044,751.047644 C124.805986,751.047644 134.49919,754.030169 134.49919,764.283087 C134.49919,770.620951 129.093365,775.281145 120.891423,775.281145 C110.079772,775.281145 98.8948156,763.164149 98.8948156,745.082596 C98.8948156,718.7991 119.959384,707.986959 143.074438,707.986959 C150.903564,707.986959 158.173467,709.291814 164.884147,710.969484 C173.086579,705.004435 182.22056,702.021911 190.981725,702.021911 C201.42056,702.021911 206.267162,706.495697 206.267162,713.206867 C206.267162,721.221911 200.302114,724.764149 193.964249,724.764149 C191.168133,724.764149 186.880754,723.085989 181.474929,721.035503 C175.882696,732.593275 171.408909,749.929198 171.408909,769.129198 C171.408909,795.040859 180.915215,835.491835 205.707939,835.491835 C210.740949,835.491835 216.52008,833.254452 222.112313,829.340379 C210.368133,818.901053 201.979784,801.192315 201.979784,777.33163 C201.979784,751.234052 216.705997,738.744732 233.296779,738.744732 C256.039018,738.744732 256.225425,762.605417 255.85261,777.33163 C255.85261,789.820951 250.073478,810.139888 236.652119,824.306879 C239.634643,831.203966 244.667653,835.491835 252.310372,835.491835 C277.848727,835.491835 290.15213,793.736005 290.15213,769.316096 C289.965722,740.795217 279.339989,730.169974 261.258435,730.169974 C250.81911,730.169974 243.549207,725.695697 243.549207,716.561717 C243.549207,708.73259 248.395809,704.445212 256.225425,704.445212 C276.357464,704.445212 295.743872,726.255411 295.743872,766.706388 C295.743872,796.159306 281.949698,840.338437 250.073478,840.338437" id="Fill-779" fill="#D8117D"></path>
                <path d="M335.259229,829.153824 C341.783501,829.153824 344.020394,812.935858 344.020394,813.122265 L344.020394,794.29459 C344.020394,792.431003 342.156316,780.12809 336.377676,780.12809 C330.226219,780.12809 329.107282,798.023236 329.107282,809.766926 C329.107282,818.714989 331.344666,829.153824 335.259229,829.153824 M344.766025,785.16061 C344.766025,779.009153 363.220394,773.41692 369.185934,773.41692 C372.541273,773.41692 371.98205,776.399444 371.98205,776.399444 L371.98205,811.817411 C371.98205,830.085372 371.98205,831.763042 374.964574,831.763042 C378.506322,831.763042 379.438361,823.375183 379.438361,818.341683 C379.438361,817.78246 379.811176,816.291198 381.116031,816.291198 C382.420885,816.291198 382.980108,817.410135 382.980108,818.341683 C382.980108,825.425178 382.420885,840.151883 363.966516,840.151883 C352.222827,840.151883 344.952433,833.440712 344.952433,822.256246 C344.952433,824.120324 339.3602,839.033436 323.329132,839.033436 C308.602428,839.033436 299.282039,827.662562 299.282039,808.275663 C299.282039,787.397993 308.975243,773.41692 327.243695,773.41692 C340.478647,773.41692 344.766025,783.48294 344.766025,785.16061" id="Fill-781" fill="#D8117D"></path>
                <path d="M406.464937,840.524551 C397.703771,838.846881 389.687747,834.000279 389.687747,827.475516 L389.687747,786.465807 L381.485805,786.465807 C381.112989,786.2794 377.944057,786.465807 377.944057,784.415322 C377.944057,782.364346 380.926582,782.364346 381.299397,782.550754 C381.299397,782.364346 383.722698,782.364346 384.281921,782.550754 C391.365907,782.550754 409.074645,771.739103 414.853286,771.739103 C418.208626,771.552695 417.649403,774.53571 417.649403,774.721627 L417.649403,789.075516 C417.649403,782.550754 423.800859,770.620656 438.340665,770.620656 C448.03436,770.620656 454.745039,778.823089 454.745039,786.465807 C454.745039,794.667749 449.339214,802.12455 440.950864,802.12455 C433.308146,802.12455 430.512029,796.718235 430.512029,789.075516 C430.512029,782.550754 430.139214,777.518234 428.275136,777.518234 C425.665427,777.518234 417.649403,788.70221 417.649403,809.953677 L417.649403,834.74591 C417.649403,841.084265 414.107655,842.015813 406.464937,840.524551" id="Fill-783" fill="#D8117D"></path>
                <path d="M504.329506,813.122462 L504.329506,794.294786 C504.329506,792.430709 502.464938,780.127796 496.686297,780.127796 C490.53484,780.127796 489.416884,798.023432 489.416884,809.767122 C489.416884,818.714695 491.653287,829.15402 495.568341,829.15402 C502.092122,829.15402 504.329506,812.936054 504.329506,813.122462 M524.275137,840.152079 C511.226593,840.152079 505.261054,832.50936 505.261054,822.070035 C505.261054,823.374889 502.092122,838.660817 483.265428,838.660817 C469.284355,838.660817 459.591151,827.289452 459.591151,807.902554 C459.591151,787.024883 469.284355,773.230709 486.806685,773.230709 C503.769792,773.230709 504.888729,783.669544 504.888729,783.296728 L504.888729,713.579241 L496.686297,713.579241 C496.313481,713.579241 493.144549,713.765649 493.144549,711.528756 C493.144549,709.665169 496.127073,709.665169 496.499889,709.665169 L499.482413,709.665169 C506.566399,709.665169 524.275137,698.853028 530.053778,698.853028 C533.409118,698.853028 532.850385,701.835552 532.850385,701.835552 L532.850385,812.004015 C532.850385,830.271976 532.850385,832.50936 535.273195,832.50936 C539.746982,832.50936 540.306696,821.510811 540.306696,818.341879 C540.306696,817.782656 540.679511,816.291394 541.984366,816.291394 C543.28922,816.291394 543.848443,817.40984 543.848443,818.341879 C543.848443,825.425374 543.28922,840.152079 524.275137,840.152079" id="Fill-785" fill="#D8117D"></path>
                <path d="M609.088072,758.317744 C609.088072,770.434249 610.020111,780.500759 620.086621,780.500759 C630.15215,780.500759 630.524966,770.434249 630.524966,758.317744 C630.524966,748.065316 630.15215,737.253666 620.086621,737.253666 C609.647295,737.253666 609.088072,748.065316 609.088072,758.317744 M606.105548,811.258531 C606.105548,826.730376 607.969625,837.355619 619.899723,837.355619 C632.016718,837.355619 633.135165,826.730376 633.135165,811.258531 C633.135165,798.209497 631.82982,784.228914 619.899723,784.228914 C607.783218,784.228914 606.105548,798.209497 606.105548,811.258531 M613.189043,781.805613 C613.189043,781.059491 612.070596,780.873084 611.325456,780.873084 C596.412344,780.873084 583.922533,770.620656 583.922533,758.876967 C583.922533,743.963855 602.750208,733.52551 620.086621,733.52551 C636.676912,733.52551 655.690505,743.963855 655.690505,758.876967 C655.690505,770.807064 643.760408,780.873084 628.847296,780.873084 C628.102155,780.873084 626.983218,781.059491 626.983218,781.805613 C626.983218,782.737161 627.915747,782.737161 628.847296,782.737161 C648.979825,782.737161 661.282738,796.345419 661.282738,811.258531 C661.282738,826.916784 649.539049,840.897857 619.713315,840.897857 C589.887581,840.897857 578.143892,826.916784 578.143892,811.258531 C578.143892,796.159502 591.192926,782.737161 611.325456,782.737161 C612.257004,782.737161 613.189043,782.550754 613.189043,781.805613" id="Fill-787" fill="#D8117D"></path>
                <path d="M167.910968,906.916278 L598.992178,906.916278" id="Stroke-855" stroke="#D8117D" stroke-width="6" stroke-linecap="round" stroke-linejoin="round" stroke-dasharray="1,15"></path>
                <path d="M167.420176,1116.9218 L598.500896,1116.9218" id="Stroke-857" stroke="#D8117D" stroke-width="6" stroke-linecap="round" stroke-linejoin="round" stroke-dasharray="1,15"></path>
                <path d="M48.9744226,988.896256 C48.9744226,991.051719 47.2270951,992.799046 45.0721231,992.799046 C42.9166607,992.799046 41.1693331,991.051719 41.1693331,988.896256 C41.1693331,986.740794 42.9166607,984.993466 45.0721231,984.993466 C47.2270951,984.993466 48.9744226,986.740794 48.9744226,988.896256 Z" id="Stroke-935" stroke="#F9DCE4" stroke-width="5"></path>
                <path d="M94.5449903,813.357434 C94.5449903,815.512896 92.7976627,817.259733 90.6422003,817.259733 C88.4872284,817.259733 86.7399008,815.512896 86.7399008,813.357434 C86.7399008,811.201971 88.4872284,809.454644 90.6422003,809.454644 C92.7976627,809.454644 94.5449903,811.201971 94.5449903,813.357434 Z" id="Stroke-957" stroke="#F9DCE4" stroke-width="5"></path>
                <path d="M48.1298483,851.066057 C48.1298483,853.22152 46.3825207,854.968847 44.2270582,854.968847 C42.0720863,854.968847 40.3247587,853.22152 40.3247587,851.066057 C40.3247587,848.910595 42.0720863,847.163758 44.2270582,847.163758 C46.3825207,847.163758 48.1298483,848.910595 48.1298483,851.066057 Z" id="Stroke-959" stroke="#F9DCE4" stroke-width="5"></path>
                <path d="M75.1942451,932.045811 C75.1942451,947.958657 62.2948275,960.858565 46.3824716,960.858565 C30.4701158,960.858565 17.5706982,947.958657 17.5706982,932.045811 C17.5706982,916.133455 30.4701158,903.233547 46.3824716,903.233547 C62.2948275,903.233547 75.1942451,916.133455 75.1942451,932.045811 Z" id="Stroke-969" stroke="#F9DCE4" stroke-width="10"></path>
                <path d="M681.620463,922.754855 C681.620463,931.840272 674.254904,939.205831 665.169487,939.205831 C656.084071,939.205831 648.719002,931.840272 648.719002,922.754855 C648.719002,913.669439 656.084071,906.303879 665.169487,906.303879 C674.254904,906.303879 681.620463,913.669439 681.620463,922.754855 Z" id="Stroke-979" stroke="#F9DCE4" stroke-width="10"></path>
                <path d="M109.411353,1082.56052 C109.411353,1086.91805 105.879417,1090.44998 101.52238,1090.44998 C97.1653439,1090.44998 93.6334073,1086.91805 93.6334073,1082.56052 C93.6334073,1078.20348 97.1653439,1074.67155 101.52238,1074.67155 C105.879417,1074.67155 109.411353,1078.20348 109.411353,1082.56052 Z" id="Stroke-1003" stroke="#F9DCE4" stroke-width="10"></path>
                <path d="M35.5567423,1067.53419 C35.5567423,1076.61961 28.1916733,1083.98467 19.1062567,1083.98467 C10.0203496,1083.98467 2.65528056,1076.61961 2.65528056,1067.53419 C2.65528056,1058.44877 10.0203496,1051.08321 19.1062567,1051.08321 C28.1916733,1051.08321 35.5567423,1058.44877 35.5567423,1067.53419 Z" id="Stroke-1549" stroke="#F9DCE4" stroke-width="10"></path>
            </g>
        </g>
    </g>
</svg>