<?xml version="1.0" encoding="UTF-8" standalone="no"?>
<svg width="21px" height="21px" viewBox="0 0 21 21" version="1.1" xmlns="http://www.w3.org/2000/svg" xmlns:xlink="http://www.w3.org/1999/xlink">
    <!-- Generator: Sketch 41.2 (35397) - http://www.bohemiancoding.com/sketch -->
    <title>Instagram</title>
    <desc>Created with Sketch.</desc>
    <defs></defs>
    <g id="Page-4" stroke="none" stroke-width="1" fill="none" fill-rule="evenodd">
        <g id="Profile-Mobile" transform="translate(-106.000000, -548.000000)" fill="#777777">
            <path d="M124.063238,548 L108.436762,548 C107.090895,548 106,549.0881 106,550.43117 L106,566.06883 C106,567.411341 107.090895,568.5 108.436762,568.5 L124.063238,568.5 C125.409105,568.5 126.5,567.411341 126.5,566.06883 L126.5,550.43117 C126.5,549.0881 125.409105,548 124.063238,548 L124.063238,548 Z M120.734637,551.38214 C120.734637,550.929766 121.101833,550.56257 121.554208,550.56257 L124.014351,550.56257 C124.467441,550.56257 124.834637,550.929766 124.834637,551.38214 L124.834637,553.842999 C124.834637,554.295374 124.467441,554.66257 124.014351,554.66257 L121.554208,554.66257 C121.101833,554.66257 120.734637,554.295374 120.734637,553.842999 L120.734637,551.38214 L120.734637,551.38214 Z M116.273764,554.340725 C118.451081,554.340725 120.216308,556.102037 120.216308,558.273764 C120.216308,560.446049 118.451081,562.206802 116.273764,562.206802 C114.097005,562.206802 112.331779,560.446049 112.331779,558.273764 C112.331779,556.102037 114.097005,554.340725 116.273764,554.340725 L116.273764,554.340725 Z M124.578212,565.93743 C124.578212,566.290811 124.29137,566.578212 123.93743,566.578212 L108.56257,566.578212 C108.20863,566.578212 107.921788,566.290811 107.921788,565.93743 L107.921788,556.327933 L110.484358,556.327933 C110.150547,556.80824 110.037599,557.704552 110.037599,558.273764 C110.037599,561.70413 112.83557,564.49539 116.273764,564.49539 C119.712517,564.49539 122.510487,561.70413 122.510487,558.273764 C122.510487,557.704552 122.429411,556.822219 122.015642,556.327933 L124.578212,556.327933 L124.578212,565.93743 L124.578212,565.93743 Z" id="Instagram"></path>
        </g>
    </g>
</svg>