<?xml version="1.0" encoding="UTF-8" standalone="no"?>
<svg width="21px" height="19px" viewBox="0 0 21 19" version="1.1" xmlns="http://www.w3.org/2000/svg" xmlns:xlink="http://www.w3.org/1999/xlink">
    <!-- Generator: Sketch 41.2 (35397) - http://www.bohemiancoding.com/sketch -->
    <title>linkedin</title>
    <desc>Created with Sketch.</desc>
    <defs></defs>
    <g id="Page-4" stroke="none" stroke-width="1" fill="none" fill-rule="evenodd">
        <g id="Profile-Mobile" transform="translate(-234.000000, -550.000000)" fill="#777777">
            <path d="M234.516807,555.976064 L238.616807,555.976064 L238.616807,568.636162 L234.516807,568.636162 L234.516807,555.976064 Z M249.429181,555.854364 C247.140228,555.854364 245.70595,557.094145 245.440878,557.963269 L245.440878,555.976064 L240.95244,555.976064 C241.010233,557.03135 240.95244,568.636162 240.95244,568.636162 L245.440878,568.636162 L245.440878,561.785416 C245.440878,561.404757 245.423096,561.024099 245.538683,560.750691 C245.847099,559.989374 246.510057,559.199715 247.702047,559.199715 C249.260802,559.199715 249.969328,560.370033 249.969328,562.084942 L249.969328,568.636162 L254.5,568.636162 L254.5,561.597032 C254.5,557.675413 252.26884,555.854364 249.429181,555.854364 Z M236.440661,550 C234.965262,550 234,550.947479 234,552.197818 C234,553.424817 234.938032,554.392857 236.383979,554.392857 L236.412876,554.392857 C237.91495,554.392857 238.850203,553.421483 238.850203,552.194484 C238.821307,550.945256 237.91495,550 236.440661,550 Z" id="linkedin"></path>
        </g>
    </g>
</svg>