<?xml version="1.0" encoding="UTF-8" standalone="no"?>
<svg width="885px" height="978px" viewBox="0 0 885 978" version="1.1" xmlns="http://www.w3.org/2000/svg" xmlns:xlink="http://www.w3.org/1999/xlink">
    <!-- Generator: Sketch 42 (36781) - http://www.bohemiancoding.com/sketch -->
    <title>logo</title>
    <desc>Created with Sketch.</desc>
    <defs>
        <polygon id="path-1" points="0 0.163099726 0 688.510546 884.574535 688.510546 884.574535 0.163099726 5.32344881e-19 0.163099726"></polygon>
    </defs>
    <g id="Page-1" stroke="none" stroke-width="1" fill="none" fill-rule="evenodd">
        <g id="logo">
            <path d="M239,272.189468 C255.10172,256.074312 267.753072,256.074312 267.753072,243.412403 L267.753072,242.26132 C267.753072,225.004919 245.900737,213.494093 213.697297,213.494093 C175.753072,213.494093 147,238.817911 147,273.340551 C147,314.779525 176.893365,347 219.447911,347 C278.094348,347 312.598034,312.47736 341.341276,225.004919 C367.794102,143.278053 370.094348,137.532479 386.196068,122.568404 C394.246928,115.661909 403.447911,111.057578 411.498771,111.057578 C416.099263,111.057578 419.539801,112.208661 423,115.661909 C423,106.453248 419.539801,103 412.639064,103 C405.748157,103 394.246928,109.906496 382.745699,120.266239 C363.19361,136.371558 349.392136,157.091045 310.297788,226.146163 C274.653809,289.445869 245.900737,313.618604 206.796559,313.618604 C178.053318,313.618604 151.600492,294.0502 151.600492,272.189468 C151.600492,242.26132 178.053318,218.098423 211.397051,218.098423 C228.648894,218.098423 242.440539,233.052659 242.440539,253.772146 C242.440539,258.386315 240.150123,265.282972 237.849877,271.038386 L239,272.189468 Z" id="Fill-1" fill="#000000" fill-rule="nonzero"></path>
            <path d="M441.498241,292.278689 C417.30792,356.714754 395.421438,382.022951 362.025601,382.022951 C350.5064,382.022951 342.44296,375.127869 342.44296,364.760656 C342.44296,347.508197 352.81024,336 386.206077,314.134426 C432.873609,284.744262 437.560053,281.242623 448.242389,272.960656 C446.007467,279.393443 443.841463,285.836066 441.498241,292.278689 M571.655365,240.491803 C564.743845,240.491803 558.974399,235.888525 558.974399,228.983607 C558.974399,210.895082 577.946621,193.603279 613.183561,179.045902 C605.671467,210.334426 586.935536,240.491803 571.655365,240.491803 M716.767759,100.111475 C722.537205,100.111475 724.8312,104.714754 724.8312,112.780328 C724.8312,128.881967 716.767759,144.993443 707.552399,149.596721 C701.09377,152.17377 689.801015,154.081967 675.721992,157.042623 C681.018855,127.160656 699.282203,100.111475 716.767759,100.111475 M211.143761,192.167213 C261.828245,192.167213 298.679842,168 298.679842,133.485246 C298.679842,109.318033 273.347446,92.0557377 237.637923,92.0557377 C206.536081,92.0557377 173.130398,111.619672 173.130398,130.022951 C173.130398,139.229508 184.649599,140.390164 190.4092,150.747541 L191.56112,150.747541 L191.56112,146.144262 C191.56112,118.52459 212.295681,95.5081967 237.637923,95.5081967 C269.88184,95.5081967 292.920242,111.619672 292.920242,133.485246 C292.920242,164.557377 258.362639,188.714754 211.143761,188.714754 C163.924883,188.714754 131.671121,158.793443 131.671121,117.37377 C131.671121,74.8032787 170.826558,44.8721311 226.118722,44.8721311 C318.262483,44.8721311 385.054157,98.9606557 461.080883,98.9606557 C473.240039,98.9606557 482.662155,96.7868852 489.268466,92.8032787 C483.548247,100.908197 471.556464,111.245902 451.865522,125.429508 C400.029118,162.245902 370.089042,200.222951 370.089042,230.134426 C370.089042,248.557377 381.608243,261.206557 397.725278,261.206557 C442.650161,261.206557 471.438318,199.072131 480.653679,184.111475 C476.045998,193.318033 471.438318,204.82623 467.992403,216.32459 C461.996512,232.8 456.41413,249.265574 450.762829,265.721311 C433.907383,278.114754 416.658119,289.386885 383.912083,308.380328 C340.148965,337.15082 326.325924,354.413115 326.325924,382.022951 C326.325924,403.888525 341.29104,420 363.177521,420 C404.636799,420 432.282881,386.62623 447.257842,315.285246 C451.205876,295.75082 454.976691,279.157377 458.658897,264.580328 C487.909791,240.540984 512.454549,209.183607 533.553393,168.363934 C512.415168,224.537705 479.511604,298.072131 479.511604,337.15082 C479.511604,353.262295 499.0844,353.262295 509.451681,377.429508 L511.755521,376.278689 C538.249683,203.67541 570.4936,124.278689 603.899282,124.278689 C611.962723,124.278689 616.570403,135.786885 616.570403,153.04918 C616.570403,160.347541 615.615392,168.068852 613.971199,175.790164 C574.372715,191.940984 555.518639,209.980328 555.518639,231.285246 C555.518639,243.954098 563.582079,252.009836 577.40512,252.009836 C609.717955,252.009836 635.345716,217.091803 639.943551,169.534426 C646.648316,167.439344 652.9888,165.767213 659.102837,164.340984 C656.257496,174.570492 654.583766,185.154098 654.583766,195.619672 C654.583766,226.691803 671.852722,246.255738 698.346883,246.255738 C751.325362,246.255738 802,174.904918 802,102.413115 C802,52.9377049 774.363763,29.9311475 717.929525,29.9311475 C678.764242,29.9311475 643.054719,43.7311475 596.987762,43.7311475 C565.885919,43.7311475 549.768884,37.9770492 549.768884,27.6295082 C549.768884,20.7245902 558.974399,14.9704918 570.4936,14.9704918 C569.351525,11.5081967 565.885919,9.20655738 563.582079,9.20655738 C553.214798,9.20655738 545.161203,19.5639344 545.161203,36.8262295 C545.161203,62.1442623 565.885919,78.2557377 594.683921,78.2557377 C660.333521,78.2557377 697.194963,41.4295082 738.654241,41.4295082 C776.667604,41.4295082 797.39232,63.295082 797.39232,103.563934 C797.39232,164.557377 757.084962,218.636066 712.160079,218.636066 C687.969757,218.636066 674.156562,202.534426 674.156562,173.763934 C674.156562,169.495082 674.491308,165.196721 675.072191,160.927869 C698.583175,156.481967 716.649614,154.672131 728.28696,146.134426 C736.350401,140.390164 740.958081,132.334426 743.261921,117.383607 L743.261921,113.921311 C743.261921,101.262295 736.350401,93.2163934 724.8312,93.2163934 C698.48472,93.2163934 671.50813,124.022951 660.175993,160.593443 C653.855201,162.167213 647.170126,164.055738 640.24876,166.298361 C640.55397,162.334426 640.750879,158.311475 640.750879,154.2 C640.750879,132.334426 626.927838,115.081967 609.658883,115.081967 C572.127948,115.081967 537.590036,189 511.617684,332.95082 C515.349118,272.813115 529.201695,197.213115 545.062749,145.711475 C550.42853,135.885246 553.096653,131.07541 564.743845,105.865574 C561.278239,105.865574 554.376564,100.111475 550.920804,93.2065574 C536.477498,166.42623 505.838393,221.272131 460.303091,258.137705 C477.414519,192.82623 492.556853,173.193443 512.907441,138.078689 C506.005766,133.47541 503.701926,131.17377 501.398086,125.429508 C479.511604,191.016393 448.409762,233.586885 420.773525,233.586885 C409.254325,233.586885 403.494724,227.832787 403.494724,215.183607 C403.494724,192.157377 416.165845,170.301639 442.650161,144.983607 C495.540031,95.5967213 500.216629,89.7737705 500.23632,73.7311475 C500.23632,73.7016393 500.246166,73.6721311 500.246166,73.642623 C500.246166,67.8983607 496.78056,63.295082 491.030805,63.295082 C487.575045,63.295082 482.967364,65.5967213 479.511604,67.8983607 C488.726965,69.0393443 493.3248,74.7934426 493.334645,82.8393443 L493.3248,82.8491803 C493.3248,82.9967213 493.255881,83.1540984 493.246036,83.3016393 C492.80299,90 482.711382,95.5081967 471.448164,95.5081967 C382.750317,95.5081967 333.227599,0 227.270642,0 C165.066958,0 119,41.4295082 119,98.9606557 C119,155.35082 154.709523,192.167213 211.143761,192.167213" id="Fill-3" fill="#000000" fill-rule="nonzero"></path>
            <g id="Fill-5-Clipped" transform="translate(0.000000, 267.000000)">
                <mask id="mask-2" fill="white">
                    <use xlink:href="#path-1"></use>
                </mask>
                <g id="path-1"></g>
                <path d="M608.867379,550.835123 C608.867379,563.562337 598.526887,577.44657 578.994848,577.44657 C572.101187,577.44657 561.770516,570.504453 559.472629,557.787129 C576.4711,556.254325 593.01785,552.585486 608.602238,547.195951 C608.690618,548.412305 608.867379,549.697882 608.867379,550.835123 M507.770172,447.870283 C514.663833,447.870283 518.120483,454.8124 518.120483,464.068555 C518.120483,506.176151 479.144785,520.554837 458.925344,524.273122 C465.092323,480.55361 486.853509,447.870283 507.770172,447.870283 M364.171876,390.03909 C364.171876,371.51689 368.75783,361.113604 376.810255,361.113604 C386.001803,361.113604 398.640181,385.411012 398.640181,465.225575 C398.640181,476.528764 397.766198,488.50441 396.106613,500.519612 C375.887172,477.359445 364.171876,439.11847 364.171876,390.03909 M103.941087,371.694893 C112.896954,370.102755 122.628604,369.202851 133.253876,369.202851 C150.753169,369.202851 164.727072,373.959487 175.499644,381.287276 C167.034779,385.341789 157.51917,387.725051 147.041198,387.725051 C127.518979,387.725051 113.260295,382.108068 103.941087,371.694893 M241.244744,121.64025 C265.372557,121.64025 275.713048,132.053425 275.713048,148.251697 C275.713048,200.307682 203.339429,251.206648 140.147537,251.206648 C129.394604,251.206648 119.476374,250.197964 110.304467,248.437713 C139.872576,181.716259 197.20191,121.64025 241.244744,121.64025 M791.519932,319.460905 C783.536248,319.460905 777.811171,312.597901 777.752251,304.558099 C784.685192,303.104408 791.598493,302.115503 798.413593,302.115503 C806.701699,302.115503 814.479162,303.430747 821.392463,306.239239 C811.091252,314.516378 800.73112,319.460905 791.519932,319.460905 M747.8699,163.283061 C747.8699,156.350833 749.009024,152.869886 751.306911,152.869886 C753.604797,152.869886 754.763561,156.350833 754.763561,164.44008 C754.763561,169.641723 754.36094,174.784032 753.781558,179.896673 C749.745526,176.435504 747.8699,170.808631 747.8699,163.283061 M686.985715,176.010274 C692.720613,176.010274 695.0185,180.628463 695.0185,188.737488 C695.0185,202.611832 689.283602,214.182026 682.389942,221.124143 C677.391546,226.167561 668.082158,233.643686 646.271872,241.34726 C649.777623,207.951922 668.347299,176.010274 686.985715,176.010274 M539.930769,317.146866 C535.334996,317.146866 530.749042,313.675808 530.749042,306.733691 C530.749042,292.335227 549.299078,277.936763 578.611867,266.25779 C568.948957,294.19437 553.551151,317.146866 539.930769,317.146866 M415.864513,300.958483 C402.077191,300.958483 392.885644,292.849458 392.885644,273.180128 C392.885644,243.503074 406.761346,218.869438 419.419364,206.053223 C420.499567,236.4324 442.683015,243.107512 458.365602,243.107512 C460.084107,243.107512 461.832073,242.899842 463.609498,242.583392 C451.462121,273.36802 433.295066,300.958483 415.864513,300.958483 M461.812433,156.350833 C472.152924,156.350833 477.897641,170.225177 477.897641,180.628463 C477.897641,195.343377 473.400068,215.863166 466.221626,235.7995 C465.131603,235.928058 464.061219,236.165395 462.961376,236.165395 C441.13145,236.165395 434.237789,221.124143 434.237789,196.836624 C434.237789,181.795371 442.280393,156.350833 461.812433,156.350833 M292.9472,319.460905 C280.308822,319.460905 271.117274,310.20475 271.117274,288.221381 C271.117274,261.115481 281.379205,236.026949 298.024156,219.858344 C296.21727,226.573012 295.235267,233.386571 295.235267,239.646343 C295.235267,273.190017 315.91625,278.975114 329.713392,278.975114 C330.498994,278.975114 331.284597,278.767444 332.070199,278.70811 C322.161789,301.324378 308.413747,319.460905 292.9472,319.460905 M334.309166,185.26643 C345.788781,185.26643 348.086668,199.150663 348.086668,210.720857 C348.086668,226.958685 343.107913,250.751751 334.809987,271.973663 C319.10776,271.657214 309.022589,260.07713 309.022589,232.704226 C309.022589,225.386326 310.839295,216.466398 313.863864,208.327706 C318.842619,205.726884 324.125795,203.739184 329.713392,202.611832 L328.554628,200.297793 C324.400756,200.85158 320.197783,201.880042 316.00463,203.135952 C320.639684,193.059005 327.160184,185.26643 334.309166,185.26643 M616.909983,97.3428425 C612.314209,97.3428425 608.867379,95.0288036 608.867379,88.086687 C608.867379,68.4173568 632.995192,40.6587796 650.219524,40.6587796 C659.195031,40.6587796 659.509272,50.2313848 657.938067,56.5504909 C656.985524,58.6667486 656.062442,60.7533392 655.168819,62.8498189 C643.699024,84.0123964 627.024614,97.3428425 616.909983,97.3428425 M836.368008,309.008174 C865.680797,273.516356 884.574535,218.95844 884.574535,185.256541 C884.574535,134.367464 860.446722,91.5577453 794.966763,91.5577453 C716.848426,91.5577453 641.027976,138.985653 601.973718,138.985653 C580.143791,138.985653 558.313865,128.572478 558.313865,103.12794 C558.313865,42.9629294 619.19805,5.94819686 658.262128,5.94819686 C690.422726,5.94819686 711.103709,19.83243 711.103709,42.9629294 C711.103709,67.2603374 689.283602,98.4998619 668.60262,98.4998619 C662.857902,98.4998619 660.560015,93.8717842 660.560015,88.086687 C660.560015,74.2024539 680.092055,45.2769683 682.389942,42.9629294 C678.943111,44.1298379 672.04945,39.5017602 668.60262,33.706774 C667.041235,37.118498 665.106689,41.1631214 663.083763,45.4450822 C661.875899,40.4609985 657.977347,36.0307019 647.921637,36.0307019 C618.058926,36.0307019 590.484283,61.4851293 590.484283,89.2437065 C590.484283,97.3428425 596.229,106.598998 608.867379,106.598998 C621.672697,106.598998 637.001764,94.4453494 648.76616,81.0852362 C648.265338,83.2707173 647.921637,85.2781954 647.921637,86.9296676 C647.921637,97.3329534 653.666354,103.12794 665.155789,103.12794 C686.985715,103.12794 724.89103,77.6735122 724.89103,40.6488906 C724.89103,15.2043523 696.177263,0.163099726 666.294913,0.163099726 C600.814954,0.163099726 553.718091,53.3761043 553.718091,103.12794 C553.718091,132.053425 573.250131,155.183925 611.165266,155.183925 C669.751563,155.183925 738.678352,103.12794 793.817819,103.12794 C845.520276,103.12794 879.978761,132.053425 879.978761,185.256541 C879.978761,228.590379 853.592341,277.580757 825.536516,302.659401 C817.719772,299.336678 808.724625,297.487425 798.413593,297.487425 C791.745793,297.487425 784.950333,298.337884 778.105772,299.593794 C781.660623,274.505261 809.903028,232.98112 809.903028,202.611832 C809.903028,189.894507 801.860424,194.522585 759.359335,182.942502 C758.809413,182.784277 758.446072,182.43816 757.935431,182.23049 C758.779953,176.148721 759.359335,170.155954 759.359335,164.44008 C759.359335,155.183925 757.061448,145.927769 750.167787,145.927769 C738.678352,145.927769 731.784691,160.969022 731.784691,169.068158 C731.784691,176.564061 736.861647,180.104343 753.074516,185.187317 C744.354329,242.682283 701.82378,291.702328 672.04945,291.702328 C654.815298,291.702328 645.62375,277.808206 645.62375,252.363667 C645.62375,250.079296 645.71213,247.785035 645.859431,245.480885 C671.85305,236.521401 687.398157,227.097132 698.47515,217.662974 C707.656878,210.720857 713.411416,197.993643 713.411416,189.894507 C713.411416,177.167294 706.507935,169.068158 695.0185,169.068158 C666.825194,169.068158 638.661349,205.479658 629.342141,246.608237 C625.129348,247.765257 620.661234,248.912387 615.761039,250.049629 C612.913231,250.741862 610.124342,251.463763 607.364914,252.215332 C609.063779,242.435056 610.006502,232.03177 610.006502,221.124143 C610.006502,199.150663 598.517067,181.795371 583.590622,181.795371 C548.650956,181.795371 510.647441,256.121508 493.148148,392.600355 C494.738992,331.367327 508.840555,252.215332 526.143448,193.365566 C530.739222,181.795371 538.781826,171.382197 545.675487,164.44008 C536.483939,160.978911 531.897985,155.183925 528.441335,148.241808 C528.785036,153.206114 527.508432,160.3559 525.318565,168.850599 C518.238324,184.376415 497.586801,225.950002 472.025264,234.484256 C478.044942,214.033691 481.344472,194.15669 481.344472,179.481333 C481.344472,160.969022 473.301867,148.241808 458.365602,148.241808 C435.710793,148.241808 421.177149,176.801399 419.488104,199.457224 C404.95446,207.586027 386.571364,223.962302 374.502548,244.571092 C365.733261,255.488609 353.418944,269.006947 339.611982,271.429765 C347.310885,248.754162 351.533498,225.712664 351.533498,209.553949 C351.533498,193.365566 346.937724,179.481333 334.309166,179.481333 C320.187963,179.481333 308.688708,192.594219 301.903068,208.59471 C267.346383,225.198434 236.64897,263.152626 236.64897,305.586561 C236.64897,331.031099 251.585235,348.386391 272.266218,348.386391 C301.029085,348.386391 323.585693,314.664713 337.176615,278.124655 C347.703686,275.869951 357.916517,269.204728 366.617064,261.194593 C363.641595,269.471732 361.864169,278.164212 361.864169,287.07425 C361.864169,311.361769 372.214481,328.71706 397.481417,328.71706 C430.054456,328.71706 456.126635,284.46354 470.110358,240.72425 C487.953352,234.068916 506.896189,214.063358 517.914263,193.00956 C499.933788,245.836891 465.259263,326.205241 465.259263,378.459007 C465.259263,394.657279 481.344472,395.824187 491.684963,418.954687 L493.98285,417.797667 L493.98285,417.797667 L493.98285,417.797667 C511.217002,266.238011 551.420204,191.051527 577.845904,191.051527 C584.739565,191.051527 588.186396,201.464702 588.186396,214.182026 C588.186396,229.035387 585.132367,245.579776 580.291092,261.01659 C546.77533,274.010809 524.994504,291.534214 524.994504,309.04773 C524.994504,321.774944 531.888165,328.71706 545.685307,328.71706 C573.937533,328.71706 597.790385,299.544348 606.461471,256.892855 C609.132519,256.131397 611.833028,255.389718 614.602276,254.677706 C619.531931,253.441574 624.078605,252.175775 628.497618,250.909976 C626.995154,258.672884 626.101531,266.544572 626.101531,274.347037 C626.101531,302.105614 638.730089,319.460905 658.262128,319.460905 C699.123272,319.460905 747.153038,247.231248 757.316769,186.482784 C776.622947,191.051527 782.328385,191.071305 782.328385,195.679605 C782.328385,229.935291 743.244666,281.051816 742.223383,310.184972 C690.697687,330.19053 635.970661,366.898702 582.441678,366.898702 C572.091367,366.898702 562.909639,363.427643 553.718091,361.113604 L553.718091,362.270624 C561.760696,377.311876 581.282915,384.253993 598.517067,384.253993 C640.468234,382.562965 691.601129,339.634577 742.537624,316.543634 C744.54091,335.787735 757.58191,343.758313 776.593487,343.758313 C797.42177,343.758313 816.629749,331.436551 832.901538,313.092354 C843.46789,321.943058 850.11605,336.578859 850.11605,358.799566 C850.11605,394.004601 827.12736,444.409114 793.817819,457.136328 C784.626272,457.136328 763.945289,457.136328 773.136837,475.648639 C777.732611,468.706522 786.924159,462.921425 794.966763,462.921425 C805.827716,462.921425 809.903028,472.17758 809.903028,482.580866 C809.903028,506.878274 775.120483,554.31607 737.529409,554.31607 C723.742087,554.31607 712.252652,546.286158 712.252652,524.233565 C712.252652,501.933747 719.460554,464.533341 738.452492,424.413445 C754.115439,421.555508 775.680224,418.677793 780.040318,417.797667 C782.338205,416.640648 786.933979,407.394381 786.933979,407.394381 C781.562422,409.846867 762.285704,414.385943 741.2021,418.806351 C747.280698,406.593368 754.40022,394.202382 762.806165,381.939954 C761.647402,384.253993 735.231522,378.468896 734.082578,364.584663 C729.123463,387.072374 723.035045,406.336253 716.828786,423.701433 C696.756645,427.568053 679.276992,430.524881 675.496281,430.524881 L672.04945,439.781036 C672.04945,439.781036 697.787748,431.642344 715.149561,428.388845 C711.60453,438.080119 708.069319,447.178049 704.691229,455.870529 C686.259033,492.47981 661.699139,515.18508 637.217805,529.168204 C627.633455,499.293369 603.122661,480.86017 603.122661,459.450367 C603.122661,449.037192 620.356813,425.896803 639.888853,420.111706 C639.888853,410.855551 632.985372,408.541512 627.250474,408.541512 C618.903449,408.541512 606.333811,423.83988 600.068632,442.401636 C578.749347,481.097508 530.690121,579.760609 484.801122,579.760609 C468.715913,579.760609 458.365602,568.190414 457.226479,545.050026 C457.344319,539.373708 457.78622,533.835838 458.414702,528.426525 C501.740674,524.579682 538.791646,494.487288 538.791646,466.382594 C538.791646,450.184322 529.600098,442.095075 510.068059,442.095075 C481.648893,442.095075 445.098742,478.071457 429.916976,522.72054 C419.242603,519.664822 409.658254,513.978615 401.291589,505.998148 C403.304695,491.293123 404.384898,476.390318 404.384898,461.754516 C404.384898,396.971318 397.491237,348.386391 371.065537,348.386391 C353.841205,348.386391 343.500714,364.574774 343.500714,403.913434 C343.500714,450.530439 359.674303,492.707258 393.877467,514.097284 C384.744839,562.444874 362.855992,607.529075 332.011279,607.529075 C310.171533,607.529075 296.394031,586.702725 296.394031,546.207045 C296.394031,513.810501 302.138748,449.037192 312.47924,427.053823 C299.39896,427.053823 289.853891,419.96337 286.1321,408.116282 C286.505261,405.52535 286.868602,402.944307 287.192663,400.442376 L283.755653,399.295245 C275.703228,490.680002 229.755309,630.659574 188.403163,630.659574 C171.159191,630.659574 163.126407,623.727347 163.126407,599.429939 C163.126407,550.845012 209.074326,502.250196 209.074326,431.6819 C209.074326,413.347593 203.319789,399.087575 193.78454,388.535954 C212.972878,366.176801 225.159535,337.518319 225.159535,309.04773 C225.159535,287.064361 214.828864,272.032998 187.25422,272.032998 C161.977463,272.032998 129.816866,290.545308 129.816866,312.528678 C129.816866,322.931963 137.84965,320.617924 140.147537,337.973216 L141.306301,337.973216 C143.604188,297.487425 164.27535,276.661075 188.403163,276.661075 C209.084146,276.661075 218.265874,290.545308 218.265874,310.214639 C218.265874,336.222853 204.616033,363.88254 181.391662,378.073334 C168.223002,369.756638 151.411111,365.741682 133.253876,365.741682 C121.843002,365.741682 111.34539,366.770144 101.58428,368.510617 C94.4745785,358.908345 90.7527872,346.042685 90.7527872,329.87408 C90.7527872,305.586561 97.3616673,279.054227 108.19316,253.313017 C118.18013,254.915044 129.119644,255.844615 141.306301,255.844615 C206.786259,255.844615 280.308822,202.621721 280.308822,150.565736 C280.308822,126.268328 265.372557,115.845264 240.0958,115.845264 C179.054495,115.845264 114.360139,170.956967 75.0407396,235.463273 C52.5234113,221.915267 40.2090939,200.723023 40.2090939,176.010274 C40.2090939,128.582367 82.7200029,101.97092 125.221092,101.97092 C143.604188,101.97092 163.136227,107.756017 178.062672,119.326212 C157.381689,92.7147647 176.913729,78.8305316 130.965809,78.8305316 C71.230568,78.8305316 32.1664896,132.053425 32.1664896,176.010274 C32.1664896,204.322639 44.2745863,227.819033 71.2403881,241.831824 C50.6281455,277.491756 37.911207,315.505283 37.911207,348.386391 C37.911207,366.038354 40.5036948,380.525819 45.3449695,392.185015 C13.2334721,416.30442 -0.00392801191,451.994019 -0.00392801191,477.962677 C-0.00392801191,513.83028 28.7196591,538.117798 57.4334262,538.117798 C85.0080698,538.117798 88.4450802,513.83028 120.625318,489.532872 L120.625318,488.365963 C103.391166,497.622119 85.0080698,499.936157 71.220748,499.936157 C41.3482174,499.936157 20.6770547,486.051924 20.6770547,457.126439 C20.6770547,438.090008 28.9651598,415.414405 48.0356577,397.851443 C59.8393335,420.408378 81.4728591,430.524881 110.284826,430.524881 C140.049337,430.524881 168.114982,415.819856 189.080745,393.816709 C198.694555,405.713242 203.339429,420.111706 203.339429,432.83892 C203.339429,496.465099 104.530289,557.787129 104.530289,636.454561 C104.530289,676.940351 127.509159,688.510546 148.190141,688.510546 C200.36396,688.510546 240.03688,601.951648 264.184333,513.662166 C260.865163,533.727058 258.488716,553.435945 258.488716,570.504453 C258.488716,622.570328 273.424981,650.328905 307.883466,650.328905 C353.468044,650.328905 387.445347,587.671853 399.543624,517.291449 C408.15579,521.840414 417.818699,525.113691 428.522532,526.982723 C424.908761,538.810032 422.758174,551.151573 422.758174,563.572226 C422.758174,595.958881 437.694439,615.628211 460.673309,615.628211 C515.832416,615.628211 566.739451,510.171329 596.425401,459.598702 C596.30756,461.09195 596.229,462.585197 596.229,464.078444 C596.229,497.770454 605.450008,523.758891 608.111236,542.172311 C581.597156,551.023015 558.490626,551.398799 547.983194,550.835123 C547.983194,553.149162 547.983194,556.630109 552.578968,558.934259 C553.718091,583.231667 569.8033,601.743978 591.633226,601.743978 C627.250474,601.743978 641.027976,578.613478 641.027976,553.149162 C641.027976,546.236713 640.065613,539.917606 638.553329,533.994063 C660.638576,522.077751 679.385012,506.512379 692.700973,488.702191 C687.201756,505.731144 683.529065,522.295311 683.529065,540.431837 C683.529065,561.001072 693.879376,577.44657 719.146313,577.44657 C761.421541,577.44657 814.498802,536.960779 814.498802,482.580866 C814.498802,469.863541 808.754085,461.764405 801.860424,459.450367 C830.25013,446.357258 858.148835,405.080343 858.148835,362.270624 C858.148835,337.656766 850.381191,319.72791 836.368008,309.008174" id="Fill-5" fill="#000000" fill-rule="nonzero" mask="url(#mask-2)"></path>
            </g>
            <path d="M831,929.265246 C831,903.192636 788.340765,893 735.292706,893 C625.756645,894.123903 413.584121,972.34173 322.489702,972.34173 C294.812453,972.34173 264.838624,964.406588 257.919312,950.803488 C254.459656,951.93708 251,958.73863 251,962.139405 C251,972.34173 293.669091,978 308.660934,978 C415.752566,978 562.329617,931.532429 685.704303,931.532429 C742.212018,931.532429 792.943784,946.269121 825.233907,973.465633 L827.540344,972.34173 C821.774251,970.074547 825.233907,958.73863 825.233907,949.669896 C825.233907,945.135529 831,934.933204 831,929.265246" id="Fill-8" fill="#221F20" fill-rule="nonzero"></path>
        </g>
    </g>
</svg>