<?xml version="1.0" encoding="UTF-8"?>
<svg width="640px" height="360px" viewBox="0 0 640 360" version="1.1" xmlns="http://www.w3.org/2000/svg" xmlns:xlink="http://www.w3.org/1999/xlink">
    <!-- Generator: Sketch 42 (36781) - http://www.bohemiancoding.com/sketch -->
    <title>newbohemianflare</title>
    <desc>Created with Sketch.</desc>
    <defs></defs>
    <g id="Page-1" stroke="none" stroke-width="1" fill="none" fill-rule="evenodd">
        <g id="newbohemianflare" fill-rule="nonzero">
            <g id="Artboard-1" transform="translate(-33.259707, -666.140829)">
                <g transform="translate(0.000000, 0.000000)" id="Group">
                    <g>
                        <g id="BACKGROUND">
                            <path d="M126.929777,797.755954 C130.10467,798.784015 133.320796,799.810702 136.578155,800.836014 L254.090454,800.836014 C255.864907,789.271591 256.741652,777.587175 256.712834,765.887443 C256.712834,752.779668 238.364422,719.575228 180.692684,719.575228 C150.762096,719.575228 129.036751,724.011832 114.844564,732.546936 C117.737914,754.478383 121.771784,776.244215 126.929777,797.755954 L126.929777,797.755954 Z" id="Shape" fill="#FFDD00"></path>
                            <polygon id="Shape" fill="#FFDD00" points="249.258019 1033.69591 473.817838 978.646554 480.827344 976.898301 479.066721 976.485977 249.258019 976.485977"></polygon>
                            <path d="M297.120572,634.360256 C303.337818,647.391778 308.239869,661.010889 311.753946,675.015388 C318.552116,660.544558 326.991444,646.903283 336.905701,634.360256 L297.120572,634.360256 Z" id="Shape" fill="#FFDD00"></path>
                            <path d="M337.09537,799.961887 L476.023771,799.961887 C591.515684,799.961887 667.436876,787.274682 678.272747,785.353253 L678.272747,691.178484 C630.356591,706.665368 566.178383,717.01882 489.131547,723.945861 C390.396475,732.699496 344.08426,749.287285 337.09537,799.961887 Z" id="Shape" fill="#FFDD00"></path>
                            <path d="M25.1517554,1071.32046 C35.5711792,1071.539 83.0832574,1071.28336 168.871359,1052.90196 L168.871359,976.898301 C88.1713338,978.708403 36.9277247,985.66843 25.1517554,987.420806 L25.1517554,1071.32046 Z" id="Shape" fill="#FFDD00"></path>
                            <g id="Group" style="mix-blend-mode: multiply;" transform="translate(22.677812, 0.000000)" fill="#DE3F96">
                                <path d="M200.364656,456.986779 L471.236691,456.986779 C533.274939,456.986779 598.80557,452.616146 655.603181,436.890114 L655.603181,654.456921 C601.427949,643.097398 529.778432,634.360256 467.740185,634.360256 L88.5218091,634.360256 C87.6476825,643.971525 87.6476825,653.582794 87.6476825,664.06819 C87.6476825,718.243422 96.3848251,764.551514 104.247841,797.755954 C133.955775,807.367224 167.160215,816.978493 204.731165,825.715635 L466.861935,887.753883 C582.201288,915.717687 655.594935,918.340067 655.594935,918.340067 L655.594935,1130.68685 C655.594935,1130.68685 562.1005,1134.18336 450.257653,1161.26891 L185.51275,1225.01418 C64.0545114,1253.87685 0.272133746,1288.81718 0.272133746,1288.81718 L0.272133746,1071.25037 C0.272133746,1071.25037 48.3284794,1073.87275 146.193547,1052.90196 L146.193547,905.232291 C54.4267493,886.009753 0.272133746,880.764994 0.272133746,880.764994 L0.272133746,446.501383 C0.272133746,446.501383 75.4181569,456.986779 200.364656,456.986779 Z M458.128916,976.881808 L226.580207,922.706576 L226.580207,1033.69591 L451.140026,978.646554 L458.128916,976.881808 Z" id="Shape"></path>
                            </g>
                            <g id="Group" style="mix-blend-mode: multiply;" transform="translate(22.265488, 35.872176)" fill="#4486C6">
                                <path d="M457.267159,1790.72252 L186.370384,1790.72252 C124.332136,1790.72252 58.8015054,1795.09315 2.00389395,1810.81918 L2.00389395,1593.24825 C56.1791257,1604.60777 127.828643,1613.34492 189.86689,1613.34492 L569.085266,1613.34492 C569.959392,1603.73365 569.959392,1594.12238 569.959392,1583.63698 C569.959392,1529.46175 561.22225,1483.15366 553.359234,1449.94922 C523.6513,1440.33795 490.44686,1430.72668 452.87591,1421.98954 L190.753387,1359.94717 C75.4140337,1331.98748 2.02038691,1329.3651 2.02038691,1329.3651 L2.02038691,1117.01832 C2.02038691,1117.01832 95.5148218,1113.52181 207.357668,1086.43626 L472.110818,1022.64976 C593.564933,993.815949 657.351434,958.863256 657.351434,958.863256 L657.351434,1176.43419 C657.351434,1176.43419 609.295089,1173.81181 511.430021,1194.7826 L511.430021,1342.44814 C603.176202,1361.67068 657.351434,1366.91544 657.351434,1366.91544 L657.351434,1801.20379 C657.351434,1801.20379 582.201288,1790.72252 457.267159,1790.72252 Z M199.490529,1270.82336 L431.039238,1324.9986 L431.039238,1214.02988 L206.479418,1269.07511 L199.490529,1270.82336 Z" id="Shape"></path>
                                <path d="M657.347311,749.237806 L657.347311,951.952708 C657.347311,951.952708 578.708905,940.593185 453.758283,940.593185 L185.51275,940.593185 C69.2992709,940.593185 0.272133746,951.952708 0.272133746,951.952708 L0.272133746,688.065438 C0.272133746,587.582114 57.9397486,507.195455 130.463392,507.195455 C206.483542,507.195455 267.647663,553.507671 289.488458,639.139089 C315.699885,583.215604 368.126864,536.907512 440.650507,520.30323 C517.544784,501.954819 591.812557,481.858154 657.347311,449.52784 L657.347311,654.865121 C609.290965,670.591153 544.630338,681.076549 466.853688,688.069562 C368.130987,696.82732 321.818771,713.415109 314.829882,764.089711 L453.758283,764.089711 C578.708905,764.089711 657.347311,749.237806 657.347311,749.237806 Z M158.435443,683.703052 C99.0195746,683.703052 71.9340203,701.177337 71.9340203,733.507651 C71.9340203,743.993047 72.8081469,754.478442 75.4305266,764.963838 L231.820843,764.963838 C233.595295,753.399415 234.47204,741.715 234.443223,730.015268 C234.443223,716.907492 216.094811,683.703052 158.423073,683.703052 L158.435443,683.703052 Z" id="Shape"></path>
                            </g>
                            <path d="M0,227.190446 L0,2051.72352 L706.104607,2051.72352 L706.104607,227.190446 L0,227.190446 Z M674.50823,2030.28268 L28.809068,2030.28268 L28.809068,256.46544 L674.50823,256.46544 L674.50823,2030.28268 Z" id="Shape" fill="#FFFFFF"></path>
                        </g>
                        <g id="take_2" transform="translate(56.488369, 279.967900)">
                            <polygon id="Shape" fill="#FFFFFF" opacity="0.7" points="0.0948344874 0.0247394315 0.0948344874 1723.95079 590.245726 1723.95079 590.245726 0.0247394315"></polygon>
                            <g id="Group" style="mix-blend-mode: multiply;" transform="translate(9.895773, 276.669309)">
                                <path d="M87.0003341,126.604041 L31.7901695,126.604041 C31.7901695,126.604041 35.5010842,112.119104 35.5010842,89.107309 L35.5010842,29.7326734 C11.8460644,29.8934797 0.098957726,31.8231554 0.098957726,31.8231554 L11.0420329,5.91272413 L119.813067,5.91272413 L108.853499,31.8231554 C108.853499,31.8231554 99.1968738,30.2150923 82.6214547,29.7326734 L82.6214547,89.107309 C82.6420709,112.123227 87.0003341,126.604041 87.0003341,126.604041 Z" id="Shape" fill="#DE3F96"></path>
                                <path d="M178.404287,122.893126 L124.802185,122.893126 C124.802185,122.893126 128.5131,108.408189 128.5131,85.3963943 L128.5131,35.9958728 C128.5131,14.431335 124.802185,2.18531645 124.802185,2.18531645 L178.404287,2.18531645 C178.404287,2.18531645 175.649964,14.431335 175.649964,35.9958728 L175.649964,42.4322482 L197.090804,42.4322482 L197.090804,35.9958728 C197.090804,14.431335 195.000322,2.18531645 195.000322,2.18531645 L248.602424,2.18531645 C248.602424,2.18531645 244.25653,14.4148421 244.25653,35.9958728 L244.25653,85.4005175 C244.25653,108.412312 248.602424,122.897249 248.602424,122.897249 L195.000322,122.897249 C195.000322,122.897249 197.090804,108.412312 197.090804,85.4005175 L197.090804,66.087268 L175.649964,66.087268 L175.649964,85.3963943 C175.649964,108.412312 178.404287,122.893126 178.404287,122.893126 Z" id="Shape" fill="#4486C6"></path>
                                <path d="M259.702182,122.893126 C259.702182,122.893126 263.413097,108.408189 263.413097,85.3963943 L263.413097,35.9958728 C263.413097,14.431335 259.702182,2.18531645 259.702182,2.18531645 L314.895854,2.18531645 C314.895854,2.18531645 310.54996,14.4148421 310.54996,35.9958728 L310.54996,85.4005175 C310.54996,108.412312 314.895854,122.897249 314.895854,122.897249 L259.702182,122.893126 Z" id="Shape" fill="#4486C6"></path>
                                <path d="M431.521657,10.4111774 L419.452938,38.4120906 C412.855756,30.2068459 399.335657,21.6758652 384.211618,21.6758652 C376.789788,21.6758652 368.44023,22.6407031 368.130987,29.7203037 C368.4526,36.1566791 379.234869,40.18096 394.84545,43.2362798 C424.615232,49.0088138 440.708233,59.3169102 440.708233,83.9491375 C440.708233,115.652719 405.306106,125.466027 371.994462,125.466027 C347.696217,125.466027 329.995153,121.28094 318.565536,114.040533 L329.508611,88.6166436 C338.517888,97.7908495 351.394762,104.388031 368.130987,104.388031 C375.552817,104.388031 388.409074,102.297549 388.409074,94.0799347 C388.409074,86.6581053 376.340355,84.596486 359.443323,81.2071839 C336.913948,76.7004841 321.785785,65.1265534 321.785785,40.7994458 C321.785785,15.536363 350.59073,0.0865880102 382.133505,0.0865880102 C398.857361,0.111327442 423.798831,5.10044613 431.521657,10.4111774 Z" id="Shape" fill="#DE3F96"></path>
                                <path d="M65.4729054,247.113935 L17.057838,247.113935 C17.057838,247.113935 20.3028268,234.410237 20.3028268,214.222861 L20.3028268,170.747433 C20.3028268,152.114518 17.1980281,140.961157 17.1980281,140.961157 L61.663033,141.245661 L116.572201,141.245661 L106.408418,165.242909 C106.408418,165.242909 91.3049952,161.853607 61.663033,161.713417 L61.663033,178.511491 C81.5659056,178.371301 101.613092,175.687073 101.613092,175.687073 L90.7442347,201.943856 C90.7442347,201.943856 81.0051452,198.133984 61.6671562,197.144406 L61.6671562,214.222861 C61.663033,234.410237 65.4729054,247.113935 65.4729054,247.113935 Z" id="Shape" fill="#4486C6"></path>
                                <path d="M225.264893,194.039608 C225.264893,224.811337 207.901936,249.657973 170.636105,249.657973 C132.525011,249.657973 115.302244,224.81546 115.302244,194.039608 C115.302244,163.972952 132.100318,138.986126 170.636105,138.986126 C208.60701,138.986126 225.264893,163.972952 225.264893,194.039608 Z M159.627058,190.369925 C159.627058,221.001465 165.271772,228.765523 172.050376,228.765523 C178.828981,228.765523 181.509086,221.285968 181.509086,196.018762 C181.509086,166.51699 176.148875,159.734263 169.230081,159.734263 C162.731857,159.738386 159.627058,166.793247 159.627058,190.369925 L159.627058,190.369925 Z" id="Shape" fill="#DE3F96"></path>
                                <path d="M263.252291,251.237173 L231.771364,251.237173 C231.771364,251.237173 235.016353,237.543898 235.016353,217.360645 L235.016353,175.435555 C235.016353,156.94283 230.216903,145.368899 230.216903,145.368899 L277.634147,145.368899 C277.634147,145.368899 279.749368,155.957376 294.856914,172.89564 L305.305201,184.613884 L305.305201,175.439678 C304.892877,156.946953 300.505751,145.373023 300.505751,145.373023 L332.407248,145.373023 C332.407248,145.373023 328.453062,156.505767 328.877756,175.159298 L328.877756,218.354346 C328.877756,238.681912 333.532892,251.24542 333.532892,251.24542 L302.068459,251.24542 C302.080611,251.004823 302.127839,250.767291 302.208649,250.540346 C301.643765,248.140621 298.398776,238.401532 284.000427,222.588912 L258.593031,194.781791 L258.593031,217.509082 C258.593031,238.393285 263.252291,251.237173 263.252291,251.237173 Z M324.375179,212.136502 C324.515369,212.701386 324.515369,212.701386 324.515369,211.851998 C324.504829,211.961628 324.453288,212.063237 324.371056,212.136502 L324.375179,212.136502 Z" id="Shape" fill="#DE3F96"></path>
                                <path d="M417.098568,247.113935 L368.679378,247.113935 C368.679378,247.113935 371.924367,234.410237 371.924367,214.222861 L371.924367,162.138111 C351.172107,162.278301 340.868134,163.972952 340.868134,163.972952 L350.475279,141.245661 L445.89939,141.245661 L436.300491,163.972952 C436.300491,163.972952 427.831359,162.562804 413.292819,162.138111 L413.292819,214.226984 C413.284573,234.410237 417.098568,247.113935 417.098568,247.113935 Z" id="Shape" fill="#4486C6"></path>
                                <path d="M55.70083,360.041193 L14.7900568,360.041193 C14.7900568,360.041193 16.4393522,348.607452 16.4393522,330.440463 L16.4393522,291.438749 C16.4393522,274.413897 14.7900568,264.761396 14.7900568,264.761396 L55.6967068,264.761396 C55.6967068,264.761396 53.5361298,274.418021 53.5361298,291.438749 L53.5361298,299.186315 C55.3132456,297.153558 57.4738226,294.865161 60.2693784,291.562447 C74.1152135,275.683855 74.8780127,264.761396 74.8780127,264.761396 L116.935046,264.761396 C116.935046,264.761396 107.278421,271.115306 93.3047659,288.012338 C88.6042739,293.727147 84.4109403,299.190438 81.347374,303.004434 C91.2431466,306.814306 100.784321,315.580311 103.072718,328.923111 C107.77321,355.724162 114.127121,360.049439 114.127121,360.049439 L69.0395068,360.049439 C66.6408458,352.750087 65.3971285,345.120841 65.3533315,337.437599 C65.3533315,320.412747 61.1599979,315.967896 53.540253,315.332917 L53.540253,330.44871 C53.540253,348.607452 55.70083,360.041193 55.70083,360.041193 Z" id="Shape" fill="#DE3F96"></path>
                                <path d="M120.96345,360.041193 C120.96345,360.041193 123.886826,348.607452 123.886826,330.440463 L123.886826,291.438749 C123.886826,274.413897 120.96345,264.761396 120.96345,264.761396 L164.517219,264.761396 C164.517219,264.761396 161.086685,274.418021 161.086685,291.438749 L161.086685,330.440463 C161.086685,348.607452 164.517219,360.041193 164.517219,360.041193 L120.96345,360.041193 Z" id="Shape" fill="#4486C6" style="mix-blend-mode: multiply;"></path>
                                <path d="M181.834821,326.317225 L181.834821,287.315511 C181.834821,270.290659 178.911445,260.638157 178.911445,260.638157 L222.477584,260.638157 C222.477584,260.638157 219.04705,270.294782 219.04705,287.315511 L219.04705,326.317225 C219.04705,330.127097 219.17487,333.685452 219.426388,336.860346 C224.699336,337.443133 229.999934,337.74044 235.304979,337.750965 C253.599789,337.750965 266.303487,332.415494 266.303487,332.415494 L254.490409,355.917954 L178.903199,355.917954 C178.903199,355.917954 181.834821,344.484214 181.834821,326.317225 Z" id="Shape" fill="#DE3F96" style="mix-blend-mode: multiply;"></path>
                                <path d="M263.982104,330.440463 L263.982104,291.438749 C263.982104,274.413897 261.058728,264.761396 261.058728,264.761396 L304.633113,264.761396 C304.633113,264.761396 301.202578,274.418021 301.202578,291.438749 L301.202578,330.440463 C301.202578,334.250336 301.330399,337.808691 301.581916,340.983584 C306.854864,341.566372 312.155462,341.863679 317.460508,341.874204 C335.755318,341.874204 348.459016,336.538733 348.459016,336.538733 L336.641814,360.041193 L261.058728,360.041193 C261.058728,360.041193 263.982104,348.607452 263.982104,330.440463 Z" id="Shape" fill="#4486C6" style="mix-blend-mode: multiply;"></path>
                                <path d="M432.375167,271.239004 L422.846363,293.343686 C417.638713,286.866078 406.967771,280.149322 395.022749,280.149322 C389.18012,280.149322 382.570569,280.912121 382.319051,286.503233 C382.574692,291.583063 391.085056,294.74971 403.409416,297.174174 C426.911876,301.746846 439.615574,309.877872 439.615574,329.335435 C439.615574,354.363493 411.66414,362.111059 385.370248,362.111059 C366.188942,362.111059 351.044286,358.602183 342.02264,352.883251 L351.831825,333.017487 C358.944412,340.257894 369.108195,345.465545 382.323174,345.465545 C388.165803,345.465545 398.329586,343.816249 398.329586,337.334518 C398.329586,331.491889 388.800782,329.83847 375.462105,327.170735 C357.674454,323.61238 345.733555,314.467037 345.733555,295.281608 C345.733555,275.337503 368.473216,263.120347 393.373454,263.120347 C406.588433,263.107977 426.276898,267.04567 432.375167,271.239004 Z" id="Shape" fill="#DE3F96" style="mix-blend-mode: multiply;"></path>
                                <path d="M38.5316646,456.030187 L13.532469,456.030187 C13.532469,456.030187 14.9261237,446.373562 14.9261237,431.035115 L14.9261237,398.098685 C14.9261237,383.720952 13.532469,375.569309 13.532469,375.569309 L66.7469862,375.569309 L61.489857,387.798835 C61.489857,387.798835 50.4395776,387.048406 37.1380099,386.726793 C36.9236015,389.839838 36.7256861,393.69919 36.7256861,398.098685 L36.7256861,403.871219 C46.9183318,403.656811 54.7483619,403.227994 54.7483619,403.227994 L49.0624159,416.315153 C49.0624159,416.315153 44.0196951,415.779132 36.7256861,415.243111 L36.7256861,431.014499 C36.6968234,446.373562 38.5316646,456.030187 38.5316646,456.030187 Z" id="Shape" fill="#DE3F96"></path>
                                <path d="M92.7316357,438.110592 L74.589386,438.110592 C72.2308935,449.37528 71.583545,456.026064 71.583545,456.026064 L56.9006924,456.026064 C56.9006924,456.026064 61.300188,445.717967 64.8379267,430.923787 L72.4535484,398.737787 C75.8882061,384.578586 76.2098187,375.565186 76.2098187,375.565186 L102.281056,375.565186 C102.774833,384.063966 104.031987,392.501114 106.037327,400.774667 L113.87148,433.28228 C117.413342,448.196034 121.705633,456.026064 121.705633,456.026064 L94.9870472,456.026064 C94.9870472,456.026064 95.3086598,450.129833 92.7316357,438.110592 Z M83.3966236,399.809829 L76.7458397,428.260175 L90.3525271,428.260175 L83.594539,400.688079 L83.3966236,399.809829 Z" id="Shape" fill="#4486C6"></path>
                                <path d="M176.919921,382.112889 L166.512867,399.921157 C164.154374,392.087003 158.035488,385.221811 151.920726,385.221811 C147.950047,385.221811 144.305104,387.151487 144.305104,392.51582 C144.305104,397.772949 149.665314,401.314811 155.676996,404.316529 C166.727275,409.895271 177.777555,416.010034 177.777555,432.103034 C177.777555,450.554526 163.403945,457.959863 149.133416,457.959863 C137.761524,457.959863 126.711245,453.453163 120.918095,448.946463 L127.890491,432.210238 C132.611599,439.82586 140.120017,445.940622 146.985209,445.940622 C152.456747,445.940622 155.458464,443.367722 155.458464,439.182634 C155.458464,433.711097 149.986927,431.567013 142.907326,427.596334 C130.892209,420.838346 122.200422,414.294766 122.200422,399.702625 C122.200422,386.615466 130.034575,373.845796 150.650768,373.845796 C162.546311,373.849919 172.631753,378.571027 176.919921,382.112889 Z" id="Shape" fill="#4486C6"></path>
                                <path d="M219.529469,396.593703 C218.457427,388.00912 215.451586,384.68579 211.806643,384.68579 C208.264781,384.68579 206.120697,397.02252 206.120697,412.150682 C206.120697,435.653142 210.19858,446.695175 217.170976,446.695175 C222.642514,446.695175 228.542868,442.402884 231.866198,436.716938 L238.945799,450.12571 C233.259853,455.16843 225.339112,457.959863 213.736318,457.959863 C191.957372,457.959863 182.086339,439.079553 182.086339,415.692544 C182.086339,392.944637 191.730594,373.977739 213.736318,373.977739 C226.287457,373.977739 234.872039,380.414115 239.712721,390.177944 L219.529469,396.593703 Z" id="Shape" fill="#DE3F96"></path>
                                <path d="M240.314714,460.153426 C240.314714,460.153426 241.708369,450.496801 241.708369,435.158353 L241.708369,402.221924 C241.708369,387.844191 240.314714,379.692548 240.314714,379.692548 L265.309787,379.692548 C265.309787,379.692548 263.487315,387.844191 263.487315,402.221924 L263.487315,435.158353 C263.487315,450.500924 265.309787,460.153426 265.309787,460.153426 L240.314714,460.153426 Z" id="Shape" fill="#DE3F96"></path>
                                <path d="M328.828277,382.112889 L318.421223,399.921157 C316.06273,392.087003 309.947967,385.221811 303.833205,385.221811 C299.862526,385.221811 296.217583,387.151487 296.217583,392.51582 C296.217583,397.772949 301.577793,401.314811 307.589475,404.316529 C318.639754,409.895271 329.690034,416.010034 329.690034,432.103034 C329.690034,450.554526 315.312301,457.959863 301.045895,457.959863 C289.674003,457.959863 278.623724,453.453163 272.830574,448.946463 L279.80297,432.210238 C284.524078,439.82586 292.032496,445.940622 298.897688,445.940622 C304.369226,445.940622 307.370943,443.367722 307.370943,439.182634 C307.370943,433.711097 301.899406,431.567013 294.819805,427.596334 C282.804688,420.838346 274.112901,414.294766 274.112901,399.702625 C274.112901,386.615466 281.947054,373.845796 302.563247,373.845796 C314.454667,373.849919 324.540109,378.571027 328.828277,382.112889 Z" id="Shape" fill="#4486C6"></path>
                                <path d="M370.815215,456.030187 L345.820143,456.030187 C345.820143,456.030187 347.213798,446.373562 347.213798,431.035115 L347.213798,386.401057 C341.206239,386.615466 334.555455,386.937078 329.071548,387.687508 L334.431758,375.67239 L347.213798,375.67239 L347.213798,375.565186 L368.992744,375.565186 L368.992744,375.67239 L388.087462,375.67239 L382.63654,387.691631 C382.63654,387.691631 377.808228,386.619589 369.029853,386.40518 L369.029853,431.035115 C368.992744,446.373562 370.815215,456.030187 370.815215,456.030187 Z" id="Shape" fill="#4486C6"></path>
                                <path d="M438.36211,382.112889 L427.955056,399.921157 C425.596563,392.087003 419.477677,385.221811 413.362914,385.221811 C409.392236,385.221811 405.747293,387.151487 405.747293,392.51582 C405.747293,397.772949 411.107503,401.314811 417.119185,404.316529 C428.169464,409.895271 439.219743,416.010034 439.219743,432.103034 C439.219743,450.554526 424.842011,457.959863 410.575605,457.959863 C399.203713,457.959863 388.153434,453.453163 382.360283,448.946463 L389.33268,432.210238 C394.053788,439.82586 401.562206,445.940622 408.427398,445.940622 C413.898935,445.940622 416.904776,443.367722 416.904776,439.182634 C416.904776,433.711097 411.433239,431.567013 404.353638,427.596334 C392.338521,420.838346 383.646734,414.294766 383.646734,399.702625 C383.646734,386.615466 391.480887,373.845796 412.09708,373.845796 C423.984377,373.849919 434.069819,378.571027 438.36211,382.112889 Z" id="Shape" fill="#DE3F96"></path>
                            </g>
                            <g id="Group" style="mix-blend-mode: multiply;" transform="translate(462.215045, 281.617195)" fill="#4486C6">
                                <path d="M42.9888855,95.5354379 C45.2236808,95.5354379 46.9471945,97.8155889 46.9471945,100.93688 C46.9471945,103.682957 45.2236808,106.103298 42.9888855,106.103298 C40.6592557,106.103298 39.0305764,103.682957 39.0305764,100.93688 C39.0305764,97.8155889 40.6592557,95.5354379 42.9888855,95.5354379 Z M11.8914201,95.6756281 C11.8914201,95.6756281 15.8950847,96.3270998 22.8757277,96.3270998 L25.0156885,96.3270998 C28.3947646,96.3708895 31.7721618,96.1530818 35.117623,95.6756281 L35.117623,105.451827 L22.9252065,105.451827 C15.9157009,105.451827 11.8914201,106.276474 11.8914201,106.276474 L11.8914201,95.6756281 Z" id="Shape"></path>
                                <path d="M23.6220338,108.989565 C32.8869509,108.989565 35.7237391,116.110398 35.7237391,121.602552 C35.7237391,127.094706 32.6024475,133.753736 24.178671,133.753736 L19.4287002,119.417236 C17.1939049,119.928517 16.1713417,121.14075 16.1301093,123.326066 C16.1398043,126.100229 17.5596974,128.679028 19.8987494,130.170642 L14.3571167,132.545627 C12.7078213,130.220121 11.3306596,125.61034 11.3306596,121.606676 C11.3347829,116.110398 14.0808598,108.989565 23.6220338,108.989565 Z M24.36834,119.136856 L25.9516636,123.746636 C28.3266491,123.561091 31.1675604,122.86014 31.1675604,121.186105 C31.1634372,119.23169 28.1823357,119.136856 24.36834,119.136856 Z" id="Shape"></path>
                                <path d="M11.8914201,146.832649 L11.8914201,136.219433 C11.8914201,136.219433 15.8950847,136.870905 22.8757277,136.870905 L25.0156885,136.870905 C28.3947578,136.914431 31.7721347,136.696624 35.117623,136.219433 L35.117623,145.995632 L31.8190321,145.995632 C34.2929753,147.39341 35.5876722,149.53337 35.5876722,151.537264 C35.6237703,152.489742 35.4652309,153.439576 35.1217462,154.328697 L25.0198117,150.205458 C25.3001919,149.974557 25.6712834,149.088061 25.6712834,148.205688 C25.6712834,147.042934 25.2053575,146.065727 22.9705621,146.065727 L23.0653966,146.020371 L22.9252065,146.020371 C15.8950847,145.995632 11.8914201,146.832649 11.8914201,146.832649 Z" id="Shape"></path>
                                <path d="M11.8914201,165.968599 L11.8914201,155.355383 C11.8914201,155.355383 15.8950847,156.006855 22.8757277,156.006855 L25.0156885,156.006855 C28.3947578,156.050381 31.7721347,155.832575 35.117623,155.355383 L35.117623,165.131582 L31.8190321,165.131582 C34.2929753,166.52936 35.5876722,168.669321 35.5876722,170.673215 C35.6237703,171.625693 35.4652309,172.575526 35.1217462,173.464647 L25.0198117,169.341409 C25.3001919,169.110507 25.6712834,168.224011 25.6712834,167.337515 C25.6712834,166.174761 25.2053575,165.197554 22.9705621,165.197554 L23.0653966,165.148075 L22.9252065,165.148075 C15.8950847,165.127459 11.8914201,165.968599 11.8914201,165.968599 Z" id="Shape"></path>
                                <path d="M13.9406696,188.357785 C12.4521805,187.195032 11.4667265,185.380807 11.4667265,182.725441 C11.4667265,177.559023 14.0726133,173.654316 19.3792213,173.654316 C24.8260195,173.654316 27.5267408,178.960924 27.5267408,183.710895 C27.551041,184.627335 27.3604064,185.536733 26.9701036,186.366261 C29.7161805,185.714789 30.7882225,184.692226 30.7882225,182.783166 C30.7882225,180.362825 28.8338074,177.756939 27.4896316,176.825087 L32.7014052,174.033654 C32.7014052,174.033654 35.7278623,178.363055 35.7278623,185.112796 C35.7278623,194.93435 27.3494415,195.585822 21.5769075,196.097104 C18.2226394,196.364844 14.9435942,197.232088 11.8955433,198.657635 L11.8955433,189.174186 C12.5421544,188.821254 13.2287682,188.547162 13.9406696,188.357785 L13.9406696,188.357785 Z M19.8533938,187.285743 L20.2657176,187.240387 L21.0120238,187.195032 C22.224256,186.869296 23.0159178,185.986923 23.0159178,184.914881 C23.0159178,183.702649 21.8036856,183.051177 20.5419746,183.051177 C18.6782708,183.051177 17.5155175,184.168575 17.5155175,185.426162 C17.5155175,186.68375 18.6411616,187.195032 19.8533938,187.285743 L19.8533938,187.285743 Z" id="Shape"></path>
                                <path d="M23.6220338,208.88739 C32.8869509,208.88739 35.7237391,216.012346 35.7237391,221.5045 C35.7237391,226.996654 32.6024475,233.655684 24.178671,233.655684 L19.4287002,219.319183 C17.1939049,219.830465 16.1713417,221.042697 16.1301093,223.228014 C16.1398043,226.002177 17.5596974,228.580976 19.8987494,230.07259 L14.3571167,232.447575 C12.7078213,230.122069 11.3306596,225.512288 11.3306596,221.508623 C11.3347829,216.008223 14.0808598,208.88739 23.6220338,208.88739 Z M24.36834,219.03468 L25.9516636,223.644461 C28.3266491,223.458915 31.1675604,222.762088 31.1675604,221.08393 C31.1634372,219.129514 28.1823357,219.03468 24.36834,219.03468 L24.36834,219.03468 Z" id="Shape"></path>
                                <path d="M14.171571,234.99986 L20.0842951,236.673895 C17.4784083,239.04888 15.985796,242.260883 15.985796,244.821414 C15.985796,246.916019 16.5919121,247.47678 17.9402111,247.47678 C19.0122531,247.47678 19.8039149,245.28734 20.3151965,242.916478 C21.0120238,239.799309 23.0159178,235.795645 27.8565999,235.841 C33.21681,235.795645 35.7237391,241.753725 35.7237391,246.639762 C35.7237391,250.457881 33.769324,255.438753 32.697282,256.832408 L27.4855084,254.086331 C28.7884518,253.063768 30.8377014,250.317691 30.8377014,247.241755 C30.8377014,245.843977 30.4666099,244.767812 29.4399235,244.821414 C28.2276913,244.776058 28.2771702,247.33659 27.1597725,250.363047 C25.7619947,254.131687 23.296298,256.960228 18.9132954,256.960228 C14.3777329,256.960228 11.0791421,252.350448 11.0791421,247.18403 C11.0997583,240.261112 12.8686276,236.723373 14.171571,234.99986 Z" id="Shape"></path>
                                <path d="M11.8914201,273.548017 C15.5717486,273.404698 19.2322571,272.936959 22.830372,272.150239 L36.9359712,268.983592 C43.4053326,267.540459 46.8070044,265.771589 46.8070044,265.771589 L46.8070044,277.362013 C46.8070044,277.362013 43.5950015,277.081633 37.0308057,278.598985 L24.9744561,281.345061 L28.8832863,282.648005 C38.3337491,285.765173 46.8070044,280.97397 46.8070044,280.97397 L46.8070044,292.659228 C46.8070044,292.659228 40.2428086,294.242552 30.8871802,289.958507 L22.2737348,286.000198 C18.3649046,284.185973 13.289198,284.466353 12.1264447,284.557064 C12.0507259,284.583533 11.9715505,284.598812 11.8914201,284.60242 L11.8914201,273.548017 Z" id="Shape"></path>
                                <path d="M15.1034229,308.645024 C13.3345536,307.342081 11.4254941,305.247475 11.4254941,302.047842 C11.4254941,295.252745 17.610352,293.949802 21.1563372,294.506439 L24.1374387,294.972365 C31.072726,296.044407 35.1217462,292.910746 35.1217462,292.910746 L35.1217462,303.338416 C35.1217462,303.338416 30.5861838,305.400035 24.3229844,303.944532 C24.2281499,303.944532 22.4592806,303.713631 22.2613651,303.664152 C19.2802636,303.29306 18.2123448,304.224912 18.2123448,306.039137 C18.2123448,307.853362 20.1214043,308.599668 23.9395232,308.599668 L23.8941676,308.645024 L24.0797133,308.645024 C31.0892189,308.645024 35.1134998,307.820376 35.1134998,307.820376 L35.1134998,318.433592 C35.1134998,318.433592 31.1098351,317.782121 24.1291922,317.782121 L21.9892314,317.782121 C15.6600601,317.782121 11.8872968,319.365444 11.8872968,319.365444 L11.8872968,308.645024 L15.1034229,308.645024 Z" id="Shape"></path>
                                <path d="M23.6220338,321.200286 C32.8869509,321.200286 35.7237391,328.321119 35.7237391,333.817396 C35.7237391,339.313673 32.6024475,345.96858 24.178671,345.96858 L19.4287002,331.632079 C17.1939049,332.143361 16.1713417,333.355593 16.1301093,335.540909 C16.1398043,338.315073 17.5596974,340.893872 19.8987494,342.385485 L14.3571167,344.760471 C12.7078213,342.434964 11.3306596,337.825184 11.3306596,333.821519 C11.3347829,328.337612 14.0808598,321.200286 23.6220338,321.200286 Z M24.36834,331.347576 L25.9516636,335.957356 C28.3266491,335.771811 31.1675604,335.074983 31.1675604,333.396825 C31.1634372,331.45478 28.1823357,331.364069 24.36834,331.364069 L24.36834,331.347576 Z" id="Shape"></path>
                                <path d="M14.171571,347.329248 L20.0842951,349.003283 C17.4784083,351.378269 15.985796,354.590272 15.985796,357.150803 C15.985796,359.245408 16.5919121,359.806168 17.9402111,359.806168 C19.0122531,359.806168 19.8039149,357.616729 20.3151965,355.245867 C21.0120238,352.128698 23.0159178,348.125033 27.8565999,348.170389 C33.21681,348.125033 35.7237391,354.083113 35.7237391,358.969151 C35.7237391,362.78727 33.769324,367.768142 32.697282,369.161797 L27.4855084,366.41572 C28.7884518,365.393157 30.8377014,362.64708 30.8377014,359.571144 C30.8377014,358.173366 30.4666099,357.097201 29.4399235,357.150803 C28.2276913,357.105447 28.2771702,359.665978 27.1597725,362.688312 C25.7619947,366.461075 23.296298,369.285494 18.9132954,369.285494 C14.3777329,369.285494 11.0791421,364.675713 11.0791421,359.509295 C11.0997583,352.590501 12.8686276,349.052762 14.171571,347.329248 Z" id="Shape"></path>
                                <path d="M11.3347829,381.172791 C11.3347829,375.635281 14.0355041,373.445842 20.5997,373.445842 L29.0729552,373.445842 C29.6337157,373.445842 30.1449973,373.445842 30.6109232,373.491197 L30.6109232,369.161797 C35.3498913,372.723189 39.2839584,377.244556 42.1559913,382.430378 L35.1712251,382.430378 L35.1712251,391.707665 L29.7697826,389.382159 C30.2404727,387.098712 30.5054212,384.777652 30.5614444,382.446871 L26.6979698,382.446871 L26.7433254,382.492227 C20.6450556,382.492227 17.2598767,382.723128 17.2598767,385.098114 C17.2598767,387.007173 18.2824399,388.450307 19.6802178,389.658416 L14.6045111,390.730458 C12.4975361,388.949219 11.3347829,383.873512 11.3347829,381.172791 Z" id="Shape"></path>
                                <path d="M11.8914201,403.891835 L11.8914201,393.278619 C11.8914201,393.278619 15.8950847,393.930091 22.8757277,393.930091 L25.0156885,393.930091 C28.3947641,393.973864 31.7721601,393.756057 35.117623,393.278619 L35.117623,403.054818 L31.8190321,403.054818 C34.2929753,404.452596 35.5876722,406.592557 35.5876722,408.596451 C35.6237703,409.548929 35.4652309,410.498762 35.1217462,411.387883 L25.0198117,407.264644 C25.3001919,407.033743 25.6712834,406.147247 25.6712834,405.264874 C25.6712834,404.10212 25.2053575,403.124913 22.9705621,403.124913 L23.0653966,403.079557 L22.9252065,403.079557 C15.8950847,403.054818 11.8914201,403.891835 11.8914201,403.891835 Z" id="Shape"></path>
                                <path d="M13.9406696,426.281021 C12.4521805,425.118268 11.4667265,423.304043 11.4667265,420.648677 C11.4667265,415.482259 14.0726133,411.577552 19.3792213,411.577552 C24.8260195,411.577552 27.5267408,416.88416 27.5267408,421.634131 C27.551041,422.550571 27.3604064,423.459969 26.9701036,424.289497 C29.7161805,423.638025 30.7882225,422.615462 30.7882225,420.706402 C30.7882225,418.286061 28.8338074,415.680174 27.4896316,414.748323 L32.7014052,411.95689 C32.7014052,411.95689 35.7278623,416.28629 35.7278623,423.036032 C35.7278623,432.857586 27.3494415,433.509058 21.5769075,434.02034 C18.2226394,434.28808 14.9435942,435.155324 11.8955433,436.580871 L11.8955433,427.097422 C12.5423731,426.744955 13.2289299,426.470886 13.9406696,426.281021 L13.9406696,426.281021 Z M19.8533938,425.208979 L20.2657176,425.163623 L21.0120238,425.118268 C22.224256,424.792532 23.0159178,423.906035 23.0159178,422.838117 C23.0159178,421.625884 21.8036856,420.974413 20.5419746,420.974413 C18.6782708,420.974413 17.5155175,422.09181 17.5155175,423.349398 C17.5155175,424.606986 18.6411616,425.105898 19.8533938,425.213102 L19.8533938,425.208979 Z" id="Shape"></path>
                                <path d="M21.1563372,439.829983 C24.9559324,439.081475 28.7955506,438.552822 32.6560496,438.246659 L37.2163514,437.875568 C43.4012093,437.364286 46.8070044,436.341723 46.8070044,436.341723 L46.8070044,448.072337 C46.8070044,448.072337 43.4094558,446.909583 37.2163514,446.398302 L32.6560496,446.02721 C26.1866882,445.515929 21.1563372,444.584077 21.1563372,444.584077 L21.1563372,439.829983 Z M15.1982574,437.690022 C17.3382182,437.690022 19.0163763,439.693916 19.0163763,442.299803 C19.0163763,444.674788 17.3423415,446.769393 15.1982574,446.769393 C13.0541734,446.769393 11.4873427,444.674788 11.4873427,442.299803 C11.4708497,439.689793 13.0541734,437.685899 15.1982574,437.685899 L15.1982574,437.690022 Z" id="Shape"></path>
                            </g>
                            <g id="Group" style="mix-blend-mode: multiply;" transform="translate(523.651300, 281.617195)" fill="#DE3F96">
                                <path d="M1.00607021,96.1374308 L1.00607021,83.9079051 C5.22035118,84.8930947 9.51768764,85.4811658 13.8417119,85.6644048 L30.4583634,86.5426546 C37.641045,86.9261158 42.1394983,85.7757322 42.1394983,85.7757322 L42.1394983,105.187939 L28.8131912,110.341988 L42.1394983,115.289874 L42.1394983,134.256771 C42.1394983,134.256771 37.7523725,133.213592 30.5655676,133.597053 L13.6602894,134.475303 C6.03642128,134.858764 0.993700498,136.668866 0.993700498,136.668866 L0.993700498,117.924623 C0.993700498,117.924623 5.71068544,119.021405 13.6066873,118.637944 L24.5745019,118.089553 L17.334095,115.512529 C10.2050155,112.989107 6.9682732,112.659248 6.74974156,112.659248 L6.74974156,100.908018 C6.74974156,100.908018 10.093688,101.456409 17.334095,98.1124621 L24.4631745,95.5890401 L13.7674936,94.9870472 C5.8879847,94.5458607 1.00607021,96.1374308 1.00607021,96.1374308 Z" id="Shape"></path>
                                <path d="M1.00607021,163.098825 L1.00607021,145.438995 C5.24683898,145.952958 9.51648679,146.191232 13.7881098,146.152315 L30.6274162,146.152315 C37.9214252,146.152315 42.254949,145.438995 42.254949,145.438995 L42.254949,170.446437 C42.254949,176.313805 39.1295341,184.539666 29.9140959,184.539666 C19.6596016,184.539666 15.6559369,176.293189 15.6559369,169.786718 C15.6559369,168.030219 15.9321939,164.521343 16.0930002,162.16285 L14.8848913,162.16285 C10.2425932,162.155155 5.60529965,162.46789 1.00607021,163.098825 L1.00607021,163.098825 Z M29.085325,169.077521 C31.608747,169.077521 34.2393732,167.597279 34.2393732,164.954283 C34.2400488,164.053702 34.1669606,163.154579 34.0208415,162.265931 L23.0530269,162.265931 C22.8479893,163.238893 22.7566661,164.23238 22.7808932,165.226416 C22.7808932,168.256997 26.5660262,169.077521 29.0894482,169.077521 L29.085325,169.077521 Z" id="Shape"></path>
                                <path d="M13.6767824,190.794619 L30.6768951,190.794619 C37.917302,190.794619 42.2508258,189.58651 42.2508258,189.58651 L42.1394983,206.86288 L42.1394983,228.196516 L32.8168559,224.246454 C32.8168559,224.246454 34.132169,218.379085 34.1898943,206.858756 L27.6628076,206.858756 C27.7446013,212.048198 28.1107442,217.229258 28.7595891,222.378626 L18.5545736,218.164677 C18.5545736,218.164677 20.0348163,214.379544 20.4182775,206.867003 L9.28553329,206.867003 C9.01379815,209.193936 8.86789803,211.533843 8.84847,213.876508 C8.84847,221.77251 11.1533604,227.260541 11.1533604,227.260541 L1.00607021,222.160095 L1.00607021,189.58651 C1.00607021,189.58651 5.83438259,190.794619 13.6767824,190.794619 Z" id="Shape"></path>
                                <path d="M39.3439426,270.265919 L29.8027685,266.142681 C32.5983242,263.895516 35.5052074,259.285735 35.5052074,254.131687 C35.5052074,251.608265 35.1753483,248.771477 32.7632538,248.647779 C30.5696908,248.759107 29.1966524,252.432912 28.1575963,257.75189 C26.182565,267.89918 22.673689,273.383088 14.2828984,273.383088 C3.48001336,273.383088 0.131943635,261.318492 0.131943635,249.963093 C0.131943635,241.679506 1.55858418,235.647208 4.02428086,231.754871 L12.6830819,235.465786 C9.55766703,238.537598 7.32287172,242.924724 7.32287172,248.627163 C7.32287172,251.150585 8.036192,255.537711 10.8317478,255.537711 C13.3551698,255.537711 14.06849,251.414473 15.2188736,245.666678 C16.7527184,237.989208 20.7027809,232.835159 28.9863672,232.835159 C37.5956894,232.835159 42.8610651,242.652591 42.8610651,253.401874 C42.8528186,259.133175 41.1540443,267.63117 39.3439426,270.265919 Z" id="Shape"></path>
                                <path d="M1.00607021,281.452266 C1.00607021,281.452266 5.95395651,282.713977 13.7881098,282.713977 L30.6274162,282.713977 C37.9750273,282.713977 42.1436215,281.452266 42.1436215,281.452266 L42.1436215,300.266603 C42.1436215,300.266603 37.9750273,298.786361 30.6274162,298.786361 L13.7881098,298.786361 C5.95395651,298.786361 1.00607021,300.266603 1.00607021,300.266603 L1.00607021,281.452266 Z" id="Shape"></path>
                                <path d="M1.00607021,323.958732 L1.00607021,311.716837 C1.00607021,311.716837 6.32504799,312.978548 14.1674478,312.978548 L30.4542402,312.978548 C37.6369218,312.978548 42.1353751,311.114844 42.1353751,311.114844 L42.1353751,329.541597 C42.1353751,329.541597 38.0121365,330.366245 31.4396942,336.233613 L26.9041317,340.29088 L30.4707331,340.29088 C37.6534147,340.125951 42.151868,338.427176 42.151868,338.427176 L42.151868,350.821632 C42.151868,350.821632 37.8183443,349.287787 30.5779373,349.452716 L13.7963563,349.452716 C5.90035441,349.452716 1.01431669,351.262818 1.01431669,351.262818 L1.01431669,339.033292 C1.10853418,339.037503 1.2016182,339.055564 1.29057368,339.086895 C2.2224256,338.868363 6.00755861,337.606652 12.1511841,332.011417 L22.9540692,322.140384 L14.1220921,322.140384 C5.99931214,322.144507 1.00607021,323.958732 1.00607021,323.958732 Z M16.1960812,347.704463 C15.9775495,347.758065 15.9775495,347.758065 16.3074086,347.758065 C16.2663266,347.753891 16.2281933,347.734824 16.2002044,347.704463 L16.1960812,347.704463 Z" id="Shape"></path>
                                <path d="M21.6305096,401.450878 C9.67311771,401.450878 0.0206161929,394.70526 0.0206161929,380.224446 C0.0206161929,365.417896 9.67311771,358.72588 21.6305096,358.72588 C33.3116445,358.72588 43.0218714,365.252967 43.0218714,380.224446 C43.0177481,394.977394 33.3116445,401.450878 21.6305096,401.450878 Z M23.0571502,375.948647 C11.1574836,375.948647 8.13927296,378.14221 8.13927296,380.77696 C8.13927296,383.411709 11.0461562,384.450765 20.8635872,384.450765 C32.3261905,384.450765 34.9568167,382.36853 34.9568167,379.680178 C34.9568167,377.152633 32.214863,375.948647 23.0571502,375.948647 L23.0571502,375.948647 Z" id="Shape"></path>
                                <path d="M39.3439426,444.942799 L29.8027685,440.81956 C32.5983242,438.572395 35.5052074,433.962614 35.5052074,428.808566 C35.5052074,426.285144 35.1753483,423.448356 32.7632538,423.324659 C30.5696908,423.431863 29.1966524,427.109792 28.1575963,432.42877 C26.182565,442.57606 22.673689,448.059967 14.2828984,448.059967 C3.48001336,448.059967 0.131943635,435.995371 0.131943635,424.639972 C0.131943635,416.360509 1.55858418,410.324088 4.02428086,406.43175 L12.6830819,410.142665 C9.55766703,413.214478 7.32287172,417.601604 7.32287172,423.304043 C7.32287172,425.827465 8.036192,430.21459 10.8317478,430.21459 C13.3551698,430.21459 14.06849,426.091352 15.2188736,420.343557 C16.7527184,412.666087 20.7027809,407.512039 28.9863672,407.512039 C37.5956894,407.512039 42.8610651,417.32947 42.8610651,428.078753 C42.8528186,433.810054 41.1540443,442.308049 39.3439426,444.942799 Z" id="Shape"></path>
                            </g>
                            <path d="M101.019345,399.562435 L45.8091806,399.562435 C45.8091806,399.562435 49.5200954,385.077498 49.5200954,362.065703 L49.5200954,302.691068 C25.8650756,302.851874 14.1179689,304.78155 14.1179689,304.78155 L25.0610441,278.871118 L133.832078,278.871118 L122.87251,304.78155 C122.87251,304.78155 113.215885,303.173486 96.6404659,302.691068 L96.6404659,362.065703 C96.6610821,385.081621 101.019345,399.562435 101.019345,399.562435 Z" id="Shape" fill="#4486C6" style="mix-blend-mode: multiply;"></path>
                            <path d="M276.858978,524.195567 L245.378051,524.195567 C245.378051,524.195567 248.62304,510.502292 248.62304,490.319039 L248.62304,448.393949 C248.62304,429.901224 243.82359,418.327294 243.82359,418.327294 L291.240834,418.327294 C291.240834,418.327294 293.356055,428.91577 308.463602,445.854034 L318.911888,457.572278 L318.911888,448.398073 C318.499564,429.905348 314.112438,418.331417 314.112438,418.331417 L346.013935,418.331417 C346.013935,418.331417 342.05975,429.464161 342.484443,448.117692 L342.484443,491.31274 C342.484443,511.640306 347.139579,524.203814 347.139579,524.203814 L315.675146,524.203814 C315.687298,523.963217 315.734526,523.725686 315.815336,523.49874 C315.250452,521.099015 312.005464,511.359926 297.607114,495.547306 L272.199718,467.740185 L272.199718,490.467476 C272.199718,511.351679 276.858978,524.195567 276.858978,524.195567 Z M337.981867,485.094896 C338.122057,485.65978 338.122057,485.65978 338.122057,484.810392 C338.111516,484.920022 338.059976,485.021632 337.977743,485.094896 L337.981867,485.094896 Z" id="Shape" fill="#4486C6" style="mix-blend-mode: multiply;"></path>
                            <path d="M187.53726,607.109772 L187.53726,568.108058 C187.53726,551.083206 184.613884,541.430705 184.613884,541.430705 L228.192393,541.430705 C228.192393,541.430705 224.761858,551.087329 224.761858,568.108058 L224.761858,607.109772 C224.761858,610.919645 224.889679,614.477999 225.141196,617.652893 C230.414144,618.235681 235.714742,618.532988 241.019788,618.543513 C259.314598,618.543513 272.018296,613.208042 272.018296,613.208042 L260.205217,636.710502 L184.613884,636.710502 C184.613884,636.710502 187.53726,625.276761 187.53726,607.109772 Z" id="Shape" fill="#4486C6" style="mix-blend-mode: multiply;"></path>
                            <path d="M254.333725,733.11182 C254.333725,733.11182 255.72738,723.455195 255.72738,708.116748 L255.72738,675.180318 C255.72738,660.802585 254.333725,652.650942 254.333725,652.650942 L279.328798,652.650942 C279.328798,652.650942 277.506326,660.802585 277.506326,675.180318 L277.506326,708.116748 C277.506326,723.459318 279.328798,733.11182 279.328798,733.11182 L254.333725,733.11182 Z" id="Shape" fill="#4486C6" style="mix-blend-mode: multiply;"></path>
                            <path d="M447.416742,546.048732 L437.887937,568.153414 C432.680287,561.675806 422.009346,554.95905 410.064323,554.95905 C404.221694,554.95905 397.612143,555.72185 397.360625,561.312961 C397.616266,566.392791 406.126631,569.559438 418.446868,571.983903 C441.949327,576.556574 454.653026,584.687601 454.653026,604.145164 C454.653026,629.173222 426.701591,636.920787 400.407699,636.920787 C381.226393,636.920787 366.081738,633.411911 357.060092,627.692979 L366.869276,607.827216 C373.981863,615.067623 384.145646,620.275273 397.360625,620.275273 C403.203254,620.275273 413.367038,618.625977 413.367038,612.144246 C413.367038,606.301617 403.838233,604.648199 390.499556,601.980463 C372.711905,598.422108 360.771006,589.276765 360.771006,570.091336 C360.771006,550.147231 383.510667,537.930075 408.410905,537.930075 C421.625884,537.917705 441.318472,541.855398 447.416742,546.048732 Z" id="Shape" fill="#4486C6" style="mix-blend-mode: multiply;"></path>
                        </g>
                    </g>
                </g>
            </g>
        </g>
    </g>
</svg>