<?xml version="1.0" encoding="UTF-8" standalone="no"?>
<svg width="640px" height="360px" viewBox="0 0 640 360" version="1.1" xmlns="http://www.w3.org/2000/svg" xmlns:xlink="http://www.w3.org/1999/xlink">
    <!-- Generator: Sketch 42 (36781) - http://www.bohemiancoding.com/sketch -->
    <title>newbohemianflare</title>
    <desc>Created with Sketch.</desc>
    <defs>
        <polygon id="path-1" points="717.369438 935.996152 717.369438 0.261993826 0 0.261993826 8.04484916e-16 935.996152 717.369438 935.996152"></polygon>
        <polygon id="path-3" points="717.369438 935.991669 717.369438 0.257510267 3.01681844e-16 0.257510267 0 935.991669 717.369438 935.991669"></polygon>
        <polygon id="path-5" points="0 551.954099 0 0.110413301 717.369438 0.110413301 717.369438 551.954099 1.89053955e-14 551.954099"></polygon>
        <polygon id="path-7" points="0 1956.4621 717.369438 1956.4621 717.369438 0 0 0"></polygon>
    </defs>
    <g id="Page-1" stroke="none" stroke-width="1" fill="none" fill-rule="evenodd">
        <g id="newbohemianflare">
            <g id="New-Bohemian-Flare-poster-with-white-edges" transform="translate(-12.921875, -506.116676)">
                <g id="Group-62">
                    <path d="M111.788667,598.615675 C115.275426,599.743811 118.808833,600.871947 122.384358,601.998724 L251.455605,601.998724 C253.374931,589.522655 254.334593,577.047039 254.334593,563.610402 C254.334593,549.214101 234.180316,512.744199 170.838497,512.744199 C137.961329,512.744199 114.100643,517.617691 98.5118975,526.992406 C102.081082,554.525987 107.076401,578.717731 111.788667,598.615675" id="Fill-9" fill="#FFDA1A"></path>
                    <path d="M246.150377,857.742469 L492.800468,797.279638 L500.478223,795.359859 L498.543046,794.906975 C497.440272,794.905616 496.335233,794.90471 495.226118,794.90471 L246.150377,794.90471 L246.150377,857.742469 Z" id="Fill-11" fill="#FFDA1A"></path>
                    <path d="M342.629411,601.039107 L495.225756,601.039107 C622.077868,601.039107 705.470706,587.101579 717.369347,584.991589 L717.369347,481.551354 C664.738705,498.561252 594.247647,509.935453 509.621604,517.543464 C401.173369,527.140544 350.307166,545.375496 342.629411,601.039107" id="Fill-21" fill="#FFDA1A"></path>
                    <path d="M0,899.088129 C11.4457562,899.326346 63.6312126,899.047369 157.855696,878.856408 L157.855696,795.379333 C69.2152815,797.36795 12.951598,805.014003 0,806.938764 L0,899.088129 Z" id="Fill-29" fill="#FFDA1A"></path>
                    <g id="Group-45">
                        <g id="Group-38" transform="translate(0.000000, 201.986597)">
                            <mask id="mask-2" fill="white">
                                <use xlink:href="#path-1"></use>
                            </mask>
                            <g id="Clip-37"></g>
                            <path d="M500.478313,593.373444 L246.150468,533.870276 L246.150468,655.7556 L492.800558,595.292769 L500.478313,593.373444 Z M217.358773,22.3351435 L514.874614,22.3351435 C583.0152,22.3351435 654.99489,17.5368296 717.377046,0.261993826 L717.376593,239.233876 C657.873425,226.757354 579.176096,217.159821 511.03551,217.159821 L94.5137857,217.159821 C93.5536701,227.717017 93.5536701,238.274213 93.5536701,249.791073 C93.5536701,309.293335 103.151204,360.159991 111.788621,396.628988 C144.41942,407.186637 180.88887,417.743381 222.157087,427.340914 L510.075394,495.4815 C636.759938,526.192521 717.376593,529.071962 717.376593,529.071962 L717.376593,762.285415 C717.376593,762.285415 614.686336,766.124519 491.840896,795.876782 L201.043147,865.936241 C67.6405107,897.606924 -2.41894801,935.996152 -2.41894801,935.996152 L-2.41894801,697.02427 C-2.41894801,697.02427 50.3661278,699.903711 157.855605,676.86954 L157.855605,514.675661 C57.0842201,493.561722 -2.41894801,487.803745 -2.41894801,487.803745 L-2.41894801,10.8187373 C-2.41894801,10.8187373 80.1174854,22.3351435 217.358773,22.3351435 L217.358773,22.3351435 Z" id="Fill-36" fill="#CD3A86" mask="url(#mask-2)"></path>
                        </g>
                    </g>
                    <g id="Group-58">
                        <g id="Group-51" transform="translate(0.000000, 814.739658)">
                            <mask id="mask-4" fill="white">
                                <use xlink:href="#path-3"></use>
                            </mask>
                            <g id="Clip-50"></g>
                            <path d="M215.94532,342.879766 L470.273165,402.382934 L470.273165,280.497609 L223.623075,340.96044 L215.94532,342.879766 Z M499.06486,913.918066 L201.549019,913.918066 C133.408433,913.918066 61.4287435,918.71638 -0.953412967,935.991669 L-0.952960083,697.019333 C58.550208,709.495855 137.247537,719.093389 205.388123,719.093389 L621.909847,719.093389 C622.86951,708.536192 622.86951,697.978996 622.86951,686.462137 C622.86951,626.959875 613.27243,576.093219 604.634559,539.624222 C572.004213,529.066572 535.53431,518.509829 494.266093,508.912295 L206.348239,440.771709 C79.6636949,410.060689 -0.952960083,407.181248 -0.952960083,407.181248 L-0.952960083,173.967795 C-0.952960083,173.967795 101.737297,170.129144 224.582738,140.376428 L515.380033,70.3169689 C648.783123,38.6462858 718.842128,0.257510267 718.842128,0.257510267 L718.842128,239.22894 C718.842128,239.22894 666.057052,236.349499 558.568028,259.38367 L558.568028,421.577548 C659.33896,442.691488 718.842128,448.449465 718.842128,448.449465 L718.842128,925.434472 C718.842128,925.434472 636.305695,913.918066 499.06486,913.918066 L499.06486,913.918066 Z" id="Fill-49" fill="#457BB2" mask="url(#mask-4)"></path>
                        </g>
                        <g id="Group-54" transform="translate(0.000000, 255.426997)">
                            <mask id="mask-6" fill="white">
                                <use xlink:href="#path-5"></use>
                            </mask>
                            <g id="Clip-53"></g>
                            <path d="M170.838407,257.317247 C105.576356,257.317247 75.8254514,276.511861 75.8254514,312.022554 C75.8254514,323.53896 76.7851142,335.055367 79.6641025,346.571773 L251.455515,346.571773 C253.37484,334.095704 254.334503,321.619635 254.334503,308.182997 C254.334503,293.78715 234.180226,257.317247 170.838407,257.317247 M718.842083,329.29739 L718.842083,551.954099 C718.842083,551.954099 632.466998,539.477578 495.226164,539.477578 L200.589764,539.477578 C72.9460102,539.477578 -2.87233092,551.954099 -2.87233092,551.954099 L-2.87187804,262.116467 C-2.87187804,151.747548 60.4699412,63.4522325 140.126933,63.4522325 C223.623482,63.4522325 290.804406,114.317983 314.797334,208.372181 C343.589029,146.948782 401.172871,96.0830314 480.830316,77.8485328 C565.287434,57.6942559 646.863299,35.6206534 718.842536,0.110413301 L718.842083,225.647017 C666.05746,242.922305 595.037433,254.437806 509.622011,262.116467 C401.173324,271.713547 350.307121,289.948499 342.629366,345.61211 L495.226164,345.61211 C632.466998,345.61211 718.842083,329.29739 718.842083,329.29739" id="Fill-52" fill="#457BB2" mask="url(#mask-6)"></path>
                        </g>
                    </g>
                    <mask id="mask-8" fill="white">
                        <use xlink:href="#path-7"></use>
                    </mask>
                    <g id="Clip-60"></g>
                    <path d="M4.01754058,1952.38614 L713.235053,1952.38614 L713.235053,4.07596271 L4.01754058,4.07596271 L4.01754058,1952.38614 Z M-27.6259695,1975.93615 L747.939158,1975.93615 L747.939158,-28.0788543 L-27.6259695,-28.0788543 L-27.6259695,1975.93615 Z" id="Fill-59" fill="#FFFFFF" mask="url(#mask-8)"></path>
                    <path d="M0,1956.4621 L717.369438,1956.4621 L717.369438,-2.27373675e-13 L0,-2.27373675e-13 L0,1956.4621 Z M-851.423322,2326.46894 L1409.37733,2326.46894 L1409.37733,-314.754898 L-851.423322,-314.754898 L-851.423322,2326.46894 Z" id="Fill-61" fill="#575754" mask="url(#mask-8)"></path>
                </g>
                <g id="Group-1543" transform="translate(34.419241, 29.890393)">
                    <polygon id="Fill-63" fill="#FFFFFF" points="0.105522146 1893.56003 648.30859 1893.56003 648.30859 0.0267202 0.105522146 0.0267202"></polygon>
                    <g id="Group-142" transform="translate(10.869234, 303.885665)">
                        <path d="M71.9144746,271.422569 L18.7340304,271.422569 C18.7340304,271.422569 22.3000449,257.468284 22.3000449,235.297311 L22.3000449,187.543785 C22.3000449,167.077923 18.8893699,154.829203 18.8893699,154.829203 L67.728008,155.139429 L128.040481,155.139429 L116.877325,181.496868 C116.877325,181.496868 100.287704,177.775967 67.728008,177.620627 L67.728008,196.071152 C89.5896605,195.915813 111.606199,192.97025 111.606199,192.97025 L99.6677047,221.808139 C99.6677047,221.808139 88.9696612,217.622578 67.728008,216.537014 L67.728008,235.297311 C67.728008,257.468284 71.9144746,271.422569 71.9144746,271.422569" id="Fill-108" fill="#457BB2"></path>
                        <path d="M175.327672,209.094759 C175.327672,242.739566 181.529476,251.266933 188.971278,251.266933 C196.413986,251.266933 199.359548,243.04934 199.359548,215.296562 C199.359548,182.892206 193.467971,175.449951 185.870829,175.449951 C178.7388,175.449951 175.327672,183.202432 175.327672,209.094759 M247.4233,213.125886 C247.4233,246.92558 228.352777,274.213698 187.421053,274.213698 C145.559558,274.213698 126.643468,246.92558 126.643468,213.125886 C126.643468,180.10153 145.093992,152.658526 187.421053,152.658526 C229.128115,152.658526 247.4233,180.10153 247.4233,213.125886" id="Fill-110" fill="#CD3A86"></path>
                        <path d="M356.280988,233.004356 C356.435874,233.624355 356.435874,233.624355 356.435874,232.69413 C356.435874,232.69413 356.435874,232.849469 356.280988,233.004356 M289.146712,275.951416 L254.571679,275.951416 C254.571679,275.951416 258.137693,260.912473 258.137693,238.741047 L258.137693,192.692632 C258.137693,172.38211 252.866115,159.668276 252.866115,159.668276 L304.961447,159.668276 C304.961447,159.668276 307.286104,171.296545 323.876178,189.901956 L335.350013,202.770676 L335.350013,192.692632 C334.884901,172.38211 330.078435,159.668276 330.078435,159.668276 L365.118581,159.668276 C365.118581,159.668276 360.776775,171.916544 361.242793,192.382406 L361.242793,239.826159 C361.242793,262.152471 366.358126,275.951416 366.358126,275.951416 L331.783999,275.951416 C331.783999,275.951416 331.783999,275.641643 331.938886,275.176531 C331.318886,272.540289 327.752872,261.842245 311.938589,244.477285 L284.03002,213.933832 L284.03002,238.895934 C284.03002,261.842245 289.146712,275.951416 289.146712,275.951416" id="Fill-112" fill="#CD3A86"></path>
                        <path d="M458.127838,271.422569 L404.947847,271.422569 C404.947847,271.422569 408.513408,257.468284 408.513408,235.297311 L408.513408,178.08574 C385.721983,178.24108 374.403941,180.10153 374.403941,180.10153 L384.946645,155.139429 L489.756856,155.139429 L479.214152,180.10153 C479.214152,180.10153 469.911446,178.551306 453.941824,178.08574 L453.941824,235.297311 C453.941824,257.468284 458.127838,271.422569 458.127838,271.422569" id="Fill-114" fill="#457BB2"></path>
                        <path d="M61.1779359,395.458145 L16.2463345,395.458145 C16.2463345,395.458145 18.0601379,382.899651 18.0601379,362.945096 L18.0601379,320.107181 C18.0601379,301.408928 16.2463345,290.803726 16.2463345,290.803726 L61.1779359,290.803726 C61.1779359,290.803726 58.8057256,301.408928 58.8057256,320.107181 L58.8057256,328.61915 C60.7590175,326.386428 63.1312278,323.874729 66.2013335,320.246669 C81.4110148,302.804719 82.2483987,290.803726 82.2483987,290.803726 L128.43585,290.803726 C128.43585,290.803726 117.830647,297.780869 102.481478,316.339633 C97.3185915,322.61888 92.7141123,328.61915 89.3650296,332.805163 C100.248756,336.991177 110.714469,346.619507 113.226168,361.271234 C118.389054,390.713724 125.365744,395.458145 125.365744,395.458145 L75.8296632,395.458145 C75.8296632,395.458145 71.7826851,384.294989 71.7826851,370.620134 C71.7826851,351.921882 67.1782059,347.037972 58.8057256,346.340077 L58.8057256,362.945096 C58.8057256,382.899651 61.1779359,395.458145 61.1779359,395.458145" id="Fill-116" fill="#CD3A86"></path>
                        <path d="M132.861077,395.458145 C132.861077,395.458145 136.070671,382.899651 136.070671,362.945096 L136.070671,320.107181 C136.070671,301.408928 132.861077,290.803726 132.861077,290.803726 L180.722843,290.803726 C180.722843,290.803726 176.955295,301.408928 176.955295,320.107181 L176.955295,362.945096 C176.955295,382.899651 180.722843,395.458145 180.722843,395.458145 L132.861077,395.458145 Z" id="Fill-118" fill="#457BB2"></path>
                        <path d="M199.711802,358.416475 L199.711802,315.57856 C199.711802,296.880307 196.502208,286.274652 196.502208,286.274652 L244.363973,286.274652 C244.363973,286.274652 240.596425,296.880307 240.596425,315.57856 L240.596425,358.416475 C240.596425,362.602489 240.735914,366.510431 241.014891,369.998097 C246.038288,370.556957 252.178047,370.975422 258.457294,370.975422 C278.550884,370.975422 292.504716,365.115093 292.504716,365.115093 L279.527757,390.929524 L196.502208,390.929524 C196.502208,390.929524 199.711802,378.37103 199.711802,358.416475" id="Fill-120" fill="#CD3A86"></path>
                        <path d="M289.949495,362.945323 L289.949495,320.107407 C289.949495,301.409155 286.740354,290.8035 286.740354,290.8035 L334.601667,290.8035 C334.601667,290.8035 330.834571,301.409155 330.834571,320.107407 L330.834571,362.945323 C330.834571,367.131336 330.973607,371.039279 331.25349,374.526944 C336.276434,375.085804 342.416193,375.50427 348.69544,375.50427 C368.78903,375.50427 382.743315,369.643941 382.743315,369.643941 L369.76545,395.458371 L286.740354,395.458371 C286.740354,395.458371 289.949495,382.899877 289.949495,362.945323" id="Fill-122" fill="#457BB2"></path>
                        <path d="M474.910252,297.920312 L464.444991,322.200369 C458.723698,315.083285 447.002588,307.68813 433.885687,307.68813 C427.467405,307.68813 420.210833,308.525514 419.931856,314.665273 C420.210833,320.246624 429.560185,323.734743 443.095099,326.386383 C468.909982,331.40978 482.863814,340.340215 482.863814,361.689654 C482.863814,389.179306 452.164569,397.690822 423.280485,397.690822 C402.210475,397.690822 385.575566,393.834961 375.667806,387.556167 L386.44284,365.736633 C394.256461,373.689742 405.42007,379.411035 419.931856,379.411035 C426.351044,379.411035 437.5142,377.597231 437.5142,370.4806 C437.5142,364.061865 427.048486,362.248061 412.397212,359.317444 C392.861123,355.410407 379.744675,345.363612 379.744675,324.293149 C379.744675,302.385303 404.722627,288.989878 432.071431,288.989878 C446.584123,288.989878 468.212087,293.315833 474.910252,297.920312" id="Fill-124" fill="#CD3A86"></path>
                        <path d="M42.3208567,500.888084 L14.8651719,500.888084 C14.8651719,500.888084 16.397281,490.283334 16.397281,473.432399 L16.397281,437.257324 C16.397281,421.467497 14.8651719,412.512154 14.8651719,412.512154 L73.3117599,412.512154 L67.5374794,425.945169 C67.5374794,425.945169 55.4006211,425.120466 40.7887476,424.766763 C40.5532476,428.184231 40.3172946,432.426402 40.3172946,437.257324 L40.3172946,443.620354 C51.5121526,443.384402 60.1137926,442.913401 60.1137926,442.913401 L53.8689649,457.289322 C53.8689649,457.289322 48.3306373,456.700119 40.3172946,456.110916 L40.3172946,473.432399 C40.3172946,490.283334 42.3208567,500.888084 42.3208567,500.888084" id="Fill-126" fill="#CD3A86"></path>
                        <path d="M91.6041371,439.142321 L84.2982004,470.36963 L99.2633239,470.36963 L91.84009,440.085227 L91.6041371,439.142321 Z M101.855636,481.209879 L81.941841,481.209879 C79.3490759,493.58269 78.6421228,500.888174 78.6421228,500.888174 L62.4985931,500.888174 C62.4985931,500.888174 67.3299676,489.576472 71.218436,473.315192 L79.5850288,437.963915 C83.3557472,422.410041 83.7089973,412.512245 83.7089973,412.512245 L112.343088,412.512245 C112.343088,412.512245 112.814088,425.120556 116.46751,440.20343 L125.06915,475.907504 C128.958071,492.286081 133.671242,500.888174 133.671242,500.888174 L104.330198,500.888174 C104.330198,500.888174 104.683901,494.407393 101.855636,481.209879 L101.855636,481.209879 Z" id="Fill-128" fill="#457BB2"></path>
                        <path d="M194.325825,419.700114 L182.89592,439.260659 C180.303607,430.65902 173.586874,423.11713 166.87014,423.11713 C162.510219,423.11713 158.504,425.238442 158.504,431.129567 C158.504,436.903847 164.395578,440.792316 170.994561,444.091581 C183.13142,450.219112 195.268278,456.935845 195.268278,474.611031 C195.268278,494.878982 179.478451,503.009169 163.806375,503.009169 C151.315813,503.009169 139.178955,498.060498 132.815924,493.111373 L140.475111,474.728781 C145.659736,483.094921 153.908126,489.811655 161.450015,489.811655 C167.459343,489.811655 170.758608,486.983842 170.758608,482.387968 C170.758608,476.37864 164.749281,474.022281 156.972344,469.66236 C143.774377,462.23822 134.229831,455.050486 134.229831,439.025159 C134.229831,424.649239 142.831923,410.626116 165.456234,410.626116 C178.535545,410.626116 189.6122,415.811193 194.325825,419.700114" id="Fill-130" fill="#457BB2"></path>
                        <path d="M241.123085,435.607691 C239.944679,426.180895 236.645866,422.527927 232.639195,422.527927 C228.750727,422.527927 226.393914,436.079144 226.393914,452.693674 C226.393914,478.4995 230.871586,490.636358 238.530773,490.636358 C244.540553,490.636358 251.021787,485.923639 254.673849,479.678359 L262.451692,494.407529 C256.206411,499.945404 247.486568,503.009169 234.760507,503.009169 C210.839588,503.009169 199.998886,482.270218 199.998886,456.582142 C199.998886,431.60102 210.604088,410.744319 234.760507,410.744319 C248.547677,410.744319 257.974021,417.814302 263.276395,428.537254 L241.123085,435.607691 Z" id="Fill-132" fill="#CD3A86"></path>
                        <path d="M263.956175,505.416931 C263.956175,505.416931 265.488737,494.812182 265.488737,477.961246 L265.488737,441.786171 C265.488737,425.996345 263.956175,417.041002 263.956175,417.041002 L291.411407,417.041002 C291.411407,417.041002 289.408298,425.996345 289.408298,441.786171 L289.408298,477.961246 C289.408298,494.812182 291.411407,505.416931 291.411407,505.416931 L263.956175,505.416931 Z" id="Fill-134" fill="#CD3A86"></path>
                        <path d="M361.176491,419.700114 L349.746585,439.260659 C347.15382,430.65902 340.437992,423.11713 333.721259,423.11713 C329.361337,423.11713 325.354213,425.238442 325.354213,431.129567 C325.354213,436.903847 331.246244,440.792316 337.845227,444.091581 C349.982538,450.219112 362.119397,456.935845 362.119397,474.611031 C362.119397,494.878982 346.32957,503.009169 330.657946,503.009169 C318.166932,503.009169 306.029621,498.060498 299.667043,493.111373 L307.325777,474.728781 C312.510855,483.094921 320.758792,489.811655 328.300681,489.811655 C334.310009,489.811655 337.609274,486.983842 337.609274,482.387968 C337.609274,476.37864 331.599947,474.022281 323.82301,469.66236 C310.625042,462.23822 301.080496,455.050486 301.080496,439.025159 C301.080496,424.649239 309.683042,410.626116 332.307805,410.626116 C345.386664,410.626116 356.463772,415.811193 361.176491,419.700114" id="Fill-136" fill="#457BB2"></path>
                        <path d="M407.293337,500.888084 L379.837199,500.888084 C379.837199,500.888084 381.368855,490.283334 381.368855,473.432399 L381.368855,424.41306 C374.770325,424.649012 367.464388,425.002263 361.45506,425.827419 L367.347091,412.629904 L381.368855,412.629904 L381.368855,412.512154 L405.289322,412.512154 L405.289322,412.629904 L426.264226,412.629904 L420.254898,425.827419 C420.254898,425.827419 414.952071,424.649012 405.289322,424.41306 L405.289322,473.432399 C405.289322,490.283334 407.293337,500.888084 407.293337,500.888084" id="Fill-138" fill="#457BB2"></path>
                        <path d="M481.482833,419.700114 L470.052927,439.260659 C467.460162,430.65902 460.742976,423.11713 454.027148,423.11713 C449.666773,423.11713 445.661461,425.238442 445.661461,431.129567 C445.661461,436.903847 451.552586,440.792316 458.151116,444.091581 C470.287975,450.219112 482.425739,456.935845 482.425739,474.611031 C482.425739,494.878982 466.635459,503.009169 450.96293,503.009169 C438.472821,503.009169 426.33551,498.060498 419.972932,493.111373 L427.632119,474.728781 C432.816291,483.094921 441.065586,489.811655 448.60657,489.811655 C454.616804,489.811655 457.916069,486.983842 457.916069,482.387968 C457.916069,476.37864 451.905836,474.022281 444.128899,469.66236 C430.931384,462.23822 421.386385,455.050486 421.386385,439.025159 C421.386385,424.649239 429.989384,410.626116 452.613242,410.626116 C465.693006,410.626116 476.769661,415.811193 481.482833,419.700114" id="Fill-140" fill="#CD3A86"></path>
                    </g>
                    <polygon id="Fill-243" fill="#457BB2" points="26.1522825 1253.60083 617.166876 1253.60083 617.166876 826.861118 26.1522825 826.861118"></polygon>
                    <polygon id="Fill-245" fill="#CD3A86" points="31.2472359 1249.0901 622.261829 1249.0901 622.261829 822.350386 31.2472359 822.350386"></polygon>
                    <g id="Group-856" transform="translate(507.683800, 309.320282)" fill="#457BB2">
                        <path d="M13.0606979,161.278055 L13.0606979,149.620802 C13.0606979,149.620802 17.4586617,150.33636 25.127812,150.33636 L27.4796424,150.33636 C34.4336877,150.33636 38.5753187,149.620802 38.5753187,149.620802 L38.5753187,160.358246 L34.9449946,160.358246 C37.6550569,161.891714 39.0866256,164.243997 39.0866256,166.442753 C39.0866256,167.618441 38.9330977,168.743407 38.5753187,169.510594 L27.4796424,164.959555 C27.7866983,164.703675 28.1956532,163.73269 28.1956532,162.761253 C28.1956532,161.483212 27.6843464,160.409422 25.2301639,160.409422 L25.3325159,160.358246 L25.1789879,160.358246 C17.4586617,160.358246 13.0606979,161.278055 13.0606979,161.278055" id="Fill-830"></path>
                        <path d="M13.0606979,182.292949 L13.0606979,170.635695 C13.0606979,170.635695 17.4586617,171.351253 25.127812,171.351253 L27.4796424,171.351253 C34.4336877,171.351253 38.5753187,170.635695 38.5753187,170.635695 L38.5753187,181.372234 L34.9449946,181.372234 C37.6550569,182.906608 39.0866256,185.258891 39.0866256,187.457646 C39.0866256,188.633335 38.9330977,189.758301 38.5753187,190.524582 L27.4796424,185.974449 C27.7866983,185.718569 28.1956532,184.747584 28.1956532,183.775241 C28.1956532,182.4972 27.6843464,181.424316 25.2301639,181.424316 L25.3325159,181.372234 L25.1789879,181.372234 C17.4586617,181.372234 13.0606979,182.292949 13.0606979,182.292949" id="Fill-832"></path>
                        <path d="M21.8043625,205.711166 L22.2649463,205.65999 L23.0824033,205.608361 C24.4120729,205.251035 25.2816116,204.28005 25.2816116,203.103456 C25.2816116,201.774239 23.951942,201.058681 22.5710964,201.058681 C20.5263218,201.058681 19.2478281,202.285546 19.2478281,203.665939 C19.2478281,205.045878 20.4746929,205.608361 21.8043625,205.711166 M15.3109011,206.886855 C13.6746285,205.608361 12.6008387,203.614763 12.6008387,200.700449 C12.6008387,195.023992 15.4639761,190.729739 21.2930557,190.729739 C27.2752103,190.729739 30.2406996,196.558818 30.2406996,201.774239 C30.2406996,202.899205 30.0364486,203.870643 29.6270408,204.688552 C32.6441589,203.972089 33.8198477,202.848029 33.8198477,200.751625 C33.8198477,198.092739 31.6722683,195.229149 30.1899765,194.206988 L35.9162512,191.139147 C35.9162512,191.139147 39.2399724,195.893531 39.2399724,203.307707 C39.2399724,214.095874 30.0364486,214.812338 23.696515,215.374821 C17.3561286,215.937304 13.0605167,218.186782 13.0605167,218.186782 L13.0605167,207.756394 C13.0605167,207.756394 13.7258044,207.346533 15.3109011,206.886855" id="Fill-834"></path>
                        <path d="M26.763994,240.582431 L28.5021656,245.643871 C31.109876,245.43962 34.2288932,244.672433 34.2288932,242.83191 C34.2288932,240.68433 30.9568009,240.582431 26.763994,240.582431 M25.9456312,229.435579 C36.1205928,229.435579 39.240063,237.259163 39.240063,243.291588 C39.240063,249.376547 35.813537,256.636742 26.5597429,256.636742 L21.3443222,240.888581 C18.8896869,241.45197 17.7647212,242.780734 17.714451,245.18374 C17.7647212,248.148777 19.0939379,250.859745 21.8556291,252.699815 L15.7711225,255.307526 C13.981322,252.750991 12.4478543,247.688646 12.4478543,243.291588 C12.4478543,237.259163 15.4640667,229.435579 25.9456312,229.435579" id="Fill-836"></path>
                        <path d="M15.5661469,258.119306 L22.0600613,259.95983 C19.1969239,262.568446 17.5601984,266.095965 17.5601984,268.907926 C17.5601984,271.208581 18.2250332,271.822693 19.7082308,271.822693 C20.8839196,271.822693 21.7530054,269.419233 22.3154883,266.811523 C23.082675,263.385903 25.2814305,258.988845 30.5987503,259.040021 C36.4790058,258.988845 39.2397912,265.533482 39.2397912,270.902884 C39.2397912,275.095238 37.0926646,280.566086 35.916523,282.100006 L30.1897953,279.082888 C31.621364,277.957922 33.8712954,274.94171 33.8712954,271.566813 C33.8712954,270.033345 33.4623405,268.85675 32.3373748,268.907926 C31.0081581,268.85675 31.0593341,271.669618 29.8315635,274.992886 C28.2976429,279.134064 25.5880334,282.253081 20.7820205,282.253081 C15.8220268,282.253081 12.1917027,277.190736 12.1917027,271.515637 C12.1917027,263.898115 14.1345782,260.011458 15.5661469,258.119306" id="Fill-838"></path>
                        <path d="M13.0606979,300.456059 C13.0606979,300.456059 18.5319985,300.353254 25.0761831,298.922138 L40.5689174,295.445342 C47.6764906,293.860246 51.4091667,291.916917 51.4091667,291.916917 L51.4091667,304.648866 C51.4091667,304.648866 47.8807416,304.34181 40.6717222,306.029712 L27.4293722,309.045924 L31.7236254,310.47704 C42.102838,313.90266 51.4091667,308.636063 51.4091667,308.636063 L51.4091667,321.469911 C51.4091667,321.469911 44.1996944,323.208989 33.921928,318.505328 L24.46343,314.15854 C20.1678182,312.164941 14.5950714,312.471544 13.3165778,312.573443 C13.1635027,312.624619 13.0606979,312.624619 13.0606979,312.624619 L13.0606979,300.456059 Z" id="Fill-840"></path>
                        <path d="M16.589123,339.008779 C14.6462474,337.576757 12.5498439,335.276103 12.5498439,331.747678 C12.5498439,324.282778 19.3499084,322.851663 23.2361124,323.464868 L26.5082047,323.976175 C34.1270847,325.151411 38.5753187,321.726697 38.5753187,321.726697 L38.5753187,333.179699 C38.5753187,333.179699 33.6157779,335.429178 26.7129086,333.844081 C26.6105566,333.844081 24.6676811,333.589107 24.46343,333.537025 C21.190432,333.128523 20.0147432,334.150684 20.0147432,336.144736 C20.0147432,338.088064 22.1111467,338.957603 26.3039536,338.957603 L26.2527777,339.008779 L26.4570287,339.008779 C34.1782607,339.008779 38.5753187,338.088064 38.5753187,338.088064 L38.5753187,349.746223 C38.5753187,349.746223 34.1782607,349.02976 26.5082047,349.02976 L24.1563742,349.02976 C17.2023289,349.02976 13.0606979,350.768837 13.0606979,350.768837 L13.0606979,339.008779 L16.589123,339.008779 Z" id="Fill-842"></path>
                        <path d="M26.763994,363.959875 L28.5021656,369.022221 C31.109876,368.81797 34.2288932,368.050783 34.2288932,366.210259 C34.2288932,364.06268 30.9568009,363.959875 26.763994,363.959875 M25.9456312,352.813929 C36.1205928,352.813929 39.240063,360.636607 39.240063,366.669937 C39.240063,372.754897 35.813537,380.015092 26.5597429,380.015092 L21.3443222,364.266931 C18.8896869,364.829414 17.7647212,366.158631 17.714451,368.56209 C17.7647212,371.528032 19.0939379,374.237189 21.8556291,376.078165 L15.7711225,378.685875 C13.981322,376.129341 12.4478543,371.066995 12.4478543,366.669937 C12.4478543,360.636607 15.4640667,352.813929 25.9456312,352.813929" id="Fill-844"></path>
                        <path d="M15.5661469,381.497701 L22.0600613,383.338225 C19.1969239,385.945935 17.5601984,389.47436 17.5601984,392.286321 C17.5601984,394.586976 18.2250332,395.201088 19.7082308,395.201088 C20.8839196,395.201088 21.7530054,392.797628 22.3154883,390.189918 C23.082675,386.764298 25.2814305,382.36724 30.5987503,382.418416 C36.4790058,382.36724 39.2397912,388.911877 39.2397912,394.280373 C39.2397912,398.472727 37.0926646,403.944028 35.916523,405.477495 L30.1897953,402.461283 C31.621364,401.336317 33.8712954,398.320105 33.8712954,394.945208 C33.8712954,393.410834 33.4623405,392.235145 32.3373748,392.286321 C31.0081581,392.235145 31.0593341,395.048013 29.8315635,398.370375 C28.2976429,402.512459 25.5880334,405.631476 20.7820205,405.631476 C15.8220268,405.631476 12.1917027,400.569131 12.1917027,394.894032 C12.1917027,387.275605 14.1345782,383.389853 15.5661469,381.497701" id="Fill-846"></path>
                        <path d="M12.4477184,418.66962 C12.4477184,412.585567 15.4127548,410.18256 22.62268,410.18256 L31.9281029,410.18256 C32.5417617,410.18256 33.1042445,410.18256 33.6155514,410.233736 L33.6155514,405.478446 C38.8309722,409.364198 43.1261311,414.375367 46.2958714,420.050466 L38.6262683,420.050466 L38.6262683,430.225428 L32.6952896,427.668893 C32.6952896,427.668893 33.3601244,424.959737 33.5643755,420.050466 L29.3208454,420.050466 L29.3715685,420.101642 C22.6734031,420.101642 18.9411799,420.357522 18.9411799,422.964779 C18.9411799,425.061183 20.0661456,426.646279 21.6000662,427.975949 L16.0264137,429.151638 C13.7257592,427.208762 12.4477184,421.635563 12.4477184,418.66962" id="Fill-848"></path>
                        <path d="M13.0606979,443.622483 L13.0606979,431.964324 C13.0606979,431.964324 17.4586617,432.680788 25.127812,432.680788 L27.4796424,432.680788 C34.4336877,432.680788 38.5753187,431.964324 38.5753187,431.964324 L38.5753187,442.701768 L34.9449946,442.701768 C37.6550569,444.235689 39.0866256,446.587519 39.0866256,448.786275 C39.0866256,449.961964 38.9330977,451.086929 38.5753187,451.854116 L27.4796424,447.303077 C27.7866983,447.047197 28.1956532,446.076213 28.1956532,445.104775 C28.1956532,443.825828 27.6843464,442.752944 25.2301639,442.752944 L25.3325159,442.701768 L25.1789879,442.701768 C17.4586617,442.701768 13.0606979,443.622483 13.0606979,443.622483" id="Fill-850"></path>
                        <path d="M21.8043625,467.03984 L22.2649463,466.98957 L23.0824033,466.937941 C24.4120729,466.579709 25.2816116,465.608724 25.2816116,464.43213 C25.2816116,463.102913 23.951942,462.387355 22.5710964,462.387355 C20.5263218,462.387355 19.2478281,463.61422 19.2478281,464.994612 C19.2478281,466.375458 20.4746929,466.937941 21.8043625,467.03984 M15.3109011,468.215529 C13.6746285,466.937941 12.6008387,464.943436 12.6008387,462.029123 C12.6008387,456.353571 15.4639761,452.058413 21.2930557,452.058413 C27.2752103,452.058413 30.2406996,457.887492 30.2406996,463.102913 C30.2406996,464.227879 30.0364486,465.199316 29.6270408,466.017226 C32.6441589,465.300762 33.8198477,464.176703 33.8198477,462.080299 C33.8198477,459.421413 31.6722683,456.557822 30.1899765,455.535662 L35.9162512,452.46782 C35.9162512,452.46782 39.2399724,457.222204 39.2399724,464.636381 C39.2399724,475.425454 30.0364486,476.141918 23.696515,476.703495 C17.3561286,477.265977 13.0605167,479.515456 13.0605167,479.515456 L13.0605167,469.085067 C13.0605167,469.085067 13.7258044,468.676112 15.3109011,468.215529" id="Fill-852"></path>
                        <path d="M16.6917014,480.743136 C19.043079,480.743136 20.8840554,482.941891 20.8840554,485.805482 C20.8840554,488.413192 19.043079,490.713847 16.6917014,490.713847 C14.339418,490.713847 12.6007934,488.413192 12.6007934,485.805482 C12.6007934,482.941891 14.339418,480.743136 16.6917014,480.743136 L16.6917014,480.743136 Z M23.2358859,483.094966 C23.2358859,483.094966 28.8090856,481.918825 35.86503,481.356795 L40.8757468,480.947387 C47.6762641,480.38581 51.4089402,479.260844 51.4089402,479.260844 L51.4089402,492.145868 C51.4089402,492.145868 47.6762641,490.866922 40.8757468,490.304892 L35.86503,489.895484 C28.7579096,489.333001 23.2358859,488.310387 23.2358859,488.310387 L23.2358859,483.094966 Z" id="Fill-854"></path>
                    </g>
                    <g id="Group-877" transform="translate(575.163627, 309.320282)" fill="#CD3A86">
                        <path d="M31.949162,185.710825 C34.7203638,185.710825 37.6120329,184.084968 37.6120329,181.192846 C37.6120329,179.988173 37.4915655,178.964654 37.3710982,178.240944 L25.3230053,178.240944 C25.1423043,178.964654 25.0218369,180.048407 25.0218369,181.494015 C25.0218369,184.80732 29.1784131,185.710825 31.949162,185.710825 M1.10680503,179.144902 L1.10680503,159.747848 C1.10680503,159.747848 6.52828833,160.530886 15.1426091,160.530886 L33.6361577,160.530886 C41.6476888,160.530886 46.4066018,159.747848 46.4066018,159.747848 L46.4066018,187.217119 C46.4066018,193.663028 42.9732825,202.698532 32.85312,202.698532 C21.5880648,202.698532 17.1905539,193.663028 17.1905539,186.493862 C17.1905539,184.566385 17.4921751,180.710524 17.6728762,178.120476 L16.3477354,178.120476 C7.73296175,178.120476 1.10680503,179.144902 1.10680503,179.144902" id="Fill-863"></path>
                        <path d="M15.0216889,209.565125 L33.6959385,209.565125 C41.6476888,209.565125 46.4066018,208.239531 46.4066018,208.239531 L46.2861344,227.214949 L46.2861344,250.648112 L36.0455045,246.311287 C36.0455045,246.311287 37.4915655,239.864926 37.5513463,227.214949 L30.3826337,227.214949 C30.4437731,235.709255 31.58776,244.262437 31.58776,244.262437 L20.3833914,239.624444 C20.3833914,239.624444 22.0097005,235.467868 22.4313362,227.214949 L10.2025423,227.214949 C9.96206047,229.383814 9.72112578,232.155016 9.72112578,234.925765 C9.72112578,243.600319 12.2513929,249.624592 12.2513929,249.624592 L1.10680503,244.021502 L1.10680503,208.239531 C1.10680503,208.239531 6.40782098,209.565125 15.0216889,209.565125" id="Fill-865"></path>
                        <path d="M43.2142172,296.852002 L32.7321997,292.333118 C35.8050227,289.863991 38.9969544,284.803456 38.9969544,279.141491 C38.9969544,276.370742 38.6360053,273.237686 35.9852709,273.117671 C33.575924,273.237686 32.0700822,277.274247 30.9251896,283.116461 C28.7567774,294.260596 24.9009167,300.285321 15.685165,300.285321 C3.81777312,300.285321 0.143066291,287.033008 0.143066291,274.563279 C0.143066291,265.466636 1.70914174,258.840027 4.42010983,254.563436 L13.9374828,258.660232 C10.5041635,262.033317 8.03458299,266.852464 8.03458299,273.117671 C8.03458299,275.888873 8.81762072,280.70802 11.8895379,280.70802 C14.6607397,280.70802 15.4437774,276.189136 16.7086845,269.864147 C18.3952273,261.43098 22.7329574,255.769015 31.8286947,255.769015 C41.2862868,255.769015 47.069625,266.551295 47.069625,278.357548 C47.069625,284.623208 45.2019283,293.95988 43.2142172,296.852002" id="Fill-867"></path>
                        <path d="M1.10698618,309.13872 C1.10698618,309.13872 6.52846948,310.525453 15.1423373,310.525453 L33.635886,310.525453 C41.7081037,310.525453 46.2863156,309.13872 46.2863156,309.13872 L46.2863156,329.801587 C46.2863156,329.801587 41.7081037,328.174372 33.635886,328.174372 L15.1423373,328.174372 C6.52846948,328.174372 1.10698618,329.801587 1.10698618,329.801587 L1.10698618,309.13872 Z" id="Fill-869"></path>
                        <path d="M17.7929812,381.908105 C17.5524994,381.968339 17.5524994,381.968339 17.9134485,381.968339 C17.9134485,381.968339 17.8536677,381.968339 17.7929812,381.908105 M1.10689561,355.824661 L1.10689561,342.390741 C1.10689561,342.390741 6.95046749,343.776568 15.5643354,343.776568 L33.4555472,343.776568 C41.3470639,343.776568 46.286225,341.728623 46.286225,341.728623 L46.286225,361.968496 C46.286225,361.968496 41.7682468,362.872001 34.5402062,369.318362 L29.5394528,373.775201 L33.4555472,373.775201 C41.3470639,373.595406 46.286225,371.727256 46.286225,371.727256 L46.286225,385.341424 C46.286225,385.341424 41.5273121,383.654882 33.5760146,383.836036 L15.1422468,383.836036 C6.46814523,383.836036 1.10689561,385.823747 1.10689561,385.823747 L1.10689561,372.390279 C1.10689561,372.390279 1.22736295,372.390279 1.40806396,372.450513 C2.43203637,372.209578 6.58861257,370.823751 13.3356895,364.679464 L25.2026285,353.836497 L15.5036488,353.836497 C6.58861257,353.836497 1.10689561,355.824661 1.10689561,355.824661" id="Fill-871"></path>
                        <path d="M25.3230506,412.931163 C12.2514381,412.931163 8.93768046,415.340057 8.93768046,418.232179 C8.93768046,421.123395 12.1309708,422.267835 22.9137037,422.267835 C35.5034468,422.267835 38.394663,419.978956 38.394663,417.027053 C38.394663,414.255851 35.3829794,412.931163 25.3230506,412.931163 M23.7565222,440.942538 C10.6246761,440.942538 0.0226442373,433.533343 0.0226442373,417.629389 C0.0226442373,401.36494 10.6246761,394.015526 23.7565222,394.015526 C36.5876529,394.015526 47.2499184,401.184691 47.2499184,417.629389 C47.2499184,433.833153 36.5876529,440.942538 23.7565222,440.942538" id="Fill-873"></path>
                        <path d="M43.2142172,488.71196 L32.7321997,484.193529 C35.8050227,481.723948 38.9969544,476.663867 38.9969544,471.000996 C38.9969544,468.2307 38.6360053,465.097191 35.9852709,464.977629 C33.575924,465.097191 32.0700822,469.134205 30.9251896,474.977324 C28.7567774,486.120554 24.9009167,492.145732 15.685165,492.145732 C3.81777312,492.145732 0.143066291,478.892513 0.143066291,466.423237 C0.143066291,457.3275 1.70914174,450.70089 4.42010983,446.423394 L13.9374828,450.520189 C10.5041635,453.893275 8.03458299,458.712875 8.03458299,464.977629 C8.03458299,467.748378 8.81762072,472.567525 11.8895379,472.567525 C14.6607397,472.567525 15.4437774,468.049999 16.7086845,461.724105 C18.3952273,453.290938 22.7329574,447.62852 31.8286947,447.62852 C41.2862868,447.62852 47.069625,458.412159 47.069625,470.218411 C47.069625,476.483166 45.2019283,485.820291 43.2142172,488.71196" id="Fill-875"></path>
                    </g>
                    <path d="M371.226184,532.814058 C371.381071,533.434057 371.381071,533.434057 371.381071,532.503832 C371.381071,532.503832 371.381071,532.659171 371.226184,532.814058 M304.091908,575.761118 L269.516875,575.761118 C269.516875,575.761118 273.08289,560.722175 273.08289,538.550749 L273.08289,492.502334 C273.08289,472.191811 267.811311,459.477978 267.811311,459.477978 L319.906644,459.477978 C319.906644,459.477978 322.231301,471.106247 338.821375,489.711658 L350.29521,502.580378 L350.29521,492.502334 C349.830097,472.191811 345.023632,459.477978 345.023632,459.477978 L380.063777,459.477978 C380.063777,459.477978 375.721971,471.726246 376.18799,492.192108 L376.18799,539.635861 C376.18799,561.962173 381.303323,575.761118 381.303323,575.761118 L346.729196,575.761118 C346.729196,575.761118 346.729196,575.451345 346.884082,574.986232 C346.264083,572.34999 342.698068,561.651947 326.883786,544.286987 L298.975216,513.743534 L298.975216,538.705635 C298.975216,561.651947 304.091908,575.761118 304.091908,575.761118" id="Fill-1123" fill="#457BB2"></path>
                    <path d="M205.986067,666.83144 L205.986067,623.993525 C205.986067,605.295272 202.776473,594.689617 202.776473,594.689617 L250.638239,594.689617 C250.638239,594.689617 246.870238,605.295272 246.870238,623.993525 L246.870238,666.83144 C246.870238,671.017454 247.010179,674.925396 247.289156,678.413062 C252.312554,678.971922 258.452312,679.390387 264.731559,679.390387 C284.82515,679.390387 298.778981,673.530058 298.778981,673.530058 L285.802022,699.344489 L202.776473,699.344489 C202.776473,699.344489 205.986067,686.785995 205.986067,666.83144" id="Fill-1125" fill="#457BB2"></path>
                    <path d="M279.354257,805.226633 C279.354257,805.226633 280.886819,794.621884 280.886819,777.770948 L280.886819,741.595873 C280.886819,725.806046 279.354257,716.850703 279.354257,716.850703 L306.809488,716.850703 C306.809488,716.850703 304.806379,725.806046 304.806379,741.595873 L304.806379,777.770948 C304.806379,794.621884 306.809488,805.226633 306.809488,805.226633 L279.354257,805.226633 Z" id="Fill-1127" fill="#457BB2"></path>
                    <path d="M491.428136,599.763602 L480.963329,624.043659 C475.242036,616.926575 463.520925,609.53142 450.404025,609.53142 C443.985742,609.53142 436.72917,610.368804 436.450193,616.508563 C436.72917,622.089914 446.078522,625.578033 459.612983,628.229673 C485.428319,633.253071 499.381698,642.183505 499.381698,663.532945 C499.381698,691.022596 468.682906,699.534112 439.79837,699.534112 C418.728813,699.534112 402.093903,695.678251 392.186143,689.399457 L402.960724,667.579923 C410.774798,675.533032 421.937954,681.254325 436.450193,681.254325 C442.869381,681.254325 454.032537,679.440521 454.032537,672.32389 C454.032537,665.905155 443.566371,664.091352 428.915096,661.160734 C409.379007,657.253698 396.263012,647.206902 396.263012,626.13644 C396.263012,604.228593 421.240511,590.833168 448.589768,590.833168 C463.10246,590.833168 484.730424,595.159123 491.428136,599.763602" id="Fill-1129" fill="#457BB2"></path>
                </g>
            </g>
        </g>
    </g>
</svg>