<?xml version="1.0" encoding="UTF-8"?>
<svg width="640px" height="360px" viewBox="0 0 640 360" version="1.1" xmlns="http://www.w3.org/2000/svg" xmlns:xlink="http://www.w3.org/1999/xlink">
    <!-- Generator: Sketch 42 (36781) - http://www.bohemiancoding.com/sketch -->
    <title>newbohemianflare</title>
    <desc>Created with Sketch.</desc>
    <defs></defs>
    <g id="Page-1" stroke="none" stroke-width="1" fill="none" fill-rule="evenodd">
        <g id="newbohemianflare" fill-rule="nonzero">
            <g id="Artboard-1" transform="translate(-30.259707, -658.053648)">
                <g transform="translate(0.000000, 0.000000)" id="Group">
                    <g>
                        <g id="BACKGROUND">
                            <path d="M125.647352,789.695896 C128.790169,790.71357 131.973801,791.729883 135.198249,792.744836 L251.523273,792.744836 C253.279798,781.297253 254.147684,769.73089 254.119158,758.149366 C254.119158,745.174023 235.956128,712.305061 178.867071,712.305061 C149.238884,712.305061 127.73304,716.696841 113.684242,725.145711 C116.548359,746.855575 120.541473,768.401499 125.647352,789.695896 L125.647352,789.695896 Z" id="Shape" fill="#FFDD00"></path>
                            <polygon id="Shape" fill="#FFDD00" points="246.739662 1023.25206 469.030661 968.758883 475.969346 967.028293 474.226512 966.620135 246.739662 966.620135"></polygon>
                            <path d="M294.11864,627.951052 C300.273071,640.850911 305.125595,654.332423 308.604167,668.195429 C315.333652,653.870803 323.687714,640.367352 333.501804,627.951052 L294.11864,627.951052 Z" id="Shape" fill="#FFDD00"></path>
                            <path d="M333.689556,791.879541 L471.214306,791.879541 C585.539356,791.879541 660.693485,779.32052 671.419877,777.418504 L671.419877,684.195221 C623.987838,699.525635 560.458048,709.774482 484.189648,716.631536 C386.452138,725.29673 340.607834,741.716925 333.689556,791.879541 Z" id="Shape" fill="#FFDD00"></path>
                            <path d="M24.8976368,1060.49647 C35.2117889,1060.71279 82.2438329,1060.45974 167.165182,1042.26405 L167.165182,967.028293 C87.2805024,968.820107 36.5546287,975.709814 24.8976368,977.444485 L24.8976368,1060.49647 Z" id="Shape" fill="#FFDD00"></path>
                            <g id="Group" style="mix-blend-mode: multiply;" transform="translate(22.448689, 0.000000)" fill="#DE3F96">
                                <path d="M198.340289,452.369652 L466.475592,452.369652 C527.887041,452.369652 592.755589,448.043177 648.979351,432.476032 L648.979351,647.844672 C595.351474,636.599919 524.425862,627.951052 463.014412,627.951052 L87.6274367,627.951052 C86.7621417,637.465214 86.7621417,646.979377 86.7621417,657.358834 C86.7621417,710.986711 95.4110093,756.826934 103.194582,789.695896 C132.602364,799.210058 165.471327,808.724221 202.662682,817.373089 L462.145036,878.784538 C576.319067,906.465812 648.971188,909.061697 648.971188,909.061697 L648.971188,1119.26306 C648.971188,1119.26306 556.421366,1122.72424 445.708514,1149.53613 L183.638438,1212.63736 C63.4073421,1241.20842 0.269384267,1275.79572 0.269384267,1275.79572 L0.269384267,1060.42708 C0.269384267,1060.42708 47.8401968,1063.02297 144.716493,1042.26405 L144.716493,896.086355 C53.8768533,877.05803 0.269384267,871.86626 0.269384267,871.86626 L0.269384267,441.990195 C0.269384267,441.990195 74.6561761,452.369652 198.340289,452.369652 Z M453.50025,967.011967 L224.290973,913.38409 L224.290973,1023.25206 L446.581972,968.758883 L453.50025,967.011967 Z" id="Shape"></path>
                            </g>
                            <g id="Group" style="mix-blend-mode: multiply;" transform="translate(22.040531, 35.509744)" fill="#4486C6">
                                <path d="M452.647199,1772.63011 L184.487407,1772.63011 C123.075957,1772.63011 58.2074095,1776.95658 1.98364778,1792.52373 L1.98364778,1577.151 C55.6115247,1588.39576 126.537137,1597.04462 187.948586,1597.04462 L563.335562,1597.04462 C564.200857,1587.53046 564.200857,1578.0163 564.200857,1567.63684 C564.200857,1514.00897 555.551989,1468.16874 547.768417,1435.29978 C518.360634,1425.78562 485.491672,1416.27146 448.300317,1407.62259 L188.826126,1346.20706 C74.6520945,1318.52986 1.9999741,1315.93398 1.9999741,1315.93398 L1.9999741,1105.73262 C1.9999741,1105.73262 94.549796,1102.27144 205.262648,1075.45954 L467.340887,1012.3175 C587.567901,983.775015 650.709941,949.175463 650.709941,949.175463 L650.709941,1164.54818 C650.709941,1164.54818 603.139128,1161.9523 506.262832,1182.71121 L506.262832,1328.88483 C597.082064,1347.91316 650.709941,1353.10493 650.709941,1353.10493 L650.709941,1783.00548 C650.709941,1783.00548 576.319067,1772.63011 452.647199,1772.63011 Z M197.474994,1257.98371 L426.68427,1311.61159 L426.68427,1201.76403 L204.393271,1256.25312 L197.474994,1257.98371 Z" id="Shape"></path>
                                <path d="M650.705859,741.667946 L650.705859,942.334736 C650.705859,942.334736 572.861969,931.089983 449.173775,931.089983 L183.638438,931.089983 C68.5991116,931.089983 0.269384267,942.334736 0.269384267,942.334736 L0.269384267,681.113629 C0.269384267,581.645529 57.3543593,502.071049 129.145266,502.071049 C204.397353,502.071049 264.943508,547.915353 286.563636,632.681603 C312.510239,577.323136 364.407526,531.482913 436.198433,515.046391 C512.315815,496.883361 585.83323,476.989741 650.705859,444.986074 L650.705859,648.248748 C603.135047,663.815893 539.127712,674.195351 462.136872,681.11771 C364.411607,689.786986 318.567303,706.207181 311.649025,756.369797 L449.173775,756.369797 C572.861969,756.369797 650.705859,741.667946 650.705859,741.667946 Z M156.834704,676.795317 C98.0191388,676.795317 71.2072411,694.093052 71.2072411,726.09672 C71.2072411,736.476177 72.0725361,746.855634 74.6684208,757.235092 L229.478661,757.235092 C231.235185,745.787509 232.103072,734.221146 232.074546,722.639621 C232.074546,709.664279 213.911516,676.795317 156.822459,676.795317 L156.834704,676.795317 Z" id="Shape"></path>
                            </g>
                            <path d="M0,224.895047 L0,2030.99411 L698.97054,2030.99411 L698.97054,224.895047 L0,224.895047 Z M667.693394,2009.76989 L28.517998,2009.76989 L28.517998,253.874263 L667.693394,253.874263 L667.693394,2009.76989 Z" id="Shape" fill="#FFFFFF"></path>
                        </g>
                        <g id="take_2" transform="translate(55.917643, 277.139268)">
                            <polygon id="Shape" fill="#FFFFFF" opacity="0.7" points="0.0938763353 0.0244894788 0.0938763353 1706.533 584.282229 1706.533 584.282229 0.0244894788"></polygon>
                            <g id="Group" style="mix-blend-mode: multiply;" transform="translate(9.795792, 273.874004)">
                                <path d="M86.1213337,125.324908 L31.4689802,125.324908 C31.4689802,125.324908 35.142402,110.986318 35.142402,88.207021 L35.142402,29.4322719 C11.7263788,29.5914535 0.0979579151,31.5016329 0.0979579151,31.5016329 L10.9304707,5.85298543 L118.602546,5.85298543 L107.753707,31.5016329 C107.753707,31.5016329 98.1946467,29.9098168 81.786696,29.4322719 L81.786696,88.207021 C81.8071039,110.990399 86.1213337,125.324908 86.1213337,125.324908 Z" id="Shape" fill="#DE3F96"></path>
                                <path d="M176.601795,121.651486 L123.541257,121.651486 C123.541257,121.651486 127.214679,107.312896 127.214679,84.5335992 L127.214679,35.6321916 C127.214679,14.2855293 123.541257,2.16323729 123.541257,2.16323729 L176.601795,2.16323729 C176.601795,2.16323729 173.875299,14.2855293 173.875299,35.6321916 L173.875299,42.0035377 L195.099514,42.0035377 L195.099514,35.6321916 C195.099514,14.2855293 193.030153,2.16323729 193.030153,2.16323729 L246.090691,2.16323729 C246.090691,2.16323729 241.788706,14.269203 241.788706,35.6321916 L241.788706,84.5376807 C241.788706,107.316978 246.090691,121.655567 246.090691,121.655567 L193.030153,121.655567 C193.030153,121.655567 195.099514,107.316978 195.099514,84.5376807 L195.099514,65.419561 L173.875299,65.419561 L173.875299,84.5335992 C173.875299,107.316978 176.601795,121.651486 176.601795,121.651486 Z" id="Shape" fill="#4486C6"></path>
                                <path d="M257.078303,121.651486 C257.078303,121.651486 260.751725,107.312896 260.751725,84.5335992 L260.751725,35.6321916 C260.751725,14.2855293 257.078303,2.16323729 257.078303,2.16323729 L311.714331,2.16323729 C311.714331,2.16323729 307.412346,14.269203 307.412346,35.6321916 L307.412346,84.5376807 C307.412346,107.316978 311.714331,121.655567 311.714331,121.655567 L257.078303,121.651486 Z" id="Shape" fill="#4486C6"></path>
                                <path d="M427.161815,10.305989 L415.215031,38.0239974 C408.684503,29.9016536 395.301003,21.456865 380.329769,21.456865 C372.982925,21.456865 364.717726,22.4119547 364.411607,29.4200272 C364.729971,35.7913732 375.403302,39.7749951 390.856163,42.7994457 C420.325169,48.5136575 436.255575,58.717607 436.255575,83.1009647 C436.255575,114.484232 401.211131,124.198392 368.236048,124.198392 C344.183298,124.198392 326.661076,120.055588 315.346937,112.888334 L326.179449,87.721313 C335.097701,96.802828 347.844475,103.333356 364.411607,103.333356 C371.758451,103.333356 384.484817,101.263995 384.484817,93.1294062 C384.484817,85.7825626 372.538033,83.7417727 355.811719,80.3867141 C333.509967,75.9255474 318.53465,64.4685529 318.53465,40.3872321 C318.53465,15.3793927 347.048567,0.0857131757 378.272652,0.0857131757 C394.82754,0.110202655 419.517016,5.04891421 427.161815,10.305989 Z" id="Shape" fill="#DE3F96"></path>
                                <path d="M64.8114056,244.61724 L16.8854956,244.61724 C16.8854956,244.61724 20.0976989,232.041893 20.0976989,212.058478 L20.0976989,169.022301 C20.0976989,150.577642 17.0242693,139.536969 17.0242693,139.536969 L61.0400259,139.818598 L115.394424,139.818598 L105.33333,163.573392 C105.33333,163.573392 90.382503,160.218333 61.0400259,160.07956 L61.0400259,176.707916 C80.7418115,176.569142 100.586453,173.912034 100.586453,173.912034 L89.8274082,199.903534 C89.8274082,199.903534 80.1867167,196.132154 61.0441074,195.152575 L61.0441074,212.058478 C61.0400259,232.041893 64.8114056,244.61724 64.8114056,244.61724 Z" id="Shape" fill="#4486C6"></path>
                                <path d="M222.988949,192.079145 C222.988949,222.539975 205.801417,247.135575 168.912098,247.135575 C131.186056,247.135575 114.137297,222.544057 114.137297,192.079145 C114.137297,162.316265 130.765654,137.581892 168.912098,137.581892 C206.499367,137.581892 222.988949,162.316265 222.988949,192.079145 Z M158.01428,188.446539 C158.01428,218.768596 163.601963,226.45421 170.31208,226.45421 C177.022197,226.45421 179.675224,219.050225 179.675224,194.038304 C179.675224,164.8346 174.36917,158.120401 167.52028,158.120401 C161.08771,158.124483 158.01428,165.108066 158.01428,188.446539 L158.01428,188.446539 Z" id="Shape" fill="#DE3F96"></path>
                                <path d="M260.592544,248.69882 L229.429682,248.69882 C229.429682,248.69882 232.641885,235.143894 232.641885,215.164561 L232.641885,173.663057 C232.641885,155.357172 227.890926,143.900177 227.890926,143.900177 L274.829094,143.900177 C274.829094,143.900177 276.922944,154.381674 291.877853,171.148804 L302.220576,182.748654 L302.220576,173.667139 C301.812418,155.361253 297.469617,143.904259 297.469617,143.904259 L329.0488,143.904259 C329.0488,143.904259 325.134565,154.924524 325.554968,173.389591 L325.554968,216.148221 C325.554968,236.27041 330.163071,248.706983 330.163071,248.706983 L299.016536,248.706983 C299.028565,248.468818 299.075317,248.233686 299.15531,248.009033 C298.596133,245.633554 295.38393,235.992862 281.131053,220.340004 L255.980359,192.81383 L255.980359,215.311497 C255.980359,235.984699 260.592544,248.69882 260.592544,248.69882 Z M321.097883,209.993199 C321.236656,210.552375 321.236656,210.552375 321.236656,209.71157 C321.226223,209.820092 321.175202,209.920675 321.093801,209.993199 L321.097883,209.993199 Z" id="Shape" fill="#DE3F96"></path>
                                <path d="M412.884449,244.61724 L364.954458,244.61724 C364.954458,244.61724 368.166661,232.041893 368.166661,212.058478 L368.166661,160.499962 C347.62407,160.638736 337.424202,162.316265 337.424202,162.316265 L346.934283,139.818598 L441.394284,139.818598 L431.892366,162.316265 C431.892366,162.316265 423.508801,160.920365 409.117151,160.499962 L409.117151,212.06256 C409.108988,232.041893 412.884449,244.61724 412.884449,244.61724 Z" id="Shape" fill="#4486C6"></path>
                                <path d="M55.1380615,356.403548 L14.6406267,356.403548 C14.6406267,356.403548 16.2732586,345.085327 16.2732586,327.101886 L16.2732586,288.494223 C16.2732586,271.64138 14.6406267,262.086402 14.6406267,262.086402 L55.1339799,262.086402 C55.1339799,262.086402 52.9952321,271.645462 52.9952321,288.494223 L52.9952321,296.163512 C54.754393,294.151293 56.8931408,291.886016 59.6604519,288.616671 C73.3663968,272.898507 74.1214891,262.086402 74.1214891,262.086402 L115.753603,262.086402 C115.753603,262.086402 106.194543,268.376116 92.3620692,285.10243 C87.7090683,290.7595 83.5581016,296.167593 80.5254878,299.943055 C90.3212793,303.714434 99.766055,312.391873 102.031332,325.599865 C106.684333,352.130134 112.974047,356.411711 112.974047,356.411711 L68.3419721,356.411711 C65.9675458,349.186107 64.7363942,341.633942 64.6930398,334.028327 C64.6930398,317.175484 60.5420731,312.775541 52.9993137,312.146978 L52.9993137,327.11005 C52.9993137,345.085327 55.1380615,356.403548 55.1380615,356.403548 Z" id="Shape" fill="#DE3F96"></path>
                                <path d="M119.741306,356.403548 C119.741306,356.403548 122.635147,345.085327 122.635147,327.101886 L122.635147,288.494223 C122.635147,271.64138 119.741306,262.086402 119.741306,262.086402 L162.855034,262.086402 C162.855034,262.086402 159.459159,271.645462 159.459159,288.494223 L159.459159,327.101886 C159.459159,345.085327 162.855034,356.403548 162.855034,356.403548 L119.741306,356.403548 Z" id="Shape" fill="#4486C6" style="mix-blend-mode: multiply;"></path>
                                <path d="M179.997669,323.020307 L179.997669,284.412643 C179.997669,267.5598 177.103829,258.004822 177.103829,258.004822 L220.229801,258.004822 C220.229801,258.004822 216.833927,267.563882 216.833927,284.412643 L216.833927,323.020307 C216.833927,326.791686 216.960456,330.31409 217.209432,333.456906 C222.429105,334.033806 227.676149,334.328109 232.927596,334.338527 C251.037565,334.338527 263.612913,329.056963 263.612913,329.056963 L251.919187,352.321968 L177.095666,352.321968 C177.095666,352.321968 179.997669,341.003747 179.997669,323.020307 Z" id="Shape" fill="#DE3F96" style="mix-blend-mode: multiply;"></path>
                                <path d="M261.314983,327.101886 L261.314983,288.494223 C261.314983,271.64138 258.421143,262.086402 258.421143,262.086402 L301.555279,262.086402 C301.555279,262.086402 298.159404,271.645462 298.159404,288.494223 L298.159404,327.101886 C298.159404,330.873266 298.285933,334.39567 298.534909,337.538486 C303.754583,338.115385 309.001627,338.409689 314.253073,338.420107 C332.363043,338.420107 344.93839,333.138543 344.93839,333.138543 L333.240583,356.403548 L258.421143,356.403548 C258.421143,356.403548 261.314983,345.085327 261.314983,327.101886 Z" id="Shape" fill="#4486C6" style="mix-blend-mode: multiply;"></path>
                                <path d="M428.006702,268.498564 L418.574171,290.379913 C413.419136,283.967751 402.856008,277.318858 391.031671,277.318858 C385.248072,277.318858 378.7053,278.07395 378.456323,283.608572 C378.709381,288.637078 387.133762,291.771732 399.333604,294.171701 C422.598609,298.698173 435.173956,306.747048 435.173956,326.008023 C435.173956,350.783212 407.504927,358.452501 381.476693,358.452501 C362.489183,358.452501 347.497541,354.979077 338.567044,349.317925 L348.277122,329.652874 C355.317848,336.820128 365.378942,341.975163 378.460405,341.975163 C384.244004,341.975163 394.305098,340.342531 394.305098,333.926288 C394.305098,328.142689 384.872567,326.505976 371.668656,323.865194 C354.060721,320.34279 342.240466,311.289846 342.240466,292.298256 C342.240466,272.555654 364.750379,260.461933 389.399039,260.461933 C402.480502,260.449688 421.970046,264.347597 428.006702,268.498564 Z" id="Shape" fill="#DE3F96" style="mix-blend-mode: multiply;"></path>
                                <path d="M38.1423632,451.422726 L13.3957449,451.422726 C13.3957449,451.422726 14.7753189,441.863666 14.7753189,426.680189 L14.7753189,394.076529 C14.7753189,379.844061 13.3957449,371.774777 13.3957449,371.774777 L66.0726137,371.774777 L60.8685995,383.880743 C60.8685995,383.880743 49.9299657,383.137896 36.7627892,382.819532 C36.5505471,385.901125 36.3546312,389.721484 36.3546312,394.076529 L36.3546312,399.790741 C46.4442965,399.578499 54.1952165,399.154015 54.1952165,399.154015 L48.566718,412.108949 C48.566718,412.108949 43.5749459,411.578344 36.3546312,411.047738 L36.3546312,426.659781 C36.3260602,441.863666 38.1423632,451.422726 38.1423632,451.422726 Z" id="Shape" fill="#DE3F96"></path>
                                <path d="M91.7947296,433.68418 L73.8357785,433.68418 C71.5011149,444.835056 70.8603069,451.418644 70.8603069,451.418644 L56.3258012,451.418644 C56.3258012,451.418644 60.6808468,441.214694 64.1828423,426.569986 L71.7215202,394.709174 C75.1214762,380.693029 75.4398394,371.770696 75.4398394,371.770696 L101.247668,371.770696 C101.736456,380.183609 102.980909,388.535513 104.965988,396.725475 L112.720989,428.90465 C116.227066,443.667724 120.475991,451.418644 120.475991,451.418644 L94.0273538,451.418644 C94.0273538,451.418644 94.345717,445.581985 91.7947296,433.68418 Z M82.554033,395.770385 L75.9704448,423.933286 L89.4396581,423.933286 L82.7499488,396.639761 L82.554033,395.770385 Z" id="Shape" fill="#4486C6"></path>
                                <path d="M175.132426,378.252245 L164.830519,395.880588 C162.495855,388.125586 156.43879,381.329756 150.385808,381.329756 C146.455246,381.329756 142.84713,383.239935 142.84713,388.55007 C142.84713,393.754085 148.153183,397.260162 154.104127,400.231552 C165.042761,405.753929 175.981395,411.806912 175.981395,427.737318 C175.981395,446.002388 161.753007,453.332905 147.62666,453.332905 C136.369663,453.332905 125.431029,448.871738 119.696409,444.410571 L126.598361,427.843439 C131.271769,435.382117 138.704326,441.4351 145.500157,441.4351 C150.916413,441.4351 153.887803,438.888194 153.887803,434.74539 C153.887803,429.329134 148.471547,427.206713 141.463474,423.276151 C129.569751,416.586442 120.96578,410.108975 120.96578,395.664264 C120.96578,382.70933 128.720782,370.068677 149.128681,370.068677 C160.904039,370.072759 170.887583,374.746167 175.132426,378.252245 Z" id="Shape" fill="#4486C6"></path>
                                <path d="M217.311472,392.586753 C216.250261,384.088904 213.274789,380.79915 209.666673,380.79915 C206.160596,380.79915 204.038174,393.011237 204.038174,407.986553 C204.038174,431.251558 208.074856,442.182029 214.976808,442.182029 C220.393064,442.182029 226.233805,437.933104 229.523558,432.304606 L236.531631,445.577903 C230.903132,450.569675 223.062417,453.332905 211.576852,453.332905 C190.017947,453.332905 180.246645,434.643351 180.246645,411.49263 C180.246645,388.974555 189.793461,370.199288 211.576852,370.199288 C224.001181,370.199288 232.49903,376.570634 237.290805,386.235815 L217.311472,392.586753 Z" id="Shape" fill="#DE3F96"></path>
                                <path d="M237.886715,455.504305 C237.886715,455.504305 239.266289,445.945245 239.266289,430.761769 L239.266289,398.158109 C239.266289,383.92564 237.886715,375.856357 237.886715,375.856357 L262.629252,375.856357 C262.629252,375.856357 260.825194,383.92564 260.825194,398.158109 L260.825194,430.761769 C260.825194,445.949327 262.629252,455.504305 262.629252,455.504305 L237.886715,455.504305 Z" id="Shape" fill="#DE3F96"></path>
                                <path d="M325.505989,378.252245 L315.204081,395.880588 C312.869418,388.125586 306.816435,381.329756 300.763452,381.329756 C296.832891,381.329756 293.224774,383.239935 293.224774,388.55007 C293.224774,393.754085 298.530828,397.260162 304.481771,400.231552 C315.420405,405.753929 326.359039,411.806912 326.359039,427.737318 C326.359039,446.002388 312.12657,453.332905 298.004304,453.332905 C286.747307,453.332905 275.808673,448.871738 270.074054,444.410571 L276.976005,427.843439 C281.649414,435.382117 289.081971,441.4351 295.877801,441.4351 C301.294057,441.4351 304.265448,438.888194 304.265448,434.74539 C304.265448,429.329134 298.849191,427.206713 291.841119,423.276151 C279.947395,416.586442 271.343425,410.108975 271.343425,395.664264 C271.343425,382.70933 279.098427,370.068677 299.506325,370.068677 C311.277602,370.072759 321.261146,374.746167 325.505989,378.252245 Z" id="Shape" fill="#4486C6"></path>
                                <path d="M367.068716,451.422726 L342.326179,451.422726 C342.326179,451.422726 343.705753,441.863666 343.705753,426.680189 L343.705753,382.497087 C337.758891,382.70933 331.175303,383.027693 325.746802,383.77054 L331.052856,371.876817 L343.705753,371.876817 L343.705753,371.770696 L365.264658,371.770696 L365.264658,371.876817 L384.166454,371.876817 L378.770605,383.774622 C378.770605,383.774622 373.991075,382.713411 365.301392,382.501169 L365.301392,426.680189 C365.264658,441.863666 367.068716,451.422726 367.068716,451.422726 Z" id="Shape" fill="#4486C6"></path>
                                <path d="M433.933156,378.252245 L423.631249,395.880588 C421.296585,388.125586 415.239521,381.329756 409.186538,381.329756 C405.255976,381.329756 401.64786,383.239935 401.64786,388.55007 C401.64786,393.754085 406.953914,397.260162 412.904857,400.231552 C423.843491,405.753929 434.782125,411.806912 434.782125,427.737318 C434.782125,446.002388 420.549656,453.332905 406.42739,453.332905 C395.170393,453.332905 384.231759,448.871738 378.497139,444.410571 L385.399091,427.843439 C390.0725,435.382117 397.505056,441.4351 404.300887,441.4351 C409.717143,441.4351 412.692615,438.888194 412.692615,434.74539 C412.692615,429.329134 407.276358,427.206713 400.268286,423.276151 C388.374562,416.586442 379.770592,410.108975 379.770592,395.664264 C379.770592,382.70933 387.525594,370.068677 407.933493,370.068677 C419.700687,370.072759 429.684232,374.746167 433.933156,378.252245 Z" id="Shape" fill="#DE3F96"></path>
                            </g>
                            <g id="Group" style="mix-blend-mode: multiply;" transform="translate(457.545095, 278.771900)" fill="#4486C6">
                                <path d="M42.554551,94.5702039 C44.7667672,94.5702039 46.4728676,96.8273175 46.4728676,99.9170734 C46.4728676,102.635406 44.7667672,105.031293 42.554551,105.031293 C40.2484584,105.031293 38.6362344,102.635406 38.6362344,99.9170734 C38.6362344,96.8273175 40.2484584,94.5702039 42.554551,94.5702039 Z M11.7712761,94.7089776 C11.7712761,94.7089776 15.7344901,95.3538672 22.6446047,95.3538672 L24.7629446,95.3538672 C28.1078805,95.3972145 31.4511545,95.1816075 34.7628151,94.7089776 L34.7628151,104.386403 L22.6935837,104.386403 C15.754898,104.386403 11.7712761,105.202719 11.7712761,105.202719 L11.7712761,94.7089776 Z" id="Shape"></path>
                                <path d="M23.3833707,107.888399 C32.5546805,107.888399 35.3628074,114.937287 35.3628074,120.373951 C35.3628074,125.810616 32.2730515,132.402367 23.9343839,132.402367 L19.232404,118.210714 C17.0201878,118.71683 16.007956,119.916814 15.9671402,122.080052 C15.9767371,124.826186 17.3822845,127.378931 19.6977041,128.855474 L14.2120609,131.206464 C12.5794289,128.904453 11.2161813,124.341247 11.2161813,120.378033 C11.2202629,114.937287 13.938595,107.888399 23.3833707,107.888399 Z M24.1221366,117.933167 L25.6894632,122.496373 C28.0404532,122.312702 30.8526617,121.618833 30.8526617,119.961712 C30.8485801,118.027043 27.8975979,117.933167 24.1221366,117.933167 Z" id="Shape"></path>
                                <path d="M11.7712761,145.349138 L11.7712761,134.843152 C11.7712761,134.843152 15.7344901,135.488041 22.6446047,135.488041 L24.7629446,135.488041 C28.1078738,135.531128 31.4511277,135.315522 34.7628151,134.843152 L34.7628151,144.520577 L31.4975513,144.520577 C33.9464992,145.904233 35.2281152,148.022573 35.2281152,150.006221 C35.2638486,150.949076 35.106911,151.889313 34.7668967,152.76945 L24.7670262,148.68787 C25.0445736,148.459302 25.4119158,147.581762 25.4119158,146.708304 C25.4119158,145.557299 24.9506973,144.589964 22.738481,144.589964 L22.8323574,144.545067 L22.6935837,144.545067 C15.7344901,144.520577 11.7712761,145.349138 11.7712761,145.349138 Z" id="Shape"></path>
                                <path d="M11.7712761,164.29175 L11.7712761,153.785764 C11.7712761,153.785764 15.7344901,154.430653 22.6446047,154.430653 L24.7629446,154.430653 C28.1078738,154.473739 31.4511277,154.258134 34.7628151,153.785764 L34.7628151,163.463189 L31.4975513,163.463189 C33.9464992,164.846845 35.2281152,166.965185 35.2281152,168.948833 C35.2638486,169.891687 35.106911,170.831924 34.7668967,171.712062 L24.7670262,167.630482 C25.0445736,167.401914 25.4119158,166.524374 25.4119158,165.646834 C25.4119158,164.495829 24.9506973,163.528495 22.738481,163.528495 L22.8323574,163.479516 L22.6935837,163.479516 C15.7344901,163.459108 11.7712761,164.29175 11.7712761,164.29175 Z" id="Shape"></path>
                                <path d="M13.7998213,186.454728 C12.326371,185.303723 11.3508734,183.507828 11.3508734,180.87929 C11.3508734,175.765071 13.9304318,171.899815 19.183425,171.899815 C24.575192,171.899815 27.2486267,177.152808 27.2486267,181.854788 C27.2726815,182.761969 27.0839729,183.662178 26.6976135,184.483325 C29.4159456,183.838436 30.4771563,182.826204 30.4771563,180.936432 C30.4771563,178.540545 28.5424875,175.960987 27.2118925,175.03855 L32.3710094,172.27532 C32.3710094,172.27532 35.3668889,176.560979 35.3668889,183.242525 C35.3668889,192.964848 27.0731188,193.609738 21.3589071,194.115854 C18.0385286,194.380889 14.7926129,195.23937 11.7753577,196.650515 L11.7753577,187.262881 C12.4154358,186.913514 13.0951125,186.642192 13.7998213,186.454728 L13.7998213,186.454728 Z M19.6528067,185.393518 L20.0609647,185.34862 L20.7997306,185.303723 C21.9997151,184.981278 22.7833784,184.10782 22.7833784,183.046609 C22.7833784,181.846625 21.583394,181.201735 20.3344305,181.201735 C18.4895565,181.201735 17.338551,182.307843 17.338551,183.552725 C17.338551,184.797607 18.4528223,185.303723 19.6528067,185.393518 L19.6528067,185.393518 Z" id="Shape"></path>
                                <path d="M23.3833707,206.776914 C32.5546805,206.776914 35.3628074,213.829884 35.3628074,219.266548 C35.3628074,224.703213 32.2730515,231.294964 23.9343839,231.294964 L19.232404,217.103311 C17.0201878,217.609427 16.007956,218.809411 15.9671402,220.972649 C15.9767371,223.718783 17.3822845,226.271528 19.6977041,227.748071 L14.2120609,230.099061 C12.5794289,227.79705 11.2161813,223.233844 11.2161813,219.27063 C11.2202629,213.825802 13.938595,206.776914 23.3833707,206.776914 Z M24.1221366,216.821682 L25.6894632,221.384888 C28.0404532,221.201217 30.8526617,220.51143 30.8526617,218.850227 C30.8485801,216.915558 27.8975979,216.821682 24.1221366,216.821682 L24.1221366,216.821682 Z" id="Shape"></path>
                                <path d="M14.0283898,232.625559 L19.8813752,234.28268 C17.3018168,236.63367 15.8242849,239.813221 15.8242849,242.347882 C15.8242849,244.421325 16.4242771,244.976419 17.7589537,244.976419 C18.8201644,244.976419 19.6038278,242.809101 20.1099437,240.462192 C20.7997306,237.376518 22.7833784,233.413304 27.5751531,233.458201 C32.8812068,233.413304 35.3628074,239.311187 35.3628074,244.147859 C35.3628074,247.927402 33.4281385,252.85795 32.3669278,254.237524 L27.2078109,251.519192 C28.4975901,250.50696 30.5261353,247.788628 30.5261353,244.743769 C30.5261353,243.360114 30.1587931,242.294821 29.1424797,242.347882 C27.9424953,242.302985 27.9914742,244.837646 26.8853661,247.833525 C25.5017106,251.564089 23.0609259,254.364053 18.7222065,254.364053 C14.2324688,254.364053 10.9672049,249.800847 10.9672049,244.686627 C10.9876128,237.833655 12.7386105,234.331659 14.0283898,232.625559 Z" id="Shape"></path>
                                <path d="M11.7712761,270.784248 C15.4144208,270.642377 19.0379456,270.179364 22.5997073,269.400593 L36.5627918,266.26594 C42.9667905,264.837387 46.3340939,263.086389 46.3340939,263.086389 L46.3340939,274.55971 C46.3340939,274.55971 43.1545432,274.282162 36.6566682,275.784184 L24.7221288,278.502516 L28.5914665,279.792295 C37.9464474,282.877969 46.3340939,278.135174 46.3340939,278.135174 L46.3340939,289.702371 C46.3340939,289.702371 39.8362188,291.269697 30.5751143,287.028936 L22.0486941,283.110619 C18.1793564,281.314724 13.1549317,281.592272 12.0039262,281.682067 C11.9289724,281.708267 11.850597,281.723392 11.7712761,281.726964 L11.7712761,270.784248 Z" id="Shape"></path>
                                <path d="M14.9508268,305.526656 C13.1998291,304.236876 11.3100576,302.163434 11.3100576,298.996128 C11.3100576,292.269685 17.4324273,290.979905 20.9425859,291.530919 L23.8935681,291.992137 C30.7587853,293.053348 34.7668967,289.951347 34.7668967,289.951347 L34.7668967,300.273662 C34.7668967,300.273662 30.2771589,302.314452 24.0772392,300.873655 C23.9833629,300.873655 22.2323652,300.645086 22.0364493,300.596107 C19.0854671,300.228765 18.028338,301.151202 18.028338,302.947097 C18.028338,304.742992 19.9181094,305.481758 23.6976523,305.481758 L23.6527549,305.526656 L23.836426,305.526656 C30.7751117,305.526656 34.7587335,304.71034 34.7587335,304.71034 L34.7587335,315.216326 C34.7587335,315.216326 30.7955196,314.571437 23.885405,314.571437 L21.7670651,314.571437 C15.5018401,314.571437 11.7671946,316.138763 11.7671946,316.138763 L11.7671946,305.526656 L14.9508268,305.526656 Z" id="Shape"></path>
                                <path d="M23.3833707,317.955066 C32.5546805,317.955066 35.3628074,325.003954 35.3628074,330.4447 C35.3628074,335.885446 32.2730515,342.473116 23.9343839,342.473116 L19.232404,328.281463 C17.0201878,328.787579 16.007956,329.987563 15.9671402,332.150801 C15.9767371,334.896935 17.3822845,337.44968 19.6977041,338.926223 L14.2120609,341.277213 C12.5794289,338.975202 11.2161813,334.411996 11.2161813,330.448782 C11.2202629,325.020281 13.938595,317.955066 23.3833707,317.955066 Z M24.1221366,327.999834 L25.6894632,332.56304 C28.0404532,332.379369 30.8526617,331.689582 30.8526617,330.028379 C30.8485801,328.105955 27.8975979,328.01616 24.1221366,328.01616 L24.1221366,327.999834 Z" id="Shape"></path>
                                <path d="M14.0283898,343.820037 L19.8813752,345.477159 C17.3018168,347.828149 15.8242849,351.007699 15.8242849,353.54236 C15.8242849,355.615803 16.4242771,356.170898 17.7589537,356.170898 C18.8201644,356.170898 19.6038278,354.003579 20.1099437,351.656671 C20.7997306,348.570996 22.7833784,344.607782 27.5751531,344.65268 C32.8812068,344.607782 35.3628074,350.505665 35.3628074,355.342337 C35.3628074,359.12188 33.4281385,364.052428 32.3669278,365.432002 L27.2078109,362.71367 C28.4975901,361.701438 30.5261353,358.983106 30.5261353,355.938248 C30.5261353,354.554592 30.1587931,353.4893 29.1424797,353.54236 C27.9424953,353.497463 27.9914742,356.032124 26.8853661,359.023922 C25.5017106,362.758568 23.0609259,365.55445 18.7222065,365.55445 C14.2324688,365.55445 10.9672049,360.991244 10.9672049,355.877024 C10.9876128,349.028133 12.7386105,345.526138 14.0283898,343.820037 Z" id="Shape"></path>
                                <path d="M11.2202629,377.321644 C11.2202629,371.840083 13.8936976,369.672764 20.3915727,369.672764 L28.7792191,369.672764 C29.334314,369.672764 29.8404299,369.672764 30.3016484,369.717661 L30.3016484,365.432002 C34.9927367,368.957412 38.8870563,373.433098 41.7300718,378.566526 L34.8158757,378.566526 L34.8158757,387.750081 L29.4690061,385.44807 C29.9349407,383.187694 30.1972123,380.890084 30.2526695,378.582852 L26.4282292,378.582852 L26.4731266,378.62775 C20.43647,378.62775 17.085493,378.856318 17.085493,381.207308 C17.085493,383.09708 18.0977248,384.525633 19.4813804,385.721536 L14.4569556,386.782746 C12.3712684,385.019504 11.2202629,379.995079 11.2202629,377.321644 Z" id="Shape"></path>
                                <path d="M11.7712761,399.811149 L11.7712761,389.305163 C11.7712761,389.305163 15.7344901,389.950052 22.6446047,389.950052 L24.7629446,389.950052 C28.1078801,389.993383 31.4511528,389.777776 34.7628151,389.305163 L34.7628151,398.982588 L31.4975513,398.982588 C33.9464992,400.366244 35.2281152,402.484584 35.2281152,404.468232 C35.2638486,405.411086 35.106911,406.351323 34.7668967,407.231461 L24.7670262,403.149881 C25.0445736,402.921313 25.4119158,402.043773 25.4119158,401.170315 C25.4119158,400.01931 24.9506973,399.051975 22.738481,399.051975 L22.8323574,399.007078 L22.6935837,399.007078 C15.7344901,398.982588 11.7712761,399.811149 11.7712761,399.811149 Z" id="Shape"></path>
                                <path d="M13.7998213,421.974127 C12.326371,420.823122 11.3508734,419.027227 11.3508734,416.398689 C11.3508734,411.28447 13.9304318,407.419214 19.183425,407.419214 C24.575192,407.419214 27.2486267,412.672207 27.2486267,417.374187 C27.2726815,418.281368 27.0839729,419.181577 26.6976135,420.002724 C29.4159456,419.357835 30.4771563,418.345603 30.4771563,416.455831 C30.4771563,414.059944 28.5424875,411.480386 27.2118925,410.557949 L32.3710094,407.794719 C32.3710094,407.794719 35.3668889,412.080378 35.3668889,418.761924 C35.3668889,428.484247 27.0731188,429.129137 21.3589071,429.635253 C18.0385286,429.900288 14.7926129,430.758769 11.7753577,432.169914 L11.7753577,422.78228 C12.4156523,422.433374 13.0952726,422.162074 13.7998213,421.974127 L13.7998213,421.974127 Z M19.6528067,420.912917 L20.0609647,420.868019 L20.7997306,420.823122 C21.9997151,420.500677 22.7833784,419.623137 22.7833784,418.566008 C22.7833784,417.366024 21.583394,416.721134 20.3344305,416.721134 C18.4895565,416.721134 17.338551,417.827242 17.338551,419.072124 C17.338551,420.317006 18.4528223,420.810877 19.6528067,420.916998 L19.6528067,420.912917 Z" id="Shape"></path>
                                <path d="M20.9425859,435.386198 C24.7037923,434.645253 28.5046172,434.121941 32.326112,433.818872 L36.8403392,433.45153 C42.9627089,432.945414 46.3340939,431.933182 46.3340939,431.933182 L46.3340939,443.545277 C46.3340939,443.545277 42.9708721,442.394271 36.8403392,441.888155 L32.326112,441.520813 C25.9221133,441.014697 20.9425859,440.09226 20.9425859,440.09226 L20.9425859,435.386198 Z M15.0447031,433.267859 C17.163043,433.267859 18.824246,435.251506 18.824246,437.831065 C18.824246,440.182055 17.1671246,442.255497 15.0447031,442.255497 C12.9222816,442.255497 11.3712813,440.182055 11.3712813,437.831065 C11.354955,435.247425 12.9222816,433.263777 15.0447031,433.263777 L15.0447031,433.267859 Z" id="Shape"></path>
                            </g>
                            <g id="Group" style="mix-blend-mode: multiply;" transform="translate(518.360634, 278.771900)" fill="#DE3F96">
                                <path d="M0.99590547,95.1661145 L0.99590547,83.0601489 C5.16760782,84.0353846 9.42152651,84.6175142 13.7018634,84.7989019 L30.15063,85.6682784 C37.260742,86.0478653 41.7137455,84.9091045 41.7137455,84.9091045 L41.7137455,104.125182 L28.5220796,109.227157 L41.7137455,114.125053 L41.7137455,132.90032 C41.7137455,132.90032 37.3709446,131.86768 30.256751,132.247267 L13.5222739,133.116643 C5.97543282,133.49623 0.983660731,135.288044 0.983660731,135.288044 L0.983660731,116.733182 C0.983660731,116.733182 5.65298802,117.818882 13.4692133,117.439295 L24.3262156,116.896445 L17.1589615,114.345458 C10.10191,111.847531 6.89786986,111.521005 6.68154613,111.521005 L6.68154613,99.8885024 C6.68154613,99.8885024 9.99170734,100.431352 17.1589615,97.1211913 L24.2160129,94.6232644 L13.6283949,94.0273538 C5.82849595,93.5906247 0.99590547,95.1661145 0.99590547,95.1661145 Z" id="Shape"></path>
                                <path d="M0.99590547,161.45097 L0.99590547,143.969564 C5.19382799,144.478335 9.42033778,144.714201 13.6488028,144.675677 L30.3179747,144.675677 C37.5382894,144.675677 41.8280298,143.969564 41.8280298,143.969564 L41.8280298,168.724346 C41.8280298,174.532434 38.7341923,182.675185 29.6118614,182.675185 C19.4609725,182.675185 15.4977585,174.512026 15.4977585,168.071293 C15.4977585,166.33254 15.7712243,162.859115 15.9304059,160.524452 L14.7345031,160.524452 C10.1391081,160.516835 5.54866699,160.82641 0.99590547,161.45097 L0.99590547,161.45097 Z M28.7914639,167.369261 C31.2893907,167.369261 33.8934386,165.903974 33.8934386,163.287681 C33.8941074,162.3962 33.8217577,161.506161 33.6771149,160.626491 L22.8201126,160.626491 C22.6171466,161.589623 22.526746,162.573072 22.5507284,163.557066 C22.5507284,166.557027 26.2976186,167.369261 28.7955455,167.369261 L28.7914639,167.369261 Z" id="Shape"></path>
                                <path d="M13.5386002,188.866942 L30.3669537,188.866942 C37.5342078,188.866942 41.8239482,187.671039 41.8239482,187.671039 L41.7137455,204.772858 L41.7137455,225.890952 L32.4852936,221.980799 C32.4852936,221.980799 33.7873176,216.172711 33.8444597,204.768777 L27.3833189,204.768777 C27.4642861,209.905788 27.8267297,215.034501 28.4690191,220.131843 L18.3671091,215.960469 C18.3671091,215.960469 19.8323962,212.213578 20.2119832,204.77694 L9.1917177,204.77694 C8.92272802,207.080363 8.77830199,209.396629 8.75907024,211.715626 C8.75907024,219.531851 11.0406734,224.964434 11.0406734,224.964434 L0.99590547,219.915519 L0.99590547,187.671039 C0.99590547,187.671039 5.77543541,188.866942 13.5386002,188.866942 Z" id="Shape"></path>
                                <path d="M38.9464344,267.535311 L29.5016588,263.453731 C32.2689699,261.22927 35.1464836,256.666064 35.1464836,251.564089 C35.1464836,249.066162 34.8199572,246.258035 32.4322331,246.135588 C30.2608326,246.245791 28.9016665,249.882478 27.8731084,255.147716 C25.9180317,265.192484 22.4446073,270.620985 14.1385924,270.620985 C3.44485335,270.620985 0.130610553,258.678283 0.130610553,247.437612 C0.130610553,239.237718 1.54283716,233.266367 3.98362188,229.413356 L12.5549395,233.086777 C9.46110197,236.127554 7.24888572,240.470355 7.24888572,246.11518 C7.24888572,248.613107 7.95499902,252.955908 10.7223101,252.955908 C13.220237,252.955908 13.9263503,248.874328 15.065111,243.184606 C16.5834587,235.584704 20.4936122,230.48273 28.693506,230.48273 C37.2158446,230.48273 42.428022,240.200971 42.428022,250.84165 C42.4198588,256.515045 40.738248,264.927181 38.9464344,267.535311 Z" id="Shape"></path>
                                <path d="M0.99590547,278.608637 C0.99590547,278.608637 5.89380123,279.8576 13.6488028,279.8576 L30.3179747,279.8576 C37.5913499,279.8576 41.7178271,278.608637 41.7178271,278.608637 L41.7178271,297.232886 C41.7178271,297.232886 37.5913499,295.767598 30.3179747,295.767598 L13.6488028,295.767598 C5.89380123,295.767598 0.99590547,297.232886 0.99590547,297.232886 L0.99590547,278.608637 Z" id="Shape"></path>
                                <path d="M0.99590547,320.685643 L0.99590547,308.567433 C0.99590547,308.567433 6.26114341,309.816396 14.0243082,309.816396 L30.1465484,309.816396 C37.2566604,309.816396 41.7096639,307.971522 41.7096639,307.971522 L41.7096639,326.212102 C41.7096639,326.212102 37.6280841,327.028418 31.122046,332.836506 L26.6323082,336.852781 L30.1628747,336.852781 C37.2729867,336.689517 41.7259903,335.007907 41.7259903,335.007907 L41.7259903,347.277135 C41.7259903,347.277135 37.4362499,345.758788 30.2689958,345.922051 L13.656966,345.922051 C5.84074069,345.922051 1.00406863,347.713864 1.00406863,347.713864 L1.00406863,335.607899 C1.0973342,335.612067 1.18947776,335.629946 1.27753448,335.660959 C2.19997151,335.444636 5.94686176,334.195672 12.0284157,328.656968 L22.7221547,318.885666 L13.9794108,318.885666 C5.9386986,318.889748 0.99590547,320.685643 0.99590547,320.685643 Z M16.0324454,344.191461 C15.8161217,344.244522 15.8161217,344.244522 16.1426481,344.244522 C16.1019812,344.240389 16.0642331,344.221515 16.036527,344.191461 L16.0324454,344.191461 Z" id="Shape"></path>
                                <path d="M21.4119676,397.394854 C9.5753862,397.394854 0.020407899,390.717389 0.020407899,376.382881 C0.020407899,361.725928 9.5753862,355.101524 21.4119676,355.101524 C32.9750832,355.101524 42.5872036,361.562665 42.5872036,376.382881 C42.583122,390.986773 32.9750832,397.394854 21.4119676,397.394854 Z M22.8241942,372.150283 C11.0447549,372.150283 8.05703852,374.321683 8.05703852,376.929813 C8.05703852,379.537942 10.9345523,380.5665 20.6527938,380.5665 C31.9995856,380.5665 34.6036335,378.505302 34.6036335,375.844112 C34.6036335,373.342104 31.889383,372.150283 22.8241942,372.150283 L22.8241942,372.150283 Z" id="Shape"></path>
                                <path d="M38.9464344,440.447357 L29.5016588,436.365778 C32.2689699,434.141317 35.1464836,429.57811 35.1464836,424.476136 C35.1464836,421.978209 34.8199572,419.170082 32.4322331,419.047635 C30.2608326,419.153756 28.9016665,422.794525 27.8731084,428.059763 C25.9180317,438.104531 22.4446073,443.533032 14.1385924,443.533032 C3.44485335,443.533032 0.130610553,431.590329 0.130610553,420.349659 C0.130610553,412.153846 1.54283716,406.178413 3.98362188,402.325402 L12.5549395,405.998824 C9.46110197,409.039601 7.24888572,413.382402 7.24888572,419.027227 C7.24888572,421.525154 7.95499902,425.867954 10.7223101,425.867954 C13.220237,425.867954 13.9263503,421.786375 15.065111,416.096652 C16.5834587,408.496751 20.4936122,403.394776 28.693506,403.394776 C37.2158446,403.394776 42.428022,413.113018 42.428022,423.753696 C42.4198588,429.427092 40.738248,437.839228 38.9464344,440.447357 Z" id="Shape"></path>
                            </g>
                            <path d="M99.998705,395.52549 L45.3463515,395.52549 C45.3463515,395.52549 49.0197734,381.1869 49.0197734,358.407604 L49.0197734,299.632854 C25.6037501,299.792036 13.9753292,301.702215 13.9753292,301.702215 L24.807842,276.053568 L132.479917,276.053568 L121.631078,301.702215 C121.631078,301.702215 112.072018,300.110399 95.6640673,299.632854 L95.6640673,358.407604 C95.6844752,381.190982 99.998705,395.52549 99.998705,395.52549 Z" id="Shape" fill="#4486C6" style="mix-blend-mode: multiply;"></path>
                            <path d="M274.061757,518.899403 L242.898895,518.899403 C242.898895,518.899403 246.111099,505.344476 246.111099,485.365143 L246.111099,443.86364 C246.111099,425.557754 241.36014,414.10076 241.36014,414.10076 L288.298307,414.10076 C288.298307,414.10076 290.392158,424.582257 305.347066,441.349387 L315.689789,452.949236 L315.689789,443.867721 C315.281631,425.561836 310.93883,414.104841 310.93883,414.104841 L342.518013,414.104841 C342.518013,414.104841 338.603778,425.125107 339.024181,443.590174 L339.024181,486.348804 C339.024181,506.470992 343.632285,518.907566 343.632285,518.907566 L312.485749,518.907566 C312.497779,518.6694 312.54453,518.434268 312.624523,518.209616 C312.065347,515.834136 308.853143,506.193445 294.600267,490.540586 L269.449572,463.014412 L269.449572,485.51208 C269.449572,506.185282 274.061757,518.899403 274.061757,518.899403 Z M334.567096,480.193782 C334.70587,480.752958 334.70587,480.752958 334.70587,479.912152 C334.695436,480.020675 334.644416,480.121257 334.563014,480.193782 L334.567096,480.193782 Z" id="Shape" fill="#4486C6" style="mix-blend-mode: multiply;"></path>
                            <path d="M185.642494,600.975891 L185.642494,562.368228 C185.642494,545.515385 182.748654,535.960406 182.748654,535.960406 L225.886871,535.960406 C225.886871,535.960406 222.490996,545.519466 222.490996,562.368228 L222.490996,600.975891 C222.490996,604.747271 222.617525,608.269674 222.866502,611.41249 C228.086175,611.98939 233.333219,612.283693 238.584665,612.294112 C256.694635,612.294112 269.269982,607.012547 269.269982,607.012547 L257.576256,630.277552 L182.748654,630.277552 C182.748654,630.277552 185.642494,618.959331 185.642494,600.975891 Z" id="Shape" fill="#4486C6" style="mix-blend-mode: multiply;"></path>
                            <path d="M251.764087,725.704888 C251.764087,725.704888 253.143661,716.145828 253.143661,700.962351 L253.143661,668.358692 C253.143661,654.126223 251.764087,646.05694 251.764087,646.05694 L276.506623,646.05694 C276.506623,646.05694 274.702565,654.126223 274.702565,668.358692 L274.702565,700.962351 C274.702565,716.14991 276.506623,725.704888 276.506623,725.704888 L251.764087,725.704888 Z" id="Shape" fill="#4486C6" style="mix-blend-mode: multiply;"></path>
                            <path d="M442.896305,540.531776 L433.463774,562.413125 C428.308739,556.000963 417.745611,549.35207 405.921274,549.35207 C400.137675,549.35207 393.594903,550.107162 393.345927,555.641784 C393.598985,560.67029 402.023365,563.804944 414.219126,566.204913 C437.484131,570.731385 450.059478,578.78026 450.059478,598.041235 C450.059478,622.816424 422.390448,630.485713 396.362214,630.485713 C377.374705,630.485713 362.383062,627.012288 353.452566,621.351137 L363.162644,601.686086 C370.203369,608.85334 380.264463,614.008375 393.345927,614.008375 C399.129525,614.008375 409.190619,612.375743 409.190619,605.9595 C409.190619,600.175901 399.758088,598.539188 386.554178,595.898406 C368.946243,592.376002 357.125987,583.323058 357.125987,564.331467 C357.125987,544.588866 379.6359,532.495145 404.28456,532.495145 C417.366024,532.4829 436.859649,536.380809 442.896305,540.531776 Z" id="Shape" fill="#4486C6" style="mix-blend-mode: multiply;"></path>
                        </g>
                    </g>
                </g>
            </g>
        </g>
    </g>
</svg>