<?xml version="1.0" encoding="UTF-8" standalone="no"?>
<svg width="640px" height="361px" viewBox="0 0 640 361" version="1.1" xmlns="http://www.w3.org/2000/svg" xmlns:xlink="http://www.w3.org/1999/xlink">
    <!-- Generator: Sketch 42 (36781) - http://www.bohemiancoding.com/sketch -->
    <title>index</title>
    <desc>Created with Sketch.</desc>
    <defs>
        <rect id="path-1" x="0" y="0.81" width="640" height="360"></rect>
    </defs>
    <g id="Page-1" stroke="none" stroke-width="1" fill="none" fill-rule="evenodd">
        <g id="index">
            <mask id="mask-2" fill="white">
                <use xlink:href="#path-1"></use>
            </mask>
            <g id="Mask" fill-rule="nonzero"></g>
            <g mask="url(#mask-2)" id="Layer_1">
                <g transform="translate(-45.000000, -75.000000)">
                    <g>
                        <g id="Group" fill-rule="nonzero">
                            <rect id="Rectangle-path" fill="#000000" x="45" y="75.81" width="640" height="360"></rect>
                            <path d="M907.49,49.92 C907.49,44.76 911.62,41.31 917.65,41.31 L919.37,41.31 L940.54,61.31 L947.43,61.31 L949.15,39.62 C942.78,36.52 930.22,33.42 919.54,33.42 C896,33.39 882,46.13 882,63.17 C882,91.92 929.17,90.37 929.17,107.58 C929.17,112.58 926.59,116.7 918.84,116.7 C917.630163,116.671802 916.423828,116.558186 915.23,116.36 L890.45,95.53 L882.36,95.53 L882.36,117.91 C891.48,121.91 905.6,124.97 917.3,124.97 C941.06,124.97 955,113.97 955,96.74 C955,65.24 907.49,66.96 907.49,49.92 L907.49,49.92 Z M865.32,109.13 L865.32,33.39 L856.2,33.39 L820.91,42.81 L820.91,49.69 L831.58,52.81 L831.58,106.21 C828.532551,108.439562 824.855958,109.644084 821.08,109.65 C812.3,109.65 809.72,104.49 809.72,94.65 L809.72,33.39 L800.6,33.39 L765.31,42.81 L765.31,49.69 L776,52.81 L776,96.39 C776,112.05 788.22,124.96 806.81,124.96 C818.17,124.96 825.74,122.38 835.9,112.74 L839.34,123.59 L848.81,123.59 L875.3,117.91 L875.3,111.71 L865.32,109.13 Z M756.02,109.13 C754.276755,110.596936 752.09633,111.444488 749.82,111.54 C744.66,111.54 741.9,107.75 741.9,97.43 L741.9,47.68 L749.82,48.37 L758.08,42.37 L758.08,36.17 L741.9,36.17 L741.9,8.43 L732.43,8.43 L712.43,36.14 L698.52,36.14 L698.52,43.71 L708.16,44.57 L708.16,100.87 C708.16,119.46 719.16,124.97 733.16,124.97 C742.28,124.97 752.27,121.36 758.81,115.33 L756.02,109.13 Z M686.82,105.51 C682.597875,107.416259 678.022442,108.414473 673.39,108.44 C653.39,108.44 639.82,92.6 639.82,69.54 C639.82,53.87 645.5,42.86 652.56,41.48 L681.13,71.09 L688.7,71.09 L688.7,42.51 C683.36,37.69 672.52,33.39 657.37,33.39 C630.52,33.39 607.97,53.39 607.97,82.62 C607.97,107.06 624.15,124.97 656.51,124.97 C670.97,124.97 682.33,121.36 690.77,110.68 L686.82,105.51 Z M556.16,41.81 C560.64,41.81 567,48.54 567,69.2 L567,70.75 L543.42,71.09 C543.42,53.53 549.1,41.83 556.16,41.83 L556.16,41.81 Z M576.3,108.44 C560.98,108.44 547.55,96.91 544.3,79.52 L589.23,79.52 L597.3,66.44 C597.13,45.96 582.3,33.39 560.81,33.39 C532.92,33.39 511.58,53.87 511.58,82.28 C511.58,109.13 530,124.97 560.12,124.97 C574.92,124.97 586.12,121.18 594.38,110.68 L590.38,105.52 C585.56,107.41 582.63,108.45 576.26,108.45 L576.3,108.44 Z M463.73,89.51 C463.73,108.1 459.43,116.51 453.4,116.51 C445.31,116.51 440.15,104.29 440.15,92.24 L440.15,51.64 C441.970492,50.5840477 444.045848,50.0479142 446.15,50.09 C461.15,50.09 463.71,73.84 463.71,89.51 L463.73,89.51 Z M452.54,124.97 C480.08,124.97 499.19,104.66 499.19,75.74 C499.19,49.23 484.56,33.39 463.73,33.39 C453.73,33.39 444.11,38.39 436.53,44.24 L433.26,34.81 L423.79,34.81 L395.73,41.18 L395.73,48.07 L406.41,50.81 L406.41,155.09 L394.41,158.36 L394.41,165.25 L454.6,165.25 L454.6,158.36 L440.14,154.36 L440.14,123.59 C444.205474,124.511441 448.361414,124.974331 452.53,124.97 L452.54,124.97 Z M342,49.92 C342,44.76 346.13,41.31 352.16,41.31 L353.88,41.31 L375.05,61.31 L382,61.31 L383.72,39.62 C377.35,36.52 364.79,33.42 354.11,33.42 C330.53,33.42 316.58,46.16 316.58,63.2 C316.58,91.95 363.75,90.4 363.75,107.61 C363.75,112.61 361.17,116.73 353.42,116.73 C352.210163,116.701802 351.003828,116.588186 349.81,116.39 L325,95.53 L316.9,95.53 L316.9,117.91 C326.02,121.91 340.14,124.97 351.84,124.97 C375.6,124.97 389.54,113.97 389.54,96.74 C389.54,65.24 342.03,66.96 342.03,49.92 L342,49.92 Z M258.72,116.19 C244.95,116.19 243.57,80.19 243.57,65.93 C243.57,49.58 247.7,42 254.07,42 C268.01,42 269.39,78.49 269.39,92.44 C269.39,108.79 264.91,116.2 258.72,116.2 L258.72,116.19 Z M256.65,124.98 C295.21,124.98 304.85,97.44 304.85,78.68 C304.85,57.51 294.52,33.41 256.31,33.41 C217.75,33.41 208.11,60.26 208.11,78.85 C208.11,100.2 218.61,124.98 256.65,124.98 L256.65,124.98 Z M175.23,51.64 L180.4,72.81 L199.33,72.81 L203.8,37.69 C201.361876,34.9045072 197.861195,33.2776347 194.16,33.21 C185.73,33.21 178.84,37.69 171.61,43.54 L165.61,48.54 L163.37,33.54 L152.87,33.54 L122.39,41.81 L122.39,48.7 L133.06,51.28 L133.06,113.61 L123.25,116.02 L123.25,122.22 L181.78,122.22 L181.78,116.02 L166.78,112.23 L166.78,57.32 C169.453064,55.2309631 172.270044,53.332927 175.21,51.64 L175.23,51.64 Z M61.8,66.1 C60.5309412,66.1298155 59.2613268,66.073017 58,65.93 L56.63,73.5 C58.7930632,73.843959 60.9797613,74.017825 63.17,74.02 C96.17,74.02 116.53,55.95 116.53,33.22 C116.53,10.84 97.94,0 68.68,0 L0,0 L0,6.88 L12.91,9.81 L12.91,112.57 L1.72,115.32 L1.72,122.21 L63.72,122.21 L63.72,115.33 L50.78,112.4 L50.78,7.57 C52.2655591,7.37067177 53.7613739,7.25715011 55.26,7.23 C68.17,7.23 76.95,21.86 76.95,35.63 C76.95,51.81 71.27,66.1 61.8,66.1 L61.8,66.1 Z" id="Shape" fill="#FFFFFF"></path>
                            <path d="M882,168.91 C883.8,168.91 885.44,170.37 885.44,172.97 L878.44,173.06 C878.87,170.15 880.61,168.91 881.97,168.91 L882,168.91 Z M884.45,180.91 C880.92,180.91 878.34,178.59 878.34,174.53 L878.34,174.31 L887.58,174.31 L888.42,172.82 C888.42,169.69 886.22,167.46 882.65,167.46 C878.37,167.46 875.15,170.72 875.15,175.52 C875.143492,177.491253 875.938854,179.380407 877.353339,180.753401 C878.767824,182.126395 880.679814,182.865176 882.65,182.8 C884.588713,182.938536 886.497744,182.26476 887.92,180.94 L887.36,180.17 C886.486478,180.703668 885.472343,180.961558 884.45,180.91 L884.45,180.91 Z M870.5,181.03 L870.5,172.63 C870.5,169.81 868.89,167.48 866.19,167.48 C864.584179,167.631772 863.051318,168.223463 861.76,169.19 L860.33,170.09 L860.33,158.96 L859.52,158.96 L854.65,160.2 L854.65,161.01 L857.35,161.75 L857.35,181.06 L854.81,181.65 L854.81,182.52 L862.87,182.52 L862.87,181.65 L860.33,181.06 L860.33,171.67 C861.69,170.77 863.58,169.67 864.85,169.67 C866.43,169.67 867.52,170.91 867.52,173.3 L867.52,181.05 L864.98,181.64 L864.98,182.51 L873.04,182.51 L873.04,181.64 L870.5,181.03 Z M851.5,169.53 L853.61,168.53 L853.61,167.81 L848.12,167.81 L848.12,163.15 L847,163.15 L845.17,167.81 L842.17,167.81 L842.17,168.91 L845.17,169.13 L845.17,178.49 C845.17,181.84 847.17,182.83 849.04,182.83 C850.675248,182.867226 852.265579,182.293138 853.5,181.22 L853.19,180.41 C852.328504,180.852359 851.367766,181.065857 850.4,181.03 C849.07,181.03 848.14,180.03 848.14,177.87 L848.14,169.32 L851.5,169.53 Z M829.9,181 L829.9,172.6 C829.9,169.78 828.29,167.45 825.59,167.45 C823.984179,167.601772 822.451318,168.193463 821.16,169.16 L819.61,170.16 L819.36,167.49 L818.62,167.49 L814.22,168.67 L814.22,169.48 L816.76,170.16 L816.76,181.04 L814.22,181.72 L814.22,182.53 L822.28,182.53 L822.28,181.72 L819.74,181.04 L819.74,171.67 C821.1,170.77 823,169.67 824.27,169.67 C825.85,169.67 826.94,170.91 826.94,173.3 L826.94,181.02 L824.4,181.7 L824.4,182.51 L832.46,182.51 L832.46,181.7 L829.9,181 Z M809.75,181 L809.75,167.49 L809,167.49 L804.29,168.67 L804.29,169.48 L806.83,170.16 L806.83,181.04 L804.29,181.72 L804.29,182.53 L812.35,182.53 L812.35,181.72 L809.75,181 Z M808.2,164.17 C809.185828,164.17 809.985,163.370828 809.985,162.385 C809.985,161.399172 809.185828,160.6 808.2,160.6 C807.713863,160.589285 807.243652,160.77355 806.894228,161.111702 C806.544804,161.449855 806.345225,161.913773 806.34,162.4 C806.324901,162.884507 806.514949,163.352892 806.863378,163.689897 C807.211807,164.026902 807.686265,164.201236 808.17,164.17 L808.2,164.17 Z M794.56,167.81 L789,167.81 L789,168.62 L791,169.33 L787,179.64 L782.51,169.26 L784.8,168.61 L784.8,167.81 L777.61,167.81 L777.61,168.62 L779.07,169.12 L785.55,183.38 L785.36,183.81 L781.15,190.1 L781.15,190.9 L784,190.9 L792.46,169.39 L794.57,168.62 L794.56,167.81 Z M769.76,168.93 C771.56,168.93 773.2,170.39 773.2,172.99 L766.2,173.08 C766.63,170.17 768.37,168.93 769.73,168.93 L769.76,168.93 Z M772.21,180.93 C768.68,180.93 766.1,178.61 766.1,174.55 L766.1,174.33 L775.34,174.33 L776.18,172.84 C776.18,169.71 773.98,167.48 770.42,167.48 C766.14,167.48 762.92,170.74 762.92,175.54 C762.913492,177.511253 763.708854,179.400407 765.123339,180.773401 C766.537824,182.146395 768.449814,182.885176 770.42,182.82 C772.358713,182.958536 774.267744,182.28476 775.69,180.96 L775.13,180.19 C774.256235,180.72309 773.24228,180.980934 772.22,180.93 L772.21,180.93 Z M758.3,181.08 L758.3,158.96 L757.49,158.96 L752.62,160.2 L752.62,161.01 L755.32,161.75 L755.32,181.15 L752.93,181.71 L752.93,182.52 L761,182.52 L761,181.71 L758.3,181.08 Z M748.63,181.02 L748.63,167.49 L747.82,167.49 L743.11,168.67 L743.11,169.48 L745.65,170.16 L745.65,181.04 L743.11,181.72 L743.11,182.53 L751.17,182.53 L751.17,181.72 L748.63,181.02 Z M747.05,164.16 C748.035828,164.16 748.835,163.360828 748.835,162.375 C748.835,161.389172 748.035828,160.59 747.05,160.59 C746.563863,160.579285 746.093652,160.76355 745.744228,161.101702 C745.394804,161.439855 745.195225,161.903773 745.19,162.39 C745.174901,162.874507 745.364949,163.342892 745.713378,163.679897 C746.061807,164.016902 746.536265,164.191236 747.02,164.16 L747.05,164.16 Z M729.7,179.01 C729.785031,177.668345 730.719887,176.532012 732.02,176.19 L735.86,174.92 L735.86,178.92 C734.25,180.1 733.04,181.12 731.86,181.12 C731.280525,181.162206 730.711339,180.950333 730.300503,180.539497 C729.889667,180.128661 729.677794,179.559475 729.72,178.98 L729.7,179.01 Z M738.86,179.85 L738.86,172.81 C738.86,168.63 736.26,167.45 733.56,167.45 C731.323365,167.484547 729.18155,168.359121 727.56,169.9 L728.34,172.97 L729.58,172.97 L730.23,169.97 C730.807782,169.268358 731.681987,168.879411 732.59,168.92 C734.73,168.92 735.88,170.92 735.88,173.35 L735.88,173.57 L730.55,175.24 C727.64,176.17 726.61,177.47 726.61,179.33 C726.599055,180.292559 726.991923,181.215667 727.693182,181.875117 C728.394442,182.534567 729.339929,182.87002 730.3,182.8 C732.3,182.8 733.77,181.8 736.03,180.17 L736.5,182.49 L737.31,182.49 L741.56,181.49 L741.56,180.68 L738.86,179.85 Z M716.33,181.24 C715.457987,181.187935 714.589809,181.084421 713.73,180.93 L712.86,180.78 L712.86,171.48 L714.78,171.48 C718.78,171.48 720.78,173.56 720.78,177.09 C720.78,180.47 718.15,181.24 716.38,181.24 L716.33,181.24 Z M713.19,162.33 C713.84425,162.147061 714.513604,162.023231 715.19,161.96 C717.36,161.96 719.07,162.96 719.07,166.3 C719.07,169.06 717.4,170.08 717.07,170.08 L712.98,170.08 L712.98,162.43 L713.19,162.33 Z M718.92,170.48 L718.92,170.33 C720.962245,169.520207 722.286098,167.526452 722.24,165.33 C722.24,162.51 719.92,160.74 715.33,160.74 L706.9,160.74 L706.9,161.67 L709.66,162.32 L709.66,180.89 L707.43,181.51 L707.43,182.44 L716.43,182.44 C720.77,182.44 724.06,180.44 724.06,176.33 C724.06,172.67 720.93,170.97 718.98,170.44 L718.92,170.48 Z M688.59,168.91 C690.39,168.91 692.03,170.37 692.03,172.97 L685.03,173.06 C685.46,170.15 687.2,168.91 688.56,168.91 L688.59,168.91 Z M691.04,180.91 C687.51,180.91 684.93,178.59 684.93,174.53 L684.93,174.31 L694.17,174.31 L695,172.81 C695,169.68 692.8,167.45 689.23,167.45 C684.95,167.45 681.73,170.71 681.73,175.51 C681.723492,177.481253 682.518854,179.370407 683.933339,180.743401 C685.347824,182.116395 687.259814,182.855176 689.23,182.79 C691.168713,182.928536 693.077744,182.25476 694.5,180.93 L693.94,180.16 C693.066235,180.69309 692.05228,180.950934 691.03,180.9 L691.04,180.91 Z M681,167.81 L675.36,167.81 L675.36,168.62 L677.36,169.46 L673.08,179.69 L668.74,169.37 L671.07,168.63 L671.07,167.81 L663.72,167.81 L663.72,168.62 L665.46,169.27 L671.46,182.85 L673.16,182.85 L678.77,169.55 L680.97,168.62 L681,167.81 Z M651.86,179.03 C651.946361,177.685534 652.885944,176.548356 654.19,176.21 L658,174.93 L658,178.93 C656.39,180.11 655.18,181.13 654,181.13 C653.420525,181.172206 652.851339,180.960333 652.440503,180.549497 C652.029667,180.138661 651.817794,179.569475 651.86,178.99 L651.86,179.03 Z M661,179.86 L661,172.81 C661,168.63 658.4,167.45 655.7,167.45 C653.463365,167.484547 651.32155,168.359121 649.7,169.9 L650.47,172.97 L651.71,172.97 L652.36,169.97 C652.937782,169.268358 653.811987,168.879411 654.72,168.92 C656.86,168.92 658,170.92 658,173.35 L658,173.57 L652.67,175.24 C649.76,176.17 648.73,177.47 648.73,179.33 C648.719055,180.292559 649.111923,181.215667 649.813182,181.875117 C650.514442,182.534567 651.459929,182.87002 652.42,182.8 C654.42,182.8 655.89,181.8 658.15,180.17 L658.61,182.49 L659.42,182.49 L663.67,181.49 L663.67,180.68 L661,179.86 Z M634.16,181.1 C633.109704,181.045181 632.064129,180.921583 631.03,180.73 L630.03,180.58 L630.03,162.65 L630.65,162.56 C631.529188,162.373746 632.422191,162.26003 633.32,162.22 C638.19,162.22 642.32,165.78 642.32,172.42 C642.32,178.62 638.97,181.13 634.23,181.13 L634.16,181.1 Z M634.35,160.83 L623.75,160.83 L623.75,161.76 L626.82,162.53 L626.82,180.81 L624.22,181.59 L624.22,182.52 L634.51,182.52 C642.17,182.52 645.82,177.44 645.82,171.21 C645.82,164.76 640.89,160.83 634.35,160.83 L634.35,160.83 Z M613.89,167.83 L608.37,167.83 L608.37,168.64 L610.37,169.35 L606.28,179.67 L601.79,169.29 L604.08,168.64 L604.08,167.81 L596.89,167.81 L596.89,168.62 L598.35,169.12 L604.83,183.38 L604.64,183.81 L600.42,190.1 L600.42,190.9 L603.3,190.9 L611.76,169.39 L613.87,168.62 L613.89,167.83 Z M588.44,181.53 C586.44,181.53 584.44,180.23 584.44,177.13 L584.44,170.93 C585.334739,169.967877 586.568037,169.390665 587.88,169.32 C590.33,169.32 592.19,171.95 592.19,175.74 C592.19,179.34 590.79,181.5 588.41,181.5 L588.44,181.53 Z M589.22,167.5 C587.450558,167.516266 585.750384,168.18992 584.45,169.39 L584.45,158.96 L583.64,158.96 L578.77,160.2 L578.77,161.01 L581.47,161.75 L581.47,182.81 L582.34,182.81 L583.43,181.54 C584.7345,182.470385 586.321438,182.919252 587.92,182.81 C591.86,182.81 595.3,179.62 595.3,174.66 C595.3,170.38 592.79,167.47 589.22,167.47 L589.22,167.5 Z M566.41,181.01 L566.41,172.61 C566.41,169.79 564.8,167.46 562.1,167.46 C560.494179,167.611772 558.961318,168.203463 557.67,169.17 L556.12,170.17 L555.87,167.5 L555.13,167.5 L550.73,168.68 L550.73,169.49 L553.27,170.17 L553.27,181.05 L550.73,181.73 L550.73,182.54 L558.79,182.54 L558.79,181.73 L556.25,181.05 L556.25,171.67 C557.61,170.77 559.5,169.67 560.78,169.67 C562.36,169.67 563.45,170.91 563.45,173.3 L563.45,181.02 L560.91,181.7 L560.91,182.51 L568.97,182.51 L568.97,181.7 L566.41,181.01 Z M549.8,167.81 L544.16,167.81 L544.16,168.62 L546.52,169.62 L543.52,179.29 L539.23,167.81 L538.46,167.81 L533.41,179.19 L531,169.41 L533.48,168.6 L533.48,167.81 L525.82,167.81 L525.82,168.62 L527.71,169.27 L531.38,182.81 L533.12,182.81 L537.83,172.46 L541.83,182.81 L543.63,182.81 L548,169.41 L549.83,168.6 L549.8,167.81 Z M513.94,179.03 C514.025031,177.688345 514.959887,176.552012 516.26,176.21 L520.1,174.94 L520.1,178.94 C518.49,180.12 517.28,181.14 516.1,181.14 C515.520525,181.182206 514.951339,180.970333 514.540503,180.559497 C514.129667,180.148661 513.917794,179.579475 513.96,179 L513.94,179.03 Z M523.1,179.87 L523.1,172.81 C523.1,168.63 520.5,167.45 517.8,167.45 C515.563365,167.484547 513.42155,168.359121 511.8,169.9 L512.57,172.97 L513.81,172.97 L514.46,169.97 C515.037782,169.268358 515.911987,168.879411 516.82,168.92 C518.96,168.92 520.11,170.92 520.11,173.35 L520.11,173.57 L514.78,175.24 C511.87,176.17 510.84,177.47 510.84,179.33 C510.829055,180.292559 511.221923,181.215667 511.923182,181.875117 C512.624442,182.534567 513.569929,182.87002 514.53,182.8 C516.53,182.8 518,181.8 520.26,180.17 L520.72,182.49 L521.53,182.49 L525.78,181.49 L525.78,180.68 L523.1,179.87 Z M506.86,167.47 C505.81,167.47 504.57,168.4 503.08,169.55 L502.08,170.32 L501.8,167.47 L501,167.47 L496.6,168.68 L496.6,169.45 L499.14,170.13 L499.14,181.04 L496.6,181.63 L496.6,182.5 L505.74,182.5 L505.74,181.63 L502.11,180.95 L502.11,171.73 C503.035525,170.922011 504.108554,170.300606 505.27,169.9 L506.39,172.53 L507.57,172.53 L508.72,168.53 C508.361103,167.82477 507.620156,167.397451 506.83,167.44 L506.86,167.47 Z M486,181 C483.77,181 481.54,179.3 481.54,174.77 C481.54,170.77 483.86,168.91 485.91,168.91 C487.96,168.91 489.35,170.49 489.35,173.06 L489.35,179.2 C488.541796,180.251072 487.322553,180.906187 486,181 L486,181 Z M492.32,179.88 L492.32,158.96 L491.52,158.96 L486.65,160.2 L486.65,161.01 L489.35,161.75 L489.35,168.11 C488.290355,167.666698 487.148111,167.455298 486,167.49 C481.88,167.49 478.5,170.4 478.5,175.61 C478.5,179.61 480.73,182.83 484.67,182.83 C486.58988,182.827811 488.414248,181.992251 489.67,180.54 L490.07,182.54 L490.88,182.54 L495.06,181.54 L495.06,180.73 L492.32,179.88 Z M381.87,167.81 L376.35,167.81 L376.35,168.62 L378.35,169.33 L374.26,179.65 L369.77,169.27 L372.06,168.62 L372.06,167.81 L364.87,167.81 L364.87,168.62 L366.33,169.12 L372.81,183.38 L372.62,183.81 L368.41,190.1 L368.41,190.9 L371.29,190.9 L379.75,169.39 L381.86,168.62 L381.87,167.81 Z M362,181.09 L362,158.96 L361.19,158.96 L356.32,160.2 L356.32,161.01 L359.02,161.75 L359.02,181.15 L356.63,181.71 L356.63,182.52 L364.69,182.52 L364.69,181.71 L362,181.09 Z M352.33,181.03 L352.33,167.49 L351.52,167.49 L346.81,168.67 L346.81,169.48 L349.35,170.16 L349.35,181.04 L346.81,181.72 L346.81,182.53 L354.87,182.53 L354.87,181.72 L352.33,181.03 Z M350.75,164.17 C351.735828,164.17 352.535,163.370828 352.535,162.385 C352.535,161.399172 351.735828,160.6 350.75,160.6 C350.263863,160.589285 349.793652,160.77355 349.444228,161.111702 C349.094804,161.449855 348.895225,161.913773 348.89,162.4 C348.874901,162.884507 349.064949,163.352892 349.413378,163.689897 C349.761807,164.026902 350.236265,164.201236 350.72,164.17 L350.75,164.17 Z M342.32,181.03 L342.32,172.94 C342.32,169.65 340.71,167.48 338.17,167.48 C336.617344,167.661981 335.140598,168.25199 333.89,169.19 L332.28,170.19 C331.694179,168.555403 330.146399,167.463559 328.41,167.46 C326.809137,167.621215 325.283474,168.219718 324,169.19 L322.45,170.19 L322.2,167.52 L321.46,167.52 L317.06,168.7 L317.06,169.51 L319.6,170.19 L319.6,181.07 L317.06,181.75 L317.06,182.56 L325.12,182.56 L325.12,181.75 L322.58,181.07 L322.58,171.64 C323.94,170.74 325.83,169.64 327.11,169.64 C328.69,169.64 329.78,170.88 329.78,173.27 L329.78,180.99 L327.24,181.67 L327.24,182.48 L335,182.48 L335,181.67 L332.74,181.02 L332.74,172.63 C332.741132,172.254816 332.711028,171.880189 332.65,171.51 C333.988081,170.539548 335.543311,169.911276 337.18,169.68 C338.57,169.68 339.38,170.92 339.38,173.62 L339.38,181.06 L337.12,181.71 L337.12,182.52 L344.9,182.52 L344.9,181.71 L342.32,181.03 Z M303.64,179.03 C303.725031,177.688345 304.659887,176.552012 305.96,176.21 L309.8,174.94 L309.8,178.94 C308.19,180.12 306.98,181.14 305.8,181.14 C305.220525,181.182206 304.651339,180.970333 304.240503,180.559497 C303.829667,180.148661 303.617794,179.579475 303.66,179 L303.64,179.03 Z M312.8,179.87 L312.8,172.81 C312.8,168.63 310.2,167.45 307.5,167.45 C305.263365,167.484547 303.12155,168.359121 301.5,169.9 L302.27,172.97 L303.51,172.97 L304.16,169.97 C304.737782,169.268358 305.611987,168.879411 306.52,168.92 C308.66,168.92 309.81,170.92 309.81,173.35 L309.81,173.57 L304.48,175.24 C301.57,176.17 300.54,177.47 300.54,179.33 C300.529055,180.292559 300.921923,181.215667 301.623182,181.875117 C302.324442,182.534567 303.269929,182.87002 304.23,182.8 C306.23,182.8 307.7,181.8 309.96,180.17 L310.42,182.49 L311.23,182.49 L315.48,181.49 L315.48,180.68 L312.8,179.87 Z M297.13,160.36 C297.296251,160.343358 297.463749,160.343358 297.63,160.36 L298.63,162.72 L299.68,162.72 L300.42,159.72 C299.617729,159.173755 298.659463,158.903475 297.69,158.95 C293.57,158.95 290.96,162.55 290.96,167.78 L288.42,167.78 L288.42,168.96 L290.96,169.15 L290.96,181.02 L288.42,181.7 L288.42,182.51 L297.22,182.51 L297.22,181.7 L293.93,180.93 L293.93,169.41 L296.66,169.63 L299.11,168.63 L299.11,167.81 L293.9,167.81 L293.9,167.07 C293.9,163.41 294.36,160.37 297.12,160.37 L297.13,160.36 Z M270.35,168.91 C272.15,168.91 273.79,170.37 273.79,172.97 L266.79,173.06 C267.22,170.15 268.96,168.91 270.32,168.91 L270.35,168.91 Z M272.8,180.91 C269.27,180.91 266.69,178.59 266.69,174.53 L266.69,174.31 L276,174.31 L276.8,172.81 C276.8,169.68 274.6,167.45 271.04,167.45 C266.76,167.45 263.54,170.71 263.54,175.51 C263.528412,177.47756 264.315928,179.365562 265.722226,180.741698 C267.128524,182.117834 269.033154,182.864238 271,182.81 C272.938713,182.948536 274.847744,182.27476 276.27,180.95 L275.71,180.18 C274.836478,180.713668 273.822343,180.971558 272.8,180.92 L272.8,180.91 Z M260.09,180.18 C259.224379,180.732172 258.20424,180.991588 257.18,180.92 C255.508651,180.939894 253.901657,180.276436 252.731132,179.083256 C251.560608,177.890077 250.928074,176.270661 250.98,174.6 C250.98,170.26 253.64,167.97 256.62,169.05 L259,172.72 L260.24,172.72 L260.24,168.72 C258.806652,167.956782 257.213561,167.542236 255.59,167.51 C253.51762,167.499553 251.531814,168.340308 250.096961,169.835655 C248.662108,171.331003 247.904029,173.349817 248,175.42 C247.940855,177.408051 248.706718,179.33201 250.115943,180.735552 C251.525167,182.139094 253.452205,182.897177 255.44,182.83 C257.86,182.83 259.56,182.21 260.71,180.97 L260.09,180.18 Z M234.36,179 C234.445031,177.658345 235.379887,176.522012 236.68,176.18 L240.52,174.91 L240.52,178.91 C238.91,180.09 237.7,181.11 236.52,181.11 C235.940525,181.152206 235.371339,180.940333 234.960503,180.529497 C234.549667,180.118661 234.337794,179.549475 234.38,178.97 L234.36,179 Z M243.52,179.84 L243.52,172.81 C243.52,168.63 240.92,167.45 238.22,167.45 C235.983365,167.484547 233.84155,168.359121 232.22,169.9 L232.99,172.97 L234.23,172.97 L234.88,169.97 C235.45563,169.271236 236.325444,168.882596 237.23,168.92 C239.37,168.92 240.52,170.92 240.52,173.35 L240.52,173.57 L235.19,175.24 C232.28,176.17 231.25,177.47 231.25,179.33 C231.234673,180.305615 231.634381,181.241842 232.349598,181.905563 C233.064814,182.569284 234.028245,182.89805 235,182.81 C237,182.81 238.47,181.81 240.73,180.18 L241.2,182.5 L242,182.5 L246.25,181.5 L246.25,180.69 L243.52,179.84 Z M227.86,160.36 C228.026251,160.343358 228.193749,160.343358 228.36,160.36 L229.36,162.72 L230.41,162.72 L231.15,159.72 C230.347729,159.173755 229.389463,158.903475 228.42,158.95 C224.3,158.95 221.69,162.55 221.69,167.78 L219.15,167.78 L219.15,168.96 L221.69,169.15 L221.69,181.02 L219.15,181.7 L219.15,182.51 L227.95,182.51 L227.95,181.7 L224.66,180.93 L224.66,169.41 L227.39,169.63 L229.84,168.63 L229.84,167.81 L224.66,167.81 L224.66,167.07 C224.66,163.41 225.13,160.37 227.88,160.37 L227.86,160.36 Z M209.78,168.93 C211.58,168.93 213.22,170.39 213.22,172.99 L206.22,173.08 C206.65,170.17 208.39,168.93 209.75,168.93 L209.78,168.93 Z M212.23,180.93 C208.7,180.93 206.12,178.61 206.12,174.55 L206.12,174.33 L215.36,174.33 L216.2,172.81 C216.2,169.68 214,167.45 210.44,167.45 C206.16,167.45 202.94,170.71 202.94,175.51 C202.933492,177.481253 203.728854,179.370407 205.143339,180.743401 C206.557824,182.116395 208.469814,182.855176 210.44,182.79 C212.378713,182.928536 214.287744,182.25476 215.71,180.93 L215.15,180.16 C214.276478,180.693668 213.262343,180.951558 212.24,180.9 L212.23,180.93 Z M192.24,181.36 C190.07,181.36 188.8,179.78 188.8,177.21 L188.8,171.11 C189.608204,170.058928 190.827447,169.403813 192.15,169.31 C194.38,169.31 196.61,171.02 196.61,175.54 C196.61,179.54 194.29,181.4 192.24,181.4 L192.24,181.36 Z M193.48,167.48 C191.56012,167.482189 189.735752,168.317749 188.48,169.77 L188.08,167.77 L187.27,167.77 L183.09,168.77 L183.09,169.58 L185.79,170.39 L185.79,188.96 L183.09,189.74 L183.09,190.54 L192.09,190.54 L192.09,189.81 L188.77,189.07 L188.77,182.21 C189.829198,182.6548 190.97177,182.866261 192.12,182.83 C196.24,182.83 199.62,179.92 199.62,174.71 C199.62,170.71 197.39,167.49 193.45,167.49 L193.48,167.48 Z M182.39,167.81 L176.87,167.81 L176.87,168.62 L178.87,169.33 L174.78,179.65 L170.3,169.25 L172.59,168.6 L172.59,167.81 L165.4,167.81 L165.4,168.62 L166.86,169.12 L173.34,183.38 L173.15,183.81 L168.93,190.1 L168.93,190.9 L171.81,190.9 L180.27,169.39 L182.38,168.62 L182.39,167.81 Z M163.3,169.58 L165.41,168.58 L165.41,167.81 L159.92,167.81 L159.92,163.15 L158.74,163.15 L156.94,167.81 L153.94,167.81 L153.94,168.91 L156.94,169.13 L156.94,178.49 C156.94,181.84 158.94,182.83 160.81,182.83 C162.445248,182.867226 164.035579,182.293138 165.27,181.22 L164.96,180.41 C164.098504,180.852359 163.137766,181.065857 162.17,181.03 C160.84,181.03 159.91,180.03 159.91,177.87 L159.91,169.32 L163.3,169.58 Z M142.5,169.58 L144.61,168.58 L144.61,167.81 L139.12,167.81 L139.12,163.15 L137.94,163.15 L136.14,167.81 L133.14,167.81 L133.14,168.91 L136.14,169.13 L136.14,178.49 C136.14,181.84 138.14,182.83 140.02,182.83 C141.655248,182.867226 143.245579,182.293138 144.48,181.22 L144.17,180.41 C143.308504,180.852359 142.347766,181.065857 141.38,181.03 C140.05,181.03 139.12,180.03 139.12,177.87 L139.12,169.32 L142.5,169.58 Z M131,181.22 L126.29,174.49 L130.2,169.28 L131.87,168.6 L131.87,167.81 L126.72,167.81 L126.72,168.62 L128.52,169.43 L125.52,173.43 L122.52,169.15 L124.1,168.62 L124.1,167.81 L117.36,167.81 L117.36,168.62 L119,169.12 L123.43,175.44 L119.24,181.02 L117.1,181.73 L117.1,182.54 L122.65,182.54 L122.65,181.73 L120.91,180.89 L124.16,176.52 L127.41,181.11 L125.83,181.73 L125.83,182.54 L132.71,182.54 L132.71,181.73 L131,181.22 Z M108.81,168.91 C110.61,168.91 112.25,170.37 112.25,172.97 L105.25,173.06 C105.68,170.15 107.42,168.91 108.78,168.91 L108.81,168.91 Z M111.26,180.91 C107.73,180.91 105.15,178.59 105.15,174.53 L105.15,174.31 L114.39,174.31 L115.25,172.81 C115.25,169.68 113.05,167.45 109.49,167.45 C105.21,167.45 101.99,170.71 101.99,175.51 C101.983492,177.481253 102.778854,179.370407 104.193339,180.743401 C105.607824,182.116395 107.519814,182.855176 109.49,182.79 C111.428713,182.928536 113.337744,182.25476 114.76,180.93 L114.2,180.16 C113.326478,180.693668 112.312343,180.951558 111.29,180.9 L111.26,180.91 Z M98.14,169.56 L100.25,168.56 L100.25,167.81 L94.77,167.81 L94.77,163.15 L93.59,163.15 L91.79,167.81 L88.79,167.81 L88.79,168.91 L91.79,169.13 L91.79,178.49 C91.79,181.84 93.79,182.83 95.67,182.83 C97.3052481,182.867226 98.8955787,182.293138 100.13,181.22 L99.82,180.41 C98.958351,180.851935 97.9977252,181.065408 97.03,181.03 C95.7,181.03 94.77,180.03 94.77,177.87 L94.77,169.32 L98.14,169.56 Z M64,173.41 L67.25,164.41 L70.75,173.41 L64,173.41 Z M77.14,181.03 L69.14,160.51 L66.75,161.51 L59.65,180.94 L57.54,181.62 L57.54,182.55 L64.2,182.55 L64.2,181.62 L61.42,180.81 L63.53,174.81 L71.4,174.81 L73.69,180.81 L70.84,181.55 L70.84,182.48 L79.27,182.48 L79.27,181.55 L77.14,181.03 Z" id="Shape" fill="#FFFFFF"></path>
                            <path d="M940.89,243.64 C945.43,243.53 949.53,242.88 952.45,241.26 L953.45,236.83 L942.3,236.83 L945.54,221.6 L939.38,221.6 L926.2,236.81 L916,236.81 L915.14,240.59 C916.76,240.91 919.14,241.35 921.95,241.78 L913.74,280.34 C912.74,284.77 915.68,291.03 924.11,291.03 L943.45,288.55 L944.21,284.88 L938.38,284.02 C933.52,283.37 933.09,280.56 933.38,278.94 L940.89,243.64 Z M858.8,283.64 C863.23,289.15 873.16,290.88 879,290.99 C893.15,291.21 904.28,283.75 904.28,269.99 C904.28,261.57 880.28,249.47 880.28,243.64 C880.128619,241.628929 881.45184,239.80263 883.41,239.32 C889.685891,243.250825 895.516689,247.851087 900.8,253.04 L910.31,241.92 C907.61,238.68 899.83,235.22 891.73,235.12 C869.16,234.8 866.89,249.49 866.89,255.43 C866.89,263.1 890.33,274.98 890.33,281.89 C890.375251,284.029723 888.785893,285.852937 886.66,286.1 C880.347721,282.217917 874.623096,277.453009 869.66,271.95 L858.8,283.64 Z M836.33,241.73 C837.84,241.73 840,247.99 840.65,258.58 L830.17,263.23 C831.36,253.23 834.27,241.73 836.33,241.73 L836.33,241.73 Z M841,277.99 C837.11,277.99 829.66,275.4 829.66,271.4 C829.66,270.1 829.77,268.59 829.88,267.08 L861,253.14 C859.92,242.02 855,235.14 846.53,235.14 C822.77,235.14 809.81,258.9 809.81,276.4 C809.81,282.34 815.81,287.09 822.23,289.25 C825.94857,290.524669 829.859443,291.147161 833.79,291.09 C841.68,291.09 846.54,282.99 855.39,270.24 L852.8,268.4 C847.62,275.53 845.02,278.01 841.03,278.01 L841,277.99 Z M808.19,230.16 C808.08,230.48 808.08,230.81 807.97,231.24 L808.19,230.16 Z M801.28,214.93 L802,248.81 C797.012584,260.301249 790.706978,271.174142 783.21,281.21 L783.97,213.21 L763.56,214.94 L763.34,246.37 C758.514896,258.17625 752.361981,269.395088 745,279.81 L745,219.88 L740.57,214.88 L719,214.88 L718,219.2 L723.29,221.04 L723.83,291.57 L742.73,289.52 C747.91,284.23 756.12,271.59 763.14,257.76 L763,291.6 L782.12,289.55 C796.7,275.62 814.31,238.55 819.06,213.08 L801.28,214.93 Z M698.62,235.32 C697.688767,235.188785 696.750307,235.115311 695.81,235.1 C685.98,235.1 681.98,240.93 678.74,247.63 C674.53,256.27 670.21,265.78 666.64,273.63 L664.8,273.63 L677.22,238.42 L674.52,235.07 L650.87,238.63 L649.87,242.52 L655.81,244.03 L645.66,291.03 L665.75,289.3 L667.48,280.77 C668.99,276.34 673.96,265.54 678.17,257.33 L694.26,255.17 L698.62,235.32 Z M621.28,241.69 C622.79,241.69 624.95,247.95 625.6,258.54 L615.12,263.19 C616.31,253.19 619.22,241.69 621.28,241.69 L621.28,241.69 Z M625.93,277.98 C622.04,277.98 614.59,275.39 614.59,271.39 C614.59,270.09 614.7,268.58 614.81,267.07 L645.92,253.14 C644.84,242.02 639.92,235.14 631.45,235.14 C607.69,235.14 594.73,258.9 594.73,276.4 C594.73,282.34 600.73,287.09 607.15,289.25 C610.868521,290.524864 614.779429,291.147362 618.71,291.09 C626.59,291.09 631.46,282.99 640.31,270.24 L637.72,268.4 C632.54,275.53 629.94,278.01 625.95,278.01 L625.93,277.98 Z M566.54,281.36 C563.41,281.36 557.9,279.96 551.42,276.82 C562.42,256.51 566.32,250.57 569.03,251.82 C572.27,253.22 572.92,254.41 572.92,256.03 C572.92,263.81 569.03,281.31 566.55,281.31 L566.54,281.36 Z M581.46,235.94 C578.54,234.32 574.46,234.86 572.6,236.8 C566.6,243.06 558.02,256.67 549.27,272.88 L547.76,272.88 L560.29,238.1 L557.8,235.1 L534.15,237.59 L533.29,241.91 L540.09,242.91 L524.32,316.68 L526.16,319.16 L552.73,315.49 L553.59,311.49 L545.38,309.22 L549.48,289.89 C552.005391,290.646467 554.623952,291.046992 557.26,291.08 C576.7,291.08 591.61,267.21 591.61,249.17 C591.61,241.29 587.29,238.8 581.46,235.99 L581.46,235.94 Z M500.78,282.65 C495.6,282.65 490.52,281.25 490.52,275.09 C490.52,261.37 495.92,244.74 498.19,244.74 C503.48,244.74 508.45,246.14 508.45,252.3 C508.45,266.02 503.05,282.65 500.78,282.65 L500.78,282.65 Z M490.3,291.08 C518.38,291.08 529.3,267.32 529.3,249.28 C529.3,241.5 521.52,235.28 509.43,235.28 C481.43,235.28 470.65,259.15 470.65,277.08 C470.65,284.86 478.43,291.08 490.31,291.08 L490.3,291.08 Z M438.79,282.65 C433.6,282.65 428.53,281.25 428.53,275.09 C428.53,261.37 433.93,244.74 436.2,244.74 C441.49,244.74 446.46,246.14 446.46,252.3 C446.46,266.02 441.06,282.65 438.79,282.65 L438.79,282.65 Z M428.31,291.08 C456.39,291.08 467.31,267.32 467.31,249.28 C467.31,241.5 459.53,235.28 447.44,235.28 C419.44,235.28 408.66,259.15 408.66,277.08 C408.66,284.86 416.44,291.08 428.32,291.08 L428.31,291.08 Z M356.82,291.08 C372.27,291.08 387.93,287.73 402.19,268.08 L398.52,265.27 C392.15,273.16 385.23,278.02 376.38,278.02 C369.38,278.02 358.67,277.26 358.67,267.11 C358.67,244.32 371.42,220.45 374.12,220.45 C376.06,220.45 384.71,225.96 389.57,228.77 L400.37,235.03 L409.55,218.72 C403.61,213.86 393.89,213.1 386.44,213.1 C358.68,213.1 336,243.1 336,271.43 C336,286.01 346.26,291.09 356.85,291.09 L356.82,291.08 Z M279.85,271.32 C277.26,269.92 276.61,268.94 276.61,267.54 C276.61,261.06 279.53,245.54 281.61,245.54 C285.39,245.54 292.2,248.24 295.61,250.94 C285.89,267.03 281.89,272.44 279.84,271.36 L279.85,271.32 Z M297.99,213.25 C264.51,213.25 237.07,249.33 236.99,284.43 C236.99,304.95 253.41,308.52 265.61,308.52 C277.81,308.52 284.94,306.25 289.48,303.98 L288.62,299.88 C266.69,299.88 256.43,295.23 256.43,280.55 C256.43,259.16 272.09,221.55 280.62,221.55 C302.98,221.66 312.92,226.19 312.92,240.88 C312.92,251.79 308.71,266.8 303.63,279.33 L302.01,279.01 L301.36,278.79 L309,237.81 L306.3,236.3 L302.84,241.16 C297.01,238.16 293.01,236.84 288.91,236.84 C273.25,236.84 261.58,257.84 261.58,273.56 C261.58,280.56 265.15,282.42 269.79,285.12 C272.055606,286.549601 275.006643,286.235045 276.92,284.36 C281.78,278.74 289.02,266.65 296.25,254.22 L297.44,254.22 L284.07,282.41 L286.77,285.87 L305.35,283.49 L305.35,283.38 L317.23,281.87 C326.41,269.23 332.14,253.03 332.14,237.15 C332.25,216.52 315.83,213.15 297.9,213.15 L297.99,213.25 Z M211.81,241.66 C213.32,241.66 215.48,247.92 216.13,258.51 L205.65,263.16 C206.84,253.16 209.75,241.66 211.81,241.66 L211.81,241.66 Z M216.45,277.95 C212.56,277.95 205.11,275.36 205.11,271.36 C205.11,270.06 205.22,268.55 205.33,267.04 L236.44,253.11 C235.36,241.99 230.44,235.11 221.97,235.11 C198.21,235.11 185.25,258.87 185.25,276.37 C185.25,282.31 191.25,287.06 197.67,289.22 C201.388521,290.494864 205.299429,291.117362 209.23,291.06 C217.11,291.06 221.98,282.96 230.83,270.21 L228.24,268.37 C223.06,275.5 220.46,277.98 216.47,277.98 L216.45,277.95 Z M157.93,281.33 C154.8,281.33 149.29,279.93 142.81,276.79 C153.81,256.48 157.72,250.54 160.42,251.79 C163.66,253.19 164.31,254.38 164.31,256 C164.31,263.78 160.42,281.28 157.94,281.28 L157.93,281.33 Z M172.85,235.91 C169.93,234.29 165.85,234.83 163.99,236.77 C157.99,243.03 149.41,256.64 140.66,272.85 L139.12,272.85 L151.65,238.07 L149.17,235.07 L125.52,237.56 L124.66,241.88 L131.47,242.88 L115.68,316.65 L117.52,319.13 L144.09,315.46 L144.95,311.46 L136.74,309.19 L140.85,289.86 C143.375362,290.616594 145.993941,291.017122 148.63,291.05 C168.07,291.05 182.98,267.18 182.98,249.14 C182.98,241.26 178.66,238.77 172.83,235.96 L172.85,235.91 Z M118.72,235.1 L104.45,236.81 L108.45,257.55 L99.05,273.1 L92.14,238.32 L88.68,234.97 L68.81,237.81 L67.81,241.81 L72.89,243 L85,296.35 L85,296.46 L59.41,310.71 L58.65,314.6 L76.65,316.33 L117.65,250.44 C120.604752,245.840717 120.982637,240.043963 118.65,235.1 L118.72,235.1 Z M68.05,214.91 L7.13,214.91 L0.32,237.27 L5.4,237.27 L21,220.42 L26.18,219.99 L12.57,284.04 L18.19,291.04 L42.38,287.91 L43.46,283.48 L34.71,281.97 L47.85,220.09 L52.17,220.41 L59.84,237.26 L64.92,237.26 L68.05,214.91 Z" id="Shape" fill="#FFFFFF"></path>
                            <path d="M891.63,364.59 L894.11,352.94 C894.75,349.94 893.11,348.21 890.11,348.21 C888.42,348.21 883.76,355.31 881.51,359.86 L881.1,359.86 L884.1,349.38 L883.16,348.21 L877.52,349.07 L877.33,350.07 L880.45,350.82 L877.07,366.82 L880.3,366.45 L880.53,365.4 L880.79,364.2 C882.22,359.2 888.38,350.79 889.24,350.79 C890.59,350.79 891.24,351.35 890.97,352.79 L888.15,365.98 L888.9,366.88 L894.5,366.24 L894.73,365.15 L891.63,364.59 Z M868.63,358.73 C868.44,359.26 867.63,362.98 867.39,364.25 C867.28,364.85 866.71,367.44 865.81,371.65 C865.47,373.23 865.28,374.43 864.27,374.43 C861.41,374.43 857.51,372.43 857.51,371.43 C857.51,371.05 863.18,367.43 869.91,354.34 L870.32,354.34 L868.63,358.73 Z M864.38,350.5 C866.367117,350.544574 868.313369,351.073185 870.05,352.04 C867.95,356.25 864.6,361.73 862.5,364.1 C861.67,363.65 860.81,363.24 860.5,362.22 C859.79,358.69 862.79,350.5 864.33,350.5 L864.38,350.5 Z M872.97,347.5 L871.69,349.5 C870.231339,348.859471 868.689393,348.428534 867.11,348.22 C862.04,348.03 857.3,355.92 857.3,362.08 C857.3,365.08 858.09,365.72 860.19,366.78 C857.11,370.01 854.37,371.25 854.37,372.6 C854.37,374.29 857.11,376.21 861.58,376.21 C868.58,376.21 868.91,371.03 869.73,367.21 C870.14,365.21 872.73,352.67 873.86,347.75 L872.97,347.5 Z M853.1,348.25 L847.69,349.11 L847.5,350.11 L850.5,350.82 L847.3,365.91 L848.09,366.81 L853.69,366.17 L853.92,365.08 L850.73,364.59 L854,349.26 L853.1,348.25 Z M853.7,340.74 C853.073809,340.755351 852.480433,341.023256 852.054791,341.482798 C851.629149,341.942341 851.407413,342.554469 851.44,343.18 C851.390472,343.714067 851.590016,344.24113 851.980822,344.608487 C852.371628,344.975844 852.910014,345.142437 853.44,345.06 C854.07506,345.037909 854.672975,344.755188 855.093022,344.278377 C855.51307,343.801566 855.718152,343.172777 855.66,342.54 C855.670322,342.038193 855.467114,341.555599 855.10095,341.21232 C854.734786,340.869041 854.240098,340.697359 853.74,340.74 L853.7,340.74 Z M830.82,364.93 C832.108953,366.146951 833.817357,366.820284 835.59,366.81 C839.2,366.89 842.8,364.44 842.8,360.24 C842.8,357.24 836.34,354.98 836.34,352.58 C836.34,350.66 837.43,349.73 838.93,349.8 C840.182244,350.518298 841.375939,351.334156 842.5,352.24 L844.3,349.95 C843.26989,348.899063 841.861588,348.304766 840.39,348.3 C834.53,348.15 833.52,352.73 833.52,354.3 C833.52,357.08 840.13,359.41 840.13,362.3 C840.121299,363.102677 839.772131,363.863896 839.16944,364.394112 C838.566749,364.924328 837.767242,365.173651 836.97,365.08 C835.493232,364.400534 834.083684,363.583599 832.76,362.64 L830.82,364.93 Z M823.57,350.28 C825.0527,350.432373 826.218823,351.615274 826.35,353.1 L818.27,358.21 C819.1,352.91 821.65,350.28 823.57,350.28 L823.57,350.28 Z M822.63,364.56 C820.63,364.56 818.01,363.24 818.01,361.93 C818.007431,361.165287 818.044146,360.400946 818.12,359.64 L829.72,352.81 C829.46,350.1 827.8,348.19 824.99,348.19 C819.47,348.19 814.85,356.49 814.85,362.05 C814.85,364.94 816.28,365.54 817.29,366.11 C818.211611,366.529602 819.207784,366.760796 820.22,366.79 C823.41,366.79 825.78,365.55 827.92,362.51 L827.17,361.76 C825.74,363.34 824.28,364.5 822.62,364.5 L822.63,364.56 Z M800.19,364.91 L792.83,362.43 L797.26,341.69 L803.26,341.69 C806.79,342.59 808.67,345.3 808.67,349.69 C808.67,355.78 805.81,364.15 800.14,364.87 L800.19,364.91 Z M807.47,340.07 L790.35,340.07 L790.09,341.2 L793.7,342.25 L788.47,366.81 L789.52,366.81 L791.32,365.2 C793.222721,366.337168 795.415048,366.896542 797.63,366.81 C807.14,366.81 812.63,357.12 812.63,349.34 C812.63,345.09 811.02,341.41 807.56,340.13 L807.47,340.07 Z M770.4,350.24 C771.8827,350.392373 773.048823,351.575274 773.18,353.06 L765.1,358.17 C765.93,352.87 768.48,350.24 770.4,350.24 L770.4,350.24 Z M769.46,364.52 C767.46,364.52 764.84,363.2 764.84,361.89 C764.836949,361.125276 764.873666,360.360911 764.95,359.6 L776.56,352.81 C776.3,350.1 774.64,348.19 771.83,348.19 C766.31,348.19 761.69,356.49 761.69,362.05 C761.69,364.94 763.12,365.54 764.13,366.11 C765.051611,366.529602 766.047784,366.760796 767.06,366.79 C770.25,366.79 772.62,365.55 774.76,362.51 L774,361.81 C772.57,363.39 771.11,364.55 769.45,364.55 L769.46,364.52 Z M751.39,366.81 C753.257857,366.991328 755.104335,366.297053 756.39,364.93 C757.137186,364.142749 757.806935,363.28547 758.39,362.37 L757.6,361.69 C756.25,363.42 755.31,364.28 753.35,364.28 C749.82,364.28 748.92,362.93 748.92,361.95 C748.92,356.62 751.59,350.38 754.44,349.95 L757.44,352.51 L759.88,350.51 C759.131347,348.999718 757.564252,348.071214 755.88,348.14 C750.73,348.14 745.74,355.88 745.74,361.89 C745.74,364.78 746.94,365.53 747.66,365.99 C748.814342,366.514532 750.07245,366.77094 751.34,366.74 L751.39,366.81 Z M739.24,352.09 L739.24,352.16 L739.24,352.09 Z M730.64,363.47 C729.55,362.94 729.29,362.57 729.29,361.67 C729.29,356.67 732.18,350.44 733.42,350.44 C735.414343,350.470874 737.367099,351.015028 739.09,352.02 C733.87,361.68 731.73,364.02 730.64,363.48 L730.64,363.47 Z M743.08,347.81 L742.18,347.51 L740.9,349.61 C739.427042,348.918492 737.854499,348.462927 736.24,348.26 C731.13,348.11 726.1,356.15 726.1,362.12 C726.1,365.12 726.85,365.58 728.69,366.52 C729.570888,367.028887 730.680097,366.90744 731.43,366.22 C734.224138,362.596967 736.700012,358.739287 738.83,354.69 L739.21,354.69 L735.79,366.04 L736.5,366.87 L742.29,366.23 L742.55,365.14 L739.55,364.69 L743.08,347.81 Z M727.15,339.32 L730.42,342.14 L732.49,340.49 C732.04,339.02 730.24,337.93 728.28,337.93 C724.03,337.93 720.54,341.65 718.77,348.64 L715.46,348.64 L715.24,349.64 C716.33,349.79 717.42,349.94 718.47,350.05 L712.87,376.27 L713,376.27 L716.19,374.58 L721.37,350.35 C721.93,350.35 722.5,350.42 722.99,350.42 C724.229683,350.505061 725.446165,350.053433 726.33,349.18 L726.33,348.65 L721.75,348.65 L721.9,347.9 C722.8,343.65 724.42,339.9 727.12,339.33 L727.15,339.32 Z M706.19,350.33 C707.670888,350.486144 708.835027,351.667033 708.97,353.15 L700.89,358.26 C701.72,352.96 704.27,350.33 706.19,350.33 L706.19,350.33 Z M705.25,364.61 C703.25,364.61 700.63,363.29 700.63,361.98 C700.627431,361.215287 700.664146,360.450946 700.74,359.69 L712.39,352.81 C712.13,350.1 710.47,348.19 707.66,348.19 C702.14,348.19 697.52,356.49 697.52,362.05 C697.52,364.94 698.95,365.54 699.96,366.11 C700.881611,366.529602 701.877784,366.760796 702.89,366.79 C706.08,366.79 708.45,365.55 710.59,362.51 L709.84,361.76 C708.41,363.34 706.95,364.5 705.3,364.5 L705.25,364.61 Z M687.79,364.5 C685.786362,364.446438 683.826168,363.904038 682.08,362.92 L682.08,362.92 C687.49,353.53 689.67,351.01 690.08,351.27 C691.51,352.02 692.08,352.4 692.08,353.27 C692.08,358.27 689.08,364.5 687.8,364.5 L687.79,364.5 Z M692.57,348.5 C691.689112,347.991113 690.579903,348.11256 689.83,348.8 C688.06,350.8 685.25,355.26 682.73,359.62 L682.35,359.62 L685.24,349.33 L684.24,348.16 L678.64,349.02 L678.45,350.02 L681.61,350.77 L676.35,375.19 L677.29,376.36 L682.66,375.5 L682.85,374.5 L679.73,373.67 L681.42,365.86 C682.559923,366.331948 683.762577,366.635138 684.99,366.76 C690.1,366.95 695.13,358.87 695.13,352.9 C695.13,349.9 694.38,349.44 692.54,348.5 L692.57,348.5 Z M674.66,348.16 L671.58,348.54 L672.75,355.11 L667.57,363.04 L665.92,349.18 L665.13,348.43 L660.25,349.52 L660.14,350.52 L662.96,350.93 L664.96,367.01 L664.32,368.01 L657.32,374.58 L657.06,375.58 L660.7,375.84 L674.22,355.36 C676.02,352.65 675.87,349.76 674.67,348.18 L674.66,348.16 Z M661.6,340.1 L641.65,340.1 L639.81,346.3 L640.9,346.3 L644.13,342.13 L649.65,341.75 L644.65,365.27 L645.81,366.73 L652.16,366.02 L652.42,364.89 L648.47,364.21 L653.26,341.81 L658.41,342.19 L659.69,346.36 L660.78,346.36 L661.6,340.1 Z M623.32,364.56 L625.8,352.91 C626.44,349.91 624.8,348.18 621.8,348.18 C620.11,348.18 615.45,355.28 613.2,359.83 L612.79,359.83 L615.79,349.35 L614.85,348.18 L609.22,349.04 L609.03,350.04 L612.15,350.79 L608.77,366.79 L612,366.42 L612.23,365.37 L612.49,364.17 C613.92,359.17 620.08,350.76 620.94,350.76 C622.29,350.76 622.94,351.32 622.67,352.76 L619.85,365.95 L620.6,366.85 L626.2,366.21 L626.43,365.12 L623.32,364.56 Z M603.93,348.21 L598.52,349.07 L598.33,350.07 L601.33,350.78 L598.1,365.92 L598.89,366.82 L604.49,366.18 L604.72,365.09 L601.53,364.6 L604.8,349.27 L603.93,348.21 Z M604.53,340.7 C603.905567,340.717999 603.314778,340.987056 602.891297,341.446298 C602.467815,341.905541 602.247429,342.516157 602.28,343.14 C602.230472,343.674067 602.430016,344.20113 602.820822,344.568487 C603.211628,344.935844 603.750014,345.102437 604.28,345.02 C604.91506,344.997909 605.512975,344.715188 605.933022,344.238377 C606.35307,343.761566 606.558152,343.132777 606.5,342.5 C606.510322,341.998193 606.307114,341.515599 605.94095,341.17232 C605.574786,340.829041 605.080098,340.657359 604.58,340.7 L604.53,340.7 Z M582.87,364.59 L585.35,352.94 C585.99,349.94 584.35,348.21 581.35,348.21 C579.66,348.21 575.15,355.31 572.9,359.86 L572.49,359.86 L574.14,354.15 L574.37,352.95 C574.97,349.64 573.58,348.22 570.54,348.22 C568.85,348.22 564.3,355.32 562.05,359.87 L561.64,359.87 L564.64,349.39 L563.7,348.22 L558.06,349.08 L557.87,350.08 L561,350.81 L557.62,366.81 L560.85,366.44 L561.04,365.44 L561.15,364.76 C562.28,359.88 568.78,350.76 569.68,350.76 C571.03,350.76 571.68,351.32 571.26,353.47 L568.43,366.81 L571.66,366.44 L572.11,364.34 C573.5,359.34 579.59,350.78 580.45,350.78 C581.8,350.78 582.45,351.34 582.03,353.49 L579.36,365.93 L580.11,366.83 L585.71,366.19 L585.93,365.1 L582.87,364.59 Z M550.33,352.15 L550.33,352.22 L550.33,352.15 Z M541.73,363.53 C540.64,363 540.38,362.63 540.38,361.73 C540.38,356.73 543.27,350.5 544.51,350.5 C546.504343,350.530874 548.457099,351.075028 550.18,352.08 C544.96,361.74 542.82,364.08 541.73,363.54 L541.73,363.53 Z M554.08,347.81 L553.18,347.51 L551.9,349.61 C550.427101,348.918337 548.854533,348.462764 547.24,348.26 C542.13,348.11 537.1,356.15 537.1,362.12 C537.1,365.12 537.85,365.58 539.69,366.52 C540.570888,367.028887 541.680097,366.90744 542.43,366.22 C545.223853,362.596766 547.699711,358.739112 549.83,354.69 L550.21,354.69 L546.79,366.04 L547.5,366.87 L553.29,366.23 L553.55,365.14 L550.55,364.69 L554.08,347.81 Z M537.36,348.41 C536.890536,348.306106 536.410804,348.255784 535.93,348.26 C534.13,348.26 532.93,349.26 531.87,351.15 C530.22,354.15 528.53,357.46 527.25,360.43 L526.84,360.43 L530.15,349.43 L529.21,348.26 L523.58,349.12 L523.39,350.12 L526.51,350.87 L523.13,366.87 L526.36,366.5 L526.55,365.5 C527.26,363.21 528.99,359.19 532.86,351.75 L536.69,351.41 L537.36,348.41 Z M514.63,358.78 C514.44,359.31 513.63,363.03 513.39,364.3 C513.28,364.9 512.71,367.49 511.81,371.7 C511.47,373.28 511.28,374.48 510.27,374.48 C507.41,374.48 503.51,372.48 503.51,371.48 C503.51,371.1 509.18,367.48 515.91,354.39 L516.32,354.39 L514.63,358.78 Z M510.38,350.55 C512.367117,350.594574 514.313369,351.123185 516.05,352.09 C513.95,356.3 510.6,361.78 508.5,364.15 C507.67,363.7 506.81,363.29 506.5,362.27 C505.79,358.74 508.79,350.55 510.33,350.55 L510.38,350.55 Z M518.97,347.55 L517.69,349.55 C516.231339,348.909471 514.689393,348.478534 513.11,348.27 C508.04,348.08 503.31,355.97 503.31,362.13 C503.31,365.13 504.1,365.77 506.2,366.83 C503.12,370.06 500.38,371.3 500.38,372.65 C500.38,374.34 503.12,376.26 507.59,376.26 C514.59,376.26 514.92,371.08 515.74,367.26 C516.15,365.26 518.74,352.72 519.87,347.8 L518.97,347.55 Z M493.31,364.61 C490.42,364.61 487.6,364.12 487.6,361.98 C487.6,356.79 490.6,350.6 491.88,350.6 C494.81,350.6 497.59,351.09 497.59,353.23 C497.59,358.42 494.59,364.61 493.31,364.61 L493.31,364.61 Z M489.95,366.81 C496.68,366.81 500.81,358.92 500.81,352.95 C500.81,349.16 497.5,348.22 495.36,348.22 C488.64,348.22 484.5,356.11 484.5,362.08 C484.5,365.87 487.81,366.81 489.95,366.81 L489.95,366.81 Z M484.65,348.36 C484.180536,348.256106 483.700804,348.205784 483.22,348.21 C481.42,348.21 480.22,349.21 479.16,351.1 C477.51,354.1 475.82,357.41 474.54,360.38 L474.13,360.38 L477.44,349.38 L476.5,348.21 L470.86,349.07 L470.67,350.07 L473.79,350.82 L470.41,366.82 L473.64,366.45 L473.83,365.45 C474.54,363.16 476.27,359.14 480.14,351.7 L483.97,351.36 L484.65,348.36 Z M460.76,354.36 L455.09,354.36 L457.76,341.74 L462.76,341.74 C465.05,342.19 465.46,343.99 465.46,345.74 C465.46,349.27 462.87,354.34 460.73,354.34 L460.76,354.36 Z M466.4,340.14 L450.84,340.14 L450.58,341.27 L454.15,342.32 L449.27,365.32 L450.43,366.75 L456.74,366.04 L457,364.91 L453,364.23 L454.77,355.89 L460.63,355.89 C464.63,355.89 469.27,349.89 469.27,345.07 C469.27,342.82 468.56,340.94 466.45,340.07 L466.4,340.14 Z M423.85,363.48 C422.85,362.95 422.35,362.58 422.35,361.68 C422.35,356.68 425.35,350.45 426.63,350.45 C428.624343,350.480874 430.577099,351.025028 432.3,352.03 C427.08,361.72 424.94,364.03 423.85,363.49 L423.85,363.48 Z M438.24,338.99 L437.3,337.83 L431.89,338.69 L431.7,339.69 L434.82,340.52 L433,349.11 C431.858468,348.642929 430.656528,348.339919 429.43,348.21 C424.32,348.02 419.29,356.1 419.29,362.07 C419.29,365.07 420.04,365.53 421.88,366.47 C422.760888,366.978887 423.870097,366.85744 424.62,366.17 C427.306662,362.783773 429.682925,359.162482 431.72,355.35 L432.1,355.35 L429.47,365.98 L430.18,366.81 L435.7,366.17 L435.96,365.08 L432.84,364.63 L438.24,338.99 Z M411,350.24 C412.480888,350.396144 413.645027,351.577033 413.78,353.06 L405.7,358.17 C406.53,352.87 409.08,350.24 411,350.24 L411,350.24 Z M410,364.52 C408,364.52 405.38,363.2 405.38,361.89 C405.377448,361.125287 405.414163,360.360948 405.49,359.6 L417.14,352.81 C416.88,350.1 415.22,348.19 412.41,348.19 C406.89,348.19 402.27,356.49 402.27,362.05 C402.27,364.94 403.7,365.54 404.71,366.11 C405.631611,366.529602 406.627784,366.760796 407.64,366.79 C410.83,366.79 413.2,365.55 415.34,362.51 L414.59,361.76 C413.16,363.34 411.7,364.5 410.04,364.5 L410,364.52 Z M386.97,363.5 C385.97,362.97 385.47,362.6 385.47,361.7 C385.47,356.7 388.47,350.47 389.75,350.47 C391.744343,350.500874 393.697099,351.045028 395.42,352.05 C390.2,361.74 388.06,364.05 386.97,363.51 L386.97,363.5 Z M401.36,339.01 L400.42,337.85 L395.01,338.71 L394.82,339.71 L397.94,340.54 L396.1,349.11 C394.95851,348.642801 393.756552,348.339786 392.53,348.21 C387.42,348.02 382.39,356.1 382.39,362.07 C382.39,365.07 383.14,365.53 384.98,366.47 C385.860888,366.978887 386.970097,366.85744 387.72,366.17 C390.406267,362.783487 392.782506,359.162233 394.82,355.35 L395.2,355.35 L392.57,365.98 L393.28,366.81 L398.8,366.17 L399.06,365.08 L395.94,364.63 L401.36,339.01 Z M376.08,364.56 L378.56,352.91 C379.2,349.91 377.56,348.18 374.56,348.18 C372.87,348.18 368.21,355.28 365.96,359.83 L365.55,359.83 L368.55,349.35 L367.61,348.18 L361.97,349.04 L361.78,350.04 L364.9,350.79 L361.52,366.79 L364.75,366.42 L364.98,365.37 L365.24,364.17 C366.67,359.17 372.83,350.76 373.69,350.76 C375.04,350.76 375.69,351.32 375.42,352.76 L372.6,365.95 L373.35,366.85 L378.95,366.21 L379.17,365.12 L376.08,364.56 Z M352.41,350.21 C353.890888,350.366144 355.055027,351.547033 355.19,353.03 L347.11,358.14 C347.94,352.84 350.49,350.21 352.41,350.21 L352.41,350.21 Z M351.47,364.49 C349.47,364.49 346.85,363.17 346.85,361.86 C346.847431,361.095287 346.884146,360.330946 346.96,359.57 L358.57,352.81 C358.31,350.1 356.65,348.19 353.84,348.19 C348.32,348.19 343.7,356.49 343.7,362.05 C343.7,364.94 345.13,365.54 346.14,366.11 C347.061611,366.529602 348.057784,366.760796 349.07,366.79 C352.26,366.79 354.63,365.55 356.77,362.51 L356,361.81 C354.57,363.39 353.11,364.55 351.45,364.55 L351.47,364.49 Z M337.93,350.55 C339.825225,350.693896 341.7257,350.349607 343.45,349.55 L343.64,348.55 L338.34,348.55 L339.39,343.67 L338.39,343.67 L335.53,348.55 L331.85,348.55 L331.62,349.68 C332.37,349.83 333.54,350.06 334.81,350.24 L332.07,363.24 C331.957523,364.08114 332.195934,364.931517 332.729289,365.591592 C333.262645,366.251666 334.043996,366.663335 334.89,366.73 L339.89,366.05 L340.11,364.92 L336.99,364.51 C335.9,364.36 335.15,363.31 335.26,362.74 L337.93,350.55 Z M327.75,353.63 C329.275402,352.272784 329.744867,350.0833 328.91,348.22 L325.08,348.78 L326.51,352.91 L321.93,356.44 L319.07,348.93 L318.07,348.22 L313.45,348.97 L313.26,349.97 L316.26,350.65 L318.74,357.22 L313.03,361.43 C311.504598,362.787216 311.035133,364.9767 311.87,366.84 L315.74,366.09 L314.24,362.15 L319.16,358.32 L322.16,366.14 L323.16,366.85 L327.71,366.1 L327.9,365.1 L324.9,364.42 L322.31,357.58 L327.75,353.63 Z M311.82,340.14 L294.7,340.14 L294.44,341.27 L298.01,342.21 L293.16,364.81 L294.55,366.46 L306,366.46 L308.07,360.75 L306.83,360.75 L303.83,365.07 L296.83,364.32 L299.2,353.13 L306.38,353.24 L306.91,351.36 L299.55,351.47 L301.62,341.74 L308.38,341.74 L308.53,345.95 L309.77,345.95 L311.82,340.14 Z M274.66,350.25 C276.140888,350.406144 277.305027,351.587033 277.44,353.07 L269.36,358.18 C270.19,352.88 272.74,350.25 274.66,350.25 L274.66,350.25 Z M273.72,364.53 C271.72,364.53 269.1,363.21 269.1,361.9 C269.097448,361.135287 269.134163,360.370948 269.21,359.61 L280.84,352.81 C280.58,350.1 278.92,348.19 276.11,348.19 C270.59,348.19 265.97,356.49 265.97,362.05 C265.97,364.94 267.4,365.54 268.41,366.11 C269.331698,366.529347 270.327819,366.760528 271.34,366.79 C274.53,366.79 276.9,365.55 279.04,362.51 L278.29,361.76 C276.86,363.34 275.4,364.5 273.74,364.5 L273.72,364.53 Z M260.22,350.5 C262.115248,350.644345 264.015836,350.300035 265.74,349.5 L265.93,348.5 L260.63,348.5 L261.68,343.62 L260.68,343.62 L257.83,348.5 L254.15,348.5 L253.92,349.63 C254.67,349.78 255.84,350.01 257.11,350.19 L254.37,363.19 C254.257523,364.03114 254.495934,364.881517 255.029289,365.541592 C255.562645,366.201666 256.343996,366.613335 257.19,366.68 L262.19,366 L262.42,364.87 L259.3,364.46 C258.21,364.31 257.46,363.26 257.57,362.69 L260.22,350.5 Z M246.85,352.11 L246.85,352.18 L246.85,352.11 Z M238.25,363.49 C237.16,362.96 236.9,362.59 236.9,361.69 C236.9,356.69 239.79,350.46 241.03,350.46 C243.024278,350.491323 244.976922,351.035446 246.7,352.04 C241.48,361.7 239.34,364.04 238.25,363.5 L238.25,363.49 Z M250.63,347.81 L249.73,347.51 L248.45,349.61 C246.977042,348.918492 245.404499,348.462927 243.79,348.26 C238.68,348.11 233.65,356.15 233.65,362.12 C233.65,365.12 234.4,365.58 236.24,366.52 C237.120888,367.028887 238.230097,366.90744 238.98,366.22 C241.774179,362.596996 244.250055,358.739313 246.38,354.69 L246.76,354.69 L243.34,366.04 L244.05,366.87 L249.84,366.23 L250.1,365.14 L247.1,364.69 L250.63,347.81 Z M230.76,348.64 L227.6,348.64 L227.3,349.96 C225.76,355.96 220.35,364.16 219.3,364.16 C218.25,364.16 217.2,363.86 217.53,362.16 L220.27,349.16 L219.52,348.22 L213.77,349.08 L213.58,350.08 L216.7,350.94 L214.22,362.66 C213.69,365.06 214.97,366.83 218.39,366.83 C219.55,366.83 222.3,363.9 226.69,354.66 L227.07,354.66 L223.73,366.01 L224.41,366.84 L230.27,366.2 L230.5,365.11 L227.38,364.66 L230.76,348.64 Z M197.36,363.64 C196.36,363.11 195.86,362.74 195.86,361.84 C195.86,356.84 198.86,350.61 200.14,350.61 C202.134343,350.640874 204.087099,351.185028 205.81,352.19 C200.59,361.88 198.45,364.19 197.36,363.65 L197.36,363.64 Z M211.75,339.15 L210.81,337.99 L205.4,338.85 L205.21,339.85 L208.33,340.68 L206.49,349.25 C205.348722,348.782157 204.14667,348.479119 202.92,348.35 C197.81,348.16 192.78,356.24 192.78,362.21 C192.78,365.21 193.53,365.67 195.37,366.61 C196.250888,367.118887 197.360097,366.99744 198.11,366.31 C200.796662,362.923773 203.172925,359.302482 205.21,355.49 L205.59,355.49 L203,365.98 L203.71,366.81 L209.23,366.17 L209.49,365.08 L206.37,364.63 L211.75,339.15 Z M186.35,352.26 L186.35,352.33 L186.35,352.26 Z M177.75,363.64 C176.66,363.11 176.4,362.74 176.4,361.84 C176.4,356.84 179.29,350.61 180.53,350.61 C182.524343,350.640874 184.477099,351.185028 186.2,352.19 C180.98,361.85 178.84,364.19 177.75,363.65 L177.75,363.64 Z M190.14,347.81 L189.24,347.51 L187.96,349.61 C186.487101,348.918337 184.914533,348.462764 183.3,348.26 C178.19,348.11 173.16,356.15 173.16,362.12 C173.16,365.12 173.91,365.58 175.75,366.52 C176.630888,367.028887 177.740097,366.90744 178.49,366.22 C181.283812,362.596737 183.759668,358.739087 185.89,354.69 L186.27,354.69 L182.85,366.04 L183.56,366.87 L189.35,366.23 L189.61,365.14 L186.61,364.69 L190.14,347.81 Z M173.42,348.41 C172.95055,348.306021 172.470808,348.255698 171.99,348.26 C170.19,348.26 168.99,349.26 167.93,351.15 C166.28,354.15 164.59,357.46 163.31,360.43 L162.9,360.43 L166.21,349.43 L165.27,348.26 L159.64,349.12 L159.45,350.12 L162.57,350.87 L159.19,366.87 L162.42,366.5 L162.61,365.5 C163.32,363.21 165.05,359.19 168.92,351.75 L172.75,351.41 L173.42,348.41 Z M145.42,342.32 C147.516779,342.277243 149.596875,342.700777 151.51,343.56 L154.89,345.18 L156.77,341.99 C154.513073,340.557427 151.893182,339.800956 149.22,339.81 C140.01,339.81 133.44,350.18 133.78,359.99 C133.93,364.2 136.78,366.87 142.12,366.87 C144.62113,366.839481 147.080268,366.222984 149.3,365.07 L150.43,368.53 L151.52,368.68 L154.52,354.37 L153.69,353.47 L147.79,353.47 L147.57,354.56 L150.88,355.42 L149.23,363.23 C148.336378,363.831053 147.303399,364.192596 146.23,364.28 C141.87,364.36 137.36,362.82 137.36,359.88 C137.36,351.28 142.47,342.41 145.36,342.34 L145.42,342.32 Z M115.36,357.93 L127.93,357.93 L128.46,355.53 L116,355.53 L115.36,357.93 Z M108.15,350.6 C110.045225,350.743896 111.9457,350.399607 113.67,349.6 L113.86,348.6 L108.56,348.6 L109.61,343.72 L108.61,343.72 L105.76,348.6 L102.2,348.6 L102,349.71 C102.75,349.86 103.92,350.09 105.19,350.27 L102.45,363.27 C102.322508,364.114214 102.549998,364.973556 103.078489,365.644115 C103.60698,366.314673 104.389367,366.736681 105.24,366.81 L110.24,366.13 L110.46,365 L107.34,364.59 C106.25,364.44 105.5,363.39 105.61,362.82 L108.15,350.6 Z M85.7,364.89 C86.9826696,366.121548 88.6918121,366.809505 90.47,366.81 C94.08,366.89 97.68,364.44 97.68,360.24 C97.68,357.24 91.22,354.98 91.22,352.58 C91.22,350.66 92.31,349.73 93.81,349.8 C95.0622439,350.518298 96.2559386,351.334156 97.38,352.24 L99.18,349.95 C98.1498904,348.899063 96.7415884,348.304766 95.27,348.3 C89.41,348.15 88.4,352.73 88.4,354.3 C88.4,357.08 95.01,359.41 95.01,362.3 C95.0012993,363.102677 94.6521315,363.863896 94.04944,364.394112 C93.4467485,364.924328 92.6472424,365.173651 91.85,365.08 C90.3731223,364.400745 88.9635553,363.583799 87.64,362.64 L85.7,364.89 Z M76.95,364.52 C74.06,364.52 71.24,364.03 71.24,361.89 C71.24,356.7 74.24,350.51 75.52,350.51 C78.45,350.51 81.23,351 81.23,353.14 C81.23,358.33 78.23,364.52 76.95,364.52 L76.95,364.52 Z M73.53,366.81 C80.26,366.81 84.39,358.92 84.39,352.95 C84.39,349.16 81.08,348.22 78.94,348.22 C72.22,348.22 68.08,356.11 68.08,362.08 C68.08,365.87 71.39,366.81 73.53,366.81 L73.53,366.81 Z M59.18,354.33 L53.51,354.33 L56.18,341.71 L61.18,341.71 C63.47,342.16 63.88,343.96 63.88,345.71 C63.88,349.24 61.29,354.31 59.15,354.31 L59.18,354.33 Z M64.82,340.11 L49.26,340.11 L49,341.26 L52.57,342.31 L47.69,365.31 L48.85,366.81 L55.16,366.1 L55.42,364.97 L51.42,364.29 L53.19,355.95 L59,355.95 C63,355.95 67.64,349.95 67.64,345.13 C67.64,342.88 66.93,341 64.82,340.13 L64.82,340.11 Z" id="Shape" fill="#FFFFFF"></path>
                            <path d="M944,435.74 C943,435.26 942.82,434.94 942.82,434.37 C942.82,431.37 944.42,426.16 945.28,426.16 C947.091275,426.275821 948.846212,426.835615 950.39,427.79 C946.39,434.24 944.83,436.16 944,435.79 L944,435.74 Z M954.79,423.79 L953.79,423.34 L952.58,425 C951.108355,424.247421 949.499129,423.801737 947.85,423.69 C942.58,423.69 938.27,430.62 938.27,435.82 C938.27,438.25 939.32,438.82 940.98,439.68 C941.791856,440.12817 942.796752,440.024491 943.5,439.42 C945.26,437.54 947.97,433.32 950.43,429.36 L950.78,429.36 L946.56,438.94 L947.42,439.94 L953.58,439.24 L953.84,438.09 L951.76,437.74 L954.79,423.79 Z M935.85,423.66 L929.91,424.59 L929.69,425.64 L931.69,426.15 L929,438.87 L929.86,439.87 L935.77,439.17 L935.99,438.02 L933.88,437.67 L936.66,424.55 L935.85,423.66 Z M935.43,416.22 C934.594942,416.240254 933.803922,416.598808 933.238292,417.213459 C932.672663,417.82811 932.380938,418.646138 932.43,419.48 C932.37018,420.175027 932.62765,420.859864 933.130538,421.343335 C933.633427,421.826807 934.327865,422.057127 935.02,421.97 C935.870883,421.948251 936.675114,421.576482 937.24294,420.942409 C937.810767,420.308336 938.091897,419.468119 938.02,418.62 C938.033488,417.952815 937.763886,417.311107 937.277943,416.853748 C936.791999,416.39639 936.135144,416.166139 935.47,416.22 L935.43,416.22 Z M926.15,428.48 C926.79,425.48 925.51,423.66 922.32,423.66 C920.82,423.66 917.32,429.66 915.04,433.91 L914.66,433.91 L917.57,424.65 L916.77,423.65 L910.58,424.58 L910.36,425.63 L912.44,426.14 L909.48,439.81 L914.21,439.36 L914.59,437.57 L914.68,437.19 C915.48,434.09 919.85,427.61 920.36,427.61 C921.41,427.61 921.6,428.09 921.36,429.05 L919.28,438.82 L920.14,439.82 L926.02,439.12 L926.24,437.97 L924.16,437.62 L926.15,428.48 Z M909.61,423.75 C909.280686,423.684396 908.945783,423.650906 908.61,423.65 C906.21,423.65 905.1,425.05 904.17,426.91 C902.89,429.47 901.52,432.31 900.43,434.67 L900,434.67 L903.35,424.67 L902.55,423.67 L896.35,424.6 L896.13,425.65 L898.21,426.16 L895.27,439.81 L900,439.36 L900.41,437.44 C901.556676,434.473964 902.892762,431.584678 904.41,428.79 L908.62,428.28 L909.61,423.75 Z M886.07,437.64 C884.19,437.64 882.37,437.23 882.37,435.41 C882.37,431.23 884.32,426.18 885.15,426.18 C887.03,426.18 888.85,426.6 888.85,428.41 C888.85,432.59 886.85,437.64 886.07,437.64 L886.07,437.64 Z M883.07,439.94 C890.42,439.94 893.74,433.01 893.74,427.81 C893.74,425.16 891.25,423.69 888.34,423.69 C881,423.69 877.71,430.62 877.71,435.82 C877.71,438.47 880.17,439.94 883.07,439.94 L883.07,439.94 Z M877.23,416.88 L880.29,419.59 L882.75,417.59 C882.087005,416.065667 880.550359,415.110239 878.89,415.19 C874.89,415.25 871.58,418.35 870.04,424.13 L867.87,424.13 L867.61,425.34 L869.69,425.69 L865.28,447.6 L866.08,447.6 L870.17,445.17 L874,425.94 L874.13,425.94 C875.520228,426.021997 876.905696,425.71373 878.13,425.05 L878.32,424.05 L874.39,424.05 L874.49,423.6 C875.1,420.6 875.96,418.08 877.24,416.83 L877.23,416.88 Z M864.24,423.6 L858.3,424.53 L858.08,425.58 L860.08,426.09 L857.33,438.89 L858.19,439.89 L864.1,439.19 L864.32,438.04 L862.21,437.69 L865,424.53 L864.24,423.6 Z M863.83,416.16 C862.994942,416.180254 862.203922,416.538808 861.638292,417.153459 C861.072663,417.76811 860.780938,418.586138 860.83,419.42 C860.77018,420.115027 861.02765,420.799864 861.530538,421.283335 C862.033427,421.766807 862.727865,421.997127 863.42,421.91 C864.270883,421.888251 865.075114,421.516482 865.64294,420.882409 C866.210767,420.248336 866.491897,419.408119 866.42,418.56 C866.433488,417.892815 866.163886,417.251107 865.677943,416.793748 C865.191999,416.33639 864.535144,416.106139 863.87,416.16 L863.83,416.16 Z M857.2,415.91 L856.66,415.17 L849.89,416.17 L849.67,417.17 L852.22,417.87 L847.69,439.14 L848.36,439.91 L854.65,439.24 L854.87,438.09 L852.57,437.8 L857.2,415.91 Z M835.39,435.77 C834.39,435.29 834.21,434.97 834.21,434.4 C834.21,431.4 835.81,426.19 836.67,426.19 C838.481275,426.305821 840.236212,426.865615 841.78,427.82 C837.78,434.27 836.22,436.19 835.39,435.82 L835.39,435.77 Z M846.18,423.82 L845.18,423.37 L843.97,425.03 C842.498355,424.277421 840.889129,423.831737 839.24,423.72 C833.97,423.72 829.66,430.65 829.66,435.85 C829.66,438.28 830.71,438.85 832.37,439.71 C833.181856,440.15817 834.186752,440.054491 834.89,439.45 C836.65,437.57 839.36,433.35 841.82,429.39 L842.17,429.39 L837.95,438.97 L838.81,439.97 L844.97,439.27 L845.23,438.12 L843.15,437.77 L846.18,423.82 Z M814.54,439.81 C819.536579,440.013686 824.271029,437.570467 827,433.38 L825.91,432.58 C824.06,435.17 821.66,436.58 819.52,436.58 C816.84,436.58 813.42,435.97 813.42,433.16 C813.42,426.23 817.42,418.98 818.82,418.95 C819.75,418.95 822.11,420.1 823.61,420.9 L826.68,422.56 L828.98,418.56 C827.45,417.35 824.8,416.84 822.31,416.84 C814.23,416.84 807.97,425.69 808.07,434.05 C808.07,438.05 810.91,439.86 814.55,439.86 L814.54,439.81 Z M796.09,435.29 C794.49,435.29 793.66,436.89 793.66,438.29 C793.623938,438.735212 793.789511,439.173117 794.111113,439.483095 C794.432715,439.793073 794.876417,439.94242 795.32,439.89 C795.665562,439.89171 795.994507,439.741858 796.22,439.48 C795.641197,441.954198 794.228832,444.153958 792.22,445.71 L792.86,446.41 C795.810374,444.414695 797.659747,441.1561 797.86,437.6 C797.86,436.16 797.19,435.33 796.1,435.33 L796.09,435.29 Z M784.95,437.6 C783.07,437.6 781.25,437.19 781.25,435.37 C781.25,431.19 783.2,426.14 784.03,426.14 C785.91,426.14 787.74,426.56 787.74,428.37 C787.74,432.55 785.74,437.6 784.96,437.6 L784.95,437.6 Z M781.96,439.9 C789.3,439.9 792.63,432.97 792.63,427.77 C792.63,425.12 790.14,423.65 787.23,423.65 C779.89,423.65 776.6,430.58 776.6,435.78 C776.6,438.43 779.06,439.9 781.96,439.9 L781.96,439.9 Z M768.23,439.9 C769.85005,439.828017 771.337448,438.983919 772.23,437.63 C772.96,436.63 773.57,435.87 774.23,434.92 L773.5,434.34 C772.29,435.94 771.42,436.67 770.15,436.67 C768.15,436.67 766.67,435.67 766.67,434.67 C766.67,431.8 768.27,426.43 769.83,425.86 L772.42,428.77 L775.93,426.18 C775.278552,424.562583 773.671248,423.537926 771.93,423.63 C765.8,423.63 761.93,430.5 761.93,435.63 C761.944332,437.168255 762.889435,438.544388 764.32,439.11 C765.53174,439.658635 766.850024,439.931854 768.18,439.91 L768.23,439.9 Z M747.18,437.91 C748.36,439.25 750.76,439.83 752.45,439.86 C756.22,439.92 759.45,437.75 759.45,433.86 C759.45,431.37 752.97,428.37 752.97,426.52 C752.928403,426.111092 753.055291,425.702897 753.321377,425.389633 C753.587462,425.076369 753.96975,424.885109 754.38,424.86 C755.929908,425.824753 757.383286,426.936553 758.72,428.18 L761.05,425.4 C760.35,424.47 758.3,423.64 756.39,423.61 C750.32,423.48 749.59,427.67 749.59,429.26 C749.59,431.59 756.04,434.53 756.04,436.7 C756.042681,437.149032 755.865489,437.58045 755.547969,437.897969 C755.23045,438.215489 754.799032,438.392681 754.35,438.39 C752.729392,437.431676 751.228805,436.283575 749.88,434.97 L747.18,437.91 Z M745.84,423.6 L739.9,424.53 L739.68,425.58 L741.68,426.09 L739,438.87 L739.86,439.87 L745.77,439.17 L745.99,438.02 L743.88,437.67 L746.66,424.55 L745.84,423.6 Z M745.42,416.16 C744.584942,416.180254 743.793922,416.538808 743.228292,417.153459 C742.662663,417.76811 742.370938,418.586138 742.42,419.42 C742.36018,420.115027 742.61765,420.799864 743.120538,421.283335 C743.623427,421.766807 744.317865,421.997127 745.01,421.91 C745.860883,421.888251 746.665114,421.516482 747.23294,420.882409 C747.800767,420.248336 748.081897,419.408119 748.01,418.56 C748.023488,417.892815 747.753886,417.251107 747.267943,416.793748 C746.781999,416.33639 746.125144,416.106139 745.46,416.16 L745.42,416.16 Z M730.3,439.81 C731.92005,439.738017 733.407448,438.893919 734.3,437.54 C735.03,436.54 735.64,435.78 736.3,434.83 L735.56,434.25 C734.35,435.85 733.49,436.58 732.21,436.58 C730.21,436.58 728.73,435.58 728.73,434.58 C728.73,431.71 730.33,426.34 731.89,425.77 L734.48,428.68 L737.99,426.09 C737.338552,424.472583 735.731248,423.447926 733.99,423.54 C727.86,423.54 723.99,430.41 723.99,435.54 C724.005967,437.08073 724.955507,438.457564 726.39,439.02 C727.60174,439.568635 728.920024,439.841854 730.25,439.82 L730.3,439.81 Z M721.47,428.36 C722.11,425.36 720.83,423.54 717.64,423.54 C716.14,423.54 712.64,429.54 710.36,433.79 L710,433.79 L712.91,424.53 L712.11,423.53 L705.91,424.46 L705.69,425.51 L707.77,426.02 L704.85,439.81 L709.58,439.36 L709.96,437.57 L710.06,437.19 C710.86,434.09 715.23,427.61 715.74,427.61 C716.79,427.61 716.99,428.09 716.74,429.05 L714.67,438.82 L715.53,439.82 L721.41,439.12 L721.63,437.97 L719.55,437.62 L721.47,428.36 Z M692.35,435.71 C691.35,435.23 691.17,434.91 691.17,434.34 C691.17,431.34 692.77,426.13 693.63,426.13 C695.441275,426.245821 697.196212,426.805615 698.74,427.76 C694.74,434.21 693.18,436.13 692.35,435.76 L692.35,435.71 Z M703.14,423.76 L702.14,423.31 L701,424.91 C699.528355,424.157421 697.919129,423.711737 696.27,423.6 C691,423.6 686.69,430.53 686.69,435.73 C686.69,438.16 687.74,438.73 689.41,439.59 C690.222457,440.035208 691.225559,439.931714 691.93,439.33 C693.69,437.45 696.4,433.23 698.86,429.27 L699.21,429.27 L695,438.87 L695.86,439.87 L702.02,439.17 L702.28,438.02 L700.2,437.67 L703.14,423.76 Z M687.05,423.76 C686.720677,423.694458 686.38578,423.660968 686.05,423.66 C683.65,423.66 682.54,425.06 681.61,426.92 C680.33,429.48 678.96,432.32 677.87,434.68 L677.42,434.68 L680.77,424.68 L679.97,423.68 L673.78,424.61 L673.56,425.66 L675.64,426.17 L672.76,439.81 L677.49,439.36 L677.9,437.44 C679.046676,434.473964 680.382762,431.584678 681.9,428.79 L686.11,428.28 L687.05,423.76 Z M673.22,417.37 L657.46,417.37 L657.17,418.52 L659.53,419.16 L655.47,438.26 L657.07,439.95 L663.01,439.22 L663.3,438.04 L660.84,437.56 L662.69,428.84 L668.25,429.16 L668.66,427.02 L663.01,427.34 L664.83,418.78 L668.69,418.78 L669.69,422.93 L670.97,422.93 L673.22,417.37 Z M644.61,428.48 C645.25,425.48 643.97,423.66 640.78,423.66 C639.28,423.66 635.78,429.66 633.5,433.91 L633.12,433.91 L636.03,424.65 L635.23,423.65 L629.04,424.58 L628.82,425.63 L630.9,426.14 L628,439.81 L632.73,439.36 L633.11,437.57 L633.21,437.19 C634.01,434.09 638.38,427.61 638.89,427.61 C639.94,427.61 640.13,428.09 639.89,429.05 L637.81,438.82 L638.67,439.82 L644.55,439.12 L644.77,437.97 L642.69,437.62 L644.61,428.48 Z M615.49,435.83 C614.49,435.35 614.31,435.03 614.31,434.46 C614.31,431.46 615.91,426.25 616.77,426.25 C618.581275,426.365821 620.336212,426.925615 621.88,427.88 C617.88,434.33 616.32,436.25 615.49,435.88 L615.49,435.83 Z M626.28,423.88 L625.28,423.43 L624.07,425.09 C622.598457,424.33716 620.989177,423.891461 619.34,423.78 C614.07,423.78 609.76,430.71 609.76,435.91 C609.76,438.34 610.81,438.91 612.47,439.77 C613.282457,440.215208 614.285559,440.111714 614.99,439.51 C616.75,437.63 619.46,433.41 621.92,429.45 L622.27,429.45 L618.06,439.03 L618.92,440.03 L625.08,439.33 L625.34,438.18 L623.26,437.83 L626.28,423.88 Z M601.39,418.81 L608.06,421.65 L609.94,418.87 C608.410398,417.54406 606.443938,416.831575 604.42,416.87 C597.81,416.87 596.21,421.6 596.21,423.77 C596.21,429.01 603.52,430.83 603.52,435.43 C603.558758,436.433696 603.028836,437.373631 602.15,437.86 L594.49,434.63 L592.92,438.3 C594.600775,439.386739 596.568985,439.944109 598.57,439.9 C604.89,439.9 607.57,436.2 607.57,432.33 C607.57,426.9 600.23,424.79 600.23,421.06 C600.195942,420.181926 600.619942,419.349069 601.35,418.86 L601.39,418.81 Z M335.79,424.96 C337.1,424.96 338.5,426.33 338.5,429.62 L338.5,429.78 L332.82,429.88 C332.98,426.65 334.45,424.96 335.82,424.96 L335.79,424.96 Z M339,437.27 C335.77,437.27 333.16,434.97 332.84,431.27 L341.78,431.27 L342.99,429.27 C342.99,425.73 340.44,423.39 336.6,423.39 C334.295619,423.349078 332.076802,424.262437 330.469025,425.91377 C328.861248,427.565102 328.00751,429.807536 328.11,432.11 C328.11,436.11 330.86,439.84 336.54,439.84 C339.22,439.84 341.11,439.11 342.45,437.54 L341.81,436.65 C340.946196,437.107495 339.976725,437.3283 339,437.29 L339,437.27 Z M327.17,423.81 L321.65,423.81 L321.65,424.81 L323.38,426.54 L319.52,435.35 L315.52,425.58 L317.85,424.81 L317.85,423.81 L308.62,423.81 L308.62,424.81 L310.28,425.45 L316.63,439.57 L319.15,439.57 L324.77,426.73 L327.13,424.81 L327.17,423.81 Z M306.17,437.86 L306.17,423.41 L304.73,423.41 L299.07,424.81 L299.07,425.9 L301.34,426.47 L301.34,437.81 L299.14,438.38 L299.14,439.38 L308.31,439.38 L308.31,438.38 L306.17,437.86 Z M303.52,420.93 C304.966986,420.93 306.14,419.756986 306.14,418.31 C306.14,416.863014 304.966986,415.69 303.52,415.69 C302.809207,415.681999 302.124352,415.95671 301.616118,416.453691 C301.107885,416.950672 300.817912,417.629206 300.81,418.34 C300.79194,419.048172 301.07161,419.731477 301.581006,420.223766 C302.090402,420.716056 302.782858,420.97223 303.49,420.93 L303.52,420.93 Z M295.6,437.93 L295.6,428.73 C295.666541,427.332918 295.151833,425.970607 294.178098,424.966562 C293.204363,423.962516 291.858465,423.406303 290.46,423.43 C288.747745,423.553548 287.106543,424.164228 285.73,425.19 L285.12,425.57 L285.12,414.81 L283.81,414.81 L277.55,416.44 L277.55,417.52 L280.33,418.29 L280.33,437.83 L278.19,438.34 L278.19,439.34 L287.19,439.34 L287.19,438.34 L285.11,437.83 L285.11,427.25 C286.081119,426.547362 287.211697,426.097192 288.4,425.94 C290.03,425.94 290.79,427.06 290.79,429.17 L290.79,437.89 L288.68,438.4 L288.68,439.4 L297.68,439.4 L297.68,438.4 L295.6,437.93 Z M275.71,436.68 C274.864155,437.127696 273.916603,437.348217 272.96,437.32 C269.29,437.32 266.67,434.45 266.67,430.42 C266.67,426.75 268.52,424.54 270.67,424.96 L274.67,429.69 L276.01,429.69 L276.01,424.93 C274.424489,423.90563 272.56705,423.382899 270.68,423.43 C268.37597,423.39336 266.15737,424.301481 264.540294,425.943115 C262.923219,427.584749 262.048638,429.816784 262.12,432.12 C262.12,436.24 264.87,439.88 270.52,439.88 C273.11,439.88 275.06,439.24 276.43,437.58 L275.71,436.68 Z M258.4,423.43 C257.06,423.43 255.78,424.32 254.4,425.43 L253.31,426.29 L252.93,423.45 L251.53,423.45 L246.42,424.85 L246.42,425.9 L248.69,426.47 L248.69,437.81 L246.49,438.35 L246.49,439.35 L256.71,439.35 L256.71,438.35 L253.48,437.65 L253.48,427.81 C254.198975,427.250675 254.980965,426.777454 255.81,426.4 L256.86,429.75 L259.32,429.75 L260.32,424.35 C259.900713,423.722455 259.194722,423.346928 258.44,423.35 L258.4,423.43 Z M228.93,429.99 L232.09,421.24 L235.25,429.99 L228.93,429.99 Z M243.49,437.72 L235.6,416.39 L231.77,417.7 L224.77,436.92 L222.37,438.26 L222.37,439.38 L229.81,439.38 L229.81,438.26 L226.49,436.85 L228.41,431.52 L235.85,431.52 L238.05,437.62 L235.59,438.26 L235.59,439.38 L245.3,439.38 L245.3,438.26 L243.49,437.72 Z M210.41,437.85 L210.41,428.85 C210.41,425.72 208.49,423.39 205.53,423.39 C203.842017,423.526555 202.22681,424.13659 200.87,425.15 L199.69,425.88 C198.849909,424.306533 197.19306,423.342619 195.41,423.39 C193.697745,423.513548 192.056543,424.124228 190.68,425.15 L189.75,425.72 L189.33,423.39 L188.2,423.39 L183.12,424.73 L183.12,425.81 L185.23,426.35 L185.23,437.88 L183.12,438.42 L183.12,439.42 L192,439.42 L192,438.42 L190,437.91 L190,427.21 C190.979563,426.528319 192.107302,426.089563 193.29,425.93 C194.76,425.93 195.49,427.02 195.49,429.16 L195.49,437.91 L193.49,438.42 L193.49,439.42 L202.14,439.42 L202.14,438.42 L200.26,437.91 L200.26,428.68 C200.253898,428.195922 200.200308,427.713611 200.1,427.24 C201.121649,426.541471 202.293125,426.092748 203.52,425.93 C204.93,425.93 205.52,427.02 205.52,429.28 L205.52,437.9 L203.64,438.41 L203.64,439.41 L212.42,439.41 L212.42,438.41 L210.41,437.85 Z M179.98,423.35 C178.64,423.35 177.36,424.24 175.98,425.35 L174.89,426.21 L174.51,423.37 L173,423.37 L167.89,424.77 L167.89,425.82 L170.16,426.39 L170.16,437.81 L167.96,438.35 L167.96,439.35 L178.2,439.35 L178.2,438.35 L174.97,437.65 L174.97,427.81 C175.688871,427.250524 176.47088,426.777291 177.3,426.4 L178.35,429.75 L180.81,429.75 L181.81,424.35 C181.390713,423.722455 180.684722,423.346928 179.93,423.35 L179.98,423.35 Z M157.83,438.3 C155.12,438.3 154,433.41 154,430.03 C154,426.65 155.25,424.86 157.07,424.86 C159.56,424.86 160.71,429.62 160.71,433.03 C160.71,436.86 159.43,438.3 157.84,438.3 L157.83,438.3 Z M157.43,439.8 C163.69,439.8 165.83,435.33 165.83,431.4 C165.83,427.09 163.24,423.4 157.37,423.4 C150.98,423.4 148.94,428.25 148.94,431.61 C148.94,435.44 151.02,439.85 157.43,439.85 L157.43,439.8 Z M145.77,416.22 C145.934232,416.259686 146.087812,416.33477 146.22,416.44 L145.77,416.22 Z M144.56,416.22 L146.41,420.08 L147.69,420.08 L149,416.01 C147.85893,415.21425 146.490261,414.810668 145.1,414.86 C140.79,414.86 137.31,418.15 137.1,423.8 L135,423.8 L135,425.14 L137.11,425.3 L137.11,437.88 L135,438.42 L135,439.42 L145.15,439.42 L145.15,438.42 L141.89,437.62 L141.89,425.71 L144.96,425.97 L146.91,424.88 L146.91,423.81 L141.91,423.81 L141.91,423.3 C141.91,419.4 142.39,416.69 144.53,416.21 L144.56,416.22 Z M131.82,423.39 C130.48,423.39 129.2,424.28 127.82,425.39 L126.74,426.25 L126.36,423.41 L124.93,423.41 L119.83,424.81 L119.83,425.86 L122.1,426.43 L122.1,437.81 L119.9,438.35 L119.9,439.35 L130.11,439.35 L130.11,438.35 L126.88,437.65 L126.88,427.81 C127.598975,427.250675 128.380965,426.777454 129.21,426.4 L130.26,429.75 L132.72,429.75 L133.72,424.35 C133.300713,423.722455 132.594722,423.346928 131.84,423.35 L131.82,423.39 Z M110.37,424.91 C111.68,424.91 113.08,426.28 113.08,429.57 L113.08,429.73 L107.4,429.83 C107.56,426.6 109.03,424.91 110.4,424.91 L110.37,424.91 Z M113.59,437.27 C110.37,437.27 107.75,434.97 107.43,431.27 L116.37,431.27 L117.58,429.27 C117.58,425.73 115.02,423.39 111.19,423.39 C108.885619,423.349078 106.666802,424.262437 105.059025,425.91377 C103.451248,427.565102 102.59751,429.807536 102.7,432.11 C102.7,436.11 105.45,439.84 111.13,439.84 C113.81,439.84 115.7,439.11 117.04,437.54 L116.4,436.65 C115.536196,437.107495 114.566725,437.3283 113.59,437.29 L113.59,437.27 Z M99,425.87 L100.86,424.81 L100.86,423.81 L96.64,423.81 L96.64,418.81 L95.14,418.81 L92.2,423.81 L89.46,423.81 L89.46,425.12 L91.85,425.31 L91.85,435.37 C91.85,438.82 93.85,439.84 96.19,439.84 C97.9013665,439.855609 99.5591582,439.24372 100.85,438.12 L100.43,437.12 C99.8395189,437.466694 99.1646094,437.643208 98.48,437.63 C97.33,437.63 96.63,436.77 96.63,434.72 L96.63,425.72 L99,425.87 Z M86.74,425.87 L88.6,424.81 L88.6,423.81 L84.38,423.81 L84.38,418.81 L82.88,418.81 L79.94,423.81 L77.19,423.81 L77.19,425.12 L79.59,425.31 L79.59,435.37 C79.59,438.82 81.59,439.84 83.93,439.84 C85.6413665,439.855609 87.2991582,439.24372 88.59,438.12 L88.17,437.12 C87.5795189,437.466694 86.9046094,437.643208 86.22,437.63 C85.07,437.63 84.37,436.77 84.37,434.72 L84.37,425.72 L86.74,425.87 Z M68.22,424.87 C69.53,424.87 70.94,426.24 70.94,429.53 L70.94,429.69 L65.26,429.79 C65.42,426.56 66.89,424.87 68.26,424.87 L68.22,424.87 Z M71.45,437.23 C68.22,437.23 65.61,434.93 65.29,431.23 L74.23,431.23 L75.44,429.23 C75.44,425.69 72.89,423.35 69.05,423.35 C66.7438985,423.306282 64.5224299,424.218412 62.9124451,425.870067 C61.3024603,427.521722 60.4473807,429.765768 60.55,432.07 C60.55,436.07 63.3,439.8 68.98,439.8 C71.66,439.8 73.55,439.07 74.89,437.5 L74.25,436.61 C73.3861962,437.067495 72.4167252,437.2883 71.44,437.25 L71.45,437.23 Z M58.25,432.52 L54.71,437.92 L49.71,437.41 L49.71,418.62 L52.23,418.01 L52.23,416.89 L41.78,416.89 L41.78,418.01 L44.37,418.65 L44.37,437.71 L41.94,438.29 L41.94,439.41 L58.58,439.41 L59.47,432.54 L58.25,432.52 Z M15,432.81 C14.91139,431.270462 15.8295922,429.850686 17.27,429.3 L18.87,428.73 L18.87,434.35 C18.2631096,434.797601 17.542054,435.06453 16.79,435.12 C15.79,435.12 15,433.91 15,432.82 L15,432.81 Z M14.81,423.53 L14.91,423.37 L14.81,423.53 Z M17.33,416.34 C6.92,416.34 2.67,424.2 2.67,430.2 C2.67,437.39 7.17,443.2 17.17,443.2 C18.0518297,443.209286 18.9315474,443.111913 19.79,442.91 L20.01,441.31 C19.3419455,441.545384 18.6382993,441.663786 17.93,441.66 C11.74,441.66 7.46,436.74 7.49,429.24 C7.49,422.44 11.07,418.1 16.56,418.1 C22.05,418.1 26.14,422.92 26.14,429.1 C26.14,434.82 24.57,436.19 23.14,436.6 L23.14,426.29 C23.14,422.29 20.14,421.12 17.52,421.12 C15.1294843,421.219354 12.876915,422.266474 11.26,424.03 L12.34,426.94 L13.55,426.94 L15.43,422.94 C15.6979508,422.810535 15.9924462,422.745472 16.29,422.75 C17.89,422.75 18.78,424.41 18.78,426.8 L18.78,427.15 L15.46,428.24 C12.17,429.33 10.46,431.47 10.46,433.64 C10.410422,434.767471 10.8394315,435.863422 11.6412442,436.657617 C12.4430568,437.451811 13.5430539,437.870339 14.67,437.81 C16.46,437.81 17.74,437.01 19.43,435.67 L21.82,438.38 L22.82,438.38 C27.96,437.04 30.64,433.75 30.64,427.38 C30.64,422.38 26.81,416.38 17.29,416.38 L17.33,416.34 Z" id="Shape" fill="#FFFFFF"></path>
                            <path d="M546.61,452.61 C539.77,452.61 534.49,444.69 534.49,430.81 C534.49055,427.667159 534.751442,424.529765 535.27,421.43 C537.205582,419.616269 539.75744,418.604819 542.41,418.6 C550.23,418.6 555.6,426.6 555.6,438.54 C555.6,447.34 552.18,452.62 546.6,452.62 L546.61,452.61 Z M549.14,412.74 C544.35,412.74 539.95,413.74 536.53,415.97 C540.44,402.68 549.92,393.97 563.53,391.63 L562.53,388.21 C535.53,391.04 519.23,408.15 519.23,430.82 C519.23,444.41 528.32,457.01 544.84,457.01 C561.16,457.01 570.84,446.06 570.84,433.36 C570.84,421.24 562.44,412.74 549.14,412.74 L549.14,412.74 Z M504.67,450.07 L504.67,404.53 L500.86,404.53 L479.75,414.01 L480.75,417.63 L489.45,417.63 L489.45,450.18 L480.16,452.23 L480.16,455.55 L514.08,455.55 L514.08,452.23 L504.67,450.07 Z M445.73,452.42 C437.81,452.42 433.32,444.7 433.32,430.72 C433.32,416.74 437.82,408.92 445.73,408.92 C453.64,408.92 458.24,416.64 458.24,430.72 C458.24,444.8 453.74,452.42 445.73,452.42 L445.73,452.42 Z M445.73,456.82 C463.03,456.82 473.49,445.97 473.49,430.63 C473.49,415.29 463.03,404.53 445.73,404.53 C428.43,404.53 418.07,415.38 418.07,430.63 C418.07,445.88 428.54,456.81 445.74,456.81 L445.73,456.82 Z M377.81,413.12 C378.518693,411.941176 379.486486,410.939185 380.64,410.19 L377.81,413.12 Z M378.89,445.81 C390.23,441.22 408.89,432.62 408.89,419.52 C408.89,410.33 400.97,404.52 387.49,404.52 C380.373684,404.611741 373.390202,406.459805 367.16,409.9 L369.41,426.22 L372.83,426.22 L382.31,409.51 C382.823121,409.399244 383.345295,409.335646 383.87,409.32 C389.44,409.32 393.16,413.03 393.16,420.17 C393.16,431.51 376.16,443.04 365.01,451.17 L365.01,455.57 L403.91,455.57 L411.34,446.77 L411.34,443.91 L378.89,445.81 Z" id="Shape" fill="#FFFFFF"></path>
                        </g>
                    </g>
                </g>
            </g>
        </g>
    </g>
</svg>