<?xml version="1.0" encoding="UTF-8" standalone="no"?>
<svg width="21px" height="18px" viewBox="0 0 21 18" version="1.1" xmlns="http://www.w3.org/2000/svg" xmlns:xlink="http://www.w3.org/1999/xlink">
    <!-- Generator: Sketch 41.2 (35397) - http://www.bohemiancoding.com/sketch -->
    <title>twitter</title>
    <desc>Created with Sketch.</desc>
    <defs></defs>
    <g id="Page-4" stroke="none" stroke-width="1" fill="none" fill-rule="evenodd">
        <g id="Profile-Mobile" transform="translate(-148.000000, -551.000000)" fill="#777777">
            <path d="M167.934585,551.315822 C167.121219,551.809535 166.222465,552.168598 165.261862,552.360719 C164.496662,551.523269 163.403052,551 162.192308,551 C159.871532,551 157.988092,552.93106 157.988092,555.312592 C157.988092,555.650856 158.024217,555.97872 158.096468,556.294542 C154.601073,556.114463 151.50251,554.399608 149.426948,551.787093 C149.064601,552.426401 148.857702,553.168064 148.857702,553.957894 C148.857702,555.453261 149.599912,556.773476 150.7291,557.546885 C150.040531,557.526086 149.390823,557.330134 148.822671,557.009385 L148.822671,557.061931 C148.822671,559.152271 150.272608,560.896136 152.198195,561.290778 C151.8457,561.392038 151.4735,561.442942 151.089806,561.442942 C150.818866,561.442942 150.554495,561.416669 150.298334,561.366312 C150.833645,563.078979 152.385937,564.326396 154.226684,564.359784 C152.787694,565.516888 150.97322,566.206552 149.003297,566.206552 C148.663939,566.206552 148.328412,566.186848 148,566.147438 C149.860999,567.369129 152.072851,568.083425 154.447267,568.083425 C162.184097,568.083425 166.413492,561.513003 166.413492,555.813419 C166.413492,555.625678 166.410207,555.438483 166.403092,555.254572 C167.224668,554.646464 167.938416,553.887285 168.5,553.022468 C167.746843,553.365111 166.935666,553.597188 166.08508,553.701185 C166.953729,553.168064 167.620404,552.322951 167.934585,551.315822" id="twitter"></path>
        </g>
    </g>
</svg>