<?xml version="1.0" encoding="UTF-8" standalone="no"?>
<svg width="207px" height="25px" viewBox="0 0 207 25" version="1.1" xmlns="http://www.w3.org/2000/svg" xmlns:xlink="http://www.w3.org/1999/xlink">
    <!-- Generator: Sketch 41.2 (35397) - http://www.bohemiancoding.com/sketch -->
    <title>Page 1</title>
    <desc>Created with Sketch.</desc>
    <defs></defs>
    <g id="Page-1" stroke="none" stroke-width="1" fill="none" fill-rule="evenodd">
        <g id="Desktop" transform="translate(-88.000000, -269.000000)" fill="#FFFFFF">
            <g id="Group" transform="translate(47.000000, 244.000000)">
                <g id="Page-1" transform="translate(41.000000, 25.000000)">
                    <path d="M18.7182402,0 C18.6102323,0 18.5366617,0.0743572841 18.4787444,0.132893869 C18.1500247,0.525247198 17.4597133,0.525247198 16.0837865,0.525247198 L6.06879222,0.525247198 C4.6693854,0.525247198 2.28068875,0.577455504 1.45419344,0.713513514 L1.43540946,0.677125906 C1.35870819,0.526829268 1.28513758,0.38444298 1.21156698,0.186684245 C1.20217499,0.162953197 1.188087,0.142386289 1.17086835,0.12340145 C1.11295106,0.0648648649 1.00024716,0 0.906327237,0 C0.771708683,0 0.659004778,0.115491101 0.66057011,0.229400132 L0,5.81727093 C0,5.92485168 0.122095897,6.13843111 0.281759763,6.13843111 C0.389767672,6.13843111 0.477426265,6.06882004 0.552562201,5.91377719 L1.17712968,4.1276203 C2.01771297,1.78299275 2.75654968,1.58523401 4.82122261,1.58523401 L8.45435821,1.58523401 L8.316609,21.6838497 C8.316609,22.3847067 7.915884,22.9764008 7.35079914,23.1203691 L5.82616576,23.4352011 C5.79172846,23.4415293 5.75885648,23.4589321 5.73381117,23.4842452 C5.67589389,23.5443639 5.61484594,23.6582729 5.61484594,23.750033 C5.61484594,23.8829268 5.73068051,23.955702 5.78077113,23.9810152 C5.80581644,23.9936717 5.83399242,24 5.86060306,24 L9.98525292,24 C9.99464492,24 10.0040369,23.9984179 10.0134289,23.9968359 L12.6463174,23.5775873 C12.6651013,23.5744232 12.68232,23.569677 12.6979733,23.5617666 C12.8310265,23.4953197 12.9014665,23.3592617 12.9014665,23.2611734 C12.9014665,23.1061305 12.7371066,23.0112063 12.6275334,23.0112063 L11.1373373,22.9400132 C10.5190311,22.9083718 10.1621354,22.2328279 10.1621354,21.0905735 L10.2998847,1.58523401 L14.8017795,1.58523401 C16.8320152,1.58523401 17.0949909,1.96334871 17.2593508,3.45365854 L17.5004119,5.85365854 C17.5004119,5.98971655 17.6475531,6.13843111 17.7821717,6.13843111 C17.8901796,6.13843111 17.9637502,6.06407383 18.0122755,6.01661173 C18.0388861,5.98971655 18.0561048,5.95491101 18.0608008,5.91694133 L19,0.284772577 C19,0.148714568 18.8528588,0 18.7182402,0" id="Fill-1"></path>
                    <path d="M37.7458275,19.2491468 C37.6509149,19.2491468 37.5350895,19.3121554 37.4739594,19.3704384 C37.4578725,19.3877658 37.445003,19.4050932 37.4353509,19.425571 L37.1554394,20.0462064 L37.0798311,20.1942767 C36.2320531,21.8561302 35.7655339,22.7713311 34.1134124,22.7713311 C31.0520812,22.7713311 29.095918,22.6201103 27.4196662,22.2499344 C27.4180575,22.1491205 27.4132314,22.0420058 27.4084054,21.927015 C27.3971446,21.7112103 27.3874925,21.4623261 27.3874925,21.1724862 L27.456666,11.8645314 L32.2972049,11.8645314 C33.6308064,11.8645314 33.8978484,12.4851667 33.9670219,13.7910213 L34.0378041,14.7550538 C34.0378041,14.8353899 34.1005429,15.0732476 34.2919767,15.0732476 C34.3868892,15.0732476 34.5027147,15.0102389 34.5638448,14.9519559 C34.5895838,14.9251772 34.6072793,14.8905224 34.6137141,14.8542925 L35.400362,10.2215805 C35.400362,10.0876871 35.3311884,10.0105014 35.3102755,9.98844841 C35.2764931,9.95536886 35.2298411,9.93804148 35.1815805,9.93804148 C35.1268852,9.93804148 34.9997989,9.93804148 34.9145385,10.021528 C34.3579328,10.5334734 33.9541524,10.7744815 32.6527247,10.7744815 L27.4952745,10.7744815 L27.5628393,1.47282751 L34.2195858,1.47282751 C35.800925,1.47282751 35.9666197,1.88080861 36.0309672,3.04804411 L36.1387492,4.85009189 C36.1387492,4.96980835 36.2352705,5.13363087 36.3913131,5.13363087 C36.4878343,5.13363087 36.6036598,5.07062221 36.6631812,5.0123392 C36.6889202,4.98713573 36.7066157,4.95720662 36.7130505,4.92255185 L37.7136537,0.316618535 C37.7136537,0.160672092 37.6187412,0 37.4610899,0 C37.3645687,0 37.2487432,0.0630086637 37.1892218,0.121291678 C36.9768751,0.327645051 36.3768349,0.417432397 35.1815805,0.417432397 L24.1765534,0.417432397 C24.1443797,0.417432397 24.1122059,0.42530848 24.0848582,0.442635862 L23.7422079,0.639537936 C23.2049065,0.948280389 22.5952142,1.29955369 22.128695,1.55473878 C22.1142168,1.56419008 22.1013473,1.57364138 22.0884778,1.58466789 C22,1.67288002 22,1.79889735 22,1.8508795 C22,1.89813599 22.0193042,1.94539249 22.0530867,1.97847204 C22.0739996,1.99737464 22.1528253,2.06510895 22.2895636,2.06510895 C22.3072592,2.06510895 22.3233461,2.06195852 22.3394329,2.05880809 C23.8885984,1.63034917 24.6881158,1.51850879 25.6661975,1.47912838 L25.4908506,21.4859543 C25.4908506,22.1822001 25.0790267,22.7713311 24.4966821,22.9146758 L22.9652121,23.2281439 C22.9491253,23.2312943 22.9346471,23.23602 22.9201689,23.243896 C22.7834305,23.3084799 22.7126483,23.4439485 22.7126483,23.541612 C22.7126483,23.6959832 22.8799517,23.7904962 23.0022119,23.7904962 C26.028152,23.7904962 29.0347879,23.8645314 31.4510356,23.9212392 C33.2157651,23.96377 34.7408003,24 35.8588377,24 C36.8127891,24 37.3645687,23.6471515 37.4996984,22.9398792 L38,19.5657653 C38,19.3168811 37.84074,19.2491468 37.7458275,19.2491468" id="Fill-3"></path>
                    <path d="M72.7496864,1 L68.758928,1.00318725 L66.0926134,1.42549801 C66.0751865,1.42868526 66.0577596,1.43346614 66.0403327,1.44302789 C65.9056703,1.50836653 65.8359628,1.64541833 65.8359628,1.74581673 C65.8359628,1.90039841 66.0023104,1.99601594 66.1132088,1.99601594 L67.6198429,2.06772908 C68.2598851,2.09960159 68.5719849,2.5123506 68.5719849,3.33306773 C68.5719849,4.09003984 67.6594495,6.78007968 66.1306357,10.5314741 C64.5939006,14.2223108 62.9240874,17.9768924 61.5109248,20.9059761 C61.2495214,20.2350598 60.9912866,19.6565737 60.7393887,19.0940239 C60.5983893,18.7784861 60.4589742,18.4661355 60.3227276,18.1458167 C58.7131164,14.574502 57.452043,11.8733068 56.3557331,9.63904382 C54.9267278,6.73067729 53.6038682,3.8940239 53.6038682,2.83904382 C53.6038682,2.35776892 53.9730015,2.01035857 54.6177966,1.88605578 L56.1260149,1.57051793 C56.1418575,1.56733068 56.1561159,1.56095618 56.1703743,1.55458167 C56.3050366,1.4876494 56.3747442,1.35059761 56.3747442,1.25179283 C56.3747442,1.09561753 56.2083966,1 56.0895769,1 L51.8881114,1.00318725 L49.2582349,1.42549801 C49.2392237,1.42868526 49.2217968,1.43346614 49.2059542,1.44302789 C49.0712918,1.50836653 49,1.64541833 49,1.74581673 C49,1.89880478 49.1615948,1.99442231 49.2503136,1.99442231 L49.2534821,1.99442231 L49.8507492,2.09960159 C50.7062512,2.25418327 51.3859001,2.94581673 51.9261337,4.21593625 C52.843422,6.34501992 53.7654631,8.37689243 54.6653244,10.2557769 C56.4064295,13.914741 57.6991881,16.6525896 58.7685656,19.0031873 C59.7919995,21.2358566 60.470064,22.961753 60.680771,24.6430279 C60.680771,24.8501992 60.8296917,25 61.0356459,25 C61.1481286,25 61.2859595,24.9505976 61.415869,24.8629482 C61.4380487,24.847012 61.4570599,24.8278884 61.4713182,24.8039841 L62.3537527,23.2772908 L62.3886065,23.2055777 C62.4012806,23.1800797 62.4076177,23.1545817 62.4076177,23.1258964 C62.4076177,22.5123506 62.7086276,21.7043825 63.3407486,20.2334661 L70.1800119,4.00239044 C70.8469866,2.3752988 71.5820846,1.95458167 72.2791603,1.74103586 L72.8051357,1.56573705 C72.8320681,1.5561753 72.8574163,1.54183267 72.8764275,1.52111554 C72.9366295,1.46055777 73,1.34581673 73,1.25179283 C73,1.11633466 72.8859331,1 72.7496864,1" id="Fill-5"></path>
                    <path d="M82.7382896,23.0312037 L81.3064031,22.9630004 C80.7122905,22.9304488 80.3708638,22.2685672 80.3708638,21.1494137 L80.503223,3.30341016 C80.503223,2.24470953 80.7228191,1.95329559 81.1138805,1.78898773 L81.906532,1.5394258 C82.034379,1.47432268 82.1020627,1.34101631 82.1020627,1.24491171 C82.1020627,1.09300445 81.9441341,1 81.8313279,1 L78.9073915,1.00310015 L76.4030941,1.41076965 C76.2767512,1.41076965 76.1323593,1.55957676 76.1323593,1.68978299 C76.1323593,1.84169025 76.2902879,1.9346947 76.3955737,1.9346947 L77.8169317,2.00289796 C78.5719811,2.08505189 78.7299098,3.03524734 78.7299098,3.8164847 L78.5975505,21.7322415 C78.5975505,22.4173743 78.2125054,22.997102 77.6680275,23.1381588 L76.236141,23.4466235 C76.2211001,23.4497237 76.2075634,23.4543739 76.1940266,23.4621243 C76.0661796,23.5256773 76,23.6589837 76,23.7566384 C76,23.9069956 76.1564246,24 76.2707349,24 L80.2264719,23.9984499 L82.7563386,23.5861302 C82.7743876,23.5845801 82.7909325,23.5783798 82.8074774,23.5706295 C82.9187795,23.5132767 83,23.3892708 83,23.2761154 C83,23.1242081 82.8435754,23.0312037 82.7382896,23.0312037" id="Fill-7"></path>
                    <path d="M93.3410045,10.7194668 C89.8623013,8.62889629 88.6310235,7.10448932 88.6310235,4.9009998 C88.6310235,2.67398549 90.2544183,1.39894138 93.084679,1.39894138 C94.3815639,1.39894138 95.3290528,1.69692217 95.9012079,2.28504215 C96.1514304,2.5406783 96.4581055,3.57420114 96.4581055,4.41482062 L96.4581055,5.4906881 C96.4581055,5.65065673 96.593897,5.80748873 96.73274,5.80748873 C96.8380165,5.80748873 96.9234584,5.74005097 96.9890655,5.60517546 C96.9951685,5.59106058 97.0012715,5.57537738 97.0043229,5.55969418 L97.7504132,1.74083513 L97.7504132,1.60125466 C97.7504132,0.644579494 96.2689129,0 94.0642085,0 C89.9706294,0 87,2.33836503 87,5.55969418 C87,8.16781023 88.3853783,9.87100569 92.4896376,12.3097432 C96.328417,14.6700647 97.4376351,15.9435405 97.4376351,17.990198 C97.4376351,20.8147422 95.5960585,22.6386983 92.7474889,22.6386983 C91.0264463,22.6386983 89.5495232,22.2638698 88.9849968,21.6820231 C88.4326764,21.1142913 88.13363,20.3254264 87.988684,19.048814 L87.9551176,18.7194668 C87.9551176,18.5579298 87.8193261,18.4026661 87.6804832,18.4026661 C87.5492689,18.4026661 87.4058487,18.5500882 87.4058487,18.6661439 L87.0335664,22.2952362 L87.0335664,22.3642423 C87.0335664,23.2299549 89.6242848,24 91.6657343,24 C96.0522568,24 99,21.2773966 99,17.2264262 C99,14.793962 97.6573427,13.5298961 93.3410045,10.7194668" id="Fill-9"></path>
                    <path d="M126.710592,1 L122.552757,1.00318725 L119.875729,1.42231076 C119.718162,1.42231076 119.6233,1.58964143 119.6233,1.70916335 C119.6233,1.84621514 119.739063,1.96095618 119.867689,1.96095618 L121.362966,2.03266932 C121.809942,2.05498008 122.346955,2.23027888 122.544718,3.40478088 C122.842165,4.79920319 122.898439,8.07569721 122.898439,13.6342629 C122.898439,17.2023904 121.949822,23.1912351 115.605346,23.1912351 C109.995645,23.1912351 107.49387,20.6239044 107.49387,14.87251 L107.636967,3.29800797 C107.636967,2.57768924 108.069471,1.97051793 108.662759,1.85258964 L110.193408,1.57051793 C110.209486,1.5689243 110.225564,1.5625498 110.240035,1.55458167 C110.378308,1.4876494 110.449052,1.35059761 110.449052,1.25179283 C110.449052,1.09561753 110.28023,1 110.159644,1 L105.931065,1.00318725 L103.289408,1.42231076 C103.154351,1.42231076 103,1.5752988 103,1.70916335 C103,1.86533865 103.168822,1.96095618 103.279762,1.96095618 L103.281369,1.96095618 L104.775039,2.03266932 C105.615931,2.07569721 105.741341,3.21992032 105.741341,3.8940239 L105.598245,15.3250996 L105.598245,15.3282869 C105.598245,21.5641434 108.747973,25 114.465398,25 C117.367522,25 119.647417,24.1936255 121.245595,22.6047809 C123.191063,20.6685259 124.168621,17.5195219 124.150935,13.2486056 L124.223287,3.93227092 C124.223287,3.17689243 124.655792,1.97051793 125.250687,1.85258964 L126.744356,1.57051793 C126.760434,1.5689243 126.77812,1.5625498 126.792591,1.55458167 C126.929256,1.4876494 127,1.35059761 127,1.25179283 C127,1.09561753 126.831178,1 126.710592,1" id="Fill-11"></path>
                    <path d="M134.455898,1.10872974 C134.984448,1.07736539 135.467243,1.05227392 135.92006,1.05227392 C140.716454,1.05227392 143.250338,2.99529535 143.250338,6.67119707 C143.250338,10.7564036 140.590233,12.7417669 135.11698,12.7417669 L134.388054,12.7417669 L134.455898,1.10872974 Z M149.752292,23.0559331 L149.749136,23.0559331 L149.621337,23.0324098 C148.209241,22.7909043 145.274606,22.2890748 141.145605,12.5880815 C143.748911,11.2692107 145.181518,9.00156822 145.181518,6.18348144 C145.181518,3.36225823 143.677911,0 136.513298,0 C134.667318,0 133.43982,0.133298484 132.141322,0.276006273 C131.808415,0.312075274 131.472352,0.348144276 131.115778,0.384213278 C131.090533,0.385781495 131.065289,0.393622582 131.043201,0.407736539 C130.449962,0.754312598 129.680015,1.20595923 129.121488,1.5446942 C129.06311,1.60428646 129,1.71719812 129,1.80972295 C129,1.85676947 129.017355,1.903816 129.052066,1.93674856 C129.075733,1.95870361 129.184598,2.04495557 129.33133,2.01672765 C130.380541,1.73288029 131.477085,1.49921589 132.595718,1.32514375 L132.456875,21.3559854 C132.456875,21.9456351 132.1429,22.6136958 131.447107,22.7799268 L129.945079,23.0920021 C129.930879,23.0951385 129.916679,23.0998432 129.902479,23.106116 C129.76837,23.1719812 129.69737,23.3068479 129.69737,23.4040774 C129.69737,23.5577627 129.863035,23.6518557 129.982945,23.6518557 L134.16559,23.6487193 L136.820962,23.2331417 C136.839895,23.2300052 136.85725,23.2253006 136.873028,23.2174595 C137.007137,23.1515944 137.078137,23.0167277 137.078137,22.9194982 C137.078137,22.7658129 136.912472,22.6717198 136.802029,22.6717198 L135.3,22.60115 C134.487453,22.5619446 134.317055,21.5818087 134.317055,20.7679038 L134.350188,14.033978 C136.20879,14.0182959 138.012171,13.745426 139.589932,13.2435964 C142.593989,20.3805541 145.413449,24 147.970999,24 C148.359128,24 149.051766,23.8478829 149.419384,23.7145844 L149.796469,23.5985363 C149.930579,23.5326712 150,23.3978045 150,23.300575 C150,23.1813905 149.902179,23.0559331 149.752292,23.0559331 L149.752292,23.0559331 Z" id="Fill-13"></path>
                    <path d="M173.710592,1 L169.554365,1.00318725 L166.875729,1.42231076 C166.71977,1.42231076 166.6233,1.58964143 166.6233,1.70916335 C166.6233,1.84621514 166.737456,1.96095618 166.867689,1.96095618 L168.362966,2.03266932 C168.809942,2.05498008 169.348563,2.23027888 169.544718,3.40478088 C169.842165,4.79920319 169.898439,8.07569721 169.898439,13.6342629 C169.898439,17.2023904 168.949822,23.1912351 162.605346,23.1912351 C156.997253,23.1912351 154.495478,20.6239044 154.495478,14.87251 L154.635359,3.29800797 C154.635359,2.57768924 155.067864,1.97051793 155.661151,1.85258964 L157.1918,1.57051793 C157.209486,1.5689243 157.227172,1.5625498 157.240035,1.55458167 C157.378308,1.4876494 157.449052,1.35059761 157.449052,1.25179283 C157.449052,1.09561753 157.28023,1 157.159644,1 L152.929457,1.00318725 L150.289408,1.42231076 C150.154351,1.42231076 150,1.5752988 150,1.70916335 C150,1.86533865 150.168822,1.96095618 150.281369,1.96095618 L151.775039,2.03266932 C152.614323,2.07569721 152.739733,3.21992032 152.739733,3.8940239 L152.598245,15.3250996 L152.598245,15.3282869 C152.598245,21.5641434 155.747973,25 161.465398,25 C164.367522,25 166.649025,24.1936255 168.247203,22.6031873 C170.192671,20.6669323 171.170228,17.5195219 171.152542,13.2486056 L171.224894,3.93227092 C171.224894,3.17689243 171.655792,1.97051793 172.250687,1.85258964 L173.744356,1.57051793 C173.760434,1.5689243 173.77812,1.5625498 173.792591,1.55458167 C173.929256,1.4876494 174,1.35059761 174,1.25179283 C174,1.09561753 173.831178,1 173.710592,1" id="Fill-15"></path>
                    <path d="M206.718752,22.034068 L206.717144,22.034068 L205.865364,22.0000672 C205.34626,21.9784303 204.632692,21.7605161 204.436622,20.1362048 L202.160921,2.09104959 L202.160921,1.85149845 C202.160921,1.31521301 202.451812,0.984477893 203.00788,0.894839403 L204.502514,0.622832953 C204.518586,0.61974197 204.536264,0.613560005 204.550728,0.605832549 C204.687335,0.540921919 204.758049,0.408009676 204.758049,0.312189222 C204.758049,0.160731085 204.5893,0.0680016127 204.468765,0.0680016127 L200.418788,0.0710925951 L197.744518,0.47755678 C197.587019,0.47755678 197.49059,0.639833356 197.49059,0.755745196 C197.49059,0.888657439 197.606304,0.999932805 197.736482,0.999932805 L199.274509,1.06947991 C199.432008,1.06947991 199.579864,1.12048112 199.743792,1.23484747 C199.317901,2.76333826 198.189694,5.31185325 196.889523,8.25292299 C196.579346,8.94993952 196.259526,9.67168391 195.939707,10.4073377 C194.79382,13.0686736 193.350614,15.8351028 192.079372,18.2754334 L191.82223,18.7715361 C191.553839,18.1440667 191.262948,17.5181427 190.978485,16.9107647 L190.690808,16.2910227 C190.163668,15.0824486 189.5851,13.8893294 189.029032,12.736393 L188.659391,11.9729203 C188.027788,10.6932536 187.331899,9.43831474 186.660117,8.22664964 C185.512624,6.15569144 184.427809,4.19909958 183.612992,2.09723155 C183.259422,1.18384626 183.055317,0.587286655 183.055317,0.244187609 C183.055317,0.0927294718 182.886567,0 182.766032,0 C181.782467,0 179.698014,0.425010079 178.378558,0.894839403 C178.224273,0.927294718 178.171237,1.12975407 178.171237,1.20239215 C178.171237,1.31984948 178.272487,1.44657976 178.470164,1.44657976 L179.714086,1.37703266 C180.453367,1.34148636 180.845508,1.41412445 181.184613,1.65522107 L178.849448,20.1686601 C178.67427,21.4514178 177.930167,22.0711598 177.353206,22.210254 L176.208927,22.4637146 C176.072321,22.5270797 176,22.6599919 176,22.7573579 C176,22.9072705 176.168749,23 176.289284,23 L180.488724,23 C180.498367,23 180.50801,23 180.517653,22.9984545 L183.220851,22.5873539 C183.259422,22.5827174 183.293172,22.565717 183.322101,22.5394436 C183.381565,22.480715 183.44585,22.3694396 183.44585,22.2782556 C183.44585,22.1468889 183.330136,22.034068 183.201566,22.034068 L181.671574,21.9660664 C180.954793,21.9320656 180.493546,21.3169601 180.493546,20.3958473 C180.493546,17.3388657 181.224791,10.2821529 182.246928,3.42789948 C183.275494,5.75231824 184.382809,7.78154818 185.456374,9.75050396 C186.301726,11.3021771 187.102079,12.7657573 187.828503,14.309703 C188.476178,15.6805537 189.22671,17.2878645 189.925813,19.0605429 C190.346882,20.0357479 190.705272,21.068136 191.097413,22.1963446 C191.126341,22.2828921 191.197055,22.4884424 191.446161,22.4884424 C191.560268,22.4884424 191.701695,22.4405322 191.83348,22.3555302 C191.85598,22.3416207 191.875266,22.3199839 191.88973,22.2968015 L192.783296,20.8162209 L192.82026,20.7482193 C192.833117,20.7234915 192.839546,20.6972181 192.839546,20.6693993 C192.839546,20.0836581 193.09508,19.3232764 193.782933,17.8674237 L200.481466,3.47271872 L202.614132,20.3958473 C202.614132,20.4793039 202.625382,20.5519419 202.635025,20.6183981 C202.643061,20.6601263 202.649489,20.7003091 202.649489,20.7389464 C202.649489,21.4962371 202.231635,21.9676119 201.407175,22.1407069 L199.877184,22.4482596 C199.861113,22.4513506 199.848255,22.4559871 199.833791,22.4637146 C199.697185,22.5270797 199.624864,22.6599919 199.624864,22.7573579 C199.624864,22.9072705 199.793613,23 199.914148,23 L204.034839,22.9984545 L206.738037,22.5873539 C206.757323,22.5858084 206.775001,22.5796264 206.791073,22.5718989 C206.927679,22.5069883 207,22.3740761 207,22.2782556 C207,22.1267975 206.831251,22.034068 206.718752,22.034068" id="Fill-17"></path>
                </g>
            </g>
        </g>
    </g>
</svg>